<?xml version="1.0" encoding="utf-8"?>
<!-- Generator: Adobe Illustrator 25.4.1, SVG Export Plug-In . SVG Version: 6.00 Build 0)  -->
<svg version="1.1" id="Layer_1" xmlns="http://www.w3.org/2000/svg" xmlns:xlink="http://www.w3.org/1999/xlink" x="0px" y="0px"
	 viewBox="0 0 1080 1920" style="enable-background:new 0 0 1080 1920;" xml:space="preserve">
<style type="text/css">
	.st0{clip-path:url(#SVGID_00000090295251111461080660000006117033541407715721_);}
	.st1{clip-path:url(#SVGID_00000068638430336293328300000012861299362903606161_);fill:#010101;}
	.st2{clip-path:url(#SVGID_00000166661429221521578110000014968636533711533440_);fill:#010101;}
	.st3{clip-path:url(#SVGID_00000046327300518312936080000015061812823102231940_);fill:#010101;}
	.st4{clip-path:url(#SVGID_00000091721910767473648000000008646942337309840524_);fill:#010101;}
	.st5{clip-path:url(#SVGID_00000124861253464549887320000007616886178107421317_);fill:#6B2978;}
	.st6{clip-path:url(#SVGID_00000158733916617224634700000007652725827958489786_);fill:#6B2978;}
	.st7{clip-path:url(#SVGID_00000074419421978352837480000009114972337468141973_);fill:#6B2978;}
	.st8{clip-path:url(#SVGID_00000102529464216464390050000011335180099364206733_);fill:#6B2978;}
	.st9{clip-path:url(#SVGID_00000149370252693434106420000015733535310312436105_);fill:#6B2978;}
	.st10{clip-path:url(#SVGID_00000172435602711465333420000011230166501076812985_);fill:#6B2978;}
	.st11{clip-path:url(#SVGID_00000064326663419655059310000010478816602091189380_);fill:#6B2978;}
	.st12{clip-path:url(#SVGID_00000031895872928852415900000008071963112255934636_);fill:#6B2978;}
	.st13{clip-path:url(#SVGID_00000103258536000363778410000001679586144817801660_);fill:#6B2978;}
	.st14{clip-path:url(#SVGID_00000079450130135100910370000009619914904374998930_);fill:#6B2978;}
	.st15{clip-path:url(#SVGID_00000013891292033347256590000001217792155596925878_);fill:#6B2978;}
	.st16{clip-path:url(#SVGID_00000068655614392855731360000004425182742040133258_);fill:#6B2978;}
	.st17{clip-path:url(#SVGID_00000114046112677169833340000002440545225784020631_);fill:#6B2978;}
	.st18{clip-path:url(#SVGID_00000083084987163504807740000004466348242415347646_);fill:#6B2978;}
	.st19{clip-path:url(#SVGID_00000002375015449124770980000012191155722150798779_);fill:#6B2978;}
	.st20{clip-path:url(#SVGID_00000150101259485267930230000013339522069707005057_);fill:#6B2978;}
	.st21{clip-path:url(#SVGID_00000173142640209253513950000012272321183841143472_);fill:#6B2978;}
	.st22{clip-path:url(#SVGID_00000158711129660201898790000006201895787144110769_);fill:#6B2978;}
	.st23{clip-path:url(#SVGID_00000052094665852282982930000009521114240915060649_);fill:#6B2978;}
	.st24{clip-path:url(#SVGID_00000016053058239985518720000007066071022596684458_);fill:#6B2978;}
	.st25{clip-path:url(#SVGID_00000034804919811542567690000002797023447870323109_);fill:#6B2978;}
	.st26{clip-path:url(#SVGID_00000055668104148040584210000006583795255534762398_);fill:#6B2978;}
	.st27{clip-path:url(#SVGID_00000150810933874671507230000005095932304381488313_);fill:#6B2978;}
	.st28{clip-path:url(#SVGID_00000003089536306923672950000012732137878751848894_);fill:#6B2978;}
	.st29{clip-path:url(#SVGID_00000124858786390049705860000012230829944779896978_);fill:#6B2978;}
	.st30{fill:#6B2978;}
	.st31{fill:#BCA6F4;}
</style>
<g>
	<g>
		<g>
			<g>
				<defs>
					<path id="SVGID_1_" d="M1079.6,1918.8c-529.8,0-959.4-429.6-959.4-959.4S549.8,0,1079.6,0V1918.8z"/>
				</defs>
				<clipPath id="SVGID_00000124856165110278627480000018293660460850052523_">
					<use xlink:href="#SVGID_1_"  style="overflow:visible;"/>
				</clipPath>
				<g style="clip-path:url(#SVGID_00000124856165110278627480000018293660460850052523_);">
					<g>
						<defs>
							<rect id="SVGID_00000132059862412692798990000000743844960490713021_" x="120.2" width="1918.8" height="1918.8"/>
						</defs>
						<clipPath id="SVGID_00000092450638315770255220000011433755489517241008_">
							<use xlink:href="#SVGID_00000132059862412692798990000000743844960490713021_"  style="overflow:visible;"/>
						</clipPath>
						<path style="clip-path:url(#SVGID_00000092450638315770255220000011433755489517241008_);fill:#010101;" d="M2599.9-224.2
							c-20.3-11.9-37.8-25.4-53.8-41.4s-29.7-33.8-41.4-53.8l38.9-22.7c9.9,16.9,21.1,31.4,34.5,44.8c13.3,13.3,27.9,24.5,44.8,34.5
							L2599.9-224.2z"/>
					</g>
					<g>
						<defs>
							<rect id="SVGID_00000103966233629299071270000002023223642489291148_" x="120.2" width="1918.8" height="1918.8"/>
						</defs>
						<clipPath id="SVGID_00000173882802406207046300000018013543391076326325_">
							<use xlink:href="#SVGID_00000103966233629299071270000002023223642489291148_"  style="overflow:visible;"/>
						</clipPath>
						<path style="clip-path:url(#SVGID_00000173882802406207046300000018013543391076326325_);fill:#010101;" d="M2604.9-90.8
							c-48.9-14.7-104.8-34.5-151.9-81.6s-66.8-103-81.6-151.9l43.2-13c13.9,45.7,30.6,93.5,70.4,133.3s87.6,56.5,133.3,70.4
							L2604.9-90.8z"/>
					</g>
					<g>
						<defs>
							<rect id="SVGID_00000077299113097855668760000001264509752046014384_" x="120.2" width="1918.8" height="1918.8"/>
						</defs>
						<clipPath id="SVGID_00000019635852740400736550000015173689908566349736_">
							<use xlink:href="#SVGID_00000077299113097855668760000001264509752046014384_"  style="overflow:visible;"/>
						</clipPath>
						<path style="clip-path:url(#SVGID_00000019635852740400736550000015173689908566349736_);fill:#010101;" d="M2603.1,31.4
							c-22-8.5-44.4-15.1-68.2-22.2c-60.4-17.6-122.8-35.9-175.4-88.5c-52.6-52.6-70.9-115-88.5-175.4
							c-6.9-23.8-13.5-46.2-22.2-68.2l41.9-16.3c9.2,23.8,16.5,48.3,23.5,72c16.9,57.4,32.7,111.6,77.1,156.2
							c44.4,44.4,98.8,60.4,156.2,77.1c23.6,6.9,48.1,14,72,23.5L2603.1,31.4z"/>
					</g>
					<g>
						<defs>
							<rect id="SVGID_00000132786285563440667640000016683769140587518365_" x="120.2" width="1918.8" height="1918.8"/>
						</defs>
						<clipPath id="SVGID_00000053506773820050331820000012648365674824270010_">
							<use xlink:href="#SVGID_00000132786285563440667640000016683769140587518365_"  style="overflow:visible;"/>
						</clipPath>
						<path style="clip-path:url(#SVGID_00000053506773820050331820000012648365674824270010_);fill:#010101;" d="M2595.6,177.5
							c-44.1-42.8-97.4-58.5-153.9-75C2381.4,84.9,2319,66.6,2266.4,14c-52.6-52.6-70.9-115-88.5-175.4
							c-16.5-56.5-32.2-109.8-75-153.9l32.3-31.4c50.6,52.1,68.6,113.4,86,172.7c16.9,57.4,32.7,111.6,77.1,156.2
							c44.4,44.4,98.8,60.4,156.2,77.1c59.3,17.4,120.6,35.4,172.7,86L2595.6,177.5z"/>
					</g>
					<g>
						<defs>
							<rect id="SVGID_00000029742221889068891580000000943592371769744805_" x="120.2" width="1918.8" height="1918.8"/>
						</defs>
						<clipPath id="SVGID_00000171715541774006239560000001741927210820285621_">
							<use xlink:href="#SVGID_00000029742221889068891580000000943592371769744805_"  style="overflow:visible;"/>
						</clipPath>
						<path style="clip-path:url(#SVGID_00000171715541774006239560000001741927210820285621_);fill:#6B2978;" d="M2589.8,455.9
							c-2.7-8.9-5.3-17.9-8-26.8c-16.9-57.4-32.7-111.6-77.1-156.2c-44.4-44.4-98.8-60.4-156.2-77.1
							c-60.4-17.6-122.8-35.9-175.4-88.5c-52.6-52.6-70.9-115-88.5-175.4c-16.9-57.4-32.7-111.6-77.1-156.2
							c-44.4-44.4-98.8-60.4-156.2-77.1c-9.1-2.7-17.9-5.3-26.8-8l13.1-43c8.7,2.7,17.6,5.3,26.3,7.8
							c60.4,17.6,122.8,35.9,175.4,88.5c52.6,52.6,70.9,115,88.5,175.4c16.9,57.4,32.7,111.6,77.1,156.2
							c44.4,44.4,98.8,60.4,156.2,77.1c60.4,17.6,122.8,35.9,175.4,88.5c52.6,52.6,70.9,115,88.5,175.4c2.7,8.9,5.2,17.6,7.8,26.3
							L2589.8,455.9z"/>
					</g>
					<g>
						<defs>
							<rect id="SVGID_00000088125622702442743260000006621111180693470621_" x="120.2" width="1918.8" height="1918.8"/>
						</defs>
						<clipPath id="SVGID_00000106127263016289609340000000854811049449713539_">
							<use xlink:href="#SVGID_00000088125622702442743260000006621111180693470621_"  style="overflow:visible;"/>
						</clipPath>
						<path style="clip-path:url(#SVGID_00000106127263016289609340000000854811049449713539_);fill:#6B2978;" d="M2597.2,715.7
							c-6.9-5.7-13.7-11.7-20.1-18.1c-52.6-52.6-70.9-115-88.5-175.4c-16.9-57.4-32.7-111.6-77.1-156.2
							c-44.4-44.4-98.8-60.4-156.2-77.1c-60.4-17.6-122.8-35.9-175.4-88.5c-52.6-52.6-70.9-115-88.5-175.4
							c-16.9-57.4-32.7-111.6-77.1-156.2c-44.4-44.4-98.8-60.4-156.2-77.1c-60.4-17.6-122.8-35.9-175.4-88.5
							c-6.4-6.4-12.4-13.1-18.1-20.1l35-28.4c4.6,5.7,9.6,11.4,14.9,16.5c44.4,44.4,98.8,60.4,156.2,77.1
							c60.4,17.6,122.8,35.9,175.4,88.5s70.9,115,88.5,175.4c16.9,57.4,32.7,111.6,77.1,156.2c44.4,44.4,98.8,60.4,156.2,77.1
							c60.4,17.6,122.8,35.9,175.4,88.5c52.6,52.6,70.9,115,88.5,175.4c16.9,57.4,32.7,111.6,77.1,156.2
							c5.3,5.3,10.8,10.3,16.5,14.9L2597.2,715.7z"/>
					</g>
					<g>
						<defs>
							<rect id="SVGID_00000093155829037195684140000009111184251043312005_" x="120.2" width="1918.8" height="1918.8"/>
						</defs>
						<clipPath id="SVGID_00000023980161120243776150000005956384689695101624_">
							<use xlink:href="#SVGID_00000093155829037195684140000009111184251043312005_"  style="overflow:visible;"/>
						</clipPath>
						<path style="clip-path:url(#SVGID_00000023980161120243776150000005956384689695101624_);fill:#6B2978;" d="M2604,862.1
							c-34.8-12.3-80.1-31.4-119.9-71.2c-52.6-52.6-70.9-115-88.5-175.4c-16.9-57.4-32.7-111.6-77.1-156.2
							c-44.4-44.4-98.8-60.4-156.2-77.1c-60.4-17.6-122.8-35.9-175.4-88.5s-70.9-115-88.5-175.4c-16.9-57.4-32.7-111.6-77.1-156.2
							c-44.4-44.4-98.8-60.4-156.2-77.1c-60.4-17.6-122.8-35.9-175.4-88.5c-40-40-59-85.1-71.2-119.9l42.5-14.9
							c10.7,30.4,27.2,69.5,60.6,103c44.4,44.4,98.8,60.4,156.2,77.1c60.4,17.6,122.8,35.9,175.4,88.5
							c52.6,52.6,70.9,115,88.5,175.4c16.9,57.4,32.7,111.6,77.1,156.2c44.4,44.4,98.8,60.4,156.2,77.1
							c60.4,17.6,122.8,35.9,175.4,88.5c52.6,52.6,70.9,115,88.5,175.4c16.9,57.4,32.7,111.6,77.1,156.2
							c33.4,33.4,72.7,49.9,103,60.6L2604,862.1z"/>
					</g>
					<g>
						<defs>
							<rect id="SVGID_00000052095307404382378560000006451667033680421001_" x="120.2" width="1918.8" height="1918.8"/>
						</defs>
						<clipPath id="SVGID_00000149344621509904421390000015332730940083641218_">
							<use xlink:href="#SVGID_00000052095307404382378560000006451667033680421001_"  style="overflow:visible;"/>
						</clipPath>
						<path style="clip-path:url(#SVGID_00000149344621509904421390000015332730940083641218_);fill:#6B2978;" d="M2604.5,984.3
							c-12.8-4.1-25.6-7.8-38.4-11.5c-60.4-17.6-122.8-35.9-175.4-88.5c-52.6-52.6-70.9-115-88.5-175.4
							c-16.9-57.4-32.7-111.6-77.1-156.2c-44.4-44.4-98.8-60.4-156.2-77.1c-60.4-17.6-122.8-35.9-175.4-88.5
							c-52.6-52.6-70.9-115-88.5-175.4c-16.9-57.4-32.7-111.6-77.1-156.2c-44.4-44.4-98.8-60.4-156.2-77.1
							c-60.4-17.6-122.8-35.9-175.4-88.5c-52.6-52.6-70.9-115-88.5-175.4c-3.7-12.8-7.5-25.8-11.5-38.4l42.8-13.9
							c4.3,13.1,8.2,26.3,11.9,39.6c16.9,57.4,32.7,111.6,77.1,156.2c44.4,44.4,98.8,60.4,156.2,77.1
							c60.4,17.6,122.8,35.9,175.4,88.5c52.6,52.6,70.9,115,88.5,175.4c16.9,57.4,32.7,111.6,77.1,156.2
							c44.4,44.4,98.8,60.4,156.2,77.1c60.4,17.6,122.8,35.9,175.4,88.5c52.6,52.6,70.9,115,88.5,175.4
							c16.9,57.4,32.7,111.6,77.1,156.2c44.4,44.4,98.8,60.4,156.2,77.1c13.1,3.9,26.5,7.8,39.6,11.9L2604.5,984.3z"/>
					</g>
					<g>
						<defs>
							<rect id="SVGID_00000087398880148201799700000011385704639185505184_" x="120.2" width="1918.8" height="1918.8"/>
						</defs>
						<clipPath id="SVGID_00000066498864564784189680000013771408604058074500_">
							<use xlink:href="#SVGID_00000087398880148201799700000011385704639185505184_"  style="overflow:visible;"/>
						</clipPath>
						<path style="clip-path:url(#SVGID_00000066498864564784189680000013771408604058074500_);fill:#6B2978;" d="M2598.7,1117.7
							c-37.8-26.1-80.7-38.7-125.8-51.9c-60.2-17.6-122.8-35.9-175.4-88.5c-52.6-52.6-70.9-115-88.5-175.4
							c-16.9-57.4-32.7-111.6-77.1-156.2c-44.4-44.4-98.8-60.4-156.2-77.1c-60.2-17.6-122.8-35.9-175.4-88.5
							c-52.6-52.6-70.9-115-88.5-175.4c-16.9-57.4-32.7-111.6-77.1-156.2c-44.4-44.4-98.8-60.4-156.2-77.1
							c-60.4-17.6-122.8-35.9-175.4-88.5c-52.8-52.8-70.9-115.1-88.7-175.5c-13.1-45.1-25.8-87.8-51.9-125.8l37.1-25.6
							c30.2,43.9,44.4,92,58.1,138.6c16.9,57.4,32.7,111.6,77.1,156.2c44.4,44.4,98.8,60.4,156.2,77.1
							c60.4,17.6,122.8,35.9,175.4,88.5c52.6,52.6,70.9,115,88.5,175.4c16.9,57.4,32.7,111.6,77.1,156.2
							c44.4,44.4,98.8,60.4,156.2,77.1c60.4,17.8,122.8,35.9,175.4,88.5c52.6,52.6,70.9,115,88.5,175.4
							c16.9,57.4,32.7,111.6,77.1,156.2c44.4,44.4,98.8,60.4,156.2,77.1c46.5,13.7,94.9,27.7,138.6,58.1L2598.7,1117.7z"/>
					</g>
					<g>
						<defs>
							<rect id="SVGID_00000123438530438113512010000014601573585482163330_" x="120.2" width="1918.8" height="1918.8"/>
						</defs>
						<clipPath id="SVGID_00000168078544627793372890000008916461013547232940_">
							<use xlink:href="#SVGID_00000123438530438113512010000014601573585482163330_"  style="overflow:visible;"/>
						</clipPath>
						<path style="clip-path:url(#SVGID_00000168078544627793372890000008916461013547232940_);fill:#6B2978;" d="M2590.5,1323.1
							c-14.2-36.2-31.6-64-54.7-86.9c-44.4-44.4-98.8-60.4-156.2-77.1c-60.4-17.6-122.8-35.9-175.4-88.5
							c-52.6-52.6-70.9-115-88.5-175.4c-16.9-57.4-32.7-111.8-77.1-156.2c-44.4-44.4-98.8-60.4-156.2-77.1
							c-60.2-17.6-122.8-35.9-175.4-88.5c-52.6-52.6-70.9-115-88.5-175.4c-16.9-57.4-32.7-111.6-77.1-156.2
							c-44.4-44.4-98.8-60.4-156.2-77.1c-60.2-17.6-122.8-35.9-175.4-88.5c-52.6-52.6-70.9-115-88.5-175.4
							c-16.9-57.4-32.7-111.6-77.1-156.2c-23.1-23.1-50.6-40.3-86.9-54.7l16.5-41.9c42.3,16.7,74.8,37.1,102.3,64.7
							c52.6,52.6,70.9,115,88.5,175.4c16.9,57.4,32.7,111.6,77.1,156.2c44.4,44.4,98.8,60.4,156.2,77.1
							c60.4,17.6,122.8,35.9,175.4,88.5c52.6,52.6,70.9,115,88.5,175.4c16.9,57.4,32.7,111.6,77.1,156.2
							c44.4,44.4,98.8,60.4,156.2,77.1c60.4,17.6,122.8,35.9,175.4,88.5c52.6,52.6,70.9,115,88.5,175.4
							c16.9,57.4,32.7,111.6,77.1,156.2c44.4,44.4,98.8,60.4,156.2,77.1c60.4,17.6,122.8,35.9,175.4,88.5
							c27.5,27.5,48.1,60.1,64.7,102.3L2590.5,1323.1z"/>
					</g>
					<g>
						<defs>
							<rect id="SVGID_00000137820405290798447250000007491579624296337825_" x="120.2" width="1918.8" height="1918.8"/>
						</defs>
						<clipPath id="SVGID_00000034073006903541505250000012295794995424935862_">
							<use xlink:href="#SVGID_00000137820405290798447250000007491579624296337825_"  style="overflow:visible;"/>
						</clipPath>
						<path style="clip-path:url(#SVGID_00000034073006903541505250000012295794995424935862_);fill:#6B2978;" d="M2594.2,1645.8
							c-42.1-49.2-58.6-105.7-74.6-160.1c-16.9-57.4-32.7-111.6-77.1-156.2c-44.4-44.4-98.8-60.4-156.2-77.1
							c-60.4-17.6-122.8-35.9-175.4-88.5c-52.6-52.6-70.9-115-88.5-175.4c-16.9-57.4-32.7-111.6-77.1-156.2
							c-44.4-44.4-98.8-60.4-156.2-77.1c-60.4-17.6-122.8-35.9-175.4-88.5c-52.6-52.6-70.9-115-88.5-175.4
							c-16.9-57.4-32.7-111.6-77.1-156.2c-44.4-44.4-98.8-60.4-156.2-77.1c-60.4-17.6-122.8-35.9-175.4-88.5
							c-52.6-52.9-70.9-115.3-88.5-175.5c-16.9-57.4-32.7-111.6-77.1-156.2c-44.4-44.4-98.8-60.4-156.2-77.1
							c-54.5-16-110.9-32.5-160.1-74.6l29.3-34.3c41.9,35.9,91.3,50.3,143.6,65.6c60.4,17.6,122.8,35.9,175.4,88.5
							c52.6,52.6,70.9,115,88.5,175.4c16.9,57.4,32.7,111.6,77.1,156.2c44.4,44.4,98.8,60.4,156.2,77.1
							c60.4,17.6,122.8,35.9,175.4,88.5s70.9,115,88.5,175.4c16.9,57.4,32.7,111.6,77.1,156.2c44.4,44.4,98.8,60.4,156.2,77.1
							c60.4,17.6,122.8,35.9,175.4,88.5c52.6,52.6,70.9,115,88.5,175.4c16.9,57.4,32.7,111.6,77.1,156.2
							c44.4,44.4,98.8,60.4,156.2,77.1c60.4,17.6,122.8,35.9,175.4,88.5c52.6,52.6,70.9,115,88.5,175.4
							c15.3,52.2,29.8,101.6,65.6,143.6L2594.2,1645.8z"/>
					</g>
					<g>
						<defs>
							<rect id="SVGID_00000144338063042146350470000010593172531710327440_" x="120.2" width="1918.8" height="1918.8"/>
						</defs>
						<clipPath id="SVGID_00000051346431897529721110000004899885098615439755_">
							<use xlink:href="#SVGID_00000144338063042146350470000010593172531710327440_"  style="overflow:visible;"/>
						</clipPath>
						<path style="clip-path:url(#SVGID_00000051346431897529721110000004899885098615439755_);fill:#6B2978;" d="M2602.2,1812.6
							c-34.6-15.3-63.3-34.5-87.2-58.5c-52.6-52.6-70.9-115-88.5-175.4c-16.9-57.4-32.7-111.6-77.1-156.2
							c-44.4-44.4-98.8-60.4-156.2-77.1c-60.2-17.6-122.8-35.9-175.4-88.5s-70.9-115-88.5-175.4c-16.9-57.4-32.7-111.6-77.1-156.2
							c-44.4-44.4-98.8-60.4-156.2-77.1c-60.2-17.6-122.8-35.9-175.4-88.5c-52.6-52.6-70.9-115-88.5-175.4
							c-16.9-57.4-32.7-111.6-77.1-156.2c-44.4-44.4-98.8-60.4-156.2-77.1c-60.4-17.6-122.8-35.9-175.4-88.5
							c-52.6-52.6-70.9-115-88.5-175.4C918.3,30,902.5-24.2,858-68.8c-44.4-44.4-98.8-60.4-156.2-77.1
							c-60.4-17.6-122.8-35.9-175.4-88.5c-24-24-43.2-52.6-58.5-87.2l41.2-18.1c13.1,29.8,28.8,53.3,49,73.6
							c44.4,44.4,98.8,60.4,156.2,77.1c60.4,17.6,122.8,35.9,175.4,88.5c52.4,52.4,70.7,114.8,88.3,175.2
							c16.9,57.4,32.7,111.6,77.1,156.2c44.4,44.4,98.8,60.4,156.2,77.1c60.4,17.6,122.8,35.9,175.4,88.5s70.9,115,88.5,175.4
							c16.9,57.4,32.7,111.8,77.1,156.2c44.4,44.4,98.8,60.4,156.2,77.1c60.4,17.6,122.8,35.9,175.4,88.5
							c52.6,52.6,70.9,115,88.5,175.4c16.9,57.4,32.7,111.6,77.1,156.2c44.4,44.4,98.8,60.4,156.2,77.1
							c60.4,17.6,122.8,35.9,175.4,88.5c52.6,52.6,70.9,115,88.5,175.4c16.9,57.4,32.7,111.6,77.1,156.2
							c20.3,20.3,43.7,35.9,73.6,49L2602.2,1812.6z"/>
					</g>
					<g>
						<defs>
							<rect id="SVGID_00000170246004110541180010000008564336894942332324_" x="120.2" width="1918.8" height="1918.8"/>
						</defs>
						<clipPath id="SVGID_00000069373928166213959510000003019627910671861670_">
							<use xlink:href="#SVGID_00000170246004110541180010000008564336894942332324_"  style="overflow:visible;"/>
						</clipPath>
						<path style="clip-path:url(#SVGID_00000069373928166213959510000003019627910671861670_);fill:#6B2978;" d="M2605.1,1938.2
							l-7.8-2.3c-60.4-17.6-122.8-35.9-175.4-88.5c-52.6-52.6-70.9-115-88.5-175.4c-16.9-57.4-32.7-111.6-77.1-156.2
							c-44.4-44.4-98.8-60.4-156.2-77.1c-60.4-17.6-122.8-35.9-175.4-88.5c-52.6-52.6-70.9-115-88.5-175.4
							c-16.9-57.4-32.7-111.6-77.1-156.2c-44.4-44.4-98.8-60.4-156.2-77.1c-60.4-17.8-122.8-35.9-175.4-88.5
							c-52.6-52.6-70.9-115-88.5-175.4c-16.9-57.4-32.7-111.6-77.1-156.2c-44.4-44.4-98.8-60.4-156.2-77.1
							c-60.4-17.6-122.8-35.9-175.4-88.5c-52.6-52.6-70.9-115-88.5-175.4c-16.9-57.4-32.7-111.6-77.1-156.2
							c-44.4-44.4-98.8-60.4-156.2-77.1C548.4-70.2,486-88.5,433.4-141.1c-52.6-52.6-70.9-115-88.5-175.4l-2.3-8l43.2-12.8l2.3,8
							c16.9,57.4,32.7,111.6,77.1,156.2c44.4,44.4,98.8,60.4,156.2,77.1c60.4,17.6,122.8,35.9,175.4,88.5
							c52.6,52.6,70.9,115,88.5,175.4c16.9,57.4,32.7,111.8,77.1,156.2c44.4,44.4,98.8,60.4,156.2,77.1
							c60.4,17.6,122.8,35.9,175.4,88.5c52.6,52.6,70.9,115,88.5,175.4c16.9,57.4,32.7,111.6,77.1,156.2
							c44.4,44.4,98.8,60.4,156.2,77.1c60.2,17.6,122.8,35.9,175.4,88.5c52.6,52.6,70.9,115,88.5,175.4
							c16.9,57.4,32.7,111.6,77.1,156.2c44.4,44.4,98.8,60.4,156.2,77.1c60.2,17.6,122.8,35.9,175.4,88.5
							c52.6,52.6,70.9,115,88.5,175.4c16.9,57.4,32.7,111.6,77.1,156.2c44.4,44.4,98.8,60.4,156.2,77.1l8,2.3L2605.1,1938.2z"/>
					</g>
					<g>
						<defs>
							<rect id="SVGID_00000078028346392198467830000005130895346818433933_" x="120.2" width="1918.8" height="1918.8"/>
						</defs>
						<clipPath id="SVGID_00000034065462987542123680000015617363670789131671_">
							<use xlink:href="#SVGID_00000078028346392198467830000005130895346818433933_"  style="overflow:visible;"/>
						</clipPath>
						<path style="clip-path:url(#SVGID_00000034065462987542123680000015617363670789131671_);fill:#6B2978;" d="M2601.2,2064.2
							c-30.6-15.5-62.9-25.1-97.4-35c-60.2-17.6-122.8-35.9-175.4-88.5c-52.6-52.6-70.9-115-88.5-175.4
							c-16.9-57.4-32.7-111.6-77.1-156.2c-44.4-44.4-98.8-60.4-156.2-77.1c-60.4-17.6-122.8-35.9-175.4-88.5
							c-52.6-52.6-70.9-115-88.5-175.4c-16.9-57.4-32.7-111.6-77.1-156.2c-44.4-44.4-98.8-60.4-156.2-77.1
							c-60.4-17.6-122.8-35.9-175.4-88.5c-52.6-52.6-70.9-115-88.5-175.4c-16.9-57.4-32.7-111.6-77.1-156.2
							c-44.4-44.4-98.8-60.4-156.2-77.1c-60.4-17.6-122.8-35.9-175.4-88.5c-52.6-52.6-70.9-115-88.5-175.4
							c-16.9-57.4-32.7-111.6-77.1-156.2c-44.4-44.4-98.8-60.4-156.2-77.1C454.9,23.1,392.5,4.8,340-47.8s-70.9-115-88.5-175.4
							c-10.1-34.3-19.5-66.8-35-97.4l40-20.6c17.4,34.3,27.9,70.2,38,105c16.9,57.4,32.7,111.6,77.1,156.2
							C416-35.5,470.4-19.5,527.7-2.8C588.2,14.7,650.5,33,703.1,85.6c52.6,52.6,70.9,115,88.5,175.4
							c16.9,57.4,32.7,111.6,77.1,156.2c44.4,44.4,98.8,60.4,156.2,77.1c60.4,17.6,122.8,35.9,175.4,88.5
							c52.6,52.6,70.9,115,88.5,175.4c16.9,57.4,32.7,111.6,77.1,156.2c44.4,44.4,98.8,60.4,156.2,77.1
							c60.4,17.6,122.8,35.9,175.4,88.5c52.6,52.6,70.9,115,88.5,175.4c16.9,57.4,32.7,111.6,77.1,156.2
							c44.4,44.4,98.8,60.4,156.2,77.1c60.4,17.6,122.8,35.9,175.4,88.5c52.6,52.6,70.9,115,88.5,175.4
							c16.9,57.4,32.7,111.6,77.1,156.2c44.4,44.4,98.8,60.4,156.2,77.1c34.8,10.1,70.7,20.8,105,38L2601.2,2064.2z"/>
					</g>
					<g>
						<defs>
							<rect id="SVGID_00000023994191937433409940000015009609862229713792_" x="120.2" width="1918.8" height="1918.8"/>
						</defs>
						<clipPath id="SVGID_00000036948284536314239850000008698034519641804210_">
							<use xlink:href="#SVGID_00000023994191937433409940000015009609862229713792_"  style="overflow:visible;"/>
						</clipPath>
						<path style="clip-path:url(#SVGID_00000036948284536314239850000008698034519641804210_);fill:#6B2978;" d="M2592.8,2230.8
							c-7.8-11.4-16.3-21.7-25.9-31.3c-44.4-44.4-98.8-60.4-156.2-77.1c-60.4-17.6-122.8-35.9-175.4-88.5
							c-52.6-52.6-70.9-115-88.5-175.4c-16.9-57.4-32.7-111.6-77.1-156.2c-44.4-44.4-98.8-60.4-156.2-77.1
							c-60.4-17.6-122.8-35.9-175.4-88.5c-52.6-52.6-70.9-115-88.5-175.4c-16.9-57.4-32.7-111.6-77.1-156.2
							c-44.4-44.4-98.8-60.4-156.2-77.1c-60.4-17.6-122.8-35.9-175.4-88.5c-52.6-52.6-70.9-115-88.5-175.4
							c-16.9-57.4-32.7-111.6-77.1-156.2c-44.4-44.4-98.8-60.4-156.2-77.1c-60.4-17.6-122.8-35.9-175.4-88.5
							c-52.6-52.6-70.9-115-88.5-175.4c-16.9-57.4-32.7-111.6-77.1-156.2c-44.4-44.4-98.8-60.4-156.2-77.1
							c-60.4-17.6-122.8-35.9-175.4-88.5s-71.1-115.3-88.7-175.7c-16.9-57.4-32.7-111.6-77.1-156.2c-9.6-9.6-19.9-18.1-31.3-25.9
							l25.4-37.1c13.5,9.2,26.3,19.7,37.8,31.3c52.6,52.6,70.9,115,88.5,175.4c16.9,57.4,32.7,111.6,77.1,156.2
							s98.8,60.4,156.2,77.1c60.4,17.6,122.8,35.9,175.4,88.5c52.6,52.6,70.9,115,88.5,175.4c16.9,57.4,32.7,111.6,77.1,156.2
							c44.4,44.4,98.8,60.4,156.2,77.1c60.4,17.6,122.8,35.9,175.4,88.5c52.6,52.6,70.9,115,88.5,175.4
							c16.9,57.4,32.7,111.6,77.1,156.2c44.4,44.4,98.8,60.4,156.2,77.1c60.4,17.6,122.8,35.9,175.4,88.5
							c52.6,52.6,70.9,115,88.5,175.4c16.9,57.4,32.7,111.6,77.1,156.2c44.4,44.4,98.8,60.4,156.2,77.1
							c60.4,17.6,122.8,35.9,175.4,88.5c52.6,52.6,70.9,115,88.5,175.4c16.9,57.4,32.7,111.6,77.1,156.2
							c44.4,44.4,98.8,60.4,156.2,77.1c60.4,17.6,122.8,35.9,175.4,88.5c11.5,11.5,22,24.2,31.3,37.8L2592.8,2230.8z"/>
					</g>
					<g>
						<defs>
							<rect id="SVGID_00000142898257249325785370000008329180592931986584_" x="120.2" width="1918.8" height="1918.8"/>
						</defs>
						<clipPath id="SVGID_00000180368142637840822920000009480240507931810213_">
							<use xlink:href="#SVGID_00000142898257249325785370000008329180592931986584_"  style="overflow:visible;"/>
						</clipPath>
						<path style="clip-path:url(#SVGID_00000180368142637840822920000009480240507931810213_);fill:#6B2978;" d="M2562.8,2488.4
							c-4.3-13.1-8.2-26.3-11.9-39.6c-16.9-57.4-32.7-111.6-77.1-156.2c-44.4-44.4-98.8-60.4-156.2-77.1
							c-60.4-17.6-122.8-35.9-175.4-88.5c-52.6-52.6-70.9-115-88.5-175.4c-16.9-57.4-32.7-111.6-77.1-156.2
							c-44.4-44.4-98.8-60.4-156.2-77.1c-60.4-17.6-122.8-35.9-175.4-88.5c-52.6-52.6-70.9-115-88.5-175.4
							c-16.9-57.4-32.7-111.6-77.1-156.2c-44.4-44.4-98.8-60.4-156.2-77.1c-60.4-17.6-122.8-35.9-175.4-88.5s-70.9-115-88.5-175.4
							c-16.9-57.4-32.7-111.6-77.1-156.2c-44.4-44.4-98.8-60.4-156.2-77.1c-60.4-17.6-122.8-35.9-175.4-88.5
							c-52.6-52.6-70.9-115-88.5-175.4c-16.9-57.4-32.7-111.8-77.1-156.2s-98.8-60.4-156.2-77.1c-60.4-17.6-122.8-35.9-175.4-88.5
							S82.9,23.6,65.3-36.8C48.4-94.2,32.6-148.4-11.8-192.9c-44.4-44.4-98.8-60.4-156.2-77.1c-13.1-3.9-26.5-7.8-39.6-11.9
							l13.9-42.8c12.8,4.1,25.6,7.8,38.4,11.5C-95-295.6-32.6-277.3,20-224.8c52.2,52.4,70.5,114.8,88.1,175
							C125,7.8,140.8,62,185.4,106.4c44.4,44.4,98.8,60.4,156.2,77.1c60.4,17.6,122.8,35.9,175.4,88.5s70.9,115,88.5,175.4
							c16.9,57.4,32.7,111.6,77.1,156.2c44.4,44.4,98.8,60.4,156.2,77.1c60.4,17.6,122.8,35.9,175.4,88.5
							c52.6,52.6,70.9,115,88.5,175.4c16.9,57.4,32.7,111.6,77.1,156.2c44.4,44.4,98.8,60.4,156.2,77.1
							c60.4,17.6,122.8,35.9,175.4,88.5c52.6,52.6,70.9,115,88.5,175.4c16.9,57.4,32.7,111.6,77.1,156.2
							c44.4,44.4,98.8,60.4,156.2,77.1c60.4,17.6,122.8,35.9,175.4,88.5s70.9,115,88.5,175.4c16.9,57.4,32.7,111.6,77.1,156.2
							c44.4,44.4,98.8,60.4,156.2,77.1c60.4,17.6,122.8,35.9,175.4,88.5c52.6,52.6,70.9,115,88.5,175.4c3.7,12.8,7.5,25.8,11.5,38.4
							L2562.8,2488.4z"/>
					</g>
					<g>
						<defs>
							<rect id="SVGID_00000131327800087928567030000008070432844582327457_" x="120.2" width="1918.8" height="1918.8"/>
						</defs>
						<clipPath id="SVGID_00000002370944674857677180000012826364110737138876_">
							<use xlink:href="#SVGID_00000131327800087928567030000008070432844582327457_"  style="overflow:visible;"/>
						</clipPath>
						<path style="clip-path:url(#SVGID_00000002370944674857677180000012826364110737138876_);fill:#6B2978;" d="M2441.1,2489
							c-10.7-30.4-27.2-69.5-60.6-103c-44.4-44.4-98.8-60.4-156.2-77.1c-60.2-17.6-122.8-35.9-175.4-88.5
							c-52.6-52.6-70.9-115-88.5-175.4c-16.9-57.4-32.7-111.6-77.1-156.2c-44.4-44.4-98.8-60.4-156.2-77.1
							c-60.4-17.6-122.8-35.9-175.4-88.5c-52.6-52.6-70.9-115-88.5-175.4c-16.9-57.4-32.7-111.6-77.1-156.2
							c-44.4-44.4-98.8-60.4-156.2-77.1c-60.2-17.6-122.8-35.9-175.4-88.5c-52.6-52.6-70.9-115-88.5-175.4
							c-16.9-57.4-32.7-111.6-77.1-156.2c-44.4-44.4-98.8-60.4-156.2-77.1c-60.2-17.8-122.8-35.9-175.4-88.5
							c-52.6-52.6-70.9-115-88.5-175.4c-16.9-57.4-32.7-111.8-77.1-156.2s-98.8-60.4-156.2-77.1c-60.4-17.8-122.8-35.9-175.4-88.5
							S-10.4,116.9-28,56.5C-45.1-1.2-61-55.4-105.5-99.9c-33.4-33.4-72.7-49.9-103-60.6l14.9-42.5c34.8,12.3,80.1,31.3,119.9,71.2
							c52.6,52.6,70.9,115,88.5,175.4c16.9,57.4,32.7,111.6,77.1,156.2c44.4,44.4,98.8,60.4,156.2,77.1
							c60.4,17.6,122.8,35.9,175.4,88.5c52.6,52.6,70.9,115,88.5,175.4c16.9,57.4,32.7,111.6,77.1,156.2
							c44.4,44.4,98.8,60.4,156.2,77.1c60.4,17.6,122.8,35.9,175.4,88.5s70.9,115,88.5,175.4c16.9,57.4,32.7,111.6,77.1,156.2
							c44.4,44.4,98.8,60.4,156.2,77.1c60.4,17.6,122.8,35.9,175.4,88.5c52.6,52.6,70.9,115,88.5,175.4
							c16.9,57.4,32.7,111.6,77.1,156.2c44.4,44.4,98.8,60.4,156.2,77.1c60.4,17.6,122.8,35.9,175.4,88.5
							c52.6,52.6,70.9,115,88.5,175.4c16.9,57.4,32.7,111.6,77.1,156.2c44.4,44.4,98.8,60.4,156.2,77.1
							c60.4,17.6,122.8,35.9,175.4,88.5c40,40,59,85.1,71.2,119.9L2441.1,2489z"/>
					</g>
					<g>
						<defs>
							<rect id="SVGID_00000031886063860929233070000015747538212762633663_" x="120.2" width="1918.8" height="1918.8"/>
						</defs>
						<clipPath id="SVGID_00000014595606246648954150000010816040671446002833_">
							<use xlink:href="#SVGID_00000031886063860929233070000015747538212762633663_"  style="overflow:visible;"/>
						</clipPath>
						<path style="clip-path:url(#SVGID_00000014595606246648954150000010816040671446002833_);fill:#6B2978;" d="M2302.1,2495.7
							c-4.6-5.7-9.6-11.4-14.9-16.5c-44.4-44.4-98.8-60.4-156.2-77.1c-60.4-17.6-122.8-35.9-175.4-88.5
							c-52.6-52.6-70.9-115-88.5-175.4c-16.9-57.4-32.7-111.6-77.1-156.2c-44.4-44.4-98.8-60.4-156.2-77.1
							c-60.4-17.6-122.8-35.9-175.4-88.5c-52.6-52.6-70.9-115-88.5-175.4c-16.9-57.4-32.7-111.6-77.1-156.2
							c-44.4-44.4-98.8-60.4-156.2-77.1c-60.4-17.6-122.8-35.9-175.4-88.5s-70.9-115-88.5-175.4c-16.9-57.4-32.7-111.6-77.1-156.2
							c-44.4-44.4-98.8-60.4-156.2-77.1c-60.4-17.6-122.8-35.9-175.4-88.5c-52.6-52.6-70.9-115-88.5-175.4
							c-16.9-57.4-32.7-111.8-77.1-156.2s-98.8-60.4-156.2-77.1C82.2,396,19.8,377.7-32.8,325.1s-70.9-115-88.5-175.4
							C-138.2,92.4-154,38.2-198.4-6.4c-5.3-5.3-10.8-10.3-16.5-14.9l28.4-35c6.9,5.7,13.7,11.7,20.1,18.1
							c52.2,52.2,70.5,114.6,88.1,175C-61.4,194.2-45.6,248.4-1.2,293c44.4,44.4,98.8,60.4,156.2,77.1
							c60.4,17.6,122.8,35.9,175.4,88.5s70.9,115,88.5,175.4c16.9,57.4,32.7,111.6,77.1,156.2c44.4,44.4,98.8,60.4,156.2,77.1
							c60.4,17.6,122.8,35.9,175.4,88.5c52.6,52.6,70.9,115,88.5,175.4c16.9,57.4,32.7,111.6,77.1,156.2
							c44.4,44.4,98.8,60.4,156.2,77.1c60.4,17.6,122.8,35.9,175.4,88.5c52.6,52.6,70.9,115,88.5,175.4
							c16.9,57.4,32.7,111.6,77.1,156.2c44.4,44.4,98.8,60.4,156.2,77.1c60.4,17.6,122.8,35.9,175.4,88.5
							c52.6,52.6,70.9,115,88.5,175.4c16.9,57.4,32.7,111.6,77.1,156.2c44.4,44.4,98.8,60.4,156.2,77.1
							c60.4,17.6,122.8,35.9,175.4,88.5c6.4,6.4,12.4,13.1,18.1,20.1L2302.1,2495.7z"/>
					</g>
					<g>
						<defs>
							<rect id="SVGID_00000067214068552720754180000006207896969794064288_" x="120.2" width="1918.8" height="1918.8"/>
						</defs>
						<clipPath id="SVGID_00000018206820022212065780000008883331929055709868_">
							<use xlink:href="#SVGID_00000067214068552720754180000006207896969794064288_"  style="overflow:visible;"/>
						</clipPath>
						<path style="clip-path:url(#SVGID_00000018206820022212065780000008883331929055709868_);fill:#6B2978;" d="M2064.2,2503
							c-8.7-2.7-17.6-5.3-26.3-7.8c-60.2-17.6-122.8-35.9-175.4-88.5c-52.6-52.6-70.9-115-88.5-175.4
							c-16.9-57.4-32.7-111.6-77.1-156.2c-44.4-44.4-98.8-60.4-156.2-77.1c-60.4-17.6-122.8-35.9-175.4-88.5
							c-52.6-52.6-70.9-115-88.5-175.4c-16.9-57.4-32.7-111.6-77.1-156.2c-44.4-44.4-98.8-60.4-156.2-77.1
							c-60.4-17.6-122.8-35.9-175.4-88.5s-70.9-115-88.5-175.4c-16.9-57.4-32.7-111.6-77.1-156.2c-44.4-44.4-98.8-60.4-156.2-77.1
							c-60.4-17.6-122.8-35.9-175.4-88.5c-52.6-52.6-70.9-115-88.5-175.4c-16.9-57.4-32.7-111.6-77.1-156.2
							c-44.4-44.4-98.8-60.4-156.2-77.1c-60.4-17.6-122.8-35.9-175.4-88.5s-70.9-115-88.5-175.4c-2.7-8.9-5.2-17.6-7.8-26.3l43-13.1
							c2.7,8.9,5.3,17.9,8,27c16.9,57.4,32.7,111.6,77.1,156.2C-49.7,431,4.7,447,62.1,463.7c60.4,17.6,122.8,35.9,175.4,88.5
							c52.6,52.6,70.9,115,88.5,175.4c16.9,57.4,32.7,111.6,77.1,156.2c44.4,44.4,98.8,60.4,156.2,77.1
							c60.2,17.6,122.8,35.9,175.4,88.5c52.6,52.6,70.9,115,88.5,175.4c16.9,57.4,32.7,111.6,77.1,156.2
							c44.4,44.4,98.8,60.4,156.2,77.1c60.2,17.6,122.8,35.9,175.4,88.5c52.6,52.6,70.9,115,88.5,175.4
							c16.9,57.4,32.7,111.6,77.1,156.2c44.4,44.4,98.8,60.4,156.2,77.1c60.2,17.6,122.8,35.9,175.4,88.5
							c52.6,52.6,70.9,115,88.5,175.4c16.9,57.4,32.7,111.6,77.1,156.2c44.4,44.4,98.6,60.4,156.2,77.1c9.1,2.7,17.9,5.3,27,8
							L2064.2,2503z"/>
					</g>
					<g>
						<defs>
							<rect id="SVGID_00000029015423145920203980000010629839014633643922_" x="120.2" width="1918.8" height="1918.8"/>
						</defs>
						<clipPath id="SVGID_00000133486802661808901210000006958388242855778733_">
							<use xlink:href="#SVGID_00000029015423145920203980000010629839014633643922_"  style="overflow:visible;"/>
						</clipPath>
						<path style="clip-path:url(#SVGID_00000133486802661808901210000006958388242855778733_);fill:#6B2978;" d="M1766.6,2497.1
							c-50.6-52.1-68.6-113.4-86-172.7c-16.9-57.4-32.7-111.6-77.1-156.2c-44.4-44.4-98.8-60.4-156.2-77.1
							c-60.4-17.6-122.8-35.9-175.4-88.5c-52.6-52.6-70.9-115-88.5-175.4c-16.9-57.4-32.7-111.6-77.1-156.2
							c-44.4-44.4-98.8-60.4-156.2-77.1c-60.4-17.6-122.8-35.9-175.4-88.5c-52.6-52.6-70.9-115-88.5-175.4
							c-16.9-57.4-32.7-111.6-77.1-156.2c-44.4-44.4-98.8-60.4-156.2-77.1c-60.4-17.6-122.8-35.9-175.4-88.5
							c-52.6-52.6-70.9-115-88.5-175.4c-16.9-57.6-32.7-111.8-77.3-156.2c-44.4-44.4-98.8-60.4-156.2-77.1
							c-59.3-17.4-120.6-35.4-172.7-86l31.4-32.3c44.1,42.8,97.4,58.5,153.9,75c60.4,17.6,122.8,35.9,175.4,88.5
							c52.6,52.6,70.9,115,88.5,175.4c16.9,57.4,32.7,111.6,77.1,156.2c44.4,44.4,98.8,60.4,156.2,77.1
							c60.4,17.6,122.8,35.9,175.4,88.5c52.6,52.6,70.9,115,88.5,175.4c16.9,57.4,32.7,111.6,77.1,156.2
							c44.4,44.4,98.8,60.4,156.2,77.1c60.4,17.6,122.8,35.9,175.4,88.5c52.6,52.6,70.9,115,88.5,175.4
							c16.9,57.4,32.7,111.6,77.1,156.2c44.4,44.4,98.8,60.4,156.2,77.1c60.4,17.6,122.8,35.9,175.4,88.5
							c52.6,52.6,70.9,115,88.5,175.4c16.5,56.5,32.2,109.8,75,153.9L1766.6,2497.1z"/>
					</g>
					<g>
						<defs>
							<rect id="SVGID_00000005973835114150309830000011771786760071215502_" x="120.2" width="1918.8" height="1918.8"/>
						</defs>
						<clipPath id="SVGID_00000176024871161879108520000006121337444840116101_">
							<use xlink:href="#SVGID_00000005973835114150309830000011771786760071215502_"  style="overflow:visible;"/>
						</clipPath>
						<path style="clip-path:url(#SVGID_00000176024871161879108520000006121337444840116101_);fill:#6B2978;" d="M1611,2489.7
							c-9.2-23.8-16.5-48.3-23.5-72c-16.9-57.4-32.7-111.6-77.1-156.2c-44.4-44.4-98.8-60.4-156.2-77.1
							c-60.4-17.6-122.8-35.9-175.4-88.5c-52.6-52.6-70.9-115-88.5-175.4c-16.9-57.4-32.7-111.8-77.1-156.2s-98.8-60.4-156.2-77.1
							c-60.4-17.6-122.8-35.9-175.4-88.5s-70.9-115-88.5-175.4c-16.9-57.4-32.7-111.8-77.1-156.2c-44.4-44.4-98.8-60.4-156.2-77.1
							c-60.4-17.6-122.8-35.9-175.4-88.5s-70.9-115-88.5-175.4c-17.1-57.6-32.9-111.8-77.3-156.2s-98.8-60.4-156.2-77.1
							c-23.6-6.9-48.1-14-72-23.5l16.3-41.9c22,8.5,44.4,15.1,68.2,22.2c60.4,17.6,122.8,35.9,175.4,88.5
							c52.6,52.6,70.9,115,88.5,175.4c16.9,57.4,32.7,111.6,77.1,156.2c44.4,44.4,98.8,60.4,156.2,77.1
							c60.4,17.6,122.8,35.9,175.4,88.5s70.9,115,88.5,175.4c16.9,57.4,32.7,111.6,77.1,156.2c44.4,44.4,98.8,60.4,156.2,77.1
							c60.4,17.6,122.8,35.9,175.4,88.5s70.9,115,88.5,175.4c16.9,57.4,32.7,111.6,77.1,156.2c44.4,44.4,98.8,60.4,156.2,77.1
							c60.4,17.6,122.8,35.9,175.4,88.5c52.6,52.6,70.9,115,88.5,175.4c6.9,23.8,13.5,46.2,22,68.2L1611,2489.7z"/>
					</g>
					<g>
						<defs>
							<rect id="SVGID_00000035522591159203953930000014127104495276783039_" x="120.2" width="1918.8" height="1918.8"/>
						</defs>
						<clipPath id="SVGID_00000129926531676834590750000012829086786450944171_">
							<use xlink:href="#SVGID_00000035522591159203953930000014127104495276783039_"  style="overflow:visible;"/>
						</clipPath>
						<path style="clip-path:url(#SVGID_00000129926531676834590750000012829086786450944171_);fill:#6B2978;" d="M1487.5,2488.1
							c-13.9-45.7-30.6-93.5-70.4-133.3c-44.4-44.4-98.8-60.4-156.2-77.1c-60.4-17.8-122.8-35.9-175.4-88.5
							c-52.6-52.6-70.9-115-88.5-175.4c-16.9-57.4-32.7-111.6-77.1-156.2c-44.4-44.4-98.8-60.4-156.2-77.1
							c-60.4-17.6-122.8-35.9-175.4-88.5c-52.6-52.6-70.9-115-88.5-175.4c-16.9-57.4-32.7-111.6-77.1-156.2
							c-44.4-44.4-98.8-60.4-156.2-77.1c-60.4-17.6-122.8-35.9-175.4-88.5s-70.9-115-88.5-175.4C-14,962.3-29.8,908.1-74.2,863.5
							c-39.8-39.8-87.6-56.5-133.3-70.4l13.1-43.2c48.9,14.7,104.8,34.5,151.9,81.6c52.6,52.6,70.9,115,88.5,175.4
							c16.9,57.4,32.7,111.6,77.1,156.2c44.4,44.4,98.8,60.4,156.2,77.1c60.4,17.6,122.8,35.9,175.4,88.5
							c52.6,52.6,70.9,115,88.5,175.4c16.9,57.4,32.7,111.6,77.1,156.2c44.4,44.4,98.8,60.4,156.2,77.1
							c60.4,17.6,122.8,35.9,175.4,88.5s70.9,115,88.5,175.4c16.9,57.4,32.7,111.6,77.1,156.2c44.4,44.4,98.8,60.4,156.2,77.1
							c60.2,17.6,122.8,35.9,175.4,88.5c47.1,47.1,66.8,103,81.6,151.9L1487.5,2488.1z"/>
					</g>
					<g>
						<defs>
							<rect id="SVGID_00000120540348982209087060000000700963205044159674_" x="120.2" width="1918.8" height="1918.8"/>
						</defs>
						<clipPath id="SVGID_00000121977203681506424720000008898035445016033695_">
							<use xlink:href="#SVGID_00000120540348982209087060000000700963205044159674_"  style="overflow:visible;"/>
						</clipPath>
						<path style="clip-path:url(#SVGID_00000121977203681506424720000008898035445016033695_);fill:#6B2978;" d="M1358.4,2492.9
							c-9.9-16.9-21.1-31.4-34.5-44.8c-44.4-44.4-98.8-60.4-156.2-77.1c-60.4-17.6-122.8-35.9-175.4-88.5s-70.9-115-88.5-175.4
							c-16.9-57.4-32.7-111.6-77.1-156.2c-44.4-44.4-98.8-60.4-156.2-77.1c-60.4-17.6-122.8-35.9-175.4-88.5
							c-52.6-52.6-70.9-115-88.5-175.4c-16.9-57.4-32.7-111.6-77.1-156.2c-44.4-44.4-98.8-60.4-156.2-77.1
							c-60.4-17.6-122.8-35.9-175.4-88.5s-70.9-115-88.5-175.4c-16.9-57.4-32.7-111.6-77.1-156.2c-13.3-13.3-27.9-24.5-44.8-34.5
							l22.7-38.9c20.3,11.9,37.8,25.4,53.8,41.4c52.6,52.6,70.9,115,88.5,175.4c16.9,57.4,32.7,111.6,77.1,156.2
							c44.4,44.4,98.8,60.4,156.2,77.1c60.4,17.6,122.8,35.9,175.4,88.5s70.9,115,88.5,175.4c16.9,57.4,32.7,111.6,77.1,156.2
							c44.4,44.4,98.8,60.4,156.2,77.1c60.2,17.6,122.8,35.9,175.4,88.5c52.6,52.6,70.9,115,88.5,175.4
							c16.9,57.4,32.7,111.6,77.1,156.2c44.4,44.4,98.8,60.4,156.2,77.1c60.4,17.6,122.8,35.9,175.4,88.5c16,16,29.7,33.6,41.4,53.8
							L1358.4,2492.9z"/>
					</g>
					<g>
						<defs>
							<rect id="SVGID_00000092431392485845483170000001681028367409578673_" x="120.2" width="1918.8" height="1918.8"/>
						</defs>
						<clipPath id="SVGID_00000111913895811561623350000001556368315690374579_">
							<use xlink:href="#SVGID_00000092431392485845483170000001681028367409578673_"  style="overflow:visible;"/>
						</clipPath>
						<path style="clip-path:url(#SVGID_00000111913895811561623350000001556368315690374579_);fill:#6B2978;" d="M1176.2,2501.4
							c-31.6-16.9-65.7-26.7-101.6-37.3c-60.4-17.6-122.8-35.9-175.4-88.5c-52.6-52.6-70.9-115-88.5-175.4
							c-16.9-57.4-32.7-111.6-77.1-156.2c-44.4-44.4-98.8-60.4-156.2-77.1c-60.4-17.6-122.8-35.9-175.4-88.5
							c-52.6-52.6-70.9-115-88.5-175.4c-16.9-57.4-32.7-111.6-77.1-156.2c-44.4-44.4-98.8-60.4-156.2-77.1
							C20,1452.3-42.4,1434-95,1381.4s-70.9-115-88.5-175.4c-10.5-35.9-20.4-69.8-37.3-101.6l39.8-21.1c19,35.7,30,73.6,40.7,110
							c16.9,57.4,32.7,111.8,77.1,156.2c44.4,44.4,98.8,60.4,156.2,77.1c60.4,17.6,122.8,35.9,175.4,88.5s70.9,115,88.5,175.4
							c16.9,57.4,32.7,111.6,77.1,156.2c44.4,44.4,98.8,60.4,156.2,77.1c60.4,17.6,122.8,35.9,175.4,88.5
							c52.6,52.6,70.9,115,88.5,175.4c16.9,57.4,32.7,111.6,77.1,156.2c44.4,44.4,98.8,60.4,156.2,77.1
							c36.6,10.7,74.3,21.9,110,40.7L1176.2,2501.4z"/>
					</g>
					<g>
						<defs>
							<rect id="SVGID_00000093857448342311673130000006903984857562114455_" x="120.2" width="1918.8" height="1918.8"/>
						</defs>
						<clipPath id="SVGID_00000027602856574682829590000002818866051903912099_">
							<use xlink:href="#SVGID_00000093857448342311673130000006903984857562114455_"  style="overflow:visible;"/>
						</clipPath>
						<path style="clip-path:url(#SVGID_00000027602856574682829590000002818866051903912099_);fill:#6B2978;" d="M843.8,2500.2
							c-13.5-9.2-26.3-19.7-37.8-31.3c-52.6-52.6-70.9-115-88.5-175.4c-16.9-57.4-32.7-111.6-77.1-156.2
							c-44.4-44.4-98.8-60.4-156.2-77.1c-60.4-17.6-122.8-35.9-175.4-88.5c-52.6-52.6-70.9-115-88.5-175.4
							c-16.9-57.4-32.7-111.6-77.1-156.2c-44.4-44.4-98.8-60.4-156.2-77.1c-60.4-17.6-122.8-35.9-175.4-88.5
							c-11.5-11.5-22-24.2-31.3-37.8l37.1-25.4c7.8,11.4,16.3,21.7,25.9,31.3c44.4,44.4,98.8,60.4,156.2,77.1
							c60.4,17.6,122.8,35.9,175.4,88.5s70.9,115,88.5,175.4c16.9,57.4,32.7,111.6,77.1,156.2c44.4,44.4,98.8,60.4,156.2,77.1
							c60.4,17.6,122.8,35.9,175.4,88.5c52.6,52.6,70.9,115,88.5,175.4c16.9,57.4,32.7,111.6,77.1,156.2
							c9.6,9.6,19.9,18.1,31.4,25.9L843.8,2500.2z"/>
					</g>
					<g>
						<defs>
							<rect id="SVGID_00000021809269630152050230000002811145849236031629_" x="120.2" width="1918.8" height="1918.8"/>
						</defs>
						<clipPath id="SVGID_00000116949652827847341500000005406500202618705036_">
							<use xlink:href="#SVGID_00000021809269630152050230000002811145849236031629_"  style="overflow:visible;"/>
						</clipPath>
						<path style="clip-path:url(#SVGID_00000116949652827847341500000005406500202618705036_);fill:#6B2978;" d="M662.4,2491.6
							c-17.4-34.3-27.9-70.2-38-105c-16.9-57.4-32.7-111.6-77.1-156.2c-44.4-44.4-98.8-60.4-156.2-77.1
							c-60.4-17.6-122.8-35.9-175.4-88.5c-52.6-52.6-70.9-115-88.5-175.4c-16.9-57.4-32.7-111.6-77.1-156.2
							c-44.4-44.4-98.8-60.4-156.2-77.1c-34.8-10.1-70.7-20.8-105-38l20.4-40.2c30.6,15.5,62.9,25.1,97.4,35
							c60.4,17.6,122.8,35.9,175.4,88.5s70.9,115,88.5,175.4c16.9,57.4,32.7,111.6,77.1,156.2c44.4,44.4,98.8,60.4,156.2,77.1
							c60.2,17.6,122.8,35.9,175.4,88.5c52.6,52.6,70.9,115,88.5,175.4c10.1,34.3,19.5,66.8,35,97.4L662.4,2491.6z"/>
					</g>
					<g>
						<defs>
							<rect id="SVGID_00000055672695551872148930000014525490212595588229_" x="120.2" width="1918.8" height="1918.8"/>
						</defs>
						<clipPath id="SVGID_00000016064973718538677280000001215495527789564298_">
							<use xlink:href="#SVGID_00000055672695551872148930000014525490212595588229_"  style="overflow:visible;"/>
						</clipPath>
						<path style="clip-path:url(#SVGID_00000016064973718538677280000001215495527789564298_);fill:#6B2978;" d="M533.4,2487.9
							l-2.3-8c-16.9-57.4-32.7-111.6-77.1-156.2c-44.4-44.4-98.8-60.4-156.2-77.1c-60.4-17.6-122.8-35.9-175.4-88.5
							s-70.9-115-88.5-175.4c-16.9-57.4-32.7-111.6-77.1-156.2c-44.4-44.4-98.8-60.4-156.2-77.1l-8-2.3l12.6-43.2l7.8,2.3
							c60.4,17.6,122.8,35.9,175.4,88.5s70.9,115,88.5,175.4c16.9,57.4,32.7,111.6,77.1,156.2c44.4,44.4,98.8,60.4,156.2,77.1
							c60.4,17.6,122.8,35.9,175.4,88.5c52.6,52.6,70.9,115,88.5,175.4l2.3,7.8L533.4,2487.9z"/>
					</g>
					<g>
						<defs>
							<rect id="SVGID_00000013187695012456346220000007208575813749529229_" x="120.2" width="1918.8" height="1918.8"/>
						</defs>
						<clipPath id="SVGID_00000129908468041422892210000004316323782911789726_">
							<use xlink:href="#SVGID_00000013187695012456346220000007208575813749529229_"  style="overflow:visible;"/>
						</clipPath>
						<path style="clip-path:url(#SVGID_00000129908468041422892210000004316323782911789726_);fill:#6B2978;" d="M409.8,2490.6
							c-13.1-29.8-28.8-53.3-49-73.6c-44.4-44.4-98.8-60.4-156.2-77.1c-60.4-17.6-122.8-35.9-175.4-88.5
							c-52.6-52.6-70.9-115-88.5-175.4c-16.9-57.4-32.7-111.6-77.1-156.2c-20.3-20.3-43.7-35.9-73.6-49l18.1-41.2
							c34.6,15.3,63.3,34.5,87.2,58.5c52.6,52.6,70.9,115,88.5,175.4C0.8,2120.8,16.6,2175,61,2219.6
							c44.4,44.4,98.8,60.4,156.2,77.1c60.4,17.6,122.8,35.9,175.4,88.5c24.2,24,43.2,52.6,58.5,87.2L409.8,2490.6z"/>
					</g>
					<g>
						<defs>
							<rect id="SVGID_00000024705783489421180930000005163935326832078526_" x="120.2" width="1918.8" height="1918.8"/>
						</defs>
						<clipPath id="SVGID_00000180365266297646351790000005062583603661927834_">
							<use xlink:href="#SVGID_00000024705783489421180930000005163935326832078526_"  style="overflow:visible;"/>
						</clipPath>
						<path style="clip-path:url(#SVGID_00000180365266297646351790000005062583603661927834_);fill:#6B2978;" d="M254.8,2498.6
							c-41.9-35.9-91.3-50.3-143.6-65.6c-60.4-17.6-122.8-35.9-175.4-88.5c-52.6-52.6-70.9-115-88.5-175.4
							c-15.3-52.2-29.8-101.6-65.6-143.6l34.3-29.3c42.1,49.2,58.6,105.7,74.6,160.1c16.9,57.4,32.7,111.6,77.1,156.2
							c44.4,44.4,98.8,60.4,156.2,77.1c54.5,16,110.9,32.5,160.3,74.6L254.8,2498.6z"/>
					</g>
				</g>
			</g>
		</g>
		<path class="st30" d="M1079.6,959.4H120.2C120.2,429.6,549.8,0,1079.6,0V959.4z"/>
	</g>
	<g>
		<path class="st31" d="M169.9,180.7c11.1-18.7,18.4-39.3,24.7-60c4.3-13.9,8.1-28.1,12.1-42.2c-3.9,3.8-7.7,7.7-11.4,11.7
			c-2.8,9.4-5.5,18.9-8.5,28.1c-6.4,20.4-13.8,40.3-24.4,57.8c-5.2,8.9-11.7,16.7-18.7,23.7c-4.7,4.1-9.5,7.9-14.7,11.2
			c-1,4-2,8.1-2.9,12.2c8.7-4.3,16.5-10.3,23.8-16.9C157.6,198.7,164.6,190.1,169.9,180.7z"/>
		<path class="st31" d="M132.7,254.6l7.6-2.3l7.3-3.3c9.9-4.3,18.6-11,26.7-18.2c7.5-7.8,14.5-16.3,19.8-25.7
			c11.1-18.7,18.4-39.3,24.7-60c10.3-33.9,18.2-69.1,32.4-101.4c-3.7,2.3-7.3,4.7-10.8,7.2c-12.3,30.1-19.9,61.8-29.4,91.8
			c-6.4,20.4-13.8,40.3-24.4,57.8c-5.2,8.9-11.7,16.7-18.6,23.8c-7.5,6.5-15.4,12.5-24.4,16.3c-6.9,3.2-14.1,5.4-21.4,6.9
			c-0.4,3.3-0.7,6.7-1,10.1C125.1,256.8,128.9,255.9,132.7,254.6z"/>
		<path class="st31" d="M141.4,282.4c5.3-0.8,10.5-1.8,15.5-3.6l7.7-2.3l7.3-3.3c9.9-4.3,18.6-11,26.7-18.2
			c7.5-7.8,14.5-16.3,19.9-25.7c11.1-18.7,18.4-39.3,24.7-59.9c12.6-41.3,21.5-84.5,42.8-122.1c6.8-11.8,15-22.7,24.7-32.1
			c-4.6,1.6-9.2,3.3-13.8,5.2c-6.3,7.3-12,15.1-16.9,23.4c-22.5,38.8-31.8,82.5-44.6,123.2c-6.4,20.4-13.8,40.3-24.4,57.8
			c-5.2,8.9-11.7,16.7-18.6,23.7c-7.5,6.5-15.4,12.5-24.4,16.3c-15,7-31.1,9.2-47.6,9.9c-0.1,2.3-0.1,4.8-0.1,7.3
			c0,0.8,0,1.7,0.1,2.5l5.9-0.3C131,283.9,136.1,283.4,141.4,282.4z"/>
		<path class="st31" d="M135.3,309.1l15-0.8c4.9-0.1,10-0.6,15.3-1.7c5.3-0.8,10.5-1.8,15.5-3.6l7.6-2.3l7.3-3.3
			c9.9-4.3,18.6-11,26.7-18.2c7.6-7.8,14.5-16.3,19.9-25.7c11.1-18.7,18.4-39.3,24.7-59.9c12.6-41.2,21.5-84.5,42.8-122.1
			c10.7-18.6,25.2-35,43-46.6c17.8-11.7,38.4-18.4,59.4-21.6c5.6-0.9,11.3-1.5,17-1.9c-9-0.9-18.1-1.3-27.3-1.3
			c-1.1,0-2.2,0.1-3.4,0.1c-17.2,3.7-34,9.9-49,19.6c-18.8,12-34.2,29.2-45.5,48.4c-22.5,38.7-31.7,82.5-44.6,123.2
			c-6.4,20.4-13.8,40.3-24.4,57.8c-5.2,8.9-11.7,16.7-18.6,23.8c-7.5,6.5-15.4,12.5-24.4,16.3c-17.9,8.4-37.2,9.8-57,10.2
			c-4.8,0.1-9.6,0.3-14.3,0.7c0.2,3.3,0.5,6.7,0.8,10.1C126.1,309.4,130.7,309.1,135.3,309.1z"/>
		<path class="st31" d="M159.5,333.3l15-0.8c4.9-0.1,10-0.6,15.3-1.7c5.2-0.8,10.5-1.8,15.5-3.6l7.6-2.3l7.3-3.3
			c9.9-4.3,18.6-11,26.7-18.2c7.6-7.8,14.5-16.3,19.9-25.7c11.1-18.7,18.4-39.3,24.7-60c12.6-41.3,21.5-84.5,42.8-122.1
			c10.7-18.6,25.2-35,43-46.6c17.8-11.7,38.4-18.4,59.4-21.6c20.9-3.5,42.3-2.3,63.5-3.7c4.4-0.3,8.9-0.6,13.3-0.9
			c-3.4-1.5-6.8-2.9-10.2-4.2c-1.1,0.1-2.2,0.1-3.3,0.2c-20.9,1.2-42.4-0.3-64.1,3.1c-21.6,3.1-43.2,9.8-62,21.9
			c-18.8,12-34.2,29.1-45.5,48.3c-22.5,38.8-31.7,82.5-44.6,123.2c-6.4,20.4-13.8,40.3-24.4,57.8c-5.2,8.9-11.7,16.6-18.7,23.7
			c-7.5,6.5-15.3,12.5-24.4,16.3c-17.9,8.4-37.2,9.8-57,10.2c-12.1,0.2-24,1.4-35.6,3.7c0.5,3.4,1.1,6.8,1.8,10.1
			C136.6,334.8,147.9,333.5,159.5,333.3z"/>
		<path class="st31" d="M183.8,357.5l15-0.8c4.9-0.1,10-0.6,15.3-1.7c5.3-0.8,10.5-1.8,15.5-3.6l7.6-2.3l7.3-3.3
			c9.9-4.3,18.6-11,26.7-18.2c7.5-7.8,14.5-16.3,19.9-25.7c11.1-18.7,18.4-39.3,24.7-59.9c12.6-41.3,21.5-84.5,42.8-122.1
			c10.7-18.6,25.2-35,43-46.6c17.8-11.7,38.4-18.4,59.4-21.6c20.9-3.6,42.3-2.3,63.5-3.7c10.4-0.6,20.7-1.5,30.9-2.8
			c-2.1-1.4-4.2-2.7-6.3-4c-8.2,0.9-16.5,1.5-24.8,1.8c-20.8,1.2-42.4-0.3-64.1,3.1c-21.5,3.1-43.2,9.8-61.9,21.9
			c-18.8,12-34.3,29.1-45.5,48.3c-22.5,38.8-31.7,82.5-44.6,123.2c-6.4,20.4-13.8,40.3-24.4,57.8c-5.2,8.9-11.7,16.6-18.6,23.7
			c-7.5,6.5-15.4,12.5-24.4,16.3c-17.8,8.4-37.2,9.8-57,10.2c-18.5,0.2-36.6,3-53.6,8c0.9,3.4,1.9,6.7,2.9,10.1
			C148.9,360.7,166.1,357.9,183.8,357.5z"/>
		<path class="st31" d="M152.7,391.3c17.3-5.8,36.1-9.1,55.3-9.6l15-0.8c4.9-0.1,10-0.6,15.3-1.7c5.3-0.7,10.5-1.8,15.5-3.6l7.6-2.3
			l7.3-3.4c9.9-4.3,18.6-11,26.7-18.2c7.6-7.8,14.6-16.3,19.9-25.7c11.1-18.7,18.4-39.3,24.7-60c12.6-41.3,21.5-84.5,42.8-122.1
			c10.7-18.6,25.2-35,43-46.6c17.8-11.7,38.5-18.4,59.4-21.6c20.9-3.6,42.3-2.3,63.5-3.7c12.7-0.7,25.3-1.9,37.6-3.9
			c-1.6-1.4-3.1-2.7-4.7-4c-10.9,1.5-22,2.3-33.2,2.9c-20.8,1.2-42.5-0.3-64.2,3.1c-21.5,3.1-43.2,9.8-61.9,21.9
			c-18.8,12-34.3,29.1-45.5,48.3c-22.5,38.8-31.7,82.5-44.6,123.2c-6.4,20.4-13.8,40.3-24.4,57.8c-5.2,8.9-11.7,16.7-18.7,23.7
			c-7.5,6.5-15.4,12.5-24.4,16.3c-17.9,8.4-37.2,9.8-57,10.2c-20.2,0.2-40,3.6-58.3,9.4c-3.4,1.1-6.7,2.2-9.9,3.5
			c1.3,3.3,2.7,6.6,4.1,9.8C146.6,393.4,149.6,392.3,152.7,391.3z"/>
		<path class="st31" d="M176.9,415.5c17.3-5.8,36.1-9.1,55.3-9.6l15-0.8c4.9-0.1,10-0.6,15.3-1.7c5.3-0.8,10.5-1.8,15.5-3.6l7.6-2.3
			l7.3-3.3c9.9-4.3,18.6-11,26.7-18.2c7.5-7.8,14.5-16.3,19.8-25.7c11.1-18.7,18.4-39.3,24.7-60c12.6-41.2,21.5-84.5,42.8-122.1
			c10.7-18.6,25.2-35,43-46.6c17.8-11.7,38.5-18.4,59.4-21.6c20.9-3.6,42.3-2.3,63.5-3.7c12.8-0.7,25.6-1.9,38.2-4
			c-1.3-1.4-2.5-2.7-3.8-4.1c-11.4,1.6-22.9,2.6-34.6,3.1c-20.9,1.2-42.5-0.3-64.2,3.1c-21.5,3.1-43.2,9.8-61.9,21.9
			c-18.8,12-34.2,29.1-45.5,48.3c-22.5,38.8-31.8,82.5-44.7,123.2c-6.4,20.4-13.8,40.3-24.4,57.8c-5.2,8.9-11.7,16.7-18.6,23.8
			c-7.5,6.5-15.4,12.5-24.4,16.3c-17.9,8.4-37.2,9.8-57,10.2c-20.2,0.2-39.9,3.6-58.3,9.5c-7.2,2.3-14.2,5-21,8
			c1.7,3.2,3.4,6.3,5.2,9.4C164,420.1,170.3,417.7,176.9,415.5z"/>
		<path class="st31" d="M201.2,439.8c17.3-5.8,36.1-9.1,55.3-9.6l15-0.8c5-0.1,10-0.6,15.3-1.7c5.3-0.8,10.5-1.8,15.5-3.6l7.7-2.3
			l7.3-3.3c9.9-4.3,18.6-11,26.7-18.2c7.5-7.8,14.5-16.3,19.9-25.7c11.1-18.7,18.4-39.3,24.7-59.9c12.6-41.3,21.5-84.5,42.8-122.1
			c10.7-18.6,25.2-35,43-46.6c17.8-11.7,38.5-18.4,59.4-21.6c20.9-3.6,42.3-2.3,63.5-3.7c11.4-0.6,22.8-1.7,34-3.3
			c-1-1.4-2-2.8-3.1-4.2c-10.3,1.3-20.7,2.1-31.1,2.6c-20.9,1.2-42.5-0.3-64.2,3.1c-21.5,3.1-43.1,9.8-61.9,21.9
			c-18.8,12-34.2,29.1-45.5,48.3c-22.5,38.8-31.7,82.5-44.6,123.2c-6.4,20.4-13.8,40.3-24.4,57.8c-5.2,8.9-11.7,16.7-18.6,23.8
			c-7.5,6.5-15.4,12.5-24.4,16.3c-17.9,8.4-37.2,9.8-57,10.2c-20.2,0.2-39.9,3.6-58.3,9.4c-9.9,3.2-19.4,7-28.5,11.5
			c2.1,3,4.2,6,6.4,8.9C183.9,446.1,192.3,442.6,201.2,439.8z"/>
		<path class="st31" d="M225.4,464c17.3-5.8,36.1-9.1,55.3-9.6l15-0.8c4.9-0.1,10-0.6,15.3-1.7c5.2-0.8,10.5-1.8,15.5-3.6l7.6-2.3
			l7.3-3.3c9.9-4.3,18.6-11,26.7-18.2c7.6-7.8,14.5-16.3,19.9-25.7c11.1-18.7,18.4-39.3,24.7-60c12.6-41.3,21.5-84.5,42.8-122.1
			c10.7-18.6,25.2-35,43-46.6c17.8-11.7,38.4-18.4,59.4-21.6c20.9-3.6,42.3-2.3,63.5-3.7c8.7-0.5,17.4-1.2,26.1-2.2
			c-0.8-1.5-1.7-3-2.6-4.4c-7.8,0.8-15.8,1.4-23.7,1.7c-20.9,1.2-42.4-0.3-64.2,3.1c-21.5,3.1-43.1,9.8-61.9,21.9
			c-18.8,12-34.2,29.1-45.5,48.3c-22.5,38.7-31.7,82.5-44.6,123.2c-6.4,20.4-13.8,40.3-24.4,57.8c-5.1,8.9-11.7,16.7-18.6,23.8
			c-7.5,6.5-15.3,12.5-24.4,16.3c-17.9,8.4-37.2,9.8-57,10.2c-20.2,0.2-39.9,3.6-58.3,9.5c-11.4,3.6-22.2,8.1-32.4,13.4
			c2.5,2.8,5,5.6,7.6,8.4C206.2,471.2,215.6,467.2,225.4,464z"/>
		<path class="st31" d="M249.5,488.2c17.3-5.8,36.1-9.1,55.3-9.6l15-0.8c4.9-0.1,10-0.6,15.3-1.7c5.3-0.8,10.5-1.8,15.5-3.6l7.6-2.3
			l7.3-3.3c9.9-4.3,18.6-11,26.7-18.2c7.6-7.8,14.5-16.3,19.9-25.7c11.1-18.7,18.4-39.3,24.7-60c12.6-41.2,21.5-84.5,42.8-122.1
			c10.7-18.6,25.2-35,43-46.6c17.8-11.7,38.4-18.4,59.4-21.6c20.9-3.6,42.3-2.3,63.5-3.7c4.9-0.3,9.8-0.6,14.6-1
			c-0.7-1.6-1.4-3.1-2.1-4.6c-4.2,0.3-8.5,0.6-12.7,0.8c-20.8,1.2-42.4-0.3-64.1,3.1c-21.5,3.1-43.2,9.8-62,21.9
			c-18.8,12-34.2,29.1-45.5,48.3c-22.5,38.8-31.7,82.5-44.6,123.2c-6.4,20.4-13.8,40.3-24.4,57.8c-5.2,8.9-11.7,16.6-18.7,23.7
			c-7.5,6.5-15.3,12.5-24.4,16.3c-17.9,8.4-37.2,9.8-57,10.2c-20.2,0.2-40,3.6-58.3,9.5c-11.5,3.7-22.3,8.2-32.6,13.5
			c2.9,2.6,5.8,5.2,8.9,7.7C231.2,495.1,240.2,491.3,249.5,488.2z"/>
		<path class="st31" d="M273.8,512.4c17.3-5.8,36.1-9.1,55.3-9.6l15-0.8c4.9-0.1,10-0.6,15.3-1.7c5.3-0.8,10.5-1.8,15.5-3.6l7.6-2.3
			l7.3-3.3c9.9-4.3,18.6-11,26.7-18.2c7.5-7.8,14.5-16.3,19.9-25.7c11.1-18.7,18.4-39.3,24.7-59.9c12.6-41.3,21.5-84.5,42.8-122.1
			c10.7-18.6,25.2-35,43-46.6c17.8-11.7,38.4-18.4,59.4-21.6c20.9-3.6,42.3-2.3,63.5-3.7c0.1,0,0.1,0,0.1,0
			c-0.5-1.6-1.1-3.2-1.7-4.9c-20.5,1.1-41.6-0.3-62.8,3c-21.5,3.1-43.2,9.8-61.9,21.9c-18.8,12-34.3,29.1-45.5,48.3
			c-22.5,38.8-31.7,82.5-44.6,123.2c-6.4,20.4-13.8,40.3-24.4,57.8c-5.2,8.9-11.7,16.6-18.7,23.7c-7.5,6.5-15.4,12.5-24.4,16.3
			c-17.9,8.4-37.2,9.8-57,10.2c-20.2,0.2-39.9,3.5-58.3,9.4c-10,3.2-19.6,7.1-28.7,11.6c3.4,2.4,6.9,4.7,10.5,6.9
			C259.3,517.7,266.4,514.8,273.8,512.4z"/>
		<path class="st31" d="M298.1,536.7c17.3-5.8,36.1-9.2,55.3-9.6l15-0.8c4.9-0.1,10-0.6,15.3-1.7c5.3-0.7,10.5-1.8,15.5-3.6l7.6-2.3
			l7.3-3.3c9.9-4.3,18.6-11,26.7-18.2c7.6-7.8,14.6-16.3,19.9-25.7c11.1-18.7,18.4-39.3,24.7-60c16-45.7,28.1-81.7,42.8-122.1
			c10.7-18.6,25.2-35,43-46.6c17.8-11.7,38.5-18.4,59.4-21.6c15.3-2.6,30.9-2.6,46.4-3c-0.4-1.7-0.8-3.4-1.3-5.1
			c-15.1,0.2-30.5,0.2-46,2.6c-21.5,3.1-43.2,9.8-61.9,21.9c-18.8,12-37.1,26-45.5,48.3c-16.9,41.7-29,75.4-44.6,123.2
			c-9,19.4-13.8,40.3-24.4,57.8c-5.2,8.9-11.7,16.7-18.7,23.7c-7.5,6.5-15.4,12.5-24.4,16.3c-17.9,8.4-37.2,9.8-57,10.2
			c-20.2,0.2-40,3.6-58.3,9.4c-6.6,2.1-13.1,4.5-19.4,7.3c4.3,2.2,8.7,4.2,13.2,6.2C291.7,538.9,294.9,537.7,298.1,536.7z"/>
		<path class="st31" d="M377.6,551.3l15-0.8c5-0.1,10-0.6,15.3-1.7c5.3-0.8,10.5-1.8,15.5-3.6l7.6-2.3l7.3-3.3
			c9.9-4.3,18.6-11,26.7-18.2c7.5-7.8,14.5-16.3,19.8-25.7c11.1-18.7,18.4-39.3,24.7-60c12.6-41.2,21.5-84.5,42.8-122.1
			c10.7-18.6,25.2-35,43-46.6c17.8-11.7,38.5-18.4,59.4-21.6c8.8-1.5,17.8-2.1,26.7-2.5c-0.3-1.8-0.5-3.6-0.8-5.3
			c-8.9,0.3-17.9,0.8-26.8,2.2c-21.5,3.1-43.1,9.8-61.9,21.9c-18.8,12-34.2,29.1-45.5,48.3c-22.5,38.8-31.8,82.5-44.6,123.2
			c-6.4,20.4-13.8,40.3-24.4,57.8c-5.2,8.9-11.7,16.7-18.6,23.7c-7.5,6.5-15.4,12.5-24.4,16.3c-17.9,8.4-37.2,9.8-57,10.2
			c-20.2,0.2-39.9,3.5-58.3,9.4c-0.3,0.1-0.6,0.2-0.9,0.3c6.4,2,12.9,3.8,19.6,5.3C350.5,553.4,363.9,551.6,377.6,551.3z"/>
		<path class="st31" d="M616.2,286c-18.8,12-34.2,29.2-45.5,48.3c-22.5,38.8-31.7,82.5-44.6,123.2c-6.4,20.4-13.8,40.3-24.4,57.8
			c-5.2,8.9-11.7,16.7-18.6,23.8c-7.5,6.5-15.3,12.5-24.4,16.3c-5.1,2.3-10.2,4.2-15.5,5.5c12.8-1.9,25.3-4.6,37.5-8.1
			c3-2.3,5.8-4.7,8.6-7.2c7.6-7.8,14.5-16.3,19.9-25.7c11.1-18.7,18.4-39.3,24.7-59.9c12.6-41.3,21.5-84.5,42.8-122.1
			c10.7-18.6,25.2-35,43-46.6c17.8-11.7,38.5-18.4,59.4-21.6c1.6-0.3,3.3-0.5,4.9-0.7c-0.1-1.8-0.2-3.7-0.3-5.5
			c-1.8,0.2-3.6,0.4-5.4,0.7C656.6,267.2,635,273.9,616.2,286z"/>
		<path class="st31" d="M643.8,315.5c12.2-8,25.8-13.7,39.9-17.5c0.1-2,0.2-4,0.3-6.1c-15.2,3.8-30.1,9.7-43.5,18.3
			c-18.8,12-34.2,29.1-45.5,48.3c-22.5,38.7-31.7,82.5-44.6,123.2c-5.7,18.1-12.2,35.9-21,51.9c4.5-2.2,8.9-4.6,13.3-7.2
			c6.3-13.7,11.2-28,15.6-42.4c12.6-41.3,21.5-84.5,42.8-122.1C611.5,343.4,626,327.1,643.8,315.5z"/>
		<path class="st31" d="M668.1,339.7c3.7-2.5,7.5-4.6,11.5-6.6c0.5-2.5,0.9-4.9,1.3-7.4c-5.5,2.6-10.9,5.5-16.1,8.8
			c-18.8,12-34.3,29.1-45.5,48.3c-22.2,38.4-31.6,81.6-44.3,122c3.8-2.9,7.5-6,11.1-9.1c10.8-37.3,19.9-75.7,39.1-109.4
			C635.7,367.7,650.3,351.3,668.1,339.7z"/>
		<path class="st31" d="M643.4,407c-10.1,17.4-17.5,35.8-23.8,54.4c5.3-6.4,10.3-13.1,15-20c4.2-10.6,9-21,14.6-31
			c3.7-6.5,7.9-12.7,12.6-18.5c2.3-5.6,4.5-11.2,6.5-17C658.7,384.4,650.3,395.3,643.4,407z"/>
	</g>
</g>
</svg>
