<svg width="130" height="130" viewBox="0 0 130 130" fill="none" xmlns="http://www.w3.org/2000/svg">
<path d="M11.4724 41.664C14.0245 37.3423 15.7219 32.5992 17.1665 27.8321C18.1536 24.6179 19.0324 21.3556 19.9593 18.0933C19.0564 18.96 18.1777 19.8629 17.323 20.7898C16.6849 22.9687 16.0469 25.1476 15.3728 27.2784C13.8921 31.9732 12.1947 36.5718 9.75096 40.6166C8.55918 42.6752 7.05441 44.4568 5.4413 46.082C4.35787 47.0209 3.25036 47.9118 2.05858 48.6581C1.81782 49.5851 1.60113 50.5361 1.39648 51.4751C3.40686 50.4879 5.20054 49.0915 6.88588 47.5867C8.63141 45.8051 10.2445 43.8429 11.4724 41.664Z" fill="#BCA6F4"/>
<path d="M2.87708 58.698L4.63465 58.1563L6.31999 57.3858C8.5952 56.3987 10.6056 54.8458 12.4835 53.1845C14.217 51.3908 15.8301 49.4286 17.058 47.2497C19.6221 42.928 21.3075 38.197 22.7641 33.4179C25.1477 25.6051 26.9534 17.4914 30.2398 10.0398C29.3971 10.5695 28.5665 11.1232 27.7479 11.7011C24.9069 18.6471 23.1493 25.9422 20.9584 32.8641C19.4777 37.571 17.7803 42.1576 15.3366 46.2024C14.1448 48.2609 12.64 50.0426 11.0389 51.6798C9.30545 53.1725 7.48769 54.5689 5.41713 55.4357C3.81605 56.182 2.16683 56.6876 0.481486 57.0367C0.38518 57.8072 0.312952 58.5897 0.240723 59.3721C1.13155 59.2036 2.02237 58.999 2.87708 58.698Z" fill="#BCA6F4"/>
<path d="M4.88749 65.1023C6.10334 64.9217 7.30716 64.693 8.45078 64.2837L10.2204 63.754L11.9057 62.9836C14.1809 61.9965 16.1913 60.4435 18.0693 58.7823C19.8028 56.9766 21.4159 55.0264 22.6558 52.8475C25.2079 48.5378 26.8932 43.7948 28.3498 39.0277C31.251 29.5055 33.2975 19.5379 38.2091 10.8704C39.774 8.14981 41.6761 5.64587 43.9152 3.479C42.8438 3.85219 41.7844 4.24945 40.7251 4.67078C39.2684 6.34408 37.9563 8.16185 36.8367 10.0759C31.6603 19.0203 29.5055 29.0962 26.5441 38.4739C25.0634 43.1688 23.366 47.7674 20.9103 51.8122C19.7185 53.8587 18.2137 55.6524 16.6126 57.2775C14.8912 58.7702 13.0614 60.1667 10.9908 61.0334C7.52384 62.6586 3.81609 63.1521 0.0120382 63.3207C0 63.8624 0 64.4282 0 64.994C0 65.1866 0 65.3792 0.0120382 65.5598L1.37235 65.4875C2.50394 65.4634 3.67164 65.3551 4.88749 65.1023Z" fill="#BCA6F4"/>
<path d="M3.49106 71.2659L6.94601 71.0853C8.0776 71.0612 9.25734 70.9408 10.4732 70.7001C11.689 70.5195 12.8929 70.2908 14.0485 69.8815L15.8061 69.3518L17.4914 68.5813C19.7666 67.5942 21.777 66.0413 23.6429 64.38C25.3885 62.5863 26.9895 60.6241 28.2295 58.4452C30.7936 54.1356 32.4789 49.3925 33.9235 44.6254C36.8247 35.1153 38.8712 25.1357 43.7948 16.4682C46.2506 12.1826 49.5972 8.40263 53.7022 5.73016C57.7952 3.03361 62.5623 1.49273 67.3896 0.746365C68.6897 0.529679 70.0019 0.397259 71.314 0.300954C69.2434 0.0963052 67.1368 0 65.0181 0C64.7532 0 64.5004 0.0120382 64.2356 0.0120382C60.275 0.866747 56.3987 2.29929 52.9318 4.52634C48.586 7.29512 45.0347 11.2557 42.4465 15.6857C37.2701 24.618 35.1273 34.706 32.1539 44.0837C30.6732 48.7786 28.9758 53.3772 26.52 57.4099C25.3283 59.4564 23.8235 61.2501 22.2224 62.8873C20.501 64.38 18.6712 65.7765 16.6006 66.6432C12.4836 68.5693 8.01741 68.9064 3.45495 69.0027C2.34744 69.0147 1.23993 69.0749 0.156494 69.1592C0.204647 69.9296 0.264837 70.7121 0.337066 71.4825C1.36031 71.3501 2.41967 71.2779 3.49106 71.2659Z" fill="#BCA6F4"/>
<path d="M9.07677 76.8394L12.5317 76.6588C13.6633 76.6348 14.843 76.5264 16.0589 76.2736C17.2627 76.093 18.4786 75.8643 19.6342 75.455L21.3918 74.9253L23.0771 74.1549C25.3524 73.1678 27.3748 71.6149 29.2286 69.9536C30.9742 68.1599 32.5752 66.1977 33.8152 64.0188C36.3673 59.7091 38.0646 54.9661 39.5092 50.1869C42.4104 40.6648 44.4569 30.6972 49.3805 22.0297C51.8363 17.7321 55.1829 13.9641 59.2879 11.2796C63.3809 8.5831 68.148 7.04221 72.9753 6.29585C77.8026 5.48929 82.7382 5.76617 87.6257 5.45318C88.649 5.39299 89.6722 5.32076 90.6954 5.23649C89.913 4.89942 89.1305 4.57439 88.336 4.27344C88.0832 4.28548 87.8304 4.29751 87.5776 4.30955C82.7623 4.58643 77.7905 4.23732 72.7947 5.03184C67.823 5.74209 62.8392 7.28298 58.5054 10.0758C54.1597 12.8446 50.6084 16.7931 48.0202 21.2232C42.8438 30.1675 40.701 40.2434 37.7276 49.6212C36.2469 54.316 34.5495 58.9146 32.0937 62.9594C30.9019 65.0059 29.3972 66.7876 27.7841 68.4248C26.0626 69.9175 24.2448 71.3139 22.1622 72.1807C18.0452 74.1068 13.579 74.4438 9.01658 74.5401C6.23577 74.5762 3.47903 74.8652 0.818604 75.3828C0.938985 76.1653 1.08344 76.9478 1.23994 77.7182C3.77999 77.2006 6.40431 76.8996 9.07677 76.8394Z" fill="#BCA6F4"/>
<path d="M14.6624 82.4372L18.1173 82.2566C19.2489 82.2326 20.4287 82.1122 21.6445 81.8714C22.8604 81.6908 24.0642 81.4621 25.2198 81.0528L26.9774 80.5231L28.6628 79.7527C30.938 78.7656 32.9483 77.2126 34.8143 75.5514C36.5477 73.7577 38.1609 71.7955 39.4008 69.6166C41.9529 65.3069 43.6503 60.5639 45.0948 55.7968C47.996 46.2746 50.0425 36.307 54.9661 27.6395C57.4219 23.3419 60.7685 19.574 64.8735 16.9015C68.9665 14.1929 73.7336 12.6641 78.5609 11.9177C83.3882 11.0991 88.3238 11.388 93.2113 11.063C95.6069 10.9306 97.9784 10.7259 100.326 10.4129C99.8444 10.1 99.3628 9.799 98.8813 9.49805C96.9913 9.7027 95.0772 9.83512 93.1632 9.91938C88.36 10.1963 83.3762 9.84715 78.3803 10.6417C73.4206 11.3519 68.4248 12.9048 64.1031 15.6857C59.7573 18.4544 56.194 22.4029 53.6058 26.833C48.4294 35.7773 46.2866 45.8533 43.3132 55.231C41.8325 59.9259 40.1351 64.5244 37.6793 68.5693C36.4876 70.6278 34.9828 72.3974 33.3817 74.0346C31.6482 75.5273 29.8305 76.9237 27.7479 77.7905C23.6428 79.7166 19.1647 80.0536 14.6022 80.15C10.3407 80.1981 6.16345 80.8361 2.23901 82.0038C2.44366 82.7863 2.67239 83.5567 2.91315 84.3272C6.6209 83.1715 10.5935 82.5215 14.6624 82.4372Z" fill="#BCA6F4"/>
<path d="M7.49975 90.2139C11.4964 88.8776 15.8181 88.1072 20.2482 88.0109L23.7151 87.8303C24.8467 87.8062 26.0265 87.6979 27.2423 87.4451C28.4582 87.2766 29.662 87.0358 30.8177 86.6265L32.5752 86.0848L34.2606 85.3023C36.5358 84.3152 38.5461 82.7743 40.4121 81.101C42.1576 79.3073 43.7707 77.3451 44.9986 75.1662C47.5507 70.8445 49.2481 66.1014 50.6926 61.3343C53.5938 51.8122 55.6403 41.8446 60.5639 33.1771C63.0197 28.8915 66.3663 25.1115 70.4713 22.4391C74.5643 19.7425 79.3434 18.2016 84.1707 17.4553C88.998 16.6367 93.9337 16.9256 98.8212 16.6126C101.746 16.4441 104.648 16.1792 107.489 15.7218C107.127 15.4088 106.766 15.1078 106.405 14.8069C103.889 15.144 101.337 15.3486 98.761 15.469C93.9578 15.7459 88.9619 15.4088 83.9661 16.1913C79.0064 16.9015 74.0105 18.4424 69.6888 21.2353C65.3431 24.004 61.7798 27.9525 59.2036 32.3826C54.0272 41.3269 51.8844 51.4029 48.911 60.7806C47.4303 65.4875 45.7329 70.074 43.2771 74.1189C42.0854 76.1774 40.5806 77.959 38.9675 79.5842C37.246 81.0769 35.4162 82.4733 33.3336 83.3401C29.2166 85.2662 24.7504 85.6033 20.188 85.6996C15.5292 85.7477 10.9667 86.5182 6.74135 87.8785C5.95887 88.1313 5.20047 88.3961 4.4541 88.685C4.75506 89.4434 5.06805 90.2018 5.39308 90.9482C6.09129 90.7074 6.7895 90.4546 7.49975 90.2139Z" fill="#BCA6F4"/>
<path d="M13.0854 95.8115C17.082 94.4753 21.4037 93.7048 25.8338 93.6085L29.3008 93.4279C30.4324 93.4039 31.6121 93.2835 32.828 93.0427C34.0438 92.8622 35.2476 92.6334 36.4033 92.2241L38.1609 91.6824L39.8462 90.912C42.1214 89.9248 44.1318 88.3719 46.0097 86.7107C47.7432 84.917 49.3563 82.9548 50.5842 80.7758C53.1484 76.4662 54.8337 71.7232 56.2903 66.944C59.1915 57.4339 61.238 47.4663 66.1496 38.7868C68.6053 34.5012 71.9519 30.7212 76.0569 28.0487C80.1499 25.3522 84.9291 23.8113 89.7564 23.065C94.5837 22.2464 99.5193 22.5353 104.407 22.2223C107.368 22.0537 110.318 21.7889 113.207 21.3074C112.918 20.9944 112.629 20.6814 112.328 20.3684C109.704 20.7416 107.043 20.9583 104.359 21.0787C99.5434 21.3555 94.5596 21.0185 89.5638 21.8009C84.604 22.5112 79.6082 24.0521 75.2865 26.8449C70.9407 29.6137 67.3895 33.5622 64.8013 37.9923C59.6249 46.9366 57.47 57.0125 54.4966 66.3903C53.0159 71.0972 51.3186 75.6837 48.8748 79.7285C47.683 81.7871 46.1783 83.5687 44.5772 85.2059C42.8437 86.6986 41.0259 88.095 38.9433 88.9618C34.8263 90.8999 30.3601 91.225 25.7977 91.3213C21.1389 91.3694 16.5885 92.1399 12.3511 93.5122C10.6898 94.0419 9.07668 94.6679 7.51172 95.3541C7.89694 96.0884 8.2942 96.8107 8.71553 97.533C10.112 96.8709 11.5686 96.3051 13.0854 95.8115Z" fill="#BCA6F4"/>
<path d="M18.6712 101.397C22.6679 100.061 26.9896 99.2907 31.4316 99.1944L34.8866 99.0138C36.0302 98.9897 37.1979 98.8693 38.4138 98.6286C39.6296 98.448 40.8334 98.2193 41.9771 97.81L43.7467 97.2803L45.432 96.5099C47.7072 95.5227 49.7176 93.9698 51.5955 92.3085C53.329 90.5028 54.9421 88.5526 56.1821 86.3737C58.7342 82.0641 60.4195 77.321 61.8761 72.5539C64.7773 63.0318 66.8238 53.0642 71.7354 44.3967C74.1911 40.1111 77.5378 36.3311 81.6428 33.6466C85.7357 30.9501 90.5149 29.4092 95.3422 28.6749C100.169 27.8563 105.105 28.1452 109.993 27.8202C112.629 27.6757 115.253 27.4349 117.841 27.0618C117.601 26.7367 117.372 26.4117 117.131 26.0867C114.76 26.3876 112.364 26.5682 109.956 26.6886C105.141 26.9655 100.157 26.6163 95.1616 27.4109C90.2019 28.1211 85.2181 29.674 80.8844 32.4549C76.5386 35.2236 72.9873 39.1721 70.3991 43.6022C65.2227 52.5465 63.0799 62.6225 60.1065 72.0002C58.6258 76.6951 56.9284 81.2936 54.4727 85.3385C53.2809 87.3849 51.7761 89.1786 50.175 90.8158C48.4536 92.3085 46.6238 93.6929 44.5532 94.5717C40.4362 96.4978 35.97 96.8349 31.4076 96.9312C26.7488 96.9793 22.1984 97.7498 17.9609 99.1101C15.6737 99.8444 13.4827 100.735 11.4001 101.758C11.8817 102.457 12.3632 103.143 12.8688 103.817C14.6866 102.866 16.6367 102.059 18.6712 101.397Z" fill="#BCA6F4"/>
<path d="M24.2568 106.983C28.2535 105.635 32.5752 104.876 37.0173 104.78L40.4722 104.6C41.6038 104.576 42.7835 104.455 43.9994 104.214C45.2032 104.034 46.4191 103.805 47.5747 103.396L49.3323 102.866L51.0176 102.096C53.2928 101.109 55.3032 99.5556 57.1691 97.8943C58.9147 96.1006 60.5157 94.1384 61.7557 91.9595C64.3077 87.6378 66.0051 82.9068 67.4497 78.1277C70.3509 68.6055 72.3974 58.6379 77.321 49.9704C79.7768 45.6849 83.1234 41.9049 87.2284 39.2324C91.3214 36.5359 96.0885 34.995 100.916 34.2486C105.743 33.43 110.679 33.7189 115.566 33.3939C117.577 33.2856 119.587 33.117 121.573 32.8763C121.381 32.5392 121.176 32.1901 120.983 31.853C119.178 32.0456 117.348 32.166 115.53 32.2503C110.715 32.5272 105.743 32.1781 100.735 32.9726C95.7755 33.6828 90.7917 35.2237 86.458 38.0166C82.1122 40.7853 78.5609 44.7338 75.9727 49.1639C70.7963 58.0962 68.6535 68.1842 65.6801 77.5619C64.1994 82.2568 62.502 86.8553 60.0462 90.8881C58.8665 92.9466 57.3497 94.7283 55.7486 96.3655C54.0272 97.8582 52.2094 99.2426 50.1148 100.121C45.9977 102.047 41.5316 102.385 36.9691 102.481C32.3103 102.529 27.7599 103.299 23.5225 104.672C20.8982 105.502 18.4063 106.55 16.0588 107.766C16.6246 108.416 17.2145 109.054 17.8044 109.692C19.8388 108.644 21.9936 107.729 24.2568 106.983Z" fill="#BCA6F4"/>
<path d="M29.8305 112.569C33.8272 111.22 38.1489 110.462 42.591 110.366L46.0459 110.185C47.1775 110.161 48.3572 110.041 49.5731 109.8C50.7889 109.619 51.9927 109.391 53.1484 108.981L54.906 108.452L56.5913 107.681C58.8665 106.694 60.8769 105.141 62.7428 103.48C64.4883 101.686 66.0894 99.7239 67.3293 97.545C69.8814 93.2353 71.5788 88.4923 73.0234 83.7132C75.9246 74.203 77.9711 64.2234 82.8947 55.5559C85.3505 51.2583 88.6971 47.4904 92.8021 44.8059C96.8951 42.1093 101.662 40.5684 106.489 39.8221C111.317 39.0035 116.252 39.2924 121.14 38.9794C122.271 38.9192 123.391 38.8349 124.511 38.7386C124.354 38.3775 124.186 38.0163 124.029 37.6672C123.054 37.7395 122.079 37.7997 121.092 37.8478C116.289 38.1247 111.305 37.7756 106.309 38.5701C101.349 39.2803 96.3533 40.8212 92.0196 43.6141C87.6738 46.3829 84.1226 50.3314 81.5344 54.7614C76.358 63.7058 74.2152 73.7817 71.2417 83.1594C69.7611 87.8543 68.0637 92.4529 65.6079 96.4977C64.4161 98.5442 62.9114 100.326 61.2982 101.963C59.5768 103.456 57.759 104.852 55.6764 105.719C51.5594 107.645 47.0932 107.982 42.5308 108.078C37.872 108.127 33.3095 108.897 29.0841 110.269C26.4358 111.112 23.9318 112.171 21.5603 113.387C22.2344 113.989 22.9086 114.579 23.6068 115.157C25.5931 114.158 27.6636 113.279 29.8305 112.569Z" fill="#BCA6F4"/>
<path d="M35.4283 118.154C39.425 116.806 43.7467 116.048 48.1887 115.952L51.6437 115.771C52.7753 115.747 53.955 115.639 55.1709 115.386C56.3867 115.205 57.5905 114.976 58.7462 114.567L60.5038 114.037L62.1891 113.267C64.4643 112.28 66.4747 110.727 68.3406 109.066C70.0741 107.272 71.6872 105.31 72.9272 103.131C75.4792 98.8212 77.1766 94.0782 78.6212 89.3111C81.5224 79.7889 83.5689 69.8213 88.4925 61.1538C90.9483 56.8562 94.2949 53.0883 98.3999 50.4158C102.493 47.7072 107.26 46.1784 112.087 45.432C116.915 44.6134 121.85 44.9023 126.738 44.5773C126.75 44.5773 126.762 44.5773 126.762 44.5773C126.641 44.2041 126.509 43.8309 126.377 43.4578C121.658 43.7106 116.782 43.3855 111.895 44.156C106.935 44.8662 101.939 46.4191 97.6174 49.2C93.2716 51.9687 89.7083 55.9172 87.1201 60.3473C81.9437 69.2916 79.8009 79.3676 76.8275 88.7453C75.3468 93.4402 73.6494 98.0387 71.2057 102.084C70.0139 104.142 68.5092 105.912 66.896 107.549C65.1625 109.042 63.3448 110.438 61.2742 111.305C57.1572 113.243 52.691 113.568 48.1286 113.664C43.4698 113.712 38.9194 114.471 34.6819 115.843C32.3706 116.577 30.1676 117.48 28.073 118.516C28.8675 119.069 29.6741 119.599 30.4927 120.117C32.0817 119.37 33.7189 118.708 35.4283 118.154Z" fill="#BCA6F4"/>
<path d="M41.014 123.74C44.9986 122.404 49.3323 121.622 53.7624 121.537L57.2293 121.357C58.3609 121.333 59.5286 121.212 60.7565 120.959C61.9724 120.791 63.1762 120.55 64.3319 120.141L66.0894 119.599L67.7748 118.829C70.05 117.842 72.0603 116.289 73.9263 114.627C75.6718 112.834 77.2849 110.871 78.5128 108.693C81.0649 104.383 82.7623 99.6398 84.2068 94.8607C87.108 85.3506 89.1545 75.3709 94.0781 66.7035C96.5339 62.4179 99.8805 58.6379 103.986 55.9654C108.078 53.2689 112.858 51.728 117.685 50.9816C121.212 50.3918 124.799 50.3797 128.387 50.2955C128.291 49.8982 128.194 49.513 128.098 49.1157C124.607 49.1639 121.056 49.1518 117.492 49.7056C112.533 50.4158 107.537 51.9567 103.215 54.7496C98.8693 57.5184 93.6929 60.865 92.7299 65.8969C90.876 75.5997 86.6626 85.2061 82.4372 94.2949C80.3546 98.7611 79.2592 103.588 76.8034 107.633C75.6116 109.692 74.1068 111.473 72.4937 113.098C70.7723 114.591 68.9425 115.988 66.8719 116.854C62.7549 118.78 58.2887 119.118 53.7262 119.214C49.0675 119.262 44.505 120.032 40.2796 121.393C38.7508 121.886 37.2581 122.44 35.8135 123.066C36.8126 123.572 37.8238 124.041 38.8471 124.499C39.5453 124.258 40.2796 123.981 41.014 123.74Z" fill="#BCA6F4"/>
<path d="M59.3601 127.123L62.815 126.942C63.9586 126.918 65.1143 126.798 66.3422 126.557C67.558 126.376 68.7739 126.148 69.9175 125.738L71.6751 125.197L73.3604 124.426C75.6356 123.439 77.646 121.886 79.524 120.225C81.2575 118.431 82.8706 116.469 84.0985 114.29C86.6626 109.98 88.3479 105.237 89.8045 100.458C92.7057 90.9482 94.7522 80.9806 99.6638 72.3011C102.12 68.0155 105.466 64.2355 109.571 61.551C113.664 58.8545 118.443 57.3136 123.271 56.5793C125.305 56.2301 127.364 56.0857 129.434 56.0135C129.374 55.6042 129.314 55.1949 129.254 54.7976C127.207 54.8578 125.137 54.9902 123.078 55.3153C118.118 56.0255 113.134 57.5664 108.801 60.3592C104.455 63.128 100.904 67.0765 98.3155 71.5066C93.1391 80.4509 90.9843 90.5268 88.0229 99.9046C86.5422 104.611 84.8448 109.198 82.389 113.243C81.1973 115.289 79.6925 117.083 78.0914 118.708C76.3579 120.201 74.5402 121.597 72.4576 122.464C68.3405 124.402 63.8744 124.727 59.3119 124.824C54.6531 124.872 50.1027 125.63 45.8653 127.002C45.7931 127.027 45.7208 127.051 45.6606 127.075C47.1413 127.532 48.6461 127.941 50.175 128.303C53.1123 127.604 56.2061 127.195 59.3601 127.123Z" fill="#BCA6F4"/>
<path d="M114.374 65.9449C110.029 68.7136 106.477 72.6742 103.889 77.0922C98.7129 86.0365 96.5701 96.1125 93.5966 105.49C92.1159 110.185 90.4186 114.784 87.9628 118.828C86.771 120.875 85.2662 122.669 83.6652 124.306C81.9437 125.799 80.1259 127.195 78.0433 128.062C76.8756 128.603 75.6839 129.025 74.468 129.338C77.4174 128.904 80.3065 128.278 83.1235 127.472C83.8096 126.942 84.4717 126.388 85.1097 125.811C86.8553 124.005 88.4563 122.055 89.6963 119.876C92.2604 115.566 93.9458 110.823 95.3903 106.056C98.2915 96.5338 100.338 86.5662 105.25 77.8988C107.705 73.6132 111.052 69.8332 115.157 67.1487C119.25 64.4521 124.029 62.9112 128.856 62.1769C129.23 62.1167 129.615 62.0686 129.988 62.0204C129.964 61.5991 129.94 61.1778 129.916 60.7444C129.506 60.7925 129.085 60.8407 128.676 60.9129C123.692 61.6111 118.708 63.152 114.374 65.9449Z" fill="#BCA6F4"/>
<path d="M120.743 72.7344C123.559 70.8805 126.689 69.5804 129.94 68.7016C129.964 68.2321 129.988 67.7747 130 67.3052C126.485 68.1719 123.054 69.5322 119.96 71.5306C115.614 74.2993 112.063 78.2479 109.475 82.6779C104.298 91.6102 102.156 101.698 99.1822 111.076C97.87 115.253 96.3773 119.346 94.3308 123.054C95.3661 122.536 96.3773 121.982 97.3885 121.405C98.8451 118.251 99.9767 114.952 100.976 111.63C103.877 102.107 105.924 92.1399 110.847 83.4724C113.291 79.1868 116.638 75.4189 120.743 72.7344Z" fill="#BCA6F4"/>
<path d="M126.34 78.3202C127.195 77.7544 128.074 77.2609 128.989 76.7914C129.097 76.2256 129.193 75.6598 129.278 75.094C128.002 75.6839 126.762 76.358 125.558 77.1284C121.212 79.8972 117.649 83.8457 115.061 88.2758C109.932 97.1238 107.778 107.091 104.852 116.397C105.731 115.723 106.586 115.025 107.416 114.302C109.908 105.695 112.003 96.859 116.421 89.0703C118.877 84.7727 122.223 81.0047 126.34 78.3202Z" fill="#BCA6F4"/>
<path d="M120.646 93.8494C118.323 97.8581 116.614 102.096 115.169 106.393C116.397 104.912 117.552 103.372 118.636 101.783C119.611 99.3388 120.706 96.9432 122.007 94.644C122.861 93.1392 123.836 91.7187 124.908 90.3704C125.45 89.0823 125.955 87.7822 126.413 86.458C124.161 88.6369 122.223 91.1529 120.646 93.8494Z" fill="#BCA6F4"/>
</svg>
