<?xml version="1.0" encoding="utf-8"?>
<!-- Generator: Adobe Illustrator 25.4.1, SVG Export Plug-In . SVG Version: 6.00 Build 0)  -->
<svg version="1.1" id="Layer_1" xmlns="http://www.w3.org/2000/svg" xmlns:xlink="http://www.w3.org/1999/xlink" x="0px" y="0px"
	 viewBox="0 0 1080 1080" style="enable-background:new 0 0 1080 1080;" xml:space="preserve">
<style type="text/css">
	.st0{fill:#FFE66E;}
	.st1{fill:#6A2979;}
</style>
<g>
	<path class="st0" d="M1079.9,539.9c0,298.2-241.8,540-540,540s-540-241.8-540-540s241.8-540,540-540S1079.9,241.7,1079.9,539.9"/>
</g>
<g>
	<path class="st1" d="M687.1,257.6c-1.5-6.5-3.2-13-5.1-19.4l-2.2-7.3H400.2l-2.2,7.3c-2,6.4-3.7,12.8-5.1,19.3h-88.5l0.1,10.4
		c0.8,99.7,58.7,186.7,144.4,217.5c17.2,20.3,37.5,37.9,60.4,52.1V621h-50.6c-18.1,0-22.7,36.7-23.7,48.2H392v106.3h-11v73.6h321.1
		v-73.6h-10.9V669.2h-43c-1-11.5-5.5-48.2-23.7-48.2h-94.7v-95.1l-5.1-3c-72.6-42.6-117.7-122.1-117.7-207.4c0-21.7,2.9-43.3,8.5-64
		h35.5c-6.1,22-9.1,44.7-9.1,67.6c0,23.7,3.3,47.3,9.7,70l0.3,1l19.8-5.7l-0.3-1c-5.9-20.9-8.9-42.5-8.9-64.3
		c0-22.8,3.4-45.5,10-67.6h191.8c5.6,20.9,8.5,42.4,8.5,64c0,85.4-45.1,164.9-117.7,207.4l-0.9,0.5l10.4,17.8l0.9-0.5
		c25.1-14.7,47.1-33.4,65.5-55.1c85.7-30.8,143.6-117.8,144.4-217.5l0.1-10.4H687.1z M424.2,451.2c-23-13.7-43.2-32.6-59.5-55.9
		c-23.6-33.7-37.2-74.2-39.4-117.1h63.7c-1.8,12.3-2.6,24.8-2.6,37.3C386.4,363.9,400,410.8,424.2,451.2z M693.5,315.5
		c0-12.5-0.9-25-2.6-37.3h63.8c-2.2,42.9-15.8,83.4-39.4,117.1c-16.2,23.2-36.4,42.1-59.4,55.8C680,410.9,693.5,364.1,693.5,315.5z
		 M670.5,775.4H412.6v-85.6h257.9V775.4z M681.5,828.5H401.6v-32.4h279.9V828.5z M455.5,669.2c0.8-8.4,4.1-22.2,6.7-27.6h158.6
		c2.6,5.4,5.9,19.2,6.7,27.6H455.5z"/>
	<rect x="478.5" y="723.3" class="st1" width="26.8" height="20.6"/>
	<rect x="577.8" y="723.3" class="st1" width="26.8" height="20.6"/>
	<rect x="528.2" y="723.3" class="st1" width="26.8" height="20.6"/>
</g>
</svg>
