<?xml version="1.0" encoding="utf-8"?>
<!-- Generator: Adobe Illustrator 25.4.1, SVG Export Plug-In . SVG Version: 6.00 Build 0)  -->
<svg version="1.1" id="Layer_1" xmlns="http://www.w3.org/2000/svg" xmlns:xlink="http://www.w3.org/1999/xlink" x="0px" y="0px"
	 viewBox="0 0 1080 1080" style="enable-background:new 0 0 1080 1080;" xml:space="preserve">
<style type="text/css">
	.st0{fill:#BCA6F4;}
	.st1{fill:#6A2979;}
</style>
<g>
	<path class="st0" d="M1079.9,539.9c0,298.2-241.8,540-540,540s-540-241.8-540-540s241.8-540,540-540S1079.9,241.7,1079.9,539.9"/>
</g>
<g>
	<path class="st1" d="M481.5,772.8l0.3-0.1l-0.3-58.9L431.8,656H445V470.2h-21.3v164.5H291.2V509.9h-21.3V656h8.3
		c-7,10.1-10.8,22.1-10.8,34.9l0,88.9l1,19c0,16.3,13.3,29.6,29.6,29.6c5.4,0,10.2-0.8,14.2-2.4c5.6,7.4,14.3,11.8,23.7,11.8
		c4.7,0,9.3-1.1,13.5-3.3c5.6,8,14.6,12.8,24.3,12.8c6.1,0,12.1-1.9,17-5.4c5.8,5.9,13.4,9.1,21.7,9.1c8.1,0,15.7-3.2,21.4-8.9
		c5.7-5.7,8.8-13.3,8.7-21.3V808c5.7,3.1,12.1,4.7,18.7,4.7h19.9v-0.4h0.3l0.5-19.7l-0.5-0.1V772.8z M460.2,766.5v24.8
		c-9.6-0.5-17.2-8.5-17.2-18.2l0-39.6l-0.5-10.8l-21.2,0.4l-0.1,97.5c0,4.9-4,8.9-8.9,8.9c-5,0-9-4.1-9-9.5l-0.3-4.5l-21.2,0.6v1.5
		c0,4.6-3.7,8.3-8.3,8.3s-8.3-3.7-8.3-8.3v-11h-21.3v1.5c0,4.6-3.7,8.3-8.3,8.3s-8.3-3.7-8.3-8.3v-6.2h-21.3v1.5
		c0,1.3,0,3.5-8.3,3.5c-4.6,0-8.3-3.8-8.3-8.8l-1-19v-88.3c0-12.8,5.9-24.5,16.2-32.2l1.2-0.9l-1.4-1.8h106.7l-4.5,3.8l53.2,61.9
		v37.1l-0.8,0.3L460.2,766.5z"/>
	<path class="st1" d="M850.2,666.8c0-16.7-13.6-30.3-30.3-30.3h-12.7c3.1-5.7,4.7-12.1,4.7-18.7v-19.9h-0.6v-0.3l-19.6-0.5l-0.1,0.5
		H713l-57.9,49.7v-13.2H469.3v21.3h164.5V788H509v21.4h146.1v-8.4c10.1,7,22.2,10.9,34.9,10.9h0l89-0.1l19-0.9
		c16.3,0,29.6-13.3,29.6-29.6c0-5.3-0.8-10-2.4-14.2c7.4-5.6,11.9-14.3,11.9-23.7c0-4.7-1.1-9.3-3.3-13.5c8-5.6,12.8-14.5,12.8-24.3
		c0-6.1-1.9-12-5.4-17C846.9,682.8,850.2,674.9,850.2,666.8z M815.3,697.4h1.5c4.6,0,8.3,3.7,8.3,8.3s-3.7,8.3-8.3,8.3h-11v21.3h1.5
		c4.6,0,8.3,3.7,8.3,8.3s-3.7,8.3-8.3,8.3h-6.2V773h1.5c1.3,0,3.5,0,3.5,8.3c0,4.6-3.8,8.3-8.8,8.3l-19,0.9H690
		c-12.8,0-24.5-5.9-32.2-16.2l-0.9-1.2l-1.8,1.4V667.7l3.8,4.5l61.9-53.2h37.5l0.5,0.9l7-0.9h24.7c-0.5,9.6-8.5,17.2-18.2,17.2
		l-39.6,0l-10.9,0.6l0.4,21.2l97.5,0.1c4.9,0,8.9,4,8.9,8.9c0,5-4.1,9-9.4,9l-4.5,0.3L815.3,697.4z"/>
	<path class="st1" d="M596.7,287.3v19.7l-0.5,0.2l0.5,7.5v51.3l49.7,57.9h-13.2v185.8h21.4V445.3h132.6v124.8h21.3V424h-8.4
		c7-10.1,10.9-22.2,10.9-34.9l0-88.8l-0.9-19c0-16.3-13.3-29.6-29.6-29.6c-5.3,0-10.1,0.8-14.2,2.4c-5.6-7.4-14.3-11.9-23.7-11.9
		c-4.7,0-9.4,1.1-13.5,3.3c-5.6-8-14.6-12.8-24.3-12.8c-6.1,0-12,1.9-17,5.4c-5.7-5.8-13.5-9.1-21.7-9.1
		c-16.7,0-30.2,13.6-30.2,30.3v12.7c-5.7-3.1-12.1-4.7-18.7-4.7h-19.7l-0.1,0.5h-0.6l0,8l-0.6,11.6L596.7,287.3z M618.1,313.4v-24.9
		c9.6,0.5,17.2,8.5,17.2,18.2l0,39.6l0.5,10.8l21.2-0.4l0.1-97.5c0-4.9,4-9,8.9-9c5,0,9,4.1,9,9.4l0.3,4.5l21.3-0.5v-1.5
		c0-4.6,3.7-8.3,8.3-8.3s8.3,3.7,8.3,8.3v11h21.3v-1.5c0-4.6,3.7-8.3,8.3-8.3c4.6,0,8.3,3.7,8.3,8.3v6.2h21.3v-1.5
		c0-1.3,0-3.5,8.3-3.5c4.6,0,8.3,3.8,8.3,8.8l0.9,19v88.3c0,12.8-5.9,24.6-16.2,32.2l-1.2,0.9l1.4,1.8H666.8l4.5-3.9l-53.2-61.9
		v-37.1l0.7-0.3L618.1,313.4z"/>
	<path class="st1" d="M268,467.1V487h0.6v0.3l19.6,0.5l0.1-0.5h19.5l0.3,0.7l7.6-0.7H367l57.8-49.7v13.1h185.8v-21.3H446.1V296.9
		h124.8v-21.4H424.8v8.5c-10.1-7-22.2-10.9-34.9-10.9l-88.8,0l-19,0.9c-16.3,0-29.6,13.3-29.6,29.6c0,5.4,0.8,10.2,2.4,14.2
		c-7.4,5.6-11.8,14.4-11.8,23.7c0,4.7,1.1,9.3,3.3,13.5c-8,5.5-12.8,14.5-12.8,24.4c0,6.1,1.9,12,5.4,17c-5.8,5.7-9.2,13.6-9.2,21.7
		c0,16.7,13.6,30.3,30.3,30.3h12.7C269.6,454.1,268,460.5,268,467.1z M264.5,387.6h-1.5c-4.6,0-8.3-3.7-8.3-8.3s3.7-8.3,8.3-8.3h11
		v-21.3h-1.5c-4.6,0-8.3-3.7-8.3-8.3c0-4.6,3.7-8.3,8.3-8.3h6.2v-21.3h-1.5c-1.2,0-3.5,0-3.5-8.3c0-4.6,3.8-8.3,8.8-8.3l19-0.9h88.4
		c12.8,0,24.5,5.9,32.2,16.2l0.9,1.2l1.9-1.4v106.8l-3.8-4.5L359,466h-36.9l-0.3-0.7l-7.6,0.7h-24.9c0.5-9.6,8.5-17.2,18.2-17.2
		l39.6,0l10.8-0.5l-0.4-21.2L260,427c-4.9,0-9-4-9-8.9c0-5,4.1-9,9.5-9l4.5-0.3L264.5,387.6z"/>
</g>
</svg>
