<?xml version="1.0" encoding="utf-8"?>
<!-- Generator: Adobe Illustrator 25.4.1, SVG Export Plug-In . SVG Version: 6.00 Build 0)  -->
<svg version="1.1" id="Layer_1" xmlns="http://www.w3.org/2000/svg" xmlns:xlink="http://www.w3.org/1999/xlink" x="0px" y="0px"
	 viewBox="0 0 1080 1080" style="enable-background:new 0 0 1080 1080;" xml:space="preserve">
<style type="text/css">
	.st0{fill:#FFE66E;}
	.st1{fill:#6A2979;}
</style>
<g>
	<path class="st0" d="M1079.9,539.9c0,298.2-241.8,540-540,540s-540-241.8-540-540s241.8-540,540-540S1079.9,241.7,1079.9,539.9"/>
</g>
<g>
	<path class="st1" d="M553,286.1c30.5,0,61.5,6.2,91.1,19.2c114.4,50.4,166.5,184.6,116.1,299c-37.4,84.8-120.7,135.3-207.9,135.3
		c-30.5,0-61.5-6.2-91.1-19.2C346.8,670,294.7,535.9,345.1,421.5C382.4,336.7,465.8,286.1,553,286.1 M553,261.9
		c-99.6,0-190,58.8-230,149.8c-55.8,126.6,1.8,275,128.5,330.8c32.1,14.1,66,21.3,100.9,21.3c99.6,0,190-58.8,230-149.8
		c27-61.2,28.5-129.5,4.2-192c-24.3-62.5-71.4-111.9-132.6-138.9C621.8,269.1,587.9,261.9,553,261.9"/>
	<path class="st1" d="M811.5,276.4c-1.6-2.7-3.4-5.2-5.6-7.4l17.5-16.7c3.4,3.6,6.4,7.6,8.9,11.9L811.5,276.4z"/>
	<path class="st1" d="M326.8,815.2l-1.6-24.1c7-0.4,14.6-1.6,22.5-3.2l4.9,23.7C343.6,813.4,334.9,814.6,326.8,815.2 M299.9,814.3
		c-10.1-1.5-19.2-4.4-27.1-8.6l11.4-21.3c5.4,2.9,11.9,4.9,19.2,6L299.9,814.3z M377.2,805.1l-7.1-23.1c7.1-2.2,14.6-4.8,22.2-7.8
		l8.7,22.5C392.9,800,384.9,802.8,377.2,805.1 M424.2,787l-10-22c7-3.2,14.2-6.7,21.4-10.4l11,21.5C439.1,780,431.6,783.7,424.2,787
		 M250.4,786.1c-5.4-7.6-9.2-16.7-11.4-26.8l23.7-5.1c1.4,6.9,4,12.9,7.5,17.9L250.4,786.1z M468.5,764.3l-11.9-21
		c6.7-3.8,13.7-7.9,20.6-12.2l12.7,20.6C482.7,756,475.5,760.3,468.5,764.3 M510.8,738.2l-13.4-20.2c6.6-4.3,13.2-8.9,19.9-13.5
		l13.9,19.7C524.4,729.1,517.6,733.8,510.8,738.2 M261.2,733.1l-24.2-1.1c0.4-8.2,1.6-16.9,3.4-26l23.7,4.9
		C262.5,718.7,261.5,726.2,261.2,733.1 M551.2,709.7l-14.5-19.4c6.4-4.7,12.7-9.6,19.1-14.7l15,19
		C564.3,699.8,557.8,704.8,551.2,709.7 M270.2,688.5l-23-7.5c2.5-7.7,5.4-15.7,8.8-23.8l22.3,9.2
		C275.2,674.1,272.5,681.5,270.2,688.5 M590.1,679.1l-15.4-18.6c6.1-5.1,12.2-10.3,18.4-15.7l15.9,18.2
		C602.5,668.6,596.3,673.9,590.1,679.1 M627.3,646.7l-16.4-17.8c5.3-4.9,10.7-9.9,15.9-14.9l1.7-1.6l16.7,17.5l-1.6,1.6
		C638.1,636.6,632.7,641.7,627.3,646.7 M288.1,645l-21.7-10.6c3.6-7.2,7.4-14.7,11.5-22.2l21.2,11.7
		C295.2,631.1,291.4,638.2,288.1,645 M662.8,612.5l-17.1-17c5.7-5.7,11.4-11.5,16.9-17.3l17.5,16.7
		C674.5,600.7,668.7,606.6,662.8,612.5 M696.9,576.7L679,560.5c5.4-6,10.8-12,16-18.1l18.3,15.8
		C707.9,564.3,702.5,570.5,696.9,576.7 M729.1,539.2L710.4,524c5.1-6.3,10.1-12.6,14.9-18.9l19.2,14.7
		C739.5,526.2,734.4,532.7,729.1,539.2 M759.3,500l-19.6-14.2c4.7-6.6,9.4-13.2,13.7-19.7l20,13.5C769,486.4,764.2,493.2,759.3,500
		 M787,458.8l-20.5-12.7c4.2-6.9,8.4-13.8,12.2-20.5l21,11.9C795.7,444.4,791.4,451.7,787,458.8 M811.5,415.3l-21.6-10.9
		c3.6-7.2,7-14.5,10-21.5l22.2,9.6C818.9,400,815.3,407.6,811.5,415.3 M831.2,368.9l-22.8-7.8c2.6-7.7,4.8-15.2,6.4-22.2l23.5,5.5
		C836.6,352.2,834.1,360.5,831.2,368.9 M842.5,318.6l-24.1-2c0.2-3,0.4-5.9,0.4-8.8c0-4.4-0.3-8.7-0.9-12.7l23.9-3.7
		c0.8,5.2,1.2,10.7,1.2,16.4C842.9,311.3,842.8,314.9,842.5,318.6"/>
	<path class="st1" d="M311.2,603.2l-20.7-12.6c2.1-3.5,4.3-7,6.6-10.5l20.3,13C315.3,596.5,313.3,599.8,311.2,603.2"/>
	<path class="st1" d="M316.5,815.1c-25.4,0-46.1-7-60.1-21.7l17.5-16.7c42,44,193.9-10.9,353-162.7
		c72.4-69.1,130.6-144.1,163.9-211.3c31-62.5,36.6-111.3,15.2-133.6c-25.3-26.5-90.8-16.3-170.9,26.8l-11.4-21.3
		c92.8-50,165.7-58.1,199.8-22.3c29.2,30.6,25.3,87.8-11,161c-34.5,69.7-94.5,147.1-168.9,218.1C523,746.4,396.1,815.1,316.5,815.1"
		/>
	<path class="st1" d="M360.6,849.8c-34.4,0-62.4-28-62.4-62.4s28-62.4,62.4-62.4s62.4,28,62.4,62.4
		C423.1,821.8,395.1,849.8,360.6,849.8"/>
	<path class="st1" d="M524.8,681.9l-6.9-80.6l7.9-49.5l-23.5-9.2l-6.9-36.2l38.3-47.6l29.4,11.1l-32.5-42.8l41.5-8.1l-5.2-21
		l54.9-23.6l30,23.7c17.5-0.6,82.4-2.9,106.1-6.5l3.6,23.9c-28.8,4.4-109.9,6.8-113.4,6.9l-4.4,0.1l-25.6-20.2l-22.8,9.8l6.4,25.7
		l-28.5,5.6l28.8,38l-19,22l-41.5-15.7l-20.3,25.3l2.3,12.1l29.3,11.4l-10.5,65.9l1.9,21.7l53.1-59.6l-5.1-1.9l9.9-45.5l31.5,8.9
		l34.3-22.2l8.4,46.3l36-9.6l5,36.1l70.2-63.2l16.2,18l-104.3,93.4l-7.5-54.1l-34.9,9.4l-6.6-36.5l-13,8.4l-15.4-4.4l16.9,6.2
		L524.8,681.9z"/>
	<path class="st1" d="M365.5,487.2l-44.7-14.9l7.7-22.9l30.1,10c3.3-37.7,4.2-38.4,9-41.8l10-1.9l24.1,5.8l48.3-20.3l-5.2-13.9
		c-15.1,9.1-17.9,9.5-23,7.3l-7.2-8.5l0.4-6.9l33.7-91.1l22.7,8.4l-23.6,63.7l14.5,4.9l14.4,38.6l-6.6,15.4l-62.6,26.4l-7.6,0.6
		l-15.2-3.7c-1,9.2-2.2,22.6-3.2,34.5L365.5,487.2z"/>
	<path class="st1" d="M399.7,679.3l-31.8-71.8l17.3-48.9l-6.6-45.4l36.3-47.9l64.5,84.5L399.7,679.3z M393.9,606.5l9.4,21.1
		l46.9-76.3L415,505.2l-11,14.5l5.4,37.5c0.4,2.9,0.1,5.4-0.9,7.9L393.9,606.5z"/>
	<path class="st1" d="M515.3,361l-9.8-84.5l11.7-1.6c14.2-2,27.8-3,40.4-3c18.1,0,30.5,2,37.6,3.7l16.2,3.9l-36.7,60L515.3,361z
		 M532.3,297.3l3.6,30.5l22.8-8.3l14-23C562.3,295.7,547.4,295.8,532.3,297.3"/>
</g>
</svg>
