<?xml version="1.0" encoding="utf-8"?>
<!-- Generator: Adobe Illustrator 25.4.1, SVG Export Plug-In . SVG Version: 6.00 Build 0)  -->
<svg version="1.1" id="Layer_1" xmlns="http://www.w3.org/2000/svg" xmlns:xlink="http://www.w3.org/1999/xlink" x="0px" y="0px"
	 viewBox="0 0 1080 1080" style="enable-background:new 0 0 1080 1080;" xml:space="preserve">
<style type="text/css">
	.st0{fill:#BCA6F4;}
	.st1{fill:#6A2979;}
</style>
<g>
	<path class="st0" d="M1079.9,539.9c0,298.2-241.8,540-540,540s-540-241.8-540-540s241.8-540,540-540S1079.9,241.7,1079.9,539.9"/>
</g>
<path class="st1" d="M836.9,493.1c-1.9,0-3.8,0.1-5.8,0.3c-8.6-31.5-33.6-55.1-64.4-62.5c-0.1-1.1-0.2-2.1-0.4-3.1
	c-11.8-114.6-111.7-208-223.3-209.4c-0.6-0.1-1.1-0.1-1.7-0.2h-0.1c-0.5,0-1,0-1.4,0.1c-0.1,0-0.1,0-0.2,0c0,0,0,0,0,0
	c0,0-0.1,0-0.1,0c-68.5,0.4-135.5,35.7-179.4,94.7c-30.4,4.9-56.1,26.1-66.4,55.8c-26.6,4-46.5,27-46.5,54c0,2.5,0.2,5,0.6,7.8
	l1.4,9.3h64.4c-6.9,92.8,43.7,193.3,137.5,271.9c0.2,0.3,0.5,0.6,0.8,0.8l47.1,43.8l7.3,31.9h-11.2v73.3H586v-73.3h-12.9l6.8-29.8
	l45.6-42.4c0.4-0.2,0.7-0.5,1.1-0.8c54-46,93.2-95.5,116.7-147.2l146.3,0l10.7,0.3l0.3-11.9C900.5,521.6,872,493.1,836.9,493.1z
	 M516.9,840v-29.8h47.4V840H516.9z M528.6,788.5l-6.1-26.7h34.4l-6.1,26.7H528.6z M335.3,440h50c-12.4,83,12.3,169.4,70.2,247.1
	C372.7,614,328.4,523.1,335.3,440z M327.1,418.1c-1.3-0.2-2.7-0.1-3.9,0.2h-53.8c2.3-16,16-28.3,32-28.2h9.2l2.1-8.3
	c7-28.2,32.1-48,61.2-48c11.1,0,21.6,2.8,31,8.1c-11,4.5-21.2,11-30.1,19.4l-1.1,1l15,15.8l1.1-1c9.9-9.3,21.9-15.7,34.9-18.7
	l5.3-0.8c4.5-0.7,8.4-1,11.7-1c18.4,0,35.3,6.4,48.5,17.4c0,0,0.1,0.1,0.1,0.1c0.8,0.6,1.5,1.3,2.3,2c0.1,0.1,0.1,0.1,0.2,0.2
	c0.7,0.7,1.4,1.3,2.1,2c0.1,0.1,0.1,0.1,0.2,0.2c3.7,3.6,6.9,7.6,9.8,12c0.1,0.1,0.2,0.3,0.3,0.4c0.5,0.8,1,1.5,1.4,2.3
	c0.1,0.2,0.2,0.3,0.3,0.5c0.5,0.8,0.9,1.6,1.4,2.4c0.1,0.2,0.2,0.3,0.2,0.5c0.5,0.9,0.9,1.7,1.3,2.6c0,0.1,0.1,0.2,0.1,0.3
	c0.4,0.9,0.9,1.9,1.3,2.8c0,0,0,0,0,0c2.2,5,3.8,10.4,4.8,16H328C327.7,418.2,327.4,418.2,327.1,418.1z M494.4,350.2
	c-13.4-8.6-29.1-14.1-46-15.2c18.5-28.5,42.2-54.2,70.9-76.9C509,288.7,500.7,319.5,494.4,350.2z M407.4,440h74.6
	c-6.5,84.5,2.2,169.8,25.7,253.8h-19C422.3,614.8,393.6,525.1,407.4,440z M503.7,440h35.6l-0.4-11.3c-0.9-24.2-10.4-46-25.5-62.4
	c6.4-34.6,15.7-69.7,27.5-104.3c45.5,142.6,49,287.9,10.2,431.9h-20.9C506,609.7,497.1,524.3,503.7,440z M562.9,259.1
	c67.4,54.9,106.9,126.7,112.2,205.3c-9.4,12.7-15.2,27.8-16.8,43.7c-22.1,6.2-38.4,24.9-41.6,47.8l-1.7,12.4l47.4,0
	c-13.6,43.5-37.1,85.7-70.2,125.5h-18.5C611.6,548.8,608,402.8,562.9,259.1z M695,444.8c-10.1-76.8-50.4-146.4-115.9-200.6
	c84.9,18,155.3,93.6,165.5,184.2C726.6,428.7,709.4,434.4,695,444.8z M501.5,244.4c-30.8,25.1-56.2,53.8-75.7,85.5
	c-11.2-8.7-24.1-14.4-37.9-16.7C418.5,277.8,458.7,253.7,501.5,244.4z M513.1,740L487,715.7h107.3L568.1,740H513.1z M623.3,689.5
	c28.9-38.6,49.6-79.3,61.8-121.2l34.1,0C698.4,610.4,666.2,651.1,623.3,689.5z M642.3,546.6c5.7-10.4,15.9-17.3,27.8-18.6l9.5-1.7
	v-9.6c0-36.6,29.8-66.5,66.5-66.5c33,0,61.3,24.6,65.8,57.3l1.7,12.3l12-3.3c3.8-1.1,7.6-1.6,11.3-1.6c19.3,0,36.1,13.2,40.7,31.7
	H642.3z"/>
</svg>
