<?xml version="1.0" encoding="utf-8"?>
<!-- Generator: Adobe Illustrator 25.4.1, SVG Export Plug-In . SVG Version: 6.00 Build 0)  -->
<svg version="1.1" id="Layer_1" xmlns="http://www.w3.org/2000/svg" xmlns:xlink="http://www.w3.org/1999/xlink" x="0px" y="0px"
	 viewBox="0 0 1080 1080" style="enable-background:new 0 0 1080 1080;" xml:space="preserve">
<style type="text/css">
	.st0{fill:#6B2978;}
	.st1{fill:#FFE66E;}
</style>
<g>
	<path class="st0" d="M1079.9,539.9c0,298.2-241.8,540-540,540s-540-241.8-540-540s241.8-540,540-540S1079.9,241.7,1079.9,539.9"/>
</g>
<g>
	<path class="st1" d="M552.1,847.6H231.9V527.4h122.3c0.5-0.2,1-0.6,1-1.2c0-0.5-0.3-0.9-0.6-1c-15-11.6-23.6-29.3-23.6-48.3
		c0-33.8,27.4-61.2,61.2-61.2s61.2,27.4,61.2,61.2c0,19.1-8.7,36.7-23.8,48.4c-0.1,0.1-0.4,0.4-0.4,0.9c0,0.6,0.4,1.1,0.9,1.2h122.3
		v119.3c0.8,1.2,1.6,2.4,2.4,3.2c11.6-14.9,29.2-23.6,48.3-23.6c33.7,0,61.2,27.4,61.2,61.2c0,33.8-27.4,61.2-61.2,61.2
		c-19,0-36.6-8.6-48.3-23.6c-0.7,0.9-1.6,2-2.4,3.2L552.1,847.6L552.1,847.6z M257.7,821.7h268.5V721.7l1.4-2.7
		c2.4-4.8,11.4-20.4,25.8-20.4c8.2,0,16,3.7,21.2,10.2c6.9,9,17.1,14,28.1,14c19.5,0,35.3-15.8,35.3-35.3s-15.8-35.3-35.3-35.3
		c-11,0-21.2,5-28,13.8c-5.3,6.7-13,10.5-21.3,10.5c-14.4,0-23.4-15.7-25.8-20.4l-1.4-2.7v-99.9l-98.8-0.1
		c-13.9-1.5-24.4-13.1-24.4-27c0-8.2,3.7-16,10.2-21.2c9-6.9,14-17.1,14-28.1c0-19.5-15.8-35.3-35.3-35.3s-35.3,15.8-35.3,35.3
		c0,11,5,21.1,13.8,28c6.7,5.4,10.5,13.1,10.5,21.4c0,13.9-10.5,25.5-24.4,27l-1.3,0.1h-97.4V821.7z"/>
	<path class="st1" d="M361.7,552.4H231.9V232.1h320.2v122.3c0.3,0.8,1.5,1.3,2.3,0.4c11.6-15,29.2-23.6,48.3-23.6
		c16.3,0,31.7,6.3,43.3,17.9s17.9,26.9,17.9,43.3c0,33.8-27.4,61.2-61.2,61.2c-19,0-36.7-8.7-48.4-23.8c-0.2-0.2-1.8-0.4-2.1,0.5
		v122.3h-130l-2.4-1c-0.7-0.3-1.5-0.7-2.2-1l-3-1.5l-1.9-1.8c-1.6-1.3-3-2.9-4.2-4.5l-0.7-0.9c-0.4-0.6-0.8-1.2-1.2-1.9
		c-0.5-0.9-0.9-1.7-1.3-2.6c-0.2-0.4-0.5-1.1-0.7-1.8c-0.4-1.1-0.6-1.9-0.8-2.7c-0.1-0.5-0.2-1.1-0.4-1.6c-0.3-1.6-0.4-3.2-0.4-4.7
		c0-8.2,3.8-16,10.3-21.2c8.9-6.9,14-17.1,14-28.1c0-19.5-15.8-35.3-35.3-35.3c-19.5,0-35.3,15.8-35.3,35.3c0,11,5,21.1,13.8,27.9
		c6.7,5.4,10.5,13.1,10.5,21.4c0,1.6-0.1,3.1-0.4,4.6l-1.5,5.1c-0.2,0.6-0.4,1-0.6,1.5c-0.2,0.5-0.6,1.3-1,2
		c-0.5,0.9-0.9,1.6-1.3,2.2l-0.7,0.9c-1.2,1.6-2.6,3-4.1,4.3l-3,2.3l-2.9,1.6c-0.4,0.2-0.7,0.4-1.2,0.5L361.7,552.4z M257.7,526.5
		H355c0-0.8-0.4-1.2-0.5-1.3c-14.9-11.6-23.6-29.2-23.6-48.3c0-33.8,27.4-61.2,61.2-61.2s61.2,27.4,61.2,61.2
		c0,19-8.7,36.6-23.8,48.4c-0.1,0.1-0.4,0.4-0.4,0.9l0.1,0.2h97.3l0.1-98.9c1.5-13.8,13.1-24.3,27-24.3c8.2,0,16,3.8,21.2,10.3
		c6.9,8.9,17.1,14,28.1,14c19.5,0,35.3-15.8,35.3-35.3c0-9.4-3.7-18.3-10.4-25c-6.7-6.6-15.5-10.4-25-10.4c-11,0-21.1,5.1-28,13.8
		c-5.4,6.7-13.1,10.4-21.4,10.4c-13.9,0-25.5-10.4-27-24.3l-0.1-1.4V258H257.7V526.5z"/>
	<path class="st1" d="M847.8,847.9l-320.5-0.4l0.2-124.7c1.5-13.9,13.1-24.4,27-24.4c8.4,0.1,16.2,3.8,21.3,10.4
		c6.9,8.9,17.1,13.9,28,13.9c19.6,0,35.4-15.8,35.5-35.3c0-19.5-15.8-35.4-35.3-35.4c-11.1,0-21.2,5-28,13.7
		c-5.4,6.7-13.1,10.5-21.4,10.5c-14-0.1-25.6-10.5-27-24.5l-0.1-1.3l0.1-123.3l127.5,0.2l1.7,0.5c11.7,3.4,19.8,14.1,19.7,26.2
		c0.1,8.2-3.7,16-10.4,21.2c-8.9,6.9-14,17.1-14,28c0,9.4,3.7,18.3,10.3,25c6.7,6.7,15.5,10.4,25,10.4c19.5,0,35.4-15.8,35.4-35.3
		c0-11-5-21.2-13.7-28c-6.8-5.4-10.5-13.2-10.5-21.5c0-12.2,8-22.7,19.8-26.1l1.7-0.5l127.6,0.2L847.8,847.9z M553.2,821.7L822,822
		l0.3-268.8l-97.3-0.1c-0.1,0.2-0.2,0.4-0.2,0.8c0,0.5,0.4,0.9,0.6,1.1c14.9,11.6,23.6,29.3,23.6,48.3
		c-0.1,33.7-27.5,61.1-61.2,61.1c-11.2,0-21.9-3-31.3-8.6c5.5,9.2,8.8,20.1,8.8,31.6c0,33.7-27.5,61.2-61.2,61.2
		c-19.1,0-36.7-8.7-48.5-23.9c-0.4-0.5-0.9-0.5-1-0.5c-0.5,0-1,0.5-1.2,1L553.2,821.7z M553.4,649.4c0.2,0.8,1.5,1.5,2.3,0.4
		c11.5-14.9,29.1-23.6,48.2-23.6c11.5,0,22.2,3.2,31.4,8.7c-5.7-9.4-8.8-20.4-8.7-31.7c0-19.1,8.7-36.7,23.9-48.4
		c0.1-0.1,0.4-0.4,0.4-0.8s-0.1-0.7-0.2-0.9l-97.1-0.1L553.4,649.4z"/>
	<rect x="535.9" y="232.1" class="st1" width="12.9" height="25.8"/>
	<path class="st1" d="M797.4,258h-24.9v-25.8h24.9V258z M747.7,258h-24.9v-25.8h24.9V258z M698,258h-24.9v-25.8H698V258z M648.3,258
		h-24.9v-25.8h24.9V258z M598.6,258h-24.9v-25.8h24.9V258z"/>
	<rect x="822.3" y="232.1" class="st1" width="25.8" height="25.8"/>
	<path class="st1" d="M848.1,506.5h-25.8v-24.9h25.8V506.5z M848.1,456.9h-25.8V432h25.8V456.9z M848.1,407.1h-25.8v-24.9h25.8
		V407.1z M848.1,357.4h-25.8v-24.9h25.8V357.4z M848.1,307.7h-25.8v-24.9h25.8V307.7z"/>
	<rect x="822.3" y="531.4" class="st1" width="25.8" height="12.9"/>
</g>
</svg>
