<?xml version="1.0" encoding="utf-8"?>
<!-- Generator: Adobe Illustrator 25.4.1, SVG Export Plug-In . SVG Version: 6.00 Build 0)  -->
<svg version="1.1" id="Layer_1" xmlns="http://www.w3.org/2000/svg" xmlns:xlink="http://www.w3.org/1999/xlink" x="0px" y="0px"
	 viewBox="0 0 1080 1080" style="enable-background:new 0 0 1080 1080;" xml:space="preserve">
<style type="text/css">
	.st0{fill:#6B2978;}
	.st1{fill:#FEE46E;}
</style>
<g>
	<path class="st0" d="M1079.9,539.9c0,298.2-241.8,540-540,540s-540-241.8-540-540s241.8-540,540-540S1079.9,241.7,1079.9,539.9"/>
</g>
<g>
	<polygon class="st1" points="611,612 607.8,612 607.8,633.2 632.1,633.2 632.1,608.8 611,608.8 	"/>
	<rect x="391.3" y="612" class="st1" width="29" height="21.2"/>
	<rect x="499.6" y="612" class="st1" width="29" height="21.2"/>
	<rect x="553.6" y="612" class="st1" width="29" height="21.2"/>
	<rect x="283.1" y="612" class="st1" width="29" height="21.2"/>
	<polygon class="st1" points="258,612 254.8,612 254.8,608.8 233.7,608.8 233.7,633.2 258,633.2 	"/>
	<rect x="233.7" y="446.5" class="st1" width="21.2" height="29"/>
	<rect x="233.7" y="500.6" class="st1" width="21.2" height="29"/>
	<rect x="233.7" y="338.3" class="st1" width="21.2" height="29"/>
	<rect x="233.7" y="284.2" class="st1" width="21.2" height="29"/>
	<rect x="233.7" y="392.4" class="st1" width="21.2" height="29"/>
	<rect x="233.7" y="554.7" class="st1" width="21.2" height="29"/>
	<polygon class="st1" points="254.8,255.9 258,255.9 258,234.7 233.7,234.7 233.7,259.1 254.8,259.1 	"/>
	<rect x="499.6" y="234.7" class="st1" width="29" height="21.2"/>
	<rect x="283.1" y="234.7" class="st1" width="29" height="21.2"/>
	<rect x="553.6" y="234.7" class="st1" width="29" height="21.2"/>
	<rect x="445.4" y="234.7" class="st1" width="29" height="21.2"/>
	<rect x="337.2" y="234.7" class="st1" width="29" height="21.2"/>
	<rect x="391.3" y="234.7" class="st1" width="29" height="21.2"/>
	<polygon class="st1" points="611,259.1 632.1,259.1 632.1,234.7 607.8,234.7 607.8,255.9 611,255.9 	"/>
	<rect x="611" y="284.2" class="st1" width="21.2" height="29"/>
	<polygon class="st1" points="632.1,446.5 611,446.5 611,450 605.7,450 605.7,471.2 611,471.2 611,475.6 632.1,475.6 632.1,471.2 
		634.6,471.2 634.6,450 632.1,450 	"/>
	<rect x="611" y="554.7" class="st1" width="21.2" height="29"/>
	<rect x="611" y="392.4" class="st1" width="21.2" height="29"/>
	<rect x="611" y="500.6" class="st1" width="21.2" height="29"/>
	<path class="st1" d="M449,738.7v4.6h21.2v-4.6h267.5V471.2h4.6V450h-4.6V342.4H632.1v-4.1H611v4.1H341.3V612h-4.1v21.2h4.1v105.5
		H449z M632.1,367.3v-3.7h84.3V450h-3.1v21.2h3.1v246.3H470.2v-3.1H449v3.1h-86.5v-84.3h3.7V612h-3.7V363.5H611v3.7H632.1z"/>
	<polygon class="st1" points="470.2,606.8 449,606.8 449,612 445.4,612 445.4,633.2 449,633.2 449,635.8 470.2,635.8 470.2,633.2 
		474.5,633.2 474.5,612 470.2,612 	"/>
	<rect x="449" y="660.6" class="st1" width="21.2" height="28.9"/>
	<rect x="449" y="553.1" class="st1" width="21.2" height="28.9"/>
	<rect x="449" y="499.2" class="st1" width="21.2" height="28.9"/>
	<polygon class="st1" points="470.2,471.2 473.3,471.2 473.3,450 448.9,450 448.9,474.4 470.2,474.4 	"/>
	<rect x="498.2" y="450" class="st1" width="28.9" height="21.2"/>
	<rect x="659.5" y="450" class="st1" width="28.9" height="21.2"/>
	<rect x="552" y="450" class="st1" width="28.9" height="21.2"/>
	<polygon class="st1" points="796,450 770.8,450 767.1,450 767.1,471.2 770.8,471.2 796,471.2 820.9,471.2 824.1,471.2 824.1,474.4 
		824.1,499.2 824.1,528.2 824.1,553 824.1,581.9 824.1,606.8 824.1,635.8 824.1,660.6 824.1,689.5 824.1,714.4 824.1,743.3 
		824.1,768.2 824.1,797 824.1,822 824.1,825.2 820.9,825.2 796,825.2 767.1,825.2 742.2,825.2 713.3,825.2 688.4,825.2 659.5,825.2 
		634.6,825.2 605.7,825.2 580.9,825.2 552,825.2 527.1,825.2 498.2,825.2 473.3,825.2 470.2,825.2 470.2,822 470.2,797 470.2,768.2 
		470.2,767.1 448.9,767.1 448.9,822 448.9,846.3 473.3,846.3 498.2,846.3 527.1,846.3 552,846.3 580.9,846.3 605.7,846.3 
		634.6,846.3 659.5,846.3 688.4,846.3 713.3,846.3 742.2,846.3 767.1,846.3 796,846.3 820.9,846.3 845.3,846.3 845.3,822 845.3,797 
		845.3,768.2 845.3,743.3 845.3,714.4 845.3,689.5 845.3,660.6 845.3,635.8 845.3,606.8 845.3,581.9 845.3,553 845.3,528.2 
		845.3,499.2 845.3,474.4 845.3,450 820.9,450 	"/>
	<polygon class="st1" points="770.8,233.7 770.8,254.8 810.2,254.8 747.6,317.4 762.6,332.4 825.2,269.8 825.2,309.2 846.3,309.2 
		846.3,233.7 	"/>
	<polygon class="st1" points="317.4,747.6 254.8,810.2 254.8,770.8 233.7,770.8 233.7,846.3 309.2,846.3 309.2,825.2 269.8,825.2 
		332.4,762.6 	"/>
</g>
</svg>
