<?xml version="1.0" encoding="utf-8"?>
<!-- Generator: Adobe Illustrator 25.4.1, SVG Export Plug-In . SVG Version: 6.00 Build 0)  -->
<svg version="1.1" id="Layer_1" xmlns="http://www.w3.org/2000/svg" xmlns:xlink="http://www.w3.org/1999/xlink" x="0px" y="0px"
	 viewBox="0 0 1080 1080" style="enable-background:new 0 0 1080 1080;" xml:space="preserve">
<style type="text/css">
	.st0{fill:#BCA6F4;}
	.st1{fill:#6A2979;}
</style>
<g>
	<path class="st0" d="M1079.9,539.9c0,298.2-241.8,540-540,540s-540-241.8-540-540s241.8-540,540-540S1079.9,241.7,1079.9,539.9"/>
</g>
<g>
	<path class="st1" d="M533.3,606.5h-17.2v-37l6.6-1.6c6-1.5,16.4-7.4,21.1-10.2l56.2-66.8v-42.2l-0.9-0.2l0.9-7v-29.8h-1.8
		c-12.5,0-22.6,10.2-22.6,22.6v42.2l-0.4,10.4l-17.2-0.4l-0.1-87.9h17.2v3.4c6.5-4.7,14.5-7.4,23.1-7.4h18.4l0.1,0.8l0.5,0.1
		l0.1,7.1l0.5,8l-0.7,0.1v86.5l-62,73.5l-1.1,0.7c-1.4,0.8-11.4,7.1-20.7,10.9L533.3,606.5L533.3,606.5z"/>
	<polygon class="st1" points="560.4,849.2 543.2,849.2 543.2,611.2 511.3,611.2 511.3,594.1 560.4,594.1 	"/>
	<path class="st1" d="M409.1,423.2h-17.2v-98c0-16,13.1-29,29.1-29c16,0,29,13,29,29v74.1h-17.2v-74.1c0-6.5-5.3-11.9-11.9-11.9
		c-6.5,0-11.9,5.3-11.9,11.9L409.1,423.2L409.1,423.2z"/>
	<path class="st1" d="M491.6,399.3h-17.2V280.8c0-6.5-5.3-11.9-11.9-11.9c-6.5,0-11.9,5.3-11.9,11.9v118.5h-17.2V280.8
		c0-16,13.1-29,29-29c16,0,29,13.1,29,29V399.3z"/>
	<path class="st1" d="M533.3,399.3h-17.2V259.8c0-6.5-5.3-11.9-11.9-11.9c-6.5,0-11.9,5.3-11.9,11.9v139.5h-17.2V259.8
		c0-16,13.1-29,29.1-29s29,13.1,29,29L533.3,399.3L533.3,399.3z"/>
	<path class="st1" d="M574.9,399.3h-17.2V295.2c0-6.5-5.3-11.9-11.9-11.9c-6.5,0-11.9,5.3-11.9,11.9v104.1h-17.2V295.2
		c0-16,13.1-29,29.1-29s29,13,29,29L574.9,399.3L574.9,399.3z"/>
	<path class="st1" d="M358.9,849.2h-17.2v-53.6c-9.4-3.7-19.4-10-20.7-10.9l-1.1-0.7l-62-73.6V656l-0.5-6.8l0.5-0.2v-25.2l-0.5-0.1
		l0.5-15.4h0.3l0.1-0.8h18.6c8.6,0,16.6,2.7,23.2,7.4v-3.4h17.2l-0.1,87.9l-17.2,0.4l-0.4-10v-42.6c0-12.5-10.2-22.6-22.6-22.6H275
		v29.9l0.5,6.7l-0.5,0.1V704l56.2,66.8c4.7,2.9,15,8.8,21.1,10.2l6.6,1.6L358.9,849.2L358.9,849.2z"/>
	<path class="st1" d="M461,849.2h-17.2v-73.4l3.4-2.6c11.9-8.8,18.6-22.4,18.6-37.1V611.7H483v124.4c0,18.7-8,36-22.1,48.1V849.2z"
		/>
	<path class="st1" d="M483,612.4h-17.2v-74.1c0-6.5-5.3-11.9-11.9-11.9c-6.5,0-11.9,5.3-11.9,11.9v74.1H425v-74.1
		c0-16,13.1-29.1,29-29.1c16,0,29.1,13.1,29.1,29.1L483,612.4L483,612.4z"/>
	<path class="st1" d="M441.4,612.4h-17.2V493.9c0-6.5-5.3-11.9-11.9-11.9c-6.5,0-11.9,5.3-11.9,11.9v118.5h-17.2V493.9
		c0-16,13.1-29,29.1-29c16,0,29.1,13.1,29.1,29v118.5H441.4z"/>
	<path class="st1" d="M399.8,612.4h-17.2V473c0-6.5-5.3-11.9-11.9-11.9c-6.5,0-11.9,5.3-11.9,11.9v139.5h-17.2V473
		c0-16,13.1-29,29.1-29c16,0,29,13.1,29,29L399.8,612.4L399.8,612.4z"/>
	<path class="st1" d="M358.2,612.4H341V508.4c0-6.5-5.3-11.9-11.9-11.9c-6.5,0-11.9,5.3-11.9,11.9v104.1h-17.2V508.4
		c0-16,13-29.1,29-29.1s29,13.1,29,29.1V612.4z"/>
	<path class="st1" d="M697,801.2h-17.2V777c-9.3-3.7-19.4-10-20.7-10.9l-1.1-0.7l-62-73.6v-54.5l-0.4-6.6l0.4-0.1v-25.4l-0.5-0.1
		l0.5-9.6v-5.6l0.4-0.1l0.1-0.8H615c8.6,0,16.6,2.8,23.2,7.4v-3.4h17.2l-0.1,87.9l-17.2,0.4l-0.4-10v-42.6
		c0-12.5-10.2-22.6-22.6-22.6h-1.8V636l1,6.7l-1,0.4v42.4l56.2,66.8c4.7,2.9,15.1,8.8,21.1,10.2l6.5,1.6L697,801.2L697,801.2z"/>
	<path class="st1" d="M799.1,801.2h-17.2v-43.9l3.4-2.6c11.9-8.8,18.6-22.4,18.6-37.1V593.2h17.2v124.4c0,18.7-8,36-22.1,48V801.2z"
		/>
	<polygon class="st1" points="822.7,849.2 805.5,849.2 805.5,805.9 632.2,805.9 632.2,849.2 615,849.2 615,788.6 822.7,788.6 	"/>
	<path class="st1" d="M821.2,593.9H804v-74.1c0-6.5-5.3-11.9-11.9-11.9c-6.5,0-11.9,5.3-11.9,11.9v74.1h-17.2v-74.1
		c0-16,13.1-29.1,29-29.1c16,0,29,13,29,29.1V593.9z"/>
	<path class="st1" d="M779.6,593.9h-17.2V475.4c0-6.5-5.3-11.9-11.9-11.9c-6.5,0-11.9,5.3-11.9,11.9v118.5h-17.2V475.4
		c0-16,13-29.1,29.1-29.1c16,0,29,13.1,29,29.1L779.6,593.9L779.6,593.9z"/>
	<path class="st1" d="M737.9,593.9h-17.2V454.4c0-6.5-5.3-11.9-11.9-11.9c-6.5,0-11.9,5.3-11.9,11.9v139.5h-17.2V454.4
		c0-16,13-29,29-29c16,0,29,13,29,29V593.9z"/>
	<path class="st1" d="M696.3,593.9h-17.2V489.8c0-6.5-5.3-11.9-11.9-11.9c-6.5,0-11.9,5.3-11.9,11.9v104.1h-17.2V489.8
		c0-16,13.1-29.1,29.1-29.1s29,13.1,29,29.1L696.3,593.9L696.3,593.9z"/>
</g>
</svg>
