<?xml version="1.0" encoding="utf-8"?>
<!-- Generator: Adobe Illustrator 25.4.1, SVG Export Plug-In . SVG Version: 6.00 Build 0)  -->
<svg version="1.1" id="Layer_1" xmlns="http://www.w3.org/2000/svg" xmlns:xlink="http://www.w3.org/1999/xlink" x="0px" y="0px"
	 viewBox="0 0 1080 1080" style="enable-background:new 0 0 1080 1080;" xml:space="preserve">
<style type="text/css">
	.st0{fill:#6B2978;}
	.st1{fill:#FFE66E;}
</style>
<g>
	<path class="st0" d="M1079.9,539.9c0,298.2-241.8,540-540,540s-540-241.8-540-540s241.8-540,540-540S1079.9,241.7,1079.9,539.9"/>
</g>
<path class="st1" d="M844.6,214.3H235.4v22.9h18.4v628.5h22.8v-81.8h11.4c4,24.5,25.3,43.3,50.9,43.3c25.7,0,47-18.8,51-43.3h103.3
	c4,24.5,25.3,43.3,50.9,43.3c26.5,0,48.3-20,51.3-45.6c3,25.6,24.8,45.6,51.3,45.6c26.5,0,48.5-20.1,51.4-45.9
	c2.9,25.8,24.8,45.9,51.3,45.9c28.5,0,51.6-23.2,51.6-51.6c0-28.5-23.2-51.6-51.6-51.6c-26.5,0-48.4,20.1-51.3,45.9
	c-2.9-25.8-24.8-45.9-51.4-45.9c-26.4,0-48.3,20-51.3,45.6c-3-25.6-24.9-45.6-51.3-45.6c-23.4,0-43.2,15.7-49.5,37.1H388.6
	c-6.3-21.4-26.1-37.1-49.6-37.1c-23.4,0-43.2,15.7-49.5,37.1h-12.8v-83h12.5c5.9,22,26,38.2,49.9,38.2c26.5,0,48.3-20,51.3-45.6
	c3,25.6,24.8,45.6,51.3,45.6c26.5,0,48.5-20.1,51.4-45.9c2.9,25.8,24.8,45.9,51.3,45.9c26.5,0,48.3-20,51.3-45.6
	c3,25.6,24.8,45.6,51.3,45.6c23.9,0,44-16.2,49.9-38.2h106.6v187.7h22.8V237.2h18.4V214.3z M573,664.6c0,15.9-12.9,28.8-28.8,28.8
	c-15.9,0-28.8-12.9-28.8-28.8c0-15.9,12.9-28.8,28.8-28.8C560.1,635.8,573,648.7,573,664.6z M544.2,613c-26.5,0-48.4,20.1-51.3,45.9
	c-2.9-25.8-24.8-45.9-51.4-45.9c-26.4,0-48.3,20-51.3,45.6c-3-25.6-24.9-45.6-51.3-45.6c-25.2,0-46.3,18.2-50.7,42.2h-11.6v-87.9
	h12.6c6,21.9,26,38.1,49.8,38.1c26.5,0,48.3-20,51.3-45.6c3,25.6,24.8,45.6,51.3,45.6c23.8,0,43.9-16.2,49.9-38.1H597
	c6,21.9,26,38.1,49.8,38.1c26.5,0,48.5-20.1,51.4-45.9c2.9,25.8,24.8,45.9,51.3,45.9c28.5,0,51.6-23.2,51.6-51.6
	c0-28.5-23.2-51.6-51.6-51.6c-26.5,0-48.4,20.1-51.3,45.9c-2.9-25.8-24.8-45.9-51.4-45.9c-25.3,0-46.4,18.3-50.8,42.3H492.4
	c-4.4-24-25.5-42.3-50.8-42.3c-26.4,0-48.3,20-51.3,45.6c-3-25.6-24.9-45.6-51.3-45.6c-25.3,0-46.4,18.3-50.8,42.3h-11.6v-87.9h12.6
	c6,21.9,26,38,49.8,38c23.8,0,43.8-16.1,49.8-38h105.6c6,21.9,26,38,49.8,38c26.5,0,48.3-20,51.3-45.6c3,25.6,24.8,45.6,51.3,45.6
	c26.5,0,48.5-20.1,51.4-45.9c2.9,25.8,24.8,45.9,51.3,45.9c28.5,0,51.6-23.2,51.6-51.6s-23.2-51.6-51.6-51.6
	c-26.5,0-48.4,20.1-51.3,45.9c-2.9-25.8-24.8-45.9-51.4-45.9c-26.4,0-48.3,20-51.3,45.6c-3-25.6-24.9-45.6-51.3-45.6
	c-25.3,0-46.4,18.3-50.8,42.4H389.8c-4.4-24.1-25.5-42.4-50.8-42.4c-25.3,0-46.4,18.3-50.8,42.4h-11.6v-87.9h12.6
	c6,21.8,26,37.9,49.7,37.9c26.5,0,48.3-20,51.3-45.6c3,25.6,24.8,45.6,51.3,45.6c26.5,0,48.5-20.1,51.4-45.9
	c2.9,25.8,24.8,45.9,51.3,45.9c23.7,0,43.8-16.1,49.8-37.9h105.7c6,21.8,26,37.9,49.7,37.9c28.5,0,51.6-23.2,51.6-51.6
	s-23.2-51.6-51.6-51.6c-25.3,0-46.5,18.4-50.8,42.5H595.1c-4.3-24.1-25.5-42.5-50.9-42.5c-26.5,0-48.4,20.1-51.3,45.9
	c-2.9-25.8-24.8-45.9-51.4-45.9c-26.4,0-48.3,20-51.3,45.6c-3-25.6-24.9-45.6-51.3-45.6c-25.3,0-46.5,18.4-50.8,42.5h-11.6v-85.6
	h526.7v418H697.6c-4.5-24-25.5-42.2-50.8-42.2c-26.4,0-48.3,20-51.3,45.6C592.6,633,570.7,613,544.2,613z M470.4,664.6
	c0,15.9-12.9,28.8-28.8,28.8s-28.8-12.9-28.8-28.8c0-15.9,12.9-28.8,28.8-28.8S470.4,648.7,470.4,664.6z M310.2,553.7
	c0-15.9,12.9-28.8,28.8-28.8s28.8,12.9,28.8,28.8c0,15.9-12.9,28.8-28.8,28.8S310.2,569.6,310.2,553.7z M310.2,442.8
	c0-15.9,12.9-28.8,28.8-28.8s28.8,12.9,28.8,28.8s-12.9,28.8-28.8,28.8S310.2,458.7,310.2,442.8z M515.4,442.8
	c0-15.9,12.9-28.8,28.8-28.8c15.9,0,28.8,12.9,28.8,28.8s-12.9,28.8-28.8,28.8C528.3,471.6,515.4,458.7,515.4,442.8z M310.2,331.9
	c0-15.9,12.9-28.8,28.8-28.8s28.8,12.9,28.8,28.8s-12.9,28.8-28.8,28.8S310.2,347.8,310.2,331.9z M367.8,664.6
	c0,15.9-12.9,28.8-28.8,28.8s-28.8-12.9-28.8-28.8c0-15.9,12.9-28.8,28.8-28.8S367.8,648.7,367.8,664.6z M675.6,664.6
	c0,15.9-12.9,28.8-28.8,28.8S618,680.5,618,664.6c0-15.9,12.9-28.8,28.8-28.8S675.6,648.7,675.6,664.6z M310.2,775.5
	c0-15.9,12.9-28.8,28.8-28.8s28.8,12.9,28.8,28.8c0,15.9-12.9,28.8-28.8,28.8S310.2,791.4,310.2,775.5z M515.4,775.5
	c0-15.9,12.9-28.8,28.8-28.8c15.9,0,28.8,12.9,28.8,28.8c0,15.9-12.9,28.8-28.8,28.8C528.3,804.3,515.4,791.4,515.4,775.5z
	 M412.8,553.7c0-15.9,12.9-28.8,28.8-28.8s28.8,12.9,28.8,28.8c0,15.9-12.9,28.8-28.8,28.8S412.8,569.6,412.8,553.7z M618,553.7
	c0-15.9,12.9-28.8,28.8-28.8s28.8,12.9,28.8,28.8c0,15.9-12.9,28.8-28.8,28.8S618,569.6,618,553.7z M720.7,553.7
	c0-15.9,12.9-28.8,28.8-28.8s28.8,12.9,28.8,28.8c0,15.9-12.9,28.8-28.8,28.8S720.7,569.6,720.7,553.7z M618,442.8
	c0-15.9,12.9-28.8,28.8-28.8s28.8,12.9,28.8,28.8s-12.9,28.8-28.8,28.8S618,458.7,618,442.8z M720.7,442.8
	c0-15.9,12.9-28.8,28.8-28.8s28.8,12.9,28.8,28.8s-12.9,28.8-28.8,28.8S720.7,458.7,720.7,442.8z M412.8,331.9
	c0-15.9,12.9-28.8,28.8-28.8s28.8,12.9,28.8,28.8s-12.9,28.8-28.8,28.8S412.8,347.8,412.8,331.9z M515.4,331.9
	c0-15.9,12.9-28.8,28.8-28.8c15.9,0,28.8,12.9,28.8,28.8s-12.9,28.8-28.8,28.8C528.3,360.7,515.4,347.8,515.4,331.9z M720.7,331.9
	c0-15.9,12.9-28.8,28.8-28.8s28.8,12.9,28.8,28.8s-12.9,28.8-28.8,28.8S720.7,347.8,720.7,331.9z M618,775.5
	c0-15.9,12.9-28.8,28.8-28.8s28.8,12.9,28.8,28.8c0,15.9-12.9,28.8-28.8,28.8S618,791.4,618,775.5z M720.7,775.5
	c0-15.9,12.9-28.8,28.8-28.8s28.8,12.9,28.8,28.8c0,15.9-12.9,28.8-28.8,28.8S720.7,791.4,720.7,775.5z"/>
</svg>
