<?xml version="1.0" encoding="utf-8"?>
<!-- Generator: Adobe Illustrator 25.4.1, SVG Export Plug-In . SVG Version: 6.00 Build 0)  -->
<svg version="1.1" id="Layer_1" xmlns="http://www.w3.org/2000/svg" xmlns:xlink="http://www.w3.org/1999/xlink" x="0px" y="0px"
	 viewBox="0 0 1080 1080" style="enable-background:new 0 0 1080 1080;" xml:space="preserve">
<style type="text/css">
	.st0{clip-path:url(#SVGID_00000165921665896490282690000006962024011800941729_);}
	.st1{fill:#FFE66E;}
</style>
<g>
	<g>
		<defs>
			<rect id="SVGID_1_" width="1080" height="809.3"/>
		</defs>
		<clipPath id="SVGID_00000027577601820426498610000010320443100774255275_">
			<use xlink:href="#SVGID_1_"  style="overflow:visible;"/>
		</clipPath>
		<g style="clip-path:url(#SVGID_00000027577601820426498610000010320443100774255275_);">
			<path class="st1" d="M-929.4,480.3c0,0,2.7-11.1,9-30.6c6.1-19.8,15.9-48.3,30.6-83.8c14.8-35.4,34.5-77.8,61.9-123.9
				c27.6-45.9,62.5-95.9,109.9-142.5c46.8-46.8,107.9-89,181-112.4c36.4-11.8,75.5-18.3,115.7-18.7c39.3-0.9,77.6-3.7,113-20.2
				c17.8-7.5,33.6-19.5,48.4-32.4c13.8-14.1,26.8-29.4,37-47.1c21.1-34.8,35.7-74.3,48.4-114.6c25.5-80.8,43.9-167.4,88.4-244.3
				c22.2-38.1,52.9-72.1,90.2-95.9c37.3-24,80.2-37.3,122.7-43.3c43-6.7,85.7-3.9,127.1-6.1c41.5-1.9,82.6-6.1,121.4-16.6
				c38.8-10.3,75.1-27.6,104-53.1c28.6-25.8,50.1-57.8,67.3-90.5c34.3-65.8,60.7-131.4,91.7-188.8c59.9-116,128-201.6,177.6-258.8
				c25.2-28.5,45.4-50.4,59.8-64.6c14.2-14.5,21.7-22.3,21.7-22.3s-7.5,7.8-21.6,22.5c-14.2,14.5-34.3,36.6-59.2,65.2
				c-49,57.7-116.1,143.7-174.7,260c-30.3,57.5-56,123.2-89.9,189.9c-17.1,33.3-38.5,66.1-67.9,93.2
				c-29.7,26.7-67.3,44.8-106.7,55.7c-39.7,11.1-81.2,15.7-123.2,18.1c-42,2.8-84.5,0.3-126,7.3c-41.5,6.3-82.4,19.6-117.6,42.9
				c-35.4,23.1-64.1,55.4-85.1,92.3c-42.3,74.5-59.9,160.4-84.8,242c-12.4,41.1-27,81.8-49,119c-10.6,18.7-24.4,35.5-39.4,51
				c-16,14.2-33.3,27.6-52.9,36.1l-14.5,6.7l-15.1,4.6c-9.9,3.6-20.2,5.5-30.7,7c-10.5,2.1-20.5,3.1-30.4,3.3l-29.7,1.5
				c-38.2,0.7-75.4,7.3-109.7,18.9C-600,29.8-657.7,70.4-702.2,115.8c-45.1,45.1-78.5,94-104.8,138.8c-26.2,45-45,86.6-59,121.2
				c-14.1,34.8-23.4,62.8-29.1,81.8c-5.8,19.3-8.2,29.2-8.2,29.2L-929.4,480.3z"/>
			<path class="st1" d="M-881.4,528.3c0,0,2.7-11.1,9-30.6c6.1-19.8,16-48.3,30.6-83.8C-827,378.4-807.4,336-780,290
				c27.6-45.9,62.5-96.1,109.9-142.7c46.8-46.8,107.9-89,181-112.2c36.4-11.8,75.7-18.3,115.7-18.9c39.3-0.9,77.6-3.7,113-20.2
				c17.8-7.5,33.6-19.5,48.4-32.2c13.8-14.1,26.8-29.4,37-47.1c21.1-34.8,35.7-74.2,48.4-114.6c25.6-80.6,44.1-167.4,88.6-244.1
				c22.3-38.1,52.9-72.1,90.2-95.9c37.3-24.1,80.2-37.3,122.7-43.5c43-6.7,85.9-3.7,127.2-6.1c41.5-1.9,82.6-6.1,121.4-16.6
				c38.8-10.3,75.1-27.6,104.2-53.1c28.6-25.8,50.1-57.8,67.3-90.5c34.3-65.8,60.8-131.4,91.7-188.7c59.9-116,128-201.7,177.6-258.8
				c25.2-28.5,45.4-50.4,59.8-64.6c14.2-14.5,21.7-22.3,21.7-22.3s-7.5,7.8-21.6,22.5c-14.2,14.5-34.3,36.6-59.2,65.2
				c-49,57.7-116.1,143.9-174.7,260c-30.3,57.5-56,123.2-89.9,189.9c-17.1,33.1-38.5,66.1-67.9,93.2
				c-29.7,26.7-67.1,44.8-106.7,55.7c-39.7,11.1-81.2,15.7-123.2,18.1c-42,2.8-84.4,0.3-125.9,7.3c-41.5,6.3-82.6,19.6-117.8,42.9
				c-35.4,23.1-64,55.4-85.1,92.3c-42.3,74.5-59.9,160.4-84.8,242c-12.4,41.1-27,81.8-49,118.8c-10.6,18.7-24.4,35.5-39.4,51
				c-16,14.4-33.4,27.7-53.1,36.1l-14.5,6.6l-15.1,4.6c-9.9,3.4-20.2,5.5-30.7,7c-10.5,2.1-20.5,3.1-30.4,3.3l-29.7,1.5
				c-38.2,0.9-75.4,7.3-109.7,18.9c-68.9,22.8-126.8,63.5-171.3,108.8c-45.1,45.1-78.5,94-104.8,138.8c-26.2,45-45.1,86.6-59,121.2
				c-13.9,34.8-23.4,62.6-29.1,81.8c-5.8,19.3-8.2,29.4-8.2,29.4L-881.4,528.3z"/>
			<path class="st1" d="M-833.3,576.4c0,0,2.7-11.1,9-30.6c6.1-19.6,16-48.3,30.7-83.8c14.8-35.5,34.5-77.9,61.9-123.9
				c27.4-45.9,62.5-96.1,109.9-142.5c46.8-46.8,108.1-89,181-112.4c36.4-11.8,75.7-18.3,115.7-18.9c39.3-0.9,77.6-3.7,113-20.2
				c17.8-7.5,33.6-19.3,48.4-32.2c13.8-14.1,26.8-29.4,37-47.1C-105.6-70-91-109.6-78.3-149.9C-53-230.6-34.5-317.3,10-394.1
				c22.2-38.1,52.8-72.1,90.2-95.9c37.3-24.1,80.2-37.3,122.7-43.5c43-6.7,85.9-3.7,127.2-6.1c41.5-1.9,82.6-6.1,121.4-16.6
				c38.8-10.3,75.1-27.6,104-53.1c28.6-25.8,50.1-57.8,67.3-90.5c34.3-65.8,60.8-131.4,91.7-188.8c59.9-116,128-201.6,177.6-258.8
				c25.2-28.3,45.4-50.2,59.8-64.6c14.2-14.5,21.7-22.3,21.7-22.3s-7.5,7.8-21.6,22.5c-14.2,14.5-34.3,36.6-59.2,65.2
				c-49,57.7-116.1,143.9-174.7,260c-30.3,57.5-56,123.2-89.9,189.9c-17.1,33.3-38.5,66.1-67.9,93.2
				c-29.7,26.7-67.3,44.8-106.9,55.7c-39.7,11.1-81.2,15.7-123.2,18.1c-42,2.7-84.4,0.3-125.9,7.2c-41.5,6.4-82.6,19.6-117.8,42.9
				c-35.4,23.1-64.1,55.4-85.1,92.5c-42.3,74.5-59.9,160.4-84.8,242c-12.4,40.9-27,81.8-49,118.8C-123-7.6-136.8,9.1-151.7,24.7
				c-16,14.2-33.4,27.6-53.1,36.1l-14.4,6.7l-15.1,4.6c-9.9,3.6-20.2,5.5-30.7,7c-10.5,2.1-20.7,3.1-30.4,3.3l-29.7,1.5
				c-38.2,0.7-75.4,7.3-109.7,18.9c-68.8,22.8-126.5,63.4-171,108.8c-45.1,45.1-78.5,94-104.8,138.8c-26.2,45-45,86.6-59,121.2
				c-13.9,34.8-23.2,62.8-29.1,81.8c-5.8,19.3-8.2,29.2-8.2,29.2L-833.3,576.4z"/>
			<path class="st1" d="M-785.4,624.3c0,0,2.7-11.1,8.8-30.6c6.1-19.8,16-48.4,30.7-83.8c14.8-35.4,34.6-77.8,61.9-123.9
				c27.4-45.9,62.5-96.1,109.9-142.7c46.8-46.8,107.9-89,181-112.4c36.4-11.8,75.5-18.3,115.5-18.7c39.3-0.7,77.6-3.7,113-20.4
				c17.8-7.5,33.6-19.3,48.4-32.2c13.8-14.1,26.8-29.4,37-47.1c21.1-34.8,35.7-74.2,48.4-114.6C-5-182.7,13.4-269.3,57.9-346.2
				c22.3-38.1,52.8-72.1,90.2-95.9c37.3-24,80.2-37.3,122.9-43.5c43-6.7,85.7-3.7,127.2-6.1c41.4-1.9,82.6-6.1,121.4-16.6
				c38.7-10.3,75.1-27.6,104-53.1c28.6-25.8,50.1-57.8,67.3-90.5c34.3-65.8,60.8-131.4,91.7-188.8c59.9-116,128-201.6,177.6-258.8
				c25.2-28.5,45.4-50.4,59.9-64.6c14.2-14.5,21.7-22.3,21.7-22.3s-7.5,7.8-21.6,22.5c-14.2,14.5-34.3,36.6-59.2,65.2
				c-49,57.7-116.1,143.9-174.7,260c-30.3,57.4-55.9,123-89.9,189.7c-17.1,33.3-38.5,66.1-67.9,93.2c-29.7,26.7-67.3,45-106.9,55.7
				C482-489,440.5-484.4,398.6-482c-42.1,2.7-84.4,0.3-125.9,7.3c-41.5,6.4-82.6,19.6-117.6,42.9c-35.4,23.1-64.1,55.6-85.3,92.5
				c-42.3,74.5-59.9,160.4-84.8,242c-12.4,41.1-27,81.8-49,118.8c-10.6,18.7-24.4,35.5-39.4,51.1c-16,14.2-33.4,27.6-52.9,36.1
				l-14.5,6.6l-15.1,4.6c-9.9,3.6-20.2,5.5-30.7,7c-10.5,2.1-20.5,3.1-30.3,3.3l-29.8,1.5c-38.2,0.7-75.4,7.3-109.7,18.9
				c-69.1,22.8-126.8,63.4-171.3,108.8c-45.1,45.1-78.5,94-104.8,138.8c-26.2,45-45.1,86.6-59.2,121.2
				c-13.9,34.8-23.2,62.6-29.1,81.8c-5.8,19.3-8.2,29.4-8.2,29.4L-785.4,624.3z"/>
			<path class="st1" d="M-737.3,672.4c0,0,2.7-11.1,8.8-30.6c6.1-19.6,16-48.3,30.7-83.8c14.7-35.4,34.5-77.8,61.9-123.9
				c27.4-45.9,62.5-96.1,109.9-142.5c46.8-46.8,107.9-89,181-112.4c36.4-11.8,75.5-18.3,115.5-18.9c39.3-0.7,77.6-3.7,113-20.2
				c18-7.5,33.6-19.5,48.4-32.2c13.8-14.1,26.8-29.4,37-47.1C-9.8,26.1,4.7-13.5,17.5-53.8c25.6-80.6,43.9-167.2,88.4-244.1
				c22.3-38.1,56.9-35.8,94.3-59.6c37.3-24,76-73.6,118.7-79.6c43-6.7,85.7-3.7,127.2-6.1c41.4-1.9,82.6-6.1,121.4-16.5
				c38.7-10.3,75.1-27.6,104-53.1c28.6-25.8,50.1-57.8,67.3-90.5c34.3-65.8,60.7-131.6,91.7-188.8c59.8-116,128-201.6,177.6-258.8
				c25.2-28.3,45.4-50.2,59.8-64.6c14.2-14.5,21.7-22.3,21.7-22.3s-7.5,7.8-21.6,22.5c-14.2,14.5-34.3,36.6-59.2,65.2
				c-49,57.7-116.1,143.7-174.7,260c-30.4,57.5-56,123-89.9,189.9c-17.1,33.1-38.5,66.1-67.9,93.1c-29.7,26.7-67.3,45-106.7,55.9
				c-39.7,11.1-81.2,15.7-123.2,18.1c-42,2.7-84.5,0.3-126,7.2c-41.5,6.3-82.4,19.6-117.6,42.9c-35.4,23.1-64.1,55.4-85.1,92.5
				c-42.3,74.5-59.9,160.2-84.8,242c-12.4,41.1-27,81.8-49,118.8c-10.6,18.7-24.4,35.5-39.4,51c-16,14.4-33.4,27.6-52.9,36.1
				l-14.5,6.7l-15.1,4.5c-9.9,3.6-20.2,5.5-30.7,7c-10.5,2.2-20.5,3.1-30.4,3.4l-29.7,1.5c-38.2,0.7-75.4,7.3-109.7,18.9
				c-68.9,22.8-126.8,63.5-171.3,108.8c-45.1,45.1-78.5,94-104.8,138.8c-26.2,45-45.1,86.6-59,121.2c-14.1,34.8-23.4,62.6-29.1,81.8
				c-5.8,19.3-8.2,29.4-8.2,29.4L-737.3,672.4z"/>
			<path class="st1" d="M-689.3,720.4c0,0,2.7-11.1,9-30.6c6.1-19.6,16-48.3,30.7-83.8s34.5-77.9,61.9-123.9
				c27.6-45.9,62.5-96.1,109.9-142.5c46.8-46.8,107.9-89,181-112.4c36.3-11.8,75.5-18.3,115.5-18.7c39.3-0.9,77.6-3.7,113-20.4
				c18-7.5,33.6-19.3,48.4-32.2c13.8-14.1,26.8-29.4,37-47.1C38.3,74,52.8,34.5,65.6-5.8C91.2-86.5,109.6-173.1,154-250
				c22.3-38.1,52.9-72.1,90.2-95.9c37.3-24,80.2-37.3,122.7-43.5c43-6.7,85.7-3.7,127.1-6.1c41.4-1.9,82.6-6.1,121.4-16.6
				c38.7-10.3,75.1-27.6,104-53.1c28.6-25.8,50.1-57.8,67.3-90.5c34.3-65.8,60.8-131.4,91.7-188.8c59.9-116,128-201.6,177.6-258.8
				c25.2-28.5,45.4-50.4,59.8-64.7c14.2-14.5,21.7-22.3,21.7-22.3s-7.5,7.8-21.6,22.5c-14.2,14.5-34.3,36.6-59.2,65.2
				c-49,57.7-116.1,143.7-174.7,260c-30.4,57.5-56,123.2-89.9,189.9c-17.1,33.3-38.5,66.1-67.9,93.2C695-433,657.4-414.8,618-403.9
				c-39.7,11.1-81.2,15.7-123.3,18.1c-42,2.7-84.4,0.3-125.9,7.3c-41.5,6.3-82.4,19.5-117.8,42.7c-35.2,23.1-64,55.4-85.1,92.5
				c-42.3,74.5-59.9,160.4-85,242c-12.4,41.1-27,81.8-49,118.8c-10.6,18.7-24.4,35.5-39.4,51c-16,14.4-33.3,27.6-52.9,36.1
				l-14.5,6.7l-15.1,4.6c-9.9,3.4-20.2,5.5-30.7,7c-10.5,2.1-20.5,3.1-30.4,3.3l-29.7,1.5c-38.2,0.9-75.4,7.3-109.7,18.9
				c-69.1,22.8-126.8,63.4-171.3,108.8c-45.1,45.1-78.5,94-104.8,138.9s-45,86.6-59,121.2c-14.1,34.8-23.4,62.6-29.1,81.8
				c-5.8,19.3-8.2,29.2-8.2,29.2L-689.3,720.4z"/>
			<path class="st1" d="M-634,760.3c0,0,2.7-11.1,9-30.6c6.1-19.8,16-48.3,30.6-83.8c14.8-35.4,34.5-77.8,61.9-123.9
				c27.6-46,62.5-96.1,109.9-142.7c46.8-46.8,107.9-89,181-112.4c36.4-11.8,75.5-18.3,115.7-18.7c39.3-0.7,77.6-3.7,113-20.2
				c17.8-7.5,33.6-19.5,48.4-32.4c13.8-14.1,26.8-29.4,37-47.1c21.1-34.8,35.7-74.3,48.4-114.6c25.6-80.6,44.1-167.4,88.6-244.1
				c22.2-38.1,52.9-72.1,90.2-95.9c37.3-24,80.2-37.3,122.7-43.3c43-6.7,85.9-3.7,127.2-6.1c41.4-1.9,82.6-6.1,121.4-16.6
				c38.8-10.3,75.1-27.6,104.2-53.1c28.6-25.8,50.1-57.8,67.3-90.5c34.3-65.8,60.8-131.4,91.7-188.8c59.9-116,128-201.6,177.6-258.8
				c25.2-28.5,45.4-50.4,59.8-64.6c14.2-14.5,21.7-22.3,21.7-22.3s-7.5,7.8-21.6,22.5c-14.2,14.5-34.3,36.6-59.2,65.2
				c-49,57.7-116.1,143.9-174.7,260c-30.3,57.5-56,123.2-89.9,189.9c-17.1,33.1-38.5,66.1-67.9,93.1c-29.7,26.8-67.3,45-106.7,55.9
				c-39.7,11.1-81.2,15.7-123.3,18.1c-42,2.8-84.5,0.3-125.9,7.3c-41.5,6.3-82.6,19.6-117.8,42.9c-35.4,23.1-64,55.4-85.1,92.3
				c-42.3,74.5-59.9,160.4-84.8,242c-12.4,40.9-27,81.8-49,118.8c-10.6,18.7-24.4,35.5-39.4,51C31.8,223,14.5,236.2-5,244.7
				l-14.5,6.7l-15.1,4.6c-9.9,3.4-20.2,5.5-30.7,7c-10.5,2.1-20.5,3.1-30.4,3.3l-29.7,1.5c-38.2,0.7-75.4,7.3-109.7,18.9
				c-69.1,22.8-126.8,63.4-171.3,108.8c-45.1,45.1-78.5,94-104.8,138.8c-26.2,45-45,86.6-59,121.2c-14.1,34.8-23.4,62.8-29.1,81.8
				c-5.8,19.3-8.2,29.4-8.2,29.4L-634,760.3z"/>
			<path class="st1" d="M-593.2,816.5c0,0,2.7-11.1,9-30.6c6.1-19.8,15.9-48.3,30.7-83.8s34.5-77.9,61.9-123.9
				c27.4-45.9,62.5-96.1,109.9-142.5c46.8-46.8,107.9-89,181-112.4c36.4-11.8,75.7-18.3,115.7-18.9c39.3-0.7,77.6-3.7,113-20.2
				c17.8-7.5,33.6-19.5,48.4-32.2c13.8-14.1,26.8-29.4,37-47.1c21.1-34.8,35.7-74.2,48.4-114.6C187.4,9.6,205.8-77,250.3-153.9
				c22.3-38.1,52.9-72.1,90.2-95.9c37.3-24,80.2-37.3,122.7-43.5c43-6.7,85.9-3.7,127.2-6.1c41.5-1.9,82.6-6.1,121.4-16.6
				c38.8-10.3,75.1-27.6,104.2-53.1c28.6-25.8,50.1-57.8,67.3-90.7c34.3-65.8,60.8-131.4,91.7-188.7c59.9-116,128-201.6,177.6-258.8
				c25.2-28.5,45.4-50.4,59.8-64.6c14.2-14.5,21.7-22.3,21.7-22.3s-7.5,7.8-21.6,22.5c-14.2,14.5-34.3,36.6-59.2,65.2
				c-49,57.7-116.1,143.9-174.7,260c-30.3,57.5-55.9,123.2-89.9,189.9c-17.2,33.1-38.7,66.1-68,93.1
				c-29.7,26.7-67.1,44.8-106.7,55.7c-39.7,11.1-81.2,15.7-123.2,18.1c-42,2.7-84.4,0.3-125.9,7.2c-41.5,6.3-82.6,19.6-117.8,42.9
				c-35.4,23.1-64,55.4-85.1,92.3c-42.3,74.6-59.9,160.4-84.8,242c-12.4,41.1-27,81.8-49,118.8c-10.6,18.7-24.4,35.5-39.4,51
				c-16,14.4-33.4,27.7-53.1,36.1l-14.5,6.6l-15.1,4.6c-9.9,3.4-20.2,5.5-30.7,7c-10.5,2.1-20.5,3.1-30.3,3.3l-29.8,1.5
				c-38.2,0.9-75.4,7.3-109.7,18.9c-69.1,22.8-126.8,63.4-171.3,108.8c-45.1,45.1-78.5,94-104.8,138.8c-26.2,45-45,86.6-59,121.2
				c-13.9,34.8-23.4,62.6-29.1,81.8c-5.8,19.3-8.2,29.4-8.2,29.4L-593.2,816.5z"/>
			<path class="st1" d="M-545.1,864.6c0,0,2.7-11.1,9-30.6c6.1-19.8,16-48.4,30.7-83.8c14.7-35.4,34.5-77.9,61.9-123.9
				c27.4-45.9,62.5-95.9,109.9-142.5c46.8-46.8,108.1-89,181-112.4c36.4-11.8,75.7-18.3,115.7-18.7c39.3-0.9,77.6-3.6,113-20.2
				c17.8-7.5,33.6-19.5,48.4-32.2c13.8-14.1,26.8-29.4,37-47.1c21.1-34.8,35.7-74.3,48.4-114.6c25.5-80.6,44.1-167.2,88.6-244.1
				c22.2-38.1,52.8-72.1,90.2-95.9c37.3-24,80.2-37.3,122.7-43.5c43-6.7,85.9-3.7,127.2-6.1c41.4-1.9,82.6-6.1,121.4-16.6
				c38.8-10.3,75.1-27.6,104-53.1c28.6-25.8,50.1-57.8,67.3-90.5c34.3-65.8,60.8-131.4,91.7-188.8c59.9-116,128-201.6,177.6-258.8
				c25.2-28.3,45.4-50.2,59.9-64.6c14.1-14.5,21.7-22.3,21.7-22.3s-7.5,7.8-21.6,22.5c-14.2,14.5-34.3,36.6-59.2,65.2
				c-49,57.7-116.1,143.9-174.7,260c-30.3,57.5-56,123.2-89.9,189.9c-17.1,33.3-38.5,66.1-67.9,93.2
				c-29.7,26.7-67.3,44.8-106.9,55.7c-39.7,11.1-81.2,15.7-123.2,18.1c-42.1,2.7-84.4,0.3-125.9,7.2c-41.5,6.4-82.6,19.6-117.8,42.9
				c-35.4,23.1-64,55.4-85.1,92.5c-42.3,74.5-59.9,160.4-84.8,242c-12.4,40.9-27,81.8-49,118.8c-10.6,18.7-24.4,35.5-39.4,51.1
				c-16,14.2-33.4,27.6-53.1,36.1l-14.4,6.6l-15.1,4.6c-9.9,3.6-20.2,5.5-30.7,7c-10.5,2.1-20.5,3.1-30.4,3.3l-29.7,1.5
				c-38.2,0.7-75.4,7.3-109.7,18.9c-69.1,22.8-126.8,63.4-171.3,108.8c-45.1,45.1-78.5,94-104.8,138.8c-26.2,45-45,86.6-59,121.2
				c-13.9,34.8-23.2,62.8-29.1,81.8c-5.8,19.3-8.2,29.4-8.2,29.4L-545.1,864.6z"/>
			<path class="st1" d="M-497.2,912.5c0,0,2.7-11.1,8.8-30.6c6.1-19.8,16-48.3,30.7-83.8c14.7-35.4,34.5-77.8,61.9-123.9
				c27.4-45.9,62.5-96.1,109.9-142.7c46.8-46.8,107.9-89,181-112.2c36.4-11.8,75.5-18.4,115.5-18.9c39.3-0.7,77.6-3.7,113-20.2
				c17.8-7.5,33.6-19.5,48.4-32.2c13.8-14.1,26.8-29.4,37-47.1c21.1-34.8,35.7-74.2,48.4-114.6C283,105.7,301.5,18.9,346-57.8
				c22.3-38.1,52.9-72.1,90.2-95.9c37.3-24,80.2-37.3,122.7-43.5c43-6.7,85.7-3.7,127.2-6.1c41.4-1.9,82.6-6.1,121.4-16.6
				c38.7-10.3,75.1-27.6,104-53.1c28.6-25.8,50.1-57.8,67.3-90.5c34.3-65.8,60.8-131.4,91.7-188.8c59.9-116,128-201.6,177.6-258.8
				c25.2-28.5,45.4-50.4,59.8-64.6c14.2-14.5,21.7-22.3,21.7-22.3s-7.5,7.8-21.6,22.5c-14.2,14.5-34.3,36.6-59.2,65.2
				c-49,57.7-116.1,143.9-174.7,260c-30.4,57.5-56,123-89.9,189.7c-17.1,33.3-38.5,66.1-67.9,93.2c-29.7,26.7-67.3,45-106.9,55.7
				c-39.7,11.1-81.2,15.7-123.2,18.1c-42,2.8-84.4,0.3-125.9,7.3c-41.5,6.3-82.4,19.6-117.6,42.9c-35.4,23.1-64,55.4-85.1,92.3
				c-42.3,74.5-59.9,160.4-84.8,242c-12.4,41.1-27,81.8-49,118.8c-10.6,18.7-24.4,35.7-39.4,51.1c-16,14.2-33.4,27.6-52.9,36.1
				l-14.5,6.6l-15.1,4.6c-9.9,3.6-20.2,5.5-30.7,7c-10.5,2.1-20.5,3.1-30.3,3.3l-29.7,1.5c-38.2,0.7-75.4,7.3-109.7,18.9
				c-69.1,22.8-126.8,63.4-171.3,108.8c-45.1,45.1-78.5,94-104.8,138.8c-26.2,45-45.1,86.6-59.2,121.2
				c-13.9,34.8-23.2,62.6-29.1,81.8c-5.8,19.3-8.2,29.4-8.2,29.4L-497.2,912.5z"/>
			<path class="st1" d="M-449.1,960.6c0,0,2.7-11.1,8.8-30.6c6.1-19.6,16-48.3,30.7-83.8c14.8-35.5,34.5-77.9,61.9-123.9
				c27.4-45.9,62.5-96.1,109.9-142.5c46.8-46.8,107.9-89,181-112.4c36.3-11.8,75.5-18.3,115.5-18.9c39.3-0.9,77.6-3.7,113-20.2
				c18-7.5,33.6-19.3,48.4-32.2c13.8-14.1,26.8-29.4,37-47.1c21.1-34.8,35.7-74.3,48.4-114.6c25.6-80.6,43.9-167.2,88.4-244.1
				c22.3-38.1,52.9-72.1,90.2-95.9c37.3-24.1,80.2-37.3,122.9-43.5c43-6.7,85.7-3.9,127.1-6.1c41.4-1.9,82.6-6.1,121.4-16.6
				c38.7-10.3,75.1-27.6,104-53.1c28.6-25.8,50.1-57.8,67.3-90.5c34.3-65.8,60.7-131.4,91.7-188.8c59.9-116,128-201.6,177.6-258.8
				c25.2-28.3,45.4-50.2,59.8-64.6c14.2-14.5,21.7-22.3,21.7-22.3s-7.5,7.8-21.6,22.5c-14.2,14.5-34.3,36.6-59.2,65.2
				c-49,57.7-116.1,143.7-174.7,260c-30.4,57.5-56,123.2-89.9,189.9c-17.1,33.1-38.5,66.1-67.9,93.1c-29.7,26.7-67.3,45-106.7,55.9
				c-39.7,11.1-81.2,15.7-123.2,18.1c-42,2.7-84.5,0.3-126,7.2c-41.5,6.4-82.4,19.6-117.6,42.9c-35.2,23.1-64,55.4-85.1,92.5
				c-42.3,74.5-59.9,160.2-84.8,242c-12.4,41.1-27,81.8-49,118.8c-10.6,18.7-24.4,35.5-39.4,51c-16,14.4-33.3,27.6-52.9,36.1
				l-14.5,6.7l-15.1,4.5c-9.9,3.6-20.4,5.5-30.7,7c-10.5,2.1-20.5,3.1-30.4,3.3l-29.7,1.5c-38.2,0.7-75.4,7.3-109.7,18.9
				c-68.9,22.8-126.8,63.4-171.3,108.8c-45.1,45.1-78.5,94-104.8,138.8c-26.2,45-45.1,86.6-59,121.2c-14.1,34.8-23.4,62.6-29.1,81.8
				c-5.8,19.2-8.2,29.2-8.2,29.2L-449.1,960.6z"/>
			<path class="st1" d="M-401.1,1008.6c0,0,2.7-11.1,8.8-30.6c6.1-19.6,15.9-48.3,30.7-83.8s34.5-77.9,61.9-123.9
				c27.6-45.9,62.5-96.1,109.9-142.5c46.8-46.8,107.9-89,181-112.4c36.3-11.8,75.5-18.3,115.5-18.7c39.3-0.7,77.6-3.7,113-20.4
				c18-7.5,33.6-19.3,48.4-32.2c13.8-14.1,26.8-29.4,37-47.1c21.1-34.8,35.7-74.3,48.4-114.6c25.6-80.6,44.1-167.2,88.4-244.1
				c22.3-38.1,52.9-72.1,90.2-95.9c37.3-24,80.2-37.3,122.7-43.5c43-6.7,85.7-3.7,127.1-6.1c41.4-1.9,82.6-6.1,121.4-16.6
				c38.8-10.3,75.1-27.6,104-53.1c28.6-25.8,50.1-57.8,67.3-90.5c34.3-65.8,60.7-131.4,91.7-188.8c59.9-116,128-201.6,177.6-258.8
				c25.2-28.5,45.4-50.4,59.8-64.7c14.2-14.5,21.7-22.3,21.7-22.3s-7.5,7.8-21.6,22.5c-14.2,14.4-34.3,36.6-59.2,65.2
				c-49,57.7-116.1,143.9-174.7,260c-30.4,57.5-56,123.2-89.9,189.9c-17.1,33.1-38.5,66.1-67.9,93.1
				c-29.7,26.7-67.1,44.8-106.7,55.7c-39.7,11.1-81.2,15.7-123.3,18.1c-42,2.7-84.4,0.3-125.9,7.3c-41.5,6.3-82.4,19.5-117.6,42.9
				c-35.4,22.9-64.1,55.4-85.1,92.3c-42.3,74.5-59.9,160.4-85,242c-12.4,40.9-27,81.8-49,118.8c-10.6,18.7-24.4,35.7-39.4,51
				c-16,14.4-33.3,27.7-52.9,36.1l-14.5,6.7l-15.1,4.6c-9.9,3.4-20.2,5.5-30.7,7c-10.5,2.1-20.5,3.1-30.4,3.3l-29.7,1.5
				c-38.2,0.7-75.4,7.3-109.7,18.9c-69.1,22.8-126.8,63.4-171.3,108.8c-45.1,45.1-78.5,94-104.8,138.9s-45,86.6-59,121.2
				c-14.1,34.8-23.4,62.8-29.1,81.8c-5.8,19.3-8.2,29.4-8.2,29.4L-401.1,1008.6z"/>
			<path class="st1" d="M-353,1056.7c0,0,2.7-11.1,9-30.6c6.1-19.8,15.9-48.3,30.6-83.8c14.8-35.4,34.5-77.8,61.9-123.9
				c27.6-46,62.5-96.1,109.9-142.5c46.8-46.8,107.9-89,181-112.4c36.4-11.8,75.5-18.3,115.7-18.7c39.3-0.9,77.6-3.7,113-20.2
				c17.8-7.5,33.6-19.5,48.4-32.4c13.8-14.1,26.8-29.4,37-47.1c21.1-34.8,35.7-74.2,48.4-114.6c25.6-80.6,44.1-167.2,88.6-244.1
				c22.2-38.1,52.9-72.1,90.2-95.9c37.3-24,80.2-37.3,122.7-43.3c43-6.7,85.9-3.7,127.2-6.1C872-61,913.2-65.2,952-75.7
				c38.7-10.3,75.1-27.6,104-53.1c28.6-25.8,50.1-57.8,67.3-90.7c34.3-65.8,60.8-131.4,91.7-188.8c59.9-116,128-201.6,177.6-258.8
				c25.2-28.5,45.4-50.4,59.8-64.6c14.2-14.5,21.7-22.3,21.7-22.3s-7.5,7.8-21.6,22.5c-14.2,14.5-34.3,36.6-59.2,65.2
				c-49,57.7-116.1,143.9-174.7,260c-30.3,57.5-55.9,123-89.9,189.9c-17.1,33.1-38.5,66.1-67.9,93.1c-29.7,26.7-67.3,45-106.7,55.9
				c-39.7,11.1-81.2,15.7-123.3,18.1c-42,2.7-84.4,0.3-125.9,7.2c-41.5,6.3-82.6,19.6-117.8,42.9c-35.4,23.1-64,55.4-85.1,92.3
				c-42.3,74.5-59.9,160.4-84.8,242c-12.4,40.9-27,81.8-49,118.8c-10.6,18.7-24.4,35.5-39.4,51c-16,14.4-33.4,27.6-52.9,36.1
				l-14.5,6.7l-15.1,4.6c-9.9,3.4-20.2,5.5-30.7,7c-10.5,2.2-20.5,3.1-30.3,3.3l-29.8,1.5c-38.2,0.7-75.4,7.3-109.7,18.9
				c-69.1,22.8-126.8,63.4-171.3,108.8c-45.1,45.1-78.5,94-104.8,138.8c-26.2,45-45,86.6-59,121.2c-14.1,34.8-23.4,62.6-29.1,81.8
				c-5.8,19.3-8.2,29.2-8.2,29.2L-353,1056.7z"/>
			<path class="st1" d="M-305,1104.7c0,0,2.7-11.1,9-30.6c6.1-19.6,16-48.3,30.7-83.8c14.8-35.5,34.5-77.9,61.9-123.9
				c27.4-45.9,62.5-96.1,109.9-142.5c46.8-46.8,108.1-89,181-112.4c36.4-11.8,75.7-18.3,115.7-18.9c39.3-0.9,77.6-3.6,113-20.2
				c17.8-7.5,33.6-19.5,48.4-32.2c13.8-14.1,26.8-29.4,37-47.1c21.1-34.8,35.7-74.2,48.4-114.6c25.6-80.6,44.1-167.2,88.6-244.1
				c22.2-38.1,52.8-72.1,90.2-95.9C666.1,14.2,708.9,1,751.5-5.1c43-6.7,85.9-3.9,127.2-6.1c41.4-1.9,82.6-6.1,121.4-16.6
				c38.8-10.3,75.1-27.6,104.2-53.1c28.6-25.8,50.1-57.8,67.3-90.5c34.3-65.8,60.8-131.4,91.7-188.8c59.9-116,128-201.6,177.6-258.8
				c25.2-28.3,45.4-50.4,59.8-64.6c14.2-14.5,21.7-22.3,21.7-22.3s-7.5,7.8-21.6,22.5c-14.2,14.5-34.3,36.6-59.2,65.2
				c-49,57.7-116.1,143.9-174.7,260c-30.3,57.5-55.9,123.2-89.9,189.9c-17.1,33.3-38.5,66.1-67.9,93.2
				c-29.7,26.7-67.3,44.8-106.9,55.7C962.5-8.4,921-3.7,879-1.3c-42,2.7-84.4,0.3-125.9,7.2c-41.5,6.3-82.6,19.6-117.8,42.9
				c-35.4,23.1-64,55.4-85.1,92.3c-42.3,74.6-59.9,160.4-84.8,242c-12.4,41.1-27,81.8-49,118.8c-10.6,18.7-24.4,35.5-39.4,51
				c-16,14.4-33.4,27.7-53.1,36.1l-14.5,6.6l-15.1,4.6c-9.9,3.6-20.2,5.5-30.7,7c-10.5,2.1-20.5,3.1-30.3,3.3l-29.8,1.5
				c-38.2,0.9-75.4,7.3-109.7,18.9C24.7,653.7-33,694.3-77.6,739.7c-45.1,45.1-78.5,94-104.8,138.8c-26.2,45-45,86.6-59,121.2
				c-13.9,34.8-23.4,62.6-29.1,81.8c-5.8,19.3-8.2,29.4-8.2,29.4L-305,1104.7z"/>
			<path class="st1" d="M-256.9,1152.8c0,0,2.7-11.1,9-30.6c6.1-19.8,16-48.3,30.7-83.8c14.7-35.4,34.5-77.8,61.9-123.9
				c27.4-46,62.5-96.1,109.9-142.7c46.8-46.8,108.1-89,181-112.4c36.4-11.8,75.7-18.3,115.7-18.7c39.3-0.9,77.6-3.7,113-20.2
				c17.8-7.5,33.6-19.5,48.4-32.2c13.8-14.1,26.8-29.4,37-47.1c21.1-34.8,35.7-74.3,48.4-114.6c25.5-80.6,43.9-167.2,88.4-244.1
				c22.3-38.1,52.8-72.1,90.2-95.9c37.3-24,80.2-37.3,122.7-43.5c43-6.7,85.9-3.7,127.2-6.1c41.4-1.9,82.6-6.1,121.4-16.6
				c38.7-10.3,75.1-27.6,104-53.1c28.6-25.8,50.1-57.8,67.3-90.5c34.3-65.8,60.8-131.4,91.7-188.8c59.9-116,128-201.6,177.6-258.8
				c25.2-28.3,45.4-50.2,59.9-64.6c14.2-14.5,21.7-22.3,21.7-22.3s-7.5,7.8-21.6,22.5c-14.2,14.5-34.3,36.6-59.2,65.2
				c-49,57.7-116.1,143.9-174.7,260c-30.3,57.5-56,123.2-89.9,189.9c-17.1,33.3-38.5,66.1-67.9,93.2
				c-29.7,26.7-67.3,44.8-106.9,55.7C1010.5,39.7,969,44.4,927,46.8c-42.1,2.8-84.4,0.3-125.9,7.3c-41.5,6.3-82.6,19.6-117.8,42.7
				c-35.4,23.1-64,55.4-85.1,92.5c-42.3,74.5-59.9,160.4-84.8,242c-12.4,40.9-27,81.8-49,118.8c-10.6,18.7-24.4,35.5-39.4,51.1
				c-16,14.2-33.4,27.6-53.1,36.1l-14.4,6.6l-15.1,4.6c-9.9,3.6-20.2,5.5-30.7,7c-10.5,2.1-20.5,3.1-30.4,3.3l-29.7,1.5
				c-38.2,0.7-75.4,7.3-109.7,18.9C72.8,702.1,15.1,742.7-29.4,788.1c-45.1,45.1-78.5,94-104.8,138.8c-26.2,45-45.1,86.6-59.2,121.2
				c-13.9,34.8-23.2,62.8-29.1,81.8c-5.8,19.3-8.2,29.2-8.2,29.2L-256.9,1152.8z"/>
			<path class="st1" d="M-209,1200.7c0,0,2.7-11.1,8.8-30.6c6.1-19.8,16-48.3,30.7-83.8c14.7-35.5,34.5-77.9,61.9-123.9
				C-80.1,916.6-45,866.4,2.3,819.8c46.8-46.8,107.9-89,181-112.2c36.4-11.8,75.5-18.4,115.5-18.9c39.3-0.9,77.6-3.7,113-20.2
				c18-7.5,33.6-19.5,48.4-32.2c13.8-14.1,26.8-29.4,37-47.1c21.1-34.8,35.8-74.2,48.4-114.6c25.5-80.6,43.9-167.4,88.4-244.1
				c22.3-38.1,52.9-72.1,90.2-95.9c37.3-24,80.2-37.3,122.7-43.5c43-6.7,85.7-3.7,127.2-6.1c41.4-1.9,82.6-6.1,121.4-16.6
				c38.7-10.3,75.1-27.6,104-53.1c28.6-25.8,50.1-57.8,67.3-90.5c34.3-65.8,60.8-131.4,91.7-188.8c59.9-116,128-201.6,177.6-258.8
				c25.2-28.5,45.4-50.4,59.8-64.6c14.2-14.5,21.7-22.3,21.7-22.3s-7.5,7.8-21.6,22.5c-14.2,14.5-34.3,36.6-59.2,65.2
				c-49,57.7-116.1,143.9-174.7,260c-30.4,57.5-56,123.2-89.9,189.7c-17.1,33.3-38.5,66.1-67.9,93.2c-29.7,26.7-67.3,45-106.7,55.7
				c-39.7,11.1-81.2,15.7-123.3,18.1c-42,2.8-84.4,0.3-125.9,7.3c-41.5,6.4-82.4,19.6-117.6,42.9c-35.4,23.1-64,55.4-85.1,92.3
				c-42.3,74.5-59.9,160.4-84.8,242c-12.4,41.1-27,81.8-49,118.8c-10.6,18.7-24.4,35.5-39.4,51c-16,14.2-33.4,27.6-52.9,36.1
				l-14.5,6.6l-15.1,4.6c-9.9,3.6-20.4,5.5-30.7,7c-10.5,2.1-20.5,3.1-30.4,3.3l-29.7,1.5c-38.2,0.7-75.4,7.3-109.7,18.9
				c-69.1,22.8-126.8,63.4-171.3,108.8c-45.1,45.1-78.5,94-104.8,138.8c-26.2,45-45.1,86.6-59.2,121.2
				c-13.9,34.8-23.2,62.6-29.1,81.8c-5.8,19.3-8.2,29.4-8.2,29.4L-209,1200.7z"/>
			<path class="st1" d="M-160.9,1248.8c0,0,2.7-11.1,8.8-30.6c6.1-19.6,16-48.3,30.7-83.8c14.8-35.5,34.5-77.9,61.9-123.9
				C-32,964.7,3.1,914.5,50.4,868c46.8-46.8,107.9-89,181-112.4c36.3-11.8,75.5-18.3,115.5-18.9c39.3-0.7,77.6-3.7,113-20.2
				c18-7.5,33.6-19.3,48.4-32.2c13.8-14.1,26.8-29.4,37-47.1c21.1-34.8,35.7-74.3,48.4-114.6c25.6-80.6,43.9-167.2,88.4-244.1
				c22.3-38.1,52.9-72.1,90.2-95.9c37.3-24.1,80.2-37.3,122.9-43.5c43-6.7,85.7-3.7,127.1-6.1c41.4-1.9,82.6-6.1,121.4-16.6
				c38.7-10.3,75.1-27.6,104-53.1c28.6-25.8,50.1-57.8,67.3-90.5c34.3-65.8,60.8-131.4,91.7-188.8c59.9-116,128-201.6,177.6-258.8
				c25.2-28.3,45.4-50.2,59.8-64.6c14.2-14.5,21.7-22.3,21.7-22.3s-7.5,7.8-21.6,22.5c-14.2,14.5-34.2,36.6-59.2,65.2
				c-49,57.7-116.1,143.9-174.7,260c-30.4,57.5-56,123.2-89.9,189.9c-17.1,33.1-38.5,66.1-67.9,93.2
				c-29.7,26.7-67.3,44.8-106.7,55.7c-39.7,11.1-81.2,15.7-123.2,18.1c-42.1,2.7-84.5,0.3-126,7.2c-41.4,6.4-82.4,19.6-117.6,42.9
				c-35.4,23.1-64.1,55.4-85.1,92.5c-42.3,74.5-59.9,160.4-85,242c-12.4,41.1-27,81.8-49,118.8c-10.6,18.7-24.4,35.5-39.4,51
				c-16,14.4-33.3,27.7-52.9,36.1l-14.5,6.7l-15.1,4.5c-9.9,3.6-20.2,5.5-30.7,7c-10.5,2.1-20.7,3.1-30.4,3.3l-29.7,1.5
				c-38.2,0.7-75.4,7.3-109.7,18.9C168.5,798,110.7,838.6,66.2,884.1c-45.1,45.1-78.5,94-104.8,138.8c-26.2,45-45.1,86.6-59,121.2
				c-14.1,34.8-23.4,62.8-29.1,81.8c-5.8,19.3-8.2,29.2-8.2,29.2L-160.9,1248.8z"/>
			<path class="st1" d="M-112.9,1296.8c0,0,2.7-11.1,8.8-30.7c6.1-19.6,15.9-48.3,30.7-83.8s34.5-77.9,61.9-123.9
				c27.6-45.9,62.5-96.1,109.9-142.5c46.8-46.8,107.9-89,181-112.4c36.4-11.8,75.5-18.3,115.5-18.7c39.3-0.9,77.6-3.7,113-20.4
				c17.8-7.5,33.6-19.3,48.4-32.2c13.8-14.1,26.8-29.4,37-47.1c21.1-34.8,35.7-74.3,48.4-114.6c25.6-80.6,44.1-167.2,88.4-244.1
				c22.3-38.1,52.9-72.1,90.2-95.9c37.3-24,80.2-37.3,122.7-43.5c43-6.7,85.7-3.7,127.1-6.1c41.5-1.9,82.6-6.1,121.4-16.6
				c38.8-10.3,75.1-27.6,104-53.1c28.6-25.9,50.1-57.8,67.3-90.7c34.3-65.8,60.7-131.4,91.7-188.8c59.9-116,128-201.6,177.6-258.8
				c25.2-28.5,45.4-50.4,59.8-64.7c14.2-14.5,21.7-22.3,21.7-22.3s-7.5,7.8-21.6,22.5c-14.2,14.5-34.3,36.6-59.2,65.2
				c-49,57.7-116.1,143.9-174.7,260c-30.3,57.4-56,123-89.9,189.9c-17.1,33.1-38.5,66.1-67.9,93.1c-29.7,26.7-67.1,45-106.7,55.7
				c-39.7,11.1-81.2,15.7-123.2,18.1c-42.1,2.7-84.5,0.3-126,7.3c-41.5,6.3-82.4,19.5-117.6,42.9c-35.4,22.9-64.1,55.4-85.1,92.3
				c-42.3,74.5-59.9,160.4-85,242c-12.4,40.9-27,81.8-49,118.8c-10.6,18.7-24.4,35.7-39.4,51.1c-16,14.2-33.3,27.6-52.9,36.1
				l-14.5,6.6l-15.1,4.6c-9.9,3.6-20.2,5.5-30.7,7c-10.5,2.2-20.7,3.1-30.4,3.3l-29.7,1.5c-38.2,0.7-75.4,7.3-109.7,18.9
				c-69.1,22.8-126.8,63.4-171.3,108.8c-45,45.1-78.5,94-104.8,138.8c-26.2,45-45,86.6-59,121.2c-14.1,34.8-23.4,62.6-29.1,81.8
				c-5.8,19.3-8.2,29.4-8.2,29.4L-112.9,1296.8z"/>
			<path class="st1" d="M-64.8,1344.9c0,0,2.7-11.1,9-30.6c6.1-19.6,15.9-48.3,30.6-83.8c14.8-35.4,34.5-77.8,61.9-123.9
				c27.6-46,62.5-96.1,109.9-142.5c46.8-46.8,107.9-89,181-112.4c36.4-11.8,75.7-18.3,115.5-18.7c39.3-0.7,77.6-3.7,113-20.2
				c17.8-7.5,33.6-19.5,48.4-32.4c13.8-14.1,26.8-29.4,37-47.1c21.1-34.8,35.7-74.2,48.4-114.6c25.6-80.6,44.1-167.2,88.6-244.1
				c22.2-38.1,52.9-72.1,90.2-95.9c37.3-24,80.2-37.3,122.7-43.3c43-6.7,85.9-3.7,127.2-6.1c41.4-1.9,82.6-6.1,121.4-16.6
				c38.7-10.3,75.1-27.6,104-53.1c28.6-25.8,50.1-57.8,67.3-90.5c34.3-65.8,60.8-131.6,91.7-188.8c59.9-116,128-201.6,177.6-258.8
				c25.2-28.3,45.4-50.4,59.8-64.6c14.2-14.5,21.7-22.3,21.7-22.3s-7.5,7.8-21.6,22.5c-14.2,14.5-34.3,36.6-59.2,65.2
				c-49,57.7-116.1,143.9-174.7,260c-30.3,57.5-55.9,123-89.9,189.9c-17.1,33.1-38.5,66.1-67.9,93.1c-29.7,26.7-67.1,45-106.7,55.9
				c-39.7,11.1-81.2,15.7-123.2,18.1c-42,2.7-84.4,0.3-125.9,7.2c-41.5,6.3-82.6,19.6-117.8,42.9c-35.4,23.1-64,55.4-85.1,92.3
				c-42.3,74.5-59.9,160.4-84.8,242c-12.4,41.1-27,81.8-49,118.8c-10.6,18.7-24.4,35.5-39.4,51c-16,14.4-33.4,27.6-52.9,36.1
				l-14.5,6.6l-15.1,4.6c-9.9,3.4-20.2,5.5-30.7,7c-10.5,2.2-20.5,3.1-30.3,3.4l-29.8,1.5c-38.2,0.7-75.4,7.3-109.7,18.9
				c-69.1,22.8-126.8,63.4-171.3,108.7c-45.1,45.1-78.5,94-104.8,138.8c-26.2,45-45,86.6-59,121.2c-13.9,34.8-23.4,62.6-29.1,81.8
				c-5.8,19.3-8.2,29.4-8.2,29.4L-64.8,1344.9z"/>
			<path class="st1" d="M-16.9,1392.8c0,0,2.7-11.1,9-30.6c6.1-19.8,16-48.3,30.7-83.8c14.7-35.5,34.5-77.9,61.9-123.9
				c27.4-45.9,62.5-96.1,109.9-142.5c46.8-46.8,108.1-89,181-112.4c36.4-11.8,75.7-18.3,115.7-18.7c39.3-0.9,77.6-3.7,113-20.4
				c17.8-7.5,33.6-19.3,48.4-32.2c13.8-14.1,26.8-29.4,37-47.1c21.1-34.8,35.7-74.3,48.4-114.6c25.5-80.6,44.1-167.2,88.6-244.1
				c22.2-38.1,52.8-72.1,90.2-95.9c37.3-24.1,80.2-37.3,122.7-43.5c43-6.7,85.9-3.7,127.2-6.1c41.4-1.9,82.6-6.1,121.4-16.5
				c38.8-10.3,75.1-27.6,104-53.1c28.6-25.8,50.1-57.8,67.3-90.5c34.3-65.8,60.8-131.4,91.7-188.8c59.9-116,128-201.6,177.6-258.8
				c25.2-28.3,45.4-50.2,59.8-64.6c14.2-14.5,21.7-22.3,21.7-22.3s-7.5,7.8-21.6,22.5c-14.2,14.5-34.3,36.6-59.2,65.2
				c-49,57.7-116.1,143.7-174.7,260c-30.3,57.5-56,123.2-89.9,189.9c-17.1,33.3-38.5,66.1-67.9,93.2
				c-29.7,26.7-67.3,44.8-106.9,55.7c-39.7,11.1-81.2,15.7-123.2,18.1c-42.1,2.7-84.4,0.3-125.9,7.3c-41.5,6.3-82.6,19.5-117.8,42.7
				c-35.4,23.1-64,55.4-85.1,92.5c-42.3,74.5-59.9,160.4-84.8,242c-12.4,41.1-27,81.8-49,118.8c-10.6,18.7-24.4,35.5-39.4,51
				c-16,14.4-33.4,27.7-53.1,36.1l-14.5,6.6l-15.1,4.6c-9.9,3.6-20.2,5.5-30.7,7c-10.5,2.1-20.5,3.1-30.3,3.3l-29.7,1.5
				c-38.2,0.9-75.4,7.3-109.7,18.9c-69.1,22.8-126.8,63.4-171.3,108.8c-45.1,45.1-78.5,94-104.8,138.8c-26.2,45-45,86.6-59,121.2
				c-13.9,34.8-23.4,62.6-29.1,81.8c-5.8,19.3-8.2,29.4-8.2,29.4L-16.9,1392.8z"/>
			<path class="st1" d="M31.2,1440.9c0,0,2.7-11.1,9-30.6c6.1-19.8,16-48.3,30.7-83.8c14.7-35.4,34.5-77.8,61.9-123.9
				c27.4-46,62.5-96.1,109.9-142.7c46.8-46.8,107.9-89,181-112.4c36.4-11.8,75.5-18.3,115.5-18.7c39.3-0.7,77.6-3.7,113-20.2
				c18-7.5,33.6-19.5,48.4-32.2c13.8-14.1,26.8-29.4,37-47.1c21.1-34.8,35.7-74.3,48.4-114.6c25.5-80.6,43.9-167.2,88.4-244.1
				c22.3-38.1,52.8-72.1,90.2-95.9c37.3-24,80.2-37.3,122.9-43.3c43-6.7,85.7-3.7,127.2-6.1c41.4-1.9,82.6-6.1,121.4-16.6
				c38.7-10.3,75.1-27.6,104-53.1c28.6-25.8,50.1-57.8,67.3-90.5c34.3-65.8,60.8-131.4,91.7-188.8c59.9-116,128-201.6,177.6-258.8
				c25.2-28.3,45.4-50.2,59.8-64.6c14.2-14.5,21.7-22.3,21.7-22.3s-7.5,7.8-21.6,22.5c-14.2,14.5-34.3,36.6-59.2,65.2
				c-49,57.7-116.1,143.9-174.7,260C1572.6,35.7,1547,101.3,1513,168c-17.1,33.3-38.5,66.1-67.9,93.2
				c-29.7,26.7-67.3,44.8-106.9,55.7c-39.7,11.1-81.2,15.7-123.2,18.1c-42.1,2.8-84.4,0.3-125.9,7.3c-41.5,6.3-82.6,19.6-117.8,42.7
				c-35.2,23.1-64,55.4-85.1,92.5c-42.3,74.5-59.9,160.4-84.8,242c-12.4,40.9-27,81.8-49,118.8C741.8,857.2,728,874,713,889.6
				c-16,14.2-33.4,27.6-53.1,36.1l-14.4,6.6l-15.1,4.6c-9.9,3.6-20.2,5.5-30.7,7c-10.5,2.1-20.5,3.1-30.3,3.3l-29.8,1.5
				c-38.2,0.7-75.4,7.3-109.7,18.9c-69.1,22.8-126.8,63.4-171.3,108.8c-45.1,45.1-78.5,94-104.8,138.8
				c-26.2,45-45.1,86.6-59.2,121.2c-13.9,34.8-23.2,62.8-29.1,81.8c-5.8,19.3-8.2,29.4-8.2,29.4L31.2,1440.9z"/>
			<path class="st1" d="M79.2,1488.9c0,0,2.7-11.1,8.8-30.6c6.1-19.8,16-48.3,30.7-83.8c14.7-35.5,34.5-77.9,61.9-123.9
				c27.4-45.9,62.5-96.1,109.9-142.7c46.8-46.8,107.9-89,181-112.2c36.3-11.8,75.5-18.3,115.5-18.9c39.3-0.7,77.6-3.7,113-20.2
				c18-7.5,33.6-19.5,48.4-32.2c13.8-14.1,26.8-29.4,37-47.1c21.1-34.8,35.8-74.2,48.4-114.6c25.5-80.6,43.9-167.4,88.4-244.1
				c22.3-38.1,52.9-72.1,90.2-95.9c37.3-24.1,80.2-37.3,122.7-43.5c43-6.7,85.7-3.7,127.2-6.1c41.4-1.9,82.6-6.1,121.4-16.6
				c38.7-10.3,75.1-27.6,104-53.1c28.6-25.8,50.1-57.8,67.3-90.5c34.3-65.8,60.8-131.4,91.7-188.8c59.9-116,128-201.6,177.6-258.8
				c25.2-28.5,45.4-50.4,59.8-64.6c14.2-14.5,21.7-22.3,21.7-22.3s-7.5,7.8-21.6,22.5c-14.2,14.5-34.2,36.6-59.2,65.2
				c-49,57.7-116.1,143.9-174.7,260c-30.4,57.5-56,123.2-89.9,189.7c-17.1,33.3-38.5,66.2-67.9,93.2
				c-29.7,26.7-67.3,44.8-106.7,55.7c-39.7,11.1-81.2,15.7-123.3,18.1c-42,2.8-84.4,0.3-125.9,7.3c-41.5,6.4-82.4,19.6-117.6,42.9
				c-35.4,23.1-64,55.4-85.1,92.3c-42.3,74.5-59.9,160.4-84.8,242c-12.4,41.1-27,81.8-49,118.8c-10.6,18.7-24.4,35.5-39.4,51
				c-16,14.4-33.4,27.7-52.9,36.1l-14.5,6.6l-15.1,4.6c-9.9,3.6-20.2,5.5-30.7,7c-10.5,2.1-20.5,3.1-30.4,3.3l-29.7,1.5
				c-38.2,0.7-75.4,7.3-109.7,18.9c-68.9,22.8-126.8,63.4-171.3,108.8c-45.1,45.1-78.5,94-104.8,138.8c-26.2,45-45.1,86.6-59,121.2
				c-14.1,34.8-23.4,62.8-29.1,81.8c-5.8,19.3-8.2,29.4-8.2,29.4L79.2,1488.9z"/>
			<path class="st1" d="M127.3,1537c0,0,2.7-11.1,8.8-30.7c6.1-19.6,16-48.3,30.7-83.8c14.8-35.5,34.5-77.9,61.9-123.9
				c27.4-45.9,62.5-96.1,109.9-142.5c46.8-46.8,107.9-89,181-112.4c36.3-11.8,75.5-18.3,115.5-18.7c39.3-0.7,77.6-3.7,113-20.2
				c18-7.5,33.6-19.5,48.4-32.2c13.8-14.1,26.8-29.4,37-47.1c21.1-34.8,35.7-74.3,48.4-114.6c25.6-80.6,44.1-167.2,88.4-244.1
				c22.3-38.1,52.9-72.1,90.2-95.9c37.3-24,80.2-37.3,122.7-43.5c43-6.7,85.7-3.7,127.1-6.1c41.4-1.9,82.6-6.1,121.4-16.6
				c38.7-10.3,75.1-27.6,104-53.1c28.6-25.8,50.1-57.8,67.3-90.5c34.3-65.8,60.7-131.4,91.7-188.8c59.9-116,128-201.6,177.6-258.8
				c25.2-28.3,45.4-50.2,59.8-64.6c14.2-14.5,21.7-22.3,21.7-22.3s-7.5,7.8-21.6,22.5c-14.2,14.5-34.3,36.6-59.2,65.2
				c-49,57.7-116.1,143.9-174.7,260c-30.4,57.4-56,123-89.9,189.7c-17.1,33.3-38.5,66.1-67.9,93.2c-29.7,26.7-67.3,44.8-106.7,55.7
				c-39.7,11.1-81.2,15.7-123.2,18.1c-42,2.7-84.4,0.3-125.9,7.3c-41.5,6.4-82.4,19.6-117.6,42.9c-35.4,23.1-64.1,55.4-85.1,92.5
				c-42.3,74.5-59.9,160.4-85,242c-12.4,40.9-27,81.8-49,118.8c-10.6,18.7-24.4,35.5-39.4,51.1c-16,14.2-33.3,27.6-52.9,36.1
				l-14.5,6.6l-15.1,4.6c-9.9,3.6-20.2,5.5-30.7,7c-10.5,2.1-20.7,3.1-30.4,3.3l-29.7,1.5c-38.2,0.7-75.4,7.3-109.7,18.9
				c-69.1,22.8-126.8,63.4-171.3,108.8c-45.1,45.1-78.5,94-104.8,138.8c-26.2,45-45.1,86.6-59,121.2c-13.9,34.8-23.4,62.8-29.1,81.8
				c-5.8,19.3-8.2,29.4-8.2,29.4L127.3,1537z"/>
			<path class="st1" d="M175.3,1585c0,0,2.7-11.1,8.8-30.7c6.1-19.6,16-48.3,30.7-83.8c14.8-35.5,34.5-77.9,61.9-123.9
				c27.6-45.9,62.5-96.1,109.9-142.5c46.8-46.8,107.9-89,181-112.4c36.4-11.8,75.5-18.3,115.5-18.7c39.3-0.7,77.6-3.7,113-20.4
				c17.8-7.5,33.6-19.5,48.4-32.2c13.8-14.1,26.8-29.4,37-47.1c21.1-34.8,35.7-74.2,48.4-114.6c25.6-80.6,44.1-167.2,88.6-244.1
				c22.2-38.1,52.9-72.1,90.2-95.9c37.3-24,80.2-37.3,122.7-43.5c43-6.7,85.7-3.7,127.2-6.1c41.4-1.9,82.6-6.1,121.4-16.6
				c38.8-10.3,75.1-27.6,104.2-53.1c28.6-25.8,50.1-57.8,67.3-90.7c34.3-65.8,60.7-131.4,91.7-188.8c59.9-116,128-201.6,177.6-258.8
				c25.2-28.5,45.4-50.4,59.8-64.6c14.2-14.5,21.7-22.3,21.7-22.3s-7.5,7.8-21.6,22.5c-14.2,14.5-34.3,36.6-59.2,65.2
				c-49,57.7-116.1,143.9-174.7,260c-30.3,57.4-56,123-89.9,189.9c-17.1,33.1-38.5,66.1-67.9,93.1c-29.7,26.7-67.3,45-106.7,55.7
				c-39.7,11.1-81.2,15.7-123.3,18.1c-42,2.7-84.5,0.3-126,7.3c-41.5,6.3-82.4,19.6-117.6,42.9c-35.4,22.9-64.1,55.4-85.1,92.3
				c-42.3,74.5-59.9,160.4-84.8,242c-12.4,41.1-27,81.8-49,118.8c-10.6,18.7-24.4,35.7-39.4,51.1c-16,14.2-33.4,27.6-52.9,36.1
				l-14.5,6.6l-15.1,4.6c-9.9,3.6-20.2,5.5-30.7,7c-10.5,2.2-20.5,3.1-30.4,3.3l-29.7,1.5c-38.2,0.7-75.4,7.3-109.7,18.9
				c-69.1,22.8-126.8,63.4-171.3,108.8c-45.1,45.1-78.5,94-104.8,138.8c-26.2,45-45,86.6-59,121.2c-14.1,34.8-23.4,62.6-29.1,81.8
				c-5.8,19.3-8.2,29.4-8.2,29.4L175.3,1585z"/>
			<path class="st1" d="M223.4,1633.1c0,0,2.7-11.1,9-30.6c6.1-19.6,15.9-48.3,30.6-83.8c14.8-35.4,34.5-77.8,61.9-123.9
				c27.6-45.9,62.5-96.1,109.9-142.5c46.8-46.8,107.9-89,181-112.4c36.4-11.8,75.7-18.3,115.5-18.7c39.3-0.9,77.6-3.7,113-20.4
				c17.8-7.5,33.6-19.5,48.4-32.2c13.8-14.1,26.8-29.4,37-47.1c21.1-34.8,35.7-74.3,48.4-114.6c25.6-80.6,44.1-167.2,88.6-244.1
				c22.3-38.1,52.9-72.1,90.2-95.9c37.3-24,80.2-37.3,122.7-43.3c43-6.7,85.9-3.7,127.2-6.1c41.4-1.9,82.6-6.1,121.4-16.6
				c38.8-10.3,75.1-27.6,104-53.1c28.6-25.8,50.1-57.8,67.3-90.5c34.3-65.8,60.8-131.6,91.7-188.8c59.9-116,128-201.6,177.6-258.8
				c25.2-28.3,45.4-50.4,59.8-64.6c14.2-14.5,21.7-22.3,21.7-22.3s-7.5,7.8-21.6,22.5c-14.2,14.5-34.3,36.6-59.2,65.2
				c-49,57.7-116.1,143.7-174.7,260c-30.3,57.5-55.9,123-89.9,189.9c-17.1,33.3-38.5,66.1-67.9,93.1c-29.7,26.7-67.1,45-106.7,55.9
				c-39.7,11.1-81.2,15.7-123.2,18.1c-42.1,2.7-84.4,0.3-125.9,7.2c-41.5,6.3-82.6,19.6-117.8,42.9c-35.4,23.1-64,55.4-85.1,92.5
				c-42.3,74.5-59.9,160.2-84.8,242c-12.4,41.1-27,81.8-49,118.8c-10.6,18.7-24.4,35.5-39.4,51c-16,14.4-33.4,27.6-53.1,36.1
				l-14.5,6.6l-15.1,4.6c-9.9,3.4-20.2,5.5-30.7,7c-10.5,2.2-20.5,3.1-30.3,3.4l-29.8,1.5c-38.2,0.7-75.4,7.3-109.7,18.9
				c-69.1,22.8-126.8,63.4-171.3,108.7c-45.1,45.1-78.5,94-104.8,138.8c-26.2,45-45,86.6-59,121.2c-13.9,34.8-23.4,62.6-29.1,81.8
				c-5.8,19.3-8.2,29.4-8.2,29.4L223.4,1633.1z"/>
			<path class="st1" d="M271.3,1681c0,0,2.7-11.1,9-30.6c6.1-19.8,16-48.3,30.7-83.8c14.8-35.5,34.5-77.9,61.9-123.9
				c27.4-45.9,62.5-96.1,109.9-142.5c46.8-46.8,108.1-89,181-112.4c36.4-11.8,75.7-18.3,115.7-18.7c39.3-0.9,77.6-3.7,113-20.4
				c17.8-7.5,33.6-19.3,48.4-32.2c13.8-14.1,26.8-29.4,37-47.1c21.1-34.8,35.7-74.3,48.4-114.6c25.5-80.6,44.1-167.2,88.6-244.1
				c22.2-38.1,52.8-72.1,90.2-95.9c37.3-24,80.2-37.3,122.7-43.5c43-6.7,85.9-3.7,127.2-6.1c41.4-1.9,82.6-6.1,121.4-16.6
				c38.7-10.3,75.1-27.6,104-53.1c28.6-25.8,50.1-57.8,67.3-90.5c34.3-65.8,60.8-131.4,91.7-188.8c59.9-116,128-201.6,177.6-258.8
				c25.2-28.3,45.4-50.2,59.9-64.6c14.2-14.5,21.7-22.3,21.7-22.3s-7.5,7.8-21.6,22.5C2063-92.6,2042.9-70.6,2018-42
				c-49,57.7-116.1,143.7-174.7,260c-30.3,57.5-55.9,123.2-89.9,189.9c-17.1,33.3-38.5,66.1-67.9,93.2
				c-29.7,26.7-67.3,44.8-106.9,55.7c-39.7,11.1-81.2,15.7-123.2,18.1c-42.1,2.7-84.4,0.3-125.9,7.3c-41.5,6.3-82.6,19.5-117.8,42.7
				c-35.4,23.1-64,55.4-85.1,92.5c-42.3,74.5-59.9,160.4-84.8,242c-12.4,41.1-27,81.8-49,118.8c-10.6,18.7-24.4,35.5-39.4,51
				c-16,14.4-33.4,27.7-53.1,36.1l-14.4,6.7l-15.1,4.6c-9.9,3.6-20.2,5.5-30.7,7c-10.5,2.1-20.5,3.1-30.3,3.3l-29.8,1.5
				c-38.2,0.9-75.4,7.3-109.7,18.9c-69.1,22.8-126.8,63.4-171.3,108.8c-45.1,45.1-78.5,94-104.8,138.8c-26.2,45-45,86.6-59,121.2
				c-13.9,34.8-23.2,62.6-29.1,81.8c-5.8,19.2-8.2,29.2-8.2,29.2L271.3,1681z"/>
		</g>
	</g>
</g>
</svg>
