<svg width="198" height="197" viewBox="0 0 198 197" fill="none" xmlns="http://www.w3.org/2000/svg">
<g clip-path="url(#clip0_1140_876)">
<mask id="mask0_1140_876" style="mask-type:luminance" maskUnits="userSpaceOnUse" x="0" y="0" width="198" height="197">
<path d="M197.075 0.474121H0.787109V196.762H197.075V0.474121Z" fill="white"/>
</mask>
<g mask="url(#mask0_1140_876)">
<path d="M253.417 47.1107C253.144 46.202 252.872 45.2751 252.599 44.3663C250.872 38.4959 249.255 32.9344 244.711 28.3907C240.167 23.847 234.606 22.2113 228.735 20.5028C222.556 18.7035 216.177 16.8315 210.797 11.4518C205.417 6.07204 203.545 -0.307316 201.746 -6.48674C200.019 -12.3572 198.402 -17.9005 193.858 -22.4624C189.314 -27.0061 183.753 -28.6418 177.882 -30.3502C176.955 -30.6229 176.047 -30.8955 175.138 -31.1681L176.483 -35.5664C177.373 -35.2938 178.282 -35.0212 179.173 -34.7667C185.352 -32.9674 191.732 -31.0954 197.111 -25.7157C202.491 -20.3359 204.363 -13.9566 206.162 -7.77715C207.889 -1.9067 209.506 3.63662 214.05 8.19849C218.594 12.7422 224.155 14.3779 230.026 16.0863C236.205 17.8857 242.585 19.7577 247.964 25.1374C253.344 30.5171 255.216 36.8965 257.015 43.0759C257.288 43.9846 257.542 44.8752 257.815 45.7658L253.417 47.1107Z" fill="#6A2978"/>
</g>
<mask id="mask1_1140_876" style="mask-type:luminance" maskUnits="userSpaceOnUse" x="0" y="0" width="198" height="197">
<path d="M197.075 0.474121H0.787109V196.762H197.075V0.474121Z" fill="white"/>
</mask>
<g mask="url(#mask1_1140_876)">
<path d="M254.18 73.6821C253.471 73.1005 252.781 72.4825 252.126 71.8282C246.747 66.4485 244.875 60.0692 243.075 53.8897C241.349 48.0193 239.731 42.476 235.187 37.9141C230.644 33.3704 225.082 31.7347 219.212 30.0262C213.032 28.2269 206.653 26.3549 201.273 20.9752C195.894 15.5954 194.022 9.21609 192.222 3.03666C190.496 -2.83379 188.878 -8.39528 184.334 -12.939C179.791 -17.4827 174.229 -19.1184 168.359 -20.8268C162.179 -22.6261 155.8 -24.4981 150.42 -29.8779C149.766 -30.5322 149.148 -31.2228 148.566 -31.9316L152.147 -34.8396C152.619 -34.258 153.128 -33.6764 153.674 -33.1493C158.217 -28.6056 163.761 -26.9699 169.649 -25.2615C175.829 -23.4622 182.208 -21.5902 187.588 -16.2104C192.967 -10.8307 194.839 -4.45135 196.639 1.72808C198.365 7.59853 199.983 13.16 204.527 17.7037C209.07 22.2474 214.632 23.8831 220.502 25.5916C226.682 27.3909 233.061 29.2629 238.441 34.6426C243.82 40.0224 245.692 46.4017 247.492 52.5811C249.218 58.4516 250.836 64.0131 255.38 68.5568C255.925 69.102 256.488 69.6109 257.07 70.0835L254.18 73.6821Z" fill="#6A2978"/>
</g>
<mask id="mask2_1140_876" style="mask-type:luminance" maskUnits="userSpaceOnUse" x="0" y="0" width="198" height="197">
<path d="M197.075 0.474121H0.787109V196.762H197.075V0.474121Z" fill="white"/>
</mask>
<g mask="url(#mask2_1140_876)">
<path d="M254.871 88.6583C251.308 87.4042 246.674 85.4413 242.603 81.3702C237.223 75.9904 235.351 69.6111 233.552 63.4317C231.825 57.5612 230.207 52.0179 225.664 47.456C221.12 42.9123 215.559 41.2766 209.688 39.5682C203.509 37.7689 197.129 35.8969 191.75 30.5171C186.37 25.1374 184.498 18.758 182.699 12.5786C180.972 6.70814 179.354 1.16483 174.811 -3.39705C170.267 -7.94074 164.705 -9.57648 158.835 -11.2849C152.656 -13.0842 146.276 -14.9562 140.896 -20.336C136.807 -24.4253 134.862 -29.0417 133.608 -32.6039L137.952 -34.1306C139.043 -31.0227 140.733 -27.0243 144.15 -23.5892C148.693 -19.0455 154.255 -17.4098 160.125 -15.7014C166.305 -13.9021 172.684 -12.0301 178.064 -6.65033C183.444 -1.2706 185.316 5.10875 187.115 11.2882C188.842 17.1586 190.459 22.702 195.003 27.2638C199.547 31.8075 205.108 33.4433 210.978 35.1517C217.158 36.951 223.537 38.823 228.917 44.2027C234.297 49.5825 236.169 55.9618 237.968 62.1412C239.695 68.0117 241.312 73.555 245.856 78.1169C249.273 81.5337 253.289 83.224 256.397 84.3145L254.871 88.6583Z" fill="#6A2978"/>
</g>
<mask id="mask3_1140_876" style="mask-type:luminance" maskUnits="userSpaceOnUse" x="0" y="0" width="198" height="197">
<path d="M197.075 0.474121H0.787109V196.762H197.075V0.474121Z" fill="white"/>
</mask>
<g mask="url(#mask3_1140_876)">
<path d="M254.925 101.163C253.617 100.745 252.308 100.363 250.999 99.9812C244.82 98.1819 238.441 96.3099 233.061 90.9302C227.681 85.5505 225.809 79.1711 224.01 72.9917C222.283 67.1212 220.666 61.5779 216.122 57.016C211.578 52.4723 206.017 50.8366 200.146 49.1282C193.967 47.3289 187.588 45.4569 182.208 40.0771C176.828 34.6974 174.956 28.318 173.157 22.1386C171.43 16.2681 169.813 10.7248 165.269 6.16296C160.725 1.61926 155.164 -0.0164757 149.293 -1.72491C143.114 -3.52421 136.734 -5.39621 131.355 -10.776C125.975 -16.1557 124.103 -22.535 122.304 -28.7145C121.922 -30.0231 121.54 -31.3498 121.122 -32.6402L125.502 -34.0579C125.939 -32.7129 126.338 -31.368 126.72 -30.0049C128.447 -24.1344 130.064 -18.5911 134.608 -14.0292C139.152 -9.48554 144.713 -7.84981 150.584 -6.14138C156.763 -4.34207 163.142 -2.47007 168.522 2.90967C173.902 8.28941 175.774 14.6688 177.573 20.8482C179.3 26.7186 180.917 32.262 185.461 36.8238C190.005 41.3675 195.566 43.0033 201.437 44.7117C207.616 46.511 213.995 48.383 219.375 53.7627C224.755 59.1425 226.627 65.5218 228.426 71.7013C230.153 77.5717 231.77 83.115 236.314 87.6769C240.858 92.2206 246.419 93.8563 252.29 95.5648C253.635 95.9646 254.998 96.3645 256.343 96.7825L254.925 101.163Z" fill="#6A2978"/>
</g>
<mask id="mask4_1140_876" style="mask-type:luminance" maskUnits="userSpaceOnUse" x="0" y="0" width="198" height="197">
<path d="M197.075 0.474121H0.787109V196.762H197.075V0.474121Z" fill="white"/>
</mask>
<g mask="url(#mask4_1140_876)">
<path d="M254.325 114.812C250.454 112.14 246.074 110.85 241.458 109.505C235.278 107.705 228.899 105.833 223.519 100.454C218.139 95.0739 216.267 88.6946 214.468 82.5151C212.742 76.6447 211.124 71.1014 206.58 66.5395C202.037 61.9958 196.475 60.3601 190.605 58.6516C184.443 56.8523 178.046 54.9803 172.666 49.6006C167.286 44.2208 165.414 37.8415 163.615 31.6621C161.888 25.7916 160.271 20.2301 155.727 15.6864C151.183 11.1427 145.622 9.507 139.752 7.79857C133.572 5.99926 127.193 4.12726 121.813 -1.25248C116.415 -6.65039 114.561 -13.0297 112.744 -19.2092C111.399 -23.8256 110.108 -28.1875 107.437 -32.0769L111.235 -34.6941C114.325 -30.2049 115.779 -25.2796 117.178 -20.5178C118.905 -14.6473 120.523 -9.10399 125.066 -4.54212C129.61 0.00157928 135.172 1.63731 141.042 3.34575C147.221 5.16322 153.601 7.01705 158.98 12.3968C164.36 17.7765 166.232 24.1559 168.032 30.3353C169.758 36.2058 171.376 41.7491 175.919 46.311C180.463 50.8546 186.025 52.4904 191.895 54.1988C198.074 56.0163 204.454 57.8701 209.834 63.2499C215.213 68.6296 217.085 75.0089 218.885 81.1884C220.611 87.0588 222.229 92.6021 226.772 97.164C231.316 101.708 236.878 103.343 242.748 105.052C247.51 106.451 252.453 107.887 256.924 110.995L254.325 114.812Z" fill="#6A2978"/>
</g>
<mask id="mask5_1140_876" style="mask-type:luminance" maskUnits="userSpaceOnUse" x="0" y="0" width="198" height="197">
<path d="M197.075 0.474121H0.787109V196.762H197.075V0.474121Z" fill="white"/>
</mask>
<g mask="url(#mask5_1140_876)">
<path d="M253.489 135.822C252.035 132.114 250.254 129.279 247.891 126.934C243.348 122.391 237.786 120.755 231.916 119.046C225.736 117.247 219.357 115.375 213.977 109.995C208.598 104.616 206.726 98.2363 204.926 92.0569C203.2 86.1864 201.582 80.625 197.038 76.0813C192.495 71.5376 186.933 69.9018 181.063 68.1934C174.902 66.3941 168.504 64.5221 163.124 59.1423C157.745 53.7626 155.873 47.3833 154.073 41.2038C152.347 35.3334 150.729 29.7719 146.185 25.2282C141.642 20.6845 136.08 19.0488 130.21 17.3403C124.048 15.541 117.651 13.669 112.271 8.28928C106.891 2.90955 105.019 -3.46981 103.22 -9.64923C101.494 -15.5197 99.876 -21.063 95.3323 -25.6249C92.9696 -27.9876 90.1525 -29.7506 86.4448 -31.2227L88.1351 -35.512C92.4607 -33.8035 95.7867 -31.7134 98.6038 -28.8963C103.984 -23.5166 105.856 -17.1372 107.655 -10.9578C109.381 -5.08736 110.999 0.455948 115.543 5.01782C120.086 9.56152 125.648 11.1973 131.518 12.9057C137.698 14.705 144.077 16.577 149.457 21.9567C154.837 27.3365 156.709 33.7158 158.508 39.8952C160.234 45.7657 161.852 51.309 166.396 55.8709C170.939 60.4146 176.501 62.0503 182.371 63.7588C188.551 65.5581 194.93 67.4301 200.31 72.8098C205.69 78.1895 207.562 84.5689 209.361 90.7483C211.088 96.6188 212.705 102.162 217.249 106.724C221.792 111.268 227.354 112.903 233.224 114.612C239.404 116.411 245.783 118.283 251.163 123.663C253.98 126.48 256.088 129.806 257.779 134.132L253.489 135.822Z" fill="#6A2978"/>
</g>
<mask id="mask6_1140_876" style="mask-type:luminance" maskUnits="userSpaceOnUse" x="0" y="0" width="198" height="197">
<path d="M197.075 0.474121H0.787109V196.762H197.075V0.474121Z" fill="white"/>
</mask>
<g mask="url(#mask6_1140_876)">
<path d="M253.871 168.827C249.564 163.793 247.873 158.013 246.238 152.452C244.511 146.581 242.893 141.038 238.35 136.476C233.806 131.932 228.245 130.297 222.374 128.588C216.195 126.789 209.815 124.917 204.436 119.537C199.056 114.157 197.184 107.778 195.385 101.599C193.658 95.7281 192.04 90.1848 187.497 85.6229C182.953 81.0792 177.392 79.4435 171.521 77.7351C165.342 75.9358 158.962 74.0638 153.583 68.684C148.203 63.3043 146.331 56.9249 144.532 50.7455C142.805 44.875 141.187 39.3317 136.644 34.7699C132.1 30.2262 126.538 28.5904 120.668 26.882C114.489 25.0827 108.109 23.2107 102.729 17.831C97.3498 12.4149 95.4777 6.03552 93.6784 -0.125729C91.9518 -5.99619 90.3343 -11.5395 85.7906 -16.1014C81.2469 -20.6451 75.6854 -22.2808 69.8149 -23.9892C64.2353 -25.625 58.4739 -27.3152 53.4395 -31.6226L56.4383 -35.1304C60.7275 -31.4591 65.7801 -29.9869 71.1235 -28.4239C77.303 -26.6246 83.6823 -24.7526 89.062 -19.3728C94.4418 -13.9931 96.3138 -7.61374 98.1131 -1.43431C99.8397 4.43614 101.457 9.99763 106.001 14.5413C110.545 19.085 116.088 20.7208 121.977 22.4292C128.156 24.2285 134.535 26.1005 139.915 31.4802C145.295 36.86 147.167 43.2393 148.966 49.4187C150.693 55.2892 152.31 60.8325 156.854 65.3944C161.398 69.9381 166.959 71.5738 172.83 73.2822C179.009 75.0815 185.388 76.9535 190.768 82.3333C196.148 87.713 198.02 94.0924 199.819 100.272C201.546 106.142 203.163 111.686 207.707 116.247C212.251 120.791 217.812 122.427 223.683 124.135C229.862 125.935 236.241 127.807 241.621 133.186C247.001 138.566 248.873 144.945 250.672 151.125C252.235 156.468 253.726 161.521 257.379 165.81L253.871 168.827Z" fill="#6A2978"/>
</g>
<mask id="mask7_1140_876" style="mask-type:luminance" maskUnits="userSpaceOnUse" x="0" y="0" width="198" height="197">
<path d="M197.075 0.474121H0.787109V196.762H197.075V0.474121Z" fill="white"/>
</mask>
<g mask="url(#mask7_1140_876)">
<path d="M254.689 185.893C251.145 184.33 248.219 182.367 245.765 179.914C240.385 174.534 238.513 168.155 236.714 161.975C234.987 156.105 233.37 150.562 228.826 146C224.282 141.456 218.721 139.82 212.851 138.112C206.689 136.312 200.292 134.44 194.912 129.061C189.532 123.681 187.66 117.302 185.861 111.122C184.134 105.252 182.517 99.7085 177.973 95.1466C173.429 90.6029 167.868 88.9671 161.997 87.2587C155.836 85.4594 149.439 83.5874 144.059 78.2077C138.679 72.8279 136.807 66.4486 135.008 60.2691C133.281 54.3987 131.664 48.8554 127.12 44.2935C122.576 39.7498 117.015 38.1141 111.144 36.4056C104.965 34.6063 98.5856 32.7343 93.2059 27.3546C87.8261 21.9749 85.9541 15.5955 84.1548 9.41607C82.4282 3.54562 80.8106 -1.99769 76.267 -6.55957C71.7233 -11.1033 66.1618 -12.739 60.2913 -14.4474C54.1119 -16.2467 47.7325 -18.1187 42.3528 -23.4985C39.8992 -25.9521 37.9363 -28.8782 36.3733 -32.4223L40.5898 -34.2761C41.9348 -31.2228 43.5342 -28.8237 45.6061 -26.7518C50.1498 -22.2081 55.7113 -20.5723 61.5817 -18.8639C67.7612 -17.0646 74.1405 -15.1926 79.5202 -9.81285C84.8818 -4.45129 86.7538 1.92806 88.5531 8.10749C90.2797 13.9779 91.8973 19.5213 96.441 24.0831C100.985 28.6268 106.546 30.2626 112.417 31.971C118.596 33.7703 124.975 35.6423 130.355 41.022C135.735 46.4018 137.607 52.7811 139.406 58.9606C141.133 64.831 142.75 70.3743 147.294 74.9362C151.838 79.4799 157.399 81.1156 163.27 82.8241C169.449 84.6234 175.828 86.4954 181.208 91.8751C186.588 97.2548 188.46 103.634 190.259 109.814C191.986 115.684 193.603 121.227 198.147 125.789C202.691 130.333 208.252 131.969 214.123 133.677C220.302 135.476 226.682 137.348 232.061 142.728C237.441 148.108 239.313 154.487 241.112 160.667C242.839 166.537 244.456 172.08 249 176.642C251.072 178.714 253.471 180.314 256.525 181.659L254.689 185.893Z" fill="#6A2978"/>
</g>
<mask id="mask8_1140_876" style="mask-type:luminance" maskUnits="userSpaceOnUse" x="0" y="0" width="198" height="197">
<path d="M197.075 0.474121H0.787109V196.762H197.075V0.474121Z" fill="white"/>
</mask>
<g mask="url(#mask8_1140_876)">
<path d="M254.98 198.743L254.18 198.507C248.001 196.707 241.621 194.835 236.242 189.456C230.862 184.076 228.99 177.696 227.191 171.517C225.464 165.647 223.846 160.103 219.303 155.541C214.759 150.998 209.197 149.362 203.327 147.653C197.148 145.854 190.768 143.982 185.389 138.602C180.009 133.223 178.137 126.843 176.337 120.664C174.611 114.793 172.993 109.25 168.45 104.688C163.906 100.145 158.344 98.5088 152.474 96.8004C146.295 94.9829 139.915 93.1291 134.535 87.7494C129.156 82.3696 127.284 75.9903 125.484 69.8108C123.758 63.9404 122.14 58.3971 117.597 53.8352C113.053 49.2915 107.51 47.6558 101.621 45.9473C95.4415 44.148 89.0621 42.276 83.6824 36.8963C78.3026 31.5166 76.4306 25.1372 74.6313 18.9578C72.9047 13.0873 71.2872 7.54402 66.7435 2.98214C62.1998 -1.56155 56.6383 -3.19728 50.7678 -4.90572C44.5884 -6.70502 38.2091 -8.57702 32.8293 -13.9568C27.4496 -19.3365 25.5776 -25.7158 23.7783 -31.8953L23.542 -32.7131L27.9585 -34.0217L28.1947 -33.2039C29.9213 -27.3334 31.5389 -21.7901 36.0826 -17.2282C40.6263 -12.6845 46.1878 -11.0488 52.0582 -9.34036C58.2377 -7.54106 64.617 -5.66906 69.9968 -0.289318C75.3765 5.09042 77.2485 11.4698 79.0478 17.6492C80.7744 23.5197 82.392 29.0811 86.9357 33.6248C91.4794 38.1685 97.0408 39.8043 102.911 41.5127C109.091 43.312 115.47 45.184 120.85 50.5638C126.23 55.9435 128.102 62.3228 129.901 68.5023C131.627 74.3727 133.245 79.9342 137.789 84.4779C142.332 89.0216 147.894 90.6573 153.764 92.3658C159.926 94.1651 166.323 96.0371 171.703 101.417C177.083 106.797 178.955 113.176 180.754 119.355C182.481 125.226 184.098 130.787 188.642 135.331C193.185 139.875 198.747 141.51 204.617 143.219C210.779 145.018 217.176 146.89 222.556 152.27C227.936 157.65 229.808 164.029 231.607 170.208C233.334 176.079 234.951 181.64 239.495 186.184C244.039 190.728 249.6 192.363 255.471 194.072L256.288 194.308L254.98 198.743Z" fill="#6A2978"/>
</g>
<mask id="mask9_1140_876" style="mask-type:luminance" maskUnits="userSpaceOnUse" x="0" y="0" width="198" height="197">
<path d="M197.075 0.474121H0.787109V196.762H197.075V0.474121Z" fill="white"/>
</mask>
<g mask="url(#mask9_1140_876)">
<path d="M254.58 211.611C251.454 210.03 248.146 209.048 244.62 208.03C238.459 206.231 232.061 204.359 226.682 198.979C221.302 193.6 219.43 187.22 217.631 181.041C215.904 175.17 214.286 169.609 209.743 165.065C205.199 160.521 199.638 158.886 193.767 157.177C187.588 155.378 181.208 153.506 175.829 148.126C170.449 142.746 168.577 136.367 166.778 130.188C165.051 124.317 163.433 118.774 158.89 114.212C154.346 109.668 148.785 108.033 142.914 106.324C136.735 104.525 130.355 102.653 124.976 97.2731C119.596 91.8934 117.724 85.5141 115.925 79.3346C114.198 73.4642 112.58 67.9209 108.037 63.359C103.493 58.8153 97.9315 57.1796 92.061 55.4711C85.8816 53.6718 79.5022 51.7998 74.1225 46.4201C68.7427 41.0403 66.8707 34.661 65.0714 28.4816C63.3448 22.6111 61.7273 17.0678 57.1836 12.5059C52.6399 7.96223 47.0784 6.3265 41.2079 4.61806C35.0285 2.81876 28.6492 0.946758 23.2694 -4.43298C17.8897 -9.81272 16.0177 -16.1921 14.2184 -22.3715C13.1824 -25.8792 12.2191 -29.2052 10.6379 -32.3313L14.7273 -34.4214C16.5084 -30.9137 17.5807 -27.2423 18.6167 -23.6801C20.3433 -17.8096 21.9608 -12.2663 26.5045 -7.70444C31.0482 -3.16075 36.6097 -1.52502 42.4802 0.183414C48.6596 1.98272 55.039 3.85472 60.4187 9.23446C65.7984 14.6142 67.6704 20.9935 69.4697 27.173C71.1963 33.0434 72.8139 38.6049 77.3576 43.1486C81.9013 47.6923 87.4628 49.3281 93.3332 51.0365C99.5127 52.8358 105.892 54.7078 111.272 60.0875C116.652 65.4673 118.524 71.8466 120.323 78.026C122.049 83.8965 123.667 89.4398 128.211 94.0017C132.754 98.5454 138.316 100.181 144.186 101.89C150.366 103.689 156.745 105.561 162.125 110.941C167.505 116.32 169.377 122.7 171.176 128.879C172.902 134.75 174.52 140.293 179.064 144.855C183.607 149.398 189.169 151.034 195.039 152.743C201.219 154.542 207.598 156.414 212.978 161.794C218.358 167.173 220.23 173.553 222.029 179.732C223.756 185.603 225.373 191.146 229.917 195.708C234.461 200.252 240.022 201.887 245.892 203.596C249.455 204.632 253.126 205.722 256.634 207.485L254.58 211.611Z" fill="#6A2978"/>
</g>
<mask id="mask10_1140_876" style="mask-type:luminance" maskUnits="userSpaceOnUse" x="0" y="0" width="198" height="197">
<path d="M197.075 0.474121H0.787109V196.762H197.075V0.474121Z" fill="white"/>
</mask>
<g mask="url(#mask10_1140_876)">
<path d="M253.726 228.677C252.926 227.514 252.054 226.46 251.072 225.478C246.528 220.934 240.967 219.299 235.096 217.59C228.917 215.791 222.538 213.919 217.158 208.539C211.778 203.159 209.906 196.78 208.107 190.601C206.38 184.73 204.763 179.187 200.219 174.625C195.675 170.081 190.114 168.446 184.243 166.737C178.064 164.938 171.685 163.066 166.305 157.686C160.925 152.306 159.053 145.927 157.254 139.748C155.527 133.877 153.91 128.334 149.366 123.772C144.822 119.228 139.261 117.593 133.39 115.884C127.211 114.085 120.832 112.213 115.452 106.833C110.072 101.453 108.2 95.074 106.401 88.8945C104.674 83.0241 103.057 77.4808 98.5129 72.9189C93.9692 68.3752 88.4077 66.7395 82.5373 65.031C76.3578 63.2317 69.9785 61.3597 64.5987 55.98C59.219 50.6002 57.347 44.2209 55.5477 38.0415C53.8211 32.171 52.2035 26.6095 47.6598 22.0658C43.1161 17.5221 37.5547 15.8864 31.6842 14.178C25.5048 12.3787 19.1254 10.5067 13.7457 5.12692C8.34777 -0.289165 6.47577 -6.68669 4.67647 -12.8479C2.94986 -18.7184 1.3323 -24.2799 -3.21139 -28.8236C-4.19283 -29.805 -5.24697 -30.6774 -6.41016 -31.4771L-3.81116 -35.2756C-2.42988 -34.3305 -1.12129 -33.2582 0.0600686 -32.0769C5.43981 -26.6971 7.31181 -20.3178 9.11111 -14.1384C10.8377 -8.2679 12.4553 -2.70641 16.999 1.83728C21.5427 6.38098 27.1042 8.01672 32.9746 9.72515C39.154 11.5244 45.5334 13.3965 50.9131 18.7762C56.2929 24.1559 58.1649 30.5353 59.9642 36.7147C61.6908 42.5852 63.3083 48.1285 67.852 52.6903C72.3957 57.234 77.9572 58.8698 83.8277 60.5782C90.0071 62.3775 96.3864 64.2495 101.766 69.6293C107.146 75.009 109.018 81.3883 110.817 87.5678C112.544 93.4382 114.161 98.9815 118.705 103.543C123.249 108.087 128.81 109.723 134.681 111.431C140.86 113.231 147.24 115.103 152.619 120.482C157.999 125.862 159.871 132.241 161.67 138.421C163.397 144.291 165.014 149.835 169.558 154.396C174.102 158.94 179.663 160.576 185.534 162.284C191.713 164.084 198.093 165.956 203.472 171.335C208.852 176.715 210.724 183.094 212.523 189.274C214.25 195.144 215.868 200.688 220.411 205.25C224.955 209.793 230.516 211.429 236.387 213.137C242.566 214.937 248.946 216.809 254.325 222.188C255.507 223.37 256.579 224.66 257.524 226.06L253.726 228.677Z" fill="#6A2978"/>
</g>
<mask id="mask11_1140_876" style="mask-type:luminance" maskUnits="userSpaceOnUse" x="0" y="0" width="198" height="197">
<path d="M197.075 0.474121H0.787109V196.762H197.075V0.474121Z" fill="white"/>
</mask>
<g mask="url(#mask11_1140_876)">
<path d="M250.654 255.03C250.218 253.685 249.818 252.34 249.436 250.977C247.71 245.107 246.092 239.564 241.549 235.002C237.005 230.458 231.443 228.822 225.573 227.114C219.393 225.314 213.014 223.442 207.634 218.063C202.255 212.683 200.383 206.304 198.583 200.124C196.857 194.254 195.239 188.71 190.695 184.149C186.152 179.605 180.59 177.969 174.72 176.261C168.54 174.461 162.161 172.589 156.781 167.21C151.402 161.83 149.53 155.451 147.73 149.271C146.004 143.401 144.386 137.857 139.842 133.295C135.299 128.752 129.737 127.116 123.867 125.408C117.687 123.608 111.308 121.736 105.928 116.357C100.549 110.977 98.6765 104.598 96.8772 98.4181C95.1506 92.5476 93.5331 87.0043 88.9894 82.4424C84.4457 77.8987 78.8842 76.263 73.0137 74.5546C66.8343 72.7553 60.4549 70.8832 55.0752 65.5035C49.6773 60.0874 47.8053 53.7081 45.9878 47.5468C44.2612 41.6764 42.6436 36.1149 38.0999 31.5712C33.5563 27.0275 27.9948 25.3918 22.1243 23.6833C15.9449 21.884 9.56553 20.012 4.18579 14.6323C-1.19395 9.25254 -3.06596 2.87318 -4.86526 -3.30624C-6.59187 -9.1767 -8.20942 -14.72 -12.7531 -19.2819C-17.2968 -23.8256 -22.8583 -25.4613 -28.7288 -27.1697C-30.0737 -27.5696 -31.4368 -27.9694 -32.7817 -28.3875L-31.3641 -32.7676C-30.0555 -32.3496 -28.7469 -31.9679 -27.4384 -31.5862C-21.2589 -29.7869 -14.8796 -27.9149 -9.49983 -22.5352C-4.12009 -17.1554 -2.24809 -10.7761 -0.448784 -4.61483C1.27782 1.25563 2.91355 6.81712 7.45725 11.3608C12.0009 15.9045 17.5624 17.5402 23.4329 19.2487C29.6123 21.048 35.9917 22.92 41.3714 28.2997C46.7512 33.6795 48.6232 40.0588 50.4225 46.2382C52.1491 52.1087 53.7666 57.652 58.3103 62.2139C62.854 66.7576 68.4155 68.3933 74.2859 70.1017C80.4654 71.901 86.8447 73.773 92.2245 79.1528C97.6042 84.5325 99.4762 90.9119 101.276 97.0913C103.002 102.962 104.62 108.505 109.163 113.067C113.707 117.611 119.269 119.246 125.139 120.955C131.318 122.754 137.698 124.626 143.078 130.006C148.457 135.386 150.329 141.765 152.129 147.944C153.855 153.815 155.473 159.358 160.016 163.92C164.56 168.464 170.122 170.099 175.992 171.808C182.172 173.607 188.551 175.479 193.931 180.859C199.31 186.239 201.182 192.618 202.982 198.797C204.708 204.668 206.326 210.211 210.87 214.773C215.413 219.317 220.975 220.953 226.845 222.661C233.025 224.46 239.404 226.332 244.784 231.712C250.163 237.092 252.035 243.471 253.835 249.651C254.216 250.959 254.598 252.286 255.016 253.576L250.654 255.03Z" fill="#6A2978"/>
</g>
<mask id="mask12_1140_876" style="mask-type:luminance" maskUnits="userSpaceOnUse" x="0" y="0" width="198" height="197">
<path d="M197.075 0.474121H0.787109V196.762H197.075V0.474121Z" fill="white"/>
</mask>
<g mask="url(#mask12_1140_876)">
<path d="M238.204 255.085C237.114 251.977 235.424 247.979 232.007 244.543C227.463 240 221.902 238.364 216.031 236.656C209.87 234.856 203.472 232.984 198.093 227.605C192.713 222.225 190.841 215.845 189.042 209.666C187.315 203.796 185.698 198.252 181.154 193.69C176.61 189.147 171.049 187.511 165.178 185.803C158.999 184.003 152.619 182.131 147.24 176.752C141.86 171.372 139.988 164.992 138.189 158.813C136.462 152.943 134.844 147.399 130.301 142.837C125.757 138.294 120.196 136.658 114.325 134.949C108.164 133.15 101.766 131.278 96.3866 125.898C91.0068 120.519 89.1348 114.139 87.3355 107.96C85.6089 102.089 83.9914 96.5462 79.4477 91.9843C74.904 87.4406 69.3425 85.8049 63.472 84.0964C57.3108 82.279 50.9133 80.4251 45.5335 75.0454C40.1538 69.6656 38.2818 63.2863 36.4825 57.1069C34.7559 51.2364 33.1383 45.6749 28.5946 41.1312C24.0509 36.5875 18.4894 34.9518 12.619 33.2434C6.43954 31.4259 0.0601883 29.5721 -5.31955 24.1923C-10.6993 18.8126 -12.5713 12.4332 -14.3706 6.25381C-16.1154 0.347002 -17.7511 -5.19631 -22.2948 -9.75818C-25.7117 -13.175 -29.7283 -14.8653 -32.8362 -15.9558L-31.3095 -20.2996C-27.7472 -19.0455 -23.1127 -17.1008 -19.0415 -13.0115C-13.6618 -7.63173 -11.7898 -1.25238 -9.99047 4.92705C-8.26386 10.7975 -6.64631 16.3408 -2.10261 20.9027C2.44109 25.4464 8.00257 27.0821 13.873 28.7905C20.0525 30.5899 26.4318 32.4619 31.8116 37.8416C37.1913 43.2213 39.0633 49.6007 40.8626 55.7801C42.5892 61.6506 44.2068 67.1939 48.7505 71.7558C53.2942 76.2994 58.8556 77.9352 64.7261 79.6436C70.9055 81.4429 77.2849 83.3149 82.6646 88.6947C88.0444 94.0744 89.9164 100.454 91.7157 106.633C93.4423 112.504 95.0598 118.065 99.6035 122.609C104.147 127.153 109.709 128.788 115.579 130.497C121.759 132.296 128.138 134.168 133.518 139.548C138.897 144.927 140.769 151.307 142.569 157.486C144.295 163.357 145.913 168.918 150.457 173.462C155 178.006 160.562 179.641 166.432 181.35C172.612 183.149 178.991 185.021 184.371 190.401C189.75 195.781 191.622 202.16 193.422 208.339C195.148 214.21 196.766 219.771 201.31 224.315C205.853 228.859 211.415 230.494 217.285 232.203C223.465 234.002 229.844 235.874 235.224 241.254C239.313 245.343 241.258 249.96 242.512 253.522L238.204 255.085Z" fill="#6A2978"/>
</g>
<mask id="mask13_1140_876" style="mask-type:luminance" maskUnits="userSpaceOnUse" x="0" y="0" width="198" height="197">
<path d="M197.075 0.474121H0.787109V196.762H197.075V0.474121Z" fill="white"/>
</mask>
<g mask="url(#mask13_1140_876)">
<path d="M223.992 255.775C223.519 255.194 223.01 254.612 222.465 254.085C217.921 249.541 212.36 247.906 206.489 246.197C200.31 244.398 193.931 242.526 188.551 237.146C183.171 231.766 181.299 225.387 179.5 219.208C177.773 213.337 176.156 207.776 171.612 203.232C167.068 198.688 161.507 197.053 155.636 195.344C149.457 193.545 143.078 191.673 137.698 186.293C132.318 180.913 130.446 174.534 128.647 168.355C126.92 162.484 125.303 156.923 120.759 152.379C116.215 147.835 110.654 146.2 104.783 144.491C98.6039 142.692 92.2245 140.82 86.8448 135.44C81.4651 130.06 79.5931 123.681 77.7938 117.502C76.0672 111.631 74.4496 106.07 69.9059 101.526C65.3622 96.9822 59.8007 95.3465 53.9303 93.638C47.7508 91.8387 41.3715 89.9667 35.9917 84.587C30.612 79.2072 28.74 72.8279 26.9407 66.6485C25.2141 60.778 23.5965 55.2165 19.0528 50.6728C14.5091 46.1291 8.94766 44.4934 3.07721 42.785C-3.10222 40.9675 -9.48158 39.1137 -14.8613 33.7339C-20.2411 28.3542 -22.1131 21.9748 -23.9124 15.7954C-25.639 9.92494 -27.2565 4.38163 -31.8002 -0.180238C-32.3455 -0.725482 -32.9089 -1.23438 -33.4905 -1.70692L-30.5825 -5.28735C-29.8737 -4.70576 -29.1831 -4.08782 -28.5288 -3.43352C-23.1854 1.90986 -21.3134 8.28921 -19.5141 14.4686C-17.7875 20.3391 -16.1699 25.9006 -11.6262 30.4443C-7.08251 34.988 -1.52102 36.6237 4.34944 38.3321C10.5289 40.1314 16.9082 42.0034 22.288 47.3832C27.6677 52.7629 29.5397 59.1423 31.339 65.3217C33.0656 71.1922 34.6832 76.7355 39.2269 81.2973C43.7706 85.841 49.332 87.4768 55.2025 89.1852C61.3819 90.9845 67.7613 92.8565 73.141 98.2362C78.5208 103.616 80.3928 109.995 82.1921 116.175C83.9187 122.045 85.5362 127.589 90.0799 132.15C94.6236 136.694 100.185 138.33 106.056 140.038C112.235 141.838 118.614 143.71 123.994 149.089C129.374 154.469 131.246 160.848 133.045 167.028C134.772 172.898 136.389 178.442 140.933 183.003C145.477 187.547 151.038 189.183 156.909 190.891C163.088 192.691 169.467 194.563 174.847 199.942C180.227 205.322 182.099 211.701 183.898 217.881C185.625 223.751 187.242 229.295 191.786 233.856C196.33 238.4 201.891 240.036 207.762 241.744C213.941 243.544 220.32 245.416 225.7 250.795C226.355 251.45 226.972 252.14 227.554 252.849L223.992 255.775Z" fill="#6A2978"/>
</g>
<mask id="mask14_1140_876" style="mask-type:luminance" maskUnits="userSpaceOnUse" x="0" y="0" width="198" height="197">
<path d="M197.075 0.474121H0.787109V196.762H197.075V0.474121Z" fill="white"/>
</mask>
<g mask="url(#mask14_1140_876)">
<path d="M199.656 256.521C198.765 256.248 197.856 255.975 196.966 255.721C190.805 253.922 184.407 252.05 179.027 246.67C173.648 241.29 171.776 234.911 169.976 228.731C168.25 222.861 166.632 217.299 162.088 212.756C157.545 208.212 151.983 206.576 146.113 204.868C139.933 203.068 133.554 201.196 128.174 195.817C122.795 190.437 120.923 184.058 119.123 177.878C117.397 172.008 115.779 166.446 111.235 161.903C106.692 157.359 101.13 155.723 95.2598 154.015C89.0804 152.215 82.701 150.343 77.3213 144.964C71.9415 139.584 70.0695 133.205 68.2702 127.025C66.5436 121.155 64.9261 115.593 60.3824 111.049C55.8387 106.506 50.2772 104.87 44.4067 103.162C38.2273 101.362 31.8479 99.4903 26.4682 94.1106C21.0885 88.7308 19.2165 82.3515 17.4172 76.1721C15.6906 70.3016 14.073 64.7583 9.5293 60.1964C4.9856 55.6527 -0.575882 54.017 -6.44634 52.3086C-12.6258 50.5092 -19.0051 48.6372 -24.3849 43.2575C-29.7646 37.8778 -31.6366 31.4984 -33.4359 25.319C-33.7085 24.4102 -33.963 23.5197 -34.2356 22.6291L-29.8373 21.2842C-29.5647 22.1929 -29.2921 23.1198 -29.0194 24.0286C-27.2928 29.899 -25.6753 35.4423 -21.1316 40.0042C-16.5879 44.5479 -11.0264 46.1836 -5.15593 47.8921C1.0235 49.6914 7.40285 51.5634 12.7826 56.9431C18.1623 62.3229 20.0343 68.7022 21.8336 74.8816C23.5602 80.7521 25.1778 86.2954 29.7215 90.8573C34.2652 95.401 39.8267 97.0367 45.6971 98.7451C51.8766 100.544 58.2559 102.416 63.6357 107.796C69.0154 113.176 70.8874 119.555 72.6867 125.735C74.4133 131.605 76.0309 137.148 80.5746 141.71C85.1183 146.254 90.6797 147.89 96.5502 149.598C102.73 151.398 109.109 153.27 114.489 158.649C119.868 164.029 121.74 170.408 123.54 176.588C125.266 182.458 126.884 188.02 131.428 192.563C135.971 197.107 141.515 198.743 147.403 200.451C153.565 202.251 159.962 204.123 165.342 209.502C170.722 214.882 172.594 221.261 174.393 227.441C176.119 233.311 177.737 238.855 182.281 243.416C186.824 247.96 192.386 249.596 198.256 251.304C199.183 251.577 200.092 251.85 201.019 252.122L199.656 256.521Z" fill="#6A2978"/>
</g>
<mask id="mask15_1140_876" style="mask-type:luminance" maskUnits="userSpaceOnUse" x="0" y="0" width="198" height="197">
<path d="M197.075 0.474121H0.787109V196.762H197.075V0.474121Z" fill="white"/>
</mask>
<g mask="url(#mask15_1140_876)">
<path d="M169.213 255.921C164.033 250.596 162.197 244.325 160.416 238.255C158.69 232.384 157.072 226.823 152.528 222.279C147.985 217.736 142.423 216.1 136.553 214.391C130.373 212.592 123.994 210.72 118.614 205.34C113.235 199.961 111.363 193.581 109.563 187.402C107.837 181.531 106.219 175.988 101.675 171.426C97.1317 166.882 91.5702 165.247 85.6998 163.538C79.5203 161.739 73.141 159.867 67.7612 154.487C62.3815 149.108 60.5095 142.728 58.7102 136.549C56.9836 130.678 55.366 125.135 50.8223 120.573C46.2786 116.029 40.7172 114.394 34.8467 112.685C28.6673 110.886 22.2879 109.014 16.9082 103.634C11.5284 98.2545 9.65644 91.8751 7.85714 85.6957C6.13054 79.8071 4.51298 74.2638 -0.0488968 69.7201C-4.59259 65.1764 -10.1541 63.5406 -16.0245 61.8322C-22.0949 60.0511 -28.3652 58.2154 -33.6904 53.0356L-30.4735 49.7278C-25.9661 54.1079 -20.5137 55.7073 -14.7341 57.3975C-8.5547 59.1969 -2.17534 61.0689 3.2044 66.4486C8.58413 71.8283 10.4561 78.2077 12.2554 84.3871C13.982 90.2576 15.5996 95.8009 20.1433 100.363C24.687 104.906 30.2485 106.542 36.1189 108.251C42.2984 110.05 48.6777 111.922 54.0575 117.302C59.4372 122.681 61.3092 129.061 63.1085 135.24C64.8351 141.111 66.4527 146.654 70.9964 151.216C75.5401 155.76 81.1015 157.395 86.972 159.104C93.1514 160.903 99.5308 162.775 104.911 168.155C110.29 173.534 112.162 179.914 113.962 186.093C115.688 191.964 117.306 197.507 121.849 202.069C126.393 206.613 131.955 208.248 137.825 209.957C144.004 211.756 150.384 213.628 155.764 219.008C161.143 224.388 163.015 230.767 164.815 236.946C166.505 242.726 168.104 248.178 172.484 252.686L169.213 255.921Z" fill="#6A2978"/>
</g>
<mask id="mask16_1140_876" style="mask-type:luminance" maskUnits="userSpaceOnUse" x="0" y="0" width="198" height="197">
<path d="M197.075 0.474121H0.787109V196.762H197.075V0.474121Z" fill="white"/>
</mask>
<g mask="url(#mask16_1140_876)">
<path d="M153.292 255.157C152.347 252.722 151.602 250.214 150.893 247.797C149.166 241.926 147.549 236.365 143.005 231.821C138.461 227.277 132.9 225.641 127.029 223.933C120.85 222.134 114.47 220.262 109.091 214.882C103.711 209.502 101.839 203.123 100.04 196.943C98.313 191.073 96.6955 185.53 92.1518 180.968C87.6081 176.424 82.0466 174.788 76.1761 173.08C69.9967 171.281 63.6174 169.409 58.2376 164.029C52.8579 158.649 50.9859 152.27 49.1866 146.09C47.46 140.22 45.8424 134.677 41.2987 130.115C36.755 125.571 31.1936 123.935 25.3231 122.227C19.1437 120.428 12.7643 118.556 7.38457 113.176C2.00483 107.796 0.132832 101.417 -1.66647 95.2374C-3.41125 89.3487 -5.02881 83.8054 -9.57251 79.2617C-14.1162 74.718 -19.6777 73.0823 -25.5481 71.3739C-27.9654 70.6651 -30.4735 69.9381 -32.9089 68.9748L-31.2369 64.6855C-28.9832 65.5579 -26.6932 66.2304 -24.2577 66.9574C-18.0783 68.7567 -11.699 70.6287 -6.31922 76.0084C-0.939482 81.3882 0.932522 87.7675 2.73183 93.947C4.45843 99.8174 6.07599 105.379 10.6197 109.923C15.1634 114.466 20.7249 116.102 26.5953 117.81C32.7748 119.61 39.1541 121.482 44.5338 126.862C49.9136 132.241 51.7856 138.621 53.5849 144.8C55.3115 150.67 56.929 156.214 61.4727 160.776C66.0164 165.319 71.5779 166.955 77.4484 168.664C83.6278 170.463 90.0072 172.335 95.3869 177.715C100.767 183.094 102.639 189.474 104.438 195.653C106.165 201.524 107.782 207.067 112.326 211.629C116.87 216.172 122.431 217.808 128.301 219.517C134.481 221.316 140.86 223.188 146.24 228.568C151.62 233.947 153.492 240.327 155.291 246.506C156 248.942 156.672 251.232 157.563 253.485L153.292 255.157Z" fill="#6A2978"/>
</g>
<mask id="mask17_1140_876" style="mask-type:luminance" maskUnits="userSpaceOnUse" x="0" y="0" width="198" height="197">
<path d="M197.075 0.474121H0.787109V196.762H197.075V0.474121Z" fill="white"/>
</mask>
<g mask="url(#mask17_1140_876)">
<path d="M140.66 254.994C139.243 250.323 137.534 245.434 133.463 241.363C128.919 236.819 123.358 235.183 117.487 233.475C111.308 231.657 104.929 229.804 99.5488 224.424C94.1691 219.044 92.2971 212.665 90.4978 206.485C88.7712 200.615 87.1536 195.072 82.6099 190.51C78.0662 185.966 72.5047 184.33 66.6343 182.622C60.4548 180.823 54.0755 178.951 48.6958 173.571C43.316 168.191 41.444 161.812 39.6447 155.632C37.9181 149.762 36.3006 144.219 31.7569 139.657C27.2132 135.113 21.6517 133.477 15.7812 131.769C9.60179 129.97 3.22243 128.098 -2.1573 122.718C-7.53704 117.338 -9.40904 110.959 -11.2083 104.779C-12.935 98.9088 -14.5525 93.3655 -19.0962 88.8036C-23.1674 84.7325 -28.0564 83.024 -32.7273 81.6064L-31.3824 77.1899C-26.3843 78.6984 -20.6592 80.7158 -15.8429 85.5322C-10.4632 90.9119 -8.59118 97.2913 -6.79187 103.471C-5.06527 109.341 -3.44771 114.884 1.09599 119.446C5.63968 123.99 11.2012 125.626 17.0716 127.334C23.2511 129.133 29.6304 131.005 35.0101 136.385C40.3899 141.765 42.2619 148.144 44.0612 154.324C45.7878 160.194 47.4053 165.756 51.949 170.299C56.4927 174.843 62.0542 176.479 67.9247 178.187C74.1041 179.987 80.4835 181.859 85.8632 187.238C91.2429 192.618 93.115 198.997 94.9143 205.177C96.6409 211.047 98.2584 216.609 102.802 221.152C107.346 225.696 112.907 227.332 118.778 229.04C124.939 230.84 131.337 232.712 136.716 238.091C141.533 242.908 143.55 248.633 145.058 253.631L140.66 254.994Z" fill="#6A2978"/>
</g>
<mask id="mask18_1140_876" style="mask-type:luminance" maskUnits="userSpaceOnUse" x="0" y="0" width="198" height="197">
<path d="M197.075 0.474121H0.787109V196.762H197.075V0.474121Z" fill="white"/>
</mask>
<g mask="url(#mask18_1140_876)">
<path d="M127.447 255.485C126.429 253.758 125.284 252.268 123.921 250.904C119.378 246.361 113.816 244.725 107.946 243.017C101.766 241.217 95.3868 239.345 90.007 233.966C84.6273 228.586 82.7553 222.206 80.956 216.027C79.2294 210.157 77.6118 204.613 73.0682 200.051C68.5245 195.508 62.963 193.872 57.0925 192.164C50.9131 190.364 44.5337 188.492 39.154 183.113C33.7743 177.733 31.9023 171.353 30.103 165.174C28.3763 159.304 26.7588 153.76 22.2151 149.198C17.6714 144.655 12.1099 143.019 6.23945 141.311C0.0600204 139.511 -6.31933 137.639 -11.6991 132.259C-17.0788 126.88 -18.9508 120.5 -20.7501 114.321C-22.4767 108.45 -24.0943 102.907 -28.638 98.3453C-30.0011 96.9822 -31.4914 95.8372 -33.218 94.8194L-30.8916 90.8391C-28.8197 92.0568 -27.0204 93.4381 -25.3847 95.0738C-20.0049 100.454 -18.1329 106.833 -16.3336 113.012C-14.607 118.883 -12.9895 124.426 -8.44578 128.988C-3.90208 133.532 1.64123 135.167 7.52986 136.876C13.7093 138.675 20.0886 140.547 25.4684 145.927C30.8481 151.307 32.7201 157.686 34.5194 163.865C36.246 169.736 37.8636 175.279 42.4073 179.841C46.951 184.385 52.5125 186.021 58.3829 187.729C64.5442 189.528 70.9417 191.4 76.3214 196.78C81.7012 202.16 83.5732 208.539 85.3725 214.718C87.0991 220.589 88.7166 226.132 93.2603 230.694C97.804 235.238 103.366 236.874 109.236 238.582C115.415 240.381 121.795 242.253 127.174 247.633C128.81 249.269 130.21 251.068 131.409 253.14L127.447 255.485Z" fill="#6A2978"/>
</g>
<mask id="mask19_1140_876" style="mask-type:luminance" maskUnits="userSpaceOnUse" x="0" y="0" width="198" height="197">
<path d="M197.075 0.474121H0.787109V196.762H197.075V0.474121Z" fill="white"/>
</mask>
<g mask="url(#mask19_1140_876)">
<path d="M108.818 256.357C105.583 254.63 102.093 253.613 98.4221 252.54C92.2426 250.741 85.8633 248.869 80.4836 243.489C75.1038 238.11 73.2318 231.73 71.4325 225.551C69.7059 219.68 68.0883 214.119 63.5446 209.575C59.0009 205.031 53.4395 203.396 47.569 201.687C41.3896 199.888 35.0102 198.016 29.6305 192.636C24.2507 187.257 22.3787 180.877 20.5794 174.698C18.8528 168.827 17.2353 163.284 12.6916 158.722C8.14788 154.178 2.5864 152.543 -3.28406 150.834C-9.46349 149.035 -15.8428 147.163 -21.2226 141.783C-26.6023 136.403 -28.4743 130.024 -30.2736 123.845C-31.3459 120.173 -32.3637 116.702 -34.0903 113.449L-30.0192 111.286C-28.0745 114.939 -26.9476 118.81 -25.8572 122.536C-24.1305 128.407 -22.513 133.95 -17.9693 138.512C-13.4256 143.055 -7.86411 144.691 -1.99365 146.4C4.18578 148.199 10.5651 150.071 15.9449 155.451C21.3246 160.83 23.1966 167.21 24.9959 173.389C26.7225 179.26 28.3401 184.821 32.8838 189.365C37.4275 193.908 42.989 195.544 48.8594 197.253C55.0388 199.052 61.4182 200.924 66.7979 206.304C72.1777 211.683 74.0497 218.063 75.849 224.242C77.5756 230.113 79.1931 235.656 83.7368 240.218C88.2805 244.762 93.842 246.397 99.7125 248.106C103.456 249.196 107.31 250.341 110.963 252.268L108.818 256.357Z" fill="#6A2978"/>
</g>
<mask id="mask20_1140_876" style="mask-type:luminance" maskUnits="userSpaceOnUse" x="0" y="0" width="198" height="197">
<path d="M197.075 0.474121H0.787109V196.762H197.075V0.474121Z" fill="white"/>
</mask>
<g mask="url(#mask20_1140_876)">
<path d="M74.813 256.212C73.4317 255.266 72.1231 254.194 70.9418 253.013C65.562 247.633 63.69 241.254 61.8907 235.074C60.1641 229.204 58.5465 223.66 54.0028 219.099C49.4592 214.555 43.8977 212.919 38.0272 211.211C31.8478 209.411 25.4684 207.539 20.0887 202.16C14.709 196.78 12.8369 190.401 11.0376 184.221C9.31104 178.351 7.69348 172.807 3.14978 168.246C-1.39391 163.702 -6.9554 162.066 -12.8259 160.358C-19.0053 158.558 -25.3846 156.686 -30.7644 151.307C-31.9457 150.125 -33.018 148.835 -33.9631 147.435L-30.1646 144.836C-29.3649 146 -28.4925 147.054 -27.5111 148.035C-22.9674 152.579 -17.4059 154.215 -11.5354 155.923C-5.35602 157.722 1.02333 159.594 6.40307 164.974C11.7828 170.354 13.6548 176.733 15.4541 182.913C17.1807 188.783 18.7983 194.326 23.342 198.888C27.8857 203.432 33.4472 205.068 39.3176 206.776C45.497 208.575 51.8764 210.447 57.2561 215.827C62.6359 221.207 64.5079 227.586 66.3072 233.766C68.0338 239.636 69.6513 245.179 74.195 249.741C75.1765 250.723 76.2306 251.595 77.412 252.395L74.813 256.212Z" fill="#6A2978"/>
</g>
<mask id="mask21_1140_876" style="mask-type:luminance" maskUnits="userSpaceOnUse" x="0" y="0" width="198" height="197">
<path d="M197.075 0.474121H0.787109V196.762H197.075V0.474121Z" fill="white"/>
</mask>
<g mask="url(#mask21_1140_876)">
<path d="M56.2564 255.357C54.4753 251.85 53.403 248.178 52.367 244.616C50.6404 238.746 49.0229 233.202 44.4792 228.64C39.9355 224.097 34.374 222.461 28.5035 220.753C22.3241 218.953 15.9448 217.081 10.565 211.702C5.18528 206.322 3.31328 199.942 1.51398 193.763C-0.212627 187.893 -1.83018 182.349 -6.37388 177.787C-10.9176 173.244 -16.4791 171.608 -22.3495 169.899C-25.9118 168.864 -29.5831 167.773 -33.0908 166.01L-31.0007 161.903C-27.8747 163.484 -24.5668 164.465 -21.0409 165.483C-14.8615 167.282 -8.48216 169.154 -3.10242 174.534C2.27732 179.914 4.14932 186.293 5.94862 192.473C7.67523 198.343 9.29279 203.886 13.8365 208.448C18.3802 212.992 23.9417 214.628 29.8121 216.336C35.9915 218.135 42.3709 220.007 47.7506 225.387C53.1304 230.767 55.0024 237.146 56.8017 243.326C57.8376 246.833 58.8009 250.159 60.3821 253.285L56.2564 255.357Z" fill="#6A2978"/>
</g>
<mask id="mask22_1140_876" style="mask-type:luminance" maskUnits="userSpaceOnUse" x="0" y="0" width="198" height="197">
<path d="M197.075 0.474121H0.787109V196.762H197.075V0.474121Z" fill="white"/>
</mask>
<g mask="url(#mask22_1140_876)">
<path d="M43.0617 254.957L42.8254 254.14C41.0988 248.269 39.4813 242.708 34.9376 238.164C30.3939 233.62 24.8324 231.985 18.9619 230.276C12.7825 228.477 6.40316 226.605 1.02342 221.225C-4.35632 215.845 -6.22832 209.466 -8.02762 203.287C-9.75423 197.416 -11.3718 191.873 -15.9155 187.311C-20.4592 182.767 -26.0207 181.131 -31.8911 179.423L-32.709 179.187L-31.4186 174.77L-30.6189 175.007C-24.4395 176.806 -18.0601 178.678 -12.6804 184.058C-7.30063 189.437 -5.42863 195.817 -3.62933 201.996C-1.90272 207.867 -0.285164 213.41 4.25853 217.972C8.80223 222.515 14.3637 224.151 20.2342 225.86C26.4136 227.659 32.7929 229.531 38.1727 234.911C43.5524 240.29 45.4244 246.67 47.2237 252.849L47.46 253.649L43.0617 254.957Z" fill="#6A2978"/>
</g>
<mask id="mask23_1140_876" style="mask-type:luminance" maskUnits="userSpaceOnUse" x="0" y="0" width="198" height="197">
<path d="M197.075 0.474121H0.787109V196.762H197.075V0.474121Z" fill="white"/>
</mask>
<g mask="url(#mask23_1140_876)">
<path d="M30.412 255.248C29.0671 252.195 27.4677 249.796 25.3957 247.724C20.8521 243.18 15.2906 241.545 9.4201 239.836C3.24067 238.037 -3.13868 236.165 -8.51842 230.785C-13.8982 225.405 -15.7702 219.026 -17.5695 212.847C-19.2961 206.976 -20.9136 201.433 -25.4573 196.871C-27.5292 194.799 -29.9283 193.2 -32.9817 191.855L-31.1279 187.638C-27.5838 189.201 -24.6576 191.164 -22.204 193.618C-16.8243 198.997 -14.9523 205.377 -13.153 211.556C-11.4264 217.427 -9.80883 222.97 -5.26513 227.532C-0.721432 232.076 4.84005 233.711 10.7105 235.42C16.8899 237.219 23.2693 239.091 28.649 244.471C31.1208 246.924 33.0655 249.85 34.6285 253.395L30.412 255.248Z" fill="#6A2978"/>
</g>
</g>
<defs>
<clipPath id="clip0_1140_876">
<rect width="196.288" height="196.288" fill="white" transform="translate(0.787109 0.474121)"/>
</clipPath>
</defs>
</svg>
