<svg width="427" height="215" viewBox="0 0 427 215" fill="none" xmlns="http://www.w3.org/2000/svg">
<path d="M-103.113 127.466C-103.113 127.466 -102.401 124.541 -100.74 119.401C-99.1193 114.182 -96.5494 106.67 -92.6748 97.2995C-88.7606 87.9688 -83.5813 76.7798 -76.346 64.6024C-69.0712 52.504 -59.859 39.2986 -47.3653 27.0027C-35.0298 14.6671 -18.8987 3.51764 0.395416 -2.65015C10.0029 -5.77356 20.3221 -7.47366 30.918 -7.59225C41.2767 -7.8295 51.3982 -8.58069 60.7289 -12.9298C65.4339 -14.9066 69.5852 -18.0696 73.4994 -21.4698C77.1368 -25.1862 80.5765 -29.219 83.265 -33.8844C88.8398 -43.057 92.6749 -53.4948 96.0355 -64.1302C102.757 -85.4407 107.62 -108.293 119.362 -128.576C125.214 -138.618 133.319 -147.593 143.164 -153.879C153.008 -160.205 164.316 -163.724 175.544 -165.305C186.892 -167.085 198.16 -166.333 209.072 -166.927C220.024 -167.44 230.857 -168.548 241.097 -171.315C251.337 -174.043 260.905 -178.59 268.536 -185.311C276.087 -192.112 281.741 -200.573 286.288 -209.192C295.342 -226.548 302.3 -243.866 310.484 -259.008C326.299 -289.61 344.249 -312.186 357.336 -327.289C363.978 -334.801 369.316 -340.573 373.111 -344.329C376.867 -348.164 378.844 -350.22 378.844 -350.22C378.844 -350.22 376.867 -348.164 373.151 -344.29C369.395 -340.455 364.097 -334.643 357.533 -327.091C344.605 -311.869 326.892 -289.175 311.433 -258.494C303.447 -243.312 296.646 -225.995 287.711 -208.401C283.204 -199.624 277.55 -190.965 269.801 -183.809C261.972 -176.771 252.049 -171.987 241.65 -169.101C231.173 -166.175 220.221 -164.95 209.151 -164.317C198.081 -163.566 186.852 -164.238 175.9 -162.38C164.949 -160.719 154.155 -157.2 144.864 -151.072C135.533 -144.983 127.942 -136.443 122.407 -126.717C111.257 -107.067 106.592 -84.4127 100.029 -62.8651C96.7472 -52.0319 92.9121 -41.2778 87.1001 -31.4726C84.293 -26.5305 80.6556 -22.1024 76.7019 -18.03C72.4714 -14.274 67.9247 -10.7552 62.7453 -8.50159L58.9102 -6.72241L54.917 -5.4968C52.3075 -4.54788 49.5795 -4.03394 46.8119 -3.63855C44.0443 -3.08505 41.3953 -2.80826 38.7859 -2.76871L30.9575 -2.37335C20.8756 -2.17566 11.0704 -0.436035 2.01643 2.60831C-16.2101 8.61795 -31.4319 19.3325 -43.1744 31.3122C-55.0751 43.2128 -63.8918 56.1019 -70.8108 67.9235C-77.7298 79.7846 -82.6719 90.7759 -86.3884 99.9089C-90.1049 109.082 -92.5562 116.475 -94.0586 121.496C-95.6005 126.596 -96.2331 129.206 -96.2331 129.206L-103.113 127.466Z" fill="#FFE66E"/>
<path d="M-90.4607 140.118C-90.4607 140.118 -89.749 137.192 -88.0885 132.053C-86.4675 126.834 -83.858 119.322 -80.0229 109.951C-76.1087 100.581 -70.9294 89.3921 -63.6941 77.2542C-56.4193 65.1559 -47.2072 51.911 -34.7135 39.615C-22.3779 27.2794 -6.24681 16.13 13.0473 10.0017C22.6548 6.87833 33.0135 5.17822 43.5699 5.02005C53.9286 4.78284 64.05 4.03165 73.3808 -0.317444C78.0857 -2.29428 82.2371 -5.45724 86.1513 -8.8179C89.7887 -12.5344 93.2284 -16.5671 95.9169 -21.2325C101.492 -30.4051 105.327 -40.8033 108.687 -51.4784C115.448 -72.7493 120.311 -95.6412 132.054 -115.884C137.945 -125.927 146.01 -134.902 155.855 -141.188C165.7 -147.553 177.007 -151.033 188.236 -152.654C199.583 -154.433 210.891 -153.642 221.803 -154.275C232.755 -154.789 243.588 -155.896 253.828 -158.663C264.068 -161.391 273.636 -165.938 281.306 -172.659C288.858 -179.46 294.511 -187.921 299.058 -196.54C308.112 -213.897 315.11 -231.214 323.255 -246.317C339.07 -276.919 357.02 -299.534 370.106 -314.597C376.748 -322.109 382.086 -327.882 385.882 -331.638C389.638 -335.473 391.614 -337.529 391.614 -337.529C391.614 -337.529 389.638 -335.473 385.921 -331.598C382.165 -327.763 376.867 -321.951 370.304 -314.4C357.375 -299.178 339.663 -276.444 324.204 -245.803C316.217 -230.621 309.417 -213.303 300.482 -195.709C295.974 -186.972 290.32 -178.274 282.571 -171.117C274.743 -164.08 264.859 -159.296 254.421 -156.41C243.944 -153.484 232.992 -152.258 221.921 -151.626C210.851 -150.874 199.662 -151.547 188.71 -149.688C177.759 -148.028 166.925 -144.509 157.634 -138.381C148.303 -132.292 140.752 -123.752 135.177 -114.026C124.028 -94.376 119.362 -71.7213 112.799 -50.1736C109.518 -39.3405 105.683 -28.5864 99.8706 -18.8208C97.0635 -13.8786 93.4261 -9.4505 89.4724 -5.37817C85.2419 -1.58261 80.6556 1.93616 75.4763 4.15024L71.6412 5.88989L67.6479 7.11551C65.0385 8.02487 62.3104 8.5784 59.5428 8.97375C56.7752 9.52728 54.1263 9.80405 51.5168 9.8436L43.6885 10.239C33.6065 10.4762 23.8013 12.1763 14.7474 15.2206C-3.43967 21.2303 -18.701 31.9843 -30.4435 43.9245C-42.3441 55.8252 -51.1609 68.7142 -58.0799 80.5358C-64.9988 92.3969 -69.9805 103.388 -73.6575 112.521C-77.3344 121.694 -79.8252 129.048 -81.3276 134.108C-82.8696 139.209 -83.5022 141.858 -83.5022 141.858L-90.4607 140.118Z" fill="#FFE66E"/>
<path d="M-77.7693 152.81C-77.7693 152.81 -77.0576 149.884 -75.3971 144.744C-73.776 139.565 -71.1666 132.013 -67.292 122.643C-63.3778 113.272 -58.1985 102.083 -50.9632 89.9456C-43.7279 77.8473 -34.4762 64.6024 -21.9825 52.3459C-9.64698 40.0103 6.52366 28.8609 25.7782 22.6931C35.3857 19.5697 45.7444 17.8696 56.3008 17.7115C66.6595 17.4742 76.781 16.723 86.1117 12.3739C90.8166 10.3971 94.968 7.27368 98.8822 3.87347C102.52 0.157013 105.959 -3.87576 108.648 -8.54114C114.223 -17.7137 118.058 -28.1515 121.418 -38.787C128.1 -60.0974 132.963 -82.9498 144.706 -103.232C150.557 -113.275 158.623 -122.25 168.507 -128.536C178.352 -134.902 189.659 -138.381 200.888 -140.002C212.235 -141.781 223.542 -140.99 234.455 -141.623C245.406 -142.137 256.24 -143.244 266.48 -146.011C276.72 -148.739 286.288 -153.286 293.918 -160.008C301.47 -166.808 307.124 -175.269 311.67 -183.888C320.724 -201.245 327.722 -218.562 335.867 -233.705C351.682 -264.306 369.632 -286.882 382.718 -301.985C389.361 -309.458 394.698 -315.23 398.494 -319.025C402.25 -322.861 404.227 -324.917 404.227 -324.917C404.227 -324.917 402.25 -322.861 398.533 -318.986C394.777 -315.151 389.479 -309.339 382.916 -301.787C369.988 -286.566 352.275 -263.832 336.816 -233.191C328.83 -218.008 322.029 -200.691 313.094 -183.097C308.587 -174.32 302.933 -165.661 295.184 -158.505C287.355 -151.468 277.431 -146.684 266.994 -143.797C256.516 -140.872 245.565 -139.646 234.494 -139.013C223.424 -138.302 212.235 -138.934 201.283 -137.116C190.331 -135.415 179.498 -131.936 170.207 -125.808C160.876 -119.719 153.285 -111.179 147.75 -101.414C136.6 -81.7637 131.935 -59.109 125.372 -37.5613C122.09 -26.7677 118.255 -15.9741 112.443 -6.20847C109.636 -1.26633 105.999 3.16183 102.045 7.27368C97.8147 11.0297 93.2284 14.5485 88.049 16.8021L84.2535 18.5813L80.2602 19.8069C77.6508 20.7558 74.9227 21.2698 72.1551 21.6652C69.3875 22.2187 66.699 22.4955 64.1291 22.535L56.3008 22.9304C46.2188 23.1281 36.4137 24.8677 27.3597 27.912C9.21217 33.9217 -6.00958 44.6362 -17.7521 56.6159C-29.6527 68.5165 -38.4695 81.4056 -45.3885 93.2272C-52.3074 105.088 -57.2496 116.08 -60.966 125.213C-64.643 134.385 -67.0943 141.779 -68.6362 146.8C-70.1782 151.9 -70.8108 154.51 -70.8108 154.51L-77.7693 152.81Z" fill="#FFE66E"/>
<path d="M-65.1174 165.461C-65.1174 165.461 -64.4058 162.536 -62.7847 157.396C-61.1637 152.177 -58.5543 144.625 -54.6797 135.295C-50.7655 125.964 -45.5466 114.775 -38.3509 102.598C-31.1156 90.4991 -21.8639 77.2542 -9.37021 64.9582C2.96535 52.6227 19.0965 41.4732 38.3905 35.3054C47.998 32.182 58.3172 30.4819 68.8736 30.3633C79.2323 30.1656 89.3538 29.3749 98.6845 24.9863C103.389 23.0094 107.541 19.886 111.455 16.4858C115.092 12.7693 118.532 8.73654 121.221 4.07117C126.795 -5.10141 130.63 -15.4997 133.991 -26.1747C140.752 -47.4456 145.615 -70.298 157.357 -90.5805C163.248 -100.623 171.275 -109.598 181.159 -115.884C191.004 -122.21 202.311 -125.729 213.579 -127.35C224.926 -129.129 236.194 -128.338 247.146 -128.971C258.058 -129.485 268.931 -130.592 279.171 -133.36C289.372 -136.088 298.979 -140.634 306.61 -147.356C314.161 -154.156 319.815 -162.617 324.362 -171.236C333.416 -188.593 340.414 -205.91 348.559 -221.053C364.373 -251.654 382.323 -274.23 395.41 -289.333C402.052 -296.845 407.39 -302.618 411.225 -306.374C414.981 -310.209 416.958 -312.265 416.958 -312.265C416.958 -312.265 414.981 -310.209 411.264 -306.334C407.508 -302.499 402.21 -296.687 395.647 -289.135C382.719 -273.914 365.006 -251.18 349.547 -220.539C341.56 -205.396 334.8 -188.079 325.825 -170.485C321.318 -161.708 315.664 -153.049 307.915 -145.893C300.086 -138.855 290.162 -134.032 279.725 -131.185C269.247 -128.259 258.296 -127.034 247.225 -126.401C236.115 -125.689 224.966 -126.322 214.014 -124.464C203.062 -122.764 192.229 -119.284 182.977 -113.156C173.647 -107.067 166.056 -98.4879 160.481 -88.7618C149.331 -69.1119 144.666 -46.4571 138.103 -24.9095C134.821 -14.0763 130.986 -3.32227 125.174 6.44339C122.367 11.3855 118.73 15.8137 114.776 19.9255C110.546 23.6815 105.959 27.2004 100.82 29.454L96.9844 31.1936L92.9912 32.4193C90.3817 33.3681 87.6537 33.8821 84.8861 34.2775C82.1185 34.831 79.4695 35.1078 76.8996 35.1473L69.0317 35.5427C58.9498 35.7404 49.1446 37.48 40.0906 40.5244C21.8641 46.534 6.64229 57.2485 -5.10021 69.2282C-17.0009 81.1289 -25.8176 94.0179 -32.7366 105.84C-39.6556 117.701 -44.6372 128.692 -48.3537 137.825C-52.0307 146.998 -54.482 154.351 -56.0239 159.412C-57.5659 164.512 -58.1985 167.161 -58.1985 167.161L-65.1174 165.461Z" fill="#FFE66E"/>
<path d="M-52.426 178.153C-52.426 178.153 -51.7144 175.227 -50.0933 170.087C-48.4723 164.908 -45.8629 157.356 -41.9882 147.986C-38.1136 138.655 -32.8947 127.466 -25.6594 115.289C-18.4242 103.191 -9.1725 89.9457 3.3212 77.6892C15.6568 65.3537 31.7879 54.2042 51.0819 48.0365C60.6894 44.913 71.0086 43.2129 81.565 43.0548C91.9237 42.8571 102.045 42.0663 111.376 37.7173C116.12 35.7404 120.232 32.5775 124.146 29.2168C127.784 25.5003 131.224 21.4676 133.912 16.8022C139.487 7.62961 143.322 -2.80817 146.683 -13.4436C153.443 -34.7146 158.267 -57.567 170.009 -77.8495C175.9 -87.8919 185.033 -87.2988 194.878 -93.5852C204.723 -99.9111 214.923 -112.998 226.191 -114.579C237.539 -116.359 248.807 -115.568 259.758 -116.2C270.671 -116.714 281.543 -117.821 291.783 -120.549C301.984 -123.278 311.591 -127.824 319.222 -134.546C326.774 -141.346 332.428 -149.807 336.974 -158.426C346.028 -175.783 352.987 -193.139 361.171 -208.243C376.946 -238.844 394.936 -261.42 408.022 -276.523C414.665 -283.996 420.002 -289.768 423.798 -293.564C427.554 -297.399 429.53 -299.455 429.53 -299.455C429.53 -299.455 427.554 -297.399 423.837 -293.524C420.081 -289.689 414.783 -283.877 408.22 -276.325C395.291 -261.104 377.579 -238.409 362.12 -207.729C354.094 -192.546 347.333 -175.269 338.398 -157.635C333.89 -148.898 328.237 -140.199 320.487 -133.083C312.659 -126.045 302.735 -121.222 292.337 -118.335C281.86 -115.41 270.908 -114.184 259.838 -113.551C248.767 -112.84 237.539 -113.472 226.587 -111.654C215.635 -109.993 204.841 -106.474 195.55 -100.346C186.22 -94.2574 178.628 -85.7174 173.093 -75.9517C161.944 -56.3018 157.278 -33.6866 150.715 -12.0994C147.434 -1.26624 143.599 9.48782 137.787 19.2535C134.98 24.1956 131.342 28.6237 127.388 32.6961C123.158 36.4916 118.572 39.9709 113.432 42.2245L109.597 44.0037L105.604 45.1898C102.994 46.1386 100.266 46.6526 97.4984 47.048C94.7308 47.6411 92.0819 47.8783 89.4724 47.9574L81.6441 48.3527C71.5621 48.5504 61.757 50.2901 52.703 53.3344C34.5159 59.344 19.2546 70.0981 7.51213 82.0383C-4.38852 93.939 -13.2053 106.828 -20.1243 118.65C-27.0432 130.511 -32.0249 141.502 -35.7019 150.635C-39.4183 159.808 -41.8696 167.162 -43.372 172.222C-44.914 177.323 -45.5466 179.972 -45.5466 179.972L-52.426 178.153Z" fill="#FFE66E"/>
<path d="M-39.7742 190.805C-39.7742 190.805 -39.0625 187.879 -37.4019 182.739C-35.7809 177.56 -33.1715 170.008 -29.2969 160.638C-25.4222 151.268 -20.2033 140.079 -12.9681 127.941C-5.69324 115.842 3.51889 102.598 16.0126 90.341C28.3482 78.0055 44.4793 66.856 63.7733 60.6883C73.3413 57.5648 83.7 55.8647 94.2564 55.7461C104.615 55.5089 114.737 54.7577 124.067 50.3691C128.812 48.3922 132.924 45.2688 136.838 41.8686C140.475 38.1521 143.915 34.1194 146.603 29.454C152.178 20.2814 156.013 9.84363 159.374 -0.79184C166.135 -22.0627 170.998 -44.9152 182.701 -65.1977C188.592 -75.2401 196.657 -84.215 206.502 -90.5014C216.347 -96.8273 227.654 -100.346 238.883 -101.967C250.23 -103.746 261.498 -102.956 272.41 -103.588C283.323 -104.102 294.195 -105.209 304.435 -107.977C314.636 -110.705 324.243 -115.252 331.874 -121.973C339.426 -128.773 345.079 -137.234 349.626 -145.853C358.68 -163.21 365.678 -180.527 373.823 -195.67C389.638 -226.272 407.587 -248.847 420.674 -263.95C427.316 -271.462 432.654 -277.235 436.449 -281.03C440.205 -284.865 442.182 -286.921 442.182 -286.921C442.182 -286.921 440.205 -284.865 436.489 -280.991C432.733 -277.156 427.435 -271.344 420.872 -263.792C407.943 -248.57 390.231 -225.876 374.772 -195.195C366.746 -180.013 359.985 -162.696 351.049 -145.102C346.542 -136.325 340.888 -127.666 333.139 -120.51C325.429 -113.472 315.506 -108.688 305.107 -105.802C294.63 -102.876 283.678 -101.651 272.568 -101.018C261.498 -100.307 250.309 -100.939 239.357 -99.0809C228.406 -97.4203 217.612 -93.9411 208.281 -87.8129C198.99 -81.7242 191.399 -73.1842 185.824 -63.4185C174.675 -43.7686 170.009 -21.1139 163.407 0.433838C160.125 11.267 156.29 22.021 150.478 31.7867C147.671 36.7288 144.034 41.157 140.08 45.2293C135.849 49.0248 131.303 52.5041 126.123 54.7577L122.288 56.5369L118.295 57.7625C115.685 58.6719 112.957 59.2254 110.19 59.6208C107.422 60.1743 104.773 60.451 102.164 60.4906L94.3355 60.886C84.2535 61.1232 74.4483 62.8233 65.3944 65.8676C47.1678 71.8773 31.946 82.5918 20.2035 94.5715C8.30287 106.472 -0.513889 119.361 -7.43287 131.222C-14.3519 143.083 -19.294 154.075 -23.0105 163.208C-26.7269 172.38 -29.1782 179.734 -30.6807 184.795C-32.2226 189.895 -32.8552 192.505 -32.8552 192.505L-39.7742 190.805Z" fill="#FFE66E"/>
<path d="M-25.1851 201.322C-25.1851 201.322 -24.4734 198.396 -22.8128 193.256C-21.1918 188.037 -18.5824 180.525 -14.7473 171.155C-10.8331 161.824 -5.65376 150.635 1.58151 138.458C8.85633 126.32 18.0685 113.114 30.5622 100.818C42.8977 88.4828 59.0288 77.3334 78.3229 71.1656C87.9304 68.0421 98.2496 66.3421 108.845 66.2234C119.204 66.0258 129.326 65.235 138.656 60.886C143.361 58.9091 147.513 55.7462 151.427 52.346C155.064 48.6295 158.504 44.5967 161.193 39.9313C166.767 30.7587 170.602 20.321 173.963 9.68549C180.724 -11.5854 185.587 -34.4774 197.329 -54.7204C203.181 -64.7628 211.286 -73.7377 221.131 -80.0241C230.975 -86.35 242.283 -89.8688 253.512 -91.4503C264.859 -93.2294 276.166 -92.4387 287.078 -93.0713C297.991 -93.5853 308.863 -94.6923 319.103 -97.4599C329.344 -100.188 338.911 -104.735 346.582 -111.456C354.133 -118.256 359.787 -126.717 364.334 -135.336C373.388 -152.693 380.386 -170.01 388.53 -185.153C404.345 -215.755 422.295 -238.33 435.382 -253.434C442.024 -260.946 447.362 -266.718 451.157 -270.474C454.913 -274.309 456.89 -276.365 456.89 -276.365C456.89 -276.365 454.913 -274.309 451.197 -270.434C447.441 -266.599 442.143 -260.787 435.58 -253.236C422.651 -238.014 404.938 -215.28 389.479 -184.639C381.493 -169.457 374.693 -152.14 365.757 -134.546C361.25 -125.808 355.596 -117.11 347.847 -109.993C340.019 -102.916 330.095 -98.132 319.697 -95.2458C309.219 -92.3201 298.267 -91.0944 287.158 -90.4618C276.087 -89.7106 264.859 -90.3828 253.946 -88.5245C242.995 -86.864 232.162 -83.3452 222.87 -77.2169C213.54 -71.1282 205.988 -62.5882 200.413 -52.8621C189.264 -33.2122 184.598 -10.5575 178.035 10.9902C174.754 21.7838 170.919 32.5774 165.107 42.3431C162.3 47.2852 158.662 51.7133 154.708 55.7857C150.478 59.5812 145.892 63.0605 140.752 65.3141L136.917 67.0933L132.924 68.3189C130.314 69.2283 127.586 69.7818 124.818 70.1772C122.051 70.7307 119.402 71.0074 116.792 71.047L108.964 71.4423C98.8822 71.64 89.077 73.3797 80.023 76.424C61.7964 82.4336 46.5747 93.1482 34.8322 105.128C22.9315 117.029 14.1148 129.918 7.19577 141.739C0.276793 153.6 -4.66534 164.592 -8.38182 173.725C-12.0983 182.897 -14.5496 190.291 -16.052 195.312C-17.5939 200.412 -18.2265 203.061 -18.2265 203.061L-25.1851 201.322Z" fill="#FFE66E"/>
<path d="M-14.4309 216.148C-14.4309 216.148 -13.7192 213.222 -12.0587 208.082C-10.4377 202.863 -7.86776 195.351 -3.95359 185.981C-0.0394249 176.611 5.13993 165.422 12.3752 153.284C19.6105 141.186 28.8622 127.941 41.3559 115.684C53.6914 103.349 69.8225 92.1993 89.1166 86.0315C98.7241 82.9081 109.083 81.208 119.639 81.0498C129.998 80.8522 140.119 80.0614 149.45 75.7123C154.155 73.7355 158.306 70.5725 162.221 67.2119C165.858 63.4954 169.298 59.4626 171.986 54.7972C177.561 45.6247 181.396 35.2264 184.757 24.5514C191.518 3.28049 196.381 -19.5719 208.123 -39.8544C214.014 -49.8968 222.08 -58.8717 231.924 -65.1581C241.769 -71.484 253.077 -75.0028 264.305 -76.6239C275.652 -78.403 286.96 -77.6123 297.872 -78.2449C308.824 -78.7589 319.657 -79.8659 329.897 -82.6335C340.137 -85.3615 349.705 -89.9083 357.375 -96.6296C364.927 -103.43 370.581 -111.891 375.128 -120.549C384.182 -137.906 391.18 -155.223 399.324 -170.327C415.139 -200.928 433.089 -223.504 446.176 -238.607C452.818 -246.119 458.155 -251.892 461.951 -255.648C465.707 -259.483 467.684 -261.539 467.684 -261.539C467.684 -261.539 465.707 -259.483 461.99 -255.608C458.234 -251.773 452.936 -245.961 446.373 -238.409C433.445 -223.188 415.732 -200.454 400.273 -169.813C392.287 -154.63 385.526 -137.313 376.551 -119.719C372.004 -110.982 366.35 -102.283 358.601 -95.1667C350.773 -88.1291 340.888 -83.3452 330.451 -80.459C319.973 -77.5332 309.022 -76.3076 297.951 -75.675C286.881 -74.9633 275.692 -75.5959 264.74 -73.7772C253.788 -72.1166 242.955 -68.5978 233.664 -62.4696C224.333 -56.3809 216.782 -47.8409 211.207 -38.1148C200.058 -18.4254 195.392 4.18985 188.829 25.7375C185.547 36.5707 181.712 47.3248 175.9 57.0904C173.093 62.0325 169.456 66.4607 165.502 70.533C161.272 74.3286 156.685 77.8474 151.506 80.0614L147.671 81.8011L143.678 83.0267C141.068 83.936 138.34 84.4896 135.573 84.8849C132.805 85.4384 130.156 85.7152 127.586 85.7548L119.718 86.1501C109.636 86.3874 99.8311 88.0874 90.7772 91.1318C72.5506 97.1414 57.3288 107.856 45.5863 119.836C33.6857 131.736 24.8689 144.625 17.9499 156.447C11.0309 168.308 6.08882 179.299 2.37234 188.432C-1.30461 197.605 -3.79544 204.959 -5.29785 210.02C-6.8398 215.12 -7.47239 217.769 -7.47239 217.769L-14.4309 216.148Z" fill="#FFE66E"/>
<path d="M-1.7395 228.839C-1.7395 228.839 -1.02784 225.914 0.63272 220.774C2.25374 215.555 4.86318 208.003 8.73781 198.673C12.6124 189.342 17.8313 178.113 25.0666 165.975C32.3019 153.877 41.5536 140.672 54.0473 128.376C66.3828 116.04 82.5535 104.891 101.808 98.7229C111.416 95.5995 121.774 93.8994 132.331 93.7808C142.689 93.5436 152.811 92.8319 162.142 88.4433C166.846 86.4665 170.998 83.3035 174.912 79.9428C178.549 76.2263 181.989 72.1936 184.678 67.5282C190.252 58.3556 194.087 47.9178 197.448 37.2824C204.169 16.0114 209.072 -6.84094 220.815 -27.1234C226.666 -37.1659 234.732 -46.1408 244.616 -52.4272C254.461 -58.7531 265.768 -62.2719 276.997 -63.8929C288.344 -65.6721 299.651 -64.8813 310.564 -65.5139C321.476 -66.0279 332.349 -67.1349 342.589 -69.9025C352.829 -72.6306 362.397 -77.1773 370.027 -83.8986C377.579 -90.699 383.233 -99.1599 387.779 -107.779C396.833 -125.136 403.831 -142.453 411.976 -157.596C427.791 -188.197 445.741 -210.773 458.828 -225.876C465.47 -233.349 470.807 -239.121 474.642 -242.917C478.359 -246.752 480.375 -248.808 480.375 -248.808C480.375 -248.808 478.398 -246.752 474.682 -242.877C470.926 -239.042 465.628 -233.23 459.065 -225.678C446.136 -210.457 428.424 -187.723 412.965 -157.082C404.978 -141.899 398.178 -124.582 389.242 -106.988C384.735 -98.211 379.081 -89.5524 371.332 -82.3962C363.504 -75.3586 353.58 -70.5747 343.142 -67.6884C332.665 -64.7627 321.713 -63.5371 310.643 -62.9045C299.533 -62.1928 288.383 -62.8254 277.432 -61.0067C266.48 -59.3066 255.647 -55.8273 246.355 -49.6991C237.025 -43.6104 229.473 -35.0704 223.898 -25.3047C212.749 -5.65483 208.084 16.9999 201.52 38.5476C198.239 49.3412 194.404 60.1348 188.592 69.9004C185.785 74.8426 182.147 79.2707 178.194 83.3826C173.963 87.1386 169.377 90.6574 164.197 92.911L160.402 94.6506L156.409 95.8763C153.799 96.8252 151.071 97.3391 148.304 97.7345C145.536 98.288 142.887 98.5648 140.278 98.6043L132.449 98.9997C122.367 99.1974 112.562 100.937 103.508 103.981C85.2815 109.991 70.0598 120.706 58.3173 132.685C46.4166 144.586 37.5999 157.475 30.6809 169.297C23.7619 181.158 18.8198 192.149 15.1033 201.282C11.4263 210.455 8.97504 217.848 7.43309 222.869C5.89115 227.97 5.25855 230.619 5.25855 230.619L-1.7395 228.839Z" fill="#FFE66E"/>
<path d="M10.9124 241.491C10.9124 241.491 11.624 238.565 13.245 233.426C14.8661 228.207 17.4755 220.695 21.3501 211.324C25.2248 201.994 30.4437 190.805 37.6789 178.627C44.9142 166.529 54.1659 153.284 66.6596 140.988C78.9951 128.652 95.1262 117.503 114.42 111.375C124.028 108.251 134.347 106.512 144.903 106.393C155.262 106.195 165.384 105.405 174.714 101.056C179.419 99.0788 183.571 95.9158 187.485 92.5551C191.122 88.8387 194.562 84.8059 197.25 80.1405C202.825 70.9679 206.66 60.5697 210.021 49.8947C216.742 28.6237 221.605 5.7318 233.348 -14.5112C239.239 -24.5536 247.304 -33.5285 257.149 -39.8149C266.994 -46.1408 278.301 -49.6596 289.53 -51.2806C300.877 -53.0598 312.145 -52.269 323.097 -52.9016C334.009 -53.4156 344.882 -54.5226 355.122 -57.2902C365.322 -60.0183 374.93 -64.565 382.561 -71.2863C390.112 -78.0867 395.766 -86.5476 400.313 -95.1667C409.367 -112.523 416.365 -129.841 424.509 -144.983C440.324 -175.585 458.274 -198.161 471.361 -213.264C478.003 -220.776 483.34 -226.548 487.136 -230.304C490.892 -234.139 492.869 -236.195 492.869 -236.195C492.869 -236.195 490.892 -234.139 487.176 -230.265C483.419 -226.43 478.122 -220.618 471.558 -213.066C458.63 -197.844 440.917 -175.111 425.458 -144.469C417.432 -129.287 410.671 -112.009 401.736 -94.4155C397.229 -85.6383 391.575 -76.9797 383.826 -69.8235C375.997 -62.7859 366.074 -57.9624 355.636 -55.1157C345.159 -52.1899 334.207 -50.9643 323.136 -50.3317C312.066 -49.5805 300.877 -50.2526 289.925 -48.3944C278.973 -46.7338 268.18 -43.215 258.889 -37.0868C249.558 -30.9981 242.006 -22.4581 236.432 -12.732C225.282 6.91791 220.617 29.5726 214.054 51.1203C210.772 61.9535 206.937 72.7076 201.125 82.4732C198.318 87.4153 194.681 91.883 190.727 95.9553C186.496 99.7113 181.91 103.23 176.77 105.484L172.935 107.223L168.942 108.449C166.332 109.398 163.604 109.912 160.837 110.307C158.069 110.861 155.42 111.138 152.85 111.177L145.022 111.572C134.94 111.77 125.135 113.51 116.081 116.554C97.8543 122.564 82.6325 133.278 70.89 145.258C58.9894 157.159 50.1726 170.048 43.2537 181.869C36.3347 193.73 31.353 204.722 27.6365 213.855C23.9596 223.027 21.5083 230.381 19.9663 235.442C18.4244 240.542 17.7918 243.191 17.7918 243.191L10.9124 241.491Z" fill="#FFE66E"/>
<path d="M23.6038 254.183C23.6038 254.183 24.3154 251.257 25.9364 246.117C27.5575 240.938 30.1669 233.386 34.0415 224.016C37.9557 214.646 43.1351 203.457 50.3703 191.319C57.6056 179.22 66.8573 165.975 79.351 153.719C91.6865 141.383 107.818 130.234 127.112 124.066C136.68 120.943 147.038 119.243 157.595 119.085C167.953 118.847 178.075 118.096 187.406 113.747C192.15 111.77 196.262 108.647 200.176 105.247C203.814 101.53 207.253 97.4973 209.942 92.8319C215.517 83.6593 219.352 73.2215 222.712 62.5861C229.473 41.3151 234.297 18.4627 246.039 -1.81975C251.93 -11.8622 259.996 -20.8371 269.84 -27.1235C279.685 -33.4889 290.993 -36.9682 302.261 -38.5892C313.608 -40.3684 324.876 -39.6172 335.788 -40.2102C346.7 -40.7242 357.573 -41.8312 367.813 -44.5988C378.014 -47.3269 387.621 -51.8736 395.252 -58.5949C402.803 -65.3953 408.457 -73.8562 413.004 -82.4753C422.058 -99.8321 429.017 -117.149 437.201 -132.292C453.016 -162.894 470.965 -185.469 484.052 -200.572C490.694 -208.045 496.032 -213.817 499.827 -217.613C503.583 -221.448 505.56 -223.504 505.56 -223.504C505.56 -223.504 503.583 -221.448 499.867 -217.573C496.111 -213.738 490.813 -207.926 484.25 -200.375C471.321 -185.153 453.609 -162.459 438.15 -131.778C430.124 -116.596 423.363 -99.2785 414.427 -81.6846C409.92 -72.9469 404.266 -64.2487 396.517 -57.1321C388.689 -50.0945 378.765 -45.271 368.367 -42.3848C357.889 -39.459 346.938 -38.2334 335.867 -37.6008C324.797 -36.8891 313.568 -37.5217 302.617 -35.703C291.665 -34.0029 280.871 -30.5237 271.58 -24.3954C262.289 -18.3067 254.698 -9.76668 249.123 -0.0010376C237.974 19.6489 233.308 42.264 226.745 63.8513C223.463 74.6844 219.628 85.4385 213.816 95.2041C211.009 100.146 207.372 104.574 203.418 108.647C199.188 112.442 194.641 115.922 189.462 118.175L185.627 119.954L181.633 121.14C179.024 122.089 176.256 122.603 173.528 122.999C170.761 123.552 168.112 123.829 165.502 123.868L157.674 124.264C147.592 124.462 137.787 126.201 128.733 129.246C110.546 135.255 95.2844 145.97 83.5419 157.949C71.6413 169.85 62.8245 182.739 55.9055 194.561C48.9865 206.422 44.0049 217.413 40.3279 226.546C36.6114 235.719 34.1601 243.073 32.6577 248.133C31.1158 253.194 30.4832 255.843 30.4832 255.843L23.6038 254.183Z" fill="#FFE66E"/>
<path d="M36.2554 266.834C36.2554 266.834 36.967 263.909 38.5881 258.769C40.2091 253.59 42.779 246.038 46.6931 236.668C50.6073 227.297 55.7867 216.108 63.0219 203.971C70.2968 191.872 79.5089 178.627 92.0026 166.371C104.338 154.035 120.469 142.886 139.763 136.718C149.331 133.595 159.69 131.895 170.246 131.776C180.605 131.578 190.727 130.787 200.057 126.399C204.802 124.422 208.914 121.299 212.828 117.898C216.465 114.182 219.905 110.149 222.593 105.484C228.168 96.3112 232.003 85.8734 235.364 75.2379C242.125 53.967 246.988 31.1146 258.691 10.8321C264.582 0.789703 272.647 -8.18521 282.492 -14.4716C292.337 -20.7975 303.644 -24.3163 314.873 -25.9373C326.22 -27.7165 337.488 -26.9258 348.4 -27.5583C359.312 -28.0723 370.185 -29.1794 380.425 -31.947C390.665 -34.675 400.233 -39.2218 407.864 -45.9431C415.416 -52.7435 421.069 -61.2044 425.616 -69.8235C434.67 -87.1802 441.629 -104.497 449.813 -119.64C465.628 -150.242 483.577 -172.817 496.664 -187.921C503.306 -195.433 508.644 -201.205 512.439 -205.001C516.195 -208.836 518.172 -210.892 518.172 -210.892C518.172 -210.892 516.195 -208.836 512.479 -204.961C508.723 -201.165 503.425 -195.314 496.862 -187.762C483.933 -172.541 466.221 -149.807 450.762 -119.166C442.736 -103.983 435.975 -86.6662 427.039 -69.0723C422.532 -60.3346 416.878 -51.6364 409.129 -44.5197C401.301 -37.4821 391.417 -32.6982 380.979 -29.812C370.501 -26.8862 359.55 -25.6606 348.44 -25.028C337.369 -24.3163 326.18 -24.9489 315.229 -23.0907C304.277 -21.4301 293.483 -17.9509 284.192 -11.7831C274.861 -5.73392 267.27 2.84561 261.735 12.5717C250.586 32.2216 245.92 54.8763 239.318 76.424C236.036 87.2177 232.201 98.0113 226.389 107.777C223.582 112.719 219.944 117.187 215.991 121.22C211.76 125.015 207.214 128.534 202.034 130.748L198.199 132.527L194.206 133.753C191.596 134.662 188.868 135.216 186.101 135.611C183.333 136.165 180.684 136.441 178.075 136.481L170.246 136.876C160.164 137.074 150.359 138.814 141.305 141.858C123.079 147.867 107.857 158.582 96.1144 170.562C84.2138 182.462 75.397 195.351 68.4781 207.213C61.5591 219.074 56.6169 230.065 52.9005 239.198C49.184 248.371 46.7327 255.764 45.2303 260.785C43.6883 265.886 43.0557 268.535 43.0557 268.535L36.2554 266.834Z" fill="#FFE66E"/>
<path d="M48.9468 279.526C48.9468 279.526 49.6584 276.6 51.319 271.46C52.94 266.241 55.5099 258.729 59.3846 249.359C63.2987 240.028 68.4781 228.839 75.7134 216.662C82.9882 204.524 92.2003 191.318 104.694 179.062C117.03 166.726 133.161 155.577 152.455 149.409C162.062 146.286 172.381 144.586 182.977 144.467C193.336 144.23 203.458 143.479 212.788 139.13C217.493 137.153 221.645 133.99 225.559 130.59C229.196 126.873 232.636 122.84 235.324 118.175C240.899 109.002 244.734 98.6041 248.095 87.9291C254.856 66.6581 259.719 43.8058 271.461 23.5233C277.313 13.4809 285.418 4.50595 295.263 -1.78044C305.107 -8.10637 316.415 -11.6252 327.643 -13.2066C338.99 -14.9858 350.298 -14.1951 361.21 -14.8277C372.122 -15.3416 382.995 -16.4487 393.235 -19.2163C403.436 -21.9443 413.043 -26.4911 420.674 -33.2124C428.226 -40.0128 433.879 -48.4737 438.426 -57.1323C447.48 -74.489 454.478 -91.8063 462.623 -106.949C478.438 -137.551 496.387 -160.126 509.474 -175.229C516.116 -182.741 521.454 -188.514 525.249 -192.27C529.005 -196.105 530.982 -198.161 530.982 -198.161C530.982 -198.161 529.005 -196.105 525.289 -192.23C521.533 -188.395 516.235 -182.583 509.672 -175.032C496.743 -159.81 479.031 -137.076 463.572 -106.435C455.585 -91.2527 448.824 -73.9751 439.849 -56.3415C435.342 -47.6039 429.688 -38.9057 421.939 -31.7891C414.111 -24.7515 404.187 -19.9279 393.789 -17.0417C383.311 -14.116 372.36 -12.8904 361.25 -12.2578C350.179 -11.5461 338.99 -12.1787 328.039 -10.36C317.087 -8.69942 306.254 -5.18063 296.963 0.947617C287.632 7.03632 280.08 15.5763 274.506 25.3024C263.356 44.9523 258.691 67.6071 252.128 89.1547C248.846 99.9483 245.011 110.742 239.199 120.508C236.392 125.45 232.754 129.878 228.801 133.95C224.57 137.746 219.984 141.225 214.844 143.479L211.009 145.258L207.016 146.483C204.406 147.393 201.678 147.946 198.911 148.342C196.143 148.935 193.494 149.172 190.924 149.211L183.056 149.607C172.974 149.805 163.169 151.544 154.115 154.589C135.889 160.598 120.667 171.313 108.924 183.292C97.0238 195.193 88.2071 208.082 81.2881 219.904C74.3691 231.765 69.427 242.756 65.7105 251.889C61.994 261.062 59.5427 268.416 58.0403 273.476C56.4984 278.577 55.8658 281.186 55.8658 281.186L48.9468 279.526Z" fill="#FFE66E"/>
<path d="M61.5986 292.177C61.5986 292.177 62.3103 289.252 63.9709 284.112C65.5919 278.933 68.2013 271.381 72.0759 262.011C75.9901 252.64 81.1695 241.451 88.4047 229.314C95.64 217.215 104.892 203.97 117.385 191.714C129.721 179.378 145.892 168.229 165.146 162.061C174.754 158.938 185.112 157.238 195.669 157.079C206.027 156.842 216.149 156.13 225.48 151.742C230.185 149.765 234.336 146.602 238.25 143.241C241.887 139.525 245.327 135.492 248.016 130.827C253.59 121.654 257.426 111.256 260.786 100.581C267.547 79.31 272.41 56.4576 284.153 36.1751C290.004 26.1327 298.07 17.1578 307.954 10.8714C317.799 4.50595 329.106 1.0267 340.335 -0.59433C351.682 -2.37349 362.989 -1.62228 373.902 -2.21535C384.814 -2.72932 395.687 -3.83636 405.927 -6.60396C416.167 -9.33202 425.735 -13.8788 433.405 -20.6001C440.956 -27.4004 446.61 -35.8614 451.157 -44.4804C460.211 -61.8372 467.209 -79.1544 475.354 -94.2971C491.168 -124.899 509.118 -147.474 522.205 -162.578C528.847 -170.05 534.185 -175.862 537.98 -179.618C541.736 -183.453 543.713 -185.509 543.713 -185.509C543.713 -185.509 541.736 -183.453 538.02 -179.578C534.264 -175.743 528.966 -169.931 522.403 -162.38C509.474 -147.158 491.762 -124.424 476.303 -93.7831C468.316 -78.6009 461.555 -61.2837 452.58 -43.6897C448.073 -34.9125 442.419 -26.2539 434.67 -19.0977C426.842 -12.0601 416.918 -7.27608 406.48 -4.38988C396.003 -1.46414 385.051 -0.238495 373.981 0.394104C362.91 1.10577 351.721 0.473175 340.77 2.29187C329.818 3.95244 318.985 7.47122 309.694 13.5995C300.363 19.6882 292.811 28.2282 287.236 37.9543C276.087 57.6437 271.422 80.2589 264.859 101.807C261.577 112.64 257.742 123.394 251.93 133.159C249.123 138.102 245.485 142.53 241.532 146.602C237.301 150.398 232.715 153.916 227.536 156.13L223.7 157.87L219.707 159.096C217.098 160.045 214.37 160.559 211.602 160.954C208.835 161.508 206.186 161.784 203.616 161.824L195.748 162.219C185.666 162.456 175.861 164.156 166.807 167.201C148.58 173.21 133.358 183.925 121.616 195.905C109.715 207.805 100.898 220.694 93.9795 232.516C87.0605 244.377 82.1184 255.368 78.4019 264.501C74.7249 273.674 72.2341 281.028 70.7317 286.089C69.1897 291.189 68.5571 293.838 68.5571 293.838L61.5986 292.177Z" fill="#FFE66E"/>
<path d="M74.29 304.869C74.29 304.869 75.0017 301.943 76.6623 296.803C78.2833 291.584 80.8927 284.072 84.7674 274.702C88.642 265.371 93.8609 254.182 101.096 242.005C108.331 229.867 117.583 216.662 130.077 204.366C142.412 192.03 158.583 180.881 177.838 174.713C187.445 171.59 197.804 169.889 208.36 169.771C218.719 169.534 228.84 168.782 238.171 164.433C242.876 162.456 247.027 159.293 250.942 155.933C254.579 152.216 258.019 148.184 260.707 143.518C266.282 134.346 270.117 123.908 273.478 113.272C280.199 92.0014 285.062 69.149 296.805 48.8665C302.696 38.8241 310.722 29.8492 320.606 23.5628C330.451 17.2369 341.758 13.7181 352.987 12.0971C364.334 10.3179 375.641 11.1087 386.554 10.4761C397.466 9.9621 408.338 8.85506 418.579 6.08746C428.779 3.35941 438.387 -1.18735 446.017 -7.90865C453.569 -14.709 459.223 -23.1699 463.769 -31.789C472.823 -49.1458 479.821 -66.463 487.966 -81.6057C503.781 -112.207 521.731 -134.783 534.817 -149.886C541.46 -157.359 546.797 -163.131 550.632 -166.927C554.388 -170.762 556.365 -172.818 556.365 -172.818C556.365 -172.818 554.388 -170.762 550.672 -166.887C546.916 -163.052 541.618 -157.24 535.055 -149.688C522.126 -134.467 504.413 -111.733 488.954 -81.0917C480.968 -65.9095 474.168 -48.5923 465.232 -30.9983C460.725 -22.2211 455.071 -13.5625 447.322 -6.40625C439.494 0.631348 429.57 5.41533 419.132 8.30154C408.655 11.2273 397.703 12.4529 386.633 13.0855C375.523 13.8367 364.373 13.1646 353.422 15.0228C342.47 16.6834 331.637 20.2022 322.345 26.2909C313.015 32.3796 305.463 40.9196 299.888 50.6852C288.739 70.3351 284.074 92.9899 277.51 114.538C274.229 125.331 270.394 136.125 264.582 145.89C261.775 150.833 258.137 155.261 254.184 159.373C249.953 163.129 245.367 166.647 240.187 168.901L236.392 170.641L232.399 171.866C229.789 172.815 227.061 173.329 224.294 173.724C221.526 174.278 218.877 174.555 216.268 174.594L208.439 174.99C198.357 175.187 188.552 176.927 179.498 179.971C161.272 185.981 146.05 196.696 134.307 208.675C122.407 220.576 113.59 233.465 106.671 245.287C99.7519 257.148 94.7702 268.139 91.0537 277.272C87.3768 286.445 84.9255 293.838 83.3836 298.859C81.8416 303.96 81.209 306.569 81.209 306.569L74.29 304.869Z" fill="#FFE66E"/>
<path d="M86.9419 317.521C86.9419 317.521 87.6536 314.595 89.2746 309.455C90.8956 304.236 93.505 296.724 97.3797 287.354C101.254 277.984 106.473 266.795 113.708 254.657C120.944 242.558 130.195 229.314 142.689 217.018C155.025 204.682 171.156 193.533 190.45 187.404C200.057 184.281 210.377 182.541 220.933 182.423C231.292 182.185 241.413 181.434 250.744 177.085C255.488 175.108 259.6 171.945 263.514 168.585C267.152 164.868 270.591 160.835 273.28 156.17C278.855 146.997 282.729 136.599 286.05 125.924C292.772 104.653 297.635 81.7613 309.377 61.5184C315.268 51.476 323.334 42.5011 333.179 36.2147C343.023 29.8887 354.331 26.37 365.559 24.7489C376.907 22.9698 388.175 23.7605 399.126 23.1279C410.039 22.6139 420.911 21.5069 431.151 18.7393C441.352 16.0112 450.959 11.4645 458.59 4.74319C466.142 -2.05717 471.795 -10.5181 476.342 -19.1372C485.396 -36.4939 492.394 -53.8111 500.539 -68.9538C516.354 -99.5555 534.303 -122.131 547.39 -137.234C554.032 -144.746 559.37 -150.519 563.166 -154.275C566.922 -158.11 568.898 -160.166 568.898 -160.166C568.898 -160.166 566.922 -158.11 563.205 -154.235C559.449 -150.4 554.151 -144.588 547.588 -137.037C534.659 -121.815 516.947 -99.0811 501.488 -68.4399C493.462 -53.2576 486.701 -35.9404 477.766 -18.386C473.258 -9.60875 467.604 -0.95015 459.855 6.20605C452.027 13.2437 442.103 18.0672 431.705 20.9138C421.228 23.8396 410.276 25.0652 399.166 25.6978C388.095 26.449 376.907 25.7769 365.955 27.6351C355.003 29.3352 344.209 32.8145 334.918 38.9427C325.587 45.0314 318.036 53.5714 312.461 63.2975C301.312 82.9474 296.646 105.602 290.083 127.15C286.802 137.983 282.967 148.737 277.155 158.503C274.347 163.445 270.71 167.873 266.756 171.945C262.526 175.701 257.94 179.22 252.8 181.474L248.965 183.213L244.971 184.439C242.362 185.388 239.594 185.902 236.866 186.297C234.099 186.851 231.45 187.128 228.84 187.167L221.012 187.562C210.93 187.76 201.125 189.5 192.071 192.544C173.844 198.554 158.623 209.268 146.88 221.248C134.979 233.149 126.163 246.038 119.244 257.859C112.325 269.72 107.343 280.712 103.627 289.845C99.9496 299.017 97.4983 306.371 95.9563 311.432C94.4144 316.532 93.7818 319.181 93.7818 319.181L86.9419 317.521Z" fill="#FFE66E"/>
<path d="M99.6333 330.212C99.6333 330.212 100.345 327.286 101.966 322.147C103.587 316.967 106.196 309.416 110.071 300.045C113.985 290.675 119.165 279.486 126.4 267.348C133.635 255.25 142.887 242.005 155.381 229.748C167.716 217.413 183.847 206.263 203.141 200.096C212.709 196.972 223.068 195.272 233.624 195.114C243.983 194.916 254.105 194.126 263.435 189.777C268.18 187.8 272.292 184.676 276.206 181.276C279.843 177.56 283.283 173.527 285.971 168.861C291.546 159.689 295.381 149.251 298.742 138.616C305.503 117.345 310.326 94.4923 322.069 74.2098C327.96 64.1674 336.025 55.1925 345.87 48.9061C355.715 42.5406 367.022 39.0614 378.29 37.4403C389.637 35.6612 400.906 36.4519 411.818 35.8193C422.73 35.3053 433.603 34.1983 443.843 31.4307C454.043 28.7027 463.651 24.1559 471.281 17.4346C478.833 10.6342 484.487 2.17331 489.034 -6.44576C498.088 -23.8025 505.086 -41.1197 513.23 -56.2624C529.045 -86.8641 546.995 -109.44 560.082 -124.543C566.724 -132.015 572.061 -137.788 575.857 -141.583C579.613 -145.418 581.59 -147.474 581.59 -147.474C581.59 -147.474 579.613 -145.418 575.896 -141.544C572.14 -137.709 566.882 -131.897 560.279 -124.345C547.351 -109.123 529.638 -86.3896 514.179 -55.7485C506.153 -40.5662 499.392 -23.249 490.457 -5.65501C485.95 3.08266 480.296 11.7808 472.547 18.937C464.718 25.9746 454.795 30.7586 444.396 33.6448C433.919 36.5705 422.967 37.7962 411.897 38.4288C400.787 39.1404 389.598 38.5078 378.646 40.3265C367.734 42.0266 356.901 45.5059 347.61 51.6341C338.279 57.7228 330.688 66.2628 325.153 76.0285C314.003 95.6784 309.338 118.333 302.735 139.881C299.454 150.714 295.618 161.468 289.806 171.234C286.999 176.176 283.362 180.604 279.408 184.676C275.178 188.472 270.631 191.991 265.452 194.205L261.617 195.984L257.623 197.17C255.014 198.119 252.286 198.633 249.518 199.028C246.751 199.582 244.062 199.858 241.492 199.898L233.664 200.293C223.582 200.491 213.777 202.231 204.723 205.275C186.536 211.285 171.274 221.999 159.532 233.979C147.631 245.88 138.815 258.769 131.896 270.59C124.977 282.451 119.995 293.443 116.318 302.576C112.601 311.748 110.15 319.142 108.648 324.163C107.106 329.263 106.473 331.873 106.473 331.873L99.6333 330.212Z" fill="#FFE66E"/>
<path d="M112.285 342.864C112.285 342.864 112.997 339.938 114.618 334.759C116.239 329.58 118.809 322.028 122.723 312.658C126.637 303.287 131.816 292.098 139.052 279.961C146.327 267.862 155.539 254.617 168.032 242.361C180.368 230.025 196.499 218.876 215.793 212.708C225.401 209.585 235.72 207.884 246.276 207.766C256.635 207.529 266.756 206.777 276.087 202.389C280.792 200.412 284.943 197.289 288.858 193.888C292.495 190.172 295.935 186.139 298.623 181.474C304.198 172.301 308.033 161.863 311.394 151.228C318.154 129.957 323.018 107.105 334.721 86.8221C340.612 76.7797 348.677 67.8048 358.522 61.5184C368.367 55.1925 379.674 51.6737 390.903 50.0527C402.25 48.2735 413.518 49.0642 424.43 48.4316C435.382 47.9176 446.215 46.8106 456.455 44.043C466.695 41.315 476.263 36.7682 483.894 30.0469C491.445 23.207 497.099 14.7856 501.646 6.12698C510.7 -11.2298 517.658 -28.547 525.843 -43.6897C541.657 -74.2913 559.607 -96.867 572.694 -111.97C579.336 -119.482 584.674 -125.255 588.469 -129.05C592.225 -132.885 594.202 -134.941 594.202 -134.941C594.202 -134.941 592.225 -132.885 588.509 -129.011C584.753 -125.176 579.455 -119.364 572.892 -111.812C559.963 -96.5902 542.25 -73.8564 526.791 -43.2152C518.805 -28.0725 512.005 -10.7553 503.069 6.8782C498.562 15.6159 492.908 24.314 485.159 31.4307C477.331 38.4683 467.446 43.2918 457.009 46.1385C446.531 49.0642 435.579 50.2899 424.509 50.9225C413.399 51.6341 402.21 51.0015 391.258 52.8598C380.307 54.5203 369.513 57.9996 360.222 64.1674C350.891 70.2165 343.3 78.7961 337.765 88.5222C326.615 108.172 321.95 130.827 315.347 152.375C312.066 163.168 308.231 173.962 302.419 183.727C299.612 188.669 295.974 193.137 292.021 197.21C287.79 200.966 283.243 204.484 278.064 206.738L274.229 208.478L270.236 209.703C267.626 210.652 264.898 211.166 262.131 211.561C259.363 212.155 256.674 212.392 254.105 212.431L246.276 212.827C236.194 213.024 226.389 214.764 217.335 217.808C199.108 223.818 183.887 234.532 172.144 246.512C160.283 258.413 151.427 271.302 144.508 283.124C137.589 294.985 132.647 305.976 128.93 315.109C125.214 324.282 122.762 331.635 121.26 336.696C119.718 341.796 119.086 344.445 119.086 344.445L112.285 342.864Z" fill="#FFE66E"/>
<path d="M124.977 355.555C124.977 355.555 125.688 352.63 127.349 347.49C128.97 342.31 131.54 334.759 135.414 325.389C139.329 316.058 144.508 304.869 151.743 292.691C159.018 280.554 168.23 267.348 180.724 255.092C193.059 242.756 209.19 231.607 228.485 225.439C238.092 222.316 248.451 220.615 258.968 220.497C269.326 220.299 279.448 219.508 288.778 215.159C293.483 213.183 297.635 210.02 301.549 206.619C305.186 202.903 308.626 198.87 311.315 194.205C316.889 185.032 320.724 174.634 324.085 163.959C330.846 142.688 335.709 119.836 347.451 99.5531C353.303 89.5107 361.408 80.5358 371.253 74.2494C381.097 67.9234 392.405 64.4046 403.634 62.8232C414.981 61.044 426.288 61.8347 437.201 61.2021C448.113 60.6882 458.985 59.5811 469.226 56.8135C479.426 54.0855 489.034 49.5387 496.664 42.8174C504.216 36.0171 509.87 27.5561 514.416 18.9371C523.47 1.5803 530.468 -15.7765 538.613 -30.8796C554.428 -61.4813 572.378 -84.0569 585.464 -99.1601C592.107 -106.633 597.444 -112.445 601.24 -116.201C604.996 -120.036 606.973 -122.092 606.973 -122.092C606.973 -122.092 604.996 -120.036 601.279 -116.161C597.523 -112.326 592.225 -106.514 585.662 -98.9624C572.733 -83.7406 555.021 -61.0068 539.562 -30.3656C531.575 -15.1834 524.815 2.09428 515.84 19.7278C511.332 28.4655 505.679 37.1636 497.929 44.2803C490.101 51.3179 480.217 56.1414 469.779 59.0276C459.302 61.9534 448.35 63.179 437.28 63.8116C426.209 64.5233 415.02 63.8907 404.068 65.7094C393.117 67.3699 382.284 70.8887 372.992 77.017C363.662 83.1057 356.11 91.6457 350.535 101.372C339.386 121.022 334.721 143.676 328.157 165.224C324.876 176.057 321.041 186.811 315.229 196.577C312.422 201.519 308.784 205.947 304.831 210.02C300.6 213.815 296.014 217.294 290.874 219.548L287.039 221.288L283.046 222.513C280.436 223.423 277.708 223.976 274.941 224.371C272.173 224.965 269.524 225.202 266.954 225.281L259.086 225.676C249.004 225.874 239.199 227.614 230.145 230.658C211.918 236.668 196.697 247.382 184.954 259.322C173.054 271.223 164.237 284.112 157.318 295.934C150.399 307.795 145.457 318.786 141.74 327.919C138.063 337.092 135.572 344.445 134.07 349.506C132.528 354.606 131.896 357.255 131.896 357.255L124.977 355.555Z" fill="#FFE66E"/>
<path d="M137.628 368.207C137.628 368.207 138.34 365.281 140.001 360.142C141.622 354.923 144.231 347.411 148.106 338.04C151.98 328.67 157.199 317.481 164.435 305.343C171.67 293.245 180.921 280 193.415 267.744C205.751 255.408 221.921 244.259 241.176 238.091C250.783 234.967 261.142 233.267 271.699 233.149C282.057 232.911 292.179 232.16 301.509 227.772C306.214 225.795 310.366 222.671 314.28 219.271C317.917 215.555 321.357 211.522 324.046 206.857C329.62 197.684 333.455 187.246 336.816 176.611C343.537 155.34 348.44 132.487 360.182 112.205C366.034 102.163 374.099 93.1876 383.984 86.9012C393.828 80.5358 405.136 77.0565 416.365 75.4355C427.712 73.6563 439.019 74.4471 449.931 73.8145C460.844 73.3005 471.716 72.1935 481.956 69.4654C492.197 66.7373 501.765 62.1906 509.395 55.4693C516.947 48.6689 522.601 40.208 527.147 31.5889C536.201 14.2322 543.199 -3.08507 551.344 -18.2278C567.159 -48.8294 585.109 -71.4051 598.195 -86.5082C604.838 -93.9807 610.175 -99.7531 613.971 -103.549C617.727 -107.384 619.704 -109.44 619.704 -109.44C619.704 -109.44 617.727 -107.384 614.01 -103.509C610.254 -99.674 604.956 -93.8621 598.393 -86.3105C585.464 -71.0888 567.752 -48.3945 552.293 -17.7138C544.306 -2.53155 537.506 14.7857 528.571 32.3797C524.063 41.1569 518.41 49.8155 510.66 56.9717C502.832 64.0093 492.908 68.7933 482.47 71.6795C471.993 74.6052 461.041 75.8309 449.971 76.4635C438.861 77.1751 427.712 76.5425 416.76 78.4008C405.808 80.0613 394.975 83.5406 385.684 89.6688C376.353 95.7575 368.801 104.298 363.227 114.063C352.077 133.713 347.412 156.368 340.849 177.915C337.567 188.749 333.732 199.503 327.92 209.268C325.113 214.211 321.476 218.639 317.522 222.711C313.291 226.507 308.705 230.025 303.526 232.239L299.691 233.979L295.697 235.205C293.088 236.154 290.36 236.668 287.592 237.063C284.825 237.616 282.176 237.893 279.606 237.933L271.778 238.328C261.696 238.565 251.89 240.265 242.836 243.31C224.61 249.319 209.388 260.034 197.646 272.014C185.745 283.914 176.928 296.803 170.009 308.625C163.09 320.486 158.148 331.477 154.432 340.61C150.755 349.783 148.264 357.137 146.761 362.198C145.22 367.298 144.587 369.947 144.587 369.947L137.628 368.207Z" fill="#FFE66E"/>
<path d="M150.32 380.899C150.32 380.899 151.031 377.973 152.692 372.833C154.313 367.614 156.923 360.102 160.797 350.732C164.672 341.401 169.891 330.212 177.126 318.035C184.361 305.897 193.613 292.692 206.107 280.396C218.442 268.06 234.573 256.911 253.867 250.743C263.475 247.619 273.794 245.919 284.35 245.801C294.709 245.603 304.831 244.812 314.161 240.463C318.906 238.486 323.018 235.323 326.932 231.963C330.569 228.246 334.009 224.213 336.697 219.548C342.272 210.375 346.107 199.938 349.468 189.302C356.189 168.031 361.052 145.179 372.795 124.896C378.686 114.854 386.712 105.879 396.596 99.5927C406.441 93.2667 417.748 89.7479 429.016 88.1664C440.363 86.3873 451.632 87.178 462.583 86.5454C473.496 86.0314 484.368 84.9244 494.608 82.1568C504.809 79.4288 514.416 74.882 522.047 68.1607C529.599 61.3603 535.252 52.8994 539.799 44.2803C548.853 26.9236 555.851 9.60635 563.996 -5.53634C579.811 -36.138 597.76 -58.7137 610.847 -73.8168C617.489 -81.2893 622.827 -87.0617 626.622 -90.8573C630.379 -94.6924 632.355 -96.7483 632.355 -96.7483C632.355 -96.7483 630.379 -94.6924 626.662 -90.8177C622.906 -86.9826 617.608 -81.1707 611.045 -73.6191C598.116 -58.3974 580.404 -35.6636 564.945 -5.02236C556.958 10.1599 550.197 27.4771 541.223 45.0711C536.715 53.8483 531.061 62.5069 523.312 69.6631C515.484 76.7007 505.56 81.4847 495.122 84.3709C484.645 87.2966 473.693 88.5223 462.623 89.1549C451.513 89.9061 440.363 89.2339 429.412 91.0922C418.46 92.7527 407.627 96.2715 398.336 102.36C389.044 108.449 381.453 116.989 375.879 126.755C364.729 146.404 360.064 169.059 353.501 190.607C350.219 201.401 346.384 212.194 340.572 221.96C337.765 226.902 334.127 231.33 330.174 235.442C325.943 239.198 321.357 242.717 316.178 244.97L312.382 246.71L308.389 247.936C305.779 248.884 303.051 249.398 300.284 249.794C297.516 250.347 294.867 250.624 292.297 250.664L284.429 251.059C274.348 251.257 264.542 252.996 255.488 256.041C237.262 262.05 222.04 272.765 210.298 284.745C198.397 296.645 189.58 309.534 182.661 321.356C175.742 333.217 170.76 344.208 167.044 353.341C163.367 362.514 160.916 369.907 159.374 374.929C157.832 380.029 157.199 382.678 157.199 382.678L150.32 380.899Z" fill="#FFE66E"/>
<path d="M162.972 393.55C162.972 393.55 163.683 390.625 165.304 385.485C166.925 380.266 169.535 372.754 173.409 363.384C177.284 354.013 182.503 342.824 189.738 330.687C196.974 318.588 206.225 305.343 218.719 293.047C231.054 280.712 247.186 269.562 266.48 263.434C276.048 260.311 286.406 258.611 296.963 258.452C307.321 258.255 317.443 257.464 326.774 253.115C331.518 251.138 335.63 247.975 339.544 244.614C343.181 240.898 346.621 236.865 349.31 232.2C354.884 223.027 358.759 212.629 362.08 201.954C368.801 180.683 373.665 157.791 385.407 137.548C391.298 127.506 399.364 118.531 409.208 112.244C419.053 105.879 430.361 102.4 441.589 100.779C452.936 98.9996 464.204 99.7903 475.156 99.1577C486.068 98.6438 496.941 97.5367 507.181 94.7691C517.382 92.041 526.989 87.4943 534.62 80.773C542.171 73.9726 547.825 65.5117 552.372 56.8926C561.426 39.5359 568.424 22.2186 576.569 7.07596C592.384 -23.5257 610.333 -46.1014 623.42 -61.2045C630.062 -68.7165 635.4 -74.489 639.195 -78.245C642.951 -82.0801 644.928 -84.136 644.928 -84.136C644.928 -84.136 642.951 -82.0801 639.235 -78.2054C635.479 -74.3703 630.22 -68.5584 623.618 -61.0068C610.689 -45.7851 592.977 -23.0513 577.518 7.58994C569.492 22.7722 562.731 40.0894 553.795 57.6438C549.288 66.4211 543.634 75.1192 535.885 82.2359C528.057 89.2735 518.133 94.0574 507.735 96.9436C497.257 99.8694 486.306 101.095 475.196 101.728C464.125 102.479 452.936 101.807 441.985 103.665C431.033 105.365 420.239 108.844 410.948 114.973C401.617 121.061 394.066 129.601 388.491 139.327C377.341 158.977 372.676 181.632 366.113 203.18C362.831 214.013 358.996 224.767 353.184 234.533C350.377 239.475 346.74 243.903 342.786 247.975C338.556 251.771 333.969 255.289 328.83 257.504L324.994 259.243L321.001 260.469C318.392 261.418 315.664 261.932 312.896 262.327C310.129 262.881 307.48 263.157 304.87 263.197L297.042 263.592C286.96 263.79 277.155 265.53 268.101 268.574C249.914 274.584 234.652 285.298 222.91 297.278C211.009 309.178 202.192 322.068 195.273 333.889C188.354 345.75 183.373 356.741 179.696 365.875C175.979 375.047 173.528 382.441 172.026 387.462C170.484 392.562 169.851 395.211 169.851 395.211L162.972 393.55Z" fill="#FFE66E"/>
<path d="M175.663 406.242C175.663 406.242 176.375 403.316 177.996 398.137C179.617 392.957 182.226 385.406 186.101 376.036C190.015 366.665 195.194 355.476 202.43 343.339C209.665 331.24 218.917 317.995 231.41 305.739C243.746 293.403 259.877 282.254 279.171 276.086C288.739 272.963 299.098 271.262 309.654 271.144C320.013 270.946 330.134 270.155 339.465 265.806C344.209 263.83 348.321 260.667 352.236 257.306C355.873 253.589 359.313 249.557 362.001 244.891C367.576 235.719 371.411 225.281 374.772 214.645C381.532 193.375 386.396 170.522 398.098 150.24C403.989 140.197 412.055 131.222 421.9 124.936C431.744 118.61 443.052 115.091 454.281 113.47C465.628 111.691 476.896 112.482 487.808 111.849C498.72 111.335 509.593 110.228 519.833 107.461C530.034 104.732 539.641 100.186 547.272 93.4644C554.823 86.664 560.477 78.2031 565.024 69.584C574.078 52.2273 581.036 34.9101 589.22 19.7674C605.035 -10.8343 622.985 -33.41 636.072 -48.5131C642.714 -55.9856 648.052 -61.758 651.847 -65.5536C655.603 -69.3887 657.58 -71.4446 657.58 -71.4446C657.58 -71.4446 655.603 -69.3887 651.887 -65.514C648.131 -61.6789 642.833 -55.867 636.27 -48.3154C623.341 -33.0937 605.628 -10.3599 590.169 20.2813C582.143 35.424 575.383 52.7413 566.447 70.3353C561.94 79.1125 556.286 87.7711 548.537 94.9273C540.709 101.965 530.785 106.749 520.387 109.635C509.909 112.561 498.957 113.786 487.887 114.419C476.817 115.131 465.628 114.498 454.676 116.356C443.724 118.056 432.931 121.536 423.639 127.664C414.309 133.753 406.718 142.293 401.182 152.058C390.033 171.708 385.368 194.363 378.765 215.911C375.483 226.704 371.648 237.498 365.836 247.263C363.029 252.206 359.392 256.634 355.438 260.746C351.208 264.502 346.661 268.02 341.481 270.274L337.646 272.014L333.653 273.239C331.044 274.188 328.316 274.702 325.548 275.098C322.78 275.651 320.092 275.928 317.522 275.967L309.694 276.363C299.612 276.56 289.807 278.3 280.753 281.344C262.526 287.354 247.304 298.069 235.562 310.048C223.661 321.949 214.844 334.838 207.925 346.66C201.006 358.521 196.025 369.512 192.348 378.645C188.671 387.818 186.18 395.211 184.678 400.232C183.136 405.333 182.503 407.982 182.503 407.982L175.663 406.242Z" fill="#FFE66E"/>
<path d="M188.315 418.894C188.315 418.894 189.027 415.968 190.648 410.789C192.269 405.609 194.878 398.058 198.753 388.687C202.667 379.317 207.846 368.128 215.082 355.99C222.356 343.892 231.568 330.647 244.062 318.391C256.398 306.055 272.529 294.906 291.823 288.738C301.43 285.614 311.75 283.914 322.306 283.796C332.665 283.598 342.786 282.807 352.117 278.419C356.822 276.442 360.973 273.279 364.887 269.918C368.525 266.202 371.964 262.169 374.653 257.504C380.228 248.331 384.063 237.933 387.423 227.258C394.184 205.987 399.047 183.134 410.79 162.852C416.641 152.809 424.746 143.835 434.591 137.548C444.436 131.222 455.743 127.703 466.972 126.082C478.319 124.303 489.587 125.094 500.539 124.461C511.451 123.947 522.324 122.84 532.564 120.073C542.804 117.345 552.372 112.798 560.042 106.077C567.594 99.2763 573.248 90.8154 577.794 82.1568C586.848 64.8 593.807 47.4828 601.991 32.3401C617.806 1.73845 635.756 -20.8372 648.842 -35.9403C655.485 -43.4524 660.822 -49.2248 664.618 -52.9808C668.374 -56.8159 670.35 -58.8718 670.35 -58.8718C670.35 -58.8718 668.374 -56.8159 664.657 -52.9413C660.901 -49.1062 655.603 -43.2942 649.04 -35.7427C636.111 -20.5209 618.399 2.2129 602.94 32.8541C594.953 47.9968 588.153 65.314 579.218 82.9475C574.71 91.6852 569.057 100.383 561.307 107.5C553.479 114.538 543.555 119.361 533.157 122.208C522.68 125.134 511.728 126.359 500.618 126.992C489.548 127.703 478.319 127.071 467.367 128.929C456.416 130.59 445.622 134.108 436.331 140.237C427 146.286 419.409 154.865 413.874 164.592C402.724 184.241 398.059 206.896 391.496 228.444C388.214 239.277 384.379 250.031 378.567 259.797C375.76 264.739 372.123 269.206 368.169 273.279C363.938 277.035 359.352 280.554 354.212 282.807L350.377 284.547L346.384 285.773C343.775 286.721 341.047 287.235 338.279 287.631C335.511 288.224 332.862 288.461 330.253 288.501L322.425 288.896C312.343 289.094 302.537 290.833 293.483 293.878C275.257 299.887 260.035 310.602 248.293 322.581C236.392 334.482 227.575 347.371 220.656 359.193C213.737 371.054 208.795 382.045 205.079 391.178C201.362 400.351 198.911 407.705 197.408 412.766C195.867 417.866 195.234 420.515 195.234 420.515L188.315 418.894Z" fill="#FFE66E"/>
<path d="M201.006 431.585C201.006 431.585 201.718 428.659 203.379 423.52C205 418.34 207.569 410.789 211.444 401.418C215.358 392.088 220.538 380.899 227.773 368.721C235.048 356.623 244.26 343.378 256.754 331.122C269.089 318.786 285.22 307.637 304.514 301.469C314.122 298.345 324.48 296.645 334.997 296.527C345.356 296.289 355.478 295.538 364.808 291.15C369.513 289.173 373.665 286.01 377.579 282.649C381.216 278.933 384.656 274.9 387.344 270.235C392.919 261.062 396.754 250.624 400.115 239.989C406.876 218.718 411.739 195.865 423.481 175.583C429.372 165.54 437.438 156.566 447.283 150.279C457.127 143.953 468.435 140.434 479.663 138.853C491.01 137.074 502.318 137.865 513.23 137.232C524.142 136.718 535.015 135.611 545.255 132.843C555.495 130.115 565.063 125.569 572.694 118.847C580.246 112.047 585.899 103.586 590.446 94.9668C599.5 77.6101 606.498 60.2533 614.643 45.1502C630.458 14.5485 648.407 -8.02714 661.494 -23.1303C668.136 -30.6028 673.474 -36.4147 677.269 -40.1708C681.025 -44.0058 683.002 -46.0618 683.002 -46.0618C683.002 -46.0618 681.025 -44.0058 677.309 -40.1312C673.553 -36.2961 668.255 -30.4842 661.692 -22.9326C648.763 -7.71084 631.051 14.9834 615.592 45.6642C607.605 60.8464 600.844 78.1241 591.869 95.7576C587.362 104.535 581.708 113.193 573.959 120.31C566.131 127.348 556.247 132.171 545.809 135.057C535.331 137.983 524.38 139.209 513.309 139.841C502.199 140.553 491.05 139.92 480.098 141.739C469.146 143.4 458.313 146.919 449.022 153.047C439.691 159.135 432.14 167.675 426.565 177.441C415.416 197.091 410.75 219.706 404.187 241.293C400.906 252.127 397.07 262.881 391.259 272.646C388.451 277.588 384.814 282.017 380.86 286.089C376.63 289.884 372.044 293.364 366.864 295.617L363.029 297.357L359.036 298.583C356.426 299.492 353.698 300.045 350.931 300.441C348.163 301.034 345.514 301.271 342.944 301.35L335.076 301.746C324.994 301.943 315.189 303.683 306.135 306.727C287.909 312.737 272.687 323.451 260.944 335.392C249.044 347.292 240.227 360.181 233.308 372.003C226.389 383.864 221.447 394.855 217.731 403.988C214.054 413.161 211.563 420.515 210.06 425.576C208.518 430.676 207.886 433.325 207.886 433.325L201.006 431.585Z" fill="#FFE66E"/>
<path d="M213.658 444.237C213.658 444.237 214.37 441.311 216.03 436.171C217.651 430.953 220.261 423.441 224.136 414.07C228.05 404.7 233.229 393.511 240.464 381.373C247.7 369.275 256.951 356.03 269.445 343.773C281.781 331.438 297.951 320.288 317.206 314.121C326.813 310.997 337.172 309.297 347.728 309.178C358.087 308.941 368.208 308.19 377.539 303.801C382.244 301.825 386.396 298.701 390.31 295.301C393.947 291.585 397.387 287.552 400.075 282.886C405.65 273.714 409.485 263.276 412.846 252.641C419.567 231.37 424.47 208.517 436.212 188.235C442.064 178.192 450.129 169.217 460.014 162.931C469.858 156.605 481.166 153.086 492.394 151.465C503.741 149.686 515.049 150.477 525.961 149.844C536.874 149.33 547.746 148.223 557.986 145.456C568.187 142.728 577.794 138.181 585.425 131.46C592.977 124.659 598.63 116.198 603.177 107.579C612.231 90.2224 619.229 72.9052 627.374 57.7625C643.189 27.1608 661.138 4.58517 674.225 -10.518C680.867 -17.9905 686.205 -23.7629 690.04 -27.5584C693.796 -31.3935 695.773 -33.4495 695.773 -33.4495C695.773 -33.4495 693.796 -31.3935 690.08 -27.5189C686.324 -23.6838 681.026 -17.8719 674.462 -10.3203C661.534 4.90146 643.821 27.5957 628.362 58.2765C620.376 73.4587 613.615 90.7759 604.64 108.37C600.133 117.147 594.479 125.806 586.73 132.962C578.901 140 568.978 144.783 558.54 147.67C548.062 150.595 537.111 151.821 526.04 152.454C514.93 153.165 503.781 152.533 492.829 154.391C481.878 156.052 471.044 159.531 461.753 165.659C452.422 171.748 444.871 180.288 439.296 190.053C428.147 209.703 423.481 232.358 416.918 253.906C413.637 264.739 409.801 275.493 403.99 285.259C401.182 290.201 397.545 294.629 393.591 298.701C389.361 302.497 384.775 306.016 379.595 308.23L375.8 310.009L371.806 311.234C369.197 312.183 366.469 312.697 363.701 313.093C360.934 313.646 358.285 313.923 355.715 313.962L347.847 314.358C337.765 314.595 327.96 316.295 318.906 319.34C300.679 325.349 285.457 336.064 273.715 348.043C261.814 359.944 252.998 372.833 246.079 384.655C239.16 396.516 234.217 407.507 230.501 416.64C226.824 425.813 224.373 433.167 222.831 438.227C221.289 443.288 220.656 445.937 220.656 445.937L213.658 444.237Z" fill="#FFE66E"/>
</svg>
