<svg width="321" height="323" viewBox="0 0 321 323" fill="none" xmlns="http://www.w3.org/2000/svg">
<mask id="mask0_1512_603" style="mask-type:luminance" maskUnits="userSpaceOnUse" x="0" y="0" width="323" height="323">
<path d="M323 0H0V323H323V0Z" fill="white"/>
</mask>
<g mask="url(#mask0_1512_603)">
<path d="M-385.835 90.9783C-385.835 90.9783 -384.819 86.881 -382.516 79.6434C-380.243 72.3161 -376.624 61.7588 -371.151 48.5995C-365.648 35.4702 -358.38 19.7688 -348.212 2.66174C-338.014 -14.3556 -325.064 -32.8982 -307.478 -50.1846C-290.162 -67.501 -267.462 -83.1725 -240.396 -91.8158C-226.908 -96.1823 -212.402 -98.6048 -197.538 -98.7842C-183.003 -99.1132 -168.768 -100.16 -155.668 -106.291C-149.029 -109.072 -143.256 -113.499 -137.724 -118.284C-132.609 -123.488 -127.794 -129.17 -123.996 -135.69C-116.19 -148.58 -110.777 -163.205 -106.052 -178.188C-96.571 -208.066 -89.7521 -240.186 -73.2433 -268.688C-65.0187 -282.804 -53.6539 -295.366 -39.8068 -304.218C-25.9895 -313.131 -10.1087 -318.035 5.71228 -320.278C21.623 -322.791 37.5038 -321.684 52.8164 -322.581C68.1888 -323.299 83.4416 -324.854 97.8271 -328.742C112.183 -332.57 125.671 -338.971 136.408 -348.421C147.025 -357.992 154.92 -369.835 161.35 -381.977C174.061 -406.382 183.871 -430.697 195.325 -451.931C217.517 -494.908 242.788 -526.64 261.151 -547.844C270.483 -558.371 277.989 -566.506 283.313 -571.8C288.606 -577.213 291.388 -580.054 291.388 -580.054C291.388 -580.054 288.606 -577.153 283.403 -571.71C278.109 -566.357 270.692 -558.162 261.48 -547.575C243.357 -526.191 218.444 -494.28 196.761 -451.213C185.516 -429.889 176.005 -405.574 163.414 -380.871C157.104 -368.579 149.148 -356.377 138.262 -346.328C127.256 -336.428 113.349 -329.699 98.6944 -325.662C83.98 -321.564 68.6076 -319.83 53.0258 -318.933C37.4441 -317.886 21.7127 -318.843 6.34033 -316.211C-9.03207 -313.848 -24.225 -308.944 -37.2646 -300.33C-50.3641 -291.777 -61.0111 -279.784 -68.817 -266.116C-84.4884 -238.482 -91.0083 -206.72 -100.25 -176.424C-104.855 -161.231 -110.269 -146.098 -118.403 -132.34C-122.351 -125.432 -127.465 -119.181 -132.998 -113.439C-138.95 -108.145 -145.35 -103.21 -152.618 -100.07L-158.001 -97.5879L-163.594 -95.8831C-167.272 -94.5672 -171.1 -93.8495 -174.988 -93.2812C-178.876 -92.4737 -182.615 -92.1148 -186.233 -92.0251L-197.239 -91.4569C-211.415 -91.1578 -225.143 -88.7353 -237.884 -84.4586C-263.454 -76.0247 -284.868 -60.9513 -301.347 -44.1434C-318.065 -27.4251 -330.447 -9.33112 -340.197 7.29742C-349.887 23.9857 -356.885 39.3881 -362.089 52.2183C-367.293 65.1085 -370.762 75.4564 -372.886 82.5444C-375.039 89.6923 -375.906 93.4008 -375.906 93.4008L-385.835 90.9783Z" fill="#FEE56F"/>
</g>
<mask id="mask1_1512_603" style="mask-type:luminance" maskUnits="userSpaceOnUse" x="0" y="0" width="323" height="323">
<path d="M323 0H0V323H323V0Z" fill="white"/>
</mask>
<g mask="url(#mask1_1512_603)">
<path d="M-368.041 108.803C-368.041 108.803 -367.024 104.706 -364.721 97.4681C-362.448 90.1408 -358.799 79.5835 -353.356 66.4243C-347.883 53.2949 -340.556 37.5636 -330.417 20.4865C-320.219 3.46912 -307.269 -15.1033 -289.683 -32.3599C-272.337 -49.6763 -249.667 -65.3478 -222.601 -73.9911C-209.113 -78.3575 -194.578 -80.7801 -179.744 -80.9595C-165.209 -81.2586 -150.973 -82.3352 -137.873 -88.4662C-131.234 -91.2476 -125.432 -95.6739 -119.929 -100.429C-114.815 -105.633 -110 -111.315 -106.231 -117.865C-98.4253 -130.725 -93.0121 -145.38 -88.2867 -160.364C-78.8061 -190.241 -71.9573 -222.362 -55.4783 -250.834C-47.2238 -264.95 -35.8889 -277.541 -22.0418 -286.364C-8.22458 -295.276 7.65622 -300.181 23.4772 -302.454C39.388 -304.966 55.2688 -303.859 70.6113 -304.757C85.9538 -305.474 101.207 -307.03 115.592 -310.918C129.978 -314.746 143.436 -321.146 154.173 -330.597C164.76 -340.167 172.685 -352.01 179.085 -364.153C191.796 -388.527 201.606 -412.872 213.06 -434.106C235.252 -477.083 260.523 -508.845 278.887 -530.019C288.218 -540.547 295.724 -548.652 301.048 -553.975C306.312 -559.358 309.123 -562.229 309.123 -562.229C309.123 -562.229 306.371 -559.328 301.138 -553.885C295.844 -548.532 288.427 -540.337 279.215 -529.72C261.062 -508.336 236.179 -476.425 214.466 -433.358C203.221 -412.064 193.71 -387.72 181.149 -363.016C174.839 -350.724 166.853 -338.522 155.997 -328.473C144.991 -318.604 131.084 -311.845 116.429 -307.807C101.715 -303.71 86.3426 -301.975 70.7608 -301.108C55.1791 -300.061 39.4777 -300.988 24.1053 -298.386C8.73288 -296.024 -6.46008 -291.119 -19.5296 -282.505C-32.6291 -273.952 -43.2761 -261.959 -51.0819 -248.291C-66.7534 -220.657 -73.2732 -188.865 -82.5146 -158.569C-87.1203 -143.376 -92.5336 -128.273 -100.668 -114.516C-104.586 -107.577 -109.73 -101.326 -115.263 -95.6141C-121.215 -90.2906 -127.645 -85.3559 -134.882 -82.2156L-140.266 -79.7632L-145.888 -78.0286C-149.537 -76.7425 -153.395 -75.9948 -157.283 -75.4266C-161.171 -74.649 -164.909 -74.2602 -168.528 -74.2004L-179.534 -73.6321C-193.68 -73.3331 -207.468 -70.8806 -220.178 -66.6039C-245.839 -58.1999 -267.253 -43.1266 -283.732 -26.3187C-300.45 -9.6004 -312.832 8.49359 -322.551 25.1221C-332.271 41.8104 -339.27 57.2127 -344.444 70.0729C-349.618 82.9331 -353.087 93.311 -355.21 100.399C-357.364 107.547 -358.261 111.255 -358.261 111.255L-368.041 108.803Z" fill="#FEE56F"/>
</g>
<mask id="mask2_1512_603" style="mask-type:luminance" maskUnits="userSpaceOnUse" x="0" y="0" width="323" height="323">
<path d="M323 0H0V323H323V0Z" fill="white"/>
</mask>
<g mask="url(#mask2_1512_603)">
<path d="M-350.246 126.598C-350.246 126.598 -349.229 122.501 -346.926 115.263C-344.653 107.966 -341.004 97.3786 -335.561 84.2193C-330.088 71.09 -322.791 55.3586 -312.622 38.2815C-302.454 21.2642 -289.444 2.69171 -271.888 -14.5649C-254.542 -31.8812 -231.872 -47.5827 -204.806 -56.196C-191.318 -60.5625 -176.783 -62.985 -161.949 -63.1644C-147.384 -63.4635 -133.178 -64.5402 -120.048 -70.6712C-113.409 -73.4526 -107.607 -77.849 -102.104 -82.6342C-96.9897 -87.838 -92.1746 -93.5204 -88.4063 -100.04C-80.6004 -112.93 -75.1573 -127.555 -70.4618 -142.539C-61.0111 -172.446 -54.1623 -204.537 -37.6534 -233.038C-29.4289 -247.155 -18.094 -259.746 -4.24683 -268.569C9.5704 -277.481 25.4512 -282.386 41.2722 -284.659C57.2129 -287.171 73.0638 -286.064 88.4063 -286.932C103.749 -287.649 119.031 -289.235 133.417 -293.093C147.773 -296.921 161.261 -303.321 171.998 -312.772C182.615 -322.342 190.54 -334.185 196.91 -346.328C209.621 -370.732 219.431 -395.047 230.885 -416.281C253.077 -459.258 278.348 -490.99 296.711 -512.194C306.043 -522.722 313.549 -530.827 318.873 -536.15C324.136 -541.533 326.948 -544.405 326.948 -544.405C326.948 -544.405 324.196 -541.504 318.963 -536.06C313.669 -530.677 306.252 -522.512 297.04 -511.895C278.887 -490.511 254.004 -458.6 232.321 -415.534C221.076 -394.239 211.565 -369.895 198.974 -345.191C192.664 -332.899 184.678 -320.697 173.822 -310.648C162.816 -300.779 148.909 -294.02 134.254 -289.982C119.54 -285.885 104.168 -284.15 88.5858 -283.253C73.004 -282.236 57.3026 -283.163 41.9302 -280.561C26.4381 -278.258 11.2452 -273.354 -1.82434 -264.77C-14.9238 -256.217 -25.5708 -244.224 -33.3766 -230.526C-49.0182 -202.892 -55.568 -171.13 -64.8094 -140.804C-69.445 -125.611 -74.8283 -110.508 -82.993 -96.7504C-86.9109 -89.8119 -92.055 -83.5612 -97.5879 -77.819C-103.539 -72.5254 -109.97 -67.5608 -117.237 -64.4504L-122.59 -61.9681L-128.213 -60.2634C-131.892 -58.9475 -135.72 -58.2297 -139.578 -57.6615C-143.496 -56.854 -147.204 -56.4951 -150.823 -56.4053L-161.829 -55.8371C-176.005 -55.538 -189.762 -53.1155 -202.473 -48.8388C-228.044 -40.4049 -249.428 -25.3315 -265.937 -8.52356C-282.625 8.19464 -295.037 26.2886 -304.786 42.9172C-314.476 59.6055 -321.475 75.0078 -326.679 87.868C-331.853 100.758 -335.292 111.106 -337.445 118.194C-339.599 125.342 -340.466 129.05 -340.466 129.05L-350.246 126.598Z" fill="#FEE56F"/>
</g>
<mask id="mask3_1512_603" style="mask-type:luminance" maskUnits="userSpaceOnUse" x="0" y="0" width="323" height="323">
<path d="M323 0H0V323H323V0Z" fill="white"/>
</mask>
<g mask="url(#mask3_1512_603)">
<path d="M-332.451 144.423C-332.451 144.423 -331.434 140.326 -329.161 133.088C-326.888 125.761 -323.239 115.173 -317.796 102.044C-312.323 88.9147 -304.996 73.2134 -294.857 56.1362C-284.689 39.1189 -271.709 20.5464 -254.123 3.28986C-236.777 -14.0266 -214.107 -29.698 -187.041 -38.3412C-173.553 -42.7077 -159.048 -45.1302 -144.214 -45.3097C-129.649 -45.6088 -115.443 -46.6854 -102.313 -52.8463C-95.6738 -55.5978 -89.8717 -60.0241 -84.3688 -64.7794C-79.2546 -69.9833 -74.4395 -75.6956 -70.6712 -82.2154C-62.8354 -95.0756 -57.4222 -109.73 -52.7267 -124.714C-43.2461 -154.591 -36.4272 -186.712 -19.9183 -215.214C-11.6638 -229.36 -0.358856 -241.951 13.4883 -250.774C27.3055 -259.686 43.1863 -264.591 59.0074 -266.864C74.948 -269.376 90.799 -268.269 106.141 -269.137C121.484 -269.855 136.737 -271.44 151.152 -275.298C165.508 -279.126 178.966 -285.526 189.703 -294.977C200.32 -304.547 208.245 -316.39 214.616 -328.533C227.326 -352.907 237.136 -377.252 248.62 -398.486C270.812 -441.463 296.053 -473.195 314.417 -494.399C323.748 -504.927 331.255 -513.032 336.608 -518.355C341.872 -523.738 344.683 -526.61 344.683 -526.61C344.683 -526.61 341.902 -523.709 336.698 -518.265C331.404 -512.882 323.987 -504.717 314.776 -494.1C296.622 -472.716 271.709 -440.805 250.026 -397.739C238.781 -376.445 229.27 -352.13 216.709 -327.426C210.369 -315.134 202.413 -302.902 191.557 -292.883C180.551 -283.014 166.644 -276.255 151.99 -272.217C137.305 -268.12 121.903 -266.385 106.321 -265.488C90.7391 -264.471 75.0377 -265.368 59.6653 -262.796C44.2929 -260.434 29.0999 -255.529 16.0603 -246.916C2.90103 -238.422 -7.74597 -226.399 -15.5518 -212.701C-31.2233 -185.067 -37.773 -153.305 -46.9845 -122.979C-51.5902 -107.786 -56.9736 -92.683 -65.1383 -78.9256C-69.0861 -71.9572 -74.2003 -65.7364 -79.7331 -59.9942C-85.6847 -54.7006 -92.1148 -49.736 -99.3524 -46.5957L-104.706 -44.1433L-110.358 -42.4685C-114.037 -41.1526 -117.865 -40.4348 -121.753 -39.8665C-125.641 -39.0591 -129.379 -38.7001 -132.998 -38.6104L-144.034 -38.0422C-158.21 -37.7431 -171.938 -35.3206 -184.678 -31.0439C-210.249 -22.61 -231.633 -7.53662 -248.142 9.27136C-264.83 25.9896 -277.242 44.0836 -286.962 60.7121C-296.681 77.4004 -303.68 92.8027 -308.884 105.663C-314.058 118.523 -317.497 128.901 -319.65 135.989C-321.804 143.137 -322.671 146.845 -322.671 146.845L-332.451 144.423Z" fill="#FEE56F"/>
</g>
<mask id="mask4_1512_603" style="mask-type:luminance" maskUnits="userSpaceOnUse" x="0" y="0" width="323" height="323">
<path d="M323 0H0V323H323V0Z" fill="white"/>
</mask>
<g mask="url(#mask4_1512_603)">
<path d="M-314.656 162.218C-314.656 162.218 -313.639 158.12 -311.366 150.853C-309.093 143.556 -305.444 132.968 -299.971 119.809C-294.528 106.68 -287.201 90.9784 -277.032 73.9012C-266.864 56.8839 -253.884 38.3115 -236.298 21.0549C-218.952 3.73846 -196.282 -11.9629 -169.216 -20.5763C-155.728 -24.9427 -141.223 -27.3652 -126.389 -27.5446C-111.824 -27.8437 -97.5879 -28.9204 -84.4884 -35.0514C-77.849 -37.8328 -72.0469 -42.2292 -66.544 -47.0144C-61.4298 -52.2183 -56.6147 -57.9007 -52.8165 -64.4205C-44.9807 -77.3106 -39.5675 -91.9353 -34.872 -106.919C-25.4213 -136.856 -18.6024 -168.977 -2.12341 -197.449C6.13104 -211.565 18.9912 -210.728 32.8084 -219.55C46.6256 -228.433 60.9812 -246.796 76.8022 -249.039C92.7429 -251.551 108.594 -250.445 123.936 -251.342C139.279 -252.03 154.562 -253.615 168.947 -257.473C183.303 -261.301 196.791 -267.701 207.498 -277.152C218.085 -286.722 226.04 -298.566 232.44 -310.708C245.151 -335.112 254.961 -359.457 266.445 -380.691C288.607 -423.668 313.878 -455.4 332.241 -476.604C341.573 -487.132 349.079 -495.237 354.403 -500.56C359.667 -505.944 362.478 -508.815 362.478 -508.815C362.478 -508.815 359.696 -505.914 354.493 -500.471C349.199 -495.117 341.782 -486.922 332.57 -476.305C314.447 -454.951 289.504 -423.04 267.851 -379.944C256.606 -358.65 247.095 -334.335 234.504 -309.601C228.194 -297.309 220.208 -285.107 209.352 -275.088C198.346 -265.189 184.439 -258.46 169.784 -254.392C155.07 -250.325 139.668 -248.59 124.086 -247.693C108.504 -246.676 92.7728 -247.603 77.4004 -245.001C62.028 -242.639 46.835 -237.734 33.7954 -229.121C20.696 -220.597 10.0489 -208.604 2.24307 -194.907C-13.4284 -167.302 -19.9781 -135.51 -29.1896 -105.214C-33.7953 -90.0213 -39.1787 -74.8881 -47.3135 -61.1606C-51.2613 -54.2221 -56.3755 -47.9714 -61.9382 -42.2591C-67.8898 -36.9356 -74.29 -32.0308 -81.5575 -28.8606L-86.9408 -26.3783L-92.5634 -24.7035C-96.2121 -23.3875 -100.07 -22.6698 -103.928 -22.1015C-107.846 -21.294 -111.555 -20.9351 -115.173 -20.8454L-126.179 -20.2772C-140.355 -19.9781 -154.083 -17.5556 -166.853 -13.2788C-192.424 -4.81503 -213.838 10.2583 -230.347 27.0663C-247.065 43.8144 -259.447 61.9084 -269.167 78.507C-278.887 95.1953 -285.885 110.598 -291.059 123.458C-296.263 136.348 -299.702 146.696 -301.855 153.784C-304.009 160.932 -304.906 164.64 -304.906 164.64L-314.656 162.218Z" fill="#FEE56F"/>
</g>
<mask id="mask5_1512_603" style="mask-type:luminance" maskUnits="userSpaceOnUse" x="0" y="0" width="323" height="323">
<path d="M323 0H0V323H323V0Z" fill="white"/>
</mask>
<g mask="url(#mask5_1512_603)">
<path d="M-296.861 179.983C-296.861 179.983 -295.844 175.886 -293.541 168.648C-291.268 161.351 -287.62 150.763 -282.176 137.604C-276.703 124.475 -269.406 108.743 -259.237 91.6663C-249.039 74.649 -236.089 56.0765 -218.504 38.8199C-201.187 21.5035 -178.517 5.832 -151.421 -2.81125C-137.963 -7.1777 -123.428 -9.60019 -108.594 -9.77963C-94.0588 -10.1086 -79.8229 -11.1554 -66.7235 -17.3163C-60.084 -20.0678 -54.282 -24.4941 -48.779 -29.2793C-43.6649 -34.4832 -38.8498 -40.1656 -35.0515 -46.6854C-27.2158 -59.5755 -21.8026 -74.2002 -17.1071 -89.1838C-7.62646 -119.061 -0.807556 -151.182 15.6714 -179.684C23.9259 -193.77 35.2607 -206.361 49.1079 -215.184C62.9251 -224.096 78.8059 -229.031 94.627 -231.274C110.538 -233.786 126.419 -232.68 141.731 -233.547C157.074 -234.265 172.356 -235.82 186.742 -239.708C201.097 -243.536 214.586 -249.936 225.292 -259.387C235.91 -268.957 243.835 -280.801 250.235 -292.943C262.976 -317.347 272.755 -341.662 284.24 -362.926C306.431 -405.903 331.703 -437.635 350.066 -458.809C359.397 -469.337 366.874 -477.442 372.227 -482.765C377.491 -488.149 380.302 -491.02 380.302 -491.02C380.302 -491.02 377.521 -488.149 372.317 -482.706C367.024 -477.352 359.607 -469.128 350.395 -458.54C332.271 -437.157 307.358 -405.275 285.675 -362.179C274.43 -340.885 264.92 -316.54 252.329 -291.836C246.018 -279.544 238.033 -267.342 227.177 -257.293C216.171 -247.424 202.264 -240.665 187.639 -236.627C172.925 -232.53 157.552 -230.795 141.94 -229.898C126.389 -228.881 110.657 -229.808 95.2849 -227.177C79.9125 -224.814 64.7195 -219.939 51.65 -211.326C38.5207 -202.832 27.8437 -190.809 20.0379 -177.112C4.36642 -149.477 -2.18332 -117.716 -11.4247 -87.4193C-16.0304 -72.1964 -21.4138 -57.0932 -29.5486 -43.3657C-33.4963 -36.4272 -38.6105 -30.1765 -44.1733 -24.4642C-50.1249 -19.1407 -56.5251 -14.206 -63.7925 -11.0657L-69.1759 -8.58334L-74.7686 -6.87863C-78.4472 -5.59262 -82.2753 -4.84494 -86.1633 -4.2767C-90.0512 -3.46921 -93.7897 -3.11029 -97.4085 -3.02057L-108.414 -2.45233C-122.59 -2.15326 -136.348 0.299164 -149.059 4.57593C-174.629 12.9799 -196.043 28.0532 -212.552 44.8612C-229.24 61.5794 -241.652 79.6734 -251.372 96.3318C-261.092 113.02 -268.06 128.393 -273.264 141.253C-278.468 154.143 -281.907 164.491 -284.061 171.579C-286.214 178.727 -287.081 182.405 -287.081 182.405L-296.861 179.983Z" fill="#FEE56F"/>
</g>
<mask id="mask6_1512_603" style="mask-type:luminance" maskUnits="userSpaceOnUse" x="0" y="0" width="323" height="323">
<path d="M323 0H0V323H323V0Z" fill="white"/>
</mask>
<g mask="url(#mask6_1512_603)">
<path d="M-276.344 194.787C-276.344 194.787 -275.328 190.69 -273.025 183.452C-270.752 176.155 -267.103 165.568 -261.66 152.408C-256.187 139.279 -248.889 123.578 -238.721 106.5C-228.523 89.483 -215.543 70.9106 -197.987 53.654C-180.641 36.3376 -157.971 20.6661 -130.905 12.0229C-117.417 7.65637 -102.911 5.23392 -88.0475 5.05447C-73.5125 4.7554 -59.2766 3.67874 -46.1771 -2.4523C-39.5377 -5.23367 -33.7655 -9.66 -28.2327 -14.4452C-23.1185 -19.6491 -18.3034 -25.3315 -14.5052 -31.8513C-6.69934 -44.7414 -1.2861 -59.3661 3.43927 -74.3497C12.8601 -104.257 19.7089 -136.378 36.1879 -164.85C44.4124 -178.966 55.7772 -191.527 69.6244 -200.38C83.4416 -209.292 99.3224 -214.197 115.143 -216.44C131.054 -218.952 146.935 -217.845 162.277 -218.743C177.62 -219.46 192.873 -221.016 207.258 -224.904C221.614 -228.732 235.102 -235.132 245.839 -244.583C256.456 -254.153 264.351 -265.996 270.782 -278.139C283.492 -302.543 293.302 -326.858 304.756 -348.092C326.948 -391.069 352.219 -422.801 370.583 -444.005C379.914 -454.533 387.42 -462.638 392.744 -467.961C398.008 -473.374 400.819 -476.216 400.819 -476.216C400.819 -476.216 398.038 -473.315 392.834 -467.871C387.54 -462.518 380.123 -454.323 370.911 -443.706C352.788 -422.322 327.875 -390.411 306.192 -347.345C294.947 -326.021 285.436 -301.706 272.845 -277.002C266.535 -264.71 258.549 -252.508 247.693 -242.489C236.687 -232.59 222.78 -225.861 208.126 -221.793C193.351 -217.726 177.979 -215.991 162.397 -215.124C146.815 -214.077 131.084 -215.034 115.742 -212.402C100.369 -210.04 85.1762 -205.135 72.1067 -196.521C59.0072 -187.968 48.3602 -175.975 40.5544 -162.307C24.8829 -134.673 18.3631 -102.911 9.12167 -72.5852C4.45612 -57.4221 -0.927216 -42.289 -9.06201 -28.5316C-12.9799 -21.623 -18.124 -15.3723 -23.6568 -9.63007C-29.6084 -4.33646 -36.0385 0.598236 -43.2761 3.73853L-48.6594 6.22086L-54.2521 7.95547C-57.9307 9.24149 -61.7589 9.9892 -65.6468 10.5574C-69.5348 11.3649 -73.2732 11.7238 -76.892 11.8135L-87.8979 12.3818C-102.044 12.6808 -115.802 15.1333 -128.542 19.3801C-154.143 27.814 -175.557 42.8574 -192.036 59.6654C-208.754 76.3836 -221.135 94.4776 -230.885 111.106C-240.575 127.794 -247.574 143.197 -252.777 156.027C-257.981 168.917 -261.421 179.265 -263.574 186.353C-265.727 193.501 -266.595 197.21 -266.595 197.21L-276.344 194.787Z" fill="#FEE56F"/>
</g>
<mask id="mask7_1512_603" style="mask-type:luminance" maskUnits="userSpaceOnUse" x="0" y="0" width="323" height="323">
<path d="M323 0H0V323H323V0Z" fill="white"/>
</mask>
<g mask="url(#mask7_1512_603)">
<path d="M-261.271 215.602C-261.271 215.602 -260.254 211.505 -257.951 204.268C-255.678 196.94 -252.03 186.383 -246.587 173.224C-241.114 160.094 -233.816 144.363 -223.648 127.286C-213.479 110.269 -200.499 91.6961 -182.914 74.4395C-165.567 57.0932 -142.898 41.4217 -115.831 32.8084C-102.343 28.412 -87.8082 25.9895 -72.9741 25.84C-58.4092 25.5409 -44.2032 24.4642 -31.0738 18.3332C-24.4643 15.5518 -18.6622 11.1255 -13.1593 6.37027C-8.0451 1.13647 -3.23001 -4.54596 0.53833 -11.0957C8.34415 -23.9559 13.7574 -38.6105 18.4828 -53.5941C27.9634 -83.4716 34.8122 -115.592 51.2912 -144.064C59.5457 -158.18 70.8805 -170.771 84.7277 -179.594C98.5449 -188.506 114.426 -193.411 130.247 -195.684C146.187 -198.196 162.038 -197.09 177.381 -197.987C192.723 -198.675 207.976 -200.26 222.391 -204.148C236.747 -207.976 250.235 -214.376 260.972 -223.797C271.559 -233.368 279.485 -245.241 285.885 -257.383C298.596 -281.758 308.405 -306.102 319.86 -327.337C342.051 -370.314 367.323 -402.045 385.686 -423.25C395.017 -433.777 402.524 -441.882 407.847 -447.206C413.111 -452.589 415.922 -455.46 415.922 -455.46C415.922 -455.46 413.171 -452.559 407.937 -447.116C402.643 -441.762 395.226 -433.568 386.015 -422.951C367.861 -401.567 342.978 -369.656 321.265 -326.589C310.05 -305.295 300.51 -280.95 287.948 -256.247C281.638 -243.955 273.653 -231.753 262.796 -221.704C251.79 -211.834 237.884 -205.075 223.229 -201.038C208.514 -196.94 193.142 -195.206 177.56 -194.308C161.979 -193.292 146.277 -194.219 130.905 -191.617C115.532 -189.254 100.339 -184.349 87.2698 -175.736C74.1703 -167.182 63.5233 -155.19 55.7175 -141.522C40.046 -113.887 33.5262 -82.0959 24.2848 -51.7997C19.5594 -36.6067 14.206 -21.5035 6.04129 -7.74606C2.12341 -0.807526 -3.02066 5.41324 -8.55351 11.1555C-14.535 16.479 -20.9352 21.4137 -28.2027 24.554L-33.586 27.0064L-39.1787 28.7111C-42.8274 29.9971 -46.6855 30.7448 -50.5734 31.313C-54.4614 32.1205 -58.1998 32.4794 -61.8186 32.5392L-72.8544 33.1075C-87.0007 33.4065 -100.758 35.8589 -113.499 40.1357C-139.099 48.5696 -160.483 63.6429 -176.992 80.4509C-193.71 97.1691 -206.092 115.263 -215.812 131.892C-225.502 148.58 -232.5 163.982 -237.704 176.842C-242.878 189.703 -246.347 200.081 -248.471 207.169C-250.624 214.316 -251.521 218.025 -251.521 218.025L-261.271 215.602Z" fill="#FEE56F"/>
</g>
<mask id="mask8_1512_603" style="mask-type:luminance" maskUnits="userSpaceOnUse" x="0" y="0" width="323" height="323">
<path d="M323 0H0V323H323V0Z" fill="white"/>
</mask>
<g mask="url(#mask8_1512_603)">
<path d="M-243.476 233.398C-243.476 233.398 -242.459 229.3 -240.156 222.033C-237.884 214.705 -234.235 204.118 -228.792 190.989C-223.319 177.859 -215.991 162.128 -205.853 145.051C-195.684 128.034 -182.674 109.491 -165.119 92.2047C-147.772 74.8883 -125.103 59.1869 -98.0365 50.5735C-84.5482 46.2071 -70.0132 43.7846 -55.1792 43.6051C-40.6142 43.3061 -26.4082 42.2593 -13.2789 36.0983C-6.63943 33.3469 -0.837387 28.9206 4.63567 24.1354C9.74983 18.9315 14.5649 13.2491 18.3333 6.72928C26.1391 -6.16083 31.5822 -20.7855 36.2777 -35.7691C45.7284 -65.6765 52.5773 -97.7672 69.0861 -126.269C77.3107 -140.385 88.6456 -152.976 102.493 -161.799C116.31 -170.711 132.191 -175.616 148.012 -177.889C163.952 -180.401 179.803 -179.295 195.146 -180.162C210.488 -180.88 225.741 -182.465 240.127 -186.323C254.482 -190.151 267.97 -196.551 278.707 -206.002C289.294 -215.572 297.25 -227.416 303.62 -239.558C316.331 -263.963 326.14 -288.277 337.595 -309.512C359.786 -352.489 385.058 -384.22 403.421 -405.425C412.752 -415.952 420.259 -424.057 425.612 -429.381C430.846 -434.764 433.658 -437.635 433.658 -437.635C433.658 -437.635 430.906 -434.734 425.672 -429.291C420.379 -423.908 412.962 -415.743 403.75 -405.126C385.596 -383.742 360.713 -351.831 339.03 -308.764C327.785 -287.47 318.275 -263.125 305.714 -238.422C299.373 -226.13 291.418 -213.928 280.561 -203.879C269.556 -194.009 255.649 -187.25 240.994 -183.213C226.309 -179.115 210.907 -177.381 195.325 -176.483C179.744 -175.467 164.042 -176.394 148.67 -173.792C133.297 -171.429 118.104 -166.524 105.035 -157.911C91.9354 -149.357 81.3183 -137.335 73.4825 -123.667C57.8409 -96.0326 51.2912 -64.2709 42.0498 -33.9448C37.3544 -18.8116 31.9711 -3.6785 23.8362 10.049C19.8884 16.9875 14.7743 23.2382 9.24141 28.9804C3.28984 34.274 -3.14026 39.2386 -10.3779 42.349L-15.7313 44.8313L-21.3539 46.536C-25.0026 47.852 -28.8606 48.5698 -32.7187 49.138C-36.6067 49.9455 -40.3451 50.3044 -43.9639 50.3941L-54.9698 50.9623C-69.1459 51.2614 -82.8734 53.6839 -95.614 57.9607C-121.185 66.3946 -142.599 81.4679 -159.078 98.2758C-175.766 114.994 -188.177 133.088 -197.927 149.717C-207.617 166.405 -214.616 181.807 -219.819 194.667C-224.993 207.558 -228.433 217.906 -230.586 224.994C-232.739 232.141 -233.607 235.85 -233.607 235.85L-243.476 233.398Z" fill="#FEE56F"/>
</g>
<mask id="mask9_1512_603" style="mask-type:luminance" maskUnits="userSpaceOnUse" x="0" y="0" width="323" height="323">
<path d="M323 0H0V323H323V0Z" fill="white"/>
</mask>
<g mask="url(#mask9_1512_603)">
<path d="M-225.651 251.192C-225.651 251.192 -224.635 247.095 -222.362 239.858C-220.089 232.53 -216.44 221.973 -210.967 208.814C-205.524 195.684 -198.196 179.983 -188.028 162.906C-177.859 145.888 -164.88 127.316 -147.294 110.059C-129.948 92.743 -107.278 77.0715 -80.2117 68.4283C-66.7235 64.0618 -52.2184 61.6094 -37.3843 61.4598C-22.8194 61.1608 -8.61339 60.0841 4.51596 53.9531C11.1554 51.1717 16.9574 46.7753 22.4604 41.9901C27.5746 36.7862 32.3897 31.0739 36.158 24.5541C43.9937 11.6939 49.407 -2.96072 54.1324 -17.9144C63.5831 -47.8218 70.4319 -79.9424 86.9109 -108.414C95.1653 -122.531 106.5 -135.122 120.347 -143.944C134.165 -152.827 150.045 -157.761 165.866 -160.034C181.807 -162.547 197.658 -161.44 213 -162.307C228.343 -163.025 243.596 -164.61 257.981 -168.468C272.337 -172.296 285.825 -178.697 296.532 -188.147C307.119 -197.718 315.074 -209.561 321.445 -221.704C334.155 -246.078 343.965 -270.423 355.449 -291.657C377.641 -334.634 402.913 -366.366 421.276 -387.57C430.607 -398.097 438.084 -406.202 443.437 -411.526C448.701 -416.909 451.512 -419.78 451.512 -419.78C451.512 -419.78 448.731 -416.879 443.527 -411.436C438.233 -406.053 430.816 -397.888 421.605 -387.271C403.451 -365.887 378.538 -333.976 356.885 -290.909C345.64 -269.615 336.129 -245.3 323.538 -220.597C317.228 -208.305 309.242 -196.073 298.386 -186.054C287.38 -176.184 273.473 -169.425 258.819 -165.388C244.134 -161.291 228.732 -159.556 213.15 -158.659C197.598 -157.612 181.867 -158.539 166.494 -155.937C151.122 -153.574 135.929 -148.67 122.889 -140.056C109.7 -131.592 99.0533 -119.6 91.2175 -105.932C75.5461 -78.2975 68.9963 -46.5358 59.7849 -16.2097C55.1791 -0.986816 49.7958 14.1164 41.6311 27.8439C37.6833 34.8123 32.5691 41.0331 27.0363 46.7753C21.0847 52.0689 14.6546 57.0335 7.41699 60.1738L2.03365 62.6262L-3.58893 64.3309C-7.23764 65.6469 -11.0957 66.3647 -14.9836 66.9329C-18.8716 67.7404 -22.61 68.0993 -26.2288 68.189L-37.2348 68.7572C-51.4109 69.0563 -65.1384 71.4788 -77.9088 75.7556C-103.48 84.1895 -124.893 99.2628 -141.372 116.071C-158.091 132.789 -170.472 150.913 -180.192 167.541C-189.912 184.23 -196.91 199.632 -202.114 212.492C-207.288 225.352 -210.728 235.73 -212.881 242.818C-215.034 249.966 -215.902 253.675 -215.902 253.675L-225.651 251.192Z" fill="#FEE56F"/>
</g>
<mask id="mask10_1512_603" style="mask-type:luminance" maskUnits="userSpaceOnUse" x="0" y="0" width="323" height="323">
<path d="M323 0H0V323H323V0Z" fill="white"/>
</mask>
<g mask="url(#mask10_1512_603)">
<path d="M-207.856 268.987C-207.856 268.987 -206.84 264.89 -204.567 257.652C-202.294 250.355 -198.645 239.768 -193.172 226.609C-187.699 213.479 -180.401 197.748 -170.233 180.671C-160.064 163.653 -147.085 145.081 -129.499 127.824C-112.183 110.508 -89.5129 94.8066 -62.4167 86.1933C-48.9584 81.8268 -34.4234 79.4043 -19.5893 79.2249C-5.05434 78.9258 9.18159 77.8492 22.281 71.7181C28.9205 68.9367 34.7225 64.5403 40.2255 59.7552C45.3397 54.5513 50.1547 48.8688 53.953 42.349C61.7887 29.4589 67.202 14.8342 71.8974 -0.149384C81.3781 -30.0568 88.197 -62.1475 104.676 -90.6492C112.93 -104.766 124.265 -117.327 138.112 -126.179C151.93 -135.092 167.781 -140.026 183.632 -142.269C199.542 -144.782 215.393 -143.675 230.736 -144.542C246.078 -145.26 261.361 -146.845 275.746 -150.703C290.102 -154.531 303.59 -160.932 314.297 -170.382C324.914 -179.953 332.84 -191.796 339.24 -203.938C351.95 -228.313 361.76 -252.658 373.245 -273.922C395.436 -316.899 420.678 -348.631 439.041 -369.835C448.372 -380.362 455.849 -388.467 461.202 -393.791C466.466 -399.174 469.277 -402.045 469.277 -402.045C469.277 -402.045 466.496 -399.144 461.262 -393.701C455.968 -388.348 448.551 -380.153 439.34 -369.536C421.216 -348.182 396.273 -316.271 374.62 -273.174C363.375 -251.88 353.865 -227.535 341.273 -202.832C334.963 -190.54 326.978 -178.308 316.121 -168.319C305.115 -158.419 291.208 -151.69 276.554 -147.623C261.869 -143.555 246.467 -141.791 230.885 -140.924C215.303 -139.907 199.572 -140.834 184.2 -138.232C168.827 -135.869 153.634 -130.964 140.595 -122.351C127.525 -113.798 116.848 -101.805 109.042 -88.1071C93.371 -60.5025 86.8212 -28.7409 77.5798 1.58524C72.9741 16.7782 67.5908 31.9113 59.4559 45.6388C55.5082 52.5774 50.394 58.828 44.8312 64.5403C38.9096 69.8639 32.4795 74.7686 25.212 77.9388L19.8286 80.4212L14.2359 82.096C10.5573 83.4119 6.69928 84.1297 2.84122 84.7278C-1.07664 85.5353 -4.78516 85.8942 -8.40396 85.9839L-19.4099 86.5522C-33.586 86.8513 -47.3135 89.2738 -60.084 93.5804C-85.6548 102.014 -107.069 117.088 -123.548 133.896C-140.266 150.614 -152.647 168.708 -162.367 185.336C-172.087 202.025 -179.056 217.427 -184.26 230.287C-189.463 243.177 -192.903 253.525 -195.056 260.613C-197.209 267.731 -198.107 271.44 -198.107 271.44L-207.856 268.987Z" fill="#FEE56F"/>
</g>
<mask id="mask11_1512_603" style="mask-type:luminance" maskUnits="userSpaceOnUse" x="0" y="0" width="323" height="323">
<path d="M323 0H0V323H323V0Z" fill="white"/>
</mask>
<g mask="url(#mask11_1512_603)">
<path d="M-190.032 286.782C-190.032 286.782 -189.015 282.685 -186.742 275.447C-184.469 268.15 -180.82 257.563 -175.377 244.403C-169.904 231.274 -162.607 215.543 -152.438 198.466C-142.24 181.448 -129.29 162.876 -111.704 145.619C-94.3579 128.303 -71.718 112.631 -44.6219 103.988C-31.1635 99.6216 -16.6285 97.1991 -1.79445 97.0197C12.7406 96.7206 27.0064 95.644 40.0759 89.483C46.7154 86.7315 52.5174 82.3052 58.0204 77.5201C63.1345 72.3162 67.9496 66.6337 71.718 60.084C79.5537 47.1939 84.9669 32.5692 89.6624 17.5856C99.1431 -12.2919 105.962 -44.4125 122.441 -72.9142C130.695 -87.0305 142.03 -99.5916 155.877 -108.444C169.695 -117.357 185.575 -122.261 201.396 -124.534C217.307 -127.047 233.188 -125.94 248.501 -126.807C263.843 -127.525 279.126 -129.08 293.511 -132.968C307.867 -136.796 321.355 -143.197 332.092 -152.647C342.709 -162.218 350.634 -174.061 357.035 -186.203C369.745 -210.608 379.555 -234.923 391.009 -256.157C413.201 -299.134 438.472 -330.866 456.836 -352.07C466.167 -362.597 473.674 -370.702 478.997 -376.026C484.261 -381.409 487.072 -384.28 487.072 -384.28C487.072 -384.28 484.291 -381.379 479.087 -375.936C473.793 -370.583 466.376 -362.388 457.165 -351.771C439.041 -330.387 414.128 -298.476 392.445 -255.409C381.2 -234.115 371.689 -209.771 359.098 -185.067C352.788 -172.775 344.832 -160.573 333.946 -150.554C322.97 -140.684 309.033 -133.925 294.409 -129.888C279.694 -125.791 264.322 -124.056 248.71 -123.159C233.158 -122.142 217.427 -123.069 202.054 -120.437C186.682 -118.074 171.489 -113.2 158.449 -104.556C145.35 -96.0327 134.703 -84.0099 126.897 -70.3422C111.226 -42.7077 104.676 -10.9461 95.4345 19.38C90.8288 34.573 85.4455 49.6762 77.3106 63.4336C73.3629 70.3722 68.2487 76.6228 62.7158 82.3351C56.7643 87.6586 50.3641 92.5934 43.0966 95.7336L37.7132 98.216L32.1206 99.9207C28.442 101.207 24.6138 101.954 20.7258 102.523C16.8379 103.33 13.0995 103.689 9.48065 103.779L-1.52527 104.347C-15.7014 104.646 -29.4289 107.069 -42.1694 111.345C-67.7403 119.779 -89.154 134.853 -105.663 151.66C-122.351 168.379 -134.763 186.473 -144.483 203.131C-154.203 219.82 -161.171 235.192 -166.375 248.052C-171.579 260.942 -175.048 271.29 -177.171 278.378C-179.325 285.526 -180.222 289.235 -180.222 289.235L-190.032 286.782Z" fill="#FEE56F"/>
</g>
<mask id="mask12_1512_603" style="mask-type:luminance" maskUnits="userSpaceOnUse" x="0" y="0" width="323" height="323">
<path d="M323 0H0V323H323V0Z" fill="white"/>
</mask>
<g mask="url(#mask12_1512_603)">
<path d="M-172.267 304.607C-172.267 304.607 -171.25 300.51 -168.947 293.242C-166.674 285.915 -163.025 275.357 -157.582 262.198C-152.109 249.069 -144.812 233.367 -134.643 216.29C-124.445 199.273 -111.465 180.701 -93.9093 163.444C-76.563 146.098 -53.8932 130.426 -26.827 121.783C-13.3387 117.416 1.16634 114.994 16.0303 114.815C30.5653 114.516 44.8012 113.439 57.9007 107.308C64.5401 104.526 70.3422 100.1 75.8451 95.3149C80.9593 90.111 85.7744 84.4286 89.5726 77.9088C97.3785 65.0187 102.792 50.394 107.517 35.4104C116.938 5.5329 123.817 -26.5877 140.296 -55.0595C148.52 -69.1758 159.885 -81.7668 173.732 -90.5895C187.549 -99.472 203.43 -104.407 219.251 -106.65C235.162 -109.162 251.043 -108.055 266.385 -108.953C281.728 -109.641 296.98 -111.226 311.366 -115.114C325.721 -118.942 339.21 -125.342 349.917 -134.763C360.534 -144.333 368.429 -156.206 374.859 -168.349C387.57 -192.723 397.38 -217.068 408.834 -238.302C431.025 -281.279 456.297 -313.011 474.66 -334.215C483.992 -344.743 491.498 -352.877 496.822 -358.171C502.085 -363.584 504.897 -366.426 504.897 -366.426C504.897 -366.426 502.115 -363.525 496.911 -358.081C491.648 -352.728 484.201 -344.533 474.989 -333.916C456.865 -312.532 431.953 -280.621 410.27 -237.555C399.025 -216.26 389.514 -191.946 376.923 -167.212C370.613 -154.92 362.627 -142.718 351.771 -132.699C340.765 -122.83 326.858 -116.071 312.203 -112.003C297.489 -107.906 282.116 -106.171 266.535 -105.304C250.953 -104.287 235.252 -105.214 219.879 -102.612C204.507 -100.25 189.314 -95.3448 176.244 -86.7315C163.145 -78.1779 152.498 -66.1851 144.692 -52.5174C129.021 -24.8829 122.501 6.87872 113.259 37.2048C108.564 52.3679 103.18 67.501 95.0457 81.2584C91.1278 88.197 85.9837 94.4177 80.4509 100.16C74.4993 105.483 68.0991 110.388 60.8316 113.529L55.4782 116.011L49.8556 117.745C46.2069 119.031 42.3488 119.779 38.4609 120.347C34.5729 121.155 30.8345 121.514 27.2157 121.604L16.1799 122.172C2.03366 122.471 -11.7536 124.923 -24.4643 129.17C-50.065 137.634 -71.4488 152.677 -87.9577 169.485C-104.676 186.204 -117.058 204.298 -126.807 220.956C-136.497 237.644 -143.496 253.047 -148.7 265.907C-153.904 278.767 -157.343 289.145 -159.496 296.233C-161.65 303.381 -162.517 307.089 -162.517 307.089L-172.267 304.607Z" fill="#FEE56F"/>
</g>
<mask id="mask13_1512_603" style="mask-type:luminance" maskUnits="userSpaceOnUse" x="0" y="0" width="323" height="323">
<path d="M323 0H0V323H323V0Z" fill="white"/>
</mask>
<g mask="url(#mask13_1512_603)">
<path d="M-154.472 322.402C-154.472 322.402 -153.455 318.305 -151.152 311.067C-148.879 303.77 -145.23 293.182 -139.787 280.023C-134.314 266.894 -127.017 251.162 -116.848 234.085C-106.68 217.068 -93.6999 198.495 -76.1143 181.239C-58.768 163.893 -36.0982 148.221 -9.03201 139.608C4.45622 135.241 18.9912 132.819 33.8253 132.639C48.3902 132.34 62.5962 131.294 75.7256 125.133C82.3351 122.381 88.1671 117.955 93.67 113.17C98.7842 107.966 103.599 102.283 107.368 95.7336C115.173 82.8734 120.587 68.2188 125.312 53.2352C134.733 23.3278 141.612 -8.76285 158.091 -37.2646C166.315 -51.3809 177.65 -63.9719 191.497 -72.7946C205.314 -81.707 221.195 -86.6118 237.016 -88.8848C252.957 -91.397 268.808 -90.2904 284.15 -91.1877C299.493 -91.8755 314.716 -93.4606 329.131 -97.3486C343.487 -101.177 356.975 -107.577 367.712 -116.998C378.299 -126.568 386.224 -138.441 392.625 -150.554C405.335 -174.958 415.145 -199.273 426.599 -220.507C448.791 -263.484 474.062 -295.216 492.426 -316.42C501.757 -326.948 509.263 -335.083 514.587 -340.376C519.851 -345.76 522.662 -348.631 522.662 -348.631C522.662 -348.631 519.91 -345.73 514.677 -340.286C509.383 -334.933 501.966 -326.738 492.755 -316.151C474.601 -294.767 449.718 -262.856 428.005 -219.79C416.79 -198.495 407.249 -174.151 394.688 -149.447C388.378 -137.155 380.392 -124.923 369.536 -114.904C358.53 -105.035 344.623 -98.2757 329.969 -94.2382C315.284 -90.1409 299.882 -88.4062 284.3 -87.509C268.718 -86.4922 253.017 -87.4193 237.644 -84.8174C222.272 -82.4547 207.079 -77.5499 194.009 -68.9366C180.91 -60.383 170.293 -48.3602 162.457 -34.7225C146.786 -7.08801 140.266 24.7036 131.024 54.9998C126.389 70.1927 121.005 85.3258 112.841 99.0533C108.923 105.992 103.779 112.243 98.2459 117.955C92.2943 123.278 85.8642 128.213 78.6266 131.353L73.2433 133.806L67.6207 135.54C63.972 136.856 60.1139 137.574 56.226 138.142C52.338 138.95 48.5996 139.309 44.9808 139.398L33.9449 139.967C19.7987 140.266 6.04132 142.718 -6.69923 146.995C-32.3 155.429 -53.6838 170.502 -70.1628 187.31C-86.8511 204.028 -99.2627 222.122 -109.012 238.751C-118.702 255.439 -125.701 270.841 -130.905 283.702C-136.079 296.562 -139.548 306.94 -141.671 314.028C-143.825 321.176 -144.692 324.884 -144.692 324.884L-154.472 322.402Z" fill="#FEE56F"/>
</g>
<mask id="mask14_1512_603" style="mask-type:luminance" maskUnits="userSpaceOnUse" x="0" y="0" width="323" height="323">
<path d="M323 0H0V323H323V0Z" fill="white"/>
</mask>
<g mask="url(#mask14_1512_603)">
<path d="M-136.677 340.197C-136.677 340.197 -135.66 336.099 -133.357 328.832C-131.084 321.505 -127.435 310.947 -121.992 297.788C-116.519 284.659 -109.192 268.957 -99.0533 251.88C-88.8848 234.863 -75.8751 216.29 -58.3195 199.034C-40.9731 181.717 -18.3033 166.016 8.76288 157.403C22.2511 153.036 36.7861 150.614 51.6202 150.434C66.1851 150.135 80.3911 149.058 93.5205 142.927C100.16 140.146 105.962 135.72 111.435 130.964C116.549 125.761 121.364 120.048 125.133 113.528C132.968 100.638 138.382 86.0136 143.107 71.03C152.558 41.1226 159.407 9.03192 175.885 -19.4399C184.14 -33.5562 195.445 -46.1472 209.292 -54.9699C223.109 -63.8823 238.99 -68.7871 254.811 -71.0601C270.752 -73.5723 286.603 -72.4658 301.945 -73.3331C317.288 -74.0508 332.541 -75.6359 346.956 -79.494C361.311 -83.3221 374.77 -89.7223 385.507 -99.173C396.094 -108.743 404.049 -120.587 410.419 -132.729C423.13 -157.134 432.94 -181.448 444.424 -202.683C466.615 -245.66 491.857 -277.391 510.22 -298.596C519.552 -309.123 527.058 -317.228 532.412 -322.551C537.675 -327.935 540.457 -330.806 540.457 -330.806C540.457 -330.806 537.705 -327.905 532.472 -322.462C527.178 -317.078 519.761 -308.914 510.549 -298.297C492.396 -276.913 467.483 -245.002 445.8 -201.935C434.555 -180.611 425.044 -156.296 412.483 -131.593C406.143 -119.301 398.187 -107.099 387.331 -97.0496C376.325 -87.1802 362.418 -80.4211 347.763 -76.3836C333.079 -72.2863 317.677 -70.5517 302.095 -69.6544C286.513 -68.6077 270.812 -69.5647 255.439 -66.9329C240.067 -64.5702 224.874 -59.6654 211.804 -51.0819C198.705 -42.5284 188.088 -30.5057 180.252 -16.838C164.61 10.7964 158.061 42.5581 148.819 72.8842C144.154 87.9875 138.77 103.121 130.636 116.848C126.688 123.817 121.574 130.037 116.041 135.78C110.089 141.073 103.659 146.038 96.4215 149.148L91.0681 151.63L85.4455 153.335C81.7968 154.651 77.9387 155.369 74.0807 155.937C70.1927 156.745 66.4543 157.103 62.8355 157.193L51.8295 157.761C37.6534 158.061 23.9259 160.483 11.1854 164.76C-14.3855 173.194 -35.7992 188.267 -52.2781 205.075C-68.9665 221.793 -81.3781 239.887 -91.098 256.516C-100.818 273.204 -107.816 288.606 -113.02 301.467C-118.194 314.357 -121.633 324.705 -123.787 331.793C-125.94 338.941 -126.807 342.649 -126.807 342.649L-136.677 340.197Z" fill="#FEE56F"/>
</g>
<mask id="mask15_1512_603" style="mask-type:luminance" maskUnits="userSpaceOnUse" x="0" y="0" width="323" height="323">
<path d="M323 0H0V323H323V0Z" fill="white"/>
</mask>
<g mask="url(#mask15_1512_603)">
<path d="M-118.852 357.992C-118.852 357.992 -117.835 353.894 -115.562 346.657C-113.289 339.329 -109.641 328.772 -104.167 315.613C-98.7243 302.483 -91.397 286.752 -81.2285 269.675C-71.06 252.658 -58.0802 234.085 -40.4946 216.829C-23.1483 199.512 -0.478516 183.841 26.5877 175.197C40.0759 170.831 54.581 168.379 69.4151 168.229C83.98 167.93 98.186 166.853 111.315 160.722C117.955 157.941 123.757 153.545 129.26 148.759C134.374 143.555 139.189 137.873 142.957 131.323C150.793 118.463 156.206 103.809 160.932 88.8548C170.383 58.9474 177.231 26.8268 193.71 -1.64499C201.965 -15.7613 213.3 -28.3523 227.147 -37.175C240.964 -46.0874 256.845 -51.0221 272.666 -53.2652C288.606 -55.7774 304.457 -54.6708 319.8 -55.5381C335.142 -56.2858 350.425 -57.841 364.811 -61.6991C379.166 -65.5272 392.654 -71.9274 403.361 -81.3781C413.948 -90.9485 421.904 -102.792 428.274 -114.934C441.015 -139.309 450.794 -163.653 462.279 -184.888C484.5 -227.865 509.742 -259.596 528.105 -280.801C537.436 -291.328 544.913 -299.433 550.266 -304.757C555.53 -310.17 558.341 -313.011 558.341 -313.011C558.341 -313.011 555.56 -310.11 550.356 -304.667C545.062 -299.283 537.646 -291.119 528.434 -280.502C510.28 -259.118 485.367 -227.207 463.714 -184.14C452.469 -162.846 442.959 -138.501 430.368 -113.828C424.057 -101.536 416.072 -89.3036 405.215 -79.2846C394.21 -69.3853 380.303 -62.6561 365.648 -58.6186C350.934 -54.5213 335.531 -52.7867 319.949 -51.8894C304.398 -50.8427 288.666 -51.7698 273.294 -49.1679C257.921 -46.8052 242.729 -41.9004 229.689 -33.287C216.5 -24.7933 205.853 -12.8004 198.017 0.867218C182.345 28.5017 175.796 60.2633 166.584 90.5894C161.979 105.782 156.595 120.886 148.46 134.643C144.513 141.582 139.398 147.802 133.836 153.545C127.884 158.838 121.484 163.803 114.216 166.943L108.833 169.395L103.24 171.1C99.5618 172.416 95.7037 173.134 91.8457 173.702C87.9278 174.51 84.2193 174.868 80.6005 174.958L69.5945 175.526C55.4184 175.826 41.6909 178.248 28.9205 182.525C3.34962 191.018 -18.0342 206.062 -34.5431 222.87C-51.2613 239.588 -63.643 257.682 -73.3629 274.311C-83.0828 290.999 -90.0811 306.401 -95.285 319.261C-100.459 332.122 -103.898 342.5 -106.052 349.588C-108.205 356.735 -109.072 360.444 -109.072 360.444L-118.852 357.992Z" fill="#FEE56F"/>
</g>
<mask id="mask16_1512_603" style="mask-type:luminance" maskUnits="userSpaceOnUse" x="0" y="0" width="323" height="323">
<path d="M323 0H0V323H323V0Z" fill="white"/>
</mask>
<g mask="url(#mask16_1512_603)">
<path d="M-101.027 375.786C-101.027 375.786 -100.01 371.689 -97.7374 364.452C-95.4644 357.154 -91.8157 346.567 -86.3726 333.408C-80.8995 320.278 -73.6021 304.547 -63.4336 287.47C-53.2651 270.453 -40.2853 251.88 -22.6997 234.624C-5.38333 217.337 17.2865 201.636 44.3826 192.992C57.8409 188.626 72.3759 186.203 87.21 186.024C101.745 185.725 115.981 184.648 129.08 178.517C135.72 175.736 141.522 171.339 147.025 166.554C152.139 161.35 156.954 155.668 160.752 149.148C168.588 136.258 174.001 121.633 178.697 106.65C188.177 76.7423 194.996 44.6517 211.475 16.1499C219.73 2.03363 231.065 -10.5275 244.912 -19.3801C258.729 -28.2925 274.61 -33.1973 290.431 -35.4702C306.342 -37.9825 322.222 -36.8759 337.535 -37.7432C352.877 -38.461 368.16 -40.0461 382.546 -43.9041C396.901 -47.7323 410.389 -54.1325 421.096 -63.5832C431.713 -73.1536 439.639 -84.9969 446.039 -97.1393C458.75 -121.544 468.559 -145.858 480.044 -167.093C502.235 -210.07 527.477 -241.801 545.84 -263.006C555.171 -273.533 562.678 -281.638 568.002 -286.962C573.265 -292.345 576.076 -295.216 576.076 -295.216C576.076 -295.216 573.295 -292.315 568.061 -286.872C562.768 -281.518 555.381 -273.294 546.139 -262.707C528.015 -241.353 503.073 -209.412 481.42 -166.345C470.174 -145.051 460.664 -120.706 448.073 -96.0028C441.762 -83.7109 433.777 -71.4788 422.921 -61.4598C411.915 -51.5903 398.008 -44.8313 383.353 -40.7938C368.639 -36.6965 353.266 -34.9618 337.685 -34.0945C322.103 -33.0777 306.372 -34.0048 290.999 -31.4029C275.657 -29.0402 260.434 -24.1653 247.394 -15.5519C234.295 -6.99841 223.648 4.99448 215.842 18.692C200.17 46.2966 193.621 78.0882 184.379 108.384C179.773 123.577 174.39 138.71 166.255 152.438C162.308 159.377 157.193 165.627 151.631 171.339C145.709 176.663 139.279 181.598 132.041 184.738L126.658 187.22L121.065 188.895C117.387 190.211 113.558 190.929 109.67 191.527C105.783 192.334 102.044 192.693 98.4253 192.783L87.4194 193.351C73.2432 193.65 59.5157 196.073 46.7453 200.35C21.1744 208.813 -0.239258 223.857 -16.7481 240.665C-33.4365 257.383 -45.8481 275.477 -55.568 292.106C-65.2879 308.794 -72.2862 324.196 -77.4602 337.056C-82.6641 349.947 -86.1034 360.294 -88.2269 367.383C-90.3802 374.53 -91.2774 378.239 -91.2774 378.239L-101.027 375.786Z" fill="#FEE56F"/>
</g>
<mask id="mask17_1512_603" style="mask-type:luminance" maskUnits="userSpaceOnUse" x="0" y="0" width="323" height="323">
<path d="M323 0H0V323H323V0Z" fill="white"/>
</mask>
<g mask="url(#mask17_1512_603)">
<path d="M-83.2622 393.612C-83.2622 393.612 -82.2454 389.514 -79.9724 382.247C-77.6994 374.949 -74.0507 364.362 -68.6076 351.203C-63.1345 338.073 -55.8371 322.342 -45.6686 305.265C-35.4702 288.248 -22.5203 269.675 -4.93472 252.419C12.4116 235.102 35.0515 219.431 62.1476 210.788C75.6358 206.421 90.1409 203.999 104.975 203.819C119.54 203.52 133.776 202.443 146.875 196.282C153.515 193.531 159.287 189.105 164.82 184.319C169.934 179.116 174.749 173.433 178.547 166.913C186.353 154.023 191.766 139.399 196.492 124.415C205.972 94.5374 212.791 62.4168 229.27 33.9151C237.525 19.7988 248.859 7.2377 262.707 -1.6149C276.524 -10.4974 292.405 -15.4321 308.226 -17.7051C324.136 -20.2173 340.017 -19.1107 355.33 -19.978C370.702 -20.6958 385.955 -22.251 400.34 -26.139C414.696 -29.9671 428.184 -36.3673 438.921 -45.7881C449.538 -55.3884 457.434 -67.2317 463.864 -79.3741C476.574 -103.749 486.384 -128.093 497.839 -149.328C520.03 -192.305 545.302 -224.036 563.665 -245.241C572.996 -255.768 580.503 -263.903 585.826 -269.196C591.09 -274.58 593.901 -277.451 593.901 -277.451C593.901 -277.451 591.12 -274.55 585.916 -269.107C580.622 -263.723 573.205 -255.559 563.994 -244.942C545.87 -223.558 520.957 -191.647 499.274 -148.58C488.029 -127.286 478.518 -102.971 465.927 -78.2377C459.617 -65.9457 451.632 -53.7435 440.775 -43.7245C429.799 -33.8551 415.862 -27.096 401.238 -23.0585C386.523 -18.9612 371.151 -17.2266 355.569 -16.3293C339.987 -15.3125 324.256 -16.2396 308.884 -13.6078C293.511 -11.2451 278.318 -6.37018 265.279 2.27307C252.119 10.7668 241.442 22.7895 233.637 36.4871C217.965 64.1216 211.445 95.8832 202.174 126.209C197.568 141.402 192.185 156.506 184.05 170.263C180.102 177.231 174.988 183.452 169.455 189.194C163.504 194.488 157.104 199.453 149.836 202.563L144.453 205.045L138.86 206.75C135.181 208.066 131.353 208.784 127.465 209.352C123.577 210.159 119.839 210.518 116.22 210.608L105.214 211.176C91.068 211.475 77.3106 213.898 64.5701 218.175C38.9693 226.579 17.5556 241.652 1.04676 258.46C-15.6416 275.178 -28.0531 293.272 -37.7731 309.931C-47.4631 326.619 -54.4614 342.021 -59.6653 354.881C-64.8692 367.742 -68.3085 378.119 -70.4618 385.208C-72.6152 392.355 -73.5124 396.064 -73.5124 396.064L-83.2622 393.612Z" fill="#FEE56F"/>
</g>
<mask id="mask18_1512_603" style="mask-type:luminance" maskUnits="userSpaceOnUse" x="0" y="0" width="323" height="323">
<path d="M323 0H0V323H323V0Z" fill="white"/>
</mask>
<g mask="url(#mask18_1512_603)">
<path d="M-65.4673 411.406C-65.4673 411.406 -64.4505 407.309 -62.1476 400.042C-59.8746 392.744 -56.2259 382.157 -50.7828 368.998C-45.3097 355.868 -37.9824 340.167 -27.8438 323.09C-17.6454 306.073 -4.66556 287.5 12.8901 270.243C30.2364 252.897 52.9062 237.226 79.9724 228.582C93.4606 224.216 107.996 221.793 122.83 221.614C137.365 221.315 151.601 220.238 164.7 214.107C171.34 211.326 177.142 206.9 182.645 202.114C187.759 196.91 192.574 191.228 196.372 184.708C204.178 171.818 209.591 157.193 214.316 142.21C223.797 112.332 230.646 80.2118 247.125 51.71C255.349 37.5937 266.714 25.0027 280.561 16.18C294.379 7.29752 310.259 2.36282 326.08 0.119751C342.021 -2.39246 357.872 -1.28589 373.215 -2.18311C388.557 -2.871 403.81 -4.4561 418.225 -8.34406C432.581 -12.1722 446.069 -18.5724 456.776 -27.9932C467.393 -37.5636 475.318 -49.4368 481.719 -61.5493C494.429 -85.9538 504.239 -110.298 515.693 -131.533C537.885 -174.51 563.156 -206.241 581.52 -227.446C590.851 -237.973 598.357 -246.108 603.681 -251.402C608.945 -256.815 611.756 -259.656 611.756 -259.656C611.756 -259.656 608.975 -256.755 603.771 -251.312C598.477 -245.958 591.06 -237.764 581.819 -227.147C563.695 -205.763 538.812 -173.852 517.099 -130.785C505.854 -109.491 496.343 -85.1762 483.782 -60.4428C477.472 -48.1508 469.486 -35.9486 458.63 -25.9296C447.624 -16.0303 433.717 -9.30109 419.063 -5.23367C404.258 -1.13635 388.886 0.598267 373.304 1.49548C357.722 2.51233 342.021 1.58521 326.649 4.18716C311.276 6.54984 296.083 11.4547 283.014 20.068C269.914 28.6215 259.267 40.6143 251.461 54.282C235.79 81.9165 229.27 113.678 220.029 144.004C215.423 159.197 210.01 174.33 201.875 188.058C197.957 194.996 192.813 201.217 187.28 206.959C181.329 212.283 174.928 217.188 167.661 220.358L162.307 222.81L156.685 224.545C153.036 225.831 149.178 226.579 145.29 227.147C141.402 227.954 137.664 228.313 134.045 228.403L123.009 228.971C108.863 229.27 95.0756 231.723 82.365 235.999C56.7642 244.433 35.3805 259.477 18.8716 276.285C2.15333 293.003 -10.2283 311.097 -19.9782 327.755C-29.6682 344.444 -36.6366 359.846 -41.8704 372.706C-47.0444 385.566 -50.5136 395.944 -52.667 403.032C-54.8203 410.18 -55.6876 413.889 -55.6876 413.889L-65.4673 411.406Z" fill="#FEE56F"/>
</g>
<mask id="mask19_1512_603" style="mask-type:luminance" maskUnits="userSpaceOnUse" x="0" y="0" width="323" height="323">
<path d="M323 0H0V323H323V0Z" fill="white"/>
</mask>
<g mask="url(#mask19_1512_603)">
<path d="M-47.6724 429.201C-47.6724 429.201 -46.6556 425.104 -44.3527 417.866C-42.0797 410.569 -38.431 399.982 -32.9879 386.823C-27.5148 373.693 -20.2174 357.962 -10.0489 340.885C0.119602 323.867 13.1293 305.295 30.685 288.038C48.0313 270.722 70.7011 255.021 97.7673 246.407C111.256 242.041 125.79 239.618 140.625 239.439C155.189 239.11 169.395 238.063 182.525 231.902C189.134 229.151 194.936 224.724 200.469 219.939C205.583 214.735 210.399 209.053 214.167 202.533C222.003 189.643 227.386 175.018 232.111 160.035C241.562 130.157 248.411 98.0366 264.92 69.5648C273.144 55.4485 284.479 42.8575 298.326 34.0348C312.144 25.1223 328.024 20.2175 343.845 17.9446C359.786 15.4323 375.637 16.5389 390.979 15.6417C406.322 14.9538 421.575 13.3687 435.96 9.51068C450.316 5.68253 463.804 -0.717651 474.541 -10.1684C485.128 -19.7388 493.083 -31.5821 499.454 -43.7245C512.164 -68.129 521.974 -92.4437 533.428 -113.678C555.62 -156.655 580.891 -188.387 599.255 -209.591C608.586 -220.118 616.092 -228.223 621.416 -233.547C626.68 -238.93 629.491 -241.801 629.491 -241.801C629.491 -241.801 626.74 -238.9 621.506 -233.457C616.212 -228.104 608.795 -219.909 599.584 -209.292C581.43 -187.908 556.547 -155.997 534.864 -112.93C523.619 -91.6362 514.108 -67.2915 501.517 -42.588C495.207 -30.2961 487.221 -18.0639 476.365 -8.04497C465.359 1.82448 451.452 8.58356 436.798 12.6211C422.113 16.7184 406.711 18.453 391.129 19.3502C375.547 20.3671 359.846 19.4399 344.473 22.0718C329.101 24.4046 313.908 29.3094 300.839 37.9227C287.709 46.3865 277.062 58.4093 269.226 72.077C253.585 99.7114 247.035 131.473 237.794 161.799C233.158 176.992 227.775 192.125 219.61 205.853C215.692 212.791 210.548 219.042 205.015 224.754C199.034 230.078 192.634 235.013 185.366 238.153L179.983 240.605L174.39 242.34C170.741 243.656 166.883 244.374 162.995 244.942C159.107 245.749 155.399 246.108 151.75 246.198L140.744 246.766C126.568 247.065 112.841 249.518 100.1 253.794C74.4993 262.228 53.1155 277.302 36.6365 294.11C19.9482 310.828 7.53664 328.922 -2.21317 345.55C-11.9032 362.239 -18.9015 377.641 -24.1054 390.501C-29.2794 403.391 -32.7486 413.739 -34.8721 420.827C-37.0254 427.975 -37.8927 431.684 -37.8927 431.684L-47.6724 429.201Z" fill="#FEE56F"/>
</g>
<mask id="mask20_1512_603" style="mask-type:luminance" maskUnits="userSpaceOnUse" x="0" y="0" width="323" height="323">
<path d="M323 0H0V323H323V0Z" fill="white"/>
</mask>
<g mask="url(#mask20_1512_603)">
<path d="M-29.8775 446.996C-29.8775 446.996 -28.8607 442.899 -26.5578 435.631C-24.2848 428.304 -20.6361 417.747 -15.1631 404.587C-9.71991 391.488 -2.3926 375.757 7.77592 358.68C17.9444 341.662 30.9242 323.09 48.4799 305.833C65.8262 288.517 88.496 272.845 115.562 264.202C129.05 259.836 143.556 257.413 158.39 257.234C172.954 256.935 187.161 255.858 200.29 249.727C206.929 246.945 212.731 242.519 218.204 237.764C223.319 232.56 228.134 226.848 231.902 220.328C239.738 207.438 245.151 192.813 249.876 177.829C259.357 147.952 266.176 115.831 282.685 87.3296C290.939 73.2432 302.244 60.6223 316.091 51.7996C329.909 42.8872 345.789 37.9824 361.61 35.7393C377.551 33.2271 393.402 34.3337 408.744 33.4365C424.087 32.7187 439.34 31.1635 453.755 27.2755C468.111 23.4474 481.569 17.0472 492.306 7.59648C502.893 -1.97389 510.848 -13.8172 517.219 -25.9596C529.929 -50.3641 539.739 -74.6788 551.223 -95.9131C573.415 -138.89 598.656 -170.622 617.049 -191.826C626.381 -202.354 633.857 -210.458 639.211 -215.782C644.475 -221.165 647.286 -224.036 647.286 -224.036C647.286 -224.036 644.505 -221.135 639.301 -215.692C634.007 -210.309 626.59 -202.144 617.378 -191.527C599.225 -170.143 574.312 -138.232 552.629 -95.1654C541.384 -73.8414 531.873 -49.5267 519.312 -24.8232C512.972 -12.5312 505.016 -0.328995 494.16 9.71989C483.154 19.5893 469.247 26.3484 454.593 30.3859C439.908 34.4832 424.506 36.2179 408.924 37.1151C393.342 38.1618 377.641 37.2048 362.268 39.8367C346.896 42.1993 331.703 47.1042 318.633 55.6876C305.564 64.2411 294.917 76.2639 287.081 89.9316C271.44 117.566 264.89 149.328 255.648 179.654C251.043 194.847 245.659 209.95 237.495 223.707C233.547 230.676 228.433 236.897 222.9 242.639C216.948 247.932 210.518 252.897 203.281 256.007L197.927 258.49L192.305 260.194C188.656 261.51 184.798 262.228 180.91 262.796C177.022 263.604 173.283 263.963 169.665 264.052L158.629 264.621C144.453 264.92 130.725 267.342 117.985 271.619C92.4139 280.083 71.0002 295.126 54.5212 311.934C37.8329 328.652 25.4213 346.746 15.7014 363.375C5.92166 380.003 -1.04677 395.406 -6.28056 408.236C-11.4545 421.126 -14.8939 431.474 -17.0472 438.562C-19.2006 445.71 -20.0679 449.419 -20.0679 449.419L-29.8775 446.996Z" fill="#FEE56F"/>
</g>
<mask id="mask21_1512_603" style="mask-type:luminance" maskUnits="userSpaceOnUse" x="0" y="0" width="323" height="323">
<path d="M323 0H0V323H323V0Z" fill="white"/>
</mask>
<g mask="url(#mask21_1512_603)">
<path d="M-12.0527 464.791C-12.0527 464.791 -11.0358 460.694 -8.76286 453.456C-6.4899 446.129 -2.84119 435.572 2.63186 422.412C8.07501 409.283 15.4023 393.552 25.5708 376.475C35.7394 359.457 48.7192 340.885 66.2748 323.628C83.6211 306.312 106.291 290.64 133.387 281.997C146.845 277.631 161.38 275.208 176.214 275.029C190.779 274.73 205.015 273.653 218.115 267.522C224.754 264.741 230.556 260.344 236.059 255.559C241.173 250.355 245.988 244.673 249.757 238.123C257.592 225.263 263.006 210.608 267.731 195.654C277.182 165.747 284.031 133.626 300.51 105.155C308.764 91.0383 320.099 78.4473 333.946 69.6246C347.763 60.7122 363.644 55.8074 379.465 53.5344C395.406 51.0222 411.257 52.1288 426.599 51.2615C441.942 50.5138 457.224 48.9586 471.61 45.1005C485.966 41.2724 499.454 34.8722 510.161 25.4214C520.748 15.8511 528.703 4.00774 535.073 -8.13466C547.814 -32.5092 557.594 -56.8538 569.078 -78.0881C591.299 -121.065 616.541 -152.797 634.904 -174.001C644.235 -184.529 651.742 -192.633 657.066 -197.957C662.329 -203.34 665.141 -206.211 665.141 -206.211C665.141 -206.211 662.359 -203.31 657.156 -197.867C651.862 -192.484 644.475 -184.319 635.233 -173.702C617.08 -152.318 592.167 -120.407 570.514 -77.3404C559.269 -56.0463 549.758 -31.7017 537.167 -7.02809C530.857 5.26385 522.871 17.496 512.015 27.515C501.009 37.3844 487.102 44.1435 472.447 48.181C457.733 52.2783 442.361 54.0129 426.749 54.8802C411.197 55.927 395.466 54.9999 380.093 57.6018C364.721 59.9645 349.528 64.8693 336.488 73.4827C323.389 82.0362 312.742 94.0291 304.936 107.697C289.264 135.331 282.715 167.093 273.503 197.419C268.898 212.612 263.514 227.715 255.379 241.473C251.432 248.411 246.317 254.632 240.755 260.374C234.803 265.698 228.403 270.632 221.135 273.773L215.782 276.225L210.189 277.93C206.511 279.246 202.683 279.963 198.795 280.562C194.907 281.339 191.168 281.728 187.549 281.788L176.543 282.356C162.367 282.655 148.64 285.078 135.869 289.384C110.299 297.818 88.8848 312.891 72.4058 329.699C55.6876 346.418 43.3059 364.512 33.586 381.14C23.8661 397.828 16.8678 413.231 11.6938 426.091C6.48992 438.951 3.05057 449.329 0.897234 456.417C-1.2561 463.565 -2.12341 467.273 -2.12341 467.273L-12.0527 464.791Z" fill="#FEE56F"/>
</g>
<mask id="mask22_1512_603" style="mask-type:luminance" maskUnits="userSpaceOnUse" x="0" y="0" width="323" height="323">
<path d="M323 0H0V323H323V0Z" fill="white"/>
</mask>
<g mask="url(#mask22_1512_603)">
<path d="M5.74222 482.616C5.74222 482.616 6.75907 478.518 9.03203 471.251C11.305 463.954 14.9537 453.366 20.3968 440.207C25.8699 427.078 33.1673 411.346 43.3358 394.269C53.5343 377.252 66.4842 358.679 84.0697 341.423C101.386 324.107 124.056 308.405 151.152 299.792C164.61 295.425 179.145 293.003 193.979 292.823C208.514 292.524 222.78 291.448 235.85 285.317C242.489 282.535 248.291 278.139 253.794 273.354C258.908 268.15 263.724 262.467 267.522 255.948C275.358 243.057 280.771 228.433 285.466 213.449C294.947 183.542 301.766 151.451 318.245 122.949C326.499 108.833 337.834 96.2719 351.681 87.4193C365.498 78.5069 381.379 73.6021 397.2 71.3291C413.111 68.8169 428.992 69.9235 444.304 69.0562C459.647 68.3383 474.93 66.7533 489.315 62.8952C503.671 59.067 517.159 52.6669 527.866 43.2161C538.483 33.6458 546.408 21.8024 552.809 9.66002C565.519 -14.7444 575.329 -39.0592 586.783 -60.2934C608.975 -103.27 634.217 -135.002 652.61 -156.206C661.941 -166.734 669.447 -174.839 674.771 -180.162C680.035 -185.546 682.846 -188.417 682.846 -188.417C682.846 -188.417 680.065 -185.516 674.861 -180.073C669.567 -174.689 662.15 -166.525 652.939 -155.907C634.815 -134.554 609.872 -102.612 588.219 -59.5457C576.974 -38.2816 567.463 -13.9668 554.872 10.7666C548.562 23.0585 540.606 35.2907 529.72 45.3096C518.714 55.1791 504.807 61.9382 490.153 65.9757C475.438 70.073 460.066 71.8076 444.484 72.7048C428.932 73.7217 413.201 72.7946 397.828 75.3965C382.456 77.7592 367.263 82.664 354.223 91.2773C341.124 99.8309 330.477 111.824 322.671 125.521C307 153.156 300.45 184.917 291.208 215.244C286.603 230.436 281.219 245.54 273.085 259.297C269.137 266.236 264.023 272.486 258.46 278.229C252.538 283.522 246.108 288.487 238.87 291.597L233.487 294.079L227.894 295.784C224.216 297.1 220.388 297.818 216.5 298.386C212.612 299.194 208.873 299.553 205.255 299.642L194.249 300.211C180.072 300.51 166.345 302.932 153.604 307.209C128.034 315.643 106.62 330.716 90.111 347.524C73.4227 364.242 61.0111 382.336 51.2912 398.965C41.6012 415.653 34.6029 431.055 29.399 443.916C24.225 456.806 20.7557 467.154 18.6323 474.242C16.479 481.39 15.5818 485.098 15.5818 485.098L5.74222 482.616Z" fill="#FEE56F"/>
</g>
<mask id="mask23_1512_603" style="mask-type:luminance" maskUnits="userSpaceOnUse" x="0" y="0" width="323" height="323">
<path d="M323 0H0V323H323V0Z" fill="white"/>
</mask>
<g mask="url(#mask23_1512_603)">
<path d="M23.5371 500.411C23.5371 500.411 24.554 496.313 26.827 489.046C29.0999 481.749 32.7486 471.161 38.1918 458.002C43.6648 444.873 50.9622 429.141 61.1308 412.064C71.3292 395.047 84.2791 376.474 101.865 359.218C119.211 341.902 141.881 326.23 168.947 317.587C182.435 313.22 196.94 310.798 211.804 310.618C226.339 310.319 240.575 309.243 253.675 303.082C260.314 300.33 266.086 295.904 271.619 291.119C276.733 285.915 281.548 280.262 285.347 273.713C293.152 260.823 298.566 246.198 303.291 231.214C312.772 201.337 319.591 169.216 336.099 140.714C344.324 126.598 355.689 114.007 369.536 105.184C383.353 96.3019 399.234 91.3672 415.055 89.0942C430.966 86.582 446.847 87.6886 462.189 86.8213C477.532 86.1035 492.784 84.5483 507.17 80.6603C521.525 76.8322 535.014 70.432 545.75 61.0112C556.368 51.4408 564.293 39.5676 570.693 27.4252C583.404 3.05061 593.213 -21.294 604.668 -42.5283C626.859 -85.5052 652.131 -117.237 670.494 -138.441C679.825 -148.969 687.332 -157.074 692.656 -162.397C697.919 -167.781 700.731 -170.652 700.731 -170.652C700.731 -170.652 697.949 -167.751 692.745 -162.307C687.452 -156.924 680.035 -148.759 670.823 -138.142C652.699 -116.758 627.786 -84.8473 606.104 -41.7806C594.858 -20.4865 585.348 3.8282 572.757 28.5616C566.446 40.8536 558.461 53.0558 547.605 63.0748C536.599 72.9442 522.692 79.7033 508.037 83.7408C493.323 87.8381 477.95 89.5728 462.369 90.47C446.787 91.4868 431.056 90.5896 415.683 93.1915C400.311 95.5542 385.118 100.459 372.078 109.072C358.979 117.596 348.332 129.619 340.526 143.286C324.854 170.921 318.334 202.683 309.093 233.009C304.487 248.202 299.074 263.305 290.939 277.062C286.991 284.031 281.877 290.251 276.344 295.994C270.393 301.287 263.993 306.252 256.725 309.392L251.342 311.845L245.749 313.549C242.071 314.865 238.242 315.583 234.354 316.151C230.466 316.959 226.728 317.318 223.109 317.407L212.103 317.976C197.957 318.275 184.17 320.697 171.459 324.974C145.888 333.408 124.475 348.481 107.996 365.289C91.3073 382.007 78.8958 400.101 69.1459 416.76C59.4559 433.448 52.4576 448.85 47.2537 461.711C42.0498 474.571 38.6105 484.949 36.4571 492.037C34.3038 499.185 33.4066 502.893 33.4066 502.893L23.5371 500.411Z" fill="#FEE56F"/>
</g>
<mask id="mask24_1512_603" style="mask-type:luminance" maskUnits="userSpaceOnUse" x="0" y="0" width="323" height="323">
<path d="M323 0H0V323H323V0Z" fill="white"/>
</mask>
<g mask="url(#mask24_1512_603)">
<path d="M41.332 518.206C41.332 518.206 42.3489 514.108 44.6518 506.841C46.9247 499.543 50.5734 488.956 56.0166 475.797C61.4896 462.668 68.8169 446.966 78.9556 429.889C89.154 412.872 102.104 394.299 119.689 377.043C137.036 359.726 159.706 344.025 186.772 335.382C200.26 331.015 214.795 328.593 229.629 328.443C244.164 328.114 258.4 327.068 271.499 320.907C278.139 318.125 283.941 313.729 289.444 308.944C294.558 303.74 299.373 298.057 303.141 291.537C310.947 278.647 316.361 264.023 321.086 249.039C330.567 219.162 337.415 187.041 353.894 158.569C362.149 144.453 373.484 131.862 387.331 123.039C401.148 114.157 417.029 109.222 432.85 106.979C448.791 104.467 464.642 105.573 479.984 104.676C495.327 103.988 510.609 102.403 524.995 98.545C539.35 94.7168 552.838 88.2867 563.575 78.8659C574.162 69.2955 582.088 57.4522 588.488 45.3098C601.199 20.9054 611.008 -3.43929 622.463 -24.6735C644.654 -67.6505 669.926 -99.3822 688.289 -120.587C697.62 -131.114 705.127 -139.249 710.451 -144.542C715.714 -149.956 718.526 -152.797 718.526 -152.797C718.526 -152.797 715.744 -149.896 710.54 -144.453C705.247 -139.069 697.83 -130.905 688.618 -120.288C670.464 -98.9336 645.551 -66.9925 623.869 -23.9259C612.653 -2.63177 603.113 21.6829 590.552 46.4164C584.241 58.7083 576.256 70.9105 565.4 80.9295C554.394 90.799 540.487 97.558 525.832 101.625C511.118 105.723 495.745 107.457 480.163 108.355C464.582 109.371 448.88 108.444 433.508 111.046C418.135 113.409 402.943 118.314 389.873 126.927C376.774 135.481 366.126 147.474 358.321 161.171C342.649 188.776 336.129 220.567 326.888 250.863C322.282 266.056 316.869 281.19 308.734 294.917C304.816 301.856 299.672 308.076 294.139 313.819C288.188 319.142 281.758 324.047 274.52 327.217L269.137 329.669L263.514 331.404C259.865 332.69 256.007 333.438 252.119 334.006C248.231 334.814 244.493 335.172 240.874 335.262L229.838 335.83C215.692 336.129 201.905 338.582 189.194 342.859C163.594 351.293 142.21 366.366 125.701 383.144C108.983 399.892 96.6009 417.986 86.881 434.615C77.1611 451.303 70.1927 466.705 64.9888 479.565C59.8148 492.455 56.3456 502.803 54.2221 509.891C52.0688 517.039 51.2015 520.748 51.2015 520.748L41.332 518.206Z" fill="#FEE56F"/>
</g>
<mask id="mask25_1512_603" style="mask-type:luminance" maskUnits="userSpaceOnUse" x="0" y="0" width="323" height="323">
<path d="M323 0H0V323H323V0Z" fill="white"/>
</mask>
<g mask="url(#mask25_1512_603)">
<path d="M59.127 536.001C59.127 536.001 60.1438 531.903 62.4467 524.666C64.7196 517.368 68.3683 506.781 73.8115 493.622C79.2845 480.493 86.582 464.761 96.7505 447.684C106.919 430.667 119.929 412.094 137.484 394.838C154.831 377.521 177.5 361.82 204.567 353.207C218.055 348.84 232.59 346.418 247.424 346.238C261.989 345.909 276.195 344.862 289.324 338.701C295.964 335.95 301.766 331.524 307.239 326.739C312.353 321.535 317.168 315.852 320.936 309.302C328.772 296.412 334.155 281.788 338.881 266.804C348.332 236.897 355.18 204.806 371.689 176.304C379.914 162.188 391.249 149.597 405.096 140.774C418.913 131.862 434.794 126.957 450.615 124.684C466.556 122.172 482.407 123.278 497.749 122.411C513.092 121.693 528.344 120.138 542.76 116.25C557.115 112.422 570.574 106.022 581.31 96.5711C591.898 87.0007 599.853 75.1574 606.223 63.015C618.934 38.6105 628.744 14.2958 640.198 -6.93843C662.389 -49.9154 687.661 -81.6471 706.024 -102.851C715.355 -113.379 722.862 -121.484 728.216 -126.807C733.449 -132.191 736.261 -135.062 736.261 -135.062C736.261 -135.062 733.509 -132.161 728.275 -126.718C722.982 -121.364 715.565 -113.17 706.353 -102.552C688.199 -81.1686 663.317 -49.2873 641.604 -6.19075C630.388 15.1033 620.878 39.448 608.287 64.1515C601.946 76.4434 593.991 88.6756 583.135 98.6945C572.129 108.564 558.222 115.323 543.567 119.361C528.883 123.458 513.48 125.193 497.899 126.09C482.317 127.107 466.615 126.179 451.243 128.811C435.871 131.144 420.678 136.049 407.608 144.662C394.509 153.216 383.892 165.239 376.056 178.906C360.414 206.541 353.865 238.302 344.623 268.599C339.987 283.791 334.604 298.925 326.439 312.652C322.522 319.591 317.407 325.841 311.845 331.554C305.863 336.877 299.463 341.812 292.195 344.952L286.842 347.434L281.219 349.139C277.571 350.455 273.713 351.173 269.825 351.741C265.907 352.549 262.198 352.908 258.579 352.997L247.544 353.565C233.368 353.865 219.64 356.317 206.899 360.594C181.299 369.028 159.915 384.101 143.436 400.909C126.748 417.627 114.336 435.721 104.586 452.35C94.8962 469.038 87.8979 484.44 82.694 497.301C77.52 510.191 74.0807 520.539 71.9273 527.627C69.774 534.745 68.9067 538.453 68.9067 538.453L59.127 536.001Z" fill="#FEE56F"/>
</g>
</svg>
