<svg width="932" height="466" viewBox="0 0 932 466" fill="none" xmlns="http://www.w3.org/2000/svg">
<mask id="mask0_1512_724" style="mask-type:luminance" maskUnits="userSpaceOnUse" x="0" y="0" width="932" height="466">
<path d="M932 0H0V466H932V0Z" fill="white"/>
</mask>
<g mask="url(#mask0_1512_724)">
<path d="M-225.061 276.58C-225.061 276.58 -223.507 270.194 -219.883 258.975C-216.345 247.584 -210.736 231.188 -202.279 210.736C-193.735 190.37 -182.43 165.948 -166.638 139.368C-150.76 112.962 -130.653 84.1389 -103.383 57.3007C-76.4585 30.3762 -41.2496 6.04071 0.862976 -7.42151C21.833 -14.239 44.3563 -17.9496 67.4837 -18.2086C90.0934 -18.7263 112.185 -20.366 132.551 -29.8586C142.82 -34.1734 151.882 -41.0771 160.425 -48.4985C168.364 -56.6104 175.872 -65.4127 181.74 -75.5956C193.908 -95.6163 202.279 -118.398 209.614 -141.612C224.284 -188.126 234.899 -238.005 260.529 -282.275C273.3 -304.194 290.991 -323.784 312.479 -337.505C333.967 -351.312 358.647 -358.993 383.156 -362.444C407.923 -366.328 432.517 -364.688 456.335 -365.983C480.239 -367.104 503.884 -369.521 526.235 -375.561C548.586 -381.516 569.469 -391.44 586.125 -406.11C602.607 -420.953 614.947 -439.421 624.872 -458.233C644.633 -496.117 659.822 -533.915 677.685 -566.967C712.203 -633.76 751.382 -683.035 779.946 -716C794.444 -732.397 806.094 -744.996 814.378 -753.194C822.576 -761.565 826.891 -766.052 826.891 -766.052C826.891 -766.052 822.576 -761.565 814.465 -753.108C806.266 -744.737 794.703 -732.052 780.377 -715.569C752.159 -682.345 713.498 -632.811 679.756 -565.845C662.324 -532.707 647.481 -494.909 627.978 -456.507C618.14 -437.35 605.8 -418.451 588.886 -402.831C571.799 -387.47 550.139 -377.029 527.443 -370.729C504.575 -364.343 480.67 -361.668 456.507 -360.287C432.344 -358.647 407.836 -360.114 383.932 -356.059C360.028 -352.434 336.469 -344.754 316.19 -331.378C295.824 -318.088 279.255 -299.448 267.173 -278.219C242.838 -235.33 232.655 -185.882 218.33 -138.851C211.167 -115.206 202.796 -91.733 190.111 -70.3315C183.984 -59.5444 176.044 -49.8793 167.415 -40.9908C158.181 -32.7926 148.257 -25.1122 136.952 -20.1933L128.582 -16.31L119.866 -13.6348C114.17 -11.5637 108.216 -10.4419 102.175 -9.57892C96.1341 -8.37079 90.3522 -7.76666 84.6567 -7.68036L67.57 -6.81738C45.5645 -6.38593 24.163 -2.58887 4.40114 4.05591C-35.3815 17.173 -68.6055 40.5592 -94.2355 66.707C-120.211 92.6822 -139.455 120.815 -154.557 146.617C-169.659 172.506 -180.446 196.497 -188.557 216.431C-196.669 236.452 -202.02 252.589 -205.299 263.549C-208.664 274.681 -210.045 280.377 -210.045 280.377L-225.061 276.58Z" fill="#FFE66E"/>
<path d="M-197.446 304.195C-197.446 304.195 -195.893 297.809 -192.268 286.59C-188.73 275.199 -183.034 258.803 -174.664 238.351C-166.12 217.898 -154.816 193.476 -139.023 166.983C-123.145 140.577 -103.038 111.667 -75.7681 84.8293C-48.8437 57.9048 -13.6348 33.5693 28.4778 20.1934C49.4478 13.376 72.0574 9.66522 95.0985 9.32007C117.708 8.80231 139.8 7.16266 160.166 -2.32996C170.435 -6.64478 179.496 -13.5485 188.04 -20.8837C195.979 -28.9955 203.487 -37.7977 209.355 -47.9807C221.523 -68.0014 229.893 -90.6973 237.229 -113.997C251.985 -160.425 262.6 -210.39 288.23 -254.574C301.088 -276.493 318.692 -296.083 340.18 -309.804C361.668 -323.697 386.349 -331.291 410.857 -334.83C435.624 -338.713 460.304 -336.987 484.122 -338.368C508.026 -339.49 531.671 -341.906 554.022 -347.947C576.373 -353.901 597.257 -363.825 613.998 -378.496C630.481 -393.338 642.821 -411.806 652.745 -430.618C672.507 -468.503 687.781 -506.3 705.559 -539.266C740.077 -606.059 779.256 -655.42 807.82 -688.299C822.317 -704.696 833.967 -717.295 842.252 -725.493C850.45 -733.864 854.765 -738.351 854.765 -738.351C854.765 -738.351 850.45 -733.864 842.338 -725.407C834.14 -717.036 822.576 -704.35 808.251 -687.868C780.032 -654.644 741.372 -605.023 707.63 -538.144C690.198 -505.006 675.355 -467.208 655.852 -428.806C646.014 -409.735 633.674 -390.75 616.76 -375.13C599.673 -359.769 578.099 -349.327 555.317 -343.028C532.448 -336.642 508.544 -333.967 484.381 -332.586C460.218 -330.946 435.796 -332.413 411.892 -328.357C387.988 -324.733 364.343 -317.053 344.063 -303.677C323.697 -290.387 307.215 -271.747 295.047 -250.518C270.711 -207.629 260.529 -158.181 246.203 -111.15C239.041 -87.5044 230.67 -64.0318 217.984 -42.7166C211.857 -31.9296 203.918 -22.2644 195.289 -13.3759C186.055 -5.09143 176.044 2.58893 164.74 7.42151L156.369 11.2186L147.653 13.8937C141.957 15.8785 136.003 17.0867 129.962 17.9497C123.922 19.1578 118.14 19.7619 112.444 19.8482L95.3574 20.7112C73.3518 21.2289 51.9504 24.9397 32.1885 31.5845C-7.50777 44.7015 -40.8181 68.1741 -66.4481 94.2357C-92.4233 120.211 -111.667 148.343 -126.769 174.146C-141.871 200.035 -152.744 224.025 -160.77 243.96C-168.796 263.981 -174.232 280.031 -177.511 291.077C-180.877 302.21 -182.258 307.992 -182.258 307.992L-197.446 304.195Z" fill="#FFE66E"/>
<path d="M-169.745 331.895C-169.745 331.895 -168.191 325.51 -164.567 314.291C-161.029 302.986 -155.333 286.504 -146.876 266.051C-138.333 245.599 -127.028 221.177 -111.236 194.684C-95.4437 168.278 -75.2504 139.368 -47.9807 112.617C-21.0563 85.6921 14.2389 61.3565 56.2652 47.8943C77.2352 41.0769 99.8448 37.3661 122.886 37.0209C145.496 36.5032 167.587 34.8635 187.953 25.3709C198.223 21.0561 207.284 14.2387 215.827 6.8172C223.766 -1.29462 231.274 -10.0968 237.142 -20.2798C249.31 -40.3005 257.681 -63.0828 265.016 -86.2964C279.6 -132.81 290.214 -182.689 315.844 -226.959C328.616 -248.879 346.221 -268.468 367.795 -282.189C389.283 -296.083 413.963 -303.677 438.471 -307.215C463.238 -311.098 487.919 -309.372 511.737 -310.753C535.641 -311.875 559.286 -314.291 581.637 -320.332C603.988 -326.286 624.871 -336.211 641.527 -350.881C658.009 -365.724 670.35 -384.191 680.274 -403.004C700.036 -440.888 715.31 -478.686 733.087 -511.737C767.605 -578.531 806.784 -627.806 835.348 -660.771C849.846 -677.081 861.496 -689.68 869.78 -697.965C877.978 -706.335 882.293 -710.823 882.293 -710.823C882.293 -710.823 877.978 -706.335 869.867 -697.878C861.668 -689.508 850.105 -676.822 835.78 -660.339C807.561 -627.115 768.9 -577.495 735.158 -510.615C717.726 -477.478 702.883 -439.68 683.38 -401.278C673.543 -382.12 661.202 -363.221 644.288 -347.602C627.201 -332.241 605.541 -321.799 582.759 -315.499C559.89 -309.113 535.986 -306.438 511.823 -305.058C487.66 -303.504 463.238 -304.885 439.334 -300.915C415.43 -297.205 391.785 -289.611 371.506 -276.235C351.14 -262.945 334.571 -244.305 322.489 -222.99C298.154 -180.101 287.971 -130.653 273.646 -83.6212C266.483 -60.0623 258.112 -36.5035 245.427 -15.1884C239.3 -4.40131 231.36 5.26392 222.731 14.2387C213.497 22.4369 203.487 30.1173 192.182 35.0362L183.897 38.9195L175.181 41.5947C169.486 43.6658 163.531 44.7876 157.491 45.6506C151.45 46.8587 145.582 47.4628 139.973 47.5491L122.886 48.4121C100.88 48.8436 79.4789 52.6406 59.717 59.2854C20.107 72.4025 -13.1171 95.7887 -38.7471 121.937C-64.7222 147.912 -83.9663 176.044 -99.0682 201.847C-114.17 227.736 -124.957 251.726 -133.069 271.661C-141.094 291.681 -146.445 307.819 -149.81 318.778C-153.176 329.911 -154.557 335.606 -154.557 335.606L-169.745 331.895Z" fill="#FFE66E"/>
<path d="M-142.13 359.51C-142.13 359.51 -140.577 353.124 -137.039 341.906C-133.5 330.515 -127.805 314.032 -119.348 293.666C-110.804 273.3 -99.4133 248.878 -83.7074 222.299C-67.9152 195.892 -47.7219 166.983 -20.4522 140.145C6.47221 113.22 41.6811 88.8849 83.7937 75.4227C104.764 68.6053 127.287 64.8946 150.328 64.6357C172.938 64.2042 195.03 62.4783 215.396 52.8994C225.665 48.5846 234.726 41.7672 243.269 34.3457C251.208 26.2338 258.716 17.4316 264.584 7.24866C276.752 -12.7721 285.123 -35.468 292.458 -58.768C307.215 -105.195 317.829 -155.075 343.459 -199.345C356.317 -221.264 373.836 -240.853 395.41 -254.574C416.897 -268.382 441.578 -276.062 466.173 -279.6C490.94 -283.484 515.534 -281.758 539.438 -283.138C563.256 -284.26 586.987 -286.677 609.338 -292.717C631.603 -298.672 652.573 -308.596 669.228 -323.266C685.71 -338.109 698.051 -356.577 707.975 -375.389C727.737 -413.273 743.011 -451.071 760.788 -484.122C795.307 -550.916 834.485 -600.191 863.049 -633.156C877.547 -649.552 889.197 -662.152 897.568 -670.35C905.766 -678.721 910.081 -683.208 910.081 -683.208C910.081 -683.208 905.766 -678.721 897.654 -670.264C889.456 -661.893 877.892 -649.207 863.567 -632.725C835.348 -599.501 796.687 -549.88 762.945 -483.001C745.514 -449.949 730.757 -412.151 711.168 -373.749C701.33 -354.592 688.99 -335.693 672.076 -320.073C654.989 -304.712 633.329 -294.184 610.546 -287.971C587.678 -281.585 563.774 -278.91 539.611 -277.529C515.361 -275.976 491.026 -277.357 467.122 -273.301C443.218 -269.59 419.573 -261.996 399.379 -248.62C379.013 -235.33 362.444 -216.604 350.277 -195.375C325.941 -152.486 315.758 -103.038 301.433 -56.0065C294.27 -32.3613 285.9 -8.88879 273.214 12.4264C267.087 23.2134 259.148 32.8787 250.518 41.8535C241.284 50.0516 231.274 57.7321 220.056 62.6509L211.685 66.4479L202.969 69.1232C197.273 71.1943 191.319 72.316 185.278 73.179C179.237 74.3871 173.456 74.9913 167.846 75.0776L150.673 75.9405C128.668 76.372 107.266 80.1691 87.5044 86.8139C47.7218 99.9309 14.4978 123.317 -11.1322 149.465C-37.1074 175.44 -56.3515 203.573 -71.4533 229.375C-86.5552 255.264 -97.4285 279.255 -105.54 299.189C-113.566 319.21 -118.916 335.261 -122.282 346.307C-125.647 357.439 -127.028 363.221 -127.028 363.221L-142.13 359.51Z" fill="#FFE66E"/>
<path d="M-114.429 387.212C-114.429 387.212 -112.876 380.826 -109.337 369.607C-105.799 358.302 -100.104 341.82 -91.6467 321.368C-83.1896 301.002 -71.7985 276.58 -56.0063 250.001C-40.2141 223.594 -20.0207 194.685 7.24889 167.933C34.1733 141.008 69.3822 116.673 111.495 103.211C132.465 96.3932 154.988 92.6824 178.029 92.3372C200.639 91.9058 222.731 90.1798 243.097 80.6873C253.452 76.3724 262.427 69.4688 270.97 62.1335C278.91 54.0217 286.417 45.2195 292.286 35.0366C304.453 15.0158 312.824 -7.76642 320.159 -30.9801C334.916 -77.4075 345.444 -127.287 371.074 -171.557C383.932 -193.476 403.867 -192.182 425.354 -205.903C446.842 -219.71 469.107 -248.274 493.701 -251.726C518.468 -255.609 543.063 -253.883 566.967 -255.264C590.784 -256.386 614.516 -258.802 636.867 -264.757C659.131 -270.711 680.101 -280.635 696.756 -295.306C713.239 -310.149 725.579 -328.616 735.503 -347.429C755.265 -385.313 770.453 -423.197 788.317 -456.162C822.749 -522.955 862.014 -572.231 890.578 -605.196C905.076 -621.506 916.726 -634.105 925.01 -642.389C933.208 -650.76 937.523 -655.248 937.523 -655.248C937.523 -655.248 933.208 -650.76 925.096 -642.303C916.898 -633.932 905.334 -621.247 891.009 -604.764C862.79 -571.54 824.13 -522.006 790.388 -455.04C772.87 -421.902 758.113 -384.191 738.61 -345.703C728.772 -326.631 716.432 -307.646 699.518 -292.113C682.431 -276.752 660.771 -266.224 638.075 -259.924C615.206 -253.538 591.302 -250.863 567.139 -249.482C542.976 -247.929 518.468 -249.31 494.564 -245.34C470.66 -241.716 447.101 -234.035 426.822 -220.659C406.456 -207.37 389.887 -188.73 377.805 -167.415C353.47 -124.525 343.287 -75.1639 328.962 -28.0461C321.799 -4.40088 313.428 19.0717 300.743 40.3868C294.616 51.1739 286.676 60.8391 278.047 69.7276C268.813 78.012 258.803 85.6061 247.584 90.525L239.213 94.4083L230.497 96.9972C224.802 99.0683 218.847 100.19 212.807 101.053C206.766 102.348 200.984 102.865 195.289 103.038L178.202 103.901C156.196 104.332 134.795 108.129 115.033 114.774C75.3367 127.891 42.0263 151.364 16.3963 177.425C-9.57888 203.401 -28.823 231.533 -43.9248 257.336C-59.0267 283.225 -69.9 307.215 -77.9256 327.149C-86.0374 347.17 -91.3878 363.221 -94.667 374.267C-98.0326 385.4 -99.4133 391.181 -99.4133 391.181L-114.429 387.212Z" fill="#FFE66E"/>
<path d="M-86.8141 414.826C-86.8141 414.826 -85.2608 408.44 -81.6363 397.222C-78.0982 385.917 -72.4026 369.434 -63.9456 348.982C-55.4885 328.53 -44.0974 304.108 -28.3052 277.615C-12.4267 251.208 7.68037 222.299 34.95 195.547C61.8745 168.623 97.0833 144.287 139.196 130.825C160.08 124.008 182.689 120.297 205.73 120.038C228.34 119.52 250.432 117.88 270.798 108.302C281.153 103.987 290.128 97.1694 298.672 89.7479C306.611 81.636 314.119 72.8339 319.987 62.6509C332.154 42.6301 340.525 19.8479 347.86 -3.36578C362.617 -49.7932 373.232 -99.6725 398.775 -143.942C411.633 -165.862 429.238 -185.451 450.726 -199.172C472.213 -212.979 496.894 -220.66 521.402 -224.198C546.169 -228.081 570.764 -226.355 594.581 -227.736C618.399 -228.858 642.131 -231.274 664.482 -237.315C686.746 -243.27 707.716 -253.194 724.371 -267.864C740.854 -282.707 753.194 -301.174 763.118 -319.987C782.88 -357.871 798.154 -395.669 815.932 -428.72C850.45 -495.514 889.629 -544.789 918.193 -577.754C932.69 -594.15 944.34 -606.75 952.625 -615.034C960.823 -623.405 965.138 -627.892 965.138 -627.892C965.138 -627.892 960.823 -623.405 952.711 -614.948C944.513 -606.577 932.949 -593.891 918.624 -577.409C890.405 -544.185 851.745 -494.651 818.003 -427.685C800.484 -394.547 785.728 -356.749 766.225 -318.347C756.387 -299.189 744.047 -280.291 727.133 -264.671C710.305 -249.31 688.644 -238.868 665.949 -232.569C643.08 -226.183 619.176 -223.508 594.927 -222.127C570.764 -220.574 546.342 -221.954 522.438 -217.898C498.534 -214.274 474.975 -206.68 454.609 -193.304C434.329 -180.014 417.76 -161.374 405.593 -140.059C381.257 -97.1699 371.074 -47.722 356.663 -0.690552C349.5 22.9546 341.129 46.4271 328.444 67.7423C322.317 78.5294 314.377 88.1946 305.748 97.0831C296.514 105.367 286.59 112.962 275.285 117.88L266.914 121.764L258.199 124.439C252.503 126.424 246.549 127.632 240.508 128.495C234.467 129.703 228.685 130.307 222.99 130.393L205.903 131.256C183.897 131.774 162.496 135.485 142.734 142.13C102.951 155.247 69.7274 178.633 44.0974 204.781C18.1222 230.756 -1.12186 258.889 -16.2237 284.778C-31.3256 310.666 -42.1126 334.657 -50.2245 354.591C-58.3363 374.612 -63.6867 390.663 -66.9659 401.709C-70.3315 412.841 -71.7122 418.537 -71.7122 418.537L-86.8141 414.826Z" fill="#FFE66E"/>
<path d="M-54.9707 437.781C-54.9707 437.781 -53.4174 431.395 -49.7929 420.177C-46.2548 408.786 -40.5592 392.389 -32.1885 371.937C-23.6451 351.571 -12.3403 327.149 3.45189 300.57C19.3304 274.077 39.4374 245.254 66.7071 218.416C93.6315 191.492 128.84 167.156 170.953 153.694C191.923 146.876 214.446 143.166 237.574 142.907C260.183 142.475 282.275 140.749 302.641 131.257C312.91 126.942 321.972 120.038 330.515 112.617C338.454 104.505 345.962 95.7028 351.83 85.5198C363.998 65.499 372.369 42.7168 379.704 19.5031C394.46 -26.9243 405.075 -76.8899 430.705 -121.074C443.477 -142.993 461.167 -162.582 482.655 -176.303C504.143 -190.111 528.824 -197.791 553.332 -201.243C578.099 -205.126 602.78 -203.4 626.597 -204.781C650.415 -205.903 674.147 -208.319 696.497 -214.36C718.848 -220.314 739.732 -230.238 756.473 -244.909C772.956 -259.752 785.296 -278.219 795.22 -297.032C814.982 -334.916 830.257 -372.714 848.034 -405.765C882.552 -472.558 921.731 -521.834 950.295 -554.799C964.793 -571.195 976.443 -583.794 984.727 -591.992C992.925 -600.363 997.24 -604.851 997.24 -604.851C997.24 -604.851 992.925 -600.363 984.813 -591.906C976.615 -583.535 965.051 -570.85 950.726 -554.367C922.507 -521.143 883.847 -471.523 850.105 -404.643C832.673 -371.505 817.83 -333.708 798.327 -295.306C788.489 -276.234 776.149 -257.249 759.235 -241.716C742.148 -226.269 720.488 -215.827 697.792 -209.527C674.923 -203.141 651.019 -200.466 626.77 -199.085C602.607 -197.446 578.099 -198.913 554.281 -194.857C530.377 -191.232 506.732 -183.552 486.452 -170.176C466.086 -156.887 449.604 -138.247 437.436 -117.018C413.1 -74.1284 402.917 -24.6806 388.592 22.3509C381.43 45.9098 373.059 69.4686 360.373 90.7838C354.246 101.571 346.307 111.236 337.677 120.125C328.444 128.409 318.433 136.003 307.215 140.922L298.844 144.805L290.128 147.481C284.433 149.465 278.478 150.673 272.437 151.536C266.397 152.745 260.615 153.349 254.919 153.435L237.833 154.298C215.827 154.729 194.426 158.526 174.664 165.171C134.881 178.288 101.657 201.675 76.0271 227.822C50.0519 253.798 30.8078 281.93 15.706 307.733C0.604115 333.622 -10.1829 357.612 -18.2948 377.546C-26.4066 397.567 -31.757 413.705 -35.0363 424.664C-38.4018 435.797 -39.7826 441.578 -39.7826 441.578L-54.9707 437.781Z" fill="#FFE66E"/>
<path d="M-31.4982 470.142C-31.4982 470.142 -29.9448 463.756 -26.3204 452.538C-22.7822 441.147 -17.173 424.75 -8.62965 404.298C-0.0863152 383.846 11.2185 359.424 27.0107 332.931C42.8029 306.524 62.9963 277.615 90.2659 250.863C117.19 223.939 152.399 199.603 194.512 186.141C215.482 179.324 238.091 175.613 261.133 175.268C283.742 174.836 305.834 173.11 326.2 163.618C336.469 159.303 345.53 152.399 354.074 145.064C362.013 136.952 369.521 128.15 375.389 117.967C387.557 97.9462 395.927 75.2502 403.263 51.9503C418.019 5.52283 428.634 -44.3564 454.264 -88.6264C467.122 -110.546 484.726 -130.135 506.214 -143.856C527.702 -157.663 552.383 -165.344 576.891 -168.882C601.658 -172.765 626.339 -171.039 650.156 -172.42C674.06 -173.542 697.706 -175.958 720.056 -181.999C742.407 -187.953 763.291 -197.878 780.032 -212.548C796.515 -227.391 808.855 -245.858 818.779 -264.757C838.541 -302.641 853.816 -340.439 871.593 -373.404C906.111 -440.198 945.29 -489.473 973.854 -522.438C988.352 -538.834 1000 -551.433 1008.29 -559.632C1016.48 -568.002 1020.8 -572.49 1020.8 -572.49C1020.8 -572.49 1016.48 -568.002 1008.37 -559.545C1000.17 -551.175 988.61 -538.489 974.285 -522.006C946.066 -488.782 907.406 -439.162 873.664 -372.282C856.232 -339.145 841.475 -301.347 821.886 -262.945C811.962 -243.873 799.622 -224.888 782.707 -209.355C765.621 -193.994 744.047 -183.552 721.264 -177.253C698.396 -170.867 674.492 -168.192 650.329 -166.811C626.166 -165.258 601.744 -166.638 577.84 -162.669C553.936 -159.044 530.291 -151.364 510.011 -137.988C489.645 -124.698 473.163 -106.058 460.995 -84.8294C436.659 -41.8538 426.476 7.50763 412.151 54.5391C404.988 78.1843 396.618 101.657 383.932 122.972C377.805 133.759 369.866 143.424 361.236 152.313C352.003 160.597 341.992 168.278 330.687 173.11L322.317 176.907L313.601 179.582C307.905 181.567 301.951 182.775 295.91 183.638C289.869 184.846 284.087 185.451 278.478 185.537L261.305 186.4C239.3 186.918 217.898 190.628 198.136 197.273C158.354 210.39 125.13 233.777 99.4996 259.924C73.5244 285.899 54.2804 314.032 39.1785 339.835C24.0767 365.724 13.2896 389.714 5.17776 409.648C-2.8478 429.669 -8.28446 445.72 -11.5637 456.766C-14.9293 467.898 -16.31 473.68 -16.31 473.68L-31.4982 470.142Z" fill="#FFE66E"/>
<path d="M-3.797 497.844C-3.797 497.844 -2.24366 491.457 1.38078 480.239C4.91893 468.848 10.6145 452.365 19.0715 431.999C27.5286 411.633 38.9197 387.125 54.7119 360.632C70.5041 334.226 90.6974 305.403 117.967 278.565C144.892 251.64 180.187 227.305 222.213 213.842C243.183 207.025 265.793 203.314 288.834 203.055C311.443 202.537 333.535 200.984 353.901 191.405C364.17 187.09 373.232 180.187 381.775 172.852C389.714 164.74 397.222 155.937 403.09 145.755C415.258 125.734 423.629 102.952 430.964 79.7379C445.634 33.3104 456.335 -16.5688 481.965 -60.8388C494.737 -82.7581 512.341 -102.347 533.915 -116.068C555.403 -129.876 580.084 -137.556 604.592 -141.094C629.359 -144.978 654.04 -143.252 677.858 -144.633C701.675 -145.754 725.407 -148.171 747.758 -154.211C770.108 -160.166 790.992 -170.09 807.647 -184.76C824.13 -199.603 836.47 -218.071 846.394 -236.883C866.156 -274.767 881.43 -312.565 899.208 -345.617C933.726 -412.41 972.905 -461.685 1001.47 -494.65C1015.97 -510.96 1027.62 -523.56 1035.99 -531.844C1044.1 -540.215 1048.5 -544.702 1048.5 -544.702C1048.5 -544.702 1044.19 -540.215 1036.07 -531.758C1027.88 -523.387 1016.31 -510.701 1001.99 -494.219C973.768 -460.995 935.107 -411.374 901.365 -344.495C883.933 -311.357 869.09 -273.559 849.587 -235.157C839.749 -216 827.409 -197.101 810.495 -181.481C793.408 -166.12 771.748 -155.678 748.966 -149.379C726.097 -142.993 702.193 -140.318 678.03 -138.937C653.781 -137.384 629.445 -138.764 605.541 -134.795C581.637 -131.084 557.992 -123.49 537.712 -110.114C517.346 -96.8244 500.864 -78.1843 488.696 -56.8691C464.36 -13.9799 454.178 35.4679 439.852 82.4994C432.69 106.058 424.319 129.617 411.633 150.932C405.506 161.719 397.567 171.385 388.937 180.359C379.704 188.557 369.693 196.238 358.389 201.157L350.104 204.954L341.388 207.629C335.693 209.7 329.738 210.822 323.697 211.685C317.657 212.893 311.875 213.497 306.179 213.583L289.093 214.446C267.087 214.878 245.686 218.675 225.924 225.32C186.141 238.437 152.917 261.823 127.287 287.971C101.312 313.946 82.0678 342.079 66.966 367.881C51.8641 393.77 41.0771 417.76 32.9652 437.695C24.9397 457.716 19.5893 473.853 16.2237 484.813C12.8582 495.945 11.4774 501.727 11.4774 501.727L-3.797 497.844Z" fill="#FFE66E"/>
<path d="M23.8177 525.458C23.8177 525.458 25.3711 519.072 28.9092 507.854C32.4474 496.463 38.1429 480.066 46.6 459.614C55.057 439.248 66.4481 414.826 82.2403 388.247C98.0326 361.84 118.226 332.931 145.496 306.093C172.42 279.168 207.629 254.833 249.741 241.457C270.711 234.64 293.235 230.843 316.276 230.584C338.886 230.152 360.977 228.426 381.343 218.934C391.613 214.619 400.674 207.715 409.217 200.38C417.156 192.268 424.664 183.466 430.532 173.283C442.7 153.262 451.071 130.566 458.406 107.266C473.076 60.8388 483.691 10.8732 509.321 -33.3105C522.179 -55.2298 539.783 -74.819 561.271 -88.5401C582.759 -102.348 607.44 -110.028 631.948 -113.566C656.715 -117.449 681.309 -115.723 705.213 -117.104C729.031 -118.226 752.763 -120.642 775.113 -126.683C797.378 -132.638 818.348 -142.562 835.003 -157.232C851.486 -172.075 863.826 -190.542 873.75 -209.355C893.512 -247.239 908.786 -285.037 926.563 -318.088C961.082 -384.882 1000.26 -434.157 1028.82 -467.122C1043.32 -483.518 1054.97 -496.118 1063.26 -504.316C1071.45 -512.686 1075.77 -517.174 1075.77 -517.174C1075.77 -517.174 1071.45 -512.686 1063.34 -504.229C1055.14 -495.859 1043.58 -483.173 1029.26 -466.69C1001.04 -433.466 962.376 -383.846 928.634 -316.966C911.116 -283.829 896.36 -246.117 876.857 -207.715C867.019 -188.558 854.679 -169.659 837.764 -154.039C820.678 -138.678 799.017 -128.15 776.235 -121.937C753.367 -115.551 729.463 -112.876 705.3 -111.495C681.137 -109.855 656.715 -111.322 632.811 -107.266C608.907 -103.642 585.348 -95.9616 565.068 -82.5857C544.702 -69.2961 528.22 -50.6561 516.052 -29.4272C491.716 13.4621 481.533 62.9099 467.208 109.941C460.046 133.587 451.675 157.059 438.989 178.374C432.862 189.161 424.923 198.913 416.293 207.801C407.06 216 397.049 223.68 385.831 228.599L377.46 232.396L368.744 235.071C363.048 237.142 357.094 238.264 351.053 239.127C345.013 240.335 339.231 240.939 333.621 241.025L316.535 241.888C294.529 242.32 273.128 246.117 253.366 252.762C213.583 265.879 180.359 289.265 154.729 315.413C128.754 341.388 109.51 369.521 94.4081 395.323C79.3063 421.212 68.4329 445.203 60.3211 465.137C52.2955 485.158 46.9452 501.209 43.5796 512.255C40.214 523.387 38.8333 529.169 38.8333 529.169L23.8177 525.458Z" fill="#FFE66E"/>
<path d="M51.5189 553.159C51.5189 553.159 53.0723 546.773 56.6104 535.555C60.1485 524.25 65.8441 507.767 74.3011 487.315C82.8445 466.863 94.1493 442.441 109.942 415.948C125.734 389.541 145.927 360.632 173.197 333.88C200.121 306.956 235.33 282.62 277.443 269.158C298.326 262.341 320.936 258.63 343.977 258.285C366.587 257.767 388.679 256.127 409.044 246.635C419.4 242.32 428.375 235.503 436.918 228.081C444.857 219.969 452.365 211.167 458.233 200.984C470.401 180.963 478.772 158.181 486.107 134.967C500.864 88.5399 511.392 38.6607 537.022 -5.60931C549.88 -27.5286 567.484 -47.1178 588.972 -60.8389C610.46 -74.7326 635.141 -82.3267 659.735 -85.8649C684.502 -89.7482 709.097 -88.1086 732.914 -89.403C756.732 -90.5249 780.464 -92.9412 802.815 -98.9819C825.079 -104.936 846.049 -114.86 862.704 -129.531C879.187 -144.374 891.527 -162.841 901.451 -181.654C921.213 -219.538 936.401 -257.336 954.265 -290.387C988.783 -357.18 1027.96 -406.456 1056.53 -439.421C1071.02 -455.731 1082.67 -468.33 1090.96 -476.614C1099.16 -484.985 1103.47 -489.473 1103.47 -489.473C1103.47 -489.473 1099.16 -484.985 1091.04 -476.528C1082.85 -468.157 1071.28 -455.472 1056.96 -438.989C1028.74 -405.765 990.078 -356.231 956.336 -289.265C938.818 -256.127 924.061 -218.33 904.558 -179.928C894.72 -160.856 882.38 -141.871 865.466 -126.338C848.379 -110.977 826.719 -100.449 804.023 -94.1493C781.154 -87.7634 757.25 -85.0882 733.087 -83.7075C708.924 -82.1541 684.416 -83.5349 660.512 -79.5652C636.608 -75.8545 613.049 -68.2604 592.769 -54.8845C572.49 -41.5949 555.921 -22.9548 543.753 -1.63965C519.417 41.2496 509.234 90.6111 494.909 137.729C487.747 161.374 479.376 184.847 466.69 206.162C460.563 216.949 452.624 226.614 443.995 235.503C434.761 243.787 424.837 251.381 413.532 256.3L405.161 260.183L396.445 262.772C390.75 264.843 384.709 265.965 378.754 266.828C372.714 268.036 366.932 268.64 361.236 268.727L344.15 269.59C322.144 270.021 300.743 273.818 280.981 280.463C241.284 293.58 207.974 316.966 182.344 343.114C156.369 369.089 137.125 397.222 122.023 423.024C106.921 448.913 96.0478 472.904 88.0223 492.838C79.9104 512.859 74.56 528.91 71.2808 539.956C67.9152 551.002 66.5345 556.784 66.5345 556.784L51.5189 553.159Z" fill="#FFE66E"/>
<path d="M79.1337 580.774C79.1337 580.774 80.6871 574.388 84.2252 563.17C87.7634 551.865 93.3726 535.382 101.916 514.93C110.459 494.478 121.764 470.056 137.556 443.563C153.435 417.157 173.542 388.247 200.812 361.495C227.736 334.571 262.945 310.235 305.057 296.773C325.941 289.956 348.551 286.245 371.592 285.986C394.202 285.555 416.293 283.829 436.659 274.25C447.015 269.935 455.99 263.118 464.533 255.696C472.472 247.584 479.98 238.782 485.848 228.599C498.016 208.578 506.387 185.796 513.722 162.582C528.479 116.155 539.093 66.2758 564.637 22.0058C577.495 0.0865173 595.099 -19.5027 616.587 -33.2238C638.075 -47.0313 662.756 -54.7116 687.264 -58.2498C712.031 -62.1331 736.625 -60.4072 760.443 -61.7879C784.261 -62.9098 807.992 -65.3261 830.343 -71.3668C852.694 -77.3213 873.577 -87.2453 890.233 -101.916C906.715 -116.759 919.056 -135.226 928.98 -154.039C948.742 -191.923 963.93 -229.721 981.793 -262.772C1016.31 -329.565 1055.49 -378.841 1084.05 -411.806C1098.55 -428.202 1110.2 -440.801 1118.49 -449.086C1126.68 -457.456 1131 -461.944 1131 -461.944C1131 -461.944 1126.68 -457.456 1118.57 -448.999C1110.37 -440.715 1098.81 -427.943 1084.49 -411.461C1056.27 -378.236 1017.61 -328.616 983.864 -261.736C966.346 -228.599 951.589 -190.801 932.086 -152.399C922.249 -133.328 909.908 -114.342 892.994 -98.8091C875.907 -83.4483 854.333 -73.0064 831.551 -66.7068C808.683 -60.3209 784.779 -57.6457 760.529 -56.265C736.366 -54.7116 711.944 -56.0924 688.04 -52.0364C664.136 -48.412 640.577 -40.8179 620.298 -27.3557C599.932 -14.1524 583.363 4.57388 571.281 25.8028C546.946 68.692 536.763 118.14 522.351 165.171C515.189 188.73 506.818 212.289 494.133 233.604C488.006 244.391 480.066 254.143 471.437 262.945C462.203 271.229 452.279 278.91 440.974 283.742L432.603 287.626L423.887 290.301C418.192 292.286 412.237 293.494 406.197 294.357C400.156 295.565 394.374 296.169 388.679 296.255L371.592 297.118C349.586 297.55 328.185 301.347 308.423 307.992C268.64 321.109 235.416 344.495 209.786 370.643C183.811 396.618 164.567 424.751 149.465 450.639C134.363 476.528 123.576 500.519 115.464 520.453C107.353 540.474 102.002 556.611 98.723 567.571C95.3574 578.703 93.9767 584.485 93.9767 584.485L79.1337 580.774Z" fill="#FFE66E"/>
<path d="M106.835 608.475C106.835 608.475 108.388 602.089 112.013 590.871C115.551 579.48 121.16 563.083 129.617 542.631C138.16 522.265 149.465 497.843 165.257 471.264C181.136 444.771 201.243 415.948 228.513 389.196C255.437 362.272 290.646 337.936 332.759 324.474C353.729 317.657 376.252 313.946 399.379 313.687C421.989 313.169 444.081 311.53 464.447 302.037C474.716 297.722 483.777 290.818 492.32 283.397C500.26 275.285 507.767 266.483 513.636 256.3C525.803 236.279 534.174 213.583 541.509 190.283C556.266 143.856 566.88 93.9766 592.51 49.7066C605.282 27.7874 622.973 8.19809 644.461 -5.52301C665.949 -19.3304 690.629 -27.0108 715.137 -30.4627C739.904 -34.346 764.585 -32.6201 788.403 -34.0008C812.221 -35.1227 835.952 -37.539 858.303 -43.5797C880.567 -49.5341 901.537 -59.4582 918.193 -74.1286C934.675 -88.9716 947.016 -107.439 956.94 -126.338C976.702 -164.222 991.976 -202.02 1009.75 -235.071C1044.27 -301.865 1083.45 -351.14 1112.01 -384.105C1126.51 -400.501 1138.16 -413.1 1146.45 -421.299C1154.64 -429.669 1158.96 -434.157 1158.96 -434.157C1158.96 -434.157 1154.64 -429.669 1146.53 -421.212C1138.33 -412.842 1126.77 -400.156 1112.45 -383.673C1084.23 -350.449 1045.57 -300.829 1011.82 -233.949C994.392 -200.812 979.636 -163.1 960.046 -124.612C950.209 -105.54 937.868 -86.5553 920.954 -71.0219C903.867 -55.6612 882.207 -45.133 859.511 -38.8334C836.643 -32.4475 812.739 -29.7723 788.489 -28.3915C764.326 -26.8382 739.904 -28.219 716 -24.2493C692.096 -20.6249 668.451 -12.9445 648.172 0.431427C627.806 13.721 611.323 32.3611 599.155 53.5899C574.82 96.4792 564.637 145.927 550.312 192.958C543.149 216.517 534.778 240.076 522.093 261.391C515.966 272.178 508.026 281.844 499.397 290.732C490.163 299.017 480.153 306.611 468.934 311.53L460.563 315.413L451.847 318.088C446.152 320.073 440.197 321.281 434.157 322.144C428.116 323.438 422.334 323.956 416.725 324.042L399.552 324.905C377.546 325.337 356.145 329.134 336.383 335.779C296.6 348.896 263.376 372.282 237.746 398.43C211.771 424.405 192.527 452.538 177.425 478.34C162.323 504.229 151.536 528.22 143.424 548.154C135.313 568.175 129.962 584.226 126.683 595.272C123.317 606.404 121.937 612.1 121.937 612.1L106.835 608.475Z" fill="#FFE66E"/>
<path d="M134.45 636.09C134.45 636.09 136.003 629.704 139.627 618.485C143.166 607.181 148.861 590.698 157.318 570.246C165.861 549.794 177.166 525.372 192.959 498.879C208.751 472.472 228.944 443.563 256.214 416.811C283.138 389.886 318.433 365.551 360.46 352.089C381.43 345.271 404.039 341.561 427.08 341.215C449.69 340.698 471.782 339.144 492.148 329.565C502.417 325.251 511.478 318.347 520.021 311.012C527.961 302.9 535.469 294.098 541.337 283.915C553.504 263.894 561.875 241.198 569.21 217.898C583.967 171.471 594.582 121.591 620.212 77.3214C632.983 55.4021 650.588 35.8128 672.162 22.0917C693.65 8.19803 718.33 0.603943 742.839 -2.9342C767.606 -6.81754 792.286 -5.17792 816.104 -6.47235C839.922 -7.59421 863.653 -10.0105 886.004 -16.0512C908.355 -22.0057 929.239 -31.9298 945.98 -46.6001C962.463 -61.4431 974.803 -79.9105 984.727 -98.7231C1004.49 -136.607 1019.76 -174.405 1037.54 -207.456C1072.06 -274.25 1111.24 -323.525 1139.8 -356.49C1154.3 -372.8 1165.95 -385.486 1174.23 -393.684C1182.43 -402.055 1186.75 -406.542 1186.75 -406.542C1186.75 -406.542 1182.43 -402.055 1174.32 -393.598C1166.12 -385.227 1154.56 -372.541 1140.23 -356.059C1112.01 -322.835 1073.35 -273.214 1039.61 -206.335C1022.18 -173.197 1007.42 -135.399 987.834 -96.9972C977.996 -77.8394 965.656 -58.9405 948.742 -43.3209C931.655 -27.9601 909.994 -17.5183 887.212 -11.2187C864.344 -4.83273 840.44 -2.15753 816.277 -0.776794C792.114 0.77655 767.692 -0.604218 743.788 3.36542C719.884 6.98987 696.239 14.6702 675.959 28.0462C655.593 41.3358 639.11 59.9758 626.943 81.2047C602.607 124.18 592.424 173.542 578.099 220.573C570.936 244.218 562.566 267.691 549.88 289.006C543.753 299.793 535.814 309.458 527.184 318.347C517.95 326.631 507.94 334.312 496.635 339.144L488.264 342.941L479.549 345.617C473.853 347.688 467.899 348.81 461.858 349.672C455.817 350.881 450.035 351.485 444.426 351.571L427.253 352.434C405.247 352.952 383.846 356.662 364.084 363.307C324.301 376.424 291.077 399.811 265.447 425.958C239.472 451.934 220.228 480.066 205.126 505.869C190.024 531.758 179.237 555.748 171.126 575.682C163.1 595.703 157.663 611.754 154.384 622.8C151.018 633.932 149.638 639.714 149.638 639.714L134.45 636.09Z" fill="#FFE66E"/>
<path d="M162.151 663.791C162.151 663.791 163.704 657.405 167.329 646.187C170.867 634.796 176.562 618.399 185.019 597.947C193.476 577.581 204.867 553.159 220.66 526.58C236.452 500.087 256.645 471.264 283.915 444.426C310.839 417.501 346.134 393.166 388.161 379.704C409.131 372.886 431.74 369.176 454.781 368.917C477.391 368.399 499.483 366.759 519.849 357.267C530.118 352.952 539.179 346.048 547.723 338.713C555.662 330.601 563.17 321.799 569.038 311.616C581.206 291.595 589.576 268.813 596.911 245.599C611.582 199.172 622.196 149.293 647.826 105.023C660.684 83.1033 678.203 63.514 699.777 49.7929C721.264 35.9855 745.945 28.3051 770.453 24.767C795.22 20.8837 819.901 22.6096 843.719 21.2289C867.537 20.107 891.268 17.6907 913.619 11.6499C935.883 5.6955 956.853 -4.22858 973.508 -18.8989C989.991 -33.7419 1002.33 -52.2093 1012.26 -71.0219C1032.02 -108.906 1047.29 -146.704 1065.07 -179.755C1099.59 -246.549 1138.77 -295.824 1167.33 -328.789C1181.83 -345.099 1193.48 -357.698 1201.85 -365.983C1210.05 -374.353 1214.36 -378.841 1214.36 -378.841C1214.36 -378.841 1210.05 -374.353 1201.93 -365.896C1193.74 -357.526 1182.17 -344.84 1167.85 -328.357C1139.63 -295.133 1100.97 -245.513 1067.23 -178.633C1049.79 -145.496 1034.95 -107.698 1015.45 -69.296C1005.61 -50.1382 993.27 -31.2393 976.356 -15.6197C959.27 -0.258942 937.609 10.1829 914.827 16.4825C891.958 22.8685 868.054 25.5437 843.891 26.9244C819.642 28.564 795.307 27.097 771.403 31.1529C747.499 34.7774 723.853 42.4577 703.574 55.7474C683.208 69.037 666.725 87.677 654.557 108.992C630.222 151.881 620.039 201.329 605.714 248.361C598.551 271.92 590.18 295.478 577.495 316.794C571.368 327.581 563.429 337.246 554.799 346.221C545.565 354.419 535.555 362.099 524.25 367.018L515.966 370.815L507.25 373.49C501.554 375.561 495.6 376.683 489.559 377.546C483.518 378.754 477.736 379.359 472.041 379.445L454.954 380.308C432.949 380.739 411.547 384.536 391.785 391.181C352.003 404.298 318.779 427.684 293.149 453.832C267.173 479.807 247.929 507.94 232.827 533.743C217.726 559.631 206.852 583.622 198.74 603.556C190.715 623.577 185.364 639.714 181.999 650.674C178.633 661.806 177.253 667.502 177.253 667.502L162.151 663.791Z" fill="#FFE66E"/>
<path d="M189.766 691.406C189.766 691.406 191.319 685.02 194.857 673.801C198.395 662.41 204.091 646.014 212.548 625.562C221.005 605.109 232.396 580.688 248.188 554.195C263.98 527.788 284.174 498.879 311.443 472.041C338.368 445.116 373.577 420.781 415.689 407.405C436.659 400.587 459.183 396.79 482.224 396.531C504.833 396.014 526.925 394.374 547.291 384.881C557.647 380.567 566.622 373.663 575.165 366.328C583.104 358.216 590.612 349.414 596.48 339.231C608.648 319.21 617.105 296.514 624.354 273.214C639.024 226.786 649.639 176.821 675.269 132.637C688.127 110.718 705.731 91.1288 727.219 77.4077C748.707 63.6002 773.387 55.9199 797.896 52.3817C822.663 48.4984 847.257 50.2243 871.161 48.8436C894.979 47.7217 918.71 45.3054 941.061 39.2647C963.326 33.3102 984.296 23.3861 1000.95 8.71579C1017.43 -6.12717 1029.77 -24.5946 1039.7 -43.4072C1059.46 -81.2913 1074.73 -119.089 1092.51 -152.141C1127.03 -218.934 1166.21 -268.209 1194.77 -301.174C1209.27 -317.571 1220.92 -330.17 1229.2 -338.368C1237.4 -346.739 1241.72 -351.226 1241.72 -351.226C1241.72 -351.226 1237.4 -346.739 1229.29 -338.282C1221.09 -329.911 1209.53 -317.225 1195.2 -300.743C1166.98 -267.519 1128.32 -217.898 1094.58 -151.019C1077.06 -117.881 1062.31 -80.0831 1042.8 -41.7675C1032.97 -22.6098 1020.63 -3.71091 1003.71 11.9087C986.626 27.2695 964.965 37.7976 942.269 44.011C919.401 50.3969 895.497 53.0721 871.247 54.4528C847.084 56.0924 822.663 54.6254 798.759 58.6813C774.854 62.3921 751.296 69.9861 731.016 83.3621C710.65 96.6517 694.167 115.292 682 136.521C657.664 179.41 647.481 228.858 633.156 275.889C625.993 299.534 617.623 323.007 604.937 344.322C598.81 355.109 590.871 364.774 582.241 373.663C573.007 381.861 562.997 389.541 551.779 394.46L543.408 398.257L534.692 400.932C528.996 403.004 522.956 404.125 517.001 404.988C510.96 406.197 505.179 406.801 499.483 406.887L482.396 407.75C460.391 408.181 438.989 411.978 419.227 418.623C379.445 431.74 346.221 455.127 320.591 481.274C294.616 507.25 275.372 535.382 260.27 561.185C245.168 587.074 234.294 611.064 226.183 630.998C218.157 651.019 212.807 667.07 209.441 678.116C206.076 689.248 204.695 695.03 204.695 695.03L189.766 691.406Z" fill="#FFE66E"/>
<path d="M217.467 719.107C217.467 719.107 219.02 712.721 222.558 701.503C226.096 690.198 231.792 673.715 240.249 653.263C248.792 632.811 260.097 608.389 275.889 581.896C291.682 555.489 311.875 526.58 339.144 499.828C366.069 472.904 401.278 448.568 443.39 435.106C464.274 428.288 486.884 424.578 509.925 424.232C532.534 423.801 554.626 422.075 574.992 412.583C585.348 408.268 594.323 401.45 602.866 394.029C610.805 385.917 618.313 377.115 624.181 366.932C636.349 346.911 644.72 324.129 652.055 300.915C666.811 254.488 677.34 204.608 702.97 160.338C715.828 138.419 733.432 118.83 754.92 105.109C776.408 91.2151 801.089 83.621 825.683 80.0829C850.45 76.1995 875.044 77.9255 898.862 76.5447C922.68 75.4229 946.411 73.0066 968.762 66.9659C991.027 61.0114 1012 51.0873 1028.65 36.417C1045.13 21.574 1057.47 3.1066 1067.4 -15.706C1087.16 -53.5901 1102.44 -91.3879 1120.21 -124.439C1154.73 -191.233 1193.91 -240.508 1222.47 -273.473C1236.97 -289.783 1248.62 -302.382 1256.91 -310.667C1265.1 -319.037 1269.42 -323.525 1269.42 -323.525C1269.42 -323.525 1265.1 -319.037 1256.99 -310.58C1248.79 -302.21 1237.32 -289.524 1222.9 -273.042C1194.69 -239.817 1156.03 -190.197 1122.28 -123.317C1104.77 -90.1797 1090.01 -52.3819 1070.51 -13.9801C1060.67 5.0914 1048.33 24.0766 1031.41 39.6962C1014.33 55.0569 992.666 65.4988 969.97 71.7984C947.102 78.1844 923.198 80.8595 899.035 82.2403C874.786 83.7936 850.364 82.4129 826.46 86.3825C802.642 90.0932 778.997 97.6873 758.717 111.063C738.351 124.353 721.782 142.993 709.701 164.308C685.365 207.197 675.182 256.645 660.771 303.677C653.608 327.322 645.237 350.794 632.552 372.11C626.425 382.897 618.486 392.562 609.856 401.45C600.622 409.735 590.698 417.415 579.393 422.248L571.023 426.131L562.307 428.72C556.611 430.791 550.657 431.913 544.616 432.776C538.575 433.984 532.707 434.588 527.098 434.674L510.011 435.537C488.006 435.969 466.604 439.766 446.842 446.411C407.146 459.528 373.836 482.914 348.206 509.062C322.23 535.037 302.986 563.17 287.884 588.972C272.783 614.861 261.909 638.851 253.884 658.786C245.772 678.807 240.421 694.944 237.142 705.904C233.777 717.036 232.396 722.731 232.396 722.731L217.467 719.107Z" fill="#FFE66E"/>
<path d="M245.081 746.722C245.081 746.722 246.635 740.336 250.173 729.031C253.711 717.726 259.32 701.244 267.864 680.791C276.407 660.339 287.712 635.917 303.504 609.424C319.383 583.018 339.49 554.109 366.759 527.357C393.684 500.432 428.893 476.097 471.005 462.634C491.975 455.817 514.499 452.106 537.54 451.847C560.149 451.33 582.241 449.69 602.607 440.111C612.876 435.796 621.937 428.979 630.481 421.557C638.42 413.446 645.928 404.643 651.796 394.46C663.964 374.44 672.334 351.657 679.67 328.444C694.426 282.016 705.041 232.137 730.584 187.867C743.443 165.948 761.047 146.359 782.535 132.637C804.023 118.83 828.703 111.15 853.211 107.611C877.979 103.728 902.573 105.454 926.391 104.073C950.295 102.951 973.94 100.535 996.291 94.4944C1018.64 88.54 1039.53 78.6159 1056.18 63.9455C1072.66 49.0163 1085 30.6351 1094.93 11.7362C1114.69 -26.1478 1129.88 -63.9456 1147.74 -96.9971C1182.26 -163.79 1221.44 -213.066 1250 -246.031C1264.5 -262.427 1276.15 -275.026 1284.43 -283.311C1292.63 -291.682 1296.95 -296.169 1296.95 -296.169C1296.95 -296.169 1292.63 -291.682 1284.52 -283.225C1276.32 -274.854 1264.76 -262.168 1250.43 -245.686C1222.21 -212.462 1183.55 -162.841 1149.81 -95.9615C1132.38 -62.91 1117.54 -25.1122 1098.03 13.3759C1088.2 32.4474 1075.86 51.4326 1058.94 66.9659C1041.86 82.3266 1020.28 92.8548 997.499 99.0681C974.63 105.454 950.726 108.129 926.563 109.51C902.314 111.063 877.892 109.683 853.988 113.738C830.084 117.363 806.525 124.957 786.246 138.419C765.88 151.623 749.311 170.349 737.229 191.578C712.894 234.467 702.711 283.915 688.299 330.946C681.137 354.505 672.766 378.064 660.08 399.379C653.953 410.166 646.014 419.918 637.384 428.806C628.151 437.004 618.227 444.685 606.922 449.604L598.551 453.401L589.835 456.076C584.14 458.147 578.185 459.269 572.144 460.132C566.104 461.426 560.236 461.944 554.626 462.03L537.54 462.893C515.534 463.325 494.133 467.122 474.371 473.767C434.588 486.884 401.364 510.27 375.734 536.418C349.845 562.393 330.515 590.526 315.413 616.328C300.311 642.217 289.524 666.207 281.412 686.142C273.3 706.163 267.95 722.214 264.671 733.26C261.305 744.392 259.924 750.174 259.924 750.174L245.081 746.722Z" fill="#FFE66E"/>
<path d="M272.783 774.423C272.783 774.423 274.336 768.037 277.96 756.818C281.499 745.514 287.108 729.031 295.565 708.579C304.108 688.213 315.413 663.791 331.205 637.212C347.084 610.719 367.191 581.896 394.46 555.144C421.385 528.22 456.594 503.884 498.706 490.422C519.676 483.604 542.286 479.894 565.241 479.635C587.85 479.203 609.942 477.477 630.308 467.985C640.577 463.67 649.639 456.766 658.182 449.345C666.121 441.233 673.629 432.431 679.497 422.248C691.665 402.227 700.036 379.531 707.371 356.231C722.127 309.804 732.742 259.924 758.372 215.655C771.144 193.735 788.834 174.146 810.322 160.425C831.81 146.617 856.491 138.937 880.999 135.485C905.766 131.602 930.447 133.328 954.264 131.947C978.082 130.825 1001.81 128.409 1024.16 122.368C1046.43 116.414 1067.4 106.49 1084.05 91.8193C1100.54 76.9763 1112.88 58.5089 1122.8 39.6964C1142.56 1.81226 1157.84 -36.0718 1175.61 -69.037C1210.13 -135.83 1249.31 -185.106 1277.88 -218.071C1292.37 -234.381 1304.02 -247.066 1312.31 -255.264C1320.51 -263.635 1324.82 -268.123 1324.82 -268.123C1324.82 -268.123 1320.51 -263.635 1312.39 -255.178C1304.2 -246.807 1292.63 -234.122 1278.31 -217.639C1250.09 -184.415 1211.43 -134.795 1177.69 -67.9151C1160.25 -34.7774 1145.5 2.93411 1125.91 41.4223C1116.07 60.4937 1103.73 79.4789 1086.82 95.0123C1069.73 110.373 1048.15 120.901 1025.37 127.201C1002.5 133.587 978.6 136.262 954.437 137.643C930.274 139.196 905.852 137.815 881.948 141.785C858.044 145.409 834.399 153.09 814.119 166.466C793.753 179.755 777.271 198.395 765.103 219.624C740.767 262.513 730.584 311.961 716.259 358.993C709.097 382.638 700.726 406.11 688.04 427.426C681.913 438.213 673.974 447.878 665.344 456.766C656.111 465.051 646.1 472.645 634.882 477.564L626.511 481.361L617.795 484.036C612.1 486.021 606.145 487.229 600.104 488.092C594.064 489.386 588.282 489.904 582.673 490.077L565.5 490.94C543.494 491.371 522.093 495.168 502.331 501.813C462.548 514.93 429.324 538.316 403.694 564.378C377.719 590.353 358.475 618.486 343.373 644.288C328.271 670.177 317.484 694.167 309.372 714.102C301.347 734.123 295.91 750.174 292.631 761.22C289.265 772.352 287.884 778.134 287.884 778.134L272.783 774.423Z" fill="#FFE66E"/>
<path d="M300.397 802.038C300.397 802.038 301.951 795.652 305.575 784.433C309.113 773.042 314.809 756.646 323.266 736.194C331.723 715.741 343.114 691.32 358.906 664.827C374.699 638.42 394.892 609.511 422.162 582.759C449.086 555.834 484.381 531.499 526.407 518.037C547.377 511.219 569.987 507.509 593.028 507.25C615.638 506.732 637.73 505.092 658.096 495.513C668.365 491.199 677.426 484.381 685.969 476.96C693.909 468.848 701.416 460.046 707.284 449.863C719.452 429.842 727.823 407.06 735.158 383.846C749.829 337.419 760.529 287.539 786.159 243.269C798.931 221.35 816.536 201.761 838.11 188.04C859.597 174.146 884.278 166.552 908.786 163.014C933.553 159.13 958.234 160.856 982.052 159.476C1005.87 158.354 1029.6 155.937 1051.95 149.983C1074.3 144.029 1095.19 134.104 1111.84 119.434C1128.32 104.591 1140.66 86.1237 1150.59 67.3111C1170.35 29.427 1185.62 -8.37076 1203.4 -41.4222C1237.92 -108.216 1277.1 -157.491 1305.66 -190.456C1320.16 -206.766 1331.81 -219.365 1340.1 -227.65C1348.29 -236.02 1352.61 -240.508 1352.61 -240.508C1352.61 -240.508 1348.29 -236.02 1340.18 -227.563C1331.98 -219.193 1320.42 -206.507 1306.09 -190.024C1277.88 -156.8 1239.21 -107.266 1205.47 -40.3004C1188.04 -7.16261 1173.2 30.6352 1153.7 69.037C1143.86 88.1948 1131.52 107.094 1114.6 122.713C1097.52 138.074 1075.86 148.516 1053.07 154.816C1030.21 161.201 1006.3 163.877 982.138 165.257C957.889 166.811 933.553 165.43 909.649 169.486C885.745 173.11 862.1 180.704 841.82 194.08C821.455 207.37 804.972 226.01 792.804 247.325C768.469 290.214 758.286 339.662 743.96 386.694C736.798 410.339 728.427 433.812 715.742 455.127C709.615 465.914 701.675 475.579 693.046 484.467C683.812 492.752 673.802 500.432 662.497 505.265L654.126 509.062L645.41 511.737C639.715 513.808 633.76 514.93 627.719 515.793C621.679 517.001 615.897 517.605 610.287 517.692L593.201 518.555C571.195 519.072 549.794 522.783 530.032 529.428C490.249 542.545 457.025 565.931 431.395 592.079C405.42 618.054 386.176 646.187 371.074 671.989C355.972 697.878 345.185 721.868 337.073 741.803C329.048 761.824 323.611 777.875 320.332 788.921C316.966 800.053 315.586 805.835 315.586 805.835L300.397 802.038Z" fill="#FFE66E"/>
<path d="M328.099 829.739C328.099 829.739 329.652 823.353 333.276 812.134C336.814 800.743 342.51 784.347 350.967 763.895C359.424 743.529 370.815 719.107 386.607 692.528C402.4 666.035 422.593 637.212 449.863 610.374C476.787 583.449 511.996 559.114 554.108 545.651C575.078 538.834 597.602 535.123 620.643 534.864C643.253 534.433 665.344 532.707 685.71 523.214C696.066 518.9 705.041 511.996 713.584 504.661C721.523 496.549 729.031 487.747 734.899 477.564C747.067 457.543 755.438 434.761 762.773 411.547C777.443 365.12 788.058 315.24 813.688 270.97C826.546 249.051 844.064 229.462 865.638 215.741C887.126 201.933 911.807 194.253 936.401 190.801C961.168 186.918 985.763 188.644 1009.67 187.263C1033.48 186.141 1057.22 183.725 1079.57 177.684C1101.83 171.73 1122.8 161.806 1139.46 147.135C1155.94 132.292 1168.28 113.825 1178.2 95.0123C1197.97 57.1282 1213.24 19.3304 1231.02 -13.7211C1265.54 -80.5144 1304.71 -129.79 1333.28 -162.755C1347.78 -179.065 1359.43 -191.664 1367.71 -199.948C1375.91 -208.319 1380.22 -212.807 1380.22 -212.807C1380.22 -212.807 1375.91 -208.319 1367.8 -199.862C1359.6 -191.491 1348.03 -178.806 1333.71 -162.323C1305.49 -129.099 1266.83 -79.4789 1233.09 -12.5992C1215.66 20.5385 1200.9 58.3363 1181.31 96.7382C1171.47 115.896 1159.13 134.795 1142.22 150.414C1125.13 165.775 1103.47 176.217 1080.69 182.517C1057.82 188.903 1033.92 191.578 1009.75 192.959C985.504 194.598 961.168 193.131 937.264 197.187C913.36 200.812 889.715 208.492 869.435 221.782C849.156 235.071 832.587 253.711 820.419 275.026C796.083 317.916 785.9 367.363 771.575 414.395C764.413 437.954 756.042 461.513 743.356 482.828C737.229 493.615 729.29 503.28 720.66 512.255C711.427 520.453 701.416 528.133 690.111 533.052L681.827 536.849L673.111 539.524C667.416 541.596 661.461 542.717 655.42 543.58C649.38 544.789 643.598 545.393 637.988 545.479L620.816 546.342C598.81 546.773 577.409 550.57 557.647 557.215C517.864 570.332 484.64 593.719 459.01 619.866C433.035 645.841 413.791 673.974 398.689 699.777C383.587 725.666 372.714 749.656 364.602 769.59C356.576 789.611 351.226 805.749 347.86 816.708C344.495 827.84 343.114 833.622 343.114 833.622L328.099 829.739Z" fill="#FFE66E"/>
<path d="M355.713 857.354C355.713 857.354 357.267 850.968 360.805 839.749C364.343 828.358 370.038 811.962 378.496 791.509C386.953 771.057 398.344 746.635 414.136 720.142C429.928 693.736 450.121 664.826 477.391 637.988C504.316 611.064 539.524 586.728 581.637 573.352C602.521 566.535 625.13 562.824 648.171 562.479C670.781 562.048 692.873 560.322 713.239 550.829C723.594 546.514 732.569 539.611 741.113 532.275C749.052 524.164 756.56 515.361 762.428 505.178C774.596 485.158 783.053 462.462 790.301 439.162C804.972 392.734 815.586 342.769 841.216 298.585C854.074 276.666 871.679 257.077 893.167 243.355C914.654 229.462 939.335 221.868 963.843 218.329C988.61 214.446 1013.2 216.172 1037.11 214.791C1060.93 213.669 1084.66 211.253 1107.01 205.212C1129.27 199.258 1150.24 189.334 1166.9 174.664C1183.38 159.821 1195.72 141.353 1205.65 122.541C1225.41 84.6565 1240.68 46.8587 1258.46 13.8072C1292.98 -52.9861 1332.16 -102.261 1360.72 -135.226C1375.22 -151.623 1386.87 -164.222 1395.15 -172.42C1403.35 -180.791 1407.67 -185.278 1407.67 -185.278C1407.67 -185.278 1403.35 -180.791 1395.24 -172.334C1387.04 -163.963 1375.56 -151.278 1361.15 -134.795C1332.93 -101.571 1294.27 -51.9506 1260.53 14.9291C1243.01 48.0668 1228.26 85.8647 1208.75 124.18C1198.91 143.338 1186.57 162.323 1169.66 177.857C1152.57 193.217 1130.91 203.659 1108.22 209.959C1085.35 216.345 1061.44 219.02 1037.2 220.401C1013.03 222.04 988.61 220.573 964.706 224.629C940.802 228.34 917.243 235.934 896.964 249.31C876.598 262.599 860.115 281.239 847.947 302.468C823.612 345.358 813.429 394.805 799.104 441.837C791.941 465.482 783.57 488.955 770.885 510.27C764.758 521.057 756.819 530.722 748.189 539.611C738.955 547.895 728.945 555.575 717.726 560.408L709.356 564.205L700.64 566.88C694.944 568.951 688.99 570.073 682.949 570.936C676.908 572.144 671.126 572.748 665.431 572.835L648.344 573.698C626.339 574.129 604.937 577.926 585.175 584.571C545.479 597.688 512.168 621.074 486.538 647.222C460.563 673.197 441.319 701.33 426.217 727.132C411.116 753.021 400.242 777.012 392.217 796.946C384.105 816.967 378.754 833.104 375.475 844.064C372.11 855.196 370.729 860.978 370.729 860.978L355.713 857.354Z" fill="#FFE66E"/>
<path d="M383.414 885.055C383.414 885.055 384.968 878.669 388.506 867.364C392.044 856.059 397.74 839.576 406.197 819.124C414.74 798.672 426.045 774.25 441.837 747.757C457.629 721.351 477.823 692.441 505.092 665.69C532.017 638.765 567.226 614.43 609.338 600.967C630.222 594.15 652.831 590.439 675.873 590.18C698.482 589.749 720.574 588.023 740.94 578.53C751.296 574.215 760.27 567.312 768.814 559.977C776.753 551.865 784.261 543.062 790.129 532.88C802.297 512.859 810.667 490.077 818.003 466.863C832.759 420.435 843.374 370.556 868.917 326.286C881.776 304.367 899.38 284.778 920.868 271.057C942.356 257.249 967.036 249.569 991.544 246.031C1016.31 242.147 1040.91 243.873 1064.72 242.492C1088.54 241.371 1112.27 238.954 1134.62 232.914C1156.89 226.959 1177.86 217.035 1194.51 202.365C1211 187.522 1223.34 169.054 1233.26 150.242C1253.02 112.358 1268.21 74.5599 1286.07 41.5084C1320.59 -25.2849 1359.77 -74.5601 1388.33 -107.525C1402.83 -123.835 1414.48 -136.435 1422.77 -144.719C1430.97 -153.09 1435.28 -157.577 1435.28 -157.577C1435.28 -157.577 1430.97 -153.09 1422.85 -144.633C1414.66 -136.262 1403.09 -123.576 1388.77 -107.094C1360.55 -73.8698 1321.89 -24.2494 1288.14 42.6303C1270.63 75.6817 1255.87 113.48 1236.37 151.881C1226.53 171.039 1214.19 189.938 1197.27 205.558C1180.19 220.918 1158.53 231.36 1135.83 237.66C1112.96 244.046 1089.06 246.721 1064.9 248.102C1040.73 249.655 1016.31 248.274 992.407 252.33C968.503 256.041 944.944 263.635 924.665 277.011C904.299 290.301 887.73 308.941 875.649 330.256C851.313 373.145 841.13 422.593 826.719 469.624C819.556 493.183 811.185 516.742 798.5 538.057C792.373 548.844 784.433 558.509 775.804 567.484C766.57 575.682 756.646 583.363 745.341 588.282L736.97 592.079L728.254 594.754C722.559 596.825 716.604 597.947 710.564 598.81C704.523 600.018 698.655 600.622 693.046 600.708L675.959 601.571C653.953 602.003 632.552 605.8 612.79 612.445C573.007 625.562 539.783 648.948 514.153 675.096C488.178 701.071 468.934 729.204 453.832 755.006C438.73 780.895 427.857 804.885 419.831 824.82C411.806 844.841 406.369 860.978 403.09 871.938C399.724 883.07 398.344 888.852 398.344 888.852L383.414 885.055Z" fill="#FFE66E"/>
<path d="M411.029 912.67C411.029 912.67 412.583 906.284 416.121 894.979C419.659 883.674 425.354 867.192 433.811 846.739C442.355 826.287 453.66 801.865 469.452 775.372C485.33 748.966 505.437 720.056 532.707 693.305C559.631 666.38 594.84 642.045 636.953 628.582C657.923 621.765 680.446 618.054 703.487 617.795C726.097 617.364 748.189 615.638 768.555 606.059C778.824 601.744 787.885 594.84 796.429 587.505C804.368 579.393 811.876 570.591 817.744 560.408C829.911 540.388 838.282 517.692 845.617 494.392C860.374 447.964 870.988 398.085 896.618 353.815C909.39 331.896 927.081 312.306 948.569 298.585C970.057 284.778 994.737 277.097 1019.25 273.559C1044.01 269.676 1068.61 271.402 1092.51 270.021C1116.33 268.899 1140.06 266.483 1162.41 260.442C1184.76 254.488 1205.65 244.564 1222.39 229.893C1238.87 215.05 1251.21 196.583 1261.13 177.684C1280.9 139.8 1296.08 102.002 1313.95 68.9508C1348.47 2.15746 1387.64 -47.1177 1416.21 -80.0829C1430.71 -96.4792 1442.36 -109.078 1450.64 -117.277C1458.84 -125.647 1463.15 -130.135 1463.15 -130.135C1463.15 -130.135 1458.84 -125.647 1450.73 -117.19C1442.53 -108.82 1430.97 -96.134 1416.64 -79.6514C1388.42 -46.4274 1349.76 3.19304 1316.02 70.0727C1298.59 103.124 1283.74 140.922 1264.24 179.41C1254.4 198.482 1242.06 217.467 1225.15 233C1208.06 248.361 1186.4 258.889 1163.71 265.102C1140.84 271.488 1116.93 274.163 1092.68 275.544C1068.52 277.097 1044.01 275.717 1020.11 279.773C996.204 283.397 972.646 291.077 952.366 304.453C932 317.657 915.431 336.383 903.35 357.612C879.014 400.501 868.831 449.949 854.506 496.98C847.343 520.626 838.973 544.098 826.287 565.413C820.16 576.2 812.221 585.952 803.591 594.84C794.357 603.039 784.347 610.719 773.129 615.638L764.758 619.435L756.042 622.11C750.346 624.181 744.392 625.303 738.351 626.166C732.31 627.46 726.529 627.978 720.833 628.065L703.746 628.927C681.741 629.359 660.339 633.156 640.577 639.801C600.795 652.918 567.571 676.304 541.941 702.452C515.966 728.427 496.721 756.56 481.62 782.362C466.518 808.251 455.731 832.242 447.619 852.176C439.507 872.197 434.157 888.248 430.877 899.294C427.512 910.426 426.131 916.208 426.131 916.208L411.029 912.67Z" fill="#FFE66E"/>
<path d="M438.73 940.371C438.73 940.371 440.284 933.985 443.908 922.766C447.446 911.462 453.056 894.979 461.513 874.527C470.056 854.161 481.361 829.739 497.153 803.16C513.031 776.753 533.139 747.844 560.408 721.092C587.333 694.167 622.541 669.832 664.654 656.37C685.624 649.552 708.234 645.842 731.188 645.583C753.798 645.065 775.89 643.425 796.256 633.846C806.525 629.532 815.586 622.628 824.13 615.293C832.069 607.181 839.577 598.379 845.445 588.196C857.613 568.175 865.983 545.393 873.318 522.179C888.075 475.752 898.69 425.872 924.32 381.602C937.178 359.683 954.782 340.094 976.27 326.373C997.758 312.565 1022.44 304.885 1046.95 301.433C1071.71 297.55 1096.39 299.276 1120.21 297.895C1144.03 296.773 1167.76 294.357 1190.11 288.316C1212.46 282.361 1233.35 272.437 1250 257.767C1266.48 242.924 1278.82 224.457 1288.75 205.644C1308.51 167.76 1323.79 129.876 1341.56 96.9108C1376.08 30.1174 1415.26 -19.1578 1443.82 -52.1229C1458.32 -68.4329 1469.97 -81.1185 1478.26 -89.3167C1486.45 -97.6874 1490.77 -102.175 1490.77 -102.175C1490.77 -102.175 1486.45 -97.6874 1478.34 -89.2304C1470.14 -80.8596 1458.58 -68.1741 1444.25 -51.6915C1416.04 -18.4674 1377.38 31.0667 1343.63 98.0326C1326.2 131.17 1311.44 168.882 1291.86 207.37C1282.02 226.528 1269.68 245.427 1252.76 260.96C1235.68 276.321 1214.1 286.849 1191.32 293.149C1168.45 299.534 1144.55 302.21 1120.38 303.59C1096.14 305.144 1071.8 303.763 1047.9 307.733C1023.99 311.357 1000.35 319.037 980.067 332.413C959.701 345.703 943.218 364.343 931.051 385.658C906.715 428.547 896.532 477.909 882.207 525.027C875.044 548.672 866.674 572.144 853.988 593.46C847.861 604.247 839.922 613.912 831.292 622.8C822.058 631.085 812.048 638.679 800.743 643.598L792.373 647.395L783.657 650.07C777.961 652.055 772.007 653.263 765.966 654.126C759.925 655.42 754.143 655.938 748.534 656.111L731.361 656.974C709.356 657.405 687.954 661.202 668.192 667.847C628.41 680.964 595.186 704.35 569.556 730.412C543.58 756.387 524.336 784.52 509.234 810.322C494.133 836.211 483.346 860.202 475.234 880.136C467.208 900.157 461.771 916.208 458.492 927.254C455.127 938.386 453.746 944.168 453.746 944.168L438.73 940.371Z" fill="#FFE66E"/>
<path d="M466.345 967.985C466.345 967.985 467.899 961.6 471.523 950.381C475.061 938.99 480.757 922.594 489.214 902.141C497.757 881.689 509.062 857.267 524.854 830.774C540.646 804.368 560.84 775.458 588.109 748.707C615.034 721.782 650.329 697.447 692.355 683.984C713.325 677.167 735.935 673.456 758.976 673.197C781.586 672.679 803.677 671.04 824.043 661.461C834.313 657.146 843.374 650.329 851.917 642.907C859.856 634.795 867.364 625.993 873.232 615.81C885.4 595.789 893.771 573.007 901.106 549.794C915.776 503.366 926.477 453.487 952.107 409.217C964.879 387.298 982.483 367.708 1004.06 353.987C1025.55 340.18 1050.23 332.499 1074.73 328.961C1099.5 325.078 1124.18 326.804 1148 325.423C1171.82 324.301 1195.55 321.885 1217.9 315.844C1240.16 309.89 1261.13 299.966 1277.79 285.295C1294.27 270.452 1306.61 251.985 1316.54 233.172C1336.3 195.288 1351.57 157.491 1369.35 124.439C1403.87 57.6458 1443.05 8.37056 1471.61 -24.5946C1486.11 -40.9046 1497.76 -53.5039 1506.13 -61.7883C1514.33 -70.1591 1518.64 -74.6465 1518.64 -74.6465C1518.64 -74.6465 1514.33 -70.1591 1506.22 -61.702C1498.02 -53.3313 1486.45 -40.6457 1472.13 -24.1631C1443.91 9.06093 1405.25 58.595 1371.51 125.561C1354.08 158.699 1339.32 196.497 1319.73 234.898C1309.89 254.056 1297.55 272.955 1280.64 288.575C1263.55 303.935 1241.89 314.377 1219.11 320.677C1196.24 327.063 1172.34 329.738 1148.17 331.119C1123.92 332.672 1099.59 331.291 1075.68 335.347C1051.78 338.972 1028.13 346.566 1007.85 359.942C987.489 373.231 971.006 391.871 958.838 413.186C934.503 456.076 924.32 505.524 909.994 552.555C902.832 576.2 894.461 599.673 881.776 620.988C875.649 631.775 867.709 641.44 859.08 650.329C849.846 658.613 839.836 666.294 828.531 671.126L820.246 675.009L811.53 677.685C805.835 679.756 799.88 680.878 793.84 681.741C787.799 682.949 782.017 683.553 776.408 683.639L759.235 684.502C737.229 685.02 715.828 688.731 696.066 695.375C656.283 708.492 623.059 731.879 597.429 758.027C571.454 784.002 552.21 812.134 537.108 837.937C522.006 863.826 511.219 887.816 503.107 907.751C495.082 927.771 489.731 943.822 486.366 954.868C483 965.914 481.62 971.696 481.62 971.696L466.345 967.985Z" fill="#FFE66E"/>
</g>
</svg>
