<svg width="36" height="36" viewBox="0 0 36 36" fill="none" xmlns="http://www.w3.org/2000/svg">
<path d="M0 18C0 8.06 8.06 0 18 0C27.94 0 36 8.06 36 18C36 27.94 27.94 36 18 36C8.06 36 0 27.9433 0 18Z" fill="#6A2978"/>
<path d="M25.94 22.58C25.5267 22.58 25.19 22.2433 25.19 21.83V10.81H14.17C13.7567 10.81 13.42 10.4733 13.42 10.06C13.42 9.64668 13.7567 9.31001 14.17 9.31001H26.6933V21.8333C26.6933 22.2433 26.3567 22.58 25.94 22.58Z" fill="#FFE66E"/>
<path d="M10.06 26.6933C9.86667 26.6933 9.67666 26.62 9.53 26.4733C9.23666 26.18 9.23666 25.7033 9.53 25.41L25.4133 9.52667C25.7067 9.23334 26.1833 9.23334 26.4767 9.52667C26.77 9.82 26.77 10.2967 26.4767 10.59L10.59 26.4733C10.4433 26.62 10.25 26.6933 10.06 26.6933Z" fill="#FFE66E"/>
</svg>
