<svg width="180" height="180" viewBox="0 0 180 180" fill="none" xmlns="http://www.w3.org/2000/svg">
<g clip-path="url(#clip0_1391_342)">
<mask id="mask0_1391_342" style="mask-type:luminance" maskUnits="userSpaceOnUse" x="0" y="0" width="180" height="180">
<path d="M180 0H0V180H180V0Z" fill="white"/>
</mask>
<g mask="url(#mask0_1391_342)">
<path d="M-215.017 50.7C-215.017 50.7 -214.45 48.4167 -213.167 44.3833C-211.9 40.3 -209.883 34.4167 -206.833 27.0833C-203.767 19.7666 -199.717 11.0167 -194.05 1.48331C-188.367 -8 -181.15 -18.3334 -171.35 -27.9667C-161.7 -37.6167 -149.05 -46.35 -133.967 -51.1667C-126.45 -53.6 -118.367 -54.95 -110.083 -55.05C-101.983 -55.2334 -94.05 -55.8167 -86.75 -59.2334C-83.05 -60.7834 -79.8333 -63.25 -76.75 -65.9167C-73.9 -68.8167 -71.2166 -71.9833 -69.1 -75.6167C-64.75 -82.8 -61.7333 -90.95 -59.1 -99.3C-53.8166 -115.95 -50.0166 -133.85 -40.8167 -149.733C-36.2333 -157.6 -29.9 -164.6 -22.1833 -169.533C-14.4833 -174.5 -5.63332 -177.233 3.18335 -178.483C12.05 -179.883 20.9 -179.267 29.4333 -179.767C38 -180.167 46.5 -181.033 54.5167 -183.2C62.5167 -185.333 70.0334 -188.9 76.0167 -194.167C81.9333 -199.5 86.3333 -206.1 89.9167 -212.867C97 -226.467 102.467 -240.017 108.85 -251.85C121.217 -275.8 135.3 -293.483 145.533 -305.3C150.733 -311.167 154.917 -315.7 157.883 -318.65C160.833 -321.667 162.383 -323.25 162.383 -323.25C162.383 -323.25 160.833 -321.633 157.933 -318.6C154.983 -315.617 150.85 -311.05 145.717 -305.15C135.617 -293.233 121.733 -275.45 109.65 -251.45C103.383 -239.567 98.0833 -226.017 91.0667 -212.25C87.55 -205.4 83.1167 -198.6 77.05 -193C70.9167 -187.483 63.1667 -183.733 55 -181.483C46.8 -179.2 38.2334 -178.233 29.55 -177.733C20.8667 -177.15 12.1 -177.683 3.53334 -176.217C-5.03333 -174.9 -13.5 -172.167 -20.7666 -167.367C-28.0667 -162.6 -34 -155.917 -38.35 -148.3C-47.0833 -132.9 -50.7166 -115.2 -55.8667 -98.3167C-58.4333 -89.85 -61.45 -81.4167 -65.9833 -73.75C-68.1833 -69.9 -71.0333 -66.4167 -74.1167 -63.2167C-77.4333 -60.2667 -81 -57.5167 -85.05 -55.7667L-88.05 -54.3834L-91.1666 -53.4333C-93.2166 -52.7 -95.35 -52.3 -97.5166 -51.9834C-99.6833 -51.5334 -101.767 -51.3333 -103.783 -51.2834L-109.917 -50.9667C-117.817 -50.8 -125.467 -49.45 -132.567 -47.0667C-146.817 -42.3667 -158.75 -33.9667 -167.933 -24.6C-177.25 -15.2834 -184.15 -5.20001 -189.583 4.06665C-194.983 13.3666 -198.883 21.95 -201.783 29.1C-204.683 36.2833 -206.617 42.05 -207.8 46C-209 49.9833 -209.483 52.05 -209.483 52.05L-215.017 50.7Z" fill="#B7A6D0"/>
</g>
<mask id="mask1_1391_342" style="mask-type:luminance" maskUnits="userSpaceOnUse" x="0" y="0" width="180" height="180">
<path d="M180 0H0V180H180V0Z" fill="white"/>
</mask>
<g mask="url(#mask1_1391_342)">
<path d="M-205.1 60.6334C-205.1 60.6334 -204.533 58.3501 -203.25 54.3167C-201.983 50.2334 -199.95 44.3501 -196.917 37.0167C-193.867 29.7 -189.783 20.9334 -184.133 11.4167C-178.45 1.93338 -171.233 -8.4166 -161.433 -18.0333C-151.767 -27.6833 -139.133 -36.4166 -124.05 -41.2333C-116.533 -43.6666 -108.433 -45.0166 -100.167 -45.1166C-92.0667 -45.2833 -84.1334 -45.8833 -76.8334 -49.2999C-73.1333 -50.8499 -69.9 -53.3166 -66.8334 -55.9666C-63.9834 -58.8666 -61.3 -62.0333 -59.2 -65.6833C-54.85 -72.8499 -51.8334 -81.0166 -49.2 -89.3666C-43.9167 -106.017 -40.1 -123.917 -30.9167 -139.783C-26.3167 -147.65 -20 -154.667 -12.2833 -159.583C-4.58334 -164.55 4.26665 -167.283 13.0833 -168.55C21.95 -169.95 30.8 -169.333 39.35 -169.833C47.9 -170.233 56.4 -171.1 64.4166 -173.267C72.4333 -175.4 79.9333 -178.967 85.9166 -184.233C91.8167 -189.567 96.2333 -196.167 99.8 -202.933C106.883 -216.517 112.35 -230.083 118.733 -241.917C131.1 -265.867 145.183 -283.567 155.417 -295.367C160.617 -301.233 164.8 -305.75 167.767 -308.717C170.7 -311.717 172.267 -313.317 172.267 -313.317C172.267 -313.317 170.733 -311.7 167.817 -308.667C164.867 -305.683 160.733 -301.117 155.6 -295.2C145.483 -283.283 131.617 -265.5 119.517 -241.5C113.25 -229.633 107.95 -216.067 100.95 -202.3C97.4333 -195.45 92.9833 -188.65 86.9333 -183.05C80.8 -177.55 73.05 -173.783 64.8833 -171.533C56.6833 -169.25 48.1166 -168.283 39.4333 -167.8C30.75 -167.217 22 -167.733 13.4333 -166.283C4.86664 -164.967 -3.60004 -162.233 -10.8834 -157.433C-18.1834 -152.667 -24.1167 -145.983 -28.4667 -138.367C-37.2 -122.967 -40.8334 -105.25 -45.9834 -88.3666C-48.55 -79.9 -51.5667 -71.4833 -56.1 -63.8166C-58.2834 -59.95 -61.15 -56.4666 -64.2334 -53.2833C-67.55 -50.3166 -71.1333 -47.5666 -75.1667 -45.8166L-78.1667 -44.45L-81.3 -43.4833C-83.3334 -42.7666 -85.4834 -42.3499 -87.65 -42.0333C-89.8167 -41.5999 -91.9 -41.3833 -93.9167 -41.3499L-100.05 -41.0333C-107.933 -40.8666 -115.617 -39.4999 -122.7 -37.1166C-137 -32.4333 -148.933 -24.0333 -158.117 -14.6666C-167.433 -5.34995 -174.333 4.7334 -179.75 14.0001C-185.167 23.3 -189.067 31.8834 -191.95 39.05C-194.833 46.2167 -196.767 52.0001 -197.95 55.9501C-199.15 59.9334 -199.65 62 -199.65 62L-205.1 60.6334Z" fill="#B7A6D0"/>
</g>
<mask id="mask2_1391_342" style="mask-type:luminance" maskUnits="userSpaceOnUse" x="0" y="0" width="180" height="180">
<path d="M180 0H0V180H180V0Z" fill="white"/>
</mask>
<g mask="url(#mask2_1391_342)">
<path d="M-195.183 70.55C-195.183 70.55 -194.617 68.2666 -193.333 64.2333C-192.067 60.1666 -190.033 54.2667 -187 46.9333C-183.95 39.6167 -179.883 30.85 -174.217 21.3333C-168.55 11.85 -161.3 1.5 -151.517 -8.11667C-141.85 -17.7667 -129.217 -26.5167 -114.133 -31.3167C-106.617 -33.75 -98.5167 -35.1 -90.25 -35.2C-82.1333 -35.3667 -74.2167 -35.9667 -66.9 -39.3834C-63.2 -40.9333 -59.9667 -43.3834 -56.9 -46.05C-54.05 -48.95 -51.3667 -52.1167 -49.2667 -55.75C-44.9167 -62.9333 -41.8833 -71.0833 -39.2667 -79.4333C-34 -96.1 -30.1833 -113.983 -20.9834 -129.867C-16.4 -137.733 -10.0833 -144.75 -2.36667 -149.667C5.33333 -154.633 14.1833 -157.367 23 -158.633C31.8833 -160.033 40.7166 -159.417 49.2666 -159.9C57.8167 -160.3 66.3333 -161.183 74.35 -163.333C82.35 -165.467 89.8666 -169.033 95.85 -174.3C101.767 -179.633 106.183 -186.233 109.733 -193C116.817 -206.6 122.283 -220.15 128.667 -231.983C141.033 -255.933 155.117 -273.617 165.35 -285.433C170.55 -291.3 174.733 -295.817 177.7 -298.783C180.633 -301.783 182.2 -303.383 182.2 -303.383C182.2 -303.383 180.667 -301.767 177.75 -298.733C174.8 -295.733 170.667 -291.183 165.533 -285.267C155.417 -273.35 141.55 -255.567 129.467 -231.567C123.2 -219.7 117.9 -206.133 110.883 -192.367C107.367 -185.517 102.917 -178.717 96.8667 -173.117C90.7333 -167.617 82.9833 -163.85 74.8167 -161.6C66.6167 -159.317 58.05 -158.35 49.3667 -157.85C40.6833 -157.283 31.9333 -157.8 23.3666 -156.35C14.7333 -155.067 6.26666 -152.333 -1.01668 -147.55C-8.31668 -142.783 -14.25 -136.1 -18.6 -128.467C-27.3167 -113.067 -30.9667 -95.3667 -36.1167 -78.4667C-38.7 -70 -41.7 -61.5833 -46.25 -53.9167C-48.4333 -50.05 -51.3 -46.5667 -54.3833 -43.3667C-57.7 -40.4167 -61.2834 -37.65 -65.3333 -35.9167L-68.3167 -34.5333L-71.45 -33.5833C-73.5 -32.85 -75.6334 -32.45 -77.7834 -32.1334C-79.9667 -31.6833 -82.0333 -31.4833 -84.05 -31.4333L-90.1833 -31.1167C-98.0833 -30.95 -105.75 -29.6 -112.833 -27.2167C-127.083 -22.5167 -139 -14.1167 -148.2 -4.75C-157.5 4.56665 -164.417 14.65 -169.85 23.9167C-175.25 33.2166 -179.15 41.8 -182.05 48.9667C-184.933 56.15 -186.85 61.9167 -188.05 65.8666C-189.25 69.85 -189.733 71.9167 -189.733 71.9167L-195.183 70.55Z" fill="#B7A6D0"/>
</g>
<mask id="mask3_1391_342" style="mask-type:luminance" maskUnits="userSpaceOnUse" x="0" y="0" width="180" height="180">
<path d="M180 0H0V180H180V0Z" fill="white"/>
</mask>
<g mask="url(#mask3_1391_342)">
<path d="M-185.267 80.4833C-185.267 80.4833 -184.7 78.2 -183.433 74.1667C-182.167 70.0833 -180.133 64.1833 -177.1 56.8667C-174.05 49.55 -169.967 40.8 -164.317 31.2833C-158.65 21.8 -151.417 11.45 -141.617 1.83334C-131.95 -7.81665 -119.317 -16.55 -104.233 -21.3666C-96.7167 -23.8 -88.6333 -25.15 -80.3667 -25.25C-72.25 -25.4167 -64.3333 -26.0166 -57.0167 -29.45C-53.3167 -30.9833 -50.0833 -33.45 -47.0167 -36.1C-44.1667 -39 -41.4833 -42.1833 -39.3833 -45.8167C-35.0167 -52.9833 -32 -61.15 -29.3833 -69.5C-24.1 -86.15 -20.3 -104.05 -11.1 -119.933C-6.5 -127.817 -0.200012 -134.833 7.51665 -139.75C15.2166 -144.717 24.0667 -147.45 32.8833 -148.717C41.7667 -150.117 50.6 -149.5 59.15 -149.983C67.7 -150.383 76.2 -151.267 84.2333 -153.417C92.2333 -155.55 99.7333 -159.117 105.717 -164.383C111.633 -169.717 116.05 -176.317 119.6 -183.083C126.683 -196.667 132.15 -210.233 138.55 -222.067C150.917 -246.017 164.983 -263.7 175.217 -275.517C180.417 -281.383 184.6 -285.9 187.583 -288.867C190.517 -291.867 192.083 -293.467 192.083 -293.467C192.083 -293.467 190.533 -291.85 187.633 -288.817C184.683 -285.817 180.55 -281.267 175.417 -275.35C165.3 -263.433 151.417 -245.65 139.333 -221.65C133.067 -209.783 127.767 -196.233 120.767 -182.467C117.233 -175.617 112.8 -168.8 106.75 -163.217C100.617 -157.717 92.8667 -153.95 84.7 -151.7C76.5167 -149.417 67.9333 -148.45 59.25 -147.95C50.5667 -147.383 41.8167 -147.883 33.25 -146.45C24.6833 -145.133 16.2166 -142.4 8.94998 -137.6C1.61665 -132.867 -4.31668 -126.167 -8.66667 -118.533C-17.4 -103.133 -21.05 -85.4333 -26.1833 -68.5333C-28.75 -60.0666 -31.75 -51.65 -36.3 -43.9833C-38.5 -40.1 -41.35 -36.6333 -44.4333 -33.4333C-47.75 -30.4833 -51.3333 -27.7167 -55.3667 -25.9667L-58.35 -24.6L-61.5 -23.6667C-63.55 -22.9333 -65.6833 -22.5333 -67.85 -22.2167C-70.0167 -21.7667 -72.1 -21.5667 -74.1167 -21.5167L-80.2667 -21.2C-88.1667 -21.0333 -95.8167 -19.6833 -102.917 -17.3C-117.167 -12.6 -129.083 -4.19998 -138.283 5.16669C-147.583 14.4833 -154.5 24.5667 -159.917 33.8333C-165.333 43.1333 -169.233 51.7167 -172.133 58.8834C-175.017 66.05 -176.933 71.8333 -178.133 75.7833C-179.333 79.7667 -179.817 81.8333 -179.817 81.8333L-185.267 80.4833Z" fill="#B7A6D0"/>
</g>
<mask id="mask4_1391_342" style="mask-type:luminance" maskUnits="userSpaceOnUse" x="0" y="0" width="180" height="180">
<path d="M180 0H0V180H180V0Z" fill="white"/>
</mask>
<g mask="url(#mask4_1391_342)">
<path d="M-175.35 90.4C-175.35 90.4 -174.783 88.1166 -173.517 84.0667C-172.25 80 -170.217 74.1 -167.167 66.7667C-164.133 59.45 -160.05 50.7 -154.383 41.1833C-148.717 31.7 -141.483 21.35 -131.683 11.7333C-122.017 2.08334 -109.383 -6.66666 -94.3 -11.4667C-86.7833 -13.9 -78.7 -15.25 -70.4333 -15.35C-62.3167 -15.5167 -54.3834 -16.1167 -47.0834 -19.5333C-43.3833 -21.0833 -40.15 -23.5333 -37.0834 -26.2C-34.2334 -29.1 -31.55 -32.2667 -29.4333 -35.9C-25.0667 -43.0833 -22.05 -51.2333 -19.4333 -59.5833C-14.1667 -76.2667 -10.3667 -94.1667 -1.18335 -110.033C3.41666 -117.9 10.5833 -117.433 18.2833 -122.35C25.9833 -127.3 33.9833 -137.533 42.8 -138.783C51.6833 -140.183 60.5166 -139.567 69.0667 -140.067C77.6166 -140.45 86.1333 -141.333 94.15 -143.483C102.15 -145.617 109.667 -149.183 115.633 -154.45C121.533 -159.783 125.967 -166.383 129.533 -173.15C136.617 -186.75 142.083 -200.317 148.483 -212.15C160.833 -236.1 174.917 -253.783 185.15 -265.6C190.35 -271.467 194.533 -275.983 197.5 -278.95C200.433 -281.95 202 -283.55 202 -283.55C202 -283.55 200.45 -281.933 197.55 -278.9C194.6 -275.917 190.467 -271.35 185.333 -265.433C175.233 -253.533 161.333 -235.75 149.267 -211.733C143 -199.867 137.7 -186.317 130.683 -172.533C127.167 -165.683 122.717 -158.883 116.667 -153.3C110.533 -147.783 102.783 -144.033 94.6166 -141.767C86.4167 -139.5 77.8333 -138.533 69.15 -138.033C60.4666 -137.467 51.7 -137.983 43.1333 -136.533C34.5666 -135.217 26.1 -132.483 18.8333 -127.683C11.5333 -122.933 5.59998 -116.25 1.24998 -108.617C-7.48335 -93.2333 -11.1333 -75.5167 -16.2667 -58.6333C-18.8333 -50.1667 -21.8334 -41.7333 -26.3667 -34.0833C-28.5667 -30.2167 -31.4167 -26.7333 -34.5167 -23.55C-37.8333 -20.5833 -41.4 -17.85 -45.45 -16.0833L-48.45 -14.7L-51.5834 -13.7667C-53.6167 -13.0333 -55.7667 -12.6333 -57.9167 -12.3167C-60.1 -11.8667 -62.1667 -11.6667 -64.1833 -11.6167L-70.3167 -11.3C-78.2167 -11.1333 -85.8667 -9.78333 -92.9834 -7.39999C-107.233 -2.68332 -119.167 5.71667 -128.367 15.0833C-137.683 24.4167 -144.583 34.5 -150 43.75C-155.417 53.05 -159.317 61.6333 -162.2 68.8C-165.1 75.9833 -167.017 81.75 -168.217 85.7C-169.417 89.6833 -169.917 91.75 -169.917 91.75L-175.35 90.4Z" fill="#B7A6D0"/>
</g>
<mask id="mask5_1391_342" style="mask-type:luminance" maskUnits="userSpaceOnUse" x="0" y="0" width="180" height="180">
<path d="M180 0H0V180H180V0Z" fill="white"/>
</mask>
<g mask="url(#mask5_1391_342)">
<path d="M-165.433 100.3C-165.433 100.3 -164.867 98.0167 -163.583 93.9833C-162.317 89.9167 -160.283 84.0167 -157.25 76.6833C-154.2 69.3667 -150.133 60.6 -144.467 51.0833C-138.783 41.6 -131.567 31.25 -121.767 21.6333C-112.117 11.9833 -99.4834 3.25 -84.3834 -1.56668C-76.8834 -4 -68.7834 -5.35001 -60.5167 -5.45001C-52.4167 -5.63333 -44.4834 -6.21667 -37.1834 -9.65002C-33.4834 -11.1833 -30.25 -13.65 -27.1834 -16.3167C-24.3334 -19.2167 -21.65 -22.3833 -19.5334 -26.0167C-15.1667 -33.2 -12.15 -41.35 -9.53337 -49.7C-4.25003 -66.35 -0.450027 -84.25 8.73331 -100.133C13.3333 -107.983 19.65 -115 27.3666 -119.917C35.0666 -124.883 43.9166 -127.633 52.7333 -128.883C61.6 -130.283 70.45 -129.667 78.9833 -130.15C87.5333 -130.55 96.05 -131.417 104.067 -133.583C112.067 -135.717 119.583 -139.283 125.55 -144.55C131.467 -149.883 135.883 -156.483 139.45 -163.25C146.55 -176.85 152 -190.4 158.4 -202.25C170.767 -226.2 184.85 -243.883 195.083 -255.683C200.283 -261.55 204.45 -266.067 207.433 -269.033C210.367 -272.033 211.933 -273.633 211.933 -273.633C211.933 -273.633 210.383 -272.033 207.483 -269C204.533 -266.017 200.4 -261.433 195.267 -255.533C185.167 -243.617 171.283 -225.85 159.2 -201.833C152.933 -189.967 147.633 -176.4 140.617 -162.633C137.1 -155.783 132.65 -148.983 126.6 -143.383C120.467 -137.883 112.717 -134.117 104.567 -131.867C96.3666 -129.583 87.8 -128.617 79.1 -128.117C70.4333 -127.55 61.6666 -128.067 53.1 -126.6C44.5333 -125.283 36.0666 -122.567 28.7833 -117.767C21.4666 -113.033 15.5166 -106.333 11.1666 -98.7C2.4333 -83.3 -1.21671 -65.6 -6.3667 -48.7167C-8.93336 -40.2333 -11.9334 -31.8167 -16.4667 -24.1667C-18.6667 -20.3 -21.5167 -16.8167 -24.6167 -13.6334C-27.9334 -10.6667 -31.5 -7.91669 -35.55 -6.16669L-38.55 -4.78333L-41.6667 -3.83334C-43.7167 -3.11667 -45.85 -2.70001 -48.0167 -2.38336C-50.1834 -1.93335 -52.2667 -1.73334 -54.2834 -1.68335L-60.4167 -1.36667C-68.3167 -1.20001 -75.9834 0.166656 -83.0667 2.54999C-97.3167 7.23334 -109.25 15.6333 -118.45 25C-127.75 34.3167 -134.667 44.4 -140.083 53.6833C-145.5 62.9833 -149.383 71.55 -152.283 78.7167C-155.183 85.9 -157.1 91.6667 -158.3 95.6166C-159.5 99.6 -159.983 101.65 -159.983 101.65L-165.433 100.3Z" fill="#B7A6D0"/>
</g>
<mask id="mask6_1391_342" style="mask-type:luminance" maskUnits="userSpaceOnUse" x="0" y="0" width="180" height="180">
<path d="M180 0H0V180H180V0Z" fill="white"/>
</mask>
<g mask="url(#mask6_1391_342)">
<path d="M-154 108.55C-154 108.55 -153.433 106.267 -152.15 102.233C-150.883 98.1667 -148.85 92.2667 -145.817 84.9333C-142.767 77.6167 -138.7 68.8666 -133.033 59.35C-127.35 49.8667 -120.117 39.5167 -110.333 29.9C-100.667 20.25 -88.0333 11.5167 -72.95 6.69998C-65.4333 4.26666 -57.35 2.91666 -49.0667 2.81665C-40.9667 2.64999 -33.0333 2.04999 -25.7334 -1.36667C-22.0333 -2.91666 -18.8167 -5.38336 -15.7334 -8.05002C-12.8833 -10.95 -10.2 -14.1167 -8.08334 -17.75C-3.73334 -24.9333 -0.716675 -33.0833 1.91666 -41.4333C7.16666 -58.1 10.9833 -76 20.1667 -91.8667C24.75 -99.7333 31.0833 -106.733 38.8 -111.667C46.5 -116.633 55.35 -119.367 64.1667 -120.617C73.0333 -122.017 81.8833 -121.4 90.4333 -121.9C98.9833 -122.3 107.483 -123.167 115.5 -125.333C123.5 -127.467 131.017 -131.033 137 -136.3C142.917 -141.633 147.317 -148.233 150.9 -155C157.983 -168.6 163.45 -182.15 169.833 -193.983C182.2 -217.933 196.283 -235.617 206.517 -247.433C211.717 -253.3 215.9 -257.817 218.867 -260.783C221.8 -263.8 223.367 -265.383 223.367 -265.383C223.367 -265.383 221.817 -263.767 218.917 -260.733C215.967 -257.75 211.833 -253.183 206.7 -247.267C196.6 -235.35 182.717 -217.567 170.633 -193.567C164.367 -181.683 159.067 -168.133 152.05 -154.367C148.533 -147.517 144.083 -140.717 138.033 -135.133C131.9 -129.617 124.15 -125.867 115.983 -123.6C107.75 -121.333 99.1833 -120.367 90.5 -119.883C81.8167 -119.3 73.05 -119.833 64.5 -118.367C55.9333 -117.05 47.4666 -114.317 40.1833 -109.517C32.8833 -104.75 26.95 -98.0667 22.6 -90.45C13.8667 -75.05 10.2333 -57.35 5.08333 -40.45C2.48332 -32 -0.516678 -23.5667 -5.05 -15.9C-7.23334 -12.05 -10.1 -8.56665 -13.1833 -5.36667C-16.5 -2.41666 -20.0833 0.333313 -24.1167 2.08331L-27.1167 3.46667L-30.2333 4.43332C-32.2833 5.14999 -34.4167 5.56668 -36.5833 5.88333C-38.75 6.33334 -40.8333 6.53333 -42.85 6.58331L-48.9833 6.89999C-56.8667 7.06665 -64.5333 8.43335 -71.6333 10.8C-85.9 15.5 -97.8333 23.8833 -107.017 33.25C-116.333 42.5667 -123.233 52.65 -128.667 61.9167C-134.067 71.2166 -137.967 79.8 -140.867 86.95C-143.767 94.1333 -145.683 99.9 -146.883 103.85C-148.083 107.833 -148.567 109.9 -148.567 109.9L-154 108.55Z" fill="#B7A6D0"/>
</g>
<mask id="mask7_1391_342" style="mask-type:luminance" maskUnits="userSpaceOnUse" x="0" y="0" width="180" height="180">
<path d="M180 0H0V180H180V0Z" fill="white"/>
</mask>
<g mask="url(#mask7_1391_342)">
<path d="M-145.6 120.15C-145.6 120.15 -145.033 117.867 -143.75 113.833C-142.483 109.75 -140.45 103.867 -137.417 96.5334C-134.367 89.2167 -130.3 80.45 -124.633 70.9334C-118.967 61.45 -111.733 51.1001 -101.933 41.4834C-92.2666 31.8167 -79.6333 23.0834 -64.55 18.2834C-57.0333 15.8334 -48.9333 14.4834 -40.6666 14.4001C-32.55 14.2334 -24.6333 13.6334 -17.3167 10.2167C-13.6333 8.66672 -10.4 6.20007 -7.33331 3.55005C-4.48331 0.633392 -1.79997 -2.53328 0.300018 -6.18327C4.65002 -13.3499 7.66669 -21.5166 10.3 -29.8666C15.5834 -46.5166 19.4 -64.4166 28.5834 -80.2833C33.1834 -88.15 39.5 -95.1666 47.2167 -100.083C54.9167 -105.05 63.7667 -107.783 72.5834 -109.05C81.4667 -110.45 90.3 -109.833 98.85 -110.333C107.4 -110.717 115.9 -111.6 123.933 -113.767C131.933 -115.9 139.45 -119.467 145.433 -124.717C151.333 -130.05 155.75 -136.667 159.317 -143.433C166.4 -157.017 171.867 -170.583 178.25 -182.417C190.617 -206.367 204.7 -224.05 214.933 -235.867C220.133 -241.733 224.317 -246.25 227.283 -249.217C230.217 -252.217 231.783 -253.817 231.783 -253.817C231.783 -253.817 230.25 -252.2 227.333 -249.167C224.383 -246.183 220.25 -241.617 215.117 -235.7C205 -223.783 191.133 -206 179.033 -182C172.783 -170.133 167.467 -156.567 160.467 -142.8C156.95 -135.95 152.5 -129.15 146.45 -123.55C140.317 -118.05 132.567 -114.283 124.4 -112.033C116.2 -109.75 107.633 -108.783 98.95 -108.283C90.2667 -107.717 81.5167 -108.233 72.95 -106.783C64.3834 -105.467 55.9167 -102.733 48.6333 -97.9333C41.3333 -93.1666 35.4 -86.4833 31.05 -78.8666C22.3167 -63.4666 18.6834 -45.75 13.5334 -28.8666C10.9 -20.3999 7.91669 -11.9833 3.3667 -4.31662C1.18336 -0.449951 -1.6833 3.01672 -4.76663 6.21674C-8.09998 9.18338 -11.6666 11.9334 -15.7166 13.6834L-18.7166 15.05L-21.8333 16.0001C-23.8666 16.7167 -26.0166 17.1334 -28.1833 17.45C-30.35 17.9001 -32.4333 18.1001 -34.45 18.1334L-40.6 18.45C-48.4833 18.6167 -56.15 19.9834 -63.25 22.3667C-77.5166 27.0667 -89.4333 35.4667 -98.6333 44.8334C-107.95 54.1501 -114.85 64.2334 -120.267 73.5001C-125.667 82.8 -129.567 91.3834 -132.467 98.55C-135.35 105.717 -137.283 111.5 -138.467 115.45C-139.667 119.433 -140.167 121.5 -140.167 121.5L-145.6 120.15Z" fill="#B7A6D0"/>
</g>
<mask id="mask8_1391_342" style="mask-type:luminance" maskUnits="userSpaceOnUse" x="0" y="0" width="180" height="180">
<path d="M180 0H0V180H180V0Z" fill="white"/>
</mask>
<g mask="url(#mask8_1391_342)">
<path d="M-135.683 130.067C-135.683 130.067 -135.117 127.783 -133.833 123.733C-132.567 119.65 -130.533 113.75 -127.5 106.433C-124.45 99.1167 -120.367 90.35 -114.717 80.8333C-109.05 71.35 -101.8 61.0167 -92.0167 51.3834C-82.35 41.7334 -69.7167 32.9833 -54.6333 28.1833C-47.1167 25.75 -39.0167 24.4 -30.75 24.3C-22.6333 24.1334 -14.7167 23.55 -7.40001 20.1167C-3.7 18.5833 -0.46666 16.1167 2.58333 13.45C5.43333 10.55 8.11667 7.38335 10.2167 3.75002C14.5667 -3.43332 17.6 -11.5833 20.2167 -19.9333C25.4833 -36.6 29.3 -54.4833 38.5 -70.3667C43.0833 -78.2333 49.4 -85.25 57.1167 -90.1667C64.8167 -95.1333 73.6667 -97.8667 82.4833 -99.1333C91.3667 -100.533 100.2 -99.9167 108.75 -100.4C117.3 -100.8 125.8 -101.683 133.817 -103.833C141.817 -105.967 149.333 -109.533 155.317 -114.8C161.217 -120.133 165.65 -126.733 169.2 -133.5C176.283 -147.1 181.75 -160.65 188.133 -172.483C200.5 -196.433 214.583 -214.117 224.817 -225.933C230.017 -231.8 234.2 -236.317 237.183 -239.283C240.1 -242.283 241.667 -243.883 241.667 -243.883C241.667 -243.883 240.133 -242.267 237.217 -239.233C234.267 -236.233 230.133 -231.683 225 -225.767C214.883 -213.85 201.017 -196.067 188.933 -172.067C182.667 -160.2 177.367 -146.633 170.367 -132.867C166.833 -126.017 162.4 -119.217 156.35 -113.617C150.217 -108.117 142.467 -104.35 134.3 -102.1C126.117 -99.8167 117.533 -98.85 108.85 -98.35C100.167 -97.7833 91.4167 -98.3 82.85 -96.85C74.2833 -95.5333 65.8167 -92.8 58.5333 -88C51.2333 -83.2333 45.3167 -76.5333 40.95 -68.9167C32.2333 -53.5167 28.5833 -35.8167 23.4333 -18.9167C20.8167 -10.4833 17.8167 -2.05 13.2833 5.60001C11.0833 9.46667 8.23334 12.95 5.15001 16.15C1.83334 19.1 -1.75 21.8667 -5.78334 23.6L-8.76666 24.9833L-11.9 25.9333C-13.9333 26.6667 -16.0833 27.0667 -18.2333 27.3834C-20.4 27.8333 -22.4833 28.0334 -24.5 28.0833L-30.6333 28.4C-38.5333 28.5667 -46.1833 29.9167 -53.2833 32.3C-67.5333 37 -79.4667 45.4 -88.65 54.7667C-97.95 64.0833 -104.867 74.1667 -110.3 83.4333C-115.7 92.7333 -119.6 101.317 -122.5 108.483C-125.383 115.667 -127.3 121.433 -128.5 125.383C-129.7 129.367 -130.183 131.433 -130.183 131.433L-135.683 130.067Z" fill="#B7A6D0"/>
</g>
<mask id="mask9_1391_342" style="mask-type:luminance" maskUnits="userSpaceOnUse" x="0" y="0" width="180" height="180">
<path d="M180 0H0V180H180V0Z" fill="white"/>
</mask>
<g mask="url(#mask9_1391_342)">
<path d="M-125.75 139.983C-125.75 139.983 -125.183 137.7 -123.917 133.667C-122.65 129.583 -120.617 123.7 -117.567 116.367C-114.533 109.05 -110.45 100.3 -104.783 90.7833C-99.1167 81.3 -91.8833 70.95 -82.0833 61.3333C-72.4167 51.6833 -59.7833 42.95 -44.7 38.1333C-37.1833 35.7 -29.1 34.3333 -20.8333 34.25C-12.7167 34.0833 -4.80001 33.4833 2.51665 30.0666C6.21666 28.5166 9.44998 26.0666 12.5166 23.4C15.3667 20.5 18.05 17.3166 20.15 13.6833C24.5167 6.51663 27.5333 -1.65004 30.1667 -9.98337C35.4333 -26.65 39.25 -44.55 48.4333 -60.4167C53.0333 -68.2834 59.35 -75.3 67.0667 -80.2167C74.7667 -85.1667 83.6167 -87.9167 92.4333 -89.1834C101.317 -90.5834 110.15 -89.9667 118.7 -90.45C127.25 -90.85 135.75 -91.7334 143.767 -93.8834C151.767 -96.0167 159.283 -99.5834 165.25 -104.85C171.15 -110.183 175.583 -116.783 179.133 -123.55C186.217 -137.133 191.683 -150.7 198.083 -162.533C210.45 -186.483 224.533 -204.167 234.767 -215.983C239.967 -221.85 244.133 -226.367 247.117 -229.333C250.05 -232.333 251.617 -233.933 251.617 -233.933C251.617 -233.933 250.067 -232.317 247.167 -229.283C244.217 -226.283 240.083 -221.733 234.95 -215.817C224.833 -203.9 210.95 -186.117 198.883 -162.117C192.617 -150.25 187.317 -136.7 180.3 -122.933C176.783 -116.083 172.333 -109.267 166.283 -103.683C160.15 -98.1834 152.4 -94.4167 144.233 -92.1667C136.05 -89.8834 127.467 -88.9167 118.783 -88.4167C110.117 -87.8334 101.35 -88.35 92.7833 -86.9C84.2166 -85.5834 75.75 -82.85 68.4833 -78.05C61.1333 -73.3334 55.2 -66.65 50.8333 -59.0334C42.1 -43.6334 38.45 -25.9334 33.3167 -9.03336C30.75 -0.550018 27.75 7.86662 23.2 15.5166C21 19.4 18.15 22.8666 15.0667 26.0666C11.75 29.0166 8.16666 31.7833 4.13332 33.5333L1.13332 34.9L-2.00001 35.8499C-4.03334 36.5833 -6.18333 36.9833 -8.35001 37.3C-10.5167 37.75 -12.6 37.95 -14.6167 38L-20.75 38.3166C-28.65 38.4833 -36.3 39.8333 -43.4167 42.2166C-57.6667 46.9166 -69.6 55.3166 -78.7833 64.6833C-88.1 74 -95 84.1 -100.417 93.3666C-105.833 102.667 -109.733 111.25 -112.633 118.417C-115.517 125.583 -117.433 131.367 -118.633 135.317C-119.833 139.3 -120.317 141.367 -120.317 141.367L-125.75 139.983Z" fill="#B7A6D0"/>
</g>
<mask id="mask10_1391_342" style="mask-type:luminance" maskUnits="userSpaceOnUse" x="0" y="0" width="180" height="180">
<path d="M180 0H0V180H180V0Z" fill="white"/>
</mask>
<g mask="url(#mask10_1391_342)">
<path d="M-115.833 149.9C-115.833 149.9 -115.267 147.617 -114 143.583C-112.733 139.517 -110.7 133.617 -107.65 126.283C-104.6 118.967 -100.533 110.2 -94.8667 100.683C-89.2 91.2 -81.9667 80.85 -72.1667 71.2334C-62.5167 61.5834 -49.8833 52.8333 -34.7833 48.0334C-27.2833 45.6 -19.1833 44.25 -10.9167 44.15C-2.81668 43.9834 5.11665 43.3834 12.4166 39.9667C16.1167 38.4167 19.35 35.9667 22.4166 33.3C25.2666 30.4 27.95 27.2334 30.0667 23.6C34.4333 16.4167 37.45 8.26668 40.0667 -0.083313C45.35 -16.75 49.15 -34.6333 58.3333 -50.5166C62.9333 -58.3833 69.25 -65.3833 76.9667 -70.3167C84.6667 -75.2833 93.5 -78.0333 102.333 -79.2833C111.2 -80.6833 120.033 -80.0667 128.583 -80.55C137.133 -80.95 145.65 -81.8333 153.667 -83.9833C161.667 -86.1167 169.183 -89.6833 175.15 -94.95C181.067 -100.283 185.483 -106.883 189.05 -113.65C196.133 -127.233 201.6 -140.8 208 -152.65C220.367 -176.6 234.433 -194.283 244.667 -206.1C249.867 -211.967 254.033 -216.483 257.017 -219.45C259.95 -222.45 261.517 -224.05 261.517 -224.05C261.517 -224.05 259.967 -222.433 257.05 -219.4C254.1 -216.417 249.967 -211.85 244.833 -205.933C234.733 -194.033 220.833 -176.25 208.767 -152.233C202.5 -140.367 197.2 -126.8 190.183 -113.033C186.667 -106.183 182.217 -99.3667 176.167 -93.8C170.033 -88.2833 162.283 -84.5333 154.117 -82.2667C145.933 -80 137.35 -79.0167 128.667 -78.5333C119.983 -77.9667 111.217 -78.4833 102.65 -77.0333C94.0833 -75.7167 85.6166 -72.9833 78.35 -68.1833C71.0666 -63.4167 65.1166 -56.7333 60.7666 -49.1C52.0333 -33.7166 48.3833 -16.0166 43.2333 0.883362C40.6667 9.35002 37.6666 17.7833 33.1333 25.4333C30.9333 29.3 28.0833 32.7834 24.9833 35.9667C21.6833 38.9333 18.1 41.6667 14.05 43.4333L11.05 44.8167L7.93331 45.75C5.88331 46.4834 3.73331 46.8834 1.58331 47.2167C-0.600014 47.6667 -2.66668 47.8667 -4.68335 47.9167L-10.8167 48.2334C-18.7167 48.4 -26.3667 49.75 -33.4833 52.15C-47.7333 56.85 -59.6667 65.25 -68.85 74.6167C-78.1667 83.9333 -85.0667 94.0167 -90.4833 103.283C-95.9 112.583 -99.7833 121.167 -102.683 128.333C-105.583 135.517 -107.5 141.283 -108.7 145.233C-109.9 149.2 -110.4 151.267 -110.4 151.267L-115.833 149.9Z" fill="#B7A6D0"/>
</g>
<mask id="mask11_1391_342" style="mask-type:luminance" maskUnits="userSpaceOnUse" x="0" y="0" width="180" height="180">
<path d="M180 0H0V180H180V0Z" fill="white"/>
</mask>
<g mask="url(#mask11_1391_342)">
<path d="M-105.9 159.817C-105.9 159.817 -105.333 157.533 -104.067 153.5C-102.8 149.433 -100.767 143.533 -97.7333 136.2C-94.6833 128.883 -90.6167 120.117 -84.95 110.6C-79.2667 101.117 -72.05 90.7666 -62.25 81.15C-52.5833 71.5 -39.9667 62.7666 -24.8667 57.95C-17.3667 55.5166 -9.26665 54.1666 -0.999985 54.0666C7.10001 53.9 15.05 53.3 22.3333 49.8666C26.0333 48.3333 29.2667 45.8666 32.3333 43.2C35.1833 40.3 37.8667 37.1333 39.9667 33.4833C44.3333 26.3 47.35 18.15 49.9667 9.79997C55.25 -6.85002 59.05 -24.75 68.2334 -40.6334C72.8334 -48.5 79.15 -55.5 86.8667 -60.4334C94.5667 -65.4 103.417 -68.1334 112.233 -69.4C121.1 -70.8 129.95 -70.1834 138.483 -70.6667C147.033 -71.0667 155.55 -71.9334 163.567 -74.1C171.567 -76.2334 179.083 -79.8 185.067 -85.0667C190.983 -90.4 195.4 -97 198.967 -103.767C206.05 -117.367 211.517 -130.917 217.9 -142.75C230.267 -166.7 244.35 -184.383 254.583 -196.2C259.783 -202.067 263.967 -206.583 266.933 -209.55C269.867 -212.55 271.433 -214.15 271.433 -214.15C271.433 -214.15 269.883 -212.533 266.983 -209.5C264.033 -206.517 259.9 -201.95 254.767 -196.033C244.667 -184.117 230.783 -166.333 218.7 -142.333C212.433 -130.467 207.133 -116.9 200.117 -103.133C196.6 -96.2834 192.167 -89.4834 186.1 -83.9C179.983 -78.4 172.217 -74.6334 164.067 -72.3834C155.867 -70.1 147.3 -69.1334 138.6 -68.6334C129.933 -68.0667 121.167 -68.5834 112.6 -67.1167C104.033 -65.8 95.5667 -63.0834 88.3 -58.2667C81 -53.5167 75.0667 -46.8167 70.7167 -39.2C61.9833 -23.8 58.3333 -6.10002 53.1833 10.8C50.6167 19.2666 47.6167 27.6833 43.0833 35.35C40.8833 39.2166 38.0334 42.7 34.95 45.8833C31.6333 48.8499 28.0667 51.5999 24.0167 53.3499L21.0167 54.7333L17.9 55.6833C15.85 56.4 13.7167 56.8166 11.55 57.1333C9.38335 57.5833 7.30002 57.7833 5.28335 57.8333L-0.849983 58.15C-8.74998 58.3166 -16.4 59.6666 -23.5 62.05C-37.75 66.7499 -49.6833 75.15 -58.8833 84.5166C-68.1833 93.8333 -75.1 103.917 -80.5167 113.2C-85.9333 122.5 -89.8167 131.067 -92.7167 138.233C-95.6167 145.417 -97.55 151.183 -98.7333 155.133C-99.9333 159.117 -100.433 161.183 -100.433 161.183L-105.9 159.817Z" fill="#B7A6D0"/>
</g>
<mask id="mask12_1391_342" style="mask-type:luminance" maskUnits="userSpaceOnUse" x="0" y="0" width="180" height="180">
<path d="M180 0H0V180H180V0Z" fill="white"/>
</mask>
<g mask="url(#mask12_1391_342)">
<path d="M-96 169.75C-96 169.75 -95.4333 167.467 -94.15 163.417C-92.8833 159.333 -90.85 153.45 -87.8167 146.117C-84.7667 138.8 -80.7 130.05 -75.0333 120.533C-69.35 111.05 -62.1167 100.7 -52.3333 91.0833C-42.6667 81.4166 -30.0333 72.6833 -14.95 67.8666C-7.43334 65.4333 0.649986 64.0833 8.93333 63.9833C17.0333 63.8166 24.9667 63.2166 32.2666 59.8C35.9667 58.25 39.2 55.7833 42.2666 53.1166C45.1167 50.2166 47.8 47.05 49.9167 43.4166C54.2667 36.2333 57.2833 28.0833 59.9167 19.7333C65.1667 3.0833 69 -14.8167 78.1833 -30.6834C82.7666 -38.55 89.1 -45.5667 96.8167 -50.4834C104.517 -55.4334 113.367 -58.1834 122.183 -59.4334C131.05 -60.8334 139.9 -60.2167 148.45 -60.7167C157 -61.1 165.5 -61.9834 173.517 -64.15C181.517 -66.2834 189.033 -69.85 195 -75.1C200.917 -80.4334 205.317 -87.05 208.9 -93.8167C215.983 -107.4 221.45 -120.967 227.833 -132.8C240.2 -156.75 254.283 -174.433 264.517 -186.25C269.717 -192.117 273.9 -196.65 276.867 -199.6C279.8 -202.617 281.367 -204.2 281.367 -204.2C281.367 -204.2 279.817 -202.583 276.917 -199.55C273.983 -196.567 269.833 -192 264.7 -186.083C254.6 -174.167 240.717 -156.383 228.633 -132.383C222.367 -120.517 217.067 -106.967 210.05 -93.1834C206.533 -86.3334 202.083 -79.5334 196.033 -73.95C189.9 -68.45 182.15 -64.6834 173.983 -62.4167C165.783 -60.1334 157.217 -59.1667 148.533 -58.6834C139.85 -58.1167 131.1 -58.6334 122.533 -57.1834C113.967 -55.8667 105.5 -53.1334 98.2167 -48.3334C90.9167 -43.5667 84.9833 -36.8834 80.6333 -29.2667C71.9 -13.8667 68.2667 3.8333 63.1167 20.7333C60.5 29.1833 57.5 37.6166 52.9667 45.2833C50.7833 49.15 47.9167 52.6166 44.8333 55.8166C41.5167 58.7833 37.95 61.5166 33.9 63.2666L30.9167 64.65L27.7833 65.6166C25.75 66.3333 23.6 66.75 21.4333 67.0666C19.2667 67.5166 17.1833 67.7166 15.1667 67.7666L9.01665 68.0833C1.13332 68.25 -6.55 69.6166 -13.6333 71.9833C-27.9 76.7 -39.8167 85.0833 -49.0167 94.45C-58.3333 103.767 -65.2333 113.85 -70.6667 123.133C-76.0667 132.433 -79.9667 141.017 -82.8667 148.183C-85.7667 155.35 -87.6833 161.133 -88.8833 165.083C-90.0833 169.067 -90.5667 171.133 -90.5667 171.133L-96 169.75Z" fill="#B7A6D0"/>
</g>
<mask id="mask13_1391_342" style="mask-type:luminance" maskUnits="userSpaceOnUse" x="0" y="0" width="180" height="180">
<path d="M180 0H0V180H180V0Z" fill="white"/>
</mask>
<g mask="url(#mask13_1391_342)">
<path d="M-86.0833 179.667C-86.0833 179.667 -85.5166 177.383 -84.2333 173.35C-82.9666 169.283 -80.9333 163.383 -77.9 156.05C-74.85 148.733 -70.7833 139.967 -65.1166 130.45C-59.45 120.967 -52.2166 110.617 -42.4166 101C-32.75 91.3333 -20.1167 82.6 -5.03332 77.8C2.48335 75.3667 10.5833 74.0167 18.85 73.9167C26.9667 73.75 34.8833 73.1667 42.2 69.7333C45.8833 68.2 49.1333 65.7333 52.2 63.0667C55.05 60.1667 57.7334 57 59.8333 53.35C64.1833 46.1833 67.2 38.0166 69.8333 29.6667C75.0833 13 78.9167 -4.88335 88.1 -20.7667C92.6833 -28.6333 99 -35.65 106.717 -40.5667C114.417 -45.5333 123.267 -48.2667 132.083 -49.5333C140.967 -50.9333 149.8 -50.3167 158.35 -50.8167C166.9 -51.2 175.383 -52.0833 183.417 -54.25C191.417 -56.3833 198.933 -59.95 204.917 -65.2C210.817 -70.5333 215.233 -77.15 218.8 -83.9C225.883 -97.5 231.35 -111.05 237.733 -122.883C250.1 -146.833 264.183 -164.517 274.417 -176.333C279.617 -182.2 283.8 -186.733 286.767 -189.683C289.7 -192.683 291.267 -194.283 291.267 -194.283C291.267 -194.283 289.733 -192.667 286.817 -189.633C283.867 -186.65 279.733 -182.083 274.6 -176.183C264.483 -164.267 250.617 -146.483 238.517 -122.483C232.267 -110.617 226.95 -97.05 219.95 -83.2833C216.433 -76.4333 211.983 -69.6167 205.933 -64.0333C199.8 -58.5333 192.05 -54.7667 183.883 -52.5167C175.7 -50.2333 167.117 -49.2667 158.433 -48.7667C149.75 -48.2 141 -48.7167 132.433 -47.2667C123.867 -45.95 115.4 -43.2167 108.117 -38.4167C100.817 -33.65 94.9 -26.95 90.5333 -19.35C81.8 -3.95001 78.1667 13.7667 73.0167 30.65C70.4333 39.1167 67.4333 47.55 62.8833 55.2C60.7 59.0667 57.8333 62.55 54.75 65.7333C51.4333 68.7 47.85 71.45 43.8167 73.2L40.8167 74.5667L37.6833 75.5333C35.65 76.2666 33.5 76.6667 31.3333 76.9833C29.1667 77.4333 27.0834 77.6333 25.0667 77.6833L18.9167 78C11.0333 78.1667 3.36668 79.5333 -3.73331 81.9167C-18 86.6166 -29.9167 95.0167 -39.1 104.383C-48.4 113.7 -55.3166 123.783 -60.75 133.05C-66.15 142.35 -70.05 150.933 -72.95 158.1C-75.8333 165.267 -77.7666 171.05 -78.95 175C-80.15 178.983 -80.6333 181.05 -80.6333 181.05L-86.0833 179.667Z" fill="#B7A6D0"/>
</g>
<mask id="mask14_1391_342" style="mask-type:luminance" maskUnits="userSpaceOnUse" x="0" y="0" width="180" height="180">
<path d="M180 0H0V180H180V0Z" fill="white"/>
</mask>
<g mask="url(#mask14_1391_342)">
<path d="M-76.1667 189.583C-76.1667 189.583 -75.6 187.3 -74.3167 183.25C-73.05 179.167 -71.0167 173.283 -67.9834 165.95C-64.9334 158.633 -60.85 149.883 -55.2 140.367C-49.5334 130.883 -42.2834 120.533 -32.5 110.917C-22.8334 101.267 -10.2 92.5167 4.88331 87.7166C12.4 85.2833 20.5 83.9333 28.7666 83.8333C36.8833 83.6667 44.8 83.0667 52.1166 79.65C55.8166 78.1 59.05 75.6333 62.1 72.9833C64.95 70.0833 67.6333 66.9 69.7333 63.2667C74.1 56.0833 77.1166 47.9333 79.75 39.5833C85.0166 22.9167 88.8333 5.03334 98.0166 -10.8333C102.617 -18.7 108.917 -25.7167 116.633 -30.6333C124.333 -35.6 133.183 -38.3333 142 -39.6C150.883 -41 159.717 -40.3833 168.267 -40.8667C176.817 -41.2667 185.317 -42.15 193.35 -44.3C201.35 -46.4333 208.85 -50 214.833 -55.2666C220.733 -60.6 225.167 -67.2 228.717 -73.9667C235.8 -87.5667 241.267 -101.117 247.667 -112.95C260.033 -136.9 274.1 -154.583 284.333 -166.4C289.533 -172.267 293.717 -176.783 296.7 -179.75C299.633 -182.75 301.183 -184.35 301.183 -184.35C301.183 -184.35 299.65 -182.733 296.733 -179.7C293.783 -176.7 289.65 -172.15 284.517 -166.233C274.4 -154.317 260.517 -136.533 248.433 -112.533C242.167 -100.65 236.867 -87.1 229.867 -73.3333C226.333 -66.4833 221.9 -59.6833 215.85 -54.0833C209.717 -48.5833 201.967 -44.8167 193.8 -42.5667C185.617 -40.2833 177.033 -39.3167 168.35 -38.8167C159.667 -38.2333 150.917 -38.7666 142.35 -37.3C133.783 -35.9833 125.317 -33.25 118.033 -28.4667C110.733 -23.7 104.817 -17 100.45 -9.38333C91.7333 6.01666 88.0833 23.7167 82.9333 40.6167C80.3333 49.0333 77.3333 57.4667 72.8 65.1167C70.6 69 67.75 72.4667 64.6666 75.6667C61.35 78.6167 57.7666 81.3834 53.7333 83.1167L50.75 84.5L47.6166 85.45C45.5833 86.1833 43.4333 86.5833 41.2833 86.9C39.1166 87.35 37.0333 87.55 35.0166 87.6L28.8833 87.9167C20.9833 88.0833 13.3333 89.4333 6.23331 91.8167C-8.01669 96.5167 -19.95 104.917 -29.1334 114.283C-38.4334 123.6 -45.35 133.683 -50.7667 142.95C-56.1834 152.25 -60.0834 160.833 -62.9834 168C-65.8667 175.183 -67.7834 180.95 -68.9834 184.9C-70.1834 188.883 -70.6667 190.95 -70.6667 190.95L-76.1667 189.583Z" fill="#B7A6D0"/>
</g>
<mask id="mask15_1391_342" style="mask-type:luminance" maskUnits="userSpaceOnUse" x="0" y="0" width="180" height="180">
<path d="M180 0H0V180H180V0Z" fill="white"/>
</mask>
<g mask="url(#mask15_1391_342)">
<path d="M-66.2333 199.5C-66.2333 199.5 -65.6667 197.217 -64.4 193.183C-63.1333 189.1 -61.1 183.217 -58.05 175.883C-55.0167 168.567 -50.9333 159.8 -45.2667 150.283C-39.6 140.8 -32.3667 130.45 -22.5667 120.833C-12.9 111.183 -0.266678 102.45 14.8167 97.6333C22.3333 95.2 30.4167 93.8333 38.6833 93.75C46.8 93.5833 54.7167 92.9833 62.0333 89.5666C65.7333 88.0166 68.9666 85.5666 72.0333 82.9C74.8833 80 77.5667 76.8333 79.6667 73.1833C84.0333 66.0166 87.05 57.85 89.6833 49.5166C94.95 32.85 98.7666 14.95 107.95 -0.916702C112.55 -8.78337 118.867 -15.8 126.583 -20.7167C134.283 -25.6834 143.133 -28.4334 151.95 -29.6834C160.833 -31.0834 169.667 -30.4667 178.217 -30.95C186.767 -31.3667 195.283 -32.2334 203.3 -34.3834C211.3 -36.5167 218.817 -40.0834 224.783 -45.35C230.683 -50.6834 235.117 -57.2834 238.667 -64.05C245.767 -77.6334 251.217 -91.2 257.617 -103.033C270 -126.983 284.067 -144.667 294.3 -156.483C299.5 -162.35 303.667 -166.867 306.65 -169.833C309.583 -172.85 311.15 -174.433 311.15 -174.433C311.15 -174.433 309.6 -172.817 306.7 -169.783C303.75 -166.783 299.617 -162.233 294.483 -156.317C284.367 -144.4 270.483 -126.617 258.417 -102.617C252.15 -90.75 246.85 -77.1834 239.833 -63.4334C236.317 -56.5834 231.867 -49.7667 225.817 -44.1834C219.683 -38.6667 211.933 -34.9167 203.767 -32.6667C195.567 -30.3834 186.983 -29.4167 178.3 -28.9167C169.633 -28.3334 160.867 -28.85 152.3 -27.4C143.733 -26.0834 135.267 -23.35 128 -18.55C120.65 -13.8167 114.717 -7.13336 110.35 0.483307C101.617 15.8833 97.9667 33.5833 92.8333 50.4833C90.2667 58.95 87.2666 67.3666 82.7333 75.0333C80.5333 78.9 77.6833 82.3666 74.5833 85.5666C71.2667 88.5166 67.7 91.2833 63.65 93.0333L60.65 94.4L57.5333 95.3499C55.4833 96.0833 53.3333 96.4833 51.1833 96.8C49 97.2499 46.9333 97.45 44.9167 97.5L38.7833 97.8166C30.8833 97.9833 23.2333 99.3333 16.1167 101.717C1.86665 106.45 -10.05 114.833 -19.25 124.2C-28.5667 133.517 -35.4667 143.6 -40.8833 152.867C-46.3 162.167 -50.2 170.75 -53.1 177.917C-55.9833 185.083 -57.9 190.867 -59.1 194.817C-60.3 198.8 -60.7833 200.867 -60.7833 200.867L-66.2333 199.5Z" fill="#B7A6D0"/>
</g>
<mask id="mask16_1391_342" style="mask-type:luminance" maskUnits="userSpaceOnUse" x="0" y="0" width="180" height="180">
<path d="M180 0H0V180H180V0Z" fill="white"/>
</mask>
<g mask="url(#mask16_1391_342)">
<path d="M-56.3 209.417C-56.3 209.417 -55.7333 207.133 -54.4667 203.1C-53.2 199.033 -51.1667 193.133 -48.1333 185.8C-45.0833 178.483 -41.0167 169.717 -35.35 160.2C-29.6833 150.717 -22.45 140.367 -12.65 130.75C-2.99999 121.117 9.63335 112.367 24.7333 107.55C32.2333 105.117 40.3334 103.767 48.6 103.667C56.7 103.5 64.6334 102.9 71.9333 99.4833C75.6333 97.9333 78.8667 95.4833 81.9333 92.8167C84.7834 89.9167 87.4667 86.75 89.5833 83.1167C93.95 75.9333 96.9667 67.7833 99.5833 59.4333C104.867 42.7666 108.667 24.8833 117.85 8.99998C122.45 1.13332 128.767 -5.86667 136.483 -10.8C144.183 -15.7667 153.033 -18.5 161.85 -19.7667C170.717 -21.1667 179.567 -20.55 188.1 -21.0333C196.65 -21.4333 205.167 -22.3167 213.183 -24.4667C221.183 -26.6 228.7 -30.1667 234.667 -35.4333C240.583 -40.7667 245 -47.3667 248.567 -54.1333C255.65 -67.7333 261.117 -81.2833 267.517 -93.1167C279.883 -117.067 293.95 -134.75 304.183 -146.567C309.383 -152.433 313.567 -156.95 316.533 -159.917C319.467 -162.917 321.033 -164.517 321.033 -164.517C321.033 -164.517 319.483 -162.9 316.567 -159.867C313.617 -156.883 309.5 -152.3 304.35 -146.4C294.25 -134.5 280.35 -116.7 268.283 -92.7C262.017 -80.8333 256.717 -67.2667 249.7 -53.5C246.183 -46.65 241.733 -39.8333 235.683 -34.25C229.55 -28.75 221.8 -24.9834 213.633 -22.7334C205.433 -20.45 196.867 -19.4833 188.183 -19C179.5 -18.4333 170.733 -18.95 162.167 -17.5C153.617 -16.1833 145.133 -13.4667 137.867 -8.66667C130.567 -3.90001 124.633 2.78333 120.283 10.4167C111.55 25.8 107.9 43.5167 102.75 60.4C100.183 68.8667 97.1833 77.3 92.65 84.95C90.45 88.8167 87.6 92.3 84.5 95.4833C81.2 98.45 77.6167 101.2 73.5833 102.95L70.5833 104.333L67.4667 105.267C65.4167 106 63.2833 106.4 61.1167 106.733C58.95 107.183 56.8667 107.383 54.85 107.433L48.7167 107.75C40.8167 107.917 33.1667 109.267 26.05 111.65C11.8 116.367 -0.13332 124.75 -9.33332 134.117C-18.6333 143.433 -25.55 153.517 -30.9667 162.783C-36.3833 172.083 -40.2833 180.667 -43.1667 187.833C-46.0667 195.017 -47.9833 200.783 -49.1667 204.733C-50.3667 208.717 -50.8667 210.783 -50.8667 210.783L-56.3 209.417Z" fill="#B7A6D0"/>
</g>
<mask id="mask17_1391_342" style="mask-type:luminance" maskUnits="userSpaceOnUse" x="0" y="0" width="180" height="180">
<path d="M180 0H0V180H180V0Z" fill="white"/>
</mask>
<g mask="url(#mask17_1391_342)">
<path d="M-46.4 219.35C-46.4 219.35 -45.8333 217.067 -44.5667 213.017C-43.3 208.95 -41.2667 203.05 -38.2333 195.717C-35.1833 188.4 -31.1167 179.633 -25.45 170.117C-19.7667 160.633 -12.55 150.283 -2.75 140.667C6.91667 131.017 19.5333 122.283 34.6333 117.467C42.15 115.033 50.2333 113.683 58.5 113.583C66.6167 113.417 74.55 112.817 81.85 109.383C85.55 107.85 88.7667 105.383 91.85 102.717C94.7 99.8166 97.3833 96.65 99.5 93.0166C103.85 85.8333 106.867 77.6833 109.5 69.3333C114.783 52.6833 118.583 34.7833 127.767 18.8999C132.367 11.0333 138.683 4.03329 146.4 -0.90004C154.1 -5.85004 162.95 -8.60004 171.767 -9.86671C180.633 -11.2667 189.483 -10.65 198.017 -11.1334C206.583 -11.5334 215.083 -12.4 223.1 -14.5667C231.1 -16.7 238.617 -20.2667 244.6 -25.5167C250.517 -30.8667 254.917 -37.4667 258.5 -44.2334C265.583 -57.8167 271.05 -71.3834 277.433 -83.2167C289.8 -107.167 303.883 -124.85 314.117 -136.667C319.317 -142.533 323.5 -147.067 326.467 -150.017C329.4 -153.017 330.967 -154.617 330.967 -154.617C330.967 -154.617 329.417 -153 326.517 -149.967C323.567 -146.967 319.433 -142.417 314.3 -136.5C304.2 -124.583 290.317 -106.8 278.233 -82.8C271.967 -70.9334 266.667 -57.3834 259.65 -43.6C256.133 -36.75 251.683 -29.95 245.633 -24.3667C239.517 -18.8667 231.75 -15.1 223.6 -12.85C215.4 -10.5667 206.833 -9.60004 198.15 -9.10004C189.467 -8.53337 180.7 -9.05003 172.133 -7.58337C163.567 -6.26671 155.1 -3.55005 147.833 1.26662C140.5 5.99995 134.55 12.7 130.2 20.3333C121.467 35.7333 117.833 53.4333 112.667 70.3333C110.1 78.7999 107.1 87.2166 102.567 94.8833C100.367 98.7666 97.5167 102.233 94.4333 105.433C91.1167 108.383 87.55 111.15 83.5 112.883L80.5 114.267L77.3833 115.217C75.3333 115.95 73.2 116.35 71.0333 116.667C68.8667 117.117 66.7833 117.317 64.7667 117.367L58.6333 117.683C50.75 117.85 43.0833 119.2 35.9833 121.583C21.7167 126.267 9.78334 134.667 0.583336 144.033C-8.71666 153.35 -15.6333 163.433 -21.05 172.717C-26.45 182.017 -30.35 190.6 -33.25 197.767C-36.15 204.933 -38.0667 210.717 -39.2667 214.667C-40.4667 218.65 -40.9667 220.717 -40.9667 220.717L-46.4 219.35Z" fill="#B7A6D0"/>
</g>
<mask id="mask18_1391_342" style="mask-type:luminance" maskUnits="userSpaceOnUse" x="0" y="0" width="180" height="180">
<path d="M180 0H0V180H180V0Z" fill="white"/>
</mask>
<g mask="url(#mask18_1391_342)">
<path d="M-36.4833 229.267C-36.4833 229.267 -35.9167 226.983 -34.6333 222.933C-33.3667 218.867 -31.3333 212.967 -28.3 205.633C-25.25 198.317 -21.1667 189.567 -15.5167 180.05C-9.83334 170.567 -2.60001 160.217 7.18333 150.6C16.85 140.933 29.4833 132.2 44.5667 127.383C52.0833 124.95 60.1833 123.6 68.45 123.5C76.55 123.333 84.4833 122.733 91.7833 119.317C95.4833 117.767 98.7166 115.3 101.783 112.633C104.633 109.733 107.317 106.567 109.433 102.933C113.783 95.75 116.8 87.6 119.433 79.25C124.717 62.6 128.533 44.7 137.717 28.8167C142.3 20.95 148.633 13.9333 156.35 9.01669C164.05 4.06668 172.9 1.3167 181.717 0.0666962C190.6 -1.33331 199.433 -0.716644 207.983 -1.21664C216.533 -1.59998 225.033 -2.48332 233.067 -4.64998C241.067 -6.78331 248.583 -10.35 254.55 -15.6C260.467 -20.9333 264.883 -27.55 268.45 -34.3C275.533 -47.9 281 -61.4667 287.383 -73.3C299.75 -97.25 313.833 -114.933 324.067 -126.75C329.267 -132.617 333.45 -137.15 336.417 -140.1C339.35 -143.117 340.917 -144.7 340.917 -144.7C340.917 -144.7 339.367 -143.083 336.467 -140.05C333.517 -137.067 329.383 -132.5 324.233 -126.583C314.133 -114.667 300.267 -96.8833 288.167 -72.8833C281.9 -61.0166 276.6 -47.4667 269.6 -33.6833C266.083 -26.8333 261.633 -20.0333 255.583 -14.45C249.45 -8.93332 241.7 -5.18332 233.533 -2.91664C225.283 -0.633316 216.717 0.333359 208.033 0.833359C199.35 1.40002 190.6 0.883362 182.033 2.33336C173.467 3.65002 165 6.38335 157.717 11.1833C150.417 15.95 144.483 22.6333 140.133 30.25C131.4 45.65 127.767 63.35 122.617 80.25C120.05 88.7167 117.033 97.15 112.5 104.8C110.317 108.667 107.45 112.133 104.367 115.333C101.05 118.3 97.4833 121.033 93.4333 122.8L90.45 124.167L87.3167 125.133C85.2833 125.85 83.1333 126.267 80.9666 126.583C78.8 127.033 76.7167 127.233 74.7 127.283L68.55 127.6C60.6666 127.767 52.9833 129.133 45.9 131.517C31.6333 136.217 19.7167 144.6 10.5167 153.967C1.19999 163.283 -5.70001 173.367 -11.1333 182.65C-16.5333 191.95 -20.4167 200.533 -23.3333 207.7C-26.2167 214.867 -28.15 220.65 -29.35 224.6C-30.55 228.583 -31.0333 230.65 -31.0333 230.65L-36.4833 229.267Z" fill="#B7A6D0"/>
</g>
<mask id="mask19_1391_342" style="mask-type:luminance" maskUnits="userSpaceOnUse" x="0" y="0" width="180" height="180">
<path d="M180 0H0V180H180V0Z" fill="white"/>
</mask>
<g mask="url(#mask19_1391_342)">
<path d="M-26.5667 239.183C-26.5667 239.183 -26 236.9 -24.7167 232.867C-23.45 228.8 -21.4167 222.9 -18.3833 215.567C-15.3333 208.25 -11.2667 199.483 -5.59999 189.967C0.0666809 180.483 7.31668 170.133 17.1 160.517C26.7667 150.867 39.4 142.117 54.4833 137.317C62 134.883 70.1 133.533 78.3667 133.433C86.4833 133.25 94.4 132.667 101.717 129.233C105.4 127.7 108.633 125.233 111.717 122.567C114.567 119.667 117.25 116.5 119.35 112.867C123.717 105.683 126.717 97.5333 129.35 89.1833C134.617 72.5333 138.433 54.6333 147.633 38.7667C152.217 30.9 158.533 23.8833 166.25 18.9667C173.95 14 182.8 11.2667 191.617 10C200.5 8.60001 209.333 9.21666 217.883 8.71666C226.433 8.33333 234.933 7.45 242.95 5.3C250.95 3.16667 258.467 -0.399994 264.45 -5.66667C270.35 -11 274.783 -17.6 278.333 -24.3667C285.417 -37.9667 290.883 -51.5167 297.267 -63.35C309.633 -87.3 323.717 -104.983 333.95 -116.8C339.15 -122.667 343.333 -127.183 346.3 -130.15C349.233 -133.15 350.8 -134.75 350.8 -134.75C350.8 -134.75 349.267 -133.133 346.35 -130.1C343.4 -127.117 339.267 -122.55 334.133 -116.633C324.017 -104.717 310.15 -86.9333 298.067 -62.9333C291.8 -51.0667 286.5 -37.5 279.483 -23.7333C275.967 -16.8833 271.517 -10.0667 265.467 -4.48334C259.333 1.01666 251.583 4.78334 243.417 7.03334C235.233 9.31667 226.65 10.2833 217.967 10.7833C209.283 11.35 200.533 10.8333 191.967 12.3C183.4 13.6 174.933 16.3333 167.65 21.1333C160.333 25.85 154.4 32.55 150.033 40.1667C141.317 55.5667 137.667 73.2667 132.517 90.1667C129.933 98.6333 126.933 107.067 122.383 114.717C120.2 118.583 117.333 122.067 114.25 125.25C110.917 128.217 107.35 130.967 103.3 132.717L100.3 134.083L97.1833 135.05C95.15 135.783 93 136.183 90.8333 136.5C88.6667 136.95 86.6 137.15 84.5667 137.2L78.4333 137.517C70.5333 137.683 62.8833 139.05 55.7833 141.433C41.5167 146.133 29.6 154.533 20.4167 163.9C11.1167 173.217 4.20001 183.3 -1.23332 192.567C-6.63332 201.867 -10.5333 210.45 -13.4333 217.617C-16.3167 224.8 -18.25 230.567 -19.4333 234.517C-20.6333 238.5 -21.1167 240.567 -21.1167 240.567L-26.5667 239.183Z" fill="#B7A6D0"/>
</g>
<mask id="mask20_1391_342" style="mask-type:luminance" maskUnits="userSpaceOnUse" x="0" y="0" width="180" height="180">
<path d="M180 0H0V180H180V0Z" fill="white"/>
</mask>
<g mask="url(#mask20_1391_342)">
<path d="M-16.65 249.1C-16.65 249.1 -16.0833 246.817 -14.8 242.767C-13.5333 238.683 -11.5 232.8 -8.44999 225.467C-5.41666 218.167 -1.33333 209.4 4.33334 199.883C10 190.4 17.2333 180.05 27.0167 170.433C36.6833 160.783 49.3167 152.05 64.4 147.233C71.9167 144.8 80 143.45 88.2667 143.35C96.3833 143.183 104.3 142.583 111.617 139.167C115.317 137.617 118.55 135.15 121.6 132.5C124.45 129.6 127.133 126.417 129.233 122.783C133.6 115.6 136.617 107.45 139.25 99.1C144.533 82.45 148.333 64.55 157.533 48.6667C162.133 40.8167 168.433 33.7833 176.15 28.8667C183.85 23.9 192.7 21.1667 201.517 19.9167C210.4 18.5167 219.233 19.1333 227.783 18.6333C236.333 18.2333 244.833 17.3667 252.867 15.2C260.867 13.0667 268.367 9.5 274.35 4.23334C280.25 -1.1 284.683 -7.7 288.233 -14.4667C295.317 -28.0667 300.783 -41.6167 307.183 -53.45C319.55 -77.4 333.617 -95.0833 343.867 -106.9C349.067 -112.767 353.233 -117.283 356.217 -120.25C359.15 -123.25 360.717 -124.85 360.717 -124.85C360.717 -124.85 359.167 -123.233 356.267 -120.2C353.317 -117.2 349.183 -112.65 344.05 -106.733C333.933 -94.8167 320.05 -77.0333 307.967 -53.0333C301.7 -41.15 296.4 -27.6 289.4 -13.8333C285.867 -6.98334 281.433 -0.183334 275.383 5.41666C269.25 10.9167 261.5 14.6833 253.333 16.9333C245.15 19.2167 236.567 20.1833 227.883 20.6833C219.2 21.2667 210.45 20.7333 201.883 22.2C193.317 23.5167 184.85 26.25 177.567 31.0333C170.283 35.8 164.35 42.5 159.983 50.1167C151.267 65.5167 147.617 83.2167 142.467 100.117C139.9 108.583 136.9 117 132.35 124.667C130.15 128.55 127.3 132.017 124.217 135.217C120.9 138.167 117.317 140.933 113.283 142.667L110.3 144.05L107.167 145C105.133 145.733 102.983 146.133 100.817 146.45C98.65 146.9 96.5667 147.1 94.55 147.15L88.4 147.467C80.5 147.633 72.85 148.983 65.75 151.367C51.5 156.083 39.5667 164.467 30.3833 173.833C21.0833 183.15 14.1667 193.233 8.75 202.5C3.3 211.767 -0.583328 220.35 -3.49999 227.5C-6.38333 234.683 -8.29999 240.45 -9.49999 244.4C-10.7 248.383 -11.1833 250.45 -11.1833 250.45L-16.65 249.1Z" fill="#B7A6D0"/>
</g>
<mask id="mask21_1391_342" style="mask-type:luminance" maskUnits="userSpaceOnUse" x="0" y="0" width="180" height="180">
<path d="M180 0H0V180H180V0Z" fill="white"/>
</mask>
<g mask="url(#mask21_1391_342)">
<path d="M-6.71667 259.017C-6.71667 259.017 -6.15001 256.733 -4.88334 252.7C-3.61667 248.617 -1.58334 242.733 1.46666 235.4C4.49999 228.083 8.58332 219.317 14.25 209.8C19.9167 200.317 27.15 189.967 36.9333 180.35C46.6 170.7 59.2333 161.967 74.3333 157.15C81.8333 154.717 89.9333 153.367 98.2 153.267C106.317 153.1 114.25 152.5 121.55 149.083C125.25 147.533 128.483 145.083 131.55 142.417C134.4 139.517 137.083 136.35 139.183 132.7C143.55 125.533 146.567 117.367 149.2 109.033C154.467 92.3667 158.283 74.4667 167.467 58.6C172.067 50.7333 178.383 43.7167 186.1 38.8C193.8 33.8333 202.65 31.1 211.467 29.8333C220.35 28.4333 229.183 29.05 237.733 28.5667C246.283 28.15 254.8 27.2833 262.817 25.1333C270.817 23 278.333 19.4333 284.3 14.1667C290.2 8.83334 294.633 2.23334 298.183 -4.53333C305.283 -18.1167 310.733 -31.6833 317.133 -43.5167C329.517 -67.4667 343.583 -85.15 353.817 -96.9667C359.017 -102.833 363.2 -107.35 366.167 -110.317C369.1 -113.317 370.667 -114.917 370.667 -114.917C370.667 -114.917 369.117 -113.3 366.217 -110.267C363.267 -107.267 359.15 -102.717 354 -96.8C343.883 -84.8833 330 -67.1 317.933 -43.1C311.667 -31.2333 306.367 -17.6667 299.35 -3.91666C295.833 2.93334 291.383 9.75001 285.333 15.3333C279.2 20.8333 271.45 24.6 263.283 26.85C255.083 29.1333 246.517 30.1 237.817 30.5833C229.15 31.1667 220.383 30.65 211.817 32.1C203.25 33.4167 194.783 36.15 187.517 40.95C180.217 45.7167 174.283 52.4 169.933 60.0167C161.2 75.4167 157.55 93.1167 152.417 110.017C149.85 118.483 146.85 126.9 142.317 134.567C140.117 138.433 137.267 141.9 134.167 145.1C130.85 148.067 127.283 150.817 123.233 152.567L120.25 153.933L117.133 154.883C115.083 155.617 112.95 156.017 110.783 156.35C108.617 156.783 106.533 157 104.517 157.033L98.3833 157.35C90.4833 157.517 82.8333 158.867 75.7167 161.267C61.4667 165.967 49.5333 174.367 40.35 183.733C31.0333 193.05 24.1333 203.133 18.7167 212.4C13.3 221.7 9.39999 230.283 6.51666 237.45C3.61666 244.617 1.69999 250.4 0.499991 254.35C-0.700008 258.333 -1.18334 260.4 -1.18334 260.4L-6.71667 259.017Z" fill="#B7A6D0"/>
</g>
<mask id="mask22_1391_342" style="mask-type:luminance" maskUnits="userSpaceOnUse" x="0" y="0" width="180" height="180">
<path d="M180 0H0V180H180V0Z" fill="white"/>
</mask>
<g mask="url(#mask22_1391_342)">
<path d="M3.2 268.95C3.2 268.95 3.76666 266.667 5.03333 262.617C6.3 258.55 8.33333 252.65 11.3667 245.317C14.4167 238 18.4833 229.233 24.15 219.717C29.8333 210.233 37.05 199.883 46.85 190.267C56.5 180.617 69.1333 171.867 84.2333 167.067C91.7333 164.633 99.8333 163.283 108.1 163.183C116.2 163.017 124.15 162.417 131.433 159C135.133 157.45 138.367 155 141.433 152.333C144.283 149.433 146.967 146.267 149.083 142.633C153.45 135.45 156.467 127.3 159.083 118.95C164.367 102.283 168.167 84.4 177.35 68.5166C181.95 60.65 188.267 53.65 195.983 48.7167C203.683 43.75 212.533 41.0167 221.35 39.75C230.217 38.35 239.067 38.9667 247.6 38.4833C256.15 38.0833 264.667 37.2 272.683 35.05C280.683 32.9167 288.2 29.35 294.167 24.0833C300.083 18.75 304.5 12.15 308.067 5.38332C315.15 -8.21667 320.617 -21.7667 327 -33.6C339.367 -57.55 353.433 -75.2333 363.683 -87.05C368.883 -92.9167 373.067 -97.4333 376.033 -100.4C378.967 -103.4 380.533 -105 380.533 -105C380.533 -105 378.983 -103.383 376.083 -100.35C373.133 -97.35 369 -92.8 363.867 -86.8833C353.767 -74.9833 339.867 -57.1833 327.8 -33.1833C321.533 -21.3333 316.233 -7.78334 309.217 5.99999C305.7 12.85 301.267 19.6667 295.2 25.25C289.067 30.75 281.317 34.5166 273.15 36.7666C264.95 39.05 256.383 40.0166 247.7 40.5166C239.033 41.0833 230.267 40.5667 221.7 42.0166C213.133 43.3333 204.667 46.0667 197.4 50.8667C190.1 55.6333 184.167 62.3167 179.817 69.95C171.083 85.35 167.433 103.05 162.283 119.95C159.717 128.417 156.717 136.833 152.183 144.5C149.983 148.367 147.133 151.85 144.033 155.05C140.733 158 137.15 160.767 133.117 162.5L130.117 163.883L127 164.833C124.95 165.567 122.817 165.967 120.65 166.283C118.483 166.733 116.4 166.933 114.383 166.983L108.25 167.3C100.35 167.467 92.7 168.817 85.6 171.2C71.35 175.9 59.4167 184.3 50.2167 193.667C40.9167 202.983 34 213.067 28.5833 222.333C23.1833 231.633 19.2833 240.217 16.3833 247.383C13.5 254.567 11.5667 260.333 10.3833 264.283C9.18333 268.267 8.68333 270.333 8.68333 270.333L3.2 268.95Z" fill="#B7A6D0"/>
</g>
<mask id="mask23_1391_342" style="mask-type:luminance" maskUnits="userSpaceOnUse" x="0" y="0" width="180" height="180">
<path d="M180 0H0V180H180V0Z" fill="white"/>
</mask>
<g mask="url(#mask23_1391_342)">
<path d="M13.1167 278.867C13.1167 278.867 13.6833 276.583 14.95 272.533C16.2167 268.467 18.25 262.567 21.2833 255.233C24.3333 247.917 28.4 239.15 34.0667 229.633C39.75 220.15 46.9667 209.8 56.7667 200.183C66.4333 190.533 79.0667 181.8 94.15 176.983C101.667 174.55 109.75 173.2 118.033 173.1C126.133 172.933 134.067 172.333 141.367 168.9C145.067 167.367 148.283 164.9 151.367 162.233C154.217 159.333 156.9 156.183 159.017 152.533C163.367 145.35 166.383 137.2 169.017 128.85C174.3 112.2 178.1 94.3 187.3 78.4167C191.883 70.55 198.217 63.5334 205.933 58.6167C213.633 53.6667 222.483 50.9167 231.3 49.65C240.167 48.25 249.017 48.8667 257.567 48.3833C266.117 47.9834 274.617 47.1167 282.633 44.95C290.633 42.8167 298.15 39.25 304.133 34C310.05 28.6667 314.467 22.05 318.033 15.2834C325.117 1.70002 330.583 -11.8667 336.967 -23.7C349.333 -47.65 363.417 -65.3333 373.65 -77.15C378.85 -83.0167 383.033 -87.5333 386 -90.5C388.933 -93.5 390.5 -95.1 390.5 -95.1C390.5 -95.1 388.95 -93.4833 386.05 -90.45C383.1 -87.45 378.967 -82.9 373.833 -76.9833C363.733 -65.0667 349.85 -47.2833 337.767 -23.2833C331.5 -11.4167 326.2 2.13335 319.183 15.9167C315.667 22.7667 311.217 29.5667 305.167 35.15C299.033 40.65 291.283 44.4167 283.117 46.6667C274.917 48.95 266.35 49.9167 257.667 50.4167C248.983 50.9834 240.217 50.4834 231.65 51.9333C223.083 53.25 214.617 55.9834 207.35 60.7834C200.05 65.5334 194.117 72.2334 189.767 79.85C181.033 95.25 177.4 112.95 172.25 129.85C169.683 138.317 166.667 146.733 162.133 154.4C159.933 158.283 157.083 161.75 154 164.95C150.683 167.9 147.117 170.667 143.067 172.417L140.067 173.783L136.95 174.733C134.9 175.467 132.767 175.867 130.6 176.183C128.433 176.633 126.35 176.833 124.333 176.883L118.2 177.2C110.317 177.367 102.633 178.717 95.55 181.1C81.3 185.8 69.3667 194.2 60.1833 203.567C50.8833 212.883 43.9667 222.967 38.5333 232.25C33.1333 241.55 29.2333 250.133 26.3333 257.3C23.4333 264.467 21.5167 270.25 20.3167 274.2C19.1167 278.183 18.6167 280.25 18.6167 280.25L13.1167 278.867Z" fill="#B7A6D0"/>
</g>
<mask id="mask24_1391_342" style="mask-type:luminance" maskUnits="userSpaceOnUse" x="0" y="0" width="180" height="180">
<path d="M180 0H0V180H180V0Z" fill="white"/>
</mask>
<g mask="url(#mask24_1391_342)">
<path d="M23.0333 288.783C23.0333 288.783 23.6 286.5 24.8833 282.45C26.15 278.383 28.1833 272.483 31.2167 265.15C34.2667 257.833 38.35 249.083 44 239.567C49.6833 230.083 56.9 219.733 66.7 210.117C76.3667 200.467 89 191.717 104.083 186.9C111.6 184.467 119.7 183.117 127.967 183.033C136.067 182.85 144 182.267 151.3 178.833C155 177.283 158.233 174.833 161.3 172.167C164.15 169.267 166.833 166.1 168.933 162.467C173.283 155.283 176.3 147.133 178.933 138.783C184.217 122.133 188.033 104.233 197.217 88.3667C201.817 80.5 208.133 73.4834 215.85 68.5667C223.55 63.6167 232.4 60.8667 241.217 59.6167C250.1 58.2167 258.933 58.8334 267.483 58.3334C276.033 57.95 284.55 57.0667 292.567 54.9167C300.567 52.7834 308.083 49.2 314.067 43.95C319.967 38.6167 324.383 32.0167 327.95 25.25C335.033 11.65 340.5 -1.91665 346.883 -13.75C359.25 -37.7 373.333 -55.3833 383.567 -67.2C388.767 -73.0667 392.95 -77.6 395.917 -80.55C398.85 -83.5667 400.417 -85.15 400.417 -85.15C400.417 -85.15 398.867 -83.5333 395.967 -80.5C393.017 -77.5 388.883 -72.95 383.75 -67.0333C373.633 -55.1333 359.75 -37.3333 347.667 -13.3333C341.417 -1.46665 336.1 12.0834 329.1 25.8667C325.583 32.7167 321.133 39.5167 315.083 45.1C308.95 50.6 301.2 54.3667 293.033 56.6333C284.833 58.9167 276.267 59.8833 267.583 60.3833C258.9 60.95 250.15 60.4333 241.583 61.8833C233.017 63.2 224.55 65.9333 217.267 70.7334C209.967 75.5 204.033 82.1834 199.683 89.8167C190.95 105.2 187.317 122.917 182.167 139.8C179.6 148.267 176.583 156.7 172.05 164.35C169.867 168.217 167 171.683 163.917 174.883C160.6 177.85 157.017 180.583 152.983 182.35L149.983 183.717L146.85 184.683C144.817 185.4 142.667 185.817 140.5 186.133C138.333 186.583 136.25 186.783 134.233 186.833L128.083 187.15C120.2 187.317 112.517 188.683 105.433 191.067C91.1666 195.767 79.25 204.167 70.05 213.517C60.7333 222.85 53.8333 232.933 48.4167 242.2C43 251.5 39.1167 260.083 36.2167 267.25C33.3333 274.433 31.4 280.2 30.2167 284.15C29.0167 288.133 28.5333 290.2 28.5333 290.2L23.0333 288.783Z" fill="#B7A6D0"/>
</g>
<mask id="mask25_1391_342" style="mask-type:luminance" maskUnits="userSpaceOnUse" x="0" y="0" width="180" height="180">
<path d="M180 0H0V180H180V0Z" fill="white"/>
</mask>
<g mask="url(#mask25_1391_342)">
<path d="M32.95 298.7C32.95 298.7 33.5167 296.417 34.8 292.383C36.0667 288.317 38.1 282.417 41.1333 275.083C44.1833 267.767 48.25 259 53.9167 249.483C59.5833 240 66.8333 229.65 76.6167 220.033C86.2833 210.383 98.9167 201.633 114 196.833C121.517 194.4 129.617 193.05 137.883 192.95C146 192.767 153.917 192.183 161.233 188.75C164.933 187.217 168.167 184.75 171.217 182.083C174.067 179.183 176.75 176.017 178.85 172.367C183.217 165.183 186.217 157.033 188.85 148.683C194.117 132.017 197.933 114.133 207.133 98.25C211.717 90.3833 218.033 83.3667 225.75 78.45C233.45 73.4833 242.3 70.75 251.117 69.4833C260 68.0833 268.833 68.7 277.383 68.2167C285.933 67.8167 294.433 66.95 302.467 64.7833C310.467 62.65 317.967 59.0833 323.95 53.8167C329.85 48.4833 334.283 41.8833 337.833 35.1167C344.917 21.5167 350.383 7.96667 356.767 -3.86667C369.133 -27.8167 383.217 -45.5 393.45 -57.3167C398.65 -63.1833 402.833 -67.7 405.817 -70.6667C408.733 -73.6667 410.3 -75.2667 410.3 -75.2667C410.3 -75.2667 408.767 -73.65 405.85 -70.6167C402.9 -67.6333 398.767 -63.0667 393.633 -57.15C383.517 -45.2333 369.65 -27.4667 357.55 -3.45C351.3 8.41666 346 21.9833 338.983 35.75C335.45 42.6 331.017 49.4167 324.967 55C318.833 60.5 311.083 64.2667 302.917 66.5167C294.733 68.8 286.15 69.7667 277.467 70.2667C268.783 70.8333 260.033 70.3167 251.467 71.7833C242.9 73.0833 234.433 75.8167 227.15 80.6167C219.85 85.3833 213.933 92.0833 209.567 99.7C200.85 115.1 197.2 132.8 192.05 149.683C189.467 158.15 186.467 166.583 181.917 174.233C179.733 178.1 176.883 181.583 173.783 184.767C170.45 187.733 166.883 190.483 162.833 192.233L159.85 193.617L156.717 194.567C154.683 195.3 152.533 195.7 150.367 196.017C148.183 196.467 146.117 196.667 144.1 196.717L137.95 197.033C130.05 197.2 122.4 198.567 115.3 200.95C101.033 205.65 89.1167 214.05 79.9333 223.417C70.6333 232.733 63.7167 242.817 58.2833 252.083C52.8833 261.383 48.9833 269.967 46.0833 277.133C43.2 284.317 41.2833 290.083 40.0833 294.033C38.8833 298 38.4 300.067 38.4 300.067L32.95 298.7Z" fill="#B7A6D0"/>
</g>
</g>
<defs>
<clipPath id="clip0_1391_342">
<rect width="180" height="180" fill="white"/>
</clipPath>
</defs>
</svg>
