<svg width="200" height="200" viewBox="0 0 200 200" fill="none" xmlns="http://www.w3.org/2000/svg">
<g id="logo_in-1 1">
<g id="Group">
<path id="Vector" d="M100.151 92.0016C100.21 91.9725 100.297 91.9579 100.399 91.9579C100.501 91.9579 100.604 92.0016 100.677 92.0892C100.75 92.1767 100.793 92.2643 100.793 92.381C100.793 92.5853 100.706 92.7166 100.545 92.8042C100.195 92.9938 99.8303 93.1543 99.4363 93.2857C99.0424 93.417 98.5754 93.4754 98.021 93.4754C97.4811 93.4754 96.9704 93.3878 96.5035 93.2127C96.0366 93.0376 95.628 92.775 95.2778 92.4248C94.5483 91.7098 94.1835 90.7468 94.1835 89.5357C94.1835 88.3246 94.5483 87.3616 95.2778 86.6466C95.9928 85.9463 96.912 85.5961 98.0356 85.5961C98.5754 85.5961 99.0424 85.669 99.4363 85.8003C99.8303 85.9317 100.137 86.0484 100.341 86.1651C100.545 86.2819 100.677 86.3694 100.72 86.4424C100.764 86.5153 100.793 86.6029 100.793 86.705C100.793 86.8071 100.75 86.9093 100.677 86.9968C100.604 87.0844 100.501 87.1282 100.399 87.1282C100.297 87.1282 100.21 87.1136 100.151 87.0844C99.8595 86.9239 99.5531 86.8071 99.2466 86.705C98.9402 86.6175 98.5608 86.5591 98.0939 86.5591C97.6416 86.5591 97.2185 86.632 96.8537 86.7926C96.4889 86.9531 96.1679 87.1573 95.9198 87.4346C95.4237 87.9744 95.1757 88.6748 95.1757 89.5649C95.1757 90.4404 95.4237 91.1553 95.9198 91.6952C96.4597 92.2789 97.1893 92.5707 98.1377 92.5707C98.5754 92.5707 98.9402 92.5269 99.2466 92.4248C99.5531 92.2789 99.8595 92.1475 100.151 92.0016Z" fill="#808184"/>
<path id="Vector_2" d="M103.303 92.1038C103.624 92.3956 104.062 92.5415 104.616 92.5415C105.185 92.5415 105.652 92.4394 106.032 92.2497C106.163 92.1767 106.28 92.1476 106.367 92.1476C106.455 92.1476 106.557 92.1913 106.644 92.2643C106.732 92.3518 106.776 92.4394 106.776 92.5415C106.776 92.7312 106.703 92.8625 106.542 92.9501C106.382 93.0376 106.236 93.1106 106.119 93.1689C105.988 93.2273 105.857 93.2857 105.711 93.3294C105.375 93.4316 104.996 93.4754 104.572 93.4754C103.668 93.4754 102.967 93.2273 102.471 92.7166C101.975 92.2059 101.727 91.4909 101.727 90.5571C101.727 89.7546 101.931 89.0834 102.355 88.5435C102.822 87.9453 103.493 87.6389 104.354 87.6389C105.171 87.6389 105.827 87.9161 106.309 88.4706C106.761 88.9958 106.98 89.6379 106.98 90.4112C106.98 90.5571 106.936 90.6738 106.834 90.7614C106.747 90.8635 106.615 90.9073 106.469 90.9073H102.734C102.807 91.418 102.982 91.812 103.303 92.1038ZM104.354 88.4851C103.697 88.4851 103.23 88.777 102.924 89.3606C102.807 89.5649 102.749 89.813 102.734 90.1048H105.973C105.944 89.5795 105.754 89.1709 105.404 88.8791C105.127 88.6165 104.777 88.4851 104.354 88.4851Z" fill="#808184"/>
<path id="Vector_3" d="M111.255 88.5727C110.613 88.5727 110 88.9229 109.446 89.6233V92.9209C109.446 93.0668 109.402 93.1835 109.3 93.2711C109.198 93.3732 109.081 93.417 108.935 93.417C108.789 93.417 108.673 93.3732 108.585 93.2711C108.483 93.1835 108.439 93.0522 108.439 92.9209V88.1933C108.439 88.0474 108.483 87.9307 108.585 87.8285C108.673 87.7264 108.804 87.6826 108.935 87.6826C109.081 87.6826 109.198 87.7264 109.3 87.8285C109.402 87.9307 109.446 88.0474 109.446 88.1933V88.6457C109.738 88.3392 109.986 88.1204 110.205 88.0036C110.628 87.7556 111.022 87.6389 111.401 87.6389C111.781 87.6389 112.087 87.6972 112.335 87.8139C112.583 87.9307 112.787 88.0766 112.948 88.2809C113.298 88.6894 113.459 89.1855 113.459 89.7984V92.9209C113.459 93.0668 113.415 93.1835 113.313 93.2711C113.21 93.3732 113.094 93.417 112.948 93.417C112.802 93.417 112.685 93.3732 112.598 93.2711C112.51 93.1835 112.452 93.0522 112.452 92.9209V89.9005C112.452 89.4774 112.364 89.1563 112.174 88.9229C111.999 88.6894 111.678 88.5727 111.255 88.5727Z" fill="#808184"/>
<path id="Vector_4" d="M117.267 92.5999C117.457 92.5999 117.602 92.5853 117.69 92.5561C117.778 92.5269 117.865 92.5123 117.967 92.5123C118.069 92.5123 118.157 92.5561 118.244 92.6291C118.317 92.702 118.361 92.8188 118.361 92.9647C118.361 93.1106 118.288 93.2127 118.142 93.2857C117.821 93.4316 117.559 93.5045 117.34 93.5045C117.121 93.5045 116.917 93.4899 116.727 93.4754C116.537 93.4608 116.362 93.3878 116.202 93.2857C115.793 93.0522 115.603 92.6437 115.603 92.0454V88.6311H114.816C114.67 88.6311 114.611 88.5581 114.611 88.4268C114.611 88.3538 114.64 88.2955 114.713 88.2371L116.216 86.778C116.275 86.705 116.348 86.6758 116.406 86.6758C116.464 86.6758 116.508 86.6904 116.552 86.7488C116.596 86.7926 116.61 86.8509 116.61 86.9093V87.7848H117.851C117.982 87.7848 118.084 87.8285 118.157 87.9015C118.244 87.989 118.274 88.0912 118.274 88.2079C118.274 88.3392 118.23 88.4414 118.157 88.5143C118.069 88.6019 117.967 88.6311 117.851 88.6311H116.61V91.9579C116.61 92.2351 116.698 92.4248 116.858 92.5269C116.931 92.5707 117.077 92.5999 117.267 92.5999Z" fill="#808184"/>
<path id="Vector_5" d="M120.55 88.6748C121.061 87.989 121.644 87.6389 122.272 87.6389H122.33C122.476 87.6389 122.578 87.6826 122.68 87.7848C122.768 87.8869 122.812 88.0036 122.812 88.1495C122.812 88.2955 122.768 88.4122 122.666 88.4851C122.563 88.5727 122.447 88.6165 122.301 88.6165H122.242C121.878 88.6165 121.542 88.704 121.25 88.8791C120.958 89.0542 120.725 89.2877 120.535 89.5795V92.9209C120.535 93.0668 120.492 93.1835 120.389 93.2711C120.287 93.3586 120.171 93.417 120.025 93.417C119.879 93.417 119.762 93.3732 119.674 93.2711C119.587 93.1689 119.529 93.0522 119.529 92.9209V88.1933C119.529 88.0474 119.572 87.9307 119.674 87.8285C119.777 87.7264 119.893 87.6826 120.025 87.6826C120.171 87.6826 120.287 87.7264 120.389 87.8285C120.492 87.9307 120.535 88.0474 120.535 88.1933V88.6748H120.55Z" fill="#808184"/>
<path id="Vector_6" d="M126.401 87.6389C127.247 87.6389 127.933 87.9015 128.444 88.4414C128.954 88.9813 129.217 89.6816 129.217 90.5571C129.217 91.418 128.954 92.133 128.444 92.6728C127.933 93.2127 127.247 93.4754 126.401 93.4754C125.54 93.4754 124.854 93.2127 124.358 92.6728C123.848 92.133 123.585 91.4326 123.585 90.5571C123.585 89.6816 123.848 88.9813 124.358 88.4414C124.854 87.9015 125.54 87.6389 126.401 87.6389ZM125.175 92.1038C125.35 92.2643 125.54 92.381 125.759 92.454C125.978 92.5269 126.182 92.5707 126.401 92.5707C126.605 92.5707 126.824 92.5415 127.043 92.454C127.262 92.381 127.452 92.2643 127.627 92.1184C128.021 91.7536 128.225 91.2429 128.225 90.5571C128.225 89.9005 128.021 89.3898 127.627 89.0104C127.291 88.704 126.883 88.5581 126.401 88.5581C125.613 88.5581 125.059 88.9083 124.752 89.6233C124.635 89.8859 124.592 90.1923 124.592 90.5571C124.592 90.9219 124.65 91.2283 124.752 91.4909C124.854 91.739 125 91.9433 125.175 92.1038Z" fill="#808184"/>
<path id="Vector_7" d="M134.703 88.4706C135.243 87.9161 135.871 87.6389 136.586 87.6389C137.301 87.6389 137.914 87.8869 138.41 88.3976C138.964 88.9521 139.241 89.667 139.241 90.5571C139.241 91.4472 138.964 92.1767 138.41 92.7312C137.899 93.2273 137.286 93.4754 136.571 93.4754C135.856 93.4754 135.243 93.1981 134.689 92.6437V95.4452C134.689 95.5911 134.645 95.7078 134.543 95.81C134.455 95.8975 134.324 95.9559 134.193 95.9559C134.047 95.9559 133.93 95.9121 133.828 95.81C133.726 95.7078 133.682 95.5911 133.682 95.4452V88.1933C133.682 88.0474 133.726 87.9307 133.828 87.8431C133.93 87.741 134.047 87.6972 134.193 87.6972C134.339 87.6972 134.455 87.741 134.543 87.8431C134.645 87.9453 134.689 88.062 134.689 88.1933V88.4706H134.703ZM134.703 91.7098C135.2 92.2643 135.783 92.5415 136.44 92.5415C137.271 92.5415 137.841 92.1621 138.118 91.418C138.205 91.1699 138.249 90.8781 138.249 90.5571C138.249 89.9297 138.074 89.4336 137.738 89.0688C137.417 88.7332 136.98 88.5727 136.44 88.5727C135.783 88.5727 135.2 88.8499 134.703 89.4044V91.7098Z" fill="#808184"/>
<path id="Vector_8" d="M140.963 88.0328C141.576 87.7702 142.218 87.6389 142.875 87.6389C143.619 87.6389 144.202 87.8723 144.611 88.3246C144.976 88.7186 145.165 89.2147 145.165 89.813V92.9209C145.165 93.0668 145.122 93.1835 145.019 93.2711C144.917 93.3732 144.801 93.417 144.655 93.417C144.523 93.417 144.392 93.3732 144.304 93.2711C144.217 93.1689 144.159 93.0522 144.159 92.9209V92.6291C143.954 92.8333 143.692 93.023 143.356 93.1981C143.02 93.3732 142.597 93.4608 142.087 93.4608C141.576 93.4608 141.153 93.3149 140.817 93.023C140.467 92.7166 140.292 92.3081 140.292 91.812C140.292 91.2721 140.496 90.8489 140.905 90.5279C141.357 90.1923 141.984 90.0172 142.816 90.0172H144.144V89.9297C144.144 89.4336 144.027 89.0834 143.779 88.8791C143.531 88.6748 143.166 88.5581 142.67 88.5581C142.247 88.5581 141.751 88.6457 141.211 88.8207C141.153 88.8353 141.08 88.8499 141.007 88.8499C140.934 88.8499 140.861 88.8062 140.773 88.7332C140.7 88.6602 140.657 88.5435 140.657 88.3684C140.671 88.2371 140.773 88.1204 140.963 88.0328ZM141.299 91.7098C141.299 92.2935 141.693 92.5853 142.466 92.5853C142.816 92.5853 143.137 92.4977 143.429 92.3372C143.721 92.1621 143.969 91.9725 144.159 91.7682V90.8489H142.962C142.437 90.8489 142.028 90.9073 141.736 91.0532C141.445 91.1699 141.299 91.4034 141.299 91.7098Z" fill="#808184"/>
<path id="Vector_9" d="M147.967 88.6748C148.478 87.989 149.061 87.6389 149.689 87.6389H149.747C149.893 87.6389 150.01 87.6826 150.097 87.7848C150.185 87.8869 150.229 88.0036 150.229 88.1495C150.229 88.2955 150.185 88.4122 150.083 88.4851C149.98 88.5727 149.864 88.6165 149.718 88.6165H149.659C149.295 88.6165 148.959 88.704 148.667 88.8791C148.375 89.0542 148.142 89.2877 147.952 89.5795V92.9209C147.952 93.0668 147.909 93.1835 147.806 93.2711C147.704 93.3586 147.588 93.417 147.442 93.417C147.296 93.417 147.179 93.3732 147.091 93.2711C146.989 93.1689 146.945 93.0522 146.945 92.9209V88.1933C146.945 88.0474 146.989 87.9307 147.091 87.8285C147.194 87.7264 147.31 87.6826 147.442 87.6826C147.588 87.6826 147.704 87.7264 147.806 87.8285C147.909 87.9307 147.952 88.0474 147.952 88.1933V88.6748H147.967Z" fill="#808184"/>
<path id="Vector_10" d="M151.556 88.0328C152.169 87.7702 152.811 87.6389 153.468 87.6389C154.212 87.6389 154.796 87.8723 155.204 88.3246C155.569 88.7186 155.759 89.2147 155.759 89.813V92.9209C155.759 93.0668 155.715 93.1835 155.613 93.2711C155.511 93.3732 155.394 93.417 155.248 93.417C155.102 93.417 154.985 93.3732 154.898 93.2711C154.81 93.1689 154.752 93.0522 154.752 92.9209V92.6291C154.548 92.8333 154.285 93.023 153.949 93.1981C153.614 93.3732 153.191 93.4608 152.68 93.4608C152.169 93.4608 151.746 93.3149 151.41 93.023C151.06 92.7166 150.885 92.3081 150.885 91.812C150.885 91.2721 151.089 90.8489 151.498 90.5279C151.95 90.1923 152.578 90.0172 153.409 90.0172H154.737V89.9297C154.737 89.4336 154.62 89.0834 154.372 88.8791C154.124 88.6748 153.76 88.5581 153.264 88.5581C152.84 88.5581 152.344 88.6457 151.804 88.8207C151.746 88.8353 151.673 88.8499 151.6 88.8499C151.527 88.8499 151.454 88.8062 151.367 88.7332C151.279 88.6602 151.25 88.5435 151.25 88.3684C151.265 88.2371 151.367 88.1204 151.556 88.0328ZM151.892 91.7098C151.892 92.2935 152.286 92.5853 153.059 92.5853C153.409 92.5853 153.73 92.4977 154.022 92.3372C154.329 92.1621 154.562 91.9725 154.752 91.7682V90.8489H153.555C153.03 90.8489 152.621 90.9073 152.33 91.0532C152.038 91.1699 151.892 91.4034 151.892 91.7098Z" fill="#808184"/>
<path id="Vector_11" d="M161.77 92.1038C162.091 92.3956 162.529 92.5415 163.098 92.5415C163.667 92.5415 164.134 92.4394 164.513 92.2497C164.645 92.1767 164.761 92.1476 164.849 92.1476C164.951 92.1476 165.039 92.1913 165.126 92.2643C165.214 92.3518 165.257 92.4394 165.257 92.5415C165.257 92.7312 165.185 92.8625 165.024 92.9501C164.864 93.0376 164.718 93.1106 164.601 93.1689C164.47 93.2273 164.338 93.2857 164.192 93.3294C163.857 93.4316 163.477 93.4754 163.054 93.4754C162.15 93.4754 161.449 93.2273 160.953 92.7166C160.457 92.2059 160.209 91.4909 160.209 90.5571C160.209 89.7546 160.413 89.0834 160.836 88.5435C161.303 87.9453 161.974 87.6389 162.835 87.6389C163.652 87.6389 164.309 87.9161 164.791 88.4706C165.243 88.9958 165.462 89.6379 165.462 90.4112C165.462 90.5571 165.418 90.6738 165.316 90.7614C165.228 90.8635 165.097 90.9073 164.951 90.9073H161.216C161.274 91.418 161.464 91.812 161.77 92.1038ZM162.835 88.4851C162.179 88.4851 161.712 88.777 161.405 89.3606C161.289 89.5649 161.23 89.813 161.216 90.1048H164.47C164.44 89.5795 164.251 89.1709 163.901 88.8791C163.594 88.6165 163.244 88.4851 162.835 88.4851Z" fill="#808184"/>
<path id="Vector_12" d="M167.154 85.421C167.257 85.3188 167.373 85.2751 167.519 85.2751C167.665 85.2751 167.782 85.3188 167.884 85.421C167.986 85.5085 168.03 85.6398 168.03 85.7857V92.9355C168.03 93.0814 167.986 93.1981 167.884 93.2857C167.782 93.3732 167.665 93.4316 167.519 93.4316C167.373 93.4316 167.257 93.3878 167.154 93.2857C167.052 93.1835 167.008 93.0668 167.008 92.9355V85.7857C167.008 85.6398 167.052 85.5085 167.154 85.421Z" fill="#808184"/>
<path id="Vector_13" d="M95.0881 98.6844V100.873H98.1231C98.2398 100.873 98.342 100.917 98.4295 100.99C98.5171 101.077 98.5609 101.165 98.5609 101.296C98.5609 101.413 98.5171 101.515 98.4295 101.588C98.342 101.661 98.2544 101.705 98.1231 101.705H95.0881V104.346C95.0881 104.477 95.0444 104.579 94.9568 104.667C94.8693 104.754 94.7671 104.798 94.6358 104.798C94.5045 104.798 94.4023 104.754 94.3148 104.667C94.2272 104.579 94.1835 104.477 94.1835 104.346V98.3051C94.1835 98.1738 94.2272 98.0716 94.3148 97.9841C94.4023 97.8965 94.5045 97.8527 94.6358 97.8527H98.4733C98.59 97.8527 98.6922 97.8965 98.7797 97.9695C98.8673 98.057 98.911 98.1592 98.911 98.2759C98.911 98.3926 98.8673 98.4948 98.7797 98.5677C98.6922 98.6407 98.6046 98.6844 98.4733 98.6844H95.0881Z" fill="#808184"/>
<path id="Vector_14" d="M102.15 99.6037C102.909 99.6037 103.522 99.8371 103.989 100.319C104.441 100.8 104.675 101.442 104.675 102.216C104.675 102.989 104.441 103.631 103.989 104.112C103.522 104.594 102.909 104.827 102.15 104.827C101.377 104.827 100.764 104.594 100.312 104.112C99.8449 103.631 99.626 103.003 99.626 102.216C99.626 101.428 99.8595 100.8 100.312 100.319C100.779 99.8371 101.377 99.6037 102.15 99.6037ZM101.056 103.602C101.216 103.748 101.377 103.85 101.581 103.908C101.771 103.981 101.961 104.01 102.15 104.01C102.34 104.01 102.53 103.981 102.719 103.908C102.909 103.835 103.084 103.733 103.245 103.602C103.595 103.281 103.77 102.814 103.77 102.201C103.77 101.603 103.595 101.15 103.245 100.815C102.953 100.552 102.588 100.406 102.15 100.406C101.435 100.406 100.939 100.727 100.662 101.369C100.56 101.603 100.516 101.88 100.516 102.201C100.516 102.522 100.56 102.799 100.662 103.033C100.779 103.281 100.895 103.47 101.056 103.602Z" fill="#808184"/>
<path id="Vector_15" d="M106.936 100.538C107.389 99.9247 107.914 99.6037 108.483 99.6037H108.527C108.658 99.6037 108.76 99.6474 108.833 99.735C108.921 99.8225 108.964 99.9247 108.964 100.056C108.964 100.187 108.921 100.289 108.833 100.362C108.746 100.435 108.643 100.479 108.512 100.479H108.468C108.133 100.479 107.841 100.567 107.593 100.727C107.33 100.888 107.111 101.092 106.951 101.355V104.36C106.951 104.492 106.907 104.594 106.82 104.681C106.732 104.769 106.63 104.813 106.499 104.813C106.367 104.813 106.265 104.769 106.178 104.681C106.09 104.594 106.046 104.492 106.046 104.36V100.129C106.046 99.9976 106.09 99.8955 106.178 99.8079C106.265 99.7204 106.367 99.6766 106.499 99.6766C106.63 99.6766 106.732 99.7204 106.82 99.8079C106.907 99.8955 106.951 99.9976 106.951 100.129V100.538H106.936Z" fill="#808184"/>
<path id="Vector_16" d="M111.795 104.054C111.97 104.054 112.102 104.039 112.175 104.01C112.247 103.981 112.335 103.966 112.423 103.966C112.51 103.966 112.598 103.996 112.671 104.069C112.744 104.142 112.787 104.229 112.787 104.36C112.787 104.492 112.714 104.594 112.583 104.652C112.306 104.784 112.058 104.857 111.853 104.857C111.649 104.857 111.474 104.842 111.299 104.827C111.139 104.813 110.978 104.754 110.832 104.667C110.467 104.463 110.292 104.083 110.292 103.558V100.494H109.592C109.461 100.494 109.402 100.435 109.402 100.304C109.402 100.246 109.431 100.187 109.49 100.144L110.832 98.8304C110.89 98.772 110.949 98.7428 111.007 98.7428C111.066 98.7428 111.109 98.7574 111.139 98.8012C111.168 98.8449 111.197 98.8887 111.197 98.9471V99.735H112.306C112.423 99.735 112.51 99.7788 112.583 99.8372C112.656 99.9101 112.685 99.9977 112.685 100.114C112.685 100.231 112.641 100.319 112.583 100.392C112.51 100.465 112.423 100.508 112.306 100.508H111.197V103.456C111.197 103.704 111.27 103.879 111.43 103.966C111.489 104.025 111.62 104.054 111.795 104.054Z" fill="#808184"/>
<path id="Vector_17" d="M114.028 99.9685C114.582 99.735 115.151 99.6183 115.749 99.6183C116.421 99.6183 116.946 99.8226 117.311 100.231C117.646 100.581 117.807 101.034 117.807 101.559V104.346C117.807 104.477 117.763 104.579 117.675 104.667C117.588 104.754 117.486 104.798 117.354 104.798C117.223 104.798 117.121 104.754 117.033 104.667C116.946 104.579 116.902 104.477 116.902 104.346V104.083C116.727 104.273 116.494 104.433 116.187 104.594C115.881 104.754 115.501 104.827 115.049 104.827C114.597 104.827 114.217 104.696 113.911 104.433C113.59 104.156 113.444 103.791 113.444 103.354C113.444 102.872 113.634 102.478 113.998 102.201C114.392 101.895 114.976 101.749 115.72 101.749H116.917V101.676C116.917 101.238 116.815 100.917 116.596 100.727C116.377 100.538 116.041 100.45 115.603 100.45C115.224 100.45 114.786 100.523 114.29 100.683C114.232 100.698 114.173 100.698 114.115 100.698C114.057 100.698 113.984 100.669 113.911 100.596C113.838 100.523 113.809 100.421 113.809 100.275C113.78 100.144 113.852 100.027 114.028 99.9685ZM114.334 103.252C114.334 103.777 114.684 104.039 115.385 104.039C115.691 104.039 115.983 103.966 116.245 103.806C116.508 103.66 116.727 103.485 116.902 103.295V102.464H115.822C115.355 102.464 114.991 102.522 114.728 102.639C114.465 102.77 114.334 102.974 114.334 103.252Z" fill="#808184"/>
<path id="Vector_18" d="M119.631 97.6047C119.718 97.5171 119.82 97.4734 119.952 97.4734C120.083 97.4734 120.185 97.5171 120.273 97.6047C120.36 97.6922 120.404 97.7944 120.404 97.9257V104.331C120.404 104.463 120.36 104.565 120.273 104.652C120.185 104.74 120.083 104.784 119.952 104.784C119.82 104.784 119.718 104.74 119.631 104.652C119.543 104.565 119.499 104.463 119.499 104.331V97.9257C119.499 97.7944 119.543 97.6922 119.631 97.6047Z" fill="#808184"/>
<path id="Vector_19" d="M123.249 103.602C123.527 103.864 123.921 103.996 124.431 103.996C124.942 103.996 125.365 103.908 125.701 103.733C125.817 103.675 125.92 103.645 126.007 103.645C126.095 103.645 126.182 103.675 126.255 103.748C126.328 103.821 126.372 103.908 126.372 103.996C126.372 104.171 126.299 104.287 126.153 104.36C126.007 104.433 125.89 104.506 125.774 104.55C125.657 104.609 125.54 104.652 125.409 104.681C125.117 104.769 124.767 104.813 124.387 104.813C123.57 104.813 122.943 104.579 122.505 104.127C122.053 103.675 121.834 103.033 121.834 102.186C121.834 101.457 122.024 100.859 122.403 100.377C122.826 99.8372 123.424 99.5599 124.198 99.5599C124.942 99.5599 125.511 99.808 125.949 100.304C126.357 100.771 126.547 101.355 126.547 102.04C126.547 102.172 126.503 102.274 126.43 102.361C126.343 102.449 126.241 102.493 126.095 102.493H122.753C122.797 102.989 122.972 103.339 123.249 103.602ZM124.198 100.362C123.614 100.362 123.191 100.625 122.914 101.15C122.812 101.34 122.753 101.559 122.739 101.807H125.657C125.628 101.34 125.453 100.975 125.146 100.698C124.884 100.479 124.563 100.362 124.198 100.362Z" fill="#808184"/>
<path id="Vector_20" d="M130.253 103.996C130.618 103.996 130.968 103.908 131.304 103.718C131.42 103.66 131.522 103.616 131.625 103.616C131.712 103.616 131.8 103.66 131.873 103.748C131.946 103.835 131.975 103.937 131.975 104.054C131.975 104.171 131.902 104.287 131.741 104.375C131.274 104.681 130.749 104.827 130.165 104.827C129.436 104.827 128.823 104.594 128.312 104.142C127.787 103.66 127.524 103.018 127.524 102.216C127.524 101.413 127.787 100.771 128.312 100.289C128.809 99.8225 129.421 99.6037 130.165 99.6037C130.559 99.6037 130.88 99.6474 131.143 99.7496C131.391 99.8517 131.595 99.9539 131.756 100.056C131.902 100.158 131.989 100.26 131.989 100.377C131.989 100.494 131.96 100.596 131.887 100.683C131.814 100.771 131.741 100.815 131.668 100.815C131.552 100.815 131.435 100.786 131.318 100.713C130.983 100.523 130.632 100.435 130.268 100.435C129.684 100.435 129.246 100.596 128.925 100.917C128.604 101.238 128.458 101.676 128.458 102.201C128.458 102.726 128.619 103.164 128.925 103.485C129.217 103.835 129.669 103.996 130.253 103.996Z" fill="#808184"/>
<path id="Vector_21" d="M134.28 98.1737C134.28 98.3051 134.237 98.4364 134.134 98.5239C134.032 98.6261 133.916 98.6698 133.784 98.6698H133.726C133.58 98.6698 133.463 98.6261 133.376 98.5239C133.274 98.4218 133.23 98.3051 133.23 98.1737V98.13C133.23 97.9986 133.274 97.8673 133.376 97.7798C133.478 97.6776 133.595 97.6339 133.726 97.6339H133.784C133.916 97.6339 134.047 97.6776 134.134 97.7798C134.237 97.8819 134.28 97.9986 134.28 98.13V98.1737ZM133.419 99.7788C133.507 99.6912 133.609 99.6475 133.74 99.6475C133.872 99.6475 133.974 99.6912 134.061 99.7788C134.149 99.8663 134.193 99.9685 134.193 100.1V104.331C134.193 104.463 134.149 104.565 134.061 104.652C133.974 104.74 133.872 104.784 133.74 104.784C133.609 104.784 133.507 104.74 133.419 104.652C133.332 104.565 133.288 104.463 133.288 104.331V100.1C133.288 99.9685 133.332 99.8663 133.419 99.7788Z" fill="#808184"/>
<path id="Vector_22" d="M136.79 100.508C137.199 99.8955 137.753 99.6037 138.468 99.6037C138.818 99.6037 139.139 99.7058 139.431 99.9247C139.664 100.085 139.854 100.319 139.971 100.625C140.161 100.333 140.336 100.129 140.511 100.012C140.89 99.7496 141.313 99.6037 141.78 99.6037C142.306 99.6037 142.729 99.8079 143.035 100.217C143.298 100.567 143.429 100.99 143.429 101.501V104.346C143.429 104.477 143.385 104.579 143.298 104.667C143.21 104.754 143.108 104.798 142.977 104.798C142.86 104.798 142.743 104.754 142.656 104.667C142.568 104.579 142.524 104.477 142.524 104.346V101.676C142.524 101.267 142.451 100.946 142.306 100.742C142.16 100.538 141.897 100.435 141.518 100.435C140.934 100.435 140.467 100.756 140.102 101.384V104.346C140.102 104.477 140.058 104.579 139.971 104.667C139.883 104.754 139.781 104.798 139.65 104.798C139.519 104.798 139.416 104.754 139.329 104.667C139.241 104.579 139.198 104.477 139.198 104.346V101.676C139.198 101.267 139.125 100.946 138.979 100.742C138.833 100.538 138.57 100.435 138.191 100.435C137.607 100.435 137.14 100.756 136.775 101.384V104.346C136.775 104.477 136.732 104.579 136.644 104.667C136.557 104.754 136.454 104.798 136.323 104.798C136.192 104.798 136.09 104.754 136.002 104.667C135.915 104.579 135.871 104.477 135.871 104.346V100.114C135.871 99.983 135.915 99.8809 136.002 99.7934C136.09 99.7058 136.192 99.662 136.323 99.662C136.454 99.662 136.557 99.7058 136.644 99.7934C136.732 99.8809 136.775 99.983 136.775 100.114V100.508H136.79Z" fill="#808184"/>
<path id="Vector_23" d="M146.085 98.1737C146.085 98.3051 146.041 98.4364 145.939 98.5239C145.837 98.6261 145.72 98.6698 145.588 98.6698H145.53C145.399 98.6698 145.267 98.6261 145.18 98.5239C145.078 98.4218 145.034 98.3051 145.034 98.1737V98.13C145.034 97.9986 145.078 97.8673 145.18 97.7798C145.282 97.6776 145.399 97.6339 145.53 97.6339H145.588C145.72 97.6339 145.851 97.6776 145.939 97.7798C146.041 97.8819 146.085 97.9986 146.085 98.13V98.1737ZM145.224 99.7788C145.311 99.6912 145.413 99.6475 145.545 99.6475C145.676 99.6475 145.778 99.6912 145.866 99.7788C145.953 99.8663 145.997 99.9685 145.997 100.1V104.331C145.997 104.463 145.953 104.565 145.866 104.652C145.778 104.74 145.676 104.784 145.545 104.784C145.413 104.784 145.311 104.74 145.224 104.652C145.136 104.565 145.092 104.463 145.092 104.331V100.1C145.092 99.9685 145.136 99.8663 145.224 99.7788Z" fill="#808184"/>
<path id="Vector_24" d="M148.813 103.602C149.09 103.864 149.484 103.996 149.995 103.996C150.506 103.996 150.929 103.908 151.265 103.733C151.381 103.675 151.483 103.645 151.571 103.645C151.658 103.645 151.731 103.675 151.819 103.748C151.892 103.821 151.936 103.908 151.936 103.996C151.936 104.171 151.863 104.287 151.731 104.36C151.586 104.433 151.469 104.506 151.352 104.55C151.235 104.609 151.119 104.652 150.987 104.681C150.695 104.769 150.345 104.813 149.966 104.813C149.163 104.813 148.521 104.579 148.084 104.127C147.631 103.675 147.412 103.033 147.412 102.186C147.412 101.457 147.602 100.859 147.981 100.377C148.405 99.8372 149.003 99.5599 149.776 99.5599C150.506 99.5599 151.089 99.808 151.527 100.304C151.936 100.771 152.125 101.355 152.125 102.04C152.125 102.172 152.082 102.274 151.994 102.361C151.907 102.449 151.804 102.493 151.658 102.493H148.317C148.361 102.989 148.521 103.339 148.813 103.602ZM149.762 100.362C149.178 100.362 148.74 100.625 148.478 101.15C148.375 101.34 148.317 101.559 148.302 101.807H151.221C151.192 101.34 151.031 100.975 150.71 100.698C150.447 100.479 150.126 100.362 149.762 100.362Z" fill="#808184"/>
<path id="Vector_25" d="M155.934 100.435C155.35 100.435 154.81 100.756 154.314 101.384V104.346C154.314 104.477 154.27 104.579 154.183 104.667C154.095 104.754 153.979 104.798 153.862 104.798C153.73 104.798 153.628 104.754 153.541 104.667C153.453 104.579 153.409 104.477 153.409 104.346V100.114C153.409 99.9831 153.453 99.8663 153.541 99.7934C153.628 99.7058 153.73 99.6621 153.862 99.6621C153.979 99.6621 154.095 99.7058 154.183 99.7934C154.27 99.8809 154.314 99.9831 154.314 100.114V100.523C154.577 100.246 154.81 100.056 155 99.9393C155.379 99.7204 155.729 99.6183 156.065 99.6183C156.401 99.6183 156.678 99.6621 156.897 99.7642C157.116 99.8663 157.305 100.012 157.451 100.187C157.758 100.552 157.918 101.004 157.918 101.544V104.346C157.918 104.477 157.874 104.579 157.787 104.667C157.699 104.754 157.597 104.798 157.466 104.798C157.335 104.798 157.232 104.754 157.145 104.667C157.057 104.579 157.013 104.477 157.013 104.346V101.646C157.013 101.267 156.926 100.975 156.765 100.756C156.605 100.538 156.328 100.435 155.934 100.435Z" fill="#808184"/>
<path id="Vector_26" d="M161.332 104.054C161.508 104.054 161.624 104.039 161.712 104.01C161.785 103.981 161.872 103.966 161.96 103.966C162.047 103.966 162.135 103.996 162.208 104.069C162.281 104.142 162.31 104.229 162.31 104.36C162.31 104.492 162.237 104.594 162.106 104.652C161.829 104.784 161.581 104.857 161.376 104.857C161.172 104.857 160.997 104.842 160.822 104.827C160.661 104.813 160.501 104.754 160.355 104.667C159.99 104.463 159.815 104.083 159.815 103.558V100.494H159.115C158.983 100.494 158.925 100.435 158.925 100.304C158.925 100.246 158.954 100.187 159.012 100.144L160.355 98.8304C160.413 98.772 160.472 98.7428 160.515 98.7428C160.574 98.7428 160.618 98.7574 160.647 98.8012C160.676 98.8449 160.705 98.8887 160.705 98.9471V99.735H161.814C161.931 99.735 162.018 99.7788 162.091 99.8372C162.164 99.9101 162.208 99.9977 162.208 100.114C162.208 100.231 162.164 100.319 162.091 100.392C162.018 100.465 161.931 100.508 161.814 100.508H160.705V103.456C160.705 103.704 160.778 103.879 160.924 103.966C161.026 104.025 161.157 104.054 161.332 104.054Z" fill="#808184"/>
<path id="Vector_27" d="M165.608 99.6037C166.366 99.6037 166.979 99.8371 167.446 100.319C167.913 100.8 168.132 101.442 168.132 102.216C168.132 102.989 167.899 103.631 167.446 104.112C166.979 104.594 166.366 104.827 165.608 104.827C164.834 104.827 164.222 104.594 163.769 104.112C163.317 103.631 163.083 103.003 163.083 102.216C163.083 101.428 163.317 100.8 163.769 100.319C164.222 99.8371 164.834 99.6037 165.608 99.6037ZM164.499 103.602C164.659 103.748 164.82 103.85 165.024 103.908C165.214 103.981 165.403 104.01 165.593 104.01C165.783 104.01 165.973 103.981 166.162 103.908C166.352 103.835 166.527 103.733 166.687 103.602C167.038 103.281 167.227 102.814 167.227 102.201C167.227 101.603 167.052 101.15 166.687 100.815C166.396 100.552 166.031 100.406 165.593 100.406C164.878 100.406 164.382 100.727 164.119 101.369C164.017 101.603 163.973 101.88 163.973 102.201C163.973 102.522 164.017 102.799 164.119 103.033C164.222 103.281 164.353 103.47 164.499 103.602Z" fill="#808184"/>
<path id="Vector_28" d="M97.4811 114.355C97.0871 114.764 96.6348 114.968 96.1241 114.968C95.6134 114.968 95.1757 114.793 94.7963 114.428C94.3877 114.034 94.1835 113.509 94.1835 112.867C94.1835 112.225 94.3877 111.714 94.7963 111.306C95.1611 110.941 95.5988 110.751 96.1241 110.751C96.6348 110.751 97.0871 110.956 97.4811 111.35V109.394C97.4811 109.292 97.5103 109.205 97.5832 109.132C97.6562 109.059 97.7437 109.03 97.8459 109.03C97.948 109.03 98.0356 109.059 98.1085 109.132C98.1815 109.205 98.2107 109.292 98.2107 109.394V114.56C98.2107 114.662 98.1815 114.749 98.1085 114.808C98.0356 114.881 97.948 114.91 97.8459 114.91C97.7437 114.91 97.6562 114.881 97.5832 114.808C97.5103 114.735 97.4811 114.662 97.4811 114.56V114.355ZM97.4811 112.021C97.1163 111.627 96.6932 111.423 96.2262 111.423C95.628 111.423 95.2194 111.7 95.0298 112.24C94.9568 112.415 94.9276 112.634 94.9276 112.867C94.9276 113.319 95.0589 113.684 95.307 113.947C95.5405 114.18 95.8469 114.312 96.2408 114.312C96.7223 114.312 97.1455 114.107 97.4957 113.713V112.021H97.4811Z" fill="#808184"/>
<path id="Vector_29" d="M100.443 113.976C100.677 114.195 100.983 114.297 101.406 114.297C101.815 114.297 102.165 114.224 102.428 114.093C102.53 114.049 102.603 114.02 102.676 114.02C102.749 114.02 102.807 114.049 102.88 114.107C102.938 114.166 102.982 114.239 102.982 114.312C102.982 114.458 102.924 114.545 102.807 114.604C102.69 114.662 102.588 114.72 102.5 114.764C102.413 114.808 102.311 114.837 102.209 114.881C101.975 114.954 101.698 114.983 101.377 114.983C100.72 114.983 100.21 114.793 99.8595 114.428C99.4947 114.064 99.3196 113.538 99.3196 112.867C99.3196 112.283 99.4655 111.802 99.7719 111.408C100.108 110.97 100.604 110.751 101.216 110.751C101.815 110.751 102.282 110.956 102.632 111.35C102.953 111.729 103.113 112.196 103.113 112.75C103.113 112.853 103.084 112.94 103.011 112.998C102.953 113.071 102.851 113.101 102.749 113.101H100.049C100.078 113.48 100.21 113.757 100.443 113.976ZM101.202 111.364C100.735 111.364 100.385 111.569 100.166 111.992C100.093 112.138 100.035 112.313 100.035 112.532H102.384C102.369 112.152 102.223 111.86 101.975 111.641C101.756 111.452 101.508 111.364 101.202 111.364Z" fill="#808184"/>
<path id="Vector_30" d="M106.484 109.132C106.557 109.059 106.644 109.03 106.747 109.03C106.849 109.03 106.936 109.059 107.009 109.132C107.082 109.205 107.111 109.292 107.111 109.394V114.56C107.111 114.662 107.082 114.749 107.009 114.808C106.936 114.881 106.849 114.91 106.747 114.91C106.644 114.91 106.557 114.881 106.484 114.808C106.411 114.735 106.382 114.662 106.382 114.56V109.394C106.382 109.292 106.411 109.205 106.484 109.132Z" fill="#808184"/>
<path id="Vector_31" d="M108.658 111.029C109.11 110.839 109.563 110.737 110.044 110.737C110.584 110.737 111.007 110.897 111.299 111.233C111.562 111.525 111.693 111.875 111.693 112.313V114.56C111.693 114.662 111.664 114.749 111.591 114.808C111.518 114.881 111.43 114.91 111.328 114.91C111.226 114.91 111.139 114.881 111.08 114.808C111.007 114.735 110.978 114.647 110.978 114.56V114.355C110.832 114.501 110.642 114.647 110.394 114.764C110.146 114.895 109.855 114.954 109.475 114.954C109.11 114.954 108.804 114.852 108.556 114.633C108.293 114.414 108.177 114.122 108.177 113.757C108.177 113.363 108.322 113.057 108.629 112.838C108.95 112.59 109.417 112.473 110.015 112.473H110.978V112.415C110.978 112.065 110.89 111.802 110.715 111.656C110.54 111.51 110.278 111.423 109.913 111.423C109.606 111.423 109.256 111.481 108.848 111.612C108.804 111.627 108.76 111.627 108.702 111.627C108.643 111.627 108.585 111.598 108.527 111.539C108.468 111.481 108.439 111.393 108.439 111.277C108.454 111.175 108.512 111.087 108.658 111.029ZM108.906 113.699C108.906 114.122 109.183 114.341 109.752 114.341C110 114.341 110.234 114.282 110.453 114.151C110.672 114.034 110.847 113.889 110.978 113.743V113.071H110.117C109.738 113.071 109.446 113.115 109.227 113.217C109.008 113.305 108.906 113.465 108.906 113.699Z" fill="#808184"/>
<path id="Vector_32" d="M116.975 114.283C117.909 114.283 118.376 113.976 118.376 113.363C118.376 113.101 118.201 112.911 117.836 112.75C117.69 112.692 117.5 112.634 117.296 112.575C117.092 112.532 116.888 112.473 116.669 112.415C116.464 112.356 116.246 112.283 116.041 112.211C115.837 112.138 115.662 112.035 115.501 111.919C115.151 111.656 114.976 111.306 114.976 110.868C114.976 110.401 115.151 110.022 115.501 109.715C115.881 109.394 116.391 109.234 117.033 109.234C117.617 109.234 118.142 109.321 118.624 109.497C118.77 109.555 118.843 109.657 118.843 109.818C118.843 109.891 118.814 109.978 118.755 110.051C118.697 110.124 118.638 110.153 118.566 110.153C118.493 110.153 118.405 110.139 118.288 110.095C117.938 109.978 117.544 109.905 117.106 109.905C116.698 109.905 116.362 109.978 116.1 110.139C115.822 110.299 115.691 110.518 115.691 110.81C115.691 111.116 115.866 111.335 116.216 111.496C116.377 111.569 116.552 111.627 116.756 111.685C116.96 111.729 117.165 111.787 117.384 111.831C117.602 111.89 117.807 111.948 118.011 112.021C118.215 112.094 118.39 112.181 118.551 112.298C118.901 112.546 119.076 112.911 119.076 113.392C119.076 113.845 118.887 114.224 118.522 114.516C118.142 114.808 117.646 114.954 117.033 114.954C116.362 114.954 115.72 114.822 115.137 114.574C115.078 114.545 115.02 114.501 114.976 114.443C114.932 114.385 114.903 114.312 114.903 114.224C114.903 114.137 114.932 114.064 114.991 114.005C115.049 113.932 115.122 113.903 115.195 113.903C115.268 113.903 115.37 113.932 115.487 113.976C115.603 114.02 115.793 114.093 116.056 114.151C116.333 114.239 116.639 114.283 116.975 114.283Z" fill="#808184"/>
<path id="Vector_33" d="M121.936 110.751C122.549 110.751 123.045 110.941 123.424 111.335C123.789 111.729 123.979 112.24 123.979 112.867C123.979 113.495 123.789 114.005 123.424 114.399C123.045 114.793 122.563 114.983 121.936 114.983C121.309 114.983 120.827 114.793 120.448 114.399C120.068 114.005 119.893 113.509 119.893 112.867C119.893 112.24 120.083 111.729 120.448 111.335C120.813 110.941 121.309 110.751 121.936 110.751ZM121.046 113.976C121.177 114.093 121.309 114.18 121.469 114.224C121.63 114.282 121.776 114.297 121.936 114.297C122.082 114.297 122.242 114.268 122.403 114.224C122.563 114.166 122.709 114.093 122.826 113.976C123.118 113.713 123.249 113.334 123.249 112.838C123.249 112.356 123.103 111.992 122.826 111.729C122.593 111.51 122.286 111.408 121.936 111.408C121.367 111.408 120.958 111.671 120.74 112.181C120.667 112.371 120.623 112.59 120.623 112.853C120.623 113.115 120.667 113.334 120.74 113.524C120.813 113.713 120.915 113.859 121.046 113.976Z" fill="#808184"/>
<path id="Vector_34" d="M126.985 114.282C127.276 114.282 127.568 114.21 127.831 114.064C127.933 114.005 128.006 113.991 128.079 113.991C128.152 113.991 128.225 114.02 128.283 114.093C128.342 114.166 128.371 114.239 128.371 114.341C128.371 114.443 128.312 114.531 128.181 114.604C127.802 114.852 127.379 114.968 126.912 114.968C126.328 114.968 125.832 114.779 125.423 114.414C125 114.02 124.781 113.509 124.781 112.867C124.781 112.225 125 111.7 125.423 111.306C125.832 110.941 126.328 110.751 126.912 110.751C127.233 110.751 127.495 110.795 127.7 110.883C127.904 110.97 128.064 111.043 128.196 111.131C128.312 111.204 128.385 111.306 128.385 111.393C128.385 111.496 128.356 111.569 128.298 111.641C128.239 111.714 128.181 111.744 128.123 111.744C128.035 111.744 127.933 111.714 127.846 111.671C127.568 111.525 127.291 111.452 126.999 111.452C126.532 111.452 126.168 111.583 125.919 111.846C125.671 112.108 125.54 112.459 125.54 112.882C125.54 113.305 125.671 113.655 125.919 113.918C126.168 114.151 126.518 114.282 126.985 114.282Z" fill="#808184"/>
<path id="Vector_35" d="M130.238 109.584C130.238 109.701 130.195 109.788 130.122 109.876C130.049 109.949 129.947 109.993 129.83 109.993H129.786C129.669 109.993 129.582 109.949 129.494 109.876C129.421 109.803 129.378 109.701 129.378 109.584V109.555C129.378 109.438 129.421 109.351 129.494 109.263C129.582 109.19 129.669 109.146 129.786 109.146H129.83C129.947 109.146 130.034 109.19 130.122 109.263C130.209 109.336 130.238 109.438 130.238 109.555V109.584ZM129.553 110.883C129.626 110.81 129.713 110.781 129.815 110.781C129.917 110.781 130.005 110.81 130.078 110.883C130.151 110.956 130.18 111.043 130.18 111.145V114.56C130.18 114.662 130.151 114.749 130.078 114.808C130.005 114.881 129.917 114.91 129.815 114.91C129.713 114.91 129.626 114.881 129.553 114.808C129.48 114.735 129.451 114.662 129.451 114.56V111.145C129.451 111.043 129.48 110.956 129.553 110.883Z" fill="#808184"/>
<path id="Vector_36" d="M132.442 113.976C132.675 114.195 132.996 114.297 133.405 114.297C133.813 114.297 134.164 114.224 134.426 114.093C134.528 114.049 134.601 114.02 134.674 114.02C134.747 114.02 134.806 114.049 134.879 114.107C134.937 114.166 134.981 114.239 134.981 114.312C134.981 114.458 134.922 114.545 134.806 114.604C134.689 114.662 134.587 114.72 134.499 114.764C134.412 114.808 134.309 114.837 134.207 114.881C133.974 114.954 133.697 114.983 133.376 114.983C132.719 114.983 132.208 114.793 131.858 114.428C131.493 114.064 131.318 113.538 131.318 112.867C131.318 112.283 131.464 111.802 131.771 111.408C132.106 110.97 132.588 110.751 133.215 110.751C133.813 110.751 134.28 110.956 134.63 111.35C134.951 111.729 135.112 112.196 135.112 112.75C135.112 112.853 135.083 112.94 135.01 112.998C134.937 113.071 134.849 113.101 134.747 113.101H132.048C132.077 113.48 132.208 113.757 132.442 113.976ZM133.201 111.364C132.734 111.364 132.383 111.569 132.165 111.992C132.092 112.138 132.048 112.313 132.033 112.532H134.382C134.368 112.152 134.222 111.86 133.974 111.641C133.755 111.452 133.507 111.364 133.201 111.364Z" fill="#808184"/>
<path id="Vector_37" d="M139.198 114.355C138.804 114.764 138.351 114.968 137.841 114.968C137.33 114.968 136.892 114.793 136.513 114.428C136.104 114.034 135.914 113.509 135.914 112.867C135.914 112.225 136.119 111.714 136.513 111.306C136.878 110.941 137.315 110.751 137.841 110.751C138.351 110.751 138.804 110.956 139.198 111.35V109.394C139.198 109.292 139.227 109.205 139.3 109.132C139.373 109.059 139.46 109.03 139.562 109.03C139.664 109.03 139.752 109.059 139.825 109.132C139.898 109.205 139.927 109.292 139.927 109.394V114.56C139.927 114.662 139.898 114.749 139.825 114.808C139.752 114.881 139.664 114.91 139.562 114.91C139.46 114.91 139.373 114.881 139.3 114.808C139.227 114.735 139.198 114.662 139.198 114.56V114.355ZM139.198 112.021C138.833 111.627 138.41 111.423 137.943 111.423C137.33 111.423 136.936 111.7 136.746 112.24C136.673 112.415 136.644 112.634 136.644 112.867C136.644 113.319 136.775 113.684 137.023 113.947C137.257 114.18 137.563 114.312 137.957 114.312C138.439 114.312 138.862 114.107 139.212 113.713V112.021H139.198Z" fill="#808184"/>
<path id="Vector_38" d="M141.415 111.029C141.868 110.839 142.32 110.737 142.802 110.737C143.341 110.737 143.765 110.897 144.056 111.233C144.319 111.525 144.45 111.875 144.45 112.313V114.56C144.45 114.662 144.407 114.749 144.348 114.808C144.275 114.881 144.188 114.91 144.086 114.91C143.983 114.91 143.896 114.881 143.838 114.808C143.765 114.735 143.735 114.647 143.735 114.56V114.355C143.59 114.501 143.4 114.647 143.152 114.764C142.904 114.895 142.597 114.954 142.233 114.954C141.868 114.954 141.561 114.852 141.313 114.633C141.065 114.414 140.934 114.122 140.934 113.757C140.934 113.363 141.08 113.057 141.386 112.838C141.707 112.59 142.174 112.473 142.772 112.473H143.735V112.415C143.735 112.065 143.648 111.802 143.473 111.656C143.298 111.51 143.035 111.423 142.67 111.423C142.364 111.423 142.014 111.481 141.605 111.612C141.561 111.627 141.518 111.627 141.459 111.627C141.401 111.627 141.357 111.598 141.299 111.539C141.24 111.481 141.211 111.393 141.211 111.277C141.211 111.175 141.284 111.087 141.415 111.029ZM141.663 113.699C141.663 114.122 141.941 114.341 142.51 114.341C142.758 114.341 142.991 114.282 143.21 114.151C143.429 114.034 143.604 113.889 143.735 113.743V113.071H142.86C142.481 113.071 142.189 113.115 141.97 113.217C141.766 113.305 141.663 113.465 141.663 113.699Z" fill="#808184"/>
<path id="Vector_39" d="M148.813 114.355C148.419 114.764 147.967 114.968 147.456 114.968C146.946 114.968 146.508 114.793 146.128 114.428C145.72 114.034 145.53 113.509 145.53 112.867C145.53 112.225 145.734 111.714 146.128 111.306C146.493 110.941 146.931 110.751 147.456 110.751C147.981 110.751 148.419 110.956 148.813 111.35V109.394C148.813 109.292 148.842 109.205 148.915 109.132C148.988 109.059 149.076 109.03 149.178 109.03C149.28 109.03 149.368 109.059 149.441 109.132C149.514 109.205 149.543 109.292 149.543 109.394V114.56C149.543 114.662 149.514 114.749 149.441 114.808C149.368 114.881 149.28 114.91 149.178 114.91C149.076 114.91 148.988 114.881 148.915 114.808C148.842 114.735 148.813 114.662 148.813 114.56V114.355ZM148.813 112.021C148.448 111.627 148.025 111.423 147.558 111.423C146.946 111.423 146.552 111.7 146.362 112.24C146.289 112.415 146.26 112.634 146.26 112.867C146.26 113.319 146.376 113.684 146.639 113.947C146.873 114.18 147.179 114.312 147.573 114.312C148.054 114.312 148.478 114.107 148.828 113.713V112.021H148.813Z" fill="#808184"/>
<path id="Vector_40" d="M157.159 113.903C157.203 113.889 157.262 113.874 157.334 113.874C157.407 113.874 157.48 113.903 157.539 113.961C157.597 114.02 157.626 114.093 157.626 114.166C157.626 114.312 157.568 114.414 157.451 114.472C157.203 114.618 156.941 114.735 156.649 114.822C156.357 114.925 156.021 114.968 155.627 114.968C155.233 114.968 154.869 114.91 154.518 114.779C154.183 114.647 153.891 114.458 153.628 114.21C153.103 113.684 152.84 112.984 152.84 112.108C152.84 111.233 153.103 110.533 153.628 110.007C154.139 109.497 154.81 109.249 155.627 109.249C156.021 109.249 156.357 109.292 156.649 109.394C156.926 109.497 157.145 109.584 157.305 109.657C157.451 109.745 157.553 109.803 157.583 109.861C157.612 109.92 157.626 109.978 157.626 110.051C157.626 110.124 157.597 110.197 157.539 110.255C157.48 110.314 157.422 110.343 157.334 110.343C157.262 110.343 157.203 110.328 157.159 110.314C156.941 110.197 156.736 110.109 156.503 110.036C156.284 109.963 156.007 109.934 155.671 109.934C155.335 109.934 155.044 109.993 154.766 110.095C154.504 110.212 154.27 110.357 154.095 110.562C153.745 110.956 153.555 111.466 153.555 112.094C153.555 112.721 153.73 113.247 154.095 113.626C154.489 114.049 155.014 114.253 155.7 114.253C156.007 114.253 156.284 114.224 156.503 114.151C156.722 114.107 156.941 114.02 157.159 113.903Z" fill="#808184"/>
<path id="Vector_41" d="M159.494 109.584C159.494 109.701 159.45 109.788 159.377 109.876C159.304 109.949 159.202 109.993 159.085 109.993H159.042C158.925 109.993 158.837 109.949 158.75 109.876C158.662 109.803 158.633 109.701 158.633 109.584V109.555C158.633 109.438 158.677 109.351 158.75 109.263C158.823 109.19 158.925 109.146 159.042 109.146H159.085C159.202 109.146 159.29 109.19 159.377 109.263C159.45 109.336 159.494 109.438 159.494 109.555V109.584ZM158.794 110.883C158.867 110.81 158.954 110.781 159.056 110.781C159.158 110.781 159.246 110.81 159.319 110.883C159.392 110.956 159.421 111.043 159.421 111.145V114.56C159.421 114.662 159.392 114.749 159.319 114.808C159.246 114.881 159.158 114.91 159.056 114.91C158.954 114.91 158.867 114.881 158.794 114.808C158.721 114.735 158.691 114.662 158.691 114.56V111.145C158.691 111.043 158.735 110.956 158.794 110.883Z" fill="#808184"/>
<path id="Vector_42" d="M163.492 110.999C163.55 110.868 163.667 110.795 163.842 110.795C163.93 110.795 164.003 110.824 164.076 110.897C164.149 110.97 164.178 111.043 164.178 111.102C164.178 111.189 164.163 111.262 164.134 111.32L162.748 114.633C162.704 114.706 162.66 114.779 162.573 114.837C162.5 114.895 162.412 114.925 162.31 114.925H162.237C162.135 114.925 162.047 114.895 161.974 114.837C161.902 114.779 161.843 114.706 161.799 114.633L160.413 111.32C160.384 111.262 160.369 111.189 160.369 111.116C160.369 111.043 160.399 110.97 160.472 110.897C160.545 110.824 160.618 110.795 160.705 110.795C160.88 110.795 160.997 110.868 161.055 110.999L162.266 114.093L163.492 110.999Z" fill="#808184"/>
<path id="Vector_43" d="M165.914 109.584C165.914 109.701 165.87 109.788 165.797 109.876C165.724 109.949 165.622 109.993 165.506 109.993H165.462C165.345 109.993 165.258 109.949 165.17 109.876C165.082 109.803 165.053 109.701 165.053 109.584V109.555C165.053 109.438 165.097 109.351 165.17 109.263C165.243 109.19 165.345 109.146 165.462 109.146H165.506C165.622 109.146 165.71 109.19 165.797 109.263C165.87 109.336 165.914 109.438 165.914 109.555V109.584ZM165.228 110.883C165.301 110.81 165.389 110.781 165.491 110.781C165.593 110.781 165.681 110.81 165.754 110.883C165.827 110.956 165.856 111.043 165.856 111.145V114.56C165.856 114.662 165.827 114.749 165.754 114.808C165.681 114.881 165.593 114.91 165.491 114.91C165.389 114.91 165.301 114.881 165.228 114.808C165.155 114.735 165.126 114.662 165.126 114.56V111.145C165.126 111.043 165.155 110.956 165.228 110.883Z" fill="#808184"/>
<path id="Vector_44" d="M167.388 109.132C167.461 109.059 167.548 109.03 167.65 109.03C167.753 109.03 167.84 109.059 167.913 109.132C167.986 109.205 168.015 109.292 168.015 109.394V114.56C168.015 114.662 167.986 114.749 167.913 114.808C167.84 114.881 167.753 114.91 167.65 114.91C167.548 114.91 167.461 114.881 167.388 114.808C167.315 114.735 167.286 114.662 167.286 114.56V109.394C167.286 109.292 167.315 109.205 167.388 109.132Z" fill="#808184"/>
<path id="Vector_45" d="M48.9797 115.508C38.7075 115.508 30.3467 107.147 30.3467 96.8751C30.3467 86.6029 38.7075 78.2421 48.9797 78.2421C59.252 78.2421 67.6128 86.6029 67.6128 96.8751C67.6128 107.147 59.252 115.508 48.9797 115.508ZM48.9797 82.1525C40.8524 82.1525 34.2425 88.7624 34.2425 96.8897C34.2425 105.017 40.8524 111.627 48.9797 111.627C57.1071 111.627 63.7169 105.017 63.7169 96.8897C63.7169 88.7624 57.0925 82.1525 48.9797 82.1525Z" fill="#F6EB18"/>
<path id="Vector_46" d="M63.7461 111.685C55.6041 119.827 42.3407 119.827 34.1988 111.685C26.0568 103.543 26.0568 90.2799 34.1988 82.1379C42.3407 73.996 55.5896 73.996 63.7461 82.1379L66.5038 79.3802C56.8298 69.7208 41.115 69.7062 31.441 79.3802C21.7816 89.0542 21.767 104.784 31.441 114.443C41.115 124.102 56.8444 124.102 66.5038 114.443C66.5038 114.428 66.5184 114.428 66.5184 114.428L63.7753 111.656C63.7607 111.671 63.7607 111.671 63.7461 111.685Z" fill="#F6EB18"/>
<path id="Vector_47" d="M75.9882 96.9189C75.9882 111.817 63.8628 123.942 48.9652 123.942C34.0675 123.942 21.9421 111.817 21.9421 96.9189C21.9421 82.0066 34.0675 69.8959 48.9652 69.8959V66C31.908 66 18.0463 79.8763 18.0463 96.9189C18.0463 113.976 31.9226 127.838 48.9652 127.838C66.0223 127.838 79.8986 113.961 79.8986 96.9189C79.8986 96.9043 79.8986 96.9043 79.8986 96.8897H76.0028V96.9189" fill="#F6EB18"/>
<path id="Vector_48" d="M72.3695 120.25C59.4709 133.149 38.474 133.149 25.5753 120.25C12.6767 107.352 12.6767 86.3548 25.5753 73.4561L22.8176 70.6984C8.40143 85.1146 8.38684 108.592 22.8176 123.008C37.2484 137.439 60.7111 137.439 75.1273 123.008C89.5435 108.592 89.5435 85.1437 75.1419 70.713L72.3841 73.4707C85.2682 86.384 85.2682 107.352 72.3695 120.25Z" fill="#F6EB18"/>
</g>
</g>
</svg>
