<svg width="115" height="230" viewBox="0 0 115 230" fill="none" xmlns="http://www.w3.org/2000/svg">
<path d="M20.3836 74.027C24.918 66.3483 27.9339 57.9211 30.5005 49.4511C32.2544 43.7403 33.8158 37.9439 35.4627 32.1475C33.8586 33.6875 32.2972 35.2917 30.7786 36.9386C29.645 40.81 28.5114 44.6814 27.3136 48.4672C24.6827 56.8089 21.6669 64.9794 17.325 72.1661C15.2075 75.8236 12.5339 78.9892 9.66775 81.8767C7.74275 83.545 5.77497 85.1278 3.65747 86.4539C3.22969 88.1008 2.84469 89.7906 2.48108 91.4589C6.05302 89.705 9.23997 87.2239 12.2344 84.5503C15.3358 81.3847 18.2019 77.8983 20.3836 74.027Z" fill="#FDE46E"/>
<path d="M5.1119 104.292L8.23468 103.33L11.2291 101.961C15.2716 100.207 18.8436 97.4478 22.1802 94.4961C25.2602 91.3092 28.1263 87.8228 30.308 83.9514C34.8638 76.2728 37.8583 67.8669 40.4463 59.3756C44.6813 45.4942 47.8897 31.0781 53.7288 17.8383C52.2316 18.7794 50.7558 19.7633 49.3013 20.79C44.2536 33.1314 41.1308 46.0931 37.238 58.3917C34.6072 66.7547 31.5913 74.9039 27.2494 82.0906C25.1319 85.7481 22.4583 88.9136 19.6136 91.8225C16.5336 94.4747 13.3038 96.9558 9.62496 98.4958C6.78023 99.8219 3.84996 100.72 0.855512 101.341C0.684401 102.709 0.556068 104.1 0.427734 105.49C2.01051 105.191 3.59329 104.827 5.1119 104.292Z" fill="#FDE46E"/>
<path d="M8.68389 115.671C10.8442 115.35 12.9831 114.944 15.015 114.217L18.1592 113.276L21.1536 111.907C25.1961 110.153 28.7681 107.394 32.1047 104.442C35.1847 101.234 38.0508 97.7686 40.2539 93.8972C44.7883 86.24 47.7828 77.8128 50.3708 69.3428C55.5256 52.4242 59.1617 34.7142 67.8883 19.3142C70.6689 14.4803 74.0483 10.0314 78.0267 6.18139C76.1231 6.84444 74.2408 7.55028 72.3586 8.29889C69.7706 11.2719 67.4392 14.5017 65.45 17.9025C56.2528 33.7944 52.4242 51.6969 47.1625 68.3589C44.5317 76.7006 41.5158 84.8711 37.1525 92.0578C35.035 95.6939 32.3614 98.8808 29.5167 101.768C26.4581 104.421 23.2069 106.902 19.5281 108.442C13.3681 111.329 6.78028 112.206 0.0213889 112.506C0 113.468 0 114.473 0 115.479C0 115.821 0 116.163 0.0213889 116.484L2.43833 116.356C4.44889 116.313 6.52361 116.12 8.68389 115.671Z" fill="#FDE46E"/>
<path d="M6.2028 126.622L12.3414 126.301C14.352 126.259 16.4481 126.045 18.6084 125.617C20.7686 125.296 22.9075 124.89 24.9609 124.162L28.0836 123.221L31.0781 121.853C35.1206 120.099 38.6925 117.339 42.0078 114.388C45.1092 111.201 47.9539 107.714 50.157 103.843C54.7128 96.1858 57.7072 87.7586 60.2739 79.2886C65.4286 62.3914 69.0647 44.66 77.8128 29.26C82.1761 21.6456 88.1223 14.9294 95.4159 10.1811C102.688 5.39 111.158 2.65222 119.735 1.32611C122.045 0.941111 124.376 0.705833 126.708 0.534722C123.029 0.171111 119.286 0 115.521 0C115.051 0 114.602 0.0213889 114.131 0.0213889C107.094 1.54 100.207 4.08528 94.047 8.04222C86.3256 12.9617 80.0159 19.9986 75.4173 27.8697C66.22 43.7403 62.4128 61.6642 57.1297 78.3261C54.4989 86.6678 51.4831 94.8383 47.1197 102.004C45.0022 105.64 42.3286 108.827 39.4839 111.736C36.4253 114.388 33.1742 116.869 29.4953 118.409C22.1803 121.831 14.245 122.43 6.13863 122.601C4.17085 122.622 2.20308 122.729 0.278076 122.879C0.363632 124.248 0.470576 125.638 0.59891 127.007C2.41697 126.772 4.29919 126.644 6.2028 126.622Z" fill="#FDE46E"/>
<path d="M16.1272 136.525L22.2659 136.204C24.2764 136.162 26.3725 135.969 28.5328 135.52C30.6717 135.199 32.832 134.793 34.8853 134.066L38.0081 133.124L41.0025 131.756C45.045 130.002 48.6384 127.243 51.9322 124.291C55.0336 121.104 57.8784 117.618 60.0814 113.746C64.6159 106.089 67.6317 97.6617 70.1984 89.1703C75.3531 72.2517 78.9892 54.5417 87.7373 39.1417C92.1006 31.5058 98.0467 24.8111 105.34 20.0414C112.613 15.2503 121.083 12.5125 129.659 11.1864C138.236 9.75333 147.006 10.2453 155.69 9.68917C157.508 9.58222 159.326 9.45389 161.144 9.30417C159.754 8.70528 158.363 8.12778 156.952 7.59306C156.503 7.61444 156.053 7.63583 155.604 7.65722C147.049 8.14917 138.215 7.52889 129.339 8.94056C120.505 10.2025 111.65 12.9403 103.95 17.9025C96.2286 22.8219 89.9189 29.8375 85.3203 37.7086C76.1231 53.6006 72.3159 71.5031 67.0328 88.165C64.402 96.5067 61.3861 104.677 57.0228 111.864C54.9053 115.5 52.2317 118.666 49.3656 121.574C46.307 124.227 43.0772 126.708 39.377 128.248C32.062 131.67 24.1267 132.269 16.0203 132.44C11.0795 132.504 6.18141 133.018 1.45447 133.937C1.66836 135.328 1.92502 136.718 2.20308 138.087C6.71613 137.167 11.3789 136.632 16.1272 136.525Z" fill="#FDE46E"/>
<path d="M26.0517 146.471L32.1903 146.15C34.2009 146.108 36.297 145.894 38.4573 145.466C40.6176 145.145 42.7564 144.739 44.8098 144.011L47.9326 143.07L50.927 141.701C54.9695 139.947 58.5415 137.188 61.8567 134.237C64.9367 131.05 67.8028 127.563 70.0059 123.692C74.5403 116.035 77.5562 107.607 80.1228 99.1375C85.2776 82.2189 88.9137 64.5089 97.6617 49.1089C102.025 41.4731 107.971 34.7783 115.265 30.03C122.537 25.2175 131.007 22.5011 139.584 21.175C148.161 19.7206 156.93 20.2339 165.614 19.6564C169.871 19.4211 174.084 19.0575 178.255 18.5014C177.4 17.9453 176.544 17.4106 175.688 16.8758C172.33 17.2394 168.93 17.4747 165.529 17.6244C156.995 18.1164 148.139 17.4961 139.263 18.9078C130.451 20.1697 121.575 22.9289 113.896 27.8697C106.175 32.7892 99.8434 39.8047 95.2448 47.6758C86.0476 63.5678 82.2403 81.4703 76.9573 98.1322C74.3264 106.474 71.3106 114.644 66.9473 121.831C64.8298 125.489 62.1562 128.633 59.3114 131.542C56.2314 134.194 53.0017 136.675 49.3014 138.215C42.0078 141.637 34.0512 142.236 25.9448 142.407C18.3731 142.493 10.9512 143.626 3.97839 145.701C4.342 147.091 4.74839 148.46 5.17617 149.829C11.7639 147.776 18.8223 146.621 26.0517 146.471Z" fill="#FDE46E"/>
<path d="M13.3253 160.288C20.4264 157.914 28.1051 156.545 35.9762 156.374L42.1362 156.053C44.1467 156.011 46.2428 155.818 48.4031 155.369C50.5634 155.069 52.7023 154.642 54.7556 153.914L57.8784 152.952L60.8728 151.562C64.9153 149.808 68.4873 147.07 71.8026 144.097C74.9039 140.91 77.7701 137.424 79.9517 133.552C84.4862 125.874 87.502 117.446 90.0687 108.976C95.2234 92.0578 98.8595 74.3478 107.608 58.9478C111.971 51.3333 117.917 44.6172 125.211 39.8689C132.483 35.0778 140.974 32.34 149.551 31.0139C158.128 29.5594 166.898 30.0728 175.581 29.5167C180.779 29.2172 185.934 28.7467 190.981 27.9339C190.34 27.3778 189.698 26.8431 189.056 26.3083C184.586 26.9072 180.052 27.2708 175.475 27.4847C166.94 27.9767 158.064 27.3778 149.188 28.7681C140.375 30.03 131.499 32.7678 123.82 37.73C116.099 42.6494 109.768 49.665 105.191 57.5361C95.9934 73.4281 92.1862 91.3306 86.9031 107.993C84.2723 116.356 81.2564 124.505 76.8931 131.691C74.7756 135.349 72.102 138.514 69.2359 141.402C66.1773 144.054 62.9262 146.535 59.2259 148.075C51.9109 151.498 43.9756 152.096 35.8692 152.268C27.5917 152.353 19.4853 153.722 11.9778 156.139C10.5876 156.588 9.24005 157.059 7.91394 157.572C8.44866 158.919 9.00477 160.267 9.58227 161.593C10.8228 161.165 12.0634 160.716 13.3253 160.288Z" fill="#FDE46E"/>
<path d="M23.2497 170.234C30.3508 167.86 38.0295 166.491 45.9006 166.32L52.0606 165.999C54.0711 165.956 56.1672 165.743 58.3275 165.315C60.4878 164.994 62.6267 164.588 64.68 163.86L67.8028 162.898L70.7972 161.529C74.8397 159.775 78.4117 157.016 81.7484 154.064C84.8284 150.877 87.6945 147.391 89.8761 143.519C94.432 135.862 97.4264 127.435 100.014 118.944C105.169 102.046 108.805 84.3364 117.532 68.915C121.895 61.3006 127.841 54.5844 135.135 49.8361C142.407 45.045 150.899 42.3072 159.476 40.9811C168.053 39.5267 176.822 40.04 185.506 39.4839C190.768 39.1844 196.008 38.7139 201.141 37.8583C200.628 37.3022 200.114 36.7461 199.58 36.19C194.917 36.8531 190.19 37.2381 185.42 37.4519C176.865 37.9439 168.01 37.345 159.133 38.7353C150.321 39.9972 141.445 42.735 133.766 47.6972C126.045 52.6167 119.735 59.6322 115.136 67.5033C105.939 83.3953 102.111 101.298 96.8275 117.96C94.1967 126.323 91.1809 134.472 86.8389 141.659C84.7214 145.316 82.0478 148.482 79.2031 151.391C76.1231 154.043 72.8933 156.524 69.1931 158.064C61.8781 161.508 53.9428 162.085 45.8364 162.256C37.5589 162.342 29.4739 163.711 21.945 166.149C18.9933 167.09 16.1272 168.202 13.3467 169.421C14.0311 170.726 14.737 172.009 15.4856 173.293C17.9667 172.116 20.5547 171.111 23.2497 170.234Z" fill="#FDE46E"/>
<path d="M33.1741 180.159C40.2753 177.784 47.9539 176.416 55.8464 176.244L61.985 175.924C64.0169 175.881 66.0916 175.667 68.2519 175.239C70.4122 174.918 72.5511 174.512 74.583 173.785L77.7272 172.844L80.7216 171.475C84.7641 169.721 88.3361 166.962 91.6728 164.01C94.7528 160.802 97.6189 157.337 99.8219 153.465C104.356 145.808 107.351 137.381 109.939 128.911C115.094 111.992 118.73 94.2822 127.456 78.8822C131.82 71.2678 137.766 64.5517 145.059 59.7819C152.332 54.9908 160.823 52.2531 169.4 50.9483C177.977 49.4939 186.746 50.0072 195.43 49.4297C200.114 49.1731 204.777 48.7453 209.376 48.0822C208.948 47.5047 208.542 46.9272 208.114 46.3497C203.9 46.8844 199.644 47.2053 195.366 47.4192C186.811 47.9111 177.956 47.2908 169.079 48.7025C160.267 49.9644 151.412 52.7236 143.712 57.6644C135.991 62.5839 129.681 69.5994 125.082 77.4706C115.885 93.3625 112.078 111.265 106.795 127.927C104.164 136.269 101.148 144.439 96.7847 151.626C94.6672 155.262 91.9936 158.449 89.1488 161.358C86.0902 164.01 82.8391 166.47 79.1603 168.031C71.8453 171.453 63.91 172.052 55.8036 172.223C47.5261 172.309 39.4411 173.678 31.9122 176.095C27.8483 177.399 23.9555 178.982 20.2552 180.8C21.1108 182.041 21.9664 183.26 22.8647 184.458C26.0944 182.768 29.5594 181.335 33.1741 180.159Z" fill="#FDE46E"/>
<path d="M43.0985 190.083C50.1997 187.688 57.8783 186.34 65.7708 186.169L71.9094 185.848C73.9199 185.805 76.0161 185.591 78.1763 185.164C80.3152 184.843 82.4755 184.436 84.5288 183.709L87.6516 182.768L90.646 181.399C94.6886 179.645 98.2605 176.886 101.576 173.934C104.677 170.747 107.522 167.261 109.725 163.39C114.259 155.711 117.275 147.305 119.842 138.814C124.997 121.895 128.633 104.185 137.381 88.7853C141.744 81.1708 147.69 74.4547 154.984 69.7064C162.256 64.9153 170.726 62.1775 179.303 60.8514C187.88 59.3969 196.649 59.9103 205.333 59.3328C208.905 59.1403 212.477 58.8408 216.006 58.4131C215.664 57.8142 215.3 57.1939 214.958 56.595C211.75 56.9372 208.499 57.1511 205.269 57.3008C196.714 57.7928 187.88 57.1725 178.982 58.5842C170.17 59.8461 161.315 62.5839 153.615 67.5461C145.894 72.4656 139.584 79.4811 134.985 87.3522C125.788 103.223 121.981 121.147 116.698 137.809C114.067 146.15 111.051 154.321 106.688 161.486C104.592 165.144 101.897 168.309 99.0519 171.218C95.9933 173.87 92.7635 176.33 89.0419 177.891C81.7269 181.314 73.7916 181.913 65.6852 182.084C57.4077 182.169 49.3227 183.538 41.7938 185.976C37.131 187.452 32.7035 189.313 28.5327 191.473C29.538 192.628 30.586 193.762 31.6341 194.896C35.2488 193.035 39.0774 191.409 43.0985 190.083Z" fill="#FDE46E"/>
<path d="M53.0017 200.008C60.1028 197.612 67.7814 196.264 75.6739 196.093L81.8125 195.773C83.8231 195.73 85.9192 195.516 88.0794 195.088C90.2397 194.767 92.3786 194.361 94.4319 193.634L97.5547 192.693L100.549 191.324C104.592 189.57 108.164 186.811 111.479 183.859C114.58 180.672 117.425 177.186 119.628 173.314C124.162 165.657 127.178 157.23 129.745 148.738C134.9 131.841 138.536 114.11 147.284 98.7097C151.647 91.0739 157.593 84.3792 164.887 79.6094C172.159 74.8183 180.629 72.0806 189.206 70.7544C197.783 69.3 206.552 69.8133 215.236 69.2572C217.247 69.1503 219.236 69.0006 221.225 68.8294C220.947 68.1878 220.648 67.5461 220.37 66.9258C218.637 67.0542 216.905 67.1611 215.151 67.2467C206.617 67.7386 197.762 67.1183 188.885 68.53C180.073 69.7919 171.197 72.5297 163.497 77.4919C155.775 82.4114 149.466 89.4269 144.867 97.2981C135.67 113.19 131.862 131.093 126.579 147.754C123.949 156.096 120.933 164.267 116.569 171.453C114.452 175.089 111.778 178.255 108.912 181.164C105.854 183.816 102.624 186.297 98.9236 187.837C91.6086 191.259 83.6733 191.858 75.5669 192.029C67.2894 192.115 59.1831 193.484 51.6756 195.922C46.97 197.419 42.5211 199.302 38.3075 201.462C39.5053 202.531 40.7031 203.579 41.9436 204.606C45.4728 202.831 49.1517 201.269 53.0017 200.008Z" fill="#FDE46E"/>
<path d="M62.9475 209.932C70.0486 207.536 77.7272 206.189 85.6197 206.018L91.7584 205.697C93.7689 205.654 95.865 205.462 98.0253 205.012C100.186 204.692 102.324 204.285 104.378 203.558L107.501 202.617L110.495 201.248C114.538 199.494 118.109 196.735 121.425 193.783C124.505 190.596 127.371 187.11 129.574 183.239C134.108 175.581 137.124 167.154 139.691 158.684C144.846 141.766 148.482 124.056 157.23 108.656C161.593 101.02 167.539 94.325 174.833 89.5767C182.105 84.7642 190.575 82.0478 199.152 80.7217C207.729 79.2672 216.498 79.7806 225.182 79.2031C225.204 79.2031 225.225 79.2031 225.225 79.2031C225.011 78.54 224.776 77.8769 224.541 77.2139C216.156 77.6631 207.494 77.0856 198.81 78.4544C189.998 79.7164 181.121 82.4756 173.443 87.4164C165.721 92.3358 159.39 99.3514 154.791 107.222C145.594 123.114 141.787 141.017 136.504 157.679C133.873 166.021 130.857 174.191 126.515 181.378C124.398 185.035 121.724 188.179 118.858 191.088C115.778 193.741 112.548 196.222 108.869 197.762C101.554 201.205 93.6192 201.783 85.5128 201.954C77.2353 202.039 69.1503 203.387 61.6214 205.825C57.5147 207.13 53.6006 208.734 49.8789 210.574C51.2906 211.558 52.7236 212.499 54.1781 213.418C57.0014 212.092 59.9103 210.916 62.9475 209.932Z" fill="#FDE46E"/>
<path d="M72.872 219.856C79.9517 217.482 87.6517 216.092 95.5228 215.942L101.683 215.621C103.693 215.579 105.768 215.365 107.95 214.916C110.11 214.616 112.249 214.188 114.302 213.461L117.425 212.499L120.419 211.13C124.462 209.376 128.034 206.617 131.349 203.665C134.451 200.478 137.317 196.992 139.498 193.12C144.033 185.463 147.049 177.036 149.615 168.544C154.77 151.647 158.406 133.916 167.154 118.516C171.518 110.901 177.464 104.185 184.757 99.4369C192.029 94.6458 200.521 91.9081 209.098 90.5819C215.365 89.5339 221.739 89.5125 228.113 89.3628C227.941 88.6569 227.77 87.9725 227.599 87.2667C221.396 87.3522 215.087 87.3308 208.756 88.3147C199.943 89.5767 191.067 92.3144 183.388 97.2767C175.667 102.196 166.47 108.142 164.759 117.083C161.465 134.322 153.979 151.391 146.471 167.539C142.771 175.474 140.824 184.051 136.461 191.238C134.344 194.896 131.67 198.061 128.804 200.949C125.745 203.601 122.494 206.082 118.815 207.622C111.5 211.044 103.565 211.643 95.4586 211.814C87.1811 211.9 79.0747 213.269 71.5672 215.686C68.8508 216.563 66.1986 217.546 63.632 218.659C65.4072 219.557 67.2039 220.391 69.022 221.204C70.2625 220.776 71.5672 220.284 72.872 219.856Z" fill="#FDE46E"/>
<path d="M105.469 225.867L111.607 225.546C113.639 225.503 115.692 225.289 117.874 224.861C120.034 224.541 122.195 224.134 124.227 223.407L127.349 222.444L130.344 221.076C134.386 219.322 137.958 216.563 141.295 213.611C144.375 210.424 147.241 206.938 149.423 203.066C153.979 195.409 156.973 186.982 159.561 178.49C164.716 161.593 168.352 143.883 177.079 128.462C181.442 120.847 187.388 114.131 194.682 109.361C201.954 104.57 210.445 101.833 219.022 100.528C222.637 99.9075 226.294 99.6508 229.973 99.5225C229.866 98.7953 229.759 98.0681 229.652 97.3622C226.016 97.4692 222.338 97.7044 218.68 98.2819C209.868 99.5439 201.013 102.282 193.313 107.244C185.591 112.163 179.282 119.179 174.683 127.05C165.486 142.942 161.657 160.844 156.396 177.506C153.765 185.869 150.749 194.019 146.386 201.205C144.268 204.841 141.594 208.028 138.75 210.916C135.67 213.568 132.44 216.049 128.74 217.589C121.425 221.033 113.489 221.61 105.383 221.781C97.1056 221.867 89.0206 223.214 81.4917 225.653C81.3633 225.696 81.235 225.738 81.1281 225.781C83.7589 226.594 86.4325 227.321 89.1489 227.963C94.3678 226.722 99.8647 225.995 105.469 225.867Z" fill="#FDE46E"/>
</svg>
