<svg width="240" height="240" viewBox="0 0 240 240" fill="none" xmlns="http://www.w3.org/2000/svg">
<g clip-path="url(#clip0_1012_1171)">
<mask id="mask0_1012_1171" style="mask-type:luminance" maskUnits="userSpaceOnUse" x="0" y="0" width="240" height="240">
<path d="M240 0H0V240H240V0Z" fill="white"/>
</mask>
<g mask="url(#mask0_1012_1171)">
<path d="M205.933 297.978C169.778 297.978 141.156 281.022 113.511 264.622C86.0667 248.356 57.6667 231.533 22 231.533C-13.6667 231.533 -42.0667 248.356 -69.5111 264.622C-84.2222 273.333 -99.4444 282.356 -115.622 288.733L-116.289 287.067C-100.222 280.756 -85.0889 271.778 -70.4222 263.089C-42.7778 246.667 -14.1556 229.733 22 229.733C58.1556 229.733 86.7778 246.689 114.422 263.089C141.867 279.356 170.267 296.178 205.933 296.178C241.6 296.178 270 279.356 297.444 263.089C325.111 246.689 353.711 229.733 389.867 229.733V231.533C354.2 231.533 325.8 248.356 298.356 264.622C270.711 281.022 242.111 297.978 205.933 297.978Z" fill="#6A2978"/>
</g>
<mask id="mask1_1012_1171" style="mask-type:luminance" maskUnits="userSpaceOnUse" x="0" y="0" width="240" height="240">
<path d="M240 0H0V240H240V0Z" fill="white"/>
</mask>
<g mask="url(#mask1_1012_1171)">
<path d="M205.933 285.889C169.778 285.889 141.156 268.933 113.511 252.533C86.0667 236.267 57.6667 219.445 22 219.445C-13.6667 219.445 -42.0667 236.267 -69.5111 252.533C-84.2222 261.245 -99.4444 270.267 -115.622 276.622L-116.289 274.956C-100.222 268.645 -85.0889 259.667 -70.4222 250.978C-42.7778 234.6 -14.1556 217.645 22 217.645C58.1556 217.645 86.7778 234.6 114.422 251C141.867 267.267 170.267 284.089 205.933 284.089C241.6 284.089 270 267.267 297.444 251C325.111 234.6 353.711 217.645 389.867 217.645V219.445C354.2 219.445 325.8 236.267 298.356 252.533C270.711 268.933 242.111 285.889 205.933 285.889Z" fill="#6A2978"/>
</g>
<mask id="mask2_1012_1171" style="mask-type:luminance" maskUnits="userSpaceOnUse" x="0" y="0" width="240" height="240">
<path d="M240 0H0V240H240V0Z" fill="white"/>
</mask>
<g mask="url(#mask2_1012_1171)">
<path d="M205.933 273.8C169.778 273.8 141.156 256.845 113.511 240.445C86.0667 224.178 57.6667 207.356 22 207.356C-13.6667 207.356 -42.0667 224.178 -69.5111 240.445C-84.2222 249.156 -99.4444 258.178 -115.622 264.556L-116.289 262.889C-100.222 256.578 -85.0889 247.6 -70.4222 238.911C-42.7778 222.511 -14.1556 205.556 22 205.556C58.1555 205.556 86.7778 222.511 114.422 238.911C141.867 255.178 170.267 272 205.933 272C241.6 272 270 255.178 297.444 238.911C325.111 222.511 353.711 205.556 389.889 205.556V207.356C354.222 207.356 325.822 224.178 298.378 240.445C270.711 256.845 242.111 273.8 205.933 273.8Z" fill="#6A2978"/>
</g>
<mask id="mask3_1012_1171" style="mask-type:luminance" maskUnits="userSpaceOnUse" x="0" y="0" width="240" height="240">
<path d="M240 0H0V240H240V0Z" fill="white"/>
</mask>
<g mask="url(#mask3_1012_1171)">
<path d="M205.933 261.733C169.778 261.733 141.156 244.778 113.511 228.378C86.0667 212.111 57.6667 195.289 22 195.289C-13.6667 195.289 -42.0667 212.111 -69.5111 228.378C-84.2222 237.089 -99.4444 246.111 -115.622 252.489L-116.289 250.822C-100.222 244.511 -85.0889 235.533 -70.4222 226.844C-42.7556 210.444 -14.1556 193.489 22 193.489C58.1556 193.489 86.7778 210.444 114.422 226.844C141.867 243.111 170.267 259.933 205.933 259.933C241.6 259.933 270 243.111 297.444 226.844C325.111 210.444 353.711 193.489 389.867 193.489V195.289C354.2 195.289 325.8 212.111 298.356 228.378C270.711 244.778 242.111 261.733 205.933 261.733Z" fill="#6A2978"/>
</g>
<mask id="mask4_1012_1171" style="mask-type:luminance" maskUnits="userSpaceOnUse" x="0" y="0" width="240" height="240">
<path d="M240 0H0V240H240V0Z" fill="white"/>
</mask>
<g mask="url(#mask4_1012_1171)">
<path d="M205.933 249.644C169.778 249.644 141.156 232.689 113.511 216.289C86.0667 200.022 57.6667 183.2 22 183.2C-13.6667 183.2 -42.0667 200.022 -69.5111 216.289C-84.2222 225 -99.4444 234.022 -115.622 240.4L-116.289 238.733C-100.222 232.422 -85.0889 223.444 -70.4222 214.755C-42.7778 198.355 -14.1556 181.4 22 181.4C58.1556 181.4 86.7778 198.355 114.422 214.755C141.867 231.022 170.267 247.844 205.933 247.844C241.6 247.844 270 231.022 297.444 214.755C325.111 198.355 353.711 181.4 389.867 181.4V183.2C354.2 183.2 325.8 200.022 298.356 216.289C270.711 232.689 242.111 249.644 205.933 249.644Z" fill="#6A2978"/>
</g>
<mask id="mask5_1012_1171" style="mask-type:luminance" maskUnits="userSpaceOnUse" x="0" y="0" width="240" height="240">
<path d="M240 0H0V240H240V0Z" fill="white"/>
</mask>
<g mask="url(#mask5_1012_1171)">
<path d="M205.933 237.555C169.778 237.555 141.178 220.622 113.511 204.222C86.0667 187.933 57.6667 171.111 22 171.111C-13.6667 171.111 -42.0667 187.933 -69.5111 204.2C-84.2222 212.911 -99.4444 221.933 -115.622 228.311L-116.289 226.622C-100.222 220.311 -85.0889 211.333 -70.4222 202.644C-42.7556 186.267 -14.1556 169.311 22 169.311C58.1556 169.311 86.7778 186.267 114.422 202.667C141.867 218.933 170.267 235.755 205.933 235.755C241.6 235.755 270 218.933 297.444 202.667C325.111 186.267 353.711 169.311 389.867 169.311V171.111C354.2 171.111 325.8 187.933 298.356 204.2C270.711 220.622 242.111 237.555 205.933 237.555Z" fill="#6A2978"/>
</g>
<mask id="mask6_1012_1171" style="mask-type:luminance" maskUnits="userSpaceOnUse" x="0" y="0" width="240" height="240">
<path d="M240 0H0V240H240V0Z" fill="white"/>
</mask>
<g mask="url(#mask6_1012_1171)">
<path d="M205.933 225.489C169.778 225.489 141.156 208.533 113.511 192.133C86.0667 175.867 57.6667 159.044 22 159.044C-13.6667 159.044 -42.0667 175.867 -69.5111 192.133C-84.2222 200.844 -99.4444 209.867 -115.622 216.244L-116.289 214.556C-100.222 208.244 -85.0889 199.267 -70.4222 190.578C-42.7778 174.2 -14.1556 157.244 22 157.244C58.1556 157.244 86.7778 174.2 114.422 190.6C141.867 206.867 170.267 223.689 205.933 223.689C241.6 223.689 270 206.867 297.444 190.6C325.111 174.2 353.711 157.244 389.867 157.244V159.044C354.2 159.044 325.8 175.867 298.356 192.133C270.711 208.533 242.111 225.489 205.933 225.489Z" fill="#6A2978"/>
</g>
<mask id="mask7_1012_1171" style="mask-type:luminance" maskUnits="userSpaceOnUse" x="0" y="0" width="240" height="240">
<path d="M240 0H0V240H240V0Z" fill="white"/>
</mask>
<g mask="url(#mask7_1012_1171)">
<path d="M205.933 213.4C169.778 213.4 141.156 196.444 113.511 180.044C86.0667 163.778 57.6667 146.956 22 146.956C-13.6667 146.956 -42.0667 163.778 -69.5111 180.044C-84.2222 188.778 -99.4444 197.778 -115.622 204.156L-116.289 202.489C-100.222 196.178 -85.0889 187.2 -70.4222 178.511C-42.7778 162.111 -14.1556 145.156 22 145.156C58.1556 145.156 86.7778 162.111 114.422 178.511C141.867 194.778 170.267 211.6 205.933 211.6C241.6 211.6 270 194.778 297.444 178.511C325.111 162.111 353.711 145.156 389.867 145.156V146.956C354.2 146.956 325.8 163.778 298.356 180.044C270.711 196.444 242.111 213.4 205.933 213.4Z" fill="#6A2978"/>
</g>
<mask id="mask8_1012_1171" style="mask-type:luminance" maskUnits="userSpaceOnUse" x="0" y="0" width="240" height="240">
<path d="M240 0H0V240H240V0Z" fill="white"/>
</mask>
<g mask="url(#mask8_1012_1171)">
<path d="M205.933 201.333C169.778 201.333 141.156 184.378 113.511 167.978C86.0667 151.711 57.6667 134.867 22 134.867C-13.6667 134.867 -42.0667 151.689 -69.5111 167.956C-84.2222 176.667 -99.4444 185.689 -115.622 192.067L-116.289 190.4C-100.222 184.089 -85.0889 175.111 -70.4222 166.422C-42.7778 150.022 -14.1556 133.067 22 133.067C58.1556 133.067 86.7778 150.022 114.422 166.422C141.867 182.689 170.267 199.511 205.933 199.511C241.6 199.511 270 182.689 297.444 166.422C325.111 150.022 353.711 133.067 389.867 133.067V134.867C354.2 134.867 325.8 151.689 298.356 167.956C270.711 184.378 242.111 201.333 205.933 201.333Z" fill="#6A2978"/>
</g>
<mask id="mask9_1012_1171" style="mask-type:luminance" maskUnits="userSpaceOnUse" x="0" y="0" width="240" height="240">
<path d="M240 0H0V240H240V0Z" fill="white"/>
</mask>
<g mask="url(#mask9_1012_1171)">
<path d="M205.933 189.244C169.778 189.244 141.156 172.289 113.511 155.889C86.0667 139.622 57.6667 122.8 22 122.8C-13.6667 122.8 -42.0667 139.622 -69.5111 155.889C-84.2222 164.622 -99.4444 173.622 -115.622 180L-116.289 178.333C-100.222 172.022 -85.0889 163.044 -70.4222 154.356C-42.7778 137.956 -14.1556 121 22 121C58.1556 121 86.7778 137.956 114.422 154.356C141.867 170.622 170.267 187.444 205.933 187.444C241.6 187.444 270 170.622 297.444 154.356C325.111 137.956 353.711 121 389.867 121V122.8C354.2 122.8 325.8 139.622 298.356 155.889C270.711 172.289 242.111 189.244 205.933 189.244Z" fill="#6A2978"/>
</g>
<mask id="mask10_1012_1171" style="mask-type:luminance" maskUnits="userSpaceOnUse" x="0" y="0" width="240" height="240">
<path d="M240 0H0V240H240V0Z" fill="white"/>
</mask>
<g mask="url(#mask10_1012_1171)">
<path d="M205.933 177.156C169.778 177.156 141.156 160.2 113.511 143.8C86.0667 127.533 57.6667 110.711 22 110.711C-13.6667 110.711 -42.0667 127.533 -69.5111 143.8C-84.2222 152.533 -99.4444 161.556 -115.622 167.911L-116.289 166.244C-100.222 159.933 -85.0889 150.956 -70.4222 142.267C-42.7778 125.867 -14.1556 108.911 22 108.911C58.1556 108.911 86.7778 125.867 114.422 142.267C141.867 158.533 170.267 175.356 205.933 175.356C241.6 175.356 270 158.533 297.444 142.267C325.111 125.867 353.711 108.911 389.867 108.911V110.711C354.2 110.711 325.8 127.533 298.356 143.8C270.711 160.2 242.111 177.156 205.933 177.156Z" fill="#6A2978"/>
</g>
<mask id="mask11_1012_1171" style="mask-type:luminance" maskUnits="userSpaceOnUse" x="0" y="0" width="240" height="240">
<path d="M240 0H0V240H240V0Z" fill="white"/>
</mask>
<g mask="url(#mask11_1012_1171)">
<path d="M205.933 165.089C169.778 165.089 141.156 148.133 113.511 131.733C86.0667 115.467 57.6667 98.6445 22 98.6445C-13.6667 98.6445 -42.0667 115.467 -69.5111 131.733C-84.2222 140.444 -99.4444 149.467 -115.622 155.822L-116.289 154.156C-100.222 147.844 -85.0889 138.867 -70.4222 130.178C-42.7778 113.778 -14.1556 96.8223 22 96.8223C58.1556 96.8223 86.7778 113.778 114.422 130.178C141.889 146.444 170.267 163.289 205.933 163.289C241.6 163.289 270 146.467 297.444 130.2C325.111 113.8 353.711 96.8445 389.867 96.8445V98.6445C354.2 98.6445 325.8 115.467 298.356 131.733C270.711 148.133 242.111 165.089 205.933 165.089Z" fill="#6A2978"/>
</g>
<mask id="mask12_1012_1171" style="mask-type:luminance" maskUnits="userSpaceOnUse" x="0" y="0" width="240" height="240">
<path d="M240 0H0V240H240V0Z" fill="white"/>
</mask>
<g mask="url(#mask12_1012_1171)">
<path d="M205.933 153C169.778 153 141.156 136.045 113.511 119.645C86.0667 103.378 57.6667 86.5556 22 86.5556C-13.6667 86.5556 -42.0667 103.378 -69.5111 119.645C-84.2222 128.356 -99.4444 137.378 -115.622 143.756L-116.289 142.089C-100.222 135.778 -85.0889 126.8 -70.4222 118.111C-42.7778 101.711 -14.1556 84.7556 22 84.7556C58.1556 84.7556 86.7778 101.711 114.422 118.111C141.867 134.378 170.267 151.2 205.933 151.2C241.6 151.2 270 134.378 297.444 118.111C325.111 101.711 353.711 84.7556 389.867 84.7556V86.5556C354.2 86.5556 325.8 103.378 298.356 119.645C270.711 136.045 242.111 153 205.933 153Z" fill="#6A2978"/>
</g>
<mask id="mask13_1012_1171" style="mask-type:luminance" maskUnits="userSpaceOnUse" x="0" y="0" width="240" height="240">
<path d="M240 0H0V240H240V0Z" fill="white"/>
</mask>
<g mask="url(#mask13_1012_1171)">
<path d="M205.933 140.911C169.778 140.911 141.156 123.956 113.511 107.556C86.0667 91.289 57.6667 74.4667 22 74.4667C-13.6667 74.4667 -42.0667 91.289 -69.5111 107.556C-84.2222 116.267 -99.4444 125.289 -115.622 131.667L-116.289 130C-100.222 123.689 -85.0889 114.711 -70.4222 106.022C-42.7778 89.6223 -14.1556 72.6667 22 72.6667C58.1555 72.6667 86.7778 89.6223 114.422 106.022C141.889 122.289 170.267 139.111 205.933 139.111C241.6 139.111 270 122.289 297.444 106.022C325.111 89.6223 353.711 72.6667 389.889 72.6667V74.4667C354.222 74.4667 325.822 91.289 298.378 107.556C270.711 123.956 242.111 140.911 205.933 140.911Z" fill="#6A2978"/>
</g>
<mask id="mask14_1012_1171" style="mask-type:luminance" maskUnits="userSpaceOnUse" x="0" y="0" width="240" height="240">
<path d="M240 0H0V240H240V0Z" fill="white"/>
</mask>
<g mask="url(#mask14_1012_1171)">
<path d="M205.933 128.822C169.778 128.822 141.156 111.867 113.511 95.4668C86.0667 79.2001 57.6667 62.3779 22 62.3779C-13.6667 62.3779 -42.0667 79.2001 -69.5111 95.4668C-84.2222 104.178 -99.4444 113.2 -115.622 119.578L-116.289 117.911C-100.222 111.6 -85.0889 102.622 -70.4222 93.9334C-42.7778 77.5334 -14.1556 60.5779 22 60.5779C58.1556 60.5779 86.7778 77.5334 114.422 93.9334C141.867 110.2 170.267 127.022 205.933 127.022C241.6 127.022 270 110.2 297.444 93.9334C325.111 77.5334 353.711 60.5779 389.867 60.5779V62.3779C354.2 62.3779 325.8 79.2001 298.356 95.4668C270.711 111.867 242.111 128.822 205.933 128.822Z" fill="#6A2978"/>
</g>
<mask id="mask15_1012_1171" style="mask-type:luminance" maskUnits="userSpaceOnUse" x="0" y="0" width="240" height="240">
<path d="M240 0H0V240H240V0Z" fill="white"/>
</mask>
<g mask="url(#mask15_1012_1171)">
<path d="M205.933 116.756C169.778 116.756 141.156 99.8001 113.511 83.4001C86.0667 67.1334 57.6667 50.3112 22 50.3112C-13.6667 50.3112 -42.0667 67.1334 -69.5111 83.4001C-84.2222 92.1112 -99.4444 101.133 -115.622 107.511L-116.289 105.845C-100.222 99.5335 -85.0889 90.5557 -70.4222 81.8668C-42.7778 65.4668 -14.1556 48.5112 22 48.5112C58.1556 48.5112 86.7778 65.4668 114.422 81.8668C141.867 98.1334 170.267 114.956 205.933 114.956C241.6 114.956 270 98.1334 297.444 81.8668C325.111 65.4668 353.711 48.5112 389.867 48.5112V50.3112C354.2 50.3112 325.8 67.1334 298.356 83.4001C270.711 99.8001 242.111 116.756 205.933 116.756Z" fill="#6A2978"/>
</g>
<mask id="mask16_1012_1171" style="mask-type:luminance" maskUnits="userSpaceOnUse" x="0" y="0" width="240" height="240">
<path d="M240 0H0V240H240V0Z" fill="white"/>
</mask>
<g mask="url(#mask16_1012_1171)">
<path d="M205.933 104.667C169.778 104.667 141.178 87.711 113.511 71.3332C86.0667 55.0443 57.6667 38.2221 22 38.2221C-13.6667 38.2221 -42.0667 55.0443 -69.5111 71.311C-84.2222 80.0221 -99.4444 89.0443 -115.622 95.4221L-116.289 93.7555C-100.222 87.4443 -85.0889 78.4666 -70.4222 69.7777C-42.7778 53.3777 -14.1556 36.4221 22 36.4221C58.1556 36.4221 86.7778 53.3777 114.422 69.7777C141.867 86.0443 170.267 102.867 205.933 102.867C241.6 102.867 270 86.0443 297.444 69.7777C325.111 53.3777 353.711 36.4221 389.867 36.4221V38.2221C354.2 38.2221 325.8 55.0443 298.356 71.311C270.711 87.711 242.111 104.667 205.933 104.667Z" fill="#6A2978"/>
</g>
<mask id="mask17_1012_1171" style="mask-type:luminance" maskUnits="userSpaceOnUse" x="0" y="0" width="240" height="240">
<path d="M240 0H0V240H240V0Z" fill="white"/>
</mask>
<g mask="url(#mask17_1012_1171)">
<path d="M205.933 92.5999C169.778 92.5999 141.156 75.6444 113.511 59.2444C86.0667 42.9777 57.6667 26.1333 22 26.1333C-13.6667 26.1333 -42.0667 42.9555 -69.5111 59.2221C-84.2222 67.9555 -99.4444 76.9777 -115.622 83.3333L-116.289 81.6666C-100.222 75.3555 -85.0889 66.3777 -70.4222 57.6888C-42.7556 41.2888 -14.1556 24.3333 22 24.3333C58.1556 24.3333 86.7778 41.2888 114.422 57.6888C141.867 73.9555 170.267 90.7777 205.933 90.7777C241.6 90.7777 270 73.9555 297.444 57.6888C325.111 41.2888 353.711 24.3333 389.867 24.3333V26.1333C354.2 26.1333 325.8 42.9555 298.356 59.2221C270.711 75.6444 242.111 92.5999 205.933 92.5999Z" fill="#6A2978"/>
</g>
<mask id="mask18_1012_1171" style="mask-type:luminance" maskUnits="userSpaceOnUse" x="0" y="0" width="240" height="240">
<path d="M240 0H0V240H240V0Z" fill="white"/>
</mask>
<g mask="url(#mask18_1012_1171)">
<path d="M205.933 80.511C169.778 80.511 141.156 63.5555 113.511 47.1555C86.0667 30.8888 57.6667 14.0666 22 14.0666C-13.6667 14.0666 -42.0667 30.8888 -69.5111 47.1555C-84.2222 55.8888 -99.4444 64.8888 -115.622 71.2666L-116.289 69.5999C-100.222 63.2888 -85.0889 54.311 -70.4222 45.6222C-42.7778 29.2222 -14.1556 12.2666 22 12.2666C58.1556 12.2666 86.7778 29.2222 114.422 45.6222C141.867 61.8888 170.267 78.711 205.933 78.711C241.6 78.711 270 61.8888 297.444 45.6222C325.111 29.2222 353.711 12.2666 389.867 12.2666V14.0666C354.2 14.0666 325.8 30.8888 298.356 47.1555C270.711 63.5555 242.111 80.511 205.933 80.511Z" fill="#6A2978"/>
</g>
<mask id="mask19_1012_1171" style="mask-type:luminance" maskUnits="userSpaceOnUse" x="0" y="0" width="240" height="240">
<path d="M240 0H0V240H240V0Z" fill="white"/>
</mask>
<g mask="url(#mask19_1012_1171)">
<path d="M205.933 68.4222C169.778 68.4222 141.156 51.4666 113.511 35.0666C86.0667 18.8222 57.6667 1.97773 22 1.97773C-13.6667 1.97773 -42.0667 18.8 -69.5111 35.0666C-84.2222 43.7777 -99.4444 52.8 -115.622 59.1777L-116.289 57.5111C-100.222 51.2 -85.0889 42.2222 -70.4222 33.5333C-42.7778 17.1333 -14.1556 0.177734 22 0.177734C58.1555 0.177734 86.7778 17.1333 114.422 33.5333C141.867 49.8 170.267 66.6222 205.933 66.6222C241.6 66.6222 270 49.8 297.444 33.5333C325.111 17.1333 353.711 0.177734 389.889 0.177734V1.97773C354.222 1.97773 325.822 18.8 298.378 35.0666C270.711 51.4888 242.111 68.4222 205.933 68.4222Z" fill="#6A2978"/>
</g>
<mask id="mask20_1012_1171" style="mask-type:luminance" maskUnits="userSpaceOnUse" x="0" y="0" width="240" height="240">
<path d="M240 0H0V240H240V0Z" fill="white"/>
</mask>
<g mask="url(#mask20_1012_1171)">
<path d="M205.933 56.3555C169.778 56.3555 141.156 39.4 113.511 23C86.0667 6.73331 57.6667 -10.1111 22 -10.1111C-13.6667 -10.1111 -42.0667 6.71109 -69.5111 22.9778C-84.2222 31.6889 -99.4444 40.7111 -115.622 47.0889L-116.289 45.4222C-100.222 39.1111 -85.0889 30.1333 -70.4222 21.4444C-42.7778 5.04442 -14.1556 -11.9111 22 -11.9111C58.1555 -11.9111 86.7778 5.04442 114.422 21.4444C141.867 37.7111 170.267 54.5333 205.933 54.5333C241.6 54.5333 270 37.7111 297.444 21.4444C325.111 5.04442 353.711 -11.9111 389.889 -11.9111V-10.1111C354.222 -10.1111 325.822 6.71109 298.378 22.9778C270.711 39.4 242.111 56.3555 205.933 56.3555Z" fill="#6A2978"/>
</g>
<mask id="mask21_1012_1171" style="mask-type:luminance" maskUnits="userSpaceOnUse" x="0" y="0" width="240" height="240">
<path d="M240 0H0V240H240V0Z" fill="white"/>
</mask>
<g mask="url(#mask21_1012_1171)">
<path d="M205.933 44.2667C169.778 44.2667 141.156 27.3111 113.511 10.9111C86.0667 -5.35556 57.6667 -22.1778 22 -22.1778C-13.6667 -22.1778 -42.0667 -5.35556 -69.5111 10.9111C-84.2222 19.6444 -99.4444 28.6667 -115.622 35.0222L-116.289 33.3555C-100.222 27.0444 -85.0889 18.0667 -70.4222 9.37777C-42.7778 -7.02223 -14.1556 -23.9778 22 -23.9778C58.1556 -23.9778 86.7778 -7.02223 114.422 9.37777C141.867 25.6444 170.267 42.4667 205.933 42.4667C241.6 42.4667 270 25.6444 297.444 9.37777C325.111 -7.02223 353.711 -23.9778 389.867 -23.9778V-22.1778C354.2 -22.1778 325.8 -5.35556 298.356 10.9111C270.711 27.3111 242.111 44.2667 205.933 44.2667Z" fill="#6A2978"/>
</g>
<mask id="mask22_1012_1171" style="mask-type:luminance" maskUnits="userSpaceOnUse" x="0" y="0" width="240" height="240">
<path d="M240 0H0V240H240V0Z" fill="white"/>
</mask>
<g mask="url(#mask22_1012_1171)">
<path d="M205.933 32.1778C169.778 32.1778 141.178 15.2222 113.511 -1.15554C86.0667 -17.4444 57.6667 -34.2666 22 -34.2666C-13.6667 -34.2666 -42.0667 -17.4444 -69.5111 -1.17776C-84.2222 7.55557 -99.4444 16.5778 -115.622 22.9333L-116.289 21.2667C-100.222 14.9556 -85.0889 5.97779 -70.4222 -2.71109C-42.7778 -19.1111 -14.1556 -36.0667 22 -36.0667C58.1555 -36.0667 86.7778 -19.1111 114.422 -2.71109C141.889 13.5556 170.267 30.3778 205.933 30.3778C241.6 30.3778 270 13.5556 297.444 -2.71109C325.111 -19.1111 353.711 -36.0667 389.889 -36.0667V-34.2666C354.222 -34.2666 325.822 -17.4444 298.378 -1.17776C270.711 15.2222 242.111 32.1778 205.933 32.1778Z" fill="#6A2978"/>
</g>
<mask id="mask23_1012_1171" style="mask-type:luminance" maskUnits="userSpaceOnUse" x="0" y="0" width="240" height="240">
<path d="M240 0H0V240H240V0Z" fill="white"/>
</mask>
<g mask="url(#mask23_1012_1171)">
<path d="M205.933 20.1111C169.778 20.1111 141.178 3.15559 113.511 -13.2444C86.0667 -29.5111 57.6667 -46.3333 22 -46.3333C-13.6667 -46.3333 -42.0667 -29.5111 -69.5111 -13.2444C-84.2222 -4.5333 -99.4444 4.48892 -115.622 10.8445L-116.289 9.17781C-100.222 2.8667 -85.0889 -6.11108 -70.4222 -14.8C-42.7778 -31.2 -14.1556 -48.1333 22 -48.1333C58.1556 -48.1333 86.7778 -31.1777 114.422 -14.7777C141.889 1.48892 170.267 18.3111 205.933 18.3111C241.6 18.3111 270 1.48892 297.444 -14.7777C325.111 -31.1777 353.711 -48.1333 389.867 -48.1333V-46.3333C354.2 -46.3333 325.8 -29.5111 298.356 -13.2444C270.711 3.15559 242.111 20.1111 205.933 20.1111Z" fill="#6A2978"/>
</g>
<mask id="mask24_1012_1171" style="mask-type:luminance" maskUnits="userSpaceOnUse" x="0" y="0" width="240" height="240">
<path d="M240 0H0V240H240V0Z" fill="white"/>
</mask>
<g mask="url(#mask24_1012_1171)">
<path d="M205.933 8.02228C169.778 8.02228 141.178 -8.93328 113.511 -25.3333C86.0667 -41.5999 57.6667 -58.4222 22 -58.4222C-13.6667 -58.4222 -42.0667 -41.5999 -69.5111 -25.3333C-84.2222 -16.5999 -99.4444 -7.57772 -115.622 -1.22217L-116.289 -2.88884C-100.222 -9.19994 -85.0889 -18.1777 -70.4222 -26.8666C-42.7778 -43.2666 -14.1556 -60.2222 22 -60.2222C58.1555 -60.2222 86.7778 -43.2666 114.422 -26.8666C141.889 -10.5999 170.267 6.22227 205.933 6.22227C241.6 6.22227 270 -10.5999 297.444 -26.8666C325.111 -43.2666 353.711 -60.2222 389.889 -60.2222V-58.4222C354.222 -58.4222 325.822 -41.5999 298.378 -25.3333C270.711 -8.93328 242.111 8.02228 205.933 8.02228Z" fill="#6A2978"/>
</g>
</g>
<defs>
<clipPath id="clip0_1012_1171">
<rect width="240" height="240" fill="white"/>
</clipPath>
</defs>
</svg>
