<svg width="200" height="200" viewBox="0 0 200 200" fill="none" xmlns="http://www.w3.org/2000/svg">
<g clip-path="url(#clip0_1012_1127)">
<path d="M200 100C200 155.222 155.222 200 100 200C44.7778 200 0 155.222 0 100C0 44.7778 44.7778 0 100 0C155.222 0 200 44.7778 200 100Z" fill="#BCA6F4"/>
<path d="M56.2037 131.111C43.7222 111.037 46.7037 85.3333 63.4444 68.5925C83.1852 48.8518 115.315 48.8518 135.056 68.5925L132.833 70.7962C114.315 52.2777 84.1667 52.2777 65.6481 70.7962C49.9444 86.4999 47.1481 110.611 58.8518 129.444L56.2037 131.111Z" fill="#6A2979"/>
<path d="M135.352 72.0926H121.63V68.9629H132.222V58.3704H135.352V72.0926Z" fill="#6A2979"/>
<path d="M99.537 154.741C86.5741 154.741 73.6111 149.815 63.7222 139.926L65.9444 137.704C84.463 156.222 114.611 156.222 133.13 137.704C148.722 122.111 151.481 97.2964 139.704 78.7223L142.352 77.0557C154.907 96.8705 151.963 123.315 135.352 139.926C125.463 149.796 112.5 154.741 99.537 154.741Z" fill="#6A2979"/>
<path d="M66.5741 150.167H63.4444V136.444H77.1482V139.592L66.5741 139.574V150.167Z" fill="#6A2979"/>
<path d="M102.889 127.667V134.593H98.963V127.667C92.963 127.352 87.2593 125.278 84.0741 122.333L86.3333 117.556C89.2222 120.185 94 122.148 98.963 122.463V108.241C92.2222 106.593 85.1111 104.444 85.1111 96.1111C85.1111 90.037 89.463 84.7778 98.963 83.9815V77H102.889V83.9259C107.481 84.1111 112.074 85.463 115.333 87.6667L113.315 92.5741C110 90.4815 106.333 89.3333 102.889 89.1481V103.426C109.759 105.148 117.111 107.167 117.111 115.556C117.093 121.593 112.556 126.87 102.889 127.667ZM98.963 102.407V89.1667C93.5 89.8333 91.1111 92.5926 91.1111 95.8519C91.1111 99.6481 94.537 101.241 98.963 102.407ZM111.093 115.889C111.093 111.963 107.407 110.426 102.889 109.204V122.389C108.574 121.833 111.093 119.204 111.093 115.889Z" fill="#6A2979"/>
</g>
<defs>
<clipPath id="clip0_1012_1127">
<rect width="200" height="200" fill="white"/>
</clipPath>
</defs>
</svg>
