<svg width="320" height="320" viewBox="0 0 320 320" fill="none" xmlns="http://www.w3.org/2000/svg">
<g clip-path="url(#clip0_1012_933)">
<mask id="mask0_1012_933" style="mask-type:luminance" maskUnits="userSpaceOnUse" x="0" y="0" width="320" height="320">
<path d="M320 0H0V320H320V0Z" fill="white"/>
</mask>
<g mask="url(#mask0_1012_933)">
<path d="M411.852 76.0296C411.407 74.5481 410.963 73.037 410.519 71.5555C407.704 61.9851 405.067 52.9185 397.659 45.5111C390.252 38.1037 381.185 35.437 371.615 32.6518C361.541 29.7185 351.141 26.6666 342.37 17.8962C333.6 9.12588 330.548 -1.27413 327.615 -11.3482C324.8 -20.9186 322.163 -29.9556 314.756 -37.3926C307.348 -44.8001 298.281 -47.4667 288.711 -50.2519C287.2 -50.6964 285.719 -51.1408 284.237 -51.5852L286.43 -58.7556C287.881 -58.3112 289.363 -57.8667 290.815 -57.4519C300.889 -54.5186 311.289 -51.4667 320.059 -42.6964C328.83 -33.926 331.881 -23.526 334.815 -13.4519C337.63 -3.88154 340.267 5.1555 347.674 12.5925C355.081 19.9999 364.148 22.6666 373.719 25.4518C383.793 28.3851 394.193 31.437 402.963 40.2074C411.733 48.9777 414.785 59.3777 417.719 69.4518C418.163 70.9333 418.578 72.3851 419.022 73.837L411.852 76.0296Z" fill="#6A2978"/>
</g>
<mask id="mask1_1012_933" style="mask-type:luminance" maskUnits="userSpaceOnUse" x="0" y="0" width="320" height="320">
<path d="M320 0H0V320H320V0Z" fill="white"/>
</mask>
<g mask="url(#mask1_1012_933)">
<path d="M413.096 119.348C411.941 118.4 410.815 117.393 409.748 116.326C400.978 107.556 397.926 97.1556 394.993 87.0815C392.178 77.5112 389.541 68.4741 382.133 61.0371C374.726 53.6297 365.659 50.963 356.089 48.1778C346.015 45.2445 335.615 42.1926 326.844 33.4223C318.074 24.6519 315.022 14.2519 312.089 4.17784C309.274 -5.39253 306.637 -14.4592 299.23 -21.8666C291.822 -29.274 282.756 -31.9407 273.185 -34.7259C263.111 -37.6592 252.711 -40.7111 243.941 -49.4814C242.874 -50.5481 241.867 -51.674 240.919 -52.8296L246.756 -57.5703C247.526 -56.6222 248.356 -55.674 249.244 -54.8148C256.652 -47.4073 265.689 -44.7407 275.289 -41.9555C285.363 -39.0222 295.763 -35.9703 304.533 -27.1999C313.304 -18.4296 316.356 -8.02957 319.289 2.0445C322.104 11.6149 324.741 20.6815 332.148 28.089C339.556 35.4964 348.622 38.163 358.193 40.9482C368.267 43.8815 378.667 46.9334 387.437 55.7038C396.207 64.4741 399.259 74.8741 402.193 84.9482C405.007 94.5186 407.644 103.585 415.052 110.993C415.941 111.882 416.859 112.711 417.807 113.482L413.096 119.348Z" fill="#6A2978"/>
</g>
<mask id="mask2_1012_933" style="mask-type:luminance" maskUnits="userSpaceOnUse" x="0" y="0" width="320" height="320">
<path d="M320 0H0V320H320V0Z" fill="white"/>
</mask>
<g mask="url(#mask2_1012_933)">
<path d="M414.222 143.763C408.415 141.719 400.859 138.519 394.222 131.882C385.452 123.111 382.4 112.711 379.467 102.637C376.652 93.0667 374.015 84.0296 366.607 76.5926C359.2 69.1852 350.133 66.5185 340.563 63.7334C330.489 60.8 320.089 57.7482 311.318 48.9778C302.548 40.2074 299.496 29.8074 296.563 19.7334C293.748 10.163 291.111 1.12594 283.704 -6.31109C276.296 -13.7185 267.23 -16.3852 257.659 -19.1704C247.585 -22.1037 237.185 -25.1555 228.415 -33.9259C221.748 -40.5926 218.578 -48.1185 216.533 -53.9259L223.615 -56.4148C225.393 -51.3481 228.148 -44.8296 233.719 -39.2296C241.126 -31.8222 250.193 -29.1555 259.763 -26.3704C269.837 -23.437 280.237 -20.3852 289.007 -11.6148C297.778 -2.84443 300.83 7.55557 303.763 17.6296C306.578 27.2 309.215 36.2371 316.622 43.6741C324.03 51.0815 333.096 53.7482 342.667 56.5334C352.741 59.4667 363.141 62.5185 371.911 71.2889C380.681 80.0593 383.733 90.4593 386.667 100.533C389.481 110.104 392.119 119.141 399.526 126.578C405.096 132.148 411.644 134.904 416.711 136.681L414.222 143.763Z" fill="#6A2978"/>
</g>
<mask id="mask3_1012_933" style="mask-type:luminance" maskUnits="userSpaceOnUse" x="0" y="0" width="320" height="320">
<path d="M320 0H0V320H320V0Z" fill="white"/>
</mask>
<g mask="url(#mask3_1012_933)">
<path d="M414.311 164.148C412.178 163.467 410.044 162.844 407.911 162.222C397.837 159.289 387.437 156.237 378.667 147.467C369.896 138.696 366.844 128.296 363.911 118.222C361.096 108.652 358.459 99.6149 351.052 92.1778C343.644 84.7704 334.578 82.1037 325.007 79.3186C314.933 76.3852 304.533 73.3334 295.763 64.563C286.993 55.7926 283.941 45.3926 281.007 35.3186C278.193 25.7482 275.556 16.7111 268.148 9.27411C260.741 1.8667 251.674 -0.799969 242.104 -3.58516C232.03 -6.51849 221.63 -9.57034 212.859 -18.3407C204.089 -27.1111 201.037 -37.5111 198.104 -47.5852C197.481 -49.7185 196.859 -51.8814 196.178 -53.9852L203.319 -56.2963C204.03 -54.1037 204.681 -51.9111 205.304 -49.6889C208.119 -40.1185 210.756 -31.0815 218.163 -23.6444C225.57 -16.237 234.637 -13.5703 244.207 -10.7852C254.281 -7.85182 264.681 -4.79997 273.452 3.9704C282.222 12.7408 285.274 23.1408 288.207 33.2149C291.022 42.7852 293.659 51.8223 301.067 59.2593C308.474 66.6667 317.541 69.3334 327.111 72.1185C337.185 75.0519 347.585 78.1037 356.356 86.8741C365.126 95.6445 368.178 106.044 371.111 116.119C373.926 125.689 376.563 134.726 383.97 142.163C391.378 149.57 400.444 152.237 410.015 155.022C412.207 155.674 414.43 156.326 416.622 157.007L414.311 164.148Z" fill="#6A2978"/>
</g>
<mask id="mask4_1012_933" style="mask-type:luminance" maskUnits="userSpaceOnUse" x="0" y="0" width="320" height="320">
<path d="M320 0H0V320H320V0Z" fill="white"/>
</mask>
<g mask="url(#mask4_1012_933)">
<path d="M413.333 186.4C407.022 182.044 399.881 179.941 392.356 177.748C382.281 174.815 371.881 171.763 363.111 162.993C354.341 154.222 351.289 143.822 348.356 133.748C345.541 124.178 342.904 115.141 335.496 107.704C328.089 100.296 319.022 97.6296 309.452 94.8444C299.407 91.9111 288.978 88.8592 280.207 80.0889C271.437 71.3185 268.385 60.9185 265.452 50.8444C262.637 41.274 260 32.2074 252.593 24.8C245.185 17.3926 236.119 14.7259 226.548 11.9407C216.474 9.00737 206.074 5.95552 197.304 -2.81485C188.504 -11.6149 185.481 -22.0149 182.519 -32.0889C180.326 -39.6149 178.222 -46.726 173.867 -53.0667L180.059 -57.3334C185.096 -50.0149 187.467 -41.9852 189.748 -34.2223C192.563 -24.6519 195.2 -15.6149 202.607 -8.17782C210.015 -0.770412 219.081 1.89626 228.652 4.68144C238.726 7.6444 249.126 10.6666 257.896 19.437C266.667 28.2074 269.719 38.6074 272.652 48.6814C275.467 58.2518 278.104 67.2888 285.511 74.7259C292.919 82.1333 301.985 84.8 311.556 87.5851C321.63 90.5481 332.03 93.5703 340.8 102.341C349.57 111.111 352.622 121.511 355.556 131.585C358.37 141.156 361.007 150.193 368.415 157.63C375.822 165.037 384.889 167.704 394.459 170.489C402.222 172.77 410.282 175.111 417.57 180.178L413.333 186.4Z" fill="#6A2978"/>
</g>
<mask id="mask5_1012_933" style="mask-type:luminance" maskUnits="userSpaceOnUse" x="0" y="0" width="320" height="320">
<path d="M320 0H0V320H320V0Z" fill="white"/>
</mask>
<g mask="url(#mask5_1012_933)">
<path d="M411.97 220.652C409.6 214.607 406.696 209.985 402.844 206.163C395.437 198.756 386.37 196.089 376.8 193.304C366.726 190.37 356.326 187.319 347.556 178.548C338.785 169.778 335.733 159.378 332.8 149.304C329.985 139.733 327.348 130.667 319.941 123.259C312.533 115.852 303.467 113.185 293.896 110.4C283.852 107.467 273.422 104.415 264.652 95.6445C255.882 86.8741 252.83 76.4741 249.896 66.4C247.082 56.8297 244.444 47.763 237.037 40.3556C229.63 32.9482 220.563 30.2815 210.993 27.4963C200.948 24.563 190.519 21.5112 181.748 12.7408C172.978 3.97041 169.926 -6.42959 166.993 -16.5037C164.178 -26.074 161.541 -35.1111 154.133 -42.5481C150.281 -46.4 145.689 -49.274 139.644 -51.674L142.4 -58.6666C149.452 -55.8814 154.874 -52.474 159.467 -47.8814C168.237 -39.1111 171.289 -28.7111 174.222 -18.637C177.037 -9.06662 179.674 -0.0295868 187.082 7.40745C194.489 14.8149 203.556 17.4815 213.126 20.2667C223.2 23.2 233.6 26.2519 242.37 35.0223C251.141 43.7926 254.193 54.1926 257.126 64.2667C259.941 73.8371 262.578 82.8741 269.985 90.3111C277.393 97.7186 286.459 100.385 296.03 103.17C306.104 106.104 316.504 109.156 325.274 117.926C334.044 126.696 337.096 137.096 340.03 147.17C342.844 156.741 345.481 165.778 352.889 173.215C360.296 180.622 369.363 183.289 378.933 186.074C389.007 189.007 399.407 192.059 408.178 200.83C412.77 205.422 416.207 210.844 418.963 217.896L411.97 220.652Z" fill="#6A2978"/>
</g>
<mask id="mask6_1012_933" style="mask-type:luminance" maskUnits="userSpaceOnUse" x="0" y="0" width="320" height="320">
<path d="M320 0H0V320H320V0Z" fill="white"/>
</mask>
<g mask="url(#mask6_1012_933)">
<path d="M412.593 274.459C405.57 266.252 402.815 256.83 400.148 247.763C397.333 238.193 394.696 229.156 387.289 221.719C379.881 214.311 370.815 211.644 361.244 208.859C351.17 205.926 340.77 202.874 332 194.104C323.23 185.333 320.178 174.933 317.244 164.859C314.43 155.289 311.793 146.252 304.385 138.815C296.978 131.407 287.911 128.741 278.341 125.956C268.267 123.022 257.867 119.97 249.096 111.2C240.326 102.43 237.274 92.0296 234.341 81.9556C231.526 72.3852 228.889 63.3482 221.481 55.9111C214.074 48.5037 205.007 45.8371 195.437 43.0519C185.363 40.1185 174.963 37.0667 166.193 28.2963C157.422 19.4667 154.37 9.06667 151.437 -0.977768C148.622 -10.5481 145.985 -19.5852 138.578 -27.0222C131.17 -34.4296 122.104 -37.0963 112.533 -39.8815C103.437 -42.5481 94.0444 -45.3037 85.837 -52.3259L90.7259 -58.0444C97.7185 -52.0592 105.956 -49.6593 114.667 -47.1111C124.741 -44.1778 135.141 -41.1259 143.911 -32.3555C152.681 -23.5852 155.733 -13.1852 158.667 -3.1111C161.481 6.45927 164.119 15.5259 171.526 22.9333C178.933 30.3408 187.97 33.0074 197.57 35.7926C207.644 38.7259 218.044 41.7778 226.815 50.5482C235.585 59.3185 238.637 69.7185 241.57 79.7926C244.385 89.363 247.022 98.4 254.43 105.837C261.837 113.244 270.904 115.911 280.474 118.696C290.548 121.63 300.948 124.681 309.719 133.452C318.489 142.222 321.541 152.622 324.474 162.696C327.289 172.267 329.926 181.304 337.333 188.741C344.741 196.148 353.807 198.815 363.378 201.6C373.452 204.533 383.852 207.585 392.622 216.356C401.393 225.126 404.444 235.526 407.378 245.6C409.926 254.311 412.356 262.548 418.311 269.541L412.593 274.459Z" fill="#6A2978"/>
</g>
<mask id="mask7_1012_933" style="mask-type:luminance" maskUnits="userSpaceOnUse" x="0" y="0" width="320" height="320">
<path d="M320 0H0V320H320V0Z" fill="white"/>
</mask>
<g mask="url(#mask7_1012_933)">
<path d="M413.926 302.281C408.148 299.733 403.378 296.533 399.378 292.533C390.607 283.763 387.556 273.363 384.622 263.289C381.807 253.719 379.17 244.681 371.763 237.244C364.356 229.837 355.289 227.17 345.719 224.385C335.674 221.452 325.244 218.4 316.474 209.63C307.704 200.859 304.652 190.459 301.719 180.385C298.904 170.815 296.267 161.778 288.859 154.341C281.452 146.933 272.385 144.267 262.815 141.481C252.77 138.548 242.341 135.496 233.57 126.726C224.8 117.956 221.748 107.556 218.815 97.4815C216 87.9111 213.363 78.8741 205.956 71.437C198.548 64.0296 189.482 61.363 179.911 58.5778C169.837 55.6444 159.437 52.5926 150.667 43.8222C141.896 35.0518 138.844 24.6518 135.911 14.5778C133.096 5.0074 130.459 -4.02963 123.052 -11.4667C115.644 -18.8741 106.578 -21.5407 97.0074 -24.3259C86.9333 -27.2593 76.5333 -30.3111 67.763 -39.0815C63.763 -43.0815 60.563 -47.8519 58.0148 -53.6296L64.8889 -56.6519C67.0815 -51.6741 69.6889 -47.763 73.0667 -44.3852C80.4741 -36.9778 89.5408 -34.3111 99.1111 -31.5259C109.185 -28.5926 119.585 -25.5407 128.356 -16.7704C137.096 -8.02963 140.148 2.37037 143.081 12.4444C145.896 22.0148 148.533 31.0518 155.941 38.4889C163.348 45.8963 172.415 48.563 181.985 51.3481C192.059 54.2815 202.459 57.3333 211.23 66.1037C220 74.8741 223.052 85.2741 225.985 95.3481C228.8 104.919 231.437 113.956 238.844 121.393C246.252 128.8 255.319 131.467 264.889 134.252C274.963 137.185 285.363 140.237 294.133 149.007C302.904 157.778 305.956 168.178 308.889 178.252C311.704 187.822 314.341 196.859 321.748 204.296C329.156 211.704 338.222 214.37 347.793 217.156C357.867 220.089 368.267 223.141 377.037 231.911C385.807 240.681 388.859 251.081 391.793 261.156C394.607 270.726 397.244 279.763 404.652 287.2C408.03 290.578 411.941 293.185 416.919 295.378L413.926 302.281Z" fill="#6A2978"/>
</g>
<mask id="mask8_1012_933" style="mask-type:luminance" maskUnits="userSpaceOnUse" x="0" y="0" width="320" height="320">
<path d="M320 0H0V320H320V0Z" fill="white"/>
</mask>
<g mask="url(#mask8_1012_933)">
<path d="M414.4 323.23L413.096 322.844C403.022 319.911 392.622 316.859 383.852 308.089C375.081 299.319 372.03 288.919 369.096 278.844C366.281 269.274 363.644 260.237 356.237 252.8C348.83 245.393 339.763 242.726 330.193 239.941C320.118 237.007 309.719 233.956 300.948 225.185C292.178 216.415 289.126 206.015 286.193 195.941C283.378 186.37 280.741 177.333 273.333 169.896C265.926 162.489 256.859 159.822 247.289 157.037C237.215 154.074 226.815 151.052 218.044 142.281C209.274 133.511 206.222 123.111 203.289 113.037C200.474 103.467 197.837 94.4296 190.43 86.9926C183.022 79.5852 173.985 76.9185 164.385 74.1333C154.311 71.2 143.911 68.1481 135.141 59.3778C126.37 50.6074 123.318 40.2074 120.385 30.1333C117.57 20.5629 114.933 11.5259 107.526 4.08887C100.119 -3.31854 91.0518 -5.98521 81.4815 -8.77039C71.4074 -11.7037 61.0074 -14.7556 52.237 -23.5259C43.4667 -32.2963 40.4148 -42.6963 37.4815 -52.7704L37.0963 -54.1037L44.2963 -56.2371L44.6815 -54.9037C47.4963 -45.3334 50.1333 -36.2963 57.5407 -28.8593C64.9481 -21.4519 74.0148 -18.7852 83.5852 -16C93.6592 -13.0667 104.059 -10.0148 112.83 -1.24446C121.6 7.52591 124.652 17.9259 127.585 28C130.4 37.5703 133.037 46.637 140.444 54.0444C147.852 61.4518 156.919 64.1185 166.489 66.9037C176.563 69.837 186.963 72.8889 195.733 81.6592C204.504 90.4296 207.556 100.83 210.489 110.904C213.304 120.474 215.941 129.541 223.348 136.948C230.756 144.356 239.822 147.022 249.393 149.807C259.437 152.741 269.867 155.793 278.637 164.563C287.407 173.333 290.459 183.733 293.393 193.807C296.207 203.378 298.844 212.444 306.252 219.852C313.659 227.259 322.726 229.926 332.296 232.711C342.341 235.644 352.77 238.696 361.541 247.467C370.311 256.237 373.363 266.637 376.296 276.711C379.111 286.281 381.748 295.348 389.156 302.756C396.563 310.163 405.63 312.83 415.2 315.615L416.533 316L414.4 323.23Z" fill="#6A2978"/>
</g>
<mask id="mask9_1012_933" style="mask-type:luminance" maskUnits="userSpaceOnUse" x="0" y="0" width="320" height="320">
<path d="M320 0H0V320H320V0Z" fill="white"/>
</mask>
<g mask="url(#mask9_1012_933)">
<path d="M413.748 344.207C408.652 341.63 403.259 340.03 397.511 338.37C387.467 335.437 377.037 332.385 368.267 323.615C359.496 314.844 356.444 304.444 353.511 294.37C350.696 284.8 348.059 275.733 340.652 268.326C333.244 260.918 324.178 258.252 314.607 255.467C304.533 252.533 294.133 249.481 285.363 240.711C276.593 231.941 273.541 221.541 270.607 211.467C267.793 201.896 265.156 192.859 257.748 185.422C250.341 178.015 241.274 175.348 231.704 172.563C221.63 169.63 211.23 166.578 202.459 157.807C193.689 149.037 190.637 138.637 187.704 128.563C184.889 118.993 182.252 109.956 174.844 102.518C167.437 95.1111 158.37 92.4444 148.8 89.6592C138.726 86.7259 128.326 83.674 119.556 74.9037C110.785 66.1333 107.733 55.7333 104.8 45.6592C101.985 36.0889 99.3481 27.0518 91.9407 19.6148C84.5333 12.2074 75.4667 9.54072 65.8963 6.75553C55.8222 3.8222 45.4222 0.770344 36.6519 -8.00003C27.8815 -16.7704 24.8296 -27.1704 21.8963 -37.2445C20.2074 -42.963 18.637 -48.3852 16.0593 -53.4815L22.7259 -56.8889C25.6296 -51.1704 27.3778 -45.1852 29.0667 -39.3778C31.8815 -29.8074 34.5185 -20.7704 41.9259 -13.3334C49.3333 -5.92595 58.4 -3.25929 67.9704 -0.474102C78.0444 2.45923 88.4445 5.51108 97.2148 14.2815C105.985 23.0518 109.037 33.4518 111.97 43.5259C114.785 53.0963 117.422 62.1629 124.83 69.5703C132.237 76.9778 141.304 79.6444 150.874 82.4296C160.948 85.3629 171.348 88.4148 180.119 97.1852C188.889 105.956 191.941 116.356 194.874 126.43C197.689 136 200.326 145.037 207.733 152.474C215.141 159.881 224.207 162.548 233.778 165.333C243.852 168.267 254.252 171.318 263.022 180.089C271.793 188.859 274.844 199.259 277.778 209.333C280.593 218.904 283.23 227.941 290.637 235.378C298.044 242.785 307.111 245.452 316.681 248.237C326.756 251.17 337.156 254.222 345.926 262.993C354.696 271.763 357.748 282.163 360.682 292.237C363.496 301.807 366.133 310.844 373.541 318.281C380.948 325.689 390.015 328.356 399.585 331.141C405.393 332.83 411.378 334.607 417.096 337.481L413.748 344.207Z" fill="#6A2978"/>
</g>
<mask id="mask10_1012_933" style="mask-type:luminance" maskUnits="userSpaceOnUse" x="0" y="0" width="320" height="320">
<path d="M320 0H0V320H320V0Z" fill="white"/>
</mask>
<g mask="url(#mask10_1012_933)">
<path d="M412.356 372.03C411.052 370.133 409.63 368.415 408.03 366.815C400.622 359.407 391.556 356.741 381.985 353.955C371.911 351.022 361.511 347.97 352.741 339.2C343.97 330.43 340.918 320.03 337.985 309.955C335.17 300.385 332.533 291.348 325.126 283.911C317.719 276.504 308.652 273.837 299.081 271.052C289.007 268.118 278.607 265.067 269.837 256.296C261.067 247.526 258.015 237.126 255.081 227.052C252.267 217.481 249.63 208.444 242.222 201.007C234.815 193.6 225.748 190.933 216.178 188.148C206.104 185.215 195.704 182.163 186.933 173.393C178.163 164.622 175.111 154.222 172.178 144.148C169.363 134.578 166.726 125.541 159.319 118.104C151.911 110.696 142.844 108.03 133.274 105.244C123.2 102.311 112.8 99.2592 104.03 90.4889C95.2593 81.7185 92.2074 71.3185 89.2741 61.2444C86.4593 51.674 83.8222 42.6074 76.4148 35.2C69.0074 27.7926 59.9407 25.1259 50.3704 22.3407C40.2963 19.4074 29.8963 16.3555 21.1259 7.58517C12.3259 -1.24446 9.27407 -11.6741 6.34074 -21.7185C3.52592 -31.2889 0.888885 -40.3556 -6.51852 -47.763C-8.11852 -49.363 -9.83704 -50.7852 -11.7333 -52.0889L-7.4963 -58.2815C-5.24445 -56.7408 -3.11112 -54.9926 -1.18519 -53.0667C7.58518 -44.2963 10.637 -33.8963 13.5704 -23.8222C16.3852 -14.2519 19.0222 -5.1852 26.4296 2.2222C33.837 9.62961 42.9037 12.2963 52.4741 15.0815C62.5481 18.0148 72.9481 21.0666 81.7185 29.837C90.4889 38.6074 93.5407 49.0074 96.4741 59.0815C99.2889 68.6518 101.926 77.6889 109.333 85.1259C116.741 92.5333 125.807 95.2 135.378 97.9852C145.452 100.919 155.852 103.97 164.622 112.741C173.393 121.511 176.444 131.911 179.378 141.985C182.193 151.556 184.83 160.593 192.237 168.03C199.644 175.437 208.711 178.104 218.281 180.889C228.356 183.822 238.756 186.874 247.526 195.644C256.296 204.415 259.348 214.815 262.281 224.889C265.096 234.459 267.733 243.496 275.141 250.933C282.548 258.341 291.615 261.007 301.185 263.793C311.259 266.726 321.659 269.778 330.43 278.548C339.2 287.318 342.252 297.718 345.185 307.793C348 317.363 350.637 326.4 358.044 333.837C365.452 341.244 374.519 343.911 384.089 346.696C394.163 349.63 404.563 352.681 413.333 361.452C415.259 363.378 417.007 365.481 418.548 367.763L412.356 372.03Z" fill="#6A2978"/>
</g>
<mask id="mask11_1012_933" style="mask-type:luminance" maskUnits="userSpaceOnUse" x="0" y="0" width="320" height="320">
<path d="M320 0H0V320H320V0Z" fill="white"/>
</mask>
<g mask="url(#mask11_1012_933)">
<path d="M407.348 414.993C406.637 412.8 405.985 410.607 405.363 408.385C402.548 398.815 399.911 389.778 392.504 382.341C385.096 374.933 376.03 372.267 366.459 369.481C356.385 366.548 345.985 363.496 337.215 354.726C328.444 345.956 325.393 335.556 322.459 325.481C319.644 315.911 317.007 306.874 309.6 299.437C302.193 292.03 293.126 289.363 283.556 286.578C273.481 283.644 263.081 280.593 254.311 271.822C245.541 263.052 242.489 252.652 239.556 242.578C236.741 233.007 234.104 223.97 226.696 216.533C219.289 209.126 210.222 206.459 200.652 203.674C190.578 200.741 180.178 197.689 171.407 188.918C162.637 180.148 159.585 169.748 156.652 159.674C153.837 150.104 151.2 141.067 143.793 133.63C136.385 126.222 127.319 123.556 117.748 120.77C107.674 117.837 97.2741 114.785 88.5037 106.015C79.7037 97.1851 76.6519 86.7852 73.6889 76.7407C70.8741 67.1703 68.237 58.1037 60.8296 50.6963C53.4222 43.2889 44.3556 40.6222 34.7852 37.837C24.7111 34.9037 14.3111 31.8518 5.54074 23.0814C-3.22963 14.3111 -6.28148 3.91108 -9.21481 -6.163C-12.0296 -15.7334 -14.6667 -24.7704 -22.0741 -32.2074C-29.4815 -39.6149 -38.5481 -42.2815 -48.1185 -45.0667C-50.3111 -45.7186 -52.5333 -46.3704 -54.7259 -47.0519L-52.4148 -54.1926C-50.2815 -53.5111 -48.1481 -52.8889 -46.0148 -52.2667C-35.9407 -49.3334 -25.5407 -46.2815 -16.7704 -37.5111C-7.99999 -28.7408 -4.94815 -18.3408 -2.01481 -8.29633C0.800003 1.27404 3.46667 10.3407 10.8741 17.7481C18.2815 25.1555 27.3482 27.8222 36.9185 30.6074C46.9926 33.5407 57.3926 36.5926 66.163 45.3629C74.9333 54.1333 77.9852 64.5333 80.9185 74.6074C83.7333 84.1777 86.3704 93.2148 93.7778 100.652C101.185 108.059 110.252 110.726 119.822 113.511C129.896 116.444 140.296 119.496 149.067 128.267C157.837 137.037 160.889 147.437 163.822 157.511C166.637 167.081 169.274 176.118 176.681 183.556C184.089 190.963 193.156 193.63 202.726 196.415C212.8 199.348 223.2 202.4 231.97 211.17C240.741 219.941 243.793 230.341 246.726 240.415C249.541 249.985 252.178 259.022 259.585 266.459C266.993 273.867 276.059 276.533 285.63 279.318C295.704 282.252 306.104 285.304 314.874 294.074C323.644 302.844 326.696 313.244 329.63 323.318C332.444 332.889 335.081 341.926 342.489 349.363C349.896 356.77 358.963 359.437 368.533 362.222C378.607 365.156 389.007 368.207 397.778 376.978C406.548 385.748 409.6 396.148 412.533 406.222C413.156 408.356 413.778 410.518 414.459 412.622L407.348 414.993Z" fill="#6A2978"/>
</g>
<mask id="mask12_1012_933" style="mask-type:luminance" maskUnits="userSpaceOnUse" x="0" y="0" width="320" height="320">
<path d="M320 0H0V320H320V0Z" fill="white"/>
</mask>
<g mask="url(#mask12_1012_933)">
<path d="M387.052 415.081C385.274 410.015 382.518 403.496 376.948 397.896C369.541 390.489 360.474 387.822 350.904 385.037C340.859 382.104 330.43 379.052 321.659 370.281C312.889 361.511 309.837 351.111 306.904 341.037C304.089 331.467 301.452 322.43 294.044 314.993C286.637 307.585 277.57 304.918 268 302.133C257.926 299.2 247.526 296.148 238.756 287.378C229.985 278.607 226.933 268.207 224 258.133C221.185 248.563 218.548 239.526 211.141 232.089C203.733 224.681 194.667 222.015 185.096 219.23C175.052 216.296 164.622 213.244 155.852 204.474C147.081 195.704 144.03 185.304 141.096 175.23C138.281 165.659 135.644 156.622 128.237 149.185C120.83 141.778 111.763 139.111 102.193 136.326C92.1481 133.363 81.7185 130.341 72.9482 121.57C64.1778 112.8 61.1259 102.4 58.1926 92.3259C55.3778 82.7555 52.7407 73.6889 45.3333 66.2814C37.9259 58.874 28.8593 56.2074 19.2889 53.4222C9.21481 50.4592 -1.18519 47.437 -9.95556 38.6666C-18.7259 29.8963 -21.7778 19.4963 -24.7111 9.42219C-27.5556 -0.207439 -30.2222 -9.24448 -37.6296 -16.6815C-43.2 -22.2519 -49.7482 -25.0074 -54.8148 -26.7852L-52.3259 -33.8667C-46.5185 -31.8223 -38.963 -28.6519 -32.3259 -21.9852C-23.5556 -13.2148 -20.5037 -2.81485 -17.5704 7.25923C-14.7556 16.8296 -12.1185 25.8666 -4.71111 33.3037C2.69629 40.7111 11.763 43.3777 21.3333 46.1629C31.4074 49.0963 41.8074 52.1481 50.5778 60.9185C59.3481 69.6889 62.4 80.0889 65.3333 90.1629C68.1481 99.7333 70.7852 108.77 78.1926 116.207C85.6 123.615 94.6667 126.281 104.237 129.067C114.311 132 124.711 135.052 133.481 143.822C142.252 152.593 145.304 162.993 148.237 173.067C151.052 182.637 153.689 191.704 161.096 199.111C168.504 206.518 177.57 209.185 187.141 211.97C197.215 214.904 207.615 217.956 216.385 226.726C225.156 235.496 228.207 245.896 231.141 255.97C233.956 265.541 236.593 274.607 244 282.015C251.407 289.422 260.474 292.089 270.044 294.874C280.119 297.807 290.519 300.859 299.289 309.63C308.059 318.4 311.111 328.8 314.044 338.874C316.859 348.444 319.496 357.511 326.904 364.918C334.311 372.326 343.378 374.993 352.948 377.778C363.022 380.711 373.422 383.763 382.193 392.533C388.859 399.2 392.03 406.726 394.074 412.533L387.052 415.081Z" fill="#6A2978"/>
</g>
<mask id="mask13_1012_933" style="mask-type:luminance" maskUnits="userSpaceOnUse" x="0" y="0" width="320" height="320">
<path d="M320 0H0V320H320V0Z" fill="white"/>
</mask>
<g mask="url(#mask13_1012_933)">
<path d="M363.881 416.207C363.111 415.259 362.281 414.311 361.393 413.452C353.985 406.044 344.919 403.378 335.348 400.593C325.274 397.659 314.874 394.607 306.104 385.837C297.333 377.067 294.281 366.667 291.348 356.593C288.533 347.022 285.896 337.956 278.489 330.548C271.081 323.141 262.015 320.474 252.444 317.689C242.37 314.756 231.97 311.704 223.2 302.933C214.43 294.163 211.378 283.763 208.444 273.689C205.63 264.119 202.993 255.052 195.585 247.644C188.178 240.237 179.111 237.57 169.541 234.785C159.467 231.852 149.067 228.8 140.296 220.03C131.526 211.259 128.474 200.859 125.541 190.785C122.726 181.215 120.089 172.148 112.682 164.741C105.274 157.333 96.2074 154.667 86.6371 151.882C76.563 148.948 66.163 145.896 57.3926 137.126C48.6222 128.356 45.5704 117.956 42.637 107.882C39.8222 98.3111 37.1852 89.2445 29.7778 81.8371C22.3704 74.4296 13.3037 71.763 3.73335 68.9778C-6.34072 66.0148 -16.7407 62.9926 -25.5111 54.2222C-34.2815 45.4519 -37.3333 35.0519 -40.2667 24.9778C-43.0815 15.4074 -45.7185 6.37039 -53.1259 -1.06665C-54.0148 -1.95554 -54.9333 -2.78517 -55.8815 -3.55554L-51.1407 -9.39258C-49.9852 -8.44443 -48.8592 -7.43702 -47.7926 -6.37036C-39.0815 2.34076 -36.0296 12.7408 -33.0963 22.8148C-30.2815 32.3852 -27.6444 41.4519 -20.237 48.8593C-12.8296 56.2667 -3.76295 58.9333 5.80742 61.7185C15.8815 64.6519 26.2815 67.7037 35.0519 76.4741C43.8222 85.2445 46.8741 95.6445 49.8074 105.719C52.6222 115.289 55.2593 124.326 62.6667 131.763C70.0741 139.17 79.1407 141.837 88.7111 144.622C98.7852 147.556 109.185 150.607 117.956 159.378C126.726 168.148 129.778 178.548 132.711 188.622C135.526 198.193 138.163 207.23 145.57 214.667C152.978 222.074 162.044 224.741 171.615 227.526C181.689 230.459 192.089 233.511 200.859 242.282C209.63 251.052 212.682 261.452 215.615 271.526C218.43 281.096 221.067 290.133 228.474 297.57C235.881 304.978 244.948 307.644 254.519 310.43C264.593 313.363 274.993 316.415 283.763 325.185C292.533 333.956 295.585 344.356 298.519 354.43C301.333 364 303.97 373.037 311.378 380.474C318.785 387.881 327.852 390.548 337.422 393.333C347.496 396.267 357.896 399.319 366.667 408.089C367.733 409.156 368.741 410.281 369.689 411.437L363.881 416.207Z" fill="#6A2978"/>
</g>
<mask id="mask14_1012_933" style="mask-type:luminance" maskUnits="userSpaceOnUse" x="0" y="0" width="320" height="320">
<path d="M320 0H0V320H320V0Z" fill="white"/>
</mask>
<g mask="url(#mask14_1012_933)">
<path d="M324.207 417.422C322.756 416.978 321.274 416.533 319.822 416.118C309.778 413.185 299.348 410.133 290.578 401.363C281.807 392.593 278.756 382.193 275.822 372.118C273.007 362.548 270.37 353.481 262.963 346.074C255.556 338.667 246.489 336 236.918 333.215C226.844 330.281 216.444 327.23 207.674 318.459C198.904 309.689 195.852 299.289 192.919 289.215C190.104 279.644 187.467 270.578 180.059 263.17C172.652 255.763 163.585 253.096 154.015 250.311C143.941 247.378 133.541 244.326 124.77 235.556C116 226.785 112.948 216.385 110.015 206.311C107.2 196.741 104.563 187.674 97.1555 180.267C89.7481 172.859 80.6815 170.193 71.1111 167.407C61.037 164.474 50.637 161.422 41.8667 152.652C33.0963 143.881 30.0444 133.481 27.1111 123.407C24.2963 113.837 21.6592 104.8 14.2518 97.3629C6.84443 89.9555 -2.22224 87.2889 -11.7926 84.5037C-21.8667 81.5704 -32.2667 78.5185 -41.0371 69.7481C-49.8074 60.9778 -52.8593 50.5778 -55.7926 40.5037C-56.2371 39.0222 -56.6519 37.5703 -57.0963 36.1185L-49.9259 33.9259C-49.4815 35.4074 -49.0371 36.9185 -48.5926 38.4C-45.7778 47.9703 -43.1408 57.0074 -35.7334 64.4444C-28.3259 71.8518 -19.2593 74.5185 -9.6889 77.3037C0.38517 80.237 10.7852 83.2889 19.5555 92.0592C28.3259 100.83 31.3778 111.23 34.3111 121.304C37.1259 130.874 39.7629 139.911 47.1703 147.348C54.5778 154.756 63.6444 157.422 73.2148 160.207C83.2889 163.141 93.6889 166.193 102.459 174.963C111.23 183.733 114.281 194.133 117.215 204.207C120.03 213.778 122.667 222.815 130.074 230.252C137.481 237.659 146.548 240.326 156.119 243.111C166.193 246.044 176.593 249.096 185.363 257.867C194.133 266.637 197.185 277.037 200.118 287.111C202.933 296.681 205.57 305.748 212.978 313.156C220.385 320.563 229.422 323.23 239.022 326.015C249.067 328.948 259.496 332 268.267 340.77C277.037 349.541 280.089 359.941 283.022 370.015C285.837 379.585 288.474 388.622 295.881 396.059C303.289 403.467 312.356 406.133 321.926 408.918C323.437 409.363 324.918 409.807 326.43 410.252L324.207 417.422Z" fill="#6A2978"/>
</g>
<mask id="mask15_1012_933" style="mask-type:luminance" maskUnits="userSpaceOnUse" x="0" y="0" width="320" height="320">
<path d="M320 0H0V320H320V0Z" fill="white"/>
</mask>
<g mask="url(#mask15_1012_933)">
<path d="M274.578 416.444C266.133 407.763 263.141 397.541 260.237 387.644C257.422 378.074 254.785 369.007 247.378 361.6C239.97 354.193 230.904 351.526 221.333 348.741C211.259 345.807 200.859 342.756 192.089 333.985C183.319 325.215 180.267 314.815 177.333 304.741C174.519 295.17 171.881 286.133 164.474 278.696C157.067 271.289 148 268.622 138.43 265.837C128.356 262.904 117.956 259.852 109.185 251.081C100.415 242.311 97.363 231.911 94.4296 221.837C91.6148 212.267 88.9778 203.23 81.5704 195.793C74.163 188.385 65.0963 185.718 55.5259 182.933C45.4519 180 35.0519 176.948 26.2815 168.178C17.5111 159.407 14.4593 149.007 11.5259 138.933C8.71112 129.333 6.07408 120.296 -1.36296 112.889C-8.77036 105.481 -17.837 102.815 -27.4074 100.03C-37.3037 97.1259 -47.5259 94.1333 -56.2074 85.6889L-50.963 80.2963C-43.6148 87.437 -34.7259 90.0444 -25.3037 92.8C-15.2296 95.7333 -4.82962 98.7852 3.94075 107.556C12.7111 116.326 15.763 126.726 18.6963 136.8C21.5111 146.37 24.1482 155.407 31.5556 162.844C38.963 170.252 48.0296 172.918 57.6 175.704C67.6741 178.637 78.0741 181.689 86.8445 190.459C95.6148 199.23 98.6667 209.63 101.6 219.704C104.415 229.274 107.052 238.311 114.459 245.748C121.867 253.156 130.933 255.822 140.504 258.607C150.578 261.541 160.978 264.593 169.748 273.363C178.519 282.133 181.57 292.533 184.504 302.607C187.319 312.178 189.956 321.215 197.363 328.652C204.77 336.059 213.837 338.726 223.407 341.511C233.482 344.444 243.882 347.496 252.652 356.267C261.422 365.037 264.474 375.437 267.407 385.511C270.163 394.933 272.77 403.822 279.911 411.17L274.578 416.444Z" fill="#6A2978"/>
</g>
<mask id="mask16_1012_933" style="mask-type:luminance" maskUnits="userSpaceOnUse" x="0" y="0" width="320" height="320">
<path d="M320 0H0V320H320V0Z" fill="white"/>
</mask>
<g mask="url(#mask16_1012_933)">
<path d="M248.622 415.2C247.082 411.23 245.867 407.141 244.711 403.2C241.896 393.63 239.259 384.563 231.852 377.156C224.444 369.748 215.378 367.082 205.807 364.296C195.733 361.363 185.333 358.311 176.563 349.541C167.793 340.77 164.741 330.37 161.807 320.296C158.993 310.726 156.356 301.689 148.948 294.252C141.541 286.844 132.474 284.178 122.904 281.393C112.83 278.459 102.43 275.407 93.6593 266.637C84.8889 257.867 81.8371 247.467 78.9037 237.393C76.0889 227.822 73.4519 218.785 66.0445 211.348C58.637 203.941 49.5704 201.274 40 198.489C29.9259 195.556 19.5259 192.504 10.7556 183.733C1.9852 174.963 -1.06665 164.563 -3.99999 154.489C-6.84443 144.889 -9.48147 135.852 -16.8889 128.444C-24.2963 121.037 -33.3629 118.37 -42.9333 115.585C-46.8741 114.43 -50.9629 113.244 -54.9333 111.674L-52.2074 104.682C-48.5333 106.104 -44.8 107.2 -40.8296 108.385C-30.7555 111.319 -20.3555 114.37 -11.5852 123.141C-2.8148 131.911 0.237049 142.311 3.17038 152.385C5.9852 161.956 8.62224 171.022 16.0296 178.43C23.437 185.837 32.5037 188.504 42.0741 191.289C52.1482 194.222 62.5482 197.274 71.3185 206.044C80.0889 214.815 83.1407 225.215 86.0741 235.289C88.8889 244.859 91.5259 253.896 98.9333 261.333C106.341 268.741 115.407 271.407 124.978 274.193C135.052 277.126 145.452 280.178 154.222 288.948C162.993 297.719 166.044 308.119 168.978 318.193C171.793 327.763 174.43 336.8 181.837 344.237C189.244 351.645 198.311 354.311 207.882 357.096C217.956 360.03 228.356 363.082 237.126 371.852C245.896 380.622 248.948 391.022 251.882 401.096C253.037 405.067 254.133 408.8 255.585 412.474L248.622 415.2Z" fill="#6A2978"/>
</g>
<mask id="mask17_1012_933" style="mask-type:luminance" maskUnits="userSpaceOnUse" x="0" y="0" width="320" height="320">
<path d="M320 0H0V320H320V0Z" fill="white"/>
</mask>
<g mask="url(#mask17_1012_933)">
<path d="M228.03 414.933C225.719 407.318 222.933 399.348 216.296 392.711C208.889 385.304 199.822 382.637 190.252 379.852C180.178 376.889 169.778 373.867 161.007 365.096C152.237 356.326 149.185 345.926 146.252 335.852C143.437 326.281 140.8 317.244 133.393 309.807C125.985 302.4 116.919 299.733 107.348 296.948C97.2741 294.015 86.8741 290.963 78.1037 282.193C69.3333 273.422 66.2815 263.022 63.3482 252.948C60.5333 243.378 57.8963 234.341 50.4889 226.904C43.0815 219.496 34.0148 216.83 24.4445 214.044C14.3704 211.111 3.97038 208.059 -4.79999 199.289C-13.5704 190.518 -16.6222 180.119 -19.5555 170.044C-22.3704 160.474 -25.0074 151.437 -32.4148 144C-39.0518 137.363 -47.0222 134.578 -54.637 132.267L-52.4444 125.067C-44.2963 127.526 -34.963 130.815 -27.1111 138.667C-18.3407 147.437 -15.2889 157.837 -12.3555 167.911C-9.54073 177.481 -6.9037 186.518 0.503708 193.956C7.91112 201.363 16.9778 204.03 26.5482 206.815C36.6222 209.748 47.0222 212.8 55.7926 221.57C64.563 230.341 67.6148 240.741 70.5481 250.815C73.363 260.385 76 269.452 83.4074 276.859C90.8148 284.267 99.8815 286.933 109.452 289.718C119.526 292.652 129.926 295.704 138.696 304.474C147.467 313.244 150.519 323.644 153.452 333.719C156.267 343.289 158.904 352.356 166.311 359.763C173.718 367.17 182.785 369.837 192.356 372.622C202.4 375.556 212.83 378.607 221.6 387.378C229.452 395.23 232.741 404.563 235.2 412.711L228.03 414.933Z" fill="#6A2978"/>
</g>
<mask id="mask18_1012_933" style="mask-type:luminance" maskUnits="userSpaceOnUse" x="0" y="0" width="320" height="320">
<path d="M320 0H0V320H320V0Z" fill="white"/>
</mask>
<g mask="url(#mask18_1012_933)">
<path d="M206.489 415.733C204.83 412.918 202.963 410.489 200.741 408.267C193.333 400.859 184.267 398.193 174.696 395.407C164.622 392.474 154.222 389.422 145.452 380.652C136.681 371.881 133.63 361.481 130.696 351.407C127.881 341.837 125.244 332.8 117.837 325.363C110.43 317.956 101.363 315.289 91.7926 312.504C81.7185 309.57 71.3185 306.518 62.5481 297.748C53.7778 288.978 50.7259 278.578 47.7926 268.504C44.9778 258.933 42.3407 249.896 34.9333 242.459C27.5259 235.052 18.4593 232.385 8.88889 229.6C-1.18519 226.667 -11.5852 223.615 -20.3556 214.844C-29.1259 206.074 -32.1778 195.674 -35.1111 185.6C-37.9259 176.03 -40.563 166.993 -47.9704 159.556C-50.1926 157.333 -52.6222 155.467 -55.437 153.807L-51.6444 147.318C-48.2667 149.304 -45.3333 151.556 -42.6667 154.222C-33.8963 162.993 -30.8444 173.393 -27.9111 183.467C-25.0963 193.037 -22.4593 202.074 -15.0519 209.511C-7.64445 216.918 1.39259 219.585 10.9926 222.37C21.0667 225.304 31.4667 228.356 40.237 237.126C49.0074 245.896 52.0593 256.296 54.9926 266.37C57.8074 275.941 60.4444 284.978 67.8519 292.415C75.2593 299.822 84.3259 302.489 93.8963 305.274C103.941 308.207 114.37 311.259 123.141 320.03C131.911 328.8 134.963 339.2 137.896 349.274C140.711 358.844 143.348 367.881 150.756 375.318C158.163 382.726 167.23 385.393 176.8 388.178C186.874 391.111 197.274 394.163 206.044 402.933C208.711 405.6 210.993 408.533 212.948 411.911L206.489 415.733Z" fill="#6A2978"/>
</g>
<mask id="mask19_1012_933" style="mask-type:luminance" maskUnits="userSpaceOnUse" x="0" y="0" width="320" height="320">
<path d="M320 0H0V320H320V0Z" fill="white"/>
</mask>
<g mask="url(#mask19_1012_933)">
<path d="M176.119 417.156C170.844 414.341 165.156 412.681 159.17 410.933C149.096 408 138.696 404.948 129.926 396.178C121.156 387.407 118.104 377.007 115.17 366.933C112.356 357.363 109.719 348.296 102.311 340.889C94.9037 333.481 85.837 330.815 76.2667 328.03C66.1926 325.096 55.7926 322.044 47.0222 313.274C38.2519 304.504 35.2 294.104 32.2667 284.03C29.4519 274.459 26.8148 265.422 19.4074 257.985C12 250.578 2.93334 247.911 -6.63703 245.126C-16.7111 242.193 -27.1111 239.141 -35.8815 230.37C-44.6518 221.6 -47.7037 211.2 -50.637 201.126C-52.3852 195.141 -54.0444 189.481 -56.8593 184.178L-50.2222 180.652C-47.0518 186.607 -45.2148 192.919 -43.437 198.993C-40.6222 208.563 -37.9852 217.6 -30.5778 225.037C-23.1704 232.444 -14.1037 235.111 -4.53333 237.896C5.54074 240.83 15.9407 243.881 24.7111 252.652C33.4815 261.422 36.5333 271.822 39.4667 281.896C42.2815 291.467 44.9185 300.533 52.3259 307.941C59.7333 315.348 68.8 318.015 78.3704 320.8C88.4444 323.733 98.8445 326.785 107.615 335.556C116.385 344.326 119.437 354.726 122.37 364.8C125.185 374.37 127.822 383.407 135.23 390.844C142.637 398.252 151.704 400.919 161.274 403.704C167.378 405.481 173.659 407.348 179.615 410.489L176.119 417.156Z" fill="#6A2978"/>
</g>
<mask id="mask20_1012_933" style="mask-type:luminance" maskUnits="userSpaceOnUse" x="0" y="0" width="320" height="320">
<path d="M320 0H0V320H320V0Z" fill="white"/>
</mask>
<g mask="url(#mask20_1012_933)">
<path d="M120.681 416.918C118.43 415.378 116.296 413.63 114.37 411.704C105.6 402.933 102.548 392.533 99.6148 382.459C96.8 372.889 94.1629 363.852 86.7555 356.415C79.3481 349.007 70.2815 346.341 60.7111 343.556C50.637 340.622 40.237 337.57 31.4667 328.8C22.6963 320.03 19.6444 309.63 16.7111 299.556C13.8963 289.985 11.2592 280.948 3.85184 273.511C-3.55556 266.104 -12.6222 263.437 -22.1926 260.652C-32.2667 257.719 -42.6667 254.667 -51.437 245.896C-53.363 243.97 -55.1111 241.867 -56.6519 239.585L-50.4593 235.348C-49.1556 237.244 -47.7333 238.963 -46.1333 240.563C-38.7259 247.97 -29.6593 250.637 -20.0889 253.422C-10.0148 256.356 0.385174 259.407 9.15554 268.178C17.9259 276.948 20.9778 287.348 23.9111 297.422C26.7259 306.993 29.3629 316.03 36.7704 323.467C44.1778 330.874 53.2444 333.541 62.8148 336.326C72.8889 339.259 83.2889 342.311 92.0592 351.081C100.83 359.852 103.881 370.252 106.815 380.326C109.63 389.896 112.267 398.933 119.674 406.37C121.274 407.97 122.993 409.393 124.918 410.696L120.681 416.918Z" fill="#6A2978"/>
</g>
<mask id="mask21_1012_933" style="mask-type:luminance" maskUnits="userSpaceOnUse" x="0" y="0" width="320" height="320">
<path d="M320 0H0V320H320V0Z" fill="white"/>
</mask>
<g mask="url(#mask21_1012_933)">
<path d="M90.4296 415.526C87.5259 409.807 85.7778 403.822 84.0889 398.015C81.2741 388.444 78.6371 379.407 71.2296 371.97C63.8222 364.563 54.7556 361.896 45.1852 359.111C35.1111 356.178 24.7111 353.126 15.9408 344.356C7.17038 335.585 4.11853 325.185 1.1852 315.111C-1.62962 305.541 -4.26665 296.504 -11.6741 289.067C-19.0815 281.659 -28.1481 278.993 -37.7185 276.207C-43.5259 274.519 -49.5111 272.741 -55.2296 269.867L-51.8222 263.17C-46.7259 265.748 -41.3333 267.348 -35.5852 269.007C-25.5111 271.941 -15.1111 274.993 -6.34072 283.763C2.42965 292.533 5.48149 302.933 8.41483 313.007C11.2296 322.578 13.8667 331.615 21.2741 339.052C28.6815 346.459 37.7482 349.126 47.3185 351.911C57.3926 354.844 67.7926 357.896 76.563 366.667C85.3333 375.437 88.3852 385.837 91.3185 395.911C93.0074 401.63 94.5778 407.052 97.1556 412.148L90.4296 415.526Z" fill="#6A2978"/>
</g>
<mask id="mask22_1012_933" style="mask-type:luminance" maskUnits="userSpaceOnUse" x="0" y="0" width="320" height="320">
<path d="M320 0H0V320H320V0Z" fill="white"/>
</mask>
<g mask="url(#mask22_1012_933)">
<path d="M68.9185 414.874L68.5333 413.541C65.7185 403.97 63.0815 394.904 55.674 387.496C48.2666 380.089 39.2 377.422 29.6296 374.637C19.5555 371.704 9.15554 368.652 0.385166 359.882C-8.3852 351.111 -11.4371 340.711 -14.3704 330.637C-17.1852 321.067 -19.8222 312.03 -27.2296 304.593C-34.6371 297.185 -43.7037 294.519 -53.2741 291.733L-54.6074 291.348L-52.5037 284.148L-51.2 284.533C-41.1259 287.467 -30.7259 290.519 -21.9556 299.289C-13.1852 308.059 -10.1334 318.459 -7.20002 328.533C-4.3852 338.104 -1.74817 347.141 5.65924 354.578C13.0667 361.985 22.1333 364.652 31.7037 367.437C41.7777 370.37 52.1777 373.422 60.9481 382.193C69.7185 390.963 72.7703 401.363 75.7037 411.437L76.0889 412.741L68.9185 414.874Z" fill="#6A2978"/>
</g>
<mask id="mask23_1012_933" style="mask-type:luminance" maskUnits="userSpaceOnUse" x="0" y="0" width="320" height="320">
<path d="M320 0H0V320H320V0Z" fill="white"/>
</mask>
<g mask="url(#mask23_1012_933)">
<path d="M48.2963 415.348C46.1037 410.37 43.4963 406.459 40.1185 403.082C32.7111 395.674 23.6444 393.007 14.0741 390.222C4 387.289 -6.39999 384.237 -15.1704 375.467C-23.9407 366.696 -26.9926 356.296 -29.9259 346.222C-32.7407 336.652 -35.3778 327.615 -42.7852 320.178C-46.163 316.8 -50.0741 314.193 -55.0518 312L-52.0296 305.126C-46.2519 307.674 -41.4815 310.874 -37.4815 314.874C-28.7111 323.644 -25.6593 334.044 -22.7259 344.119C-19.9111 353.689 -17.2741 362.726 -9.86666 370.163C-2.45926 377.57 6.60741 380.237 16.1778 383.022C26.2519 385.956 36.6519 389.007 45.4222 397.778C49.4519 401.778 52.6222 406.548 55.1704 412.326L48.2963 415.348Z" fill="#6A2978"/>
</g>
</g>
<defs>
<clipPath id="clip0_1012_933">
<rect width="320" height="320" fill="white"/>
</clipPath>
</defs>
</svg>
