<svg width="200" height="200" viewBox="0 0 200 200" fill="none" xmlns="http://www.w3.org/2000/svg">
<g clip-path="url(#clip0_1012_1073)">
<path d="M200 100C200 155.222 155.222 200 100 200C44.7778 200 0 155.222 0 100C0 44.7778 44.7778 0 100 0C155.222 0 200 44.7778 200 100Z" fill="#FFE66E"/>
<path d="M60.1296 82.3889H56.8704V118.574H60.1296V82.3889Z" fill="#6A2979"/>
<path d="M65.1558 126.013L63.5262 128.835L94.0286 146.447L95.6583 143.624L65.1558 126.013Z" fill="#6A2979"/>
<path d="M135.532 125.588L104.34 143.601L105.97 146.423L137.162 128.41L135.532 125.588Z" fill="#6A2979"/>
<path d="M143.111 82.5186H139.852V118.296H143.111V82.5186Z" fill="#6A2979"/>
<path d="M105.978 53.7478L104.349 56.5703L134.787 74.1444L136.417 71.3219L105.978 53.7478Z" fill="#6A2979"/>
<path d="M93.6475 53.9578L63.2448 71.5204L64.875 74.3426L95.2777 56.78L93.6475 53.9578Z" fill="#6A2979"/>
<path d="M65.0298 78.041L63.4001 80.8635L80.5598 90.7709L82.1894 87.9484L65.0298 78.041Z" fill="#6A2979"/>
<path d="M121.171 110.43L119.542 113.253L135.324 122.362L136.954 119.539L121.171 110.43Z" fill="#6A2979"/>
<path d="M135.154 77.8998L119.728 86.8108L121.359 89.633L136.784 80.722L135.154 77.8998Z" fill="#6A2979"/>
<path d="M80.2761 109.591L63.1807 119.463L64.8106 122.286L81.9061 112.414L80.2761 109.591Z" fill="#6A2979"/>
<path d="M101.63 58.0186H98.3704V77.2037H101.63V58.0186Z" fill="#6A2979"/>
<path d="M101.63 122.241H98.3704V141.426H101.63V122.241Z" fill="#6A2979"/>
<path d="M59.1852 83.8519C55.0741 83.8519 51.7407 80.5186 51.7407 76.4075C51.7407 72.3149 55.0741 68.963 59.1852 68.963C63.2778 68.963 66.6296 72.2963 66.6296 76.4075C66.6111 80.5186 63.2778 83.8519 59.1852 83.8519ZM59.1852 72.2408C56.8889 72.2408 55.0185 74.1112 55.0185 76.4075C55.0185 78.7038 56.8889 80.5741 59.1852 80.5741C61.4815 80.5741 63.3518 78.7038 63.3518 76.4075C63.3518 74.1112 61.4815 72.2408 59.1852 72.2408Z" fill="#6A2979"/>
<path d="M140.815 83.8519C136.704 83.8519 133.37 80.5186 133.37 76.4075C133.37 72.3149 136.704 68.963 140.815 68.963C144.926 68.963 148.259 72.2963 148.259 76.4075C148.259 80.5186 144.926 83.8519 140.815 83.8519ZM140.815 72.2408C138.519 72.2408 136.648 74.1112 136.648 76.4075C136.648 78.7038 138.519 80.5741 140.815 80.5741C143.111 80.5741 144.981 78.7038 144.981 76.4075C145 74.1112 143.111 72.2408 140.815 72.2408Z" fill="#6A2979"/>
<path d="M99.8148 59.9074C95.7222 59.9074 92.3704 56.5741 92.3704 52.463C92.3704 48.3704 95.7037 45.0186 99.8148 45.0186C103.926 45.0186 107.259 48.3519 107.259 52.463C107.259 56.5741 103.926 59.9074 99.8148 59.9074ZM99.8148 48.2963C97.5185 48.2963 95.6481 50.1667 95.6481 52.463C95.6481 54.7593 97.5185 56.6297 99.8148 56.6297C102.111 56.6297 103.981 54.7593 103.981 52.463C104 50.1667 102.111 48.2963 99.8148 48.2963Z" fill="#6A2979"/>
<path d="M99.8148 154.981C95.7222 154.981 92.3704 151.648 92.3704 147.537C92.3704 143.426 95.7037 140.093 99.8148 140.093C103.926 140.093 107.259 143.426 107.259 147.537C107.259 151.63 103.926 154.981 99.8148 154.981ZM99.8148 143.37C97.5185 143.37 95.6481 145.241 95.6481 147.537C95.6481 149.833 97.5185 151.704 99.8148 151.704C102.111 151.704 103.981 149.833 103.981 147.537C104 145.241 102.111 143.37 99.8148 143.37Z" fill="#6A2979"/>
<path d="M59.1852 131.741C55.0741 131.741 51.7407 128.407 51.7407 124.296C51.7407 120.185 55.0741 116.852 59.1852 116.852C63.2778 116.852 66.6296 120.185 66.6296 124.296C66.6111 128.407 63.2778 131.741 59.1852 131.741ZM59.1852 120.13C56.8889 120.13 55.0185 122 55.0185 124.296C55.0185 126.593 56.8889 128.463 59.1852 128.463C61.4815 128.463 63.3518 126.593 63.3518 124.296C63.3518 122 61.4815 120.13 59.1852 120.13Z" fill="#6A2979"/>
<path d="M140.815 131.741C136.704 131.741 133.37 128.407 133.37 124.296C133.37 120.185 136.704 116.852 140.815 116.852C144.926 116.852 148.259 120.185 148.259 124.296C148.259 128.407 144.926 131.741 140.815 131.741ZM140.815 120.13C138.519 120.13 136.648 122 136.648 124.296C136.648 126.593 138.519 128.463 140.815 128.463C143.111 128.463 144.981 126.593 144.981 124.296C145 122 143.111 120.13 140.815 120.13Z" fill="#6A2979"/>
<path d="M101.185 123.87C87.9815 123.87 77.2408 113.13 77.2408 99.9259C77.2408 86.7222 87.9815 75.9814 101.185 75.9814C114.389 75.9814 125.13 86.7222 125.13 99.9259C125.13 113.13 114.389 123.87 101.185 123.87ZM101.185 79.2592C89.7778 79.2592 80.5 88.537 80.5 99.9444C80.5 111.352 89.7778 120.63 101.185 120.63C112.593 120.63 121.87 111.352 121.87 99.9444C121.87 88.5185 112.593 79.2592 101.185 79.2592Z" fill="#6A2979"/>
<path d="M117.963 116.093H114.704V109.167C114.704 107.593 113.389 105.741 111.926 105.296C104.648 103.13 96.963 103.13 89.6852 105.296C88.2778 105.722 86.9259 107.611 86.9259 109.148V115.259H83.6667V109.148C83.6667 106.148 85.9444 103.019 88.7407 102.167C96.6481 99.8149 104.981 99.8149 112.87 102.167C115.685 103.019 117.963 106.148 117.963 109.148V116.093Z" fill="#6A2979"/>
<path d="M100.815 103.407C95.5741 103.407 91.2963 99.1296 91.2963 93.8889C91.2963 88.6481 95.5741 84.3704 100.815 84.3704C106.056 84.3704 110.333 88.6481 110.333 93.8889C110.333 99.1481 106.056 103.407 100.815 103.407ZM100.815 87.6481C97.3704 87.6481 94.5556 90.4444 94.5556 93.9074C94.5556 97.3518 97.3519 100.167 100.815 100.167C104.259 100.167 107.074 97.3704 107.074 93.9074C107.056 90.4444 104.259 87.6481 100.815 87.6481Z" fill="#6A2979"/>
<path d="M100.815 103.407C95.5741 103.407 91.2963 99.1296 91.2963 93.8889C91.2963 88.6481 95.5741 84.3704 100.815 84.3704C106.056 84.3704 110.333 88.6481 110.333 93.8889C110.333 99.1481 106.056 103.407 100.815 103.407ZM100.815 87.6481C97.3704 87.6481 94.5556 90.4444 94.5556 93.9074C94.5556 97.3518 97.3519 100.167 100.815 100.167C104.259 100.167 107.074 97.3704 107.074 93.9074C107.056 90.4444 104.259 87.6481 100.815 87.6481Z" fill="#6A2979"/>
<path d="M94.0556 110.519H90.7963V120.815H94.0556V110.519Z" fill="#6A2979"/>
<path d="M110.833 110.519H107.574V120.815H110.833V110.519Z" fill="#6A2979"/>
</g>
<defs>
<clipPath id="clip0_1012_1073">
<rect width="200" height="200" fill="white"/>
</clipPath>
</defs>
</svg>
