<svg width="147" height="147" viewBox="0 0 147 147" fill="none" xmlns="http://www.w3.org/2000/svg">
<path d="M60.7192 106.139C60.7192 124.406 47.4756 137.186 30.5842 137.186C12.7808 137.186 0 123.943 0 106.139C0 97.4692 1.82389 90.6228 8.22111 73.7314L29.6722 9.8136H58.4325L41.5411 77.8419C53.41 81.9389 60.7192 91.9839 60.7192 106.139ZM147 106.139C147 124.406 133.756 137.186 116.865 137.186C99.0617 137.186 86.2808 123.943 86.2808 106.139C86.2808 97.4692 88.1047 90.6228 94.5019 73.7314L115.953 9.8136H144.713L127.822 77.8419C139.691 81.9389 147 91.9839 147 106.139Z" fill="#6A2978"/>
</svg>
