<svg width="200" height="200" viewBox="0 0 200 200" fill="none" xmlns="http://www.w3.org/2000/svg">
<g clip-path="url(#clip0_1012_1135)">
<path d="M200 100C200 155.222 155.222 200 100 200C44.7778 200 0 155.222 0 100C0 44.7778 44.7778 0 100 0C155.222 0 200 44.7778 200 100Z" fill="#6A2978"/>
<path d="M113.648 110.537H110.278V107.648H110.759V107.167H113.648V110.537Z" fill="#FFE66E"/>
<path d="M106.204 110.537H102.111V107.648H106.204V110.537ZM98.0185 110.537H93.9259V107.648H98.0185V110.537ZM89.8518 110.537H85.7592V107.648H89.8518V110.537ZM81.7037 110.537H77.6111V107.648H81.7037V110.537ZM73.5185 110.537H69.4259V107.648H73.5185V110.537ZM65.3518 110.537H61.2592V107.648H65.3518V110.537Z" fill="#FFE66E"/>
<path d="M57.1667 110.537H53.7963V107.167H56.6852V107.648H57.1667V110.537Z" fill="#FFE66E"/>
<path d="M56.7037 103.074H53.8148V98.9815H56.7037V103.074ZM56.7037 94.9075H53.8148V90.8334H56.7037V94.9075ZM56.7037 86.7408H53.8148V82.6667H56.7037V86.7408ZM56.7037 78.5741H53.8148V74.4815H56.7037V78.5741ZM56.7037 70.4075H53.8148V66.3149H56.7037V70.4075ZM56.7037 62.2223H53.8148V58.1482H56.7037V62.2223Z" fill="#FFE66E"/>
<path d="M56.7037 54.0741H53.7963V50.6852H57.1852V53.5741H56.7037V54.0741Z" fill="#FFE66E"/>
<path d="M106.204 53.5741H102.111V50.6852H106.204V53.5741ZM98.0185 53.5741H93.9259V50.6852H98.0185V53.5741ZM89.8518 53.5741H85.7592V50.6852H89.8518V53.5741ZM81.7037 53.5741H77.6111V50.6852H81.7037V53.5741ZM73.5185 53.5741H69.4259V50.6852H73.5185V53.5741ZM65.3518 53.5741H61.2592V50.6852H65.3518V53.5741Z" fill="#FFE66E"/>
<path d="M113.648 54.0741H110.759V53.5741H110.278V50.6852H113.648V54.0741Z" fill="#FFE66E"/>
<path d="M113.648 103.074H110.759V98.9815H113.648V103.074ZM113.648 94.9075H110.759V90.8334H113.648V94.9075ZM113.648 86.7408H110.759V82.6482H113.648V86.7408ZM113.648 78.5741H110.759V74.4815H113.648V78.5741ZM113.648 70.4075H110.759V66.3149H113.648V70.4075ZM113.648 62.2223H110.759V58.1482H113.648V62.2223Z" fill="#FFE66E"/>
<path d="M129.593 126.463H70.0555V66.9259H129.593V126.463ZM72.9444 123.574H126.685V69.8333H72.9444V123.574Z" fill="#FFE66E"/>
<path d="M145.833 142.722H142.463V139.833H142.944V139.352H145.833V142.722Z" fill="#FFE66E"/>
<path d="M138.407 142.722H134.352V139.833H138.407V142.722ZM130.278 142.722H126.222V139.833H130.278V142.722ZM122.167 142.722H118.111V139.833H122.167V142.722ZM114.037 142.722H109.981V139.833H114.037V142.722ZM105.926 142.722H101.87V139.833H105.926V142.722ZM97.7963 142.722H93.7408V139.833H97.7963V142.722Z" fill="#FFE66E"/>
<path d="M89.6852 142.722H86.2963V139.352H89.2037V139.833H89.6852V142.722Z" fill="#FFE66E"/>
<path d="M89.2037 135.278H86.3148V131.222H89.2037V135.278ZM89.2037 127.167H86.3148V123.111H89.2037V127.167ZM89.2037 119.056H86.3148V115H89.2037V119.056ZM89.2037 110.926H86.3148V106.87H89.2037V110.926ZM89.2037 102.796H86.3148V98.7408H89.2037V102.796ZM89.2037 94.6852H86.3148V90.6296H89.2037V94.6852Z" fill="#FFE66E"/>
<path d="M89.2037 86.5742H86.3148V83.1853H89.6852V86.0927H89.2037V86.5742Z" fill="#FFE66E"/>
<path d="M138.407 86.0742H134.352V83.1853H138.407V86.0742ZM130.278 86.0742H126.222V83.1853H130.278V86.0742ZM122.167 86.0742H118.111V83.1853H122.167V86.0742ZM114.037 86.0742H109.981V83.1853H114.037V86.0742ZM105.926 86.0742H101.87V83.1853H105.926V86.0742ZM97.7963 86.0742H93.7408V83.1853H97.7963V86.0742Z" fill="#FFE66E"/>
<path d="M145.833 86.5742H142.944V86.0927H142.463V83.1853H145.833V86.5742Z" fill="#FFE66E"/>
<path d="M145.833 135.278H142.944V131.222H145.833V135.278ZM145.833 127.167H142.944V123.111H145.833V127.167ZM145.833 119.056H142.944V115H145.833V119.056ZM145.833 110.926H142.944V106.87H145.833V110.926ZM145.833 102.796H142.944V98.7408H145.833V102.796ZM145.833 94.6852H142.944V90.6296H145.833V94.6852Z" fill="#FFE66E"/>
<path d="M145.833 142.722H86.2963V131.056H89.2037V139.833H142.944V86.0927H134.889V83.1853H145.833V142.722Z" fill="#FFE66E"/>
<path d="M146 61.6296H143.111V53.4259H134.889V50.537H146V61.6296Z" fill="#FFE66E"/>
<path d="M133.5 65.0556L131.463 63.0185L143.519 50.9445L145.574 52.9815L133.5 65.0556Z" fill="#FFE66E"/>
<path d="M64.9074 142.722H53.7963V131.63H56.7037V139.833H64.9074V142.722Z" fill="#FFE66E"/>
<path d="M56.2778 142.296L54.2222 140.259L66.2963 128.185L68.3519 130.241L56.2778 142.296Z" fill="#FFE66E"/>
</g>
<defs>
<clipPath id="clip0_1012_1135">
<rect width="200" height="200" fill="white"/>
</clipPath>
</defs>
</svg>
