<svg width="181" height="181" viewBox="0 0 181 181" fill="none" xmlns="http://www.w3.org/2000/svg">
<g clip-path="url(#clip0_1512_711)">
<mask id="mask0_1512_711" style="mask-type:luminance" maskUnits="userSpaceOnUse" x="0" y="0" width="181" height="181">
<path d="M0 90.5C0 140.476 40.5239 181 90.5 181C140.476 181 181 140.476 181 90.5C181 40.5071 140.476 0 90.5 0C40.5239 0 0 40.5071 0 90.5Z" fill="white"/>
</mask>
<g mask="url(#mask0_1512_711)">
<path fill-rule="evenodd" clip-rule="evenodd" d="M-27.9544 -32.2114H-26.3791C-29.5801 -29.1445 -32.7141 -26.0105 -35.7643 -22.8262V-24.4016C-33.2001 -27.0496 -30.6024 -29.6473 -27.9544 -32.2114ZM-10.0891 -32.2114H-8.4299C-18.1 -23.6977 -27.2338 -14.5639 -35.7643 -4.87708V-6.53624C-27.7198 -15.603 -19.1558 -24.1837 -10.0891 -32.2114ZM8.6813 -32.2114H10.441C-6.63666 -18.5861 -22.139 -3.08383 -35.7643 13.9939V12.2341C-22.5915 -4.12291 -7.67574 -19.0386 8.6813 -32.2114ZM28.7086 -32.2114H30.5857C4.91047 -13.9941 -17.5469 8.44653 -35.7643 34.1385V32.2447C-17.9324 7.40746 3.85464 -14.3963 28.7086 -32.2114ZM50.5292 -32.2114H52.6073C16.6252 -10.173 -13.7258 20.178 -35.7643 56.1601V54.082C-14.0275 19.1054 15.5526 -10.4747 50.5292 -32.2114ZM75.115 -32.2114H77.5786C28.6751 -7.65911 -11.2119 32.2279 -35.7643 81.1314V78.6678C-11.3628 31.0883 27.5355 -7.80994 75.115 -32.2114ZM104.93 -32.2114H108.03C41.4792 -7.79319 -11.346 45.0488 -35.7643 111.583V108.483C-11.1449 43.8253 40.2893 -7.59208 104.93 -32.2114ZM149.945 -32.2114H156.649C57.5848 -17.1784 -20.7144 61.1209 -35.7475 160.185V153.481C-18.6698 59.2103 55.6575 -15.1337 149.945 -32.2114ZM191.374 -23.7983V-22.6922C71.1766 -22.6922 -26.245 74.7294 -26.245 194.91H-27.3511C-27.3511 74.1261 70.5733 -23.7983 191.374 -23.7983ZM191.374 -11.6646V-10.5585C77.8803 -10.5752 -14.1113 81.4331 -14.1113 194.91H-15.2174C-15.2174 80.8298 77.277 -11.6646 191.374 -11.6646ZM191.374 0.45237V1.55848C84.584 1.55848 -1.97759 88.1368 -1.97759 194.91H-3.0837C-3.0837 87.5167 83.9807 0.45237 191.374 0.45237ZM191.374 12.5861V13.6922C91.2709 13.6922 10.1394 94.8237 10.1394 194.91H9.05C9.05 94.2204 90.6676 12.5861 191.374 12.5861ZM191.374 24.7198V25.8259C97.9914 25.8259 22.2731 101.527 22.2731 194.927H21.1837C21.1669 100.924 97.3713 24.7198 191.374 24.7198ZM191.374 36.8535V37.9596C104.678 37.9596 34.4068 108.231 34.4068 194.927H33.3007C33.3007 107.611 104.075 36.8535 191.374 36.8535ZM191.374 48.9704V50.0765C111.382 50.0765 46.5405 114.918 46.5405 194.91H45.4344C45.4344 114.315 110.779 48.9704 191.374 48.9704ZM191.374 61.1041V62.2102C118.069 62.2102 58.6574 121.622 58.6574 194.91H57.5681C57.5681 121.018 117.466 61.1041 191.374 61.1041ZM191.374 73.2378V74.3439C124.789 74.3439 70.7911 128.326 70.7911 194.927H69.685C69.685 127.722 124.169 73.2378 191.374 73.2378ZM191.374 85.3715V86.4776C131.476 86.4776 82.9248 135.029 82.9248 194.927H81.8187C81.8187 134.409 130.873 85.3715 191.374 85.3715ZM191.374 97.5052V98.6114C138.18 98.6114 95.0585 141.733 95.0585 194.927H93.9524C93.9524 141.113 137.56 97.5052 191.374 97.5052ZM191.374 109.622V110.728C144.884 110.728 107.175 148.42 107.175 194.91H106.069C106.069 147.817 144.264 109.622 191.374 109.622ZM191.374 121.756V122.862C151.571 122.862 119.309 155.124 119.309 194.927H118.203C118.203 154.503 150.967 121.756 191.374 121.756ZM191.374 133.89V134.996C158.274 134.996 131.443 161.827 131.443 194.927H130.337C130.337 161.207 157.671 133.89 191.374 133.89ZM191.374 146.007V147.113C164.978 147.113 143.577 168.514 143.577 194.91H142.47C142.47 167.911 164.358 146.007 191.374 146.007ZM191.374 158.14V159.246C171.682 159.246 155.71 175.218 155.71 194.91H154.604C154.587 174.598 171.062 158.14 191.374 158.14ZM191.374 170.274V171.38C178.369 171.38 167.827 181.922 167.827 194.927H166.721C166.721 181.302 177.765 170.274 191.374 170.274ZM191.374 182.408V183.514C185.073 183.514 179.961 188.625 179.961 194.927H178.855C178.855 188.005 184.452 182.408 191.374 182.408Z" fill="#6A2978"/>
</g>
</g>
<defs>
<clipPath id="clip0_1512_711">
<rect width="181" height="181" fill="white"/>
</clipPath>
</defs>
</svg>
