<?xml version="1.0" encoding="utf-8"?>
<!-- Generator: Adobe Illustrator 26.1.0, SVG Export Plug-In . SVG Version: 6.00 Build 0)  -->
<svg version="1.1" id="Capa_1" xmlns="http://www.w3.org/2000/svg" xmlns:xlink="http://www.w3.org/1999/xlink" x="0px" y="0px"
	 viewBox="0 0 665.42 133.24" style="enable-background:new 0 0 665.42 133.24;" xml:space="preserve">
<style type="text/css">
	.st0{fill:#9675B4;}
	.st1{fill:#FDE364;}
	.st2{clip-path:url(#SVGID_00000108296113670494388230000006111779320514690475_);}
	.st3{fill:#6B2976;}
</style>
<path class="st0" d="M257.98,0c0,73.22-57.52,132.58-128.48,132.58S1.02,73.22,1.02,0H257.98z"/>
<path class="st1" d="M388.82,0c75.93,0,137.49,59.65,137.49,133.24H388.82V0z"/>
<g>
	<defs>
		<path id="SVGID_1_" d="M388.52,133.24C388.52,59.65,330.07,0,257.98,0l0,133.24L388.52,133.24z"/>
	</defs>
	<clipPath id="SVGID_00000179633046843433188490000016335622637145228932_">
		<use xlink:href="#SVGID_1_"  style="overflow:visible;"/>
	</clipPath>
	<g style="clip-path:url(#SVGID_00000179633046843433188490000016335622637145228932_);">
		<path class="st3" d="M431.93-10.83c0,1.14,0,2.19,0,3.2c-2.41,0.98-4.81,1.87-7.14,2.92c-13.25,5.96-23.29,15.47-30.76,27.7
			c-5.31,8.69-9.24,18.03-12.32,27.69c-3.33,10.46-6.33,21.02-9.44,31.55c-2.88,9.76-5.89,19.48-10.17,28.76
			c-3.74,8.1-8.27,15.69-14.66,22.05c-4.5,4.48-9.63,8.1-15.47,10.74c-7.78,3.51-15.96,5.19-24.47,5.59
			c-5.7,0.27-11.41,0.51-17.09,1.08c-11.11,1.11-21.66,4.33-31.75,9.03c-13.5,6.28-25.2,15.03-35.52,25.64
			c-5.67,5.83-10.88,12.02-15.64,18.59c-0.42,0.58-0.84,0.78-1.54,0.77c-2.28-0.04-4.56-0.02-7.04-0.02
			c1.19-1.64,2.26-3.16,3.37-4.64c8.74-11.68,18.58-22.33,30.22-31.27c14.26-10.96,30.14-18.54,47.89-22.12
			c5.76-1.16,11.58-1.81,17.46-1.95c6.43-0.15,12.85-0.35,19.21-1.46c12.95-2.24,23.53-8.37,31.59-18.68
			c5.31-6.78,9.07-14.4,12.26-22.32c3.92-9.75,6.83-19.82,9.79-29.87c3.58-12.17,7.18-24.34,12.31-36
			c3.55-8.07,7.69-15.81,13.23-22.76c9.2-11.54,20.87-19.56,35.02-24.04C431.46-10.71,431.64-10.76,431.93-10.83z"/>
		<path class="st3" d="M431.96-26.69c0,0.48,0,0.76,0,1.03c0,0.68,0,1.36,0,2.05c-2.37,0.54-4.69,1.02-6.99,1.6
			c-12.6,3.19-23.7,9.04-32.89,18.24c-6.95,6.95-12.09,15.09-16.23,23.91c-4.56,9.7-7.9,19.82-10.93,30.06
			c-3.08,10.41-6.04,20.85-9.25,31.22c-2.88,9.3-6.59,18.27-11.66,26.65c-5.48,9.08-12.6,16.52-22.09,21.56
			c-5.88,3.12-12.16,5.02-18.74,6.11c-5.66,0.94-11.36,1.05-17.06,1.25c-11.35,0.4-22.32,2.59-32.92,6.61
			c-16.24,6.16-30.21,15.71-42.2,28.08c-4.29,4.43-8.2,9.22-12.28,13.85c-0.22,0.25-0.43,0.52-0.74,0.89
			c-0.04-0.31-0.08-0.5-0.08-0.7c0-2.86-0.02-5.71,0.01-8.57c0-0.36,0.14-0.81,0.38-1.08c13.57-15.55,29.35-28.19,48.68-36.16
			c10.29-4.24,20.97-6.97,32.09-7.85c4.75-0.37,9.53-0.39,14.29-0.63c7.74-0.39,15.33-1.51,22.55-4.52
			c10.62-4.43,18.36-11.99,24.24-21.61c5.77-9.44,9.63-19.68,12.89-30.16c3.39-10.9,6.58-21.86,10.01-32.74
			c3.46-10.97,7.67-21.66,13.47-31.66c10.9-18.81,26.92-30.91,48.31-35.92C427.14-25.73,429.48-26.17,431.96-26.69z"/>
		<path class="st3" d="M431.96,7.2c0,1.18,0.04,2.26-0.03,3.34c-0.02,0.28-0.36,0.61-0.65,0.77c-4.98,2.95-9.5,6.48-13.57,10.57
			c-6.86,6.89-11.96,14.96-16.06,23.68c-4.46,9.5-7.79,19.41-10.75,29.44c-3.08,10.44-6.04,20.92-9.26,31.32
			c-2.99,9.69-6.82,19.05-12.16,27.75c-5.17,8.42-11.8,15.43-20.49,20.36c-6.29,3.56-13.08,5.7-20.24,6.86
			c-4.36,0.71-8.74,0.98-13.12,1.04c-17.08,0.23-33.21,4.1-48.34,11.98c-12.08,6.3-22.65,14.53-32.01,24.33
			c-1.64,1.71-3.2,3.5-4.85,5.2c-0.3,0.31-0.82,0.57-1.25,0.58c-2.46,0.05-4.93,0.03-7.64,0.03c1.31-1.51,2.45-2.85,3.62-4.16
			c9.43-10.54,19.93-19.84,32.17-27.13c12.3-7.32,25.48-12.33,39.66-14.66c5.42-0.89,10.9-1.27,16.4-1.36
			c7.6-0.13,15.17-0.63,22.53-2.72c10.31-2.93,18.73-8.64,25.34-16.98c5.51-6.95,9.38-14.78,12.66-22.94
			c3.84-9.57,6.7-19.47,9.61-29.34c3.35-11.37,6.68-22.74,11.28-33.69c4.12-9.81,9-19.18,16-27.34c5.74-6.7,12.42-12.26,20.22-16.48
			C431.31,7.5,431.58,7.38,431.96,7.2z"/>
		<path class="st3" d="M392.53-27.06c-2.71,1.95-5.45,3.75-8,5.79c-8.02,6.42-14.12,14.38-18.9,23.38
			c-4.99,9.4-8.71,19.3-11.78,29.44c-3.78,12.46-7.33,25-11.17,37.44c-2.95,9.54-6.8,18.73-12.11,27.26
			c-5.43,8.72-12.43,15.88-21.66,20.71c-8.34,4.37-17.31,6.38-26.7,6.89c-6.76,0.36-13.55,0.66-20.26,1.47
			c-11.78,1.44-22.84,5.32-33.33,10.76c-10.75,5.57-20.32,12.74-28.92,21.2c-0.55,0.54-1.1,1.09-1.8,1.78c0-1.17,0-2.17,0-3.18
			c0-1.58-0.03-3.17,0.02-4.75c0.01-0.38,0.2-0.86,0.48-1.11c15.45-13.98,33.13-23.88,53.64-28.56c6.93-1.58,13.96-2.39,21.07-2.53
			c6.78-0.13,13.54-0.43,20.21-1.81c12.24-2.53,22.13-8.71,29.75-18.49c5.12-6.57,8.77-13.93,11.88-21.58
			c3.95-9.7,6.86-19.74,9.81-29.77c3.69-12.53,7.36-25.06,12.67-37.05c3.56-8.03,7.7-15.75,13.27-22.63
			c4.4-5.43,9.4-10.24,15.2-14.21c0.4-0.28,0.96-0.44,1.46-0.45C389.08-27.09,390.8-27.06,392.53-27.06z"/>
		<path class="st3" d="M246.39,204.1c3.46-2.96,6.83-6.03,10.39-8.87c12.94-10.31,27.38-17.76,43.48-21.96
			c7.61-1.99,15.36-3.01,23.22-3.33c5.7-0.23,11.42-0.45,17.08-1.12c10.75-1.27,20.3-5.42,28.25-12.8
			c4.88-4.53,8.7-9.91,11.91-15.73c4.47-8.09,7.78-16.65,10.53-25.43c3.43-10.95,6.63-21.97,10.04-32.92
			c3.6-11.55,7.97-22.79,14.09-33.31c4.21-7.24,9.41-13.69,15.69-19.28c0.23-0.21,0.48-0.39,0.89-0.73c0,1.59,0.01,3.03-0.02,4.46
			c0,0.18-0.19,0.38-0.34,0.53c-9.32,8.97-15.35,19.98-20.16,31.76c-4.11,10.07-7.16,20.49-10.15,30.92
			c-3.17,11.09-6.16,22.24-10.37,33.01c-3.04,7.77-6.63,15.27-11.6,22.05c-5.43,7.4-12.11,13.38-20.5,17.39
			c-8.14,3.9-16.77,5.68-25.76,6.11c-6.67,0.32-13.35,0.42-19.98,1.42c-11.52,1.73-22.39,5.37-32.7,10.68
			c-8.95,4.61-17.1,10.36-24.59,17.04c-0.22,0.19-0.52,0.42-0.79,0.42c-2.81,0.03-5.62,0.02-8.43,0.02
			C246.5,204.33,246.45,204.22,246.39,204.1z"/>
		<path class="st3" d="M364.03-27.06c-1.87,2.38-3.74,4.59-5.42,6.93c-5.54,7.72-9.5,16.24-12.89,25.04
			c-3.74,9.68-6.56,19.65-9.41,29.61c-3.26,11.39-6.37,22.83-10.94,33.8c-2.97,7.13-6.47,13.98-11.15,20.2
			c-6.36,8.45-14.43,14.72-24.37,18.5c-3.97,1.51-8.11,2.51-12.33,3.22c-5.53,0.94-11.11,1.08-16.68,1.24
			c-16.49,0.5-31.9,4.79-46.38,12.52c-5.69,3.04-11.09,6.54-16.18,10.51c-0.07,0.05-0.16,0.08-0.39,0.19c0-1.46,0.16-2.86-0.04-4.2
			c-0.36-2.43,0.68-3.78,2.72-5.11c12.81-8.37,26.6-14.35,41.7-17.31c6.92-1.36,13.91-1.84,20.95-1.98
			c8.08-0.16,16.09-0.87,23.81-3.51c8.98-3.08,16.36-8.37,22.31-15.68c5.71-7.01,9.65-14.98,12.99-23.27
			c3.68-9.14,6.44-18.57,9.22-28c3.49-11.81,6.89-23.64,11.66-35.03c3.84-9.17,8.37-17.96,14.62-25.8c1.06-1.33,2.1-2.17,3.88-1.87
			C362.45-26.96,363.22-27.06,364.03-27.06z"/>
		<path class="st3" d="M274.49,204.2c2.59-1.68,5.14-3.41,7.77-5.02c11.75-7.18,24.37-12.17,37.95-14.74
			c5.96-1.13,11.98-1.69,18.05-1.79c6-0.1,11.97-0.41,17.89-1.47c9.79-1.74,18.45-5.79,25.68-12.55c5-4.68,8.89-10.23,12.14-16.25
			c4.53-8.41,7.85-17.29,10.67-26.37c3.38-10.9,6.58-21.86,10-32.74c3.47-11.03,7.74-21.76,13.58-31.81
			c0.98-1.69,2.08-3.32,3.13-4.97c0.13-0.21,0.29-0.4,0.61-0.82c0,1.27-0.08,2.31,0.02,3.33c0.22,2.31-0.44,4.29-1.57,6.33
			c-5.09,9.17-8.75,18.93-11.79,28.92c-3.17,10.42-6.13,20.89-9.23,31.33c-2.93,9.86-6.32,19.54-11.1,28.7
			c-3.36,6.44-7.44,12.39-12.66,17.49c-4.33,4.22-9.27,7.65-14.84,10.2c-8.37,3.82-17.2,5.44-26.34,5.75
			c-9.98,0.34-19.92,0.95-29.61,3.63c-10.3,2.84-20,7.03-29.08,12.61c-0.5,0.3-1.15,0.49-1.74,0.5c-3.14,0.05-6.27,0.02-9.41,0.02
			C274.57,204.37,274.53,204.28,274.49,204.2z"/>
		<path class="st3" d="M341.87-27.06c-0.58,1.05-1.08,1.94-1.57,2.83c-5.05,9.26-8.8,19.05-11.87,29.1
			c-3.81,12.52-7.36,25.11-11.2,37.62c-2.96,9.63-6.76,18.94-12.04,27.6c-5.5,9.02-12.64,16.41-22.12,21.4
			c-5.94,3.13-12.27,5.19-18.95,6.01c-4.5,0.55-9.05,1.04-13.58,1.11c-18.5,0.29-35.72,4.98-51.71,14.16
			c-0.26,0.15-0.54,0.28-0.95,0.49c0-2.19-0.02-4.25,0.03-6.31c0.01-0.25,0.4-0.57,0.69-0.73c5.92-3.16,12.1-5.7,18.5-7.76
			c10.19-3.27,20.64-4.91,31.35-5.06c7.44-0.1,14.86-0.57,22.09-2.48c11.07-2.92,19.99-9.01,26.9-18.02
			c5.1-6.65,8.78-14.07,11.9-21.78c3.76-9.31,6.57-18.92,9.4-28.53c3.71-12.59,7.33-25.2,12.66-37.24c1.76-3.97,3.85-7.8,5.77-11.7
			c0.27-0.55,0.59-0.78,1.22-0.74C339.5-27.01,340.6-27.06,341.87-27.06z"/>
		<path class="st3" d="M322.42-27.06c-1.74,4.67-3.64,9.18-5.09,13.81c-3.15,10.06-6.1,20.18-9.08,30.29
			c-2.91,9.88-5.89,19.74-10.12,29.17c-3.9,8.68-8.68,16.81-15.57,23.53c-4.17,4.07-8.91,7.41-14.24,9.92
			c-8.14,3.83-16.75,5.56-25.7,5.99c-6.14,0.29-12.28,0.62-18.39,1.27c-8.77,0.94-17.17,3.45-25.32,6.75
			c-0.28,0.12-0.57,0.22-1.01,0.38c0-2-0.02-3.91,0.03-5.81c0-0.19,0.36-0.46,0.61-0.55c6.75-2.56,13.69-4.45,20.82-5.64
			c6.43-1.07,12.91-1.31,19.4-1.49c7.96-0.22,15.83-1.04,23.38-3.78c11.62-4.21,20.06-12.06,26.39-22.38
			c5.75-9.37,9.61-19.55,12.88-29.95c3.97-12.63,7.73-25.32,11.74-37.94c1.38-4.34,3.24-8.53,4.85-12.8
			c0.24-0.63,0.57-0.84,1.24-0.81C320.3-27.02,321.37-27.06,322.42-27.06z"/>
		<path class="st3" d="M309.94,204.24c1.7-0.67,3.4-1.37,5.11-2.01c11.72-4.41,23.86-6.66,36.4-6.84
			c6.37-0.09,12.72-0.45,18.99-1.73c11.88-2.43,21.64-8.28,29.23-17.66c5.43-6.7,9.24-14.29,12.48-22.19
			c4.12-10.04,7.09-20.45,10.16-30.82c2.79-9.43,5.56-18.86,9.08-28.06c0.13-0.34,0.27-0.67,0.56-0.97c0,1.78-0.09,3.57,0.02,5.35
			c0.23,4.01-0.47,7.82-1.66,11.67c-3.05,9.83-5.75,19.77-8.72,29.63c-2.8,9.28-6.15,18.36-10.71,26.97
			c-3.35,6.31-7.39,12.14-12.54,17.12c-4.12,3.98-8.79,7.27-14.04,9.73c-8.18,3.82-16.81,5.56-25.8,5.98
			c-6.67,0.31-13.37,0.3-19.97,1.47c-3.76,0.67-7.48,1.55-11.22,2.33c-0.64,0.13-1.29,0.25-1.94,0.25
			c-4.83,0.02-9.67,0.01-14.5,0.01c-0.3,0-0.59,0-0.89,0C309.97,204.38,309.95,204.31,309.94,204.24z"/>
		<path class="st3" d="M197.93,76.92c0-2.02,0-3.87,0-5.88c2.28-0.47,4.56-1,6.86-1.42c6.22-1.14,12.49-1.62,18.81-1.72
			c7.41-0.13,14.79-0.64,21.97-2.66c13.2-3.71,22.87-11.86,29.92-23.3c6.33-10.28,10.35-21.52,13.89-32.94
			c3.61-11.64,7.18-23.29,10.74-34.95c0.26-0.84,0.62-1.22,1.55-1.12c0.96,0.09,1.94,0.02,2.98,0.02c-0.01,0.19,0,0.34-0.03,0.47
			c-3.06,10.25-6.15,20.49-9.19,30.75c-2.88,9.73-5.78,19.45-9.93,28.75c-3.71,8.31-8.17,16.15-14.55,22.78
			c-4.76,4.95-10.26,8.88-16.58,11.72c-8.21,3.69-16.86,5.26-25.81,5.56C218.27,73.31,208,73.87,197.93,76.92z"/>
		<path class="st3" d="M287.81-27.06c-0.61,2.11-1.18,4.11-1.77,6.09c-2.83,9.48-5.53,18.99-8.54,28.41
			c-2.93,9.19-6.79,18.01-12.06,26.16c-5.29,8.19-12.05,14.89-20.77,19.52c-6.13,3.25-12.67,5.34-19.56,6.22
			c-3.45,0.44-6.92,0.68-10.39,0.94c-5.44,0.4-10.88,0.75-16.32,1.11c-0.12,0.01-0.25,0-0.43,0c0-1.79,0-3.58,0-5.51
			c2.79-0.2,5.56-0.45,8.35-0.6c5.13-0.28,10.29-0.34,15.4-0.8c11.8-1.05,22.39-5.08,31.12-13.19c4.74-4.4,8.49-9.59,11.63-15.23
			c4.59-8.24,7.96-16.97,10.79-25.91c2.75-8.72,5.32-17.49,7.93-26.25c0.23-0.78,0.58-1.02,1.36-0.97
			C285.57-27.01,286.6-27.06,287.81-27.06z"/>
		<path class="st3" d="M197.95,47.71c-0.02-0.28-0.05-0.46-0.06-0.64c0-1.51,0-3.03,0-4.61c1.72-0.08,3.37-0.15,5.02-0.24
			c7.29-0.39,14.47-1.36,21.34-3.97c11.38-4.33,19.62-12.19,25.8-22.38c5.91-9.75,9.77-20.35,13.16-31.14
			c1.23-3.9,2.41-7.82,3.62-11.75c1.42,0,2.83,0,4.29,0c0,0.15,0.03,0.3,0,0.43c-2.99,10.34-5.88,20.71-9.99,30.69
			c-2.96,7.17-6.42,14.08-11.09,20.33c-5.25,7.02-11.66,12.7-19.6,16.62c-8.57,4.23-17.7,6.07-27.21,6.39
			C201.49,47.51,199.74,47.62,197.95,47.71z"/>
		<path class="st3" d="M254.68-27.06c-0.81,2.54-1.57,4.96-2.36,7.37c-3.13,9.48-6.88,18.7-12.26,27.19
			c-5.2,8.2-11.84,15-20.45,19.75c-6.27,3.46-13.02,5.58-20.12,6.6c-0.49,0.07-0.98,0.15-1.54,0.24c0-1.76,0-3.46,0-5.26
			c1.41-0.25,2.85-0.49,4.28-0.75c9.37-1.75,17.67-5.7,24.66-12.13c4.97-4.58,8.86-10.01,12.1-15.92
			c4.59-8.34,7.87-17.2,10.76-26.22c0.22-0.7,0.52-0.92,1.24-0.88C252.17-27.01,253.35-27.06,254.68-27.06z"/>
		<path class="st3" d="M390.98,204.32c1.69-0.73,3.41-1.4,5.06-2.21c6.51-3.19,11.94-7.71,16.48-13.3
			c5.51-6.79,9.47-14.46,12.6-22.53c2.35-6.07,4.31-12.28,6.45-18.42c0.08-0.23,0.16-0.46,0.35-0.7c0.02,0.25,0.04,0.49,0.04,0.74
			c0,4.16,0,8.32,0,12.47c0,0.34-0.01,0.69-0.11,1.01c-3.22,9.36-7.13,18.42-12.73,26.65c-4.31,6.34-9.62,11.75-16.15,15.91
			c-0.47,0.3-1.09,0.49-1.64,0.49c-3.45,0.04-6.89,0.02-10.34,0.02C390.98,204.41,390.98,204.37,390.98,204.32z"/>
		<path class="st3" d="M197.9,18.57c0-1.88,0.03-3.47-0.02-5.05c-0.02-0.63,0.4-0.7,0.79-0.84c5.19-1.93,9.84-4.77,14.02-8.35
			c4.52-3.87,8.21-8.44,11.3-13.48c3.34-5.44,6.13-11.16,8.38-17.13c0.21-0.56,0.48-0.83,1.15-0.8c1.28,0.07,2.57,0.02,3.91,0.02
			c-0.02,0.2,0.01,0.35-0.04,0.48c-3.13,8.44-6.83,16.6-12.03,24.02C220,5.09,213.3,11.29,204.82,15.47
			C202.62,16.56,200.33,17.49,197.9,18.57z"/>
		<path class="st3" d="M197.9-0.78c0-1.97-0.02-3.77,0.02-5.56c0.01-0.29,0.18-0.66,0.41-0.84c6.49-5.12,11.26-11.59,15.11-18.77
			c0.46-0.87,0.97-1.19,1.94-1.12c1.24,0.09,2.5,0.02,3.92,0.02C214.2-16.62,207.76-7.45,197.9-0.78z"/>
		<path class="st3" d="M431.96,192.2c0,2.76,0.03,5.51-0.03,8.26c-0.01,0.44-0.41,0.86-0.62,1.3c-1.08,2.19-2.76,3.15-5.26,2.72
			c-0.94-0.16-1.94-0.03-3.18-0.03C426.42,200.6,429.36,196.56,431.96,192.2z"/>
	</g>
</g>
<path class="st0" d="M526.31,0C602.24,0,663.8,59.65,663.8,133.24H526.31V0z"/>
</svg>
