<svg width="165" height="68" viewBox="0 0 165 68" fill="none" xmlns="http://www.w3.org/2000/svg">
<path d="M88.3616 34.2309H74.9058C73.8773 34.2309 73.1745 34.1623 72.8146 34.008C72.4546 33.8538 72.2832 33.6309 72.2832 33.3052V13.2158C72.2832 12.6673 72.5232 12.273 73.0374 12.0331C73.5345 11.7931 74.4258 11.6902 75.7114 11.6902H88.4816C88.9273 11.6902 89.1501 12.4273 89.1501 13.9015C89.1501 15.3756 89.0472 16.4898 88.8587 17.2611C88.6701 18.0325 88.413 18.4267 88.1045 18.4267C86.7332 18.4267 84.4191 18.2896 81.1452 18.0153V20.1408C84.282 20.0208 86.3218 19.9523 87.2646 19.9523C87.8302 19.9523 88.1216 20.6208 88.1216 21.9578C88.1216 23.2948 88.0188 24.3061 87.7959 24.9918C87.5731 25.6774 87.2646 26.0202 86.8875 26.0202L81.1452 25.9003V27.9401C84.8305 27.6658 87.3674 27.5287 88.7558 27.5287C89.2015 27.5287 89.4243 28.2657 89.4243 29.757C89.4243 31.2312 89.3215 32.3625 89.1329 33.1167C88.9273 33.8537 88.6701 34.2309 88.3616 34.2309Z" fill="#F26C21"/>
<path d="M98.4408 34.0081C97.0695 34.1623 95.7839 34.2309 94.5497 34.2309C93.3156 34.2309 92.5271 34.1623 92.1671 34.0081C91.8071 33.8538 91.6357 33.631 91.6357 33.3053V13.1816C91.6357 12.6331 91.91 12.2388 92.4585 11.9988C93.007 11.7589 94.0526 11.656 95.5611 11.656H107.337C107.783 11.656 108.006 12.4616 108.006 14.0558C108.006 15.6499 107.903 16.8669 107.697 17.7068C107.491 18.5467 107.234 18.9581 106.926 18.9581L100.481 18.6324V20.7922C103.292 20.6722 105.177 20.6037 106.137 20.6037C106.463 20.6037 106.669 20.7751 106.789 21.1179C106.908 21.4607 106.96 22.1121 106.96 23.072C106.96 24.0319 106.857 24.9575 106.634 25.8317C106.429 26.7059 106.12 27.1516 105.743 27.1516L100.481 26.963V33.3053C100.481 33.631 99.8121 33.8538 98.4408 34.0081Z" fill="#F26C21"/>
<path d="M117.141 33.8881C116.542 34.1281 115.462 34.2309 113.885 34.2309C112.325 34.2309 111.005 34.0938 109.959 33.8024C108.914 33.511 108.382 33.151 108.382 32.7053C108.382 32.1911 109.325 28.9514 111.211 22.9692C113.096 16.9869 114.176 13.5415 114.45 12.6331C114.553 12.3588 115.41 12.136 117.004 11.9474C118.598 11.776 120.313 11.6732 122.147 11.6732C123.981 11.6732 124.992 11.9988 125.181 12.6331C129.175 25.9174 131.18 32.6711 131.18 32.8939C131.18 33.0996 131.06 33.3224 130.803 33.5281C130.203 33.9909 129.037 34.2309 127.272 34.2309C123.518 34.2309 121.615 33.7852 121.53 32.8939L121.307 30.837H118.256L118.101 32.6196C118.067 33.2196 117.741 33.6481 117.141 33.8881ZM120.638 24.8033L120.158 19.0953H119.456L118.924 24.8033H120.638Z" fill="#F26C21"/>
<path d="M139.683 33.9737C138.38 34.1451 137.077 34.2309 135.792 34.2309C134.506 34.2309 133.683 34.1623 133.323 34.008C132.963 33.8538 132.792 33.6309 132.792 33.3052V13.8158C132.792 13.2844 133.392 12.8044 134.626 12.3588C135.843 11.9131 137.232 11.6902 138.774 11.6902C139.323 11.6902 139.734 11.7074 140.008 11.7588C140.728 11.8617 141.243 12.3245 141.534 13.1301L144.585 21.3236H144.705V13.8329C144.705 13.3015 145.305 12.8216 146.522 12.3759C147.722 11.9302 149.11 11.7074 150.653 11.7074C151.99 11.7074 152.83 11.9645 153.19 12.4616C153.447 12.8216 153.567 13.1472 153.567 13.4386V33.3052C153.567 33.5795 152.916 33.8023 151.613 33.9737C150.31 34.1451 148.888 34.2309 147.328 34.2309C145.768 34.2309 144.928 34.0252 144.774 33.6309L141.825 25.8146H141.671V33.3052C141.637 33.5795 140.985 33.8023 139.683 33.9737Z" fill="#F26C21"/>
<path d="M162.994 34.0251C161.709 34.1623 160.406 34.2308 159.103 34.2308C157.801 34.2308 156.978 34.1794 156.618 34.0594C156.258 33.9394 156.086 33.7509 156.086 33.4766V13.7129C156.086 13.2501 156.703 12.7873 157.921 12.3244C159.155 11.8616 160.526 11.6388 162.052 11.6388C163.406 11.6388 164.297 11.9302 164.726 12.4959C164.88 12.7015 164.948 12.9244 164.948 13.1301V33.4423C164.931 33.6995 164.28 33.888 162.994 34.0251Z" fill="#F26C21"/>
<path d="M23.6885 61.9824C23.6885 65.2221 26.3111 67.8447 29.5507 67.8447C32.7904 67.8447 35.413 65.2221 35.413 61.9824C35.413 58.7427 32.7904 56.1201 29.5507 56.1201C26.3111 56.1201 23.6885 58.7427 23.6885 61.9824Z" fill="#D5A157"/>
<path d="M23.6885 5.86227C23.6885 9.10195 26.3111 11.7245 29.5507 11.7245C32.7904 11.7245 35.413 9.10195 35.413 5.86227C35.413 2.62259 32.7904 0 29.5507 0C26.3111 0 23.6885 2.62259 23.6885 5.86227Z" fill="#D5A157"/>
<path d="M12.735 18.4267C16.4032 18.4267 19.7457 19.7294 22.3683 21.8892C23.9453 18.8724 26.1051 16.1984 28.7105 14.0386C24.5795 13.6101 21.3399 10.1133 21.3399 5.86226C21.3399 4.76523 21.5627 3.71962 21.9398 2.77686C16.4546 6.87359 12.1179 12.393 9.42676 18.7867C10.5066 18.5467 11.6037 18.4267 12.735 18.4267Z" fill="#452260"/>
<path d="M29.3616 53.7718C26.4305 51.492 24.0136 48.578 22.2995 45.2526C19.694 47.3781 16.3686 48.6637 12.7519 48.6637C11.5863 48.6637 10.4549 48.5266 9.35791 48.2695C11.9805 54.6631 16.2658 60.1826 21.6824 64.3136C21.4596 63.5765 21.3396 62.788 21.3396 61.9824C21.3396 57.5085 24.9049 53.8746 29.3616 53.7718Z" fill="#452260"/>
<path d="M0.0849609 33.5281C0.0849609 40.3503 5.62155 45.8869 12.4437 45.8869C19.2659 45.8869 24.8025 40.3503 24.8025 33.5281C24.8025 26.706 19.2659 21.1694 12.4437 21.1694C5.60441 21.1865 0.0849609 26.706 0.0849609 33.5281Z" fill="#D5A157"/>
<path d="M38.7554 14.9128C38.7554 17.1068 40.5381 18.8895 42.7321 18.8895C44.9262 18.8895 46.7089 17.1068 46.7089 14.9128C46.7089 12.7187 44.9262 10.936 42.7321 10.936C40.5381 10.936 38.7554 12.7187 38.7554 14.9128Z" fill="#D5A157"/>
<path d="M38.7554 52.9319C38.7554 55.126 40.5381 56.9087 42.7321 56.9087C44.9262 56.9087 46.7089 55.126 46.7089 52.9319C46.7089 50.7379 44.9262 48.9552 42.7321 48.9552C40.5381 48.9552 38.7554 50.7379 38.7554 52.9319Z" fill="#D5A157"/>
<path d="M54.3367 44.7041C51.7484 44.7041 49.3658 43.7613 47.5317 42.2015C46.4689 44.1898 45.0291 45.9554 43.3149 47.3781C46.1261 47.6695 48.303 50.035 48.303 52.9147C48.303 53.6518 48.1487 54.3546 47.8916 55.0059C51.4913 52.3148 54.3881 48.698 56.2051 44.5155C55.6051 44.6527 54.9709 44.7041 54.3367 44.7041Z" fill="#F26C21"/>
<path d="M47.583 26.1059C49.4171 24.5803 51.7654 23.6547 54.3366 23.6547C55.0051 23.6547 55.6565 23.7233 56.2736 23.8433C54.4909 19.6608 51.6455 16.0441 48.063 13.3358C48.2172 13.8328 48.2858 14.3642 48.2858 14.9127C48.2858 17.9467 45.8689 20.3979 42.8521 20.4836C44.8233 21.992 46.4346 23.9118 47.583 26.1059Z" fill="#F26C21"/>
<path d="M45.9546 34.1795C45.9546 38.8076 49.7085 42.5444 54.3195 42.5444C58.9476 42.5444 62.6843 38.7905 62.6843 34.1795C62.6843 29.5514 58.9304 25.8146 54.3195 25.8146C49.7085 25.8146 45.9546 29.5685 45.9546 34.1795Z" fill="#D5A157"/>
<path d="M76.3631 47.2067H72.3521V40.1445H76.3631V41.2073H73.6034V43.0071H76.1745V44.0699H73.6034V46.1439H76.3631V47.2067Z" fill="#452260"/>
<path d="M81.3342 45.6469C81.3342 46.1954 81.1456 46.6068 80.7514 46.8811C80.3571 47.1553 79.8086 47.3096 79.0887 47.3096C78.7116 47.3096 78.3859 47.2753 78.1288 47.2239C77.8545 47.1725 77.5974 47.0868 77.3574 46.9839V45.9212C77.6145 46.0411 77.9059 46.144 78.2316 46.2297C78.5573 46.3154 78.8487 46.3668 79.1401 46.3668C79.4829 46.3668 79.7229 46.3154 79.8772 46.2126C80.0314 46.1097 80.1 45.9726 80.1 45.784C80.1 45.6812 80.0657 45.5783 80.0143 45.5098C79.9629 45.4241 79.8429 45.3384 79.6715 45.2355C79.5001 45.1327 79.2429 45.0127 78.9001 44.8755C78.5573 44.7384 78.2659 44.6013 78.0431 44.4642C77.8202 44.327 77.6488 44.1556 77.5288 43.9671C77.4088 43.7785 77.3574 43.5214 77.3574 43.23C77.3574 42.75 77.546 42.3901 77.9231 42.133C78.3002 41.893 78.8144 41.7559 79.4486 41.7559C79.7743 41.7559 80.0829 41.7901 80.3914 41.8587C80.6828 41.9273 80.9742 42.0301 81.2827 42.1501L80.8885 43.0757C80.6314 42.9729 80.3914 42.8872 80.1514 42.8015C79.9115 42.7329 79.6715 42.6986 79.4144 42.6986C78.8658 42.6986 78.5916 42.8529 78.5916 43.1614C78.5916 43.2814 78.6259 43.3671 78.6944 43.4528C78.763 43.5385 78.883 43.6242 79.0544 43.7099C79.2258 43.7956 79.4829 43.8985 79.8086 44.0356C80.1171 44.1556 80.3914 44.2927 80.6314 44.4299C80.8542 44.567 81.0428 44.7384 81.1628 44.927C81.2656 45.0984 81.3342 45.3384 81.3342 45.6469Z" fill="#452260"/>
<path d="M85.3449 41.7386C85.9792 41.7386 86.4763 41.9786 86.8534 42.4414C87.2305 42.9043 87.419 43.5899 87.419 44.5155C87.419 45.4411 87.2305 46.1268 86.8362 46.6067C86.442 47.0867 85.9277 47.3095 85.3107 47.3095C84.9164 47.3095 84.5907 47.241 84.3508 47.0867C84.1108 46.9496 83.9051 46.7782 83.768 46.5896H83.6823C83.6994 46.7096 83.7165 46.8467 83.7337 47.001C83.7508 47.1553 83.7508 47.2924 83.7508 47.4124V49.5893H82.4995V41.8586H83.5108L83.6823 42.5786H83.7337C83.8708 42.3557 84.0765 42.1672 84.3336 42.0129C84.625 41.8244 84.9507 41.7386 85.3449 41.7386ZM84.985 42.75C84.5393 42.75 84.2308 42.8871 84.0422 43.1442C83.8537 43.4013 83.768 43.8127 83.768 44.3441V44.4984C83.768 45.064 83.8537 45.5097 84.0251 45.8182C84.1965 46.1268 84.5222 46.2811 85.0021 46.2811C85.3964 46.2811 85.6878 46.1268 85.8763 45.8011C86.0649 45.4754 86.1506 45.0469 86.1506 44.4984C86.1506 43.9499 86.0649 43.5213 85.8763 43.2128C85.6878 42.9043 85.3964 42.75 84.985 42.75Z" fill="#452260"/>
<path d="M90.8127 41.7386C91.4983 41.7386 92.0297 41.8929 92.3896 42.2015C92.7496 42.51 92.921 42.9728 92.921 43.607V47.2067H92.0468L91.8069 46.4696H91.7726C91.5497 46.761 91.2926 46.9667 91.0355 47.1038C90.7784 47.241 90.4356 47.3095 89.9899 47.3095C89.5099 47.3095 89.1157 47.1724 88.79 46.8981C88.4815 46.6239 88.3101 46.2125 88.3101 45.6468C88.3101 45.0983 88.5158 44.6698 88.91 44.3955C89.3214 44.1213 89.9385 43.967 90.7612 43.9327L91.6869 43.8984V43.6242C91.6869 43.2814 91.6012 43.0414 91.4469 42.9043C91.2755 42.75 91.0526 42.6814 90.7612 42.6814C90.487 42.6814 90.2299 42.7157 89.9899 42.8014C89.7499 42.8871 89.4928 42.9728 89.2528 43.0757L88.8586 42.2015C89.1157 42.0643 89.4242 41.9443 89.7671 41.8586C90.0927 41.7901 90.4527 41.7386 90.8127 41.7386ZM91.0526 44.6869C90.5041 44.7041 90.127 44.8069 89.9213 44.9612C89.7156 45.1326 89.6128 45.3554 89.6128 45.6468C89.6128 45.904 89.6814 46.0925 89.8356 46.1953C89.9899 46.2982 90.1784 46.3668 90.4184 46.3668C90.7784 46.3668 91.0869 46.2639 91.344 46.0582C91.6012 45.8525 91.7212 45.544 91.7212 45.1326V44.6698L91.0526 44.6869Z" fill="#452260"/>
<path d="M96.6925 47.3096C95.9211 47.3096 95.3212 47.0868 94.8755 46.6411C94.4299 46.1954 94.207 45.5098 94.207 44.5499C94.207 43.8985 94.3099 43.35 94.5327 42.9386C94.7555 42.5272 95.0641 42.2187 95.4412 42.0301C95.8354 41.8416 96.2811 41.7387 96.7782 41.7387C97.121 41.7387 97.4124 41.773 97.6867 41.8416C97.9609 41.9101 98.1666 41.9787 98.3552 42.0815L97.9952 43.0586C97.7895 42.9729 97.5838 42.9043 97.3781 42.8529C97.1724 42.8015 96.9839 42.7672 96.7782 42.7672C95.904 42.7672 95.4755 43.35 95.4755 44.5327C95.4755 45.0984 95.5783 45.544 95.8012 45.8354C96.024 46.1268 96.3325 46.264 96.7611 46.264C97.0525 46.264 97.3267 46.2297 97.5496 46.1611C97.7724 46.0926 97.9952 45.9897 98.2181 45.8697V46.9496C98.0124 47.0696 97.7895 47.1553 97.5667 47.2239C97.3439 47.2924 97.0525 47.3096 96.6925 47.3096Z" fill="#452260"/>
<path d="M100.121 39.7675C100.309 39.7675 100.481 39.8189 100.618 39.9046C100.755 40.0074 100.824 40.1617 100.824 40.4188C100.824 40.6759 100.755 40.8302 100.618 40.9331C100.481 41.0359 100.326 41.0873 100.121 41.0873C99.9322 41.0873 99.7608 41.0359 99.6237 40.9331C99.4865 40.8302 99.418 40.6588 99.418 40.4188C99.418 40.1789 99.4865 40.0074 99.6237 39.9046C99.7608 39.8189 99.9151 39.7675 100.121 39.7675ZM100.738 41.8415V47.2067H99.4865V41.8415H100.738Z" fill="#452260"/>
<path d="M107.114 44.5156C107.114 45.4069 106.891 46.0926 106.428 46.5725C105.965 47.0525 105.331 47.2924 104.543 47.2924C104.063 47.2924 103.617 47.1896 103.24 46.9668C102.863 46.7439 102.554 46.4354 102.332 46.024C102.109 45.6126 102.006 45.0984 102.006 44.5156C102.006 43.6242 102.229 42.9386 102.692 42.4586C103.154 41.9787 103.771 41.7387 104.56 41.7387C105.057 41.7387 105.486 41.8416 105.88 42.0644C106.257 42.2872 106.565 42.5958 106.788 43.0072C107.011 43.4185 107.114 43.9156 107.114 44.5156ZM103.291 44.5156C103.291 45.0812 103.394 45.5269 103.6 45.8354C103.806 46.144 104.131 46.2983 104.577 46.2983C105.023 46.2983 105.348 46.144 105.554 45.8354C105.76 45.5269 105.863 45.0812 105.863 44.5156C105.863 43.9499 105.76 43.5214 105.554 43.2129C105.348 42.9043 105.023 42.75 104.577 42.75C104.131 42.75 103.806 42.9043 103.617 43.2129C103.394 43.5043 103.291 43.9499 103.291 44.5156Z" fill="#452260"/>
<path d="M112.051 45.647C112.051 46.1955 111.862 46.6069 111.468 46.8811C111.074 47.1554 110.525 47.3096 109.805 47.3096C109.428 47.3096 109.103 47.2754 108.846 47.2239C108.588 47.1725 108.314 47.0868 108.074 46.984V45.9212C108.331 46.0412 108.623 46.144 108.948 46.2298C109.274 46.3155 109.566 46.3669 109.857 46.3669C110.2 46.3669 110.44 46.3155 110.594 46.2126C110.748 46.1098 110.817 45.9726 110.817 45.7841C110.817 45.6812 110.783 45.5784 110.731 45.5098C110.68 45.4241 110.56 45.3384 110.388 45.2356C110.217 45.1327 109.96 45.0127 109.617 44.8756C109.274 44.7385 108.983 44.6013 108.76 44.4642C108.537 44.3271 108.366 44.1557 108.246 43.9671C108.126 43.7786 108.074 43.5215 108.074 43.2301C108.074 42.7501 108.263 42.3901 108.64 42.133C109.017 41.8931 109.531 41.7559 110.165 41.7559C110.491 41.7559 110.8 41.7902 111.108 41.8588C111.4 41.9273 111.691 42.0302 112 42.1502L111.605 43.0758C111.348 42.9729 111.108 42.8872 110.868 42.8015C110.628 42.733 110.388 42.6987 110.131 42.6987C109.583 42.6987 109.308 42.853 109.308 43.1615C109.308 43.2815 109.343 43.3672 109.411 43.4529C109.48 43.5386 109.6 43.6243 109.771 43.71C109.943 43.7957 110.2 43.8986 110.525 44.0357C110.834 44.1557 111.108 44.2928 111.348 44.4299C111.571 44.5671 111.76 44.7385 111.88 44.927C112 45.0984 112.051 45.3384 112.051 45.647Z" fill="#452260"/>
<path d="M118.616 42.7843H117.313V47.2067H116.062V42.7843H115.205V42.1843L116.062 41.8244V41.4644C116.062 40.7788 116.233 40.2988 116.559 40.0417C116.884 39.7674 117.33 39.6475 117.896 39.6475C118.153 39.6475 118.393 39.6646 118.599 39.716C118.821 39.7674 118.993 39.8017 119.13 39.8531L118.821 40.7788C118.701 40.7445 118.581 40.7102 118.444 40.6931C118.307 40.6588 118.17 40.6416 117.999 40.6416C117.759 40.6416 117.587 40.7102 117.467 40.8645C117.347 41.0187 117.296 41.2244 117.296 41.4987V41.8415H118.599V42.7843H118.616Z" fill="#452260"/>
<path d="M121.564 41.7386C122.249 41.7386 122.781 41.8929 123.141 42.2015C123.501 42.51 123.672 42.9728 123.672 43.607V47.2067H122.798L122.558 46.4696H122.524C122.301 46.761 122.044 46.9667 121.786 47.1038C121.529 47.241 121.187 47.3095 120.741 47.3095C120.261 47.3095 119.867 47.1724 119.541 46.8981C119.232 46.6239 119.061 46.2125 119.061 45.6468C119.061 45.0983 119.267 44.6698 119.661 44.3955C120.072 44.1213 120.689 43.967 121.512 43.9327L122.438 43.8984V43.6242C122.438 43.2814 122.352 43.0414 122.198 42.9043C122.026 42.75 121.804 42.6814 121.512 42.6814C121.238 42.6814 120.981 42.7157 120.741 42.8014C120.501 42.8871 120.244 42.9728 120.004 43.0757L119.61 42.2015C119.867 42.0643 120.175 41.9443 120.518 41.8586C120.844 41.7901 121.204 41.7386 121.564 41.7386ZM121.786 44.6869C121.238 44.7041 120.861 44.8069 120.655 44.9612C120.449 45.1326 120.347 45.3554 120.347 45.6468C120.347 45.904 120.415 46.0925 120.569 46.1953C120.724 46.2982 120.912 46.3668 121.152 46.3668C121.512 46.3668 121.821 46.2639 122.078 46.0582C122.335 45.8525 122.455 45.544 122.455 45.1326V44.6698L121.786 44.6869Z" fill="#452260"/>
<path d="M126.381 47.2067L124.341 41.8416H125.661L126.723 44.9441C126.792 45.1326 126.843 45.3383 126.912 45.5783C126.963 45.8012 126.998 46.0069 127.015 46.1611H127.049C127.066 45.9897 127.101 45.8012 127.169 45.5783C127.221 45.3555 127.289 45.1498 127.358 44.9441L128.42 41.8416H129.74L127.7 47.2067H126.381Z" fill="#452260"/>
<path d="M135.192 44.5155C135.192 45.4069 134.969 46.0925 134.506 46.5725C134.043 47.0524 133.409 47.2924 132.62 47.2924C132.14 47.2924 131.695 47.1895 131.318 46.9667C130.941 46.7439 130.632 46.4353 130.409 46.0239C130.186 45.6125 130.083 45.0983 130.083 44.5155C130.083 43.6242 130.306 42.9385 130.769 42.4586C131.232 41.9786 131.849 41.7386 132.638 41.7386C133.135 41.7386 133.563 41.8415 133.957 42.0643C134.334 42.2872 134.643 42.5957 134.866 43.0071C135.072 43.4185 135.192 43.9156 135.192 44.5155ZM131.352 44.5155C131.352 45.0812 131.455 45.5268 131.66 45.8354C131.866 46.1439 132.192 46.2982 132.638 46.2982C133.083 46.2982 133.409 46.1439 133.615 45.8354C133.82 45.5268 133.923 45.0812 133.923 44.5155C133.923 43.9499 133.82 43.5213 133.615 43.2128C133.409 42.9043 133.083 42.75 132.638 42.75C132.192 42.75 131.866 42.9043 131.678 43.2128C131.455 43.5042 131.352 43.9499 131.352 44.5155Z" fill="#452260"/>
<path d="M139.288 41.7386C139.374 41.7386 139.46 41.7387 139.562 41.7558C139.665 41.7729 139.751 41.7729 139.82 41.7901L139.717 42.9557C139.648 42.9385 139.58 42.9385 139.477 42.9214C139.391 42.9042 139.305 42.9043 139.237 42.9043C138.98 42.9043 138.723 42.9557 138.5 43.0757C138.277 43.1785 138.088 43.3499 137.934 43.5728C137.797 43.7956 137.728 44.087 137.728 44.4298V47.2067H136.477V41.8415H137.437L137.608 42.7671H137.66C137.814 42.4757 138.037 42.2357 138.311 42.0472C138.603 41.8415 138.928 41.7386 139.288 41.7386Z" fill="#452260"/>
<path d="M142.888 41.7388C143.574 41.7388 144.105 41.893 144.465 42.2016C144.825 42.5101 144.996 42.9729 144.996 43.6072V47.2068H144.122L143.882 46.4697H143.848C143.625 46.7611 143.368 46.9668 143.111 47.104C142.854 47.2411 142.511 47.3096 142.065 47.3096C141.585 47.3096 141.191 47.1725 140.865 46.8983C140.557 46.624 140.385 46.2126 140.385 45.647C140.385 45.0984 140.591 44.6699 140.985 44.3956C141.397 44.1214 142.014 43.9671 142.836 43.9328L143.762 43.8986V43.6243C143.762 43.2815 143.676 43.0415 143.522 42.9044C143.351 42.7501 143.128 42.6815 142.836 42.6815C142.562 42.6815 142.305 42.7158 142.065 42.8015C141.825 42.8872 141.568 42.9729 141.328 43.0758L140.934 42.2016C141.191 42.0645 141.499 41.9445 141.842 41.8588C142.168 41.7902 142.511 41.7388 142.888 41.7388ZM143.111 44.687C142.562 44.7042 142.185 44.807 141.979 44.9613C141.774 45.1327 141.671 45.3556 141.671 45.647C141.671 45.9041 141.739 46.0926 141.894 46.1955C142.048 46.2983 142.236 46.3669 142.476 46.3669C142.836 46.3669 143.145 46.264 143.402 46.0583C143.659 45.8526 143.779 45.5441 143.779 45.1327V44.6699L143.111 44.687Z" fill="#452260"/>
<path d="M147.807 41.4645C147.807 41.6702 147.807 41.8759 147.79 42.0816C147.773 42.2873 147.756 42.4416 147.756 42.5444H147.807C147.944 42.3216 148.15 42.133 148.407 41.9787C148.664 41.8245 148.99 41.7388 149.384 41.7388C150.001 41.7388 150.516 41.9787 150.893 42.4416C151.287 42.9044 151.476 43.6071 151.476 44.5156C151.476 45.4413 151.287 46.144 150.893 46.6069C150.499 47.0697 149.984 47.3096 149.367 47.3096C148.973 47.3096 148.647 47.2411 148.407 47.0868C148.167 46.9497 147.979 46.7783 147.824 46.5897H147.739L147.516 47.2068H146.59V39.6818H147.842V41.4645H147.807ZM149.024 42.7501C148.579 42.7501 148.27 42.8872 148.082 43.1615C147.893 43.4357 147.807 43.8471 147.807 44.4128V44.5156C147.807 45.0813 147.893 45.527 148.064 45.8355C148.236 46.144 148.562 46.2983 149.042 46.2983C149.419 46.2983 149.693 46.144 149.899 45.8355C150.104 45.527 150.19 45.0813 150.19 44.5156C150.19 43.9328 150.087 43.4872 149.881 43.1958C149.693 42.8872 149.401 42.7501 149.024 42.7501Z" fill="#452260"/>
<path d="M154.012 47.2068H152.761V39.6818H154.012V47.2068Z" fill="#452260"/>
<path d="M157.767 41.7388C158.487 41.7388 159.052 41.9616 159.481 42.3901C159.892 42.8187 160.115 43.4186 160.115 44.19V44.8242H156.567C156.584 45.3041 156.721 45.6984 156.978 45.9555C157.235 46.2298 157.595 46.3497 158.041 46.3497C158.384 46.3497 158.692 46.3155 158.966 46.2469C159.241 46.1783 159.532 46.0755 159.824 45.9384V46.9325C159.566 47.0525 159.292 47.1554 159.001 47.2068C158.709 47.2582 158.384 47.2925 157.989 47.2925C157.475 47.2925 157.012 47.1897 156.601 46.984C156.19 46.7783 155.881 46.4697 155.658 46.0755C155.435 45.6641 155.315 45.167 155.315 44.5499C155.315 43.6414 155.538 42.9387 156.001 42.4587C156.43 41.9787 157.03 41.7388 157.767 41.7388ZM157.767 42.6644C157.424 42.6644 157.15 42.7672 156.944 42.9901C156.738 43.2129 156.618 43.5215 156.584 43.95H158.898C158.898 43.5729 158.795 43.2815 158.624 43.0415C158.418 42.7844 158.144 42.6644 157.767 42.6644Z" fill="#452260"/>
<path d="M165 45.647C165 46.1955 164.812 46.6069 164.417 46.8811C164.023 47.1554 163.475 47.3096 162.755 47.3096C162.378 47.3096 162.052 47.2754 161.795 47.2239C161.521 47.1725 161.263 47.0868 161.023 46.984V45.9212C161.281 46.0412 161.572 46.144 161.898 46.2298C162.223 46.3155 162.515 46.3669 162.806 46.3669C163.149 46.3669 163.389 46.3155 163.543 46.2126C163.697 46.1098 163.766 45.9726 163.766 45.7841C163.766 45.6812 163.732 45.5784 163.68 45.5098C163.629 45.4413 163.509 45.3384 163.337 45.2356C163.166 45.1327 162.909 45.0127 162.566 44.8756C162.223 44.7385 161.932 44.6013 161.709 44.4642C161.486 44.3271 161.315 44.1557 161.195 43.9671C161.075 43.7786 161.023 43.5215 161.023 43.2301C161.023 42.7501 161.212 42.3901 161.589 42.133C161.966 41.8931 162.48 41.7559 163.115 41.7559C163.44 41.7559 163.749 41.7902 164.057 41.8588C164.349 41.9273 164.64 42.0302 164.949 42.1502L164.555 43.0758C164.297 42.9729 164.057 42.8872 163.817 42.8015C163.577 42.733 163.337 42.6987 163.08 42.6987C162.532 42.6987 162.258 42.853 162.258 43.1615C162.258 43.2815 162.292 43.3672 162.36 43.4529C162.429 43.5386 162.549 43.6243 162.72 43.71C162.892 43.7957 163.149 43.8986 163.475 44.0357C163.783 44.1557 164.057 44.2928 164.297 44.4299C164.52 44.5671 164.709 44.7385 164.829 44.927C164.949 45.0984 165 45.3384 165 45.647Z" fill="#452260"/>
<path d="M75.0437 53.6176C75.6779 53.6176 76.175 53.8575 76.5521 54.3203C76.9292 54.7831 77.1178 55.4688 77.1178 56.3944C77.1178 57.32 76.9292 58.0057 76.5349 58.4856C76.1407 58.9656 75.6265 59.1884 75.0094 59.1884C74.6151 59.1884 74.2895 59.1199 74.0495 58.9656C73.8095 58.8285 73.6038 58.657 73.4667 58.4685H73.381C73.3981 58.5885 73.4153 58.7256 73.4324 58.8799C73.4495 59.0341 73.4495 59.1713 73.4495 59.2913V61.4682H72.1982V53.7375H73.2096L73.381 54.4575H73.4324C73.5695 54.2346 73.7752 54.0461 74.0323 53.8918C74.3237 53.7033 74.6494 53.6176 75.0437 53.6176ZM74.6837 54.6289C74.238 54.6289 73.9295 54.766 73.7409 55.0231C73.5524 55.2802 73.4667 55.6916 73.4667 56.223V56.3773C73.4667 56.9429 73.5524 57.3886 73.7238 57.6971C73.8952 58.0057 74.2209 58.16 74.7009 58.16C75.0951 58.16 75.3865 58.0057 75.575 57.68C75.7636 57.3543 75.8493 56.9258 75.8493 56.3773C75.8493 55.8288 75.7636 55.4002 75.575 55.0917C75.3865 54.7831 75.0951 54.6289 74.6837 54.6289Z" fill="#452260"/>
<path d="M80.5114 53.6176C81.197 53.6176 81.7284 53.7718 82.0884 54.0804C82.4483 54.3889 82.6198 54.8517 82.6198 55.4859V59.0856H81.7456L81.5056 58.3485H81.4713C81.2485 58.6399 80.9913 58.8456 80.7342 58.9827C80.4771 59.1199 80.1343 59.1884 79.6886 59.1884C79.2087 59.1884 78.8144 59.0513 78.4887 58.777C78.1802 58.5028 78.0088 58.0914 78.0088 57.5257C78.0088 56.9772 78.2145 56.5487 78.6259 56.2744C79.0373 56.0002 79.6543 55.8459 80.4771 55.8116L81.4027 55.7773V55.5031C81.4027 55.1603 81.317 54.9203 81.1628 54.7831C80.9913 54.6289 80.7685 54.5603 80.4771 54.5603C80.2028 54.5603 79.9457 54.5946 79.7058 54.6803C79.4658 54.766 79.2087 54.8517 78.9687 54.9546L78.5744 54.0804C78.8316 53.9432 79.1401 53.8232 79.4829 53.7375C79.7915 53.6518 80.1514 53.6176 80.5114 53.6176ZM80.7514 56.5658C80.2029 56.583 79.8257 56.6858 79.6201 56.8401C79.4144 57.0115 79.3115 57.2343 79.3115 57.5257C79.3115 57.7828 79.3801 57.9714 79.5343 58.0743C79.6886 58.1771 79.8772 58.2457 80.1171 58.2457C80.4771 58.2457 80.7856 58.1428 81.0428 57.9371C81.2999 57.7314 81.4199 57.4229 81.4199 57.0115V56.5487L80.7514 56.5658Z" fill="#452260"/>
<path d="M87.0074 53.6176C87.0931 53.6176 87.1788 53.6175 87.2817 53.6347C87.3845 53.6518 87.4702 53.6518 87.5388 53.669L87.436 54.8346C87.3674 54.8174 87.2988 54.8174 87.196 54.8003C87.1103 54.7831 87.0246 54.7831 86.956 54.7831C86.6989 54.7831 86.4418 54.8346 86.2189 54.9546C85.9961 55.0574 85.8076 55.2288 85.6533 55.4516C85.5162 55.6745 85.4476 55.9659 85.4476 56.3087V59.0856H84.1963V53.7204H85.1562L85.3276 54.646H85.379C85.5333 54.3546 85.7561 54.1146 86.0304 53.9261C86.3218 53.7204 86.6475 53.6176 87.0074 53.6176Z" fill="#452260"/>
<path d="M90.6071 53.6176C91.2928 53.6176 91.8241 53.7718 92.1841 54.0804C92.544 54.3889 92.7155 54.8517 92.7155 55.4859V59.0856H91.8413L91.6013 58.3485H91.567C91.3442 58.6399 91.0871 58.8456 90.8299 58.9827C90.5728 59.1199 90.23 59.1884 89.7843 59.1884C89.3044 59.1884 88.9101 59.0513 88.5844 58.777C88.2759 58.5028 88.1045 58.0914 88.1045 57.5257C88.1045 56.9772 88.3102 56.5487 88.7044 56.2744C89.1158 56.0002 89.7329 55.8459 90.5557 55.8116L91.4813 55.7773V55.5031C91.4813 55.1603 91.3956 54.9203 91.2413 54.7831C91.0699 54.6289 90.8471 54.5603 90.5557 54.5603C90.2814 54.5603 90.0243 54.5946 89.7843 54.6803C89.5443 54.766 89.2872 54.8517 89.0473 54.9546L88.653 54.0804C88.9101 53.9432 89.2187 53.8232 89.5615 53.7375C89.8872 53.6518 90.2471 53.6176 90.6071 53.6176ZM90.8471 56.5658C90.2986 56.583 89.9215 56.6858 89.7158 56.8401C89.5101 57.0115 89.4072 57.2343 89.4072 57.5257C89.4072 57.7828 89.4758 57.9714 89.6301 58.0743C89.7843 58.1771 89.9729 58.2457 90.2129 58.2457C90.5728 58.2457 90.8814 58.1428 91.1385 57.9371C91.3956 57.7314 91.5156 57.4229 91.5156 57.0115V56.5487L90.8471 56.5658Z" fill="#452260"/>
<path d="M98.1151 59.0855H96.8638V51.5605H98.1151V59.0855Z" fill="#452260"/>
<path d="M101.852 53.6176C102.537 53.6176 103.069 53.7718 103.429 54.0804C103.789 54.3889 103.96 54.8517 103.96 55.4859V59.0856H103.086L102.846 58.3485H102.795C102.572 58.6399 102.315 58.8456 102.057 58.9827C101.8 59.1199 101.458 59.1884 101.012 59.1884C100.532 59.1884 100.138 59.0513 99.812 58.777C99.5034 58.5028 99.332 58.0914 99.332 57.5257C99.332 56.9772 99.5377 56.5487 99.932 56.2744C100.343 56.0002 100.96 55.8459 101.783 55.8116L102.709 55.7773V55.5031C102.709 55.1603 102.623 54.9203 102.469 54.7831C102.297 54.6289 102.075 54.5603 101.783 54.5603C101.509 54.5603 101.252 54.5946 101.012 54.6803C100.772 54.766 100.515 54.8517 100.275 54.9546L99.8806 54.0804C100.138 53.9432 100.446 53.8232 100.789 53.7375C101.115 53.6518 101.475 53.6176 101.852 53.6176ZM102.075 56.5658C101.526 56.583 101.149 56.6858 100.943 56.8401C100.738 57.0115 100.635 57.2343 100.635 57.5257C100.635 57.7828 100.703 57.9714 100.858 58.0743C101.012 58.1771 101.2 58.2457 101.44 58.2457C101.8 58.2457 102.109 58.1428 102.366 57.9371C102.623 57.7314 102.743 57.4229 102.743 57.0115V56.5487L102.075 56.5658Z" fill="#452260"/>
<path d="M110.971 53.6176C111.571 53.6176 112.034 53.7718 112.377 54.0804C112.719 54.3889 112.891 54.886 112.891 55.5888V59.0856H111.64V55.8459C111.64 55.0403 111.314 54.646 110.645 54.646C110.148 54.646 109.805 54.8003 109.617 55.126C109.428 55.4345 109.343 55.8973 109.343 56.4801V59.1027H108.091V53.7375H109.051L109.223 54.4403H109.291C109.463 54.1661 109.703 53.9604 109.994 53.8232C110.32 53.6861 110.628 53.6176 110.971 53.6176Z" fill="#452260"/>
<path d="M115.085 51.6462C115.274 51.6462 115.445 51.6977 115.582 51.7834C115.719 51.8862 115.788 52.0405 115.788 52.2976C115.788 52.5547 115.719 52.709 115.582 52.8118C115.445 52.9147 115.291 52.9661 115.085 52.9661C114.897 52.9661 114.725 52.9147 114.588 52.8118C114.451 52.709 114.382 52.5376 114.382 52.2976C114.382 52.0576 114.451 51.8862 114.588 51.7834C114.725 51.6977 114.879 51.6462 115.085 51.6462ZM115.702 53.7203V59.0855H114.451V53.7203H115.702Z" fill="#452260"/>
<path d="M120.159 53.6175C120.758 53.6175 121.221 53.7717 121.564 54.0803C121.907 54.3888 122.078 54.8859 122.078 55.5887V59.0855H120.827V55.8458C120.827 55.0402 120.501 54.646 119.833 54.646C119.336 54.646 118.993 54.8002 118.804 55.1259C118.616 55.4344 118.53 55.8973 118.53 56.48V59.1027H117.279V53.7375H118.239L118.41 54.4403H118.479C118.65 54.166 118.89 53.9603 119.181 53.8232C119.507 53.686 119.833 53.6175 120.159 53.6175ZM117.742 53.0861C117.776 52.6233 117.913 52.2633 118.136 52.0234C118.359 51.7834 118.633 51.6634 118.959 51.6634C119.147 51.6634 119.319 51.7148 119.49 51.8005C119.661 51.8862 119.833 51.9719 119.987 52.0748C120.141 52.1605 120.296 52.2119 120.45 52.2119C120.707 52.2119 120.861 52.0234 120.947 51.6634H121.598C121.564 52.1262 121.427 52.469 121.204 52.709C120.981 52.949 120.707 53.069 120.381 53.069C120.21 53.069 120.021 53.0175 119.85 52.9318C119.679 52.8461 119.507 52.7604 119.353 52.6576C119.199 52.5719 119.027 52.5204 118.89 52.5204C118.633 52.5204 118.462 52.709 118.393 53.069H117.742V53.0861Z" fill="#452260"/>
<path d="M125.832 53.6176C126.552 53.6176 127.118 53.8404 127.546 54.2689C127.958 54.6974 128.18 55.2974 128.18 56.0687V56.703H124.632C124.649 57.1829 124.786 57.5772 125.044 57.8343C125.301 58.1085 125.661 58.2285 126.106 58.2285C126.449 58.2285 126.758 58.1942 127.032 58.1257C127.306 58.0571 127.598 57.9543 127.889 57.8171V58.8113C127.632 58.9313 127.358 59.0341 127.066 59.0856C126.775 59.137 126.449 59.1713 126.055 59.1713C125.541 59.1713 125.078 59.0684 124.666 58.8627C124.255 58.657 123.947 58.3485 123.724 57.9543C123.501 57.5429 123.381 57.0458 123.381 56.4287C123.381 55.5202 123.604 54.8174 124.067 54.3375C124.495 53.8575 125.095 53.6176 125.832 53.6176ZM125.832 54.5432C125.489 54.5432 125.215 54.646 125.009 54.8689C124.804 55.0917 124.684 55.4002 124.649 55.8288H126.963C126.963 55.4516 126.861 55.1603 126.689 54.9203C126.518 54.6803 126.209 54.5432 125.832 54.5432Z" fill="#452260"/>
<path d="M133.014 59.0855H128.9V58.3313L131.54 54.6802H129.055V53.7374H132.946V54.5773L130.357 58.1427H133.014V59.0855Z" fill="#452260"/>
</svg>
