<svg width="186" height="186" viewBox="0 0 186 186" fill="none" xmlns="http://www.w3.org/2000/svg">
<g clip-path="url(#clip0_1140_1880)">
<mask id="mask0_1140_1880" style="mask-type:luminance" maskUnits="userSpaceOnUse" x="0" y="0" width="186" height="186">
<path d="M186 0H0V186H186V0Z" fill="white"/>
</mask>
<g mask="url(#mask0_1140_1880)">
<path d="M-222.184 52.39C-222.184 52.39 -221.599 50.0305 -220.272 45.8627C-218.964 41.6433 -216.88 35.5638 -213.728 27.9861C-210.559 20.4255 -206.374 11.3839 -200.519 1.53275C-194.646 -8.26669 -187.189 -18.9445 -177.062 -28.8989C-167.09 -38.8706 -154.019 -47.8951 -138.432 -52.8723C-130.665 -55.3867 -122.312 -56.7817 -113.753 -56.885C-105.383 -57.0745 -97.1852 -57.6773 -89.6419 -61.2078C-85.8185 -62.8095 -82.4946 -65.3584 -79.3085 -68.1139C-76.3635 -71.1106 -73.5908 -74.3828 -71.4035 -78.1373C-66.9085 -85.56 -63.7913 -93.9817 -61.0702 -102.61C-55.6108 -119.815 -51.6841 -138.312 -42.1774 -154.724C-37.4413 -162.853 -30.8969 -170.087 -22.923 -175.184C-14.9663 -180.317 -5.82132 -183.141 3.28923 -184.433C12.4514 -185.879 21.5965 -185.242 30.4142 -185.759C39.2664 -186.172 48.0498 -187.068 56.3337 -189.307C64.6003 -191.511 72.3676 -195.197 78.5503 -200.639C84.6642 -206.15 89.2109 -212.97 92.9137 -219.962C100.233 -234.016 105.882 -248.017 112.478 -260.245C125.257 -284.993 139.81 -303.266 150.384 -315.477C155.758 -321.539 160.08 -326.223 163.146 -329.272C166.194 -332.389 167.796 -334.025 167.796 -334.025C167.796 -334.025 166.194 -332.354 163.198 -329.22C160.149 -326.137 155.878 -321.418 150.574 -315.322C140.137 -303.008 125.791 -284.632 113.305 -259.832C106.829 -247.552 101.353 -233.551 94.102 -219.325C90.4681 -212.247 85.887 -205.22 79.6181 -199.433C73.2803 -193.733 65.272 -189.858 56.8331 -187.533C48.3598 -185.173 39.5076 -184.174 30.5348 -183.658C21.562 -183.055 12.5031 -183.606 3.65089 -182.091C-5.20132 -180.73 -13.9502 -177.906 -21.4591 -172.946C-29.0024 -168.02 -35.1335 -161.114 -39.6285 -153.243C-48.653 -137.33 -52.4074 -119.04 -57.7291 -101.594C-60.3813 -92.845 -63.4986 -84.1306 -68.183 -76.2084C-70.4563 -72.23 -73.4013 -68.6306 -76.5874 -65.3239C-80.0146 -62.2756 -83.7002 -59.4339 -87.8852 -57.6256L-90.9852 -56.1962L-94.2058 -55.2145C-96.3241 -54.4567 -98.5285 -54.0434 -100.767 -53.7162C-103.006 -53.2512 -105.159 -53.0445 -107.243 -52.9928L-113.581 -52.6656C-121.744 -52.4934 -129.649 -51.0984 -136.986 -48.6356C-151.711 -43.7789 -164.042 -35.0989 -173.531 -25.42C-183.159 -15.7928 -190.289 -5.37338 -195.903 4.20218C-201.483 13.8122 -205.513 22.6816 -208.51 30.07C-211.506 37.4927 -213.504 43.4516 -214.727 47.5333C-215.967 51.6494 -216.466 53.785 -216.466 53.785L-222.184 52.39Z" fill="#FEE56F"/>
</g>
<mask id="mask1_1140_1880" style="mask-type:luminance" maskUnits="userSpaceOnUse" x="0" y="0" width="186" height="186">
<path d="M186 0H0V186H186V0Z" fill="white"/>
</mask>
<g mask="url(#mask1_1140_1880)">
<path d="M-211.937 62.6544C-211.937 62.6544 -211.351 60.295 -210.025 56.1272C-208.716 51.9078 -206.615 45.8283 -203.48 38.2505C-200.329 30.69 -196.109 21.6311 -190.271 11.7972C-184.398 1.99777 -176.941 -8.6972 -166.814 -18.6344C-156.825 -28.6061 -143.771 -37.6306 -128.185 -42.6078C-120.418 -45.1222 -112.048 -46.5172 -103.505 -46.6206C-95.1354 -46.7928 -86.9377 -47.4128 -79.3943 -50.9433C-75.571 -52.545 -72.2299 -55.0939 -69.061 -57.8322C-66.116 -60.8289 -63.3432 -64.1011 -61.1732 -67.8728C-56.6782 -75.2783 -53.561 -83.7172 -50.8399 -92.3456C-45.3805 -109.551 -41.4366 -128.047 -31.9471 -144.443C-27.1938 -152.572 -20.6666 -159.822 -12.6927 -164.903C-4.73601 -170.035 4.40898 -172.859 13.5195 -174.168C22.6817 -175.615 31.8268 -174.978 40.6617 -175.494C49.4967 -175.908 58.2801 -176.803 66.564 -179.042C74.8478 -181.247 82.5978 -184.932 88.7806 -190.374C94.8773 -195.886 99.4412 -202.706 103.127 -209.698C110.446 -223.734 116.095 -237.753 122.691 -249.981C135.47 -274.729 150.023 -293.019 160.597 -305.212C165.971 -311.274 170.293 -315.942 173.359 -319.007C176.39 -322.107 178.009 -323.761 178.009 -323.761C178.009 -323.761 176.424 -322.09 173.411 -318.956C170.362 -315.873 166.091 -311.154 160.787 -305.04C150.333 -292.726 136.004 -274.35 123.501 -249.55C117.025 -237.288 111.548 -223.269 104.315 -209.043C100.681 -201.965 96.0829 -194.938 89.8312 -189.152C83.4934 -183.468 75.485 -179.576 67.0462 -177.251C58.5728 -174.892 49.7206 -173.893 40.7478 -173.393C31.7751 -172.791 22.7334 -173.324 13.8812 -171.826C5.02898 -170.466 -3.71992 -167.641 -11.246 -162.681C-18.7894 -157.756 -24.9205 -150.849 -29.4155 -142.979C-38.4399 -127.066 -42.1944 -108.758 -47.516 -91.3122C-50.1682 -82.5633 -53.2854 -73.8661 -57.9699 -65.9439C-60.226 -61.9483 -63.1882 -58.3489 -66.3743 -55.0594C-69.8016 -51.9939 -73.5043 -49.1522 -77.6721 -47.3439L-80.7721 -45.9317L-84.0099 -44.9328C-86.111 -44.1922 -88.3327 -43.7617 -90.5716 -43.4344C-92.8104 -42.9867 -94.9632 -42.7628 -97.0471 -42.7283L-103.385 -42.4011C-111.531 -42.2289 -119.47 -40.8167 -126.79 -38.3539C-141.567 -33.5144 -153.898 -24.8344 -163.387 -15.1555C-173.014 -5.52832 -180.144 4.89111 -185.742 14.4667C-191.339 24.0767 -195.369 32.9461 -198.348 40.3517C-201.328 47.7572 -203.325 53.7334 -204.548 57.815C-205.788 61.9311 -206.305 64.0667 -206.305 64.0667L-211.937 62.6544Z" fill="#FEE56F"/>
</g>
<mask id="mask2_1140_1880" style="mask-type:luminance" maskUnits="userSpaceOnUse" x="0" y="0" width="186" height="186">
<path d="M186 0H0V186H186V0Z" fill="white"/>
</mask>
<g mask="url(#mask2_1140_1880)">
<path d="M-201.689 72.9017C-201.689 72.9017 -201.104 70.5422 -199.778 66.3744C-198.469 62.1722 -196.368 56.0756 -193.233 48.4978C-190.082 40.9373 -185.879 31.8783 -180.024 22.0445C-174.168 12.245 -166.677 1.55002 -156.567 -8.38721C-146.578 -18.3589 -133.524 -27.4005 -117.938 -32.3606C-110.171 -34.875 -101.801 -36.27 -93.2583 -36.3733C-84.8711 -36.5455 -76.6906 -37.1656 -69.13 -40.6961C-65.3067 -42.2978 -61.9656 -44.8294 -58.7967 -47.585C-55.8517 -50.5817 -53.0789 -53.8539 -50.9089 -57.6083C-46.4139 -65.0311 -43.2794 -73.4528 -40.5755 -82.0811C-35.1333 -99.3033 -31.1894 -117.783 -21.6828 -134.196C-16.9467 -142.324 -10.4194 -149.575 -2.44554 -154.656C5.51112 -159.788 14.6561 -162.612 23.7667 -163.921C32.9461 -165.368 42.0739 -164.731 50.9089 -165.23C59.7439 -165.643 68.5445 -166.556 76.8283 -168.778C85.095 -170.982 92.8622 -174.668 99.045 -180.11C105.159 -185.621 109.723 -192.441 113.391 -199.433C120.711 -213.487 126.359 -227.488 132.956 -239.716C145.734 -264.464 160.287 -282.737 170.862 -294.948C176.235 -301.01 180.558 -305.677 183.623 -308.743C186.654 -311.843 188.273 -313.496 188.273 -313.496C188.273 -313.496 186.689 -311.826 183.675 -308.691C180.627 -305.591 176.356 -300.889 171.051 -294.776C160.597 -282.462 146.268 -264.086 133.782 -239.286C127.307 -227.023 121.83 -213.004 114.579 -198.779C110.946 -191.701 106.347 -184.674 100.096 -178.887C93.7578 -173.204 85.7495 -169.312 77.3106 -166.987C68.8372 -164.627 59.985 -163.628 51.0123 -163.112C42.0395 -162.526 32.9978 -163.06 24.1456 -161.562C15.2244 -160.236 6.47557 -157.411 -1.05054 -152.468C-8.59387 -147.543 -14.725 -140.637 -19.22 -132.749C-28.2272 -116.836 -31.9989 -98.5455 -37.3206 -81.0822C-39.99 -72.3333 -43.09 -63.6361 -47.7917 -55.7139C-50.0478 -51.7183 -53.01 -48.1189 -56.1961 -44.8122C-59.6233 -41.7639 -63.3261 -38.905 -67.5111 -37.1139L-70.5939 -35.6844L-73.8317 -34.7028C-75.95 -33.945 -78.1544 -33.5317 -80.3761 -33.2044C-82.6322 -32.7394 -84.7678 -32.5328 -86.8517 -32.4811L-93.1894 -32.1539C-101.353 -31.9817 -109.275 -30.5867 -116.594 -28.1239C-131.319 -23.2672 -143.633 -14.5872 -153.14 -4.90833C-162.75 4.7189 -169.897 15.1383 -175.512 24.7139C-181.092 34.3239 -185.122 43.1934 -188.118 50.5989C-191.098 58.0217 -193.078 63.9806 -194.318 68.0622C-195.558 72.1783 -196.058 74.3139 -196.058 74.3139L-201.689 72.9017Z" fill="#FEE56F"/>
</g>
<mask id="mask3_1140_1880" style="mask-type:luminance" maskUnits="userSpaceOnUse" x="0" y="0" width="186" height="186">
<path d="M186 0H0V186H186V0Z" fill="white"/>
</mask>
<g mask="url(#mask3_1140_1880)">
<path d="M-191.442 83.1661C-191.442 83.1661 -190.857 80.8066 -189.548 76.6389C-188.239 72.4194 -186.138 66.3228 -183.003 58.7622C-179.852 51.2016 -175.632 42.16 -169.794 32.3261C-163.939 22.5266 -156.464 11.8316 -146.337 1.89441C-136.348 -8.07724 -123.294 -17.1017 -107.708 -22.0789C-99.9407 -24.5934 -91.5879 -25.9883 -83.0457 -26.0917C-74.6585 -26.2639 -66.4779 -26.8839 -58.9174 -30.4317C-55.094 -32.0161 -51.7529 -34.565 -48.584 -37.3033C-45.639 -40.3 -42.8663 -43.5895 -40.6963 -47.3439C-36.1841 -54.7495 -33.0668 -63.1884 -30.3629 -71.8167C-24.9035 -89.0217 -20.9768 -107.518 -11.4702 -123.931C-6.71683 -132.077 -0.206833 -139.328 7.76706 -144.408C15.7237 -149.541 24.8687 -152.365 33.9793 -153.674C43.1587 -155.121 52.2865 -154.483 61.1215 -154.983C69.9565 -155.396 78.7398 -156.309 87.041 -158.531C95.3076 -160.735 103.058 -164.421 109.24 -169.863C115.354 -175.374 119.918 -182.194 123.587 -189.186C130.906 -203.222 136.555 -217.241 143.168 -229.469C155.947 -254.217 170.483 -272.49 181.057 -284.701C186.43 -290.763 190.753 -295.43 193.836 -298.496C196.867 -301.596 198.486 -303.249 198.486 -303.249C198.486 -303.249 196.884 -301.578 193.888 -298.444C190.839 -295.344 186.568 -290.642 181.264 -284.528C170.81 -272.214 156.464 -253.838 143.978 -229.038C137.502 -216.776 132.025 -202.774 124.792 -188.549C121.141 -181.471 116.56 -174.427 110.308 -168.657C103.97 -162.974 95.9621 -159.082 87.5232 -156.757C79.0671 -154.397 70.1976 -153.398 61.2248 -152.882C52.2521 -152.296 43.2104 -152.813 34.3582 -151.332C25.506 -149.971 16.757 -147.147 9.24817 -142.187C1.67039 -137.296 -4.46071 -130.372 -8.95572 -122.484C-17.9802 -106.571 -21.7518 -88.2811 -27.0563 -70.8178C-29.7085 -62.0689 -32.8085 -53.3717 -37.5102 -45.4495C-39.7835 -41.4367 -42.7285 -37.8545 -45.9146 -34.5478C-49.3418 -31.4995 -53.0446 -28.6406 -57.2124 -26.8322L-60.2952 -25.42L-63.5502 -24.4556C-65.6685 -23.6978 -67.8729 -23.2845 -70.1118 -22.9572C-72.3507 -22.4922 -74.5035 -22.2856 -76.5874 -22.2339L-82.9424 -21.9067C-91.1057 -21.7345 -99.0107 -20.3395 -106.347 -17.8767C-121.072 -13.02 -133.386 -4.34003 -142.893 5.33887C-152.503 14.9661 -159.65 25.3855 -165.247 34.9611C-170.845 44.5711 -174.875 53.4406 -177.871 60.8461C-180.851 68.2516 -182.831 74.2278 -184.071 78.3094C-185.311 82.4255 -185.811 84.5611 -185.811 84.5611L-191.442 83.1661Z" fill="#FEE56F"/>
</g>
<mask id="mask4_1140_1880" style="mask-type:luminance" maskUnits="userSpaceOnUse" x="0" y="0" width="186" height="186">
<path d="M186 0H0V186H186V0Z" fill="white"/>
</mask>
<g mask="url(#mask4_1140_1880)">
<path d="M-181.195 93.4133C-181.195 93.4133 -180.609 91.0538 -179.3 86.8688C-177.991 82.6666 -175.89 76.5699 -172.739 68.9922C-169.604 61.4316 -165.385 52.39 -159.529 42.5561C-153.674 32.7566 -146.199 22.0616 -136.073 12.1244C-126.084 2.15274 -113.029 -6.88895 -97.4432 -11.8489C-89.6759 -14.3634 -81.3232 -15.7584 -72.7809 -15.8617C-64.3937 -16.0339 -56.1959 -16.6539 -48.6526 -20.1845C-44.8293 -21.7862 -41.4882 -24.3178 -38.3193 -27.0734C-35.3743 -30.07 -32.6015 -33.3423 -30.4143 -37.0967C-25.902 -44.5195 -22.7848 -52.9412 -20.0809 -61.5695C-14.6387 -78.8089 -10.712 -97.3056 -1.2226 -113.701C3.53073 -121.83 10.9363 -121.348 18.8929 -126.428C26.8496 -131.543 35.1163 -142.118 44.2268 -143.409C53.4063 -144.856 62.5341 -144.219 71.3691 -144.736C80.2041 -145.132 89.0046 -146.044 97.2885 -148.266C105.555 -150.471 113.322 -154.156 119.488 -159.598C125.585 -165.109 130.166 -171.929 133.851 -178.922C141.171 -192.975 146.82 -206.994 153.433 -219.222C166.195 -243.97 180.747 -262.243 191.322 -274.453C196.695 -280.516 201.018 -285.183 204.084 -288.248C207.115 -291.348 208.734 -293.002 208.734 -293.002C208.734 -293.002 207.132 -291.331 204.135 -288.197C201.087 -285.114 196.816 -280.395 191.511 -274.281C181.075 -261.984 166.711 -243.608 154.242 -218.791C147.767 -206.529 142.29 -192.527 135.04 -178.284C131.406 -171.206 126.807 -164.179 120.556 -158.41C114.218 -152.709 106.21 -148.834 97.7708 -146.492C89.2974 -144.15 80.4279 -143.151 71.4552 -142.634C62.4824 -142.049 53.4235 -142.583 44.5713 -141.084C35.7191 -139.724 26.9702 -136.899 19.4613 -131.939C11.918 -127.031 5.78685 -120.125 1.29184 -112.237C-7.7326 -96.3411 -11.5043 -78.034 -16.8087 -60.5878C-19.4609 -51.8389 -22.5609 -43.1245 -27.2454 -35.2195C-29.5187 -31.2239 -32.4637 -27.6245 -35.667 -24.3351C-39.0943 -21.2695 -42.7798 -18.445 -46.9648 -16.6195L-50.0648 -15.19L-53.3026 -14.2256C-55.4037 -13.4678 -57.6254 -13.0545 -59.847 -12.7273C-62.1032 -12.2623 -64.2387 -12.0556 -66.3226 -12.0039L-72.6604 -11.6767C-80.8237 -11.5045 -88.7287 -10.1095 -96.0826 -7.64673C-110.808 -2.77283 -123.139 5.90717 -132.645 15.5861C-142.273 25.2305 -149.403 35.6499 -155 45.2083C-160.597 54.8183 -164.627 63.6877 -167.606 71.0933C-170.603 78.5161 -172.584 84.4749 -173.824 88.5566C-175.064 92.6727 -175.58 94.8083 -175.58 94.8083L-181.195 93.4133Z" fill="#FEE56F"/>
</g>
<mask id="mask5_1140_1880" style="mask-type:luminance" maskUnits="userSpaceOnUse" x="0" y="0" width="186" height="186">
<path d="M186 0H0V186H186V0Z" fill="white"/>
</mask>
<g mask="url(#mask5_1140_1880)">
<path d="M-170.948 103.643C-170.948 103.643 -170.362 101.284 -169.036 97.1161C-167.727 92.9138 -165.626 86.8172 -162.492 79.2394C-159.34 71.6789 -155.138 62.6199 -149.282 52.786C-143.409 42.9866 -135.952 32.2916 -125.826 22.3544C-115.854 12.3827 -102.799 3.35828 -87.1961 -1.61896C-79.4461 -4.13339 -71.0761 -5.52838 -62.5339 -5.63171C-54.1639 -5.82117 -45.9661 -6.42395 -38.4228 -9.97174C-34.5995 -11.5562 -31.2583 -14.1051 -28.0894 -16.8606C-25.1445 -19.8573 -22.3717 -23.1295 -20.1845 -26.8839C-15.6722 -34.3067 -12.555 -42.7284 -9.85114 -51.3567C-4.39169 -68.5617 -0.465012 -87.0584 9.02443 -103.471C13.7778 -111.583 20.305 -118.833 28.2789 -123.914C36.2355 -129.046 45.3805 -131.888 54.4911 -133.18C63.6533 -134.626 72.7983 -133.989 81.6161 -134.488C90.4511 -134.902 99.2516 -135.797 107.536 -138.036C115.802 -140.241 123.569 -143.926 129.735 -149.368C135.849 -154.88 140.413 -161.7 144.098 -168.692C151.435 -182.745 157.067 -196.747 163.68 -208.992C176.459 -233.74 191.012 -252.013 201.586 -264.206C206.959 -270.268 211.265 -274.936 214.348 -278.001C217.379 -281.101 218.998 -282.755 218.998 -282.755C218.998 -282.755 217.396 -281.101 214.399 -277.967C211.351 -274.884 207.08 -270.148 201.775 -264.051C191.339 -251.737 176.993 -233.378 164.507 -208.561C158.031 -196.299 152.554 -182.28 145.304 -168.055C141.67 -160.976 137.072 -153.95 130.82 -148.163C124.482 -142.48 116.474 -138.587 108.052 -136.262C99.5789 -133.903 90.7266 -132.904 81.7366 -132.387C72.7811 -131.802 63.7222 -132.336 54.87 -130.82C46.0177 -129.46 37.2688 -126.652 29.7427 -121.692C22.1822 -116.801 16.0339 -109.878 11.5389 -101.99C2.51442 -86.0767 -1.25725 -67.7867 -6.5789 -50.3406C-9.23112 -41.5745 -12.3311 -32.8773 -17.0156 -24.9723C-19.2889 -20.9767 -22.2339 -17.3773 -25.4372 -14.0878C-28.8645 -11.0223 -32.55 -8.1806 -36.735 -6.37228L-39.835 -4.94284L-43.0556 -3.96118C-45.1739 -3.22061 -47.3783 -2.79007 -49.6172 -2.46283C-51.8561 -1.99783 -54.0089 -1.79117 -56.0928 -1.7395L-62.4306 -1.41226C-70.5939 -1.24005 -78.5161 0.17218 -85.8356 2.63495C-100.561 7.4744 -112.892 16.1544 -122.398 25.8333C-132.008 35.4605 -139.156 45.8799 -144.753 55.4727C-150.35 65.0827 -154.363 73.935 -157.359 81.3405C-160.356 88.7633 -162.337 94.7222 -163.577 98.8038C-164.817 102.92 -165.316 105.038 -165.316 105.038L-170.948 103.643Z" fill="#FEE56F"/>
</g>
<mask id="mask6_1140_1880" style="mask-type:luminance" maskUnits="userSpaceOnUse" x="0" y="0" width="186" height="186">
<path d="M186 0H0V186H186V0Z" fill="white"/>
</mask>
<g mask="url(#mask6_1140_1880)">
<path d="M-159.133 112.168C-159.133 112.168 -158.548 109.809 -157.222 105.641C-155.913 101.439 -153.812 95.3422 -150.677 87.7644C-147.526 80.2039 -143.323 71.1622 -137.468 61.3283C-131.595 51.5288 -124.121 40.8339 -114.011 30.8966C-104.022 20.925 -90.9678 11.9005 -75.3817 6.92328C-67.6144 4.40884 -59.2617 3.01385 -50.7022 2.91052C-42.3322 2.73831 -34.1344 2.11832 -26.5911 -1.41223C-22.7678 -3.01392 -19.4439 -5.56281 -16.2578 -8.31836C-13.3128 -11.315 -10.54 -14.5872 -8.35278 -18.3417C-3.85779 -25.7645 -0.740555 -34.1861 1.98055 -42.8145C7.40555 -60.0367 11.3494 -78.5334 20.8389 -94.9289C25.575 -103.058 32.1194 -110.291 40.0933 -115.389C48.05 -120.521 57.195 -123.346 66.3055 -124.637C75.4678 -126.084 84.6127 -125.447 93.4478 -125.963C102.283 -126.377 111.066 -127.272 119.35 -129.511C127.617 -131.716 135.384 -135.401 141.567 -140.843C147.681 -146.354 152.227 -153.174 155.93 -160.167C163.249 -174.22 168.898 -188.222 175.494 -200.449C188.273 -225.198 202.826 -243.471 213.401 -255.681C218.774 -261.743 223.097 -266.411 226.162 -269.476C229.193 -272.593 230.812 -274.229 230.812 -274.229C230.812 -274.229 229.211 -272.559 226.214 -269.424C223.165 -266.342 218.894 -261.623 213.59 -255.509C203.153 -243.195 188.807 -224.819 176.321 -200.019C169.846 -187.739 164.369 -173.738 157.118 -159.512C153.484 -152.434 148.886 -145.407 142.634 -139.638C136.297 -133.937 128.288 -130.062 119.849 -127.72C111.342 -125.378 102.489 -124.379 93.5166 -123.879C84.5439 -123.277 75.485 -123.828 66.65 -122.312C57.7978 -120.952 49.0489 -118.127 41.5228 -113.167C33.9794 -108.242 27.8483 -101.336 23.3533 -93.465C14.3289 -77.5517 10.5744 -59.2617 5.25278 -41.7984C2.5661 -33.0667 -0.53389 -24.3523 -5.21834 -16.43C-7.47444 -12.4517 -10.4367 -8.85223 -13.6228 -5.54559C-17.05 -2.49725 -20.7528 0.344421 -24.9206 2.15274L-28.0206 3.58218L-31.2411 4.58109C-33.3594 5.32162 -35.5639 5.7522 -37.8028 6.07941C-40.0417 6.54443 -42.1944 6.75107 -44.2783 6.80273L-50.6161 7.12997C-58.7622 7.30219 -66.6844 8.71442 -74.0211 11.16C-88.7633 16.0166 -101.094 24.6794 -110.584 34.3583C-120.211 43.9855 -127.341 54.405 -132.956 63.9805C-138.536 73.5905 -142.566 82.46 -145.562 89.8483C-148.559 97.2711 -150.539 103.23 -151.779 107.312C-153.019 111.428 -153.519 113.563 -153.519 113.563L-159.133 112.168Z" fill="#FEE56F"/>
</g>
<mask id="mask7_1140_1880" style="mask-type:luminance" maskUnits="userSpaceOnUse" x="0" y="0" width="186" height="186">
<path d="M186 0H0V186H186V0Z" fill="white"/>
</mask>
<g mask="url(#mask7_1140_1880)">
<path d="M-150.453 124.155C-150.453 124.155 -149.868 121.796 -148.541 117.628C-147.233 113.408 -145.131 107.329 -141.997 99.7511C-138.845 92.1906 -134.643 83.1317 -128.788 73.2978C-122.932 63.4984 -115.458 52.8033 -105.331 42.8661C-95.342 32.8772 -82.2876 23.8528 -66.7015 18.8928C-58.9342 16.3611 -50.5642 14.9661 -42.022 14.88C-33.6348 14.7078 -25.4542 14.0878 -17.8937 10.5573C-14.0876 8.95557 -10.7464 6.40668 -7.57756 3.66837C-4.63255 0.654449 -1.85979 -2.61777 0.310226 -6.38943C4.80522 -13.795 7.92244 -22.2339 10.6436 -30.8622C16.103 -48.0672 20.0469 -66.5639 29.5363 -82.9594C34.2897 -91.0883 40.8169 -98.3389 48.7908 -103.419C56.7474 -108.552 65.8925 -111.376 75.003 -112.685C84.1824 -114.132 93.3102 -113.494 102.145 -114.011C110.98 -114.407 119.764 -115.32 128.065 -117.559C136.331 -119.763 144.099 -123.449 150.281 -128.874C156.378 -134.385 160.942 -141.222 164.627 -148.214C171.947 -162.251 177.596 -176.269 184.192 -188.497C196.971 -213.246 211.524 -231.518 222.098 -243.729C227.471 -249.791 231.794 -254.458 234.86 -257.524C237.891 -260.624 239.51 -262.277 239.51 -262.277C239.51 -262.277 237.925 -260.607 234.911 -257.472C231.863 -254.389 227.592 -249.671 222.287 -243.557C211.834 -231.243 197.505 -212.867 185.001 -188.067C178.543 -175.804 173.049 -161.786 165.816 -147.56C162.182 -140.482 157.584 -133.455 151.332 -127.668C144.994 -121.985 136.986 -118.093 128.547 -115.768C120.074 -113.408 111.221 -112.409 102.249 -111.893C93.2758 -111.307 84.2341 -111.841 75.3819 -110.343C66.5297 -108.982 57.7808 -106.158 50.2547 -101.198C42.7113 -96.2722 36.5802 -89.3661 32.0852 -81.4956C23.0608 -65.5822 19.3063 -47.275 13.9847 -29.8289C11.2636 -21.08 8.18079 -12.3828 3.47911 -4.46054C1.22301 -0.464996 -1.73921 3.11725 -4.92532 6.42392C-8.36978 9.48947 -12.0553 12.3311 -16.2403 14.1395L-19.3403 15.5517L-22.5609 16.5334C-24.662 17.2739 -26.8837 17.7044 -29.1226 18.0317C-31.3614 18.4967 -33.5142 18.7034 -35.5981 18.7378L-41.9531 19.065C-50.0992 19.2372 -58.0215 20.6494 -65.3581 23.1122C-80.1003 27.9689 -92.4142 36.6489 -101.921 46.3278C-111.548 55.955 -118.678 66.3745 -124.275 75.95C-129.855 85.56 -133.885 94.4294 -136.882 101.835C-139.861 109.241 -141.859 115.217 -143.082 119.298C-144.322 123.414 -144.839 125.55 -144.839 125.55L-150.453 124.155Z" fill="#FEE56F"/>
</g>
<mask id="mask8_1140_1880" style="mask-type:luminance" maskUnits="userSpaceOnUse" x="0" y="0" width="186" height="186">
<path d="M186 0H0V186H186V0Z" fill="white"/>
</mask>
<g mask="url(#mask8_1140_1880)">
<path d="M-140.206 134.402C-140.206 134.402 -139.621 132.043 -138.294 127.858C-136.986 123.638 -134.884 117.542 -131.75 109.981C-128.598 102.421 -124.379 93.3616 -118.541 83.5277C-112.685 73.7283 -105.193 63.0505 -95.0838 53.0961C-85.0949 43.1244 -72.0405 34.0828 -56.4544 29.1227C-48.6872 26.6083 -40.3172 25.2133 -31.7749 25.11C-23.3877 24.9378 -15.2072 24.335 -7.64662 20.7872C-3.82329 19.2028 -0.482162 16.6539 2.66949 13.8983C5.6145 10.9016 8.38728 7.62943 10.5573 3.87497C15.0523 -3.54781 18.1867 -11.9695 20.8906 -20.5978C26.3328 -37.82 30.2767 -56.2995 39.7834 -72.7122C44.5195 -80.8411 51.0467 -88.0917 59.0206 -93.1723C66.9773 -98.3045 76.1223 -101.129 85.2328 -102.438C94.4123 -103.884 103.54 -103.247 112.375 -103.747C121.21 -104.16 129.993 -105.073 138.277 -107.294C146.544 -109.499 154.311 -113.184 160.494 -118.627C166.591 -124.138 171.172 -130.958 174.84 -137.95C182.16 -152.003 187.808 -166.005 194.405 -178.233C207.183 -202.981 221.736 -221.254 232.311 -233.464C237.684 -239.527 242.007 -244.194 245.09 -247.259C248.103 -250.359 249.722 -252.013 249.722 -252.013C249.722 -252.013 248.138 -250.342 245.124 -247.208C242.076 -244.108 237.805 -239.406 232.5 -233.292C222.046 -220.978 207.717 -202.602 195.231 -177.802C188.756 -165.54 183.279 -151.521 176.046 -137.296C172.395 -130.217 167.813 -123.191 161.562 -117.404C155.224 -111.721 147.216 -107.828 138.777 -105.503C130.321 -103.144 121.451 -102.145 112.478 -101.628C103.506 -101.043 94.4639 -101.577 85.6117 -100.078C76.7595 -98.7178 68.0106 -95.8934 60.4845 -90.9334C52.9412 -86.0078 46.8273 -79.0845 42.315 -71.2139C33.3078 -55.3006 29.5362 -37.0106 24.2145 -19.5472C21.5106 -10.8328 18.4106 -2.11836 13.7262 5.78665C11.4528 9.7822 8.50784 13.3817 5.32173 16.6883C1.8945 19.7366 -1.80827 22.5955 -5.97606 24.3866L-9.05882 25.8161L-12.2966 26.7978C-14.3977 27.5555 -16.6194 27.9689 -18.8411 28.2961C-21.0799 28.7611 -23.2327 28.9677 -25.3166 29.0194L-31.6544 29.3466C-39.8177 29.5189 -47.7227 30.9139 -55.0594 33.3766C-69.7844 38.2333 -82.1155 46.9133 -91.6049 56.5922C-101.215 66.2194 -108.362 76.6389 -113.977 86.2144C-119.557 95.8244 -123.587 104.694 -126.583 112.099C-129.563 119.522 -131.543 125.481 -132.783 129.563C-134.023 133.679 -134.523 135.814 -134.523 135.814L-140.206 134.402Z" fill="#FEE56F"/>
</g>
<mask id="mask9_1140_1880" style="mask-type:luminance" maskUnits="userSpaceOnUse" x="0" y="0" width="186" height="186">
<path d="M186 0H0V186H186V0Z" fill="white"/>
</mask>
<g mask="url(#mask9_1140_1880)">
<path d="M-129.942 144.649C-129.942 144.649 -129.356 142.29 -128.047 138.122C-126.739 133.903 -124.637 127.823 -121.486 120.246C-118.351 112.685 -114.132 103.643 -108.276 93.8095C-102.421 84.01 -94.9463 73.315 -84.8197 63.3778C-74.8308 53.4061 -61.7764 44.3817 -46.1902 39.4044C-38.423 36.89 -30.0703 35.4778 -21.528 35.3917C-13.1408 35.2195 -4.96026 34.5995 2.6003 31.0689C6.42363 29.4672 9.76474 26.9356 12.9336 24.18C15.8786 21.1833 18.6514 17.8939 20.8214 14.1395C25.3336 6.7339 28.4509 -1.70499 31.172 -10.3161C36.6142 -27.5383 40.5581 -46.035 50.0475 -62.4305C54.8008 -70.5594 61.3281 -77.81 69.302 -82.8905C77.2586 -88.0055 86.4036 -90.8472 95.5142 -92.1561C104.694 -93.6028 113.821 -92.9655 122.656 -93.465C131.491 -93.8783 140.275 -94.7911 148.559 -97.0128C156.825 -99.2172 164.592 -102.903 170.758 -108.345C176.855 -113.856 181.436 -120.676 185.104 -127.668C192.424 -141.704 198.072 -155.723 204.686 -167.951C217.465 -192.699 232.017 -210.972 242.592 -223.183C247.965 -229.245 252.271 -233.912 255.354 -236.978C258.385 -240.078 260.004 -241.731 260.004 -241.731C260.004 -241.731 258.402 -240.061 255.405 -236.926C252.357 -233.826 248.086 -229.124 242.781 -223.011C232.327 -210.697 217.981 -192.321 205.512 -167.521C199.037 -155.258 193.56 -141.257 186.31 -127.031C182.676 -119.953 178.077 -112.909 171.826 -107.139C165.488 -101.456 157.48 -97.5639 149.041 -95.2389C140.585 -92.8794 131.715 -91.8805 122.742 -91.3639C113.787 -90.7611 104.728 -91.295 95.8758 -89.7966C87.0236 -88.4361 78.2747 -85.6116 70.7658 -80.6516C63.1708 -75.7778 57.0397 -68.8717 52.5275 -61.0011C43.5031 -45.0878 39.7314 -26.7978 34.427 -9.33443C31.7747 -0.568314 28.6747 8.12889 23.9731 16.0339C21.6997 20.0467 18.7547 23.6289 15.5686 26.9356C12.1414 29.9839 8.43863 32.8428 4.27084 34.6511L1.17085 36.0634L-2.06693 37.045C-4.16804 37.8028 -6.38969 38.2161 -8.62859 38.5434C-10.8675 39.0084 -13.0203 39.215 -15.1041 39.2667L-21.4419 39.5939C-29.6053 39.7661 -37.5102 41.1611 -44.8641 43.6239C-59.5891 48.4806 -71.9202 57.1606 -81.4097 66.8394C-91.0369 76.4667 -98.1669 86.9034 -103.764 96.4789C-109.361 106.089 -113.391 114.958 -116.388 122.364C-119.367 129.769 -121.348 135.746 -122.588 139.827C-123.828 143.943 -124.327 146.079 -124.327 146.079L-129.942 144.649Z" fill="#FEE56F"/>
</g>
<mask id="mask10_1140_1880" style="mask-type:luminance" maskUnits="userSpaceOnUse" x="0" y="0" width="186" height="186">
<path d="M186 0H0V186H186V0Z" fill="white"/>
</mask>
<g mask="url(#mask10_1140_1880)">
<path d="M-119.694 154.897C-119.694 154.897 -119.109 152.537 -117.8 148.369C-116.491 144.167 -114.39 138.071 -111.238 130.493C-108.087 122.932 -103.884 113.873 -98.0288 104.039C-92.1732 94.24 -84.6988 83.545 -74.5721 73.6078C-64.6004 63.6362 -51.546 54.5945 -35.9427 49.6345C-28.1927 47.12 -19.8227 45.725 -11.2804 45.6217C-2.91045 45.4495 5.28733 44.8295 12.8307 41.299C16.654 39.6973 19.9951 37.1656 23.164 34.41C26.109 31.4134 28.8818 28.1411 31.069 24.3867C35.5812 16.9639 38.6985 8.54227 41.4023 -0.0860748C46.8618 -17.3083 50.7885 -35.7877 60.2779 -52.2005C65.0312 -60.3294 71.5585 -67.5627 79.5323 -72.6605C87.489 -77.7927 96.6168 -80.6344 105.745 -81.9261C114.907 -83.3727 124.035 -82.7355 132.87 -83.235C141.705 -83.6483 150.505 -84.5611 158.789 -86.7827C167.056 -88.9872 174.823 -92.6727 180.988 -98.115C187.102 -103.626 191.666 -110.446 195.352 -117.438C202.671 -131.474 208.32 -145.493 214.933 -157.738C227.712 -182.487 242.248 -200.759 252.822 -212.97C258.196 -219.032 262.501 -223.699 265.584 -226.765C268.615 -229.865 270.234 -231.518 270.234 -231.518C270.234 -231.518 268.632 -229.848 265.618 -226.713C262.57 -223.631 258.299 -218.912 252.995 -212.798C242.558 -200.501 228.195 -182.125 215.726 -157.308C209.25 -145.046 203.773 -131.027 196.523 -116.801C192.889 -109.723 188.291 -102.679 182.039 -96.9266C175.701 -91.2261 167.693 -87.3511 159.254 -85.0089C150.798 -82.6666 141.928 -81.6505 132.956 -81.1511C123.983 -80.5655 114.924 -81.0994 106.072 -79.6011C97.2196 -78.2405 88.4707 -75.4161 80.9618 -70.4561C73.4357 -65.5305 67.2873 -58.6244 62.7923 -50.7366C53.7679 -34.8405 49.9962 -16.5505 44.6746 0.912827C42.0223 9.66171 38.9223 18.3761 34.2379 26.2812C31.9646 30.2767 29.0196 33.8762 25.8162 37.1656C22.4062 40.2312 18.7034 43.0556 14.5184 44.8811L11.4184 46.3106L8.19788 47.275C6.07955 48.0328 3.85789 48.4462 1.63622 48.7906C-0.619888 49.2556 -2.75544 49.4622 -4.83932 49.5139L-11.1771 49.8412C-19.3404 50.0134 -27.2454 51.4084 -34.5993 53.8884C-49.3243 58.7451 -61.6554 67.425 -71.1449 77.1039C-80.7721 86.7311 -87.9021 97.1506 -93.4993 106.726C-99.0966 116.336 -103.109 125.206 -106.106 132.611C-109.103 140.034 -111.083 145.993 -112.323 150.075C-113.563 154.173 -114.08 156.309 -114.08 156.309L-119.694 154.897Z" fill="#FEE56F"/>
</g>
<mask id="mask11_1140_1880" style="mask-type:luminance" maskUnits="userSpaceOnUse" x="0" y="0" width="186" height="186">
<path d="M186 0H0V186H186V0Z" fill="white"/>
</mask>
<g mask="url(#mask11_1140_1880)">
<path d="M-109.43 165.144C-109.43 165.144 -108.845 162.784 -107.536 158.617C-106.227 154.414 -104.126 148.318 -100.991 140.74C-97.8396 133.179 -93.6374 124.121 -87.7818 114.287C-81.9091 104.487 -74.4518 93.7922 -64.3252 83.855C-54.3363 73.8834 -41.2991 64.8589 -25.6957 59.8817C-17.9457 57.3672 -9.57573 55.9722 -1.03351 55.8689C7.33649 55.6967 15.5515 55.0767 23.0776 51.5289C26.9009 49.9445 30.242 47.3956 33.4109 44.64C36.3559 41.6434 39.1287 38.3711 41.2987 34.5995C45.8109 27.1767 48.9281 18.755 51.632 10.1267C57.0915 -7.07831 61.0182 -25.575 70.5076 -41.9878C75.2609 -50.1167 81.7882 -57.35 89.7621 -62.4478C97.7187 -67.58 106.864 -70.4044 115.974 -71.7133C125.136 -73.16 134.281 -72.5228 143.099 -73.0222C151.934 -73.4355 160.735 -74.3311 169.019 -76.57C177.285 -78.7744 185.053 -82.46 191.235 -87.9022C197.349 -93.4133 201.913 -100.233 205.599 -107.226C212.918 -121.279 218.567 -135.281 225.163 -147.508C237.942 -172.257 252.495 -190.529 263.069 -202.74C268.443 -208.802 272.765 -213.469 275.831 -216.535C278.862 -219.635 280.481 -221.288 280.481 -221.288C280.481 -221.288 278.879 -219.618 275.883 -216.483C272.834 -213.401 268.563 -208.682 263.259 -202.568C252.822 -190.254 238.476 -171.878 225.99 -147.078C219.514 -134.816 214.038 -120.797 206.787 -106.571C203.153 -99.4928 198.572 -92.4661 192.303 -86.6967C185.983 -81.0133 177.957 -77.1211 169.535 -74.7961C161.062 -72.4366 152.21 -71.4378 143.22 -70.9211C134.264 -70.3355 125.205 -70.8694 116.353 -69.3539C107.501 -67.9933 98.752 -65.1861 91.2431 -60.2089C83.6998 -55.3005 77.5687 -48.3772 73.0737 -40.5067C64.0493 -24.5933 60.2776 -6.30331 54.9559 11.16C52.3037 19.9089 49.2037 28.6061 44.5193 36.5284C42.2459 40.5239 39.3009 44.1233 36.1148 47.4128C32.6876 50.4783 29.002 53.32 24.817 55.1284L21.717 56.5578L18.4965 57.5395C16.3782 58.28 14.1737 58.7106 11.9348 59.0378C9.69593 59.5028 7.54316 59.7095 5.45927 59.7611L-0.87851 60.0883C-9.04184 60.2606 -16.9468 61.6555 -24.2835 64.1183C-39.0085 68.975 -51.3396 77.655 -60.8463 87.3339C-70.4563 96.9611 -77.6035 107.381 -83.2007 116.973C-88.798 126.583 -92.8107 135.436 -95.8074 142.841C-98.8041 150.264 -100.802 156.223 -102.025 160.304C-103.265 164.421 -103.781 166.556 -103.781 166.556L-109.43 165.144Z" fill="#FEE56F"/>
</g>
<mask id="mask12_1140_1880" style="mask-type:luminance" maskUnits="userSpaceOnUse" x="0" y="0" width="186" height="186">
<path d="M186 0H0V186H186V0Z" fill="white"/>
</mask>
<g mask="url(#mask12_1140_1880)">
<path d="M-99.2002 175.408C-99.2002 175.408 -98.6146 173.049 -97.2885 168.864C-95.9796 164.644 -93.8785 158.565 -90.7441 150.987C-87.5924 143.427 -83.3902 134.385 -77.5346 124.551C-71.6619 114.752 -64.1874 104.057 -54.078 94.1194C-44.0891 84.1306 -31.0347 75.1061 -15.4485 70.1289C-7.68133 67.6144 0.67144 66.2195 9.23089 66.1161C17.6009 65.9439 25.7987 65.3239 33.342 61.7934C37.1653 60.1917 40.5064 57.6428 43.6753 54.8872C46.6203 51.8906 49.3931 48.6183 51.5803 44.8639C56.0753 37.4411 59.1926 29.0195 61.9137 20.3911C67.3387 3.18613 71.2998 -15.3105 80.7892 -31.7061C85.5253 -39.835 92.0698 -47.0856 100.044 -52.1661C108 -57.2811 117.145 -60.1228 126.256 -61.4144C135.418 -62.8611 144.563 -62.2239 153.398 -62.7405C162.233 -63.1367 171.016 -64.0494 179.3 -66.2883C187.567 -68.4928 195.334 -72.1783 201.5 -77.6033C207.614 -83.1144 212.16 -89.9517 215.863 -96.9439C223.183 -110.98 228.831 -124.999 235.427 -137.227C248.206 -161.975 262.759 -180.248 273.334 -192.458C278.707 -198.521 283.03 -203.205 286.095 -206.253C289.126 -209.371 290.745 -211.007 290.745 -211.007C290.745 -211.007 289.144 -209.336 286.147 -206.202C283.116 -203.119 278.827 -198.4 273.523 -192.286C263.086 -179.972 248.74 -161.596 236.254 -136.796C229.779 -124.534 224.302 -110.532 217.051 -96.2894C213.418 -89.2111 208.819 -82.1844 202.568 -76.415C196.23 -70.7317 188.221 -66.8394 179.783 -64.4972C171.309 -62.1378 162.457 -61.1389 153.484 -60.6394C144.511 -60.0539 135.47 -60.5878 126.618 -59.0894C117.765 -57.7289 109.016 -54.9044 101.49 -49.9444C93.947 -45.0189 87.8159 -38.1128 83.3209 -30.2422C74.2964 -14.3289 70.542 3.96112 65.2203 21.4245C62.5164 30.1561 59.4164 38.8706 54.732 46.7928C52.4759 50.7883 49.5137 54.3706 46.3275 57.6772C42.9003 60.7428 39.2148 63.5672 35.0298 65.3755L31.947 66.805L28.7092 67.8039C26.6081 68.5445 24.3864 68.975 22.1476 69.3022C19.9087 69.7672 17.7559 69.9739 15.672 70.0256L9.31699 70.3528C1.17089 70.525 -6.76855 71.9372 -14.088 74.3828C-28.8302 79.2567 -41.1441 87.9195 -50.6508 97.5983C-60.278 107.226 -67.408 117.645 -73.0224 127.238C-78.6024 136.848 -82.6324 145.717 -85.6291 153.123C-88.6258 160.528 -90.6063 166.504 -91.8463 170.586C-93.0863 174.702 -93.5858 176.838 -93.5858 176.838L-99.2002 175.408Z" fill="#FEE56F"/>
</g>
<mask id="mask13_1140_1880" style="mask-type:luminance" maskUnits="userSpaceOnUse" x="0" y="0" width="186" height="186">
<path d="M186 0H0V186H186V0Z" fill="white"/>
</mask>
<g mask="url(#mask13_1140_1880)">
<path d="M-88.9526 185.656C-88.9526 185.656 -88.3671 183.296 -87.041 179.128C-85.7321 174.926 -83.631 168.829 -80.4965 161.252C-77.3449 153.691 -73.1426 144.632 -67.2871 134.798C-61.4315 124.999 -53.9571 114.304 -43.8304 104.367C-33.8415 94.3778 -20.7871 85.3534 -5.20097 80.3934C2.56625 77.8789 10.9362 76.4839 19.4785 76.3806C27.8657 76.2084 36.0463 75.6056 43.6068 72.0578C47.4129 70.4734 50.7713 67.9245 53.9401 65.1689C56.8851 62.1723 59.6579 58.9 61.8279 55.1284C66.3229 47.7228 69.4401 39.2839 72.1613 30.6556C77.5863 13.4334 81.5474 -5.04607 91.0368 -21.4588C95.7729 -29.5877 102.3 -36.8383 110.274 -41.9189C118.231 -47.0511 127.376 -49.8755 136.486 -51.1844C145.666 -52.6311 154.793 -51.9939 163.628 -52.5105C172.463 -52.9066 181.23 -53.8194 189.531 -56.0583C197.797 -58.2627 205.565 -61.9483 211.747 -67.3733C217.844 -72.8844 222.408 -79.7216 226.094 -86.6966C233.413 -100.75 239.062 -114.752 245.658 -126.979C258.437 -151.728 272.99 -170.001 283.564 -182.211C288.937 -188.273 293.26 -192.958 296.326 -196.006C299.357 -199.106 300.976 -200.759 300.976 -200.759C300.976 -200.759 299.391 -199.089 296.377 -195.954C293.329 -192.872 289.058 -188.153 283.754 -182.056C273.3 -169.742 258.971 -151.366 246.467 -126.566C240.009 -114.304 234.515 -100.285 227.282 -86.0594C223.648 -78.9811 219.05 -71.9372 212.798 -66.1677C206.46 -60.4844 198.452 -56.5922 190.013 -54.2672C181.557 -51.9077 172.687 -50.9088 163.715 -50.3922C154.742 -49.8066 145.7 -50.3405 136.848 -48.8422C127.996 -47.4816 119.247 -44.6572 111.721 -39.6972C104.177 -34.7716 98.0635 -27.8483 93.5513 -19.9949C84.5268 -4.08162 80.7724 14.2256 75.4507 31.6717C72.7812 40.4206 69.6813 49.135 64.9796 57.04C62.7235 61.0356 59.7613 64.635 56.5751 67.9245C53.1479 70.9901 49.4451 73.8317 45.2774 75.64L42.1774 77.0523L38.9396 78.0511C36.8385 78.8089 34.6168 79.2223 32.3779 79.5495C30.139 80.0145 27.9863 80.2212 25.9024 80.2728L19.5474 80.6C11.4013 80.7723 3.47903 82.1845 -3.85764 84.6473C-18.5999 89.5039 -30.9137 98.1839 -40.4032 107.863C-50.0132 117.49 -57.1604 127.909 -62.7749 137.485C-68.3549 147.095 -72.3849 155.964 -75.3815 163.37C-78.361 170.776 -80.3587 176.752 -81.5815 180.833C-82.8215 184.949 -83.321 187.085 -83.321 187.085L-88.9526 185.656Z" fill="#FEE56F"/>
</g>
<mask id="mask14_1140_1880" style="mask-type:luminance" maskUnits="userSpaceOnUse" x="0" y="0" width="186" height="186">
<path d="M186 0H0V186H186V0Z" fill="white"/>
</mask>
<g mask="url(#mask14_1140_1880)">
<path d="M-78.7056 195.903C-78.7056 195.903 -78.12 193.543 -76.7939 189.358C-75.485 185.139 -73.3839 179.059 -70.2495 171.482C-67.0978 163.921 -62.8783 154.879 -57.04 145.046C-51.1845 135.246 -43.6928 124.551 -33.5833 114.614C-23.5945 104.642 -10.54 95.6005 5.0461 90.6405C12.8133 88.1261 21.1833 86.7311 29.7255 86.6278C38.1128 86.4555 46.2933 85.8355 53.8539 82.305C57.6772 80.7033 61.0183 78.1544 64.17 75.4161C67.115 72.4194 69.8878 69.13 72.0578 65.3755C76.57 57.9528 79.6872 49.5311 82.4083 40.9028C87.8506 23.6805 91.7944 5.2011 101.284 -11.1945C106.037 -19.3233 112.547 -26.5739 120.521 -31.6544C128.478 -36.7867 137.623 -39.6111 146.733 -40.92C155.913 -42.3667 165.041 -41.7295 173.876 -42.2289C182.711 -42.6422 191.494 -43.555 199.795 -45.7767C208.062 -47.9811 215.812 -51.6667 221.994 -57.1089C228.091 -62.62 232.672 -69.44 236.341 -76.4322C243.66 -90.4856 249.309 -104.487 255.922 -116.715C268.701 -141.463 283.237 -159.736 293.811 -171.947C299.184 -178.009 303.507 -182.676 306.59 -185.742C309.621 -188.842 311.223 -190.495 311.223 -190.495C311.223 -190.495 309.638 -188.824 306.624 -185.69C303.576 -182.59 299.305 -177.888 294.001 -171.774C283.547 -159.461 269.201 -141.084 256.714 -116.284C250.239 -104.005 244.762 -90.0033 237.529 -75.7778C233.878 -68.6994 229.297 -61.6728 223.045 -55.8861C216.707 -50.2028 208.699 -46.3106 200.26 -43.9856C191.804 -41.6261 182.934 -40.6272 173.962 -40.1106C164.989 -39.5078 155.947 -40.0589 147.095 -38.5433C138.243 -37.1828 129.494 -34.3583 121.968 -29.4156C114.424 -24.49 108.311 -17.5667 103.798 -9.69614C94.7911 6.21721 91.0194 24.5072 85.6978 41.9705C83.0111 50.6678 79.9111 59.3822 75.2267 67.2872C72.9533 71.3 70.0083 74.8822 66.8222 78.1889C63.395 81.2372 59.6922 84.0961 55.5244 85.8872L52.4417 87.3167L49.2039 88.2983C47.1028 89.0561 44.8811 89.4694 42.6594 89.7967C40.4205 90.2617 38.2678 90.4683 36.1839 90.52L29.8461 90.8472C21.6828 91.0194 13.7778 92.4144 6.4411 94.8772C-8.2839 99.7339 -20.615 108.414 -30.1045 118.093C-39.7145 127.72 -46.8617 138.139 -52.4589 147.715C-58.0561 157.325 -62.0861 166.194 -65.0828 173.6C-68.0622 181.023 -70.0428 186.982 -71.2828 191.063C-72.5228 195.179 -73.0222 197.315 -73.0222 197.315L-78.7056 195.903Z" fill="#FEE56F"/>
</g>
<mask id="mask15_1140_1880" style="mask-type:luminance" maskUnits="userSpaceOnUse" x="0" y="0" width="186" height="186">
<path d="M186 0H0V186H186V0Z" fill="white"/>
</mask>
<g mask="url(#mask15_1140_1880)">
<path d="M-68.4409 206.15C-68.4409 206.15 -67.8554 203.79 -66.5465 199.623C-65.2376 195.403 -63.1365 189.324 -59.9848 181.746C-56.8504 174.185 -52.6309 165.127 -46.7754 155.293C-40.9198 145.493 -33.4454 134.798 -23.3187 124.861C-13.3298 114.889 -0.27536 105.865 15.3108 100.888C23.078 98.3733 31.4308 96.9611 39.973 96.875C48.3602 96.7027 56.5408 96.0827 64.1013 92.5522C67.9247 90.9505 71.2658 88.4189 74.4346 85.6633C77.3797 82.6666 80.1524 79.3944 82.3224 75.6227C86.8347 68.2172 89.9519 59.7783 92.673 51.1672C98.1152 33.9449 102.059 15.4483 111.549 -0.947266C116.302 -9.07616 122.829 -16.3267 130.803 -21.4073C138.76 -26.5395 147.905 -29.3811 157.015 -30.6728C166.195 -32.1195 175.322 -31.4823 184.157 -31.9817C192.992 -32.4123 201.793 -33.3078 210.077 -35.5295C218.344 -37.7339 226.111 -41.4195 232.276 -46.8617C238.373 -52.3728 242.954 -59.1928 246.622 -66.185C253.959 -80.2211 259.591 -94.24 266.204 -106.468C279 -131.216 293.536 -149.489 304.11 -161.699C309.484 -167.762 313.789 -172.429 316.872 -175.494C319.903 -178.612 321.522 -180.248 321.522 -180.248C321.522 -180.248 319.92 -178.577 316.924 -175.443C313.875 -172.343 309.604 -167.641 304.3 -161.527C293.846 -149.213 279.5 -130.837 267.031 -106.037C260.555 -93.775 255.079 -79.7561 247.828 -65.5478C244.194 -58.4695 239.596 -51.4256 233.344 -45.6561C227.006 -39.9556 218.998 -36.0806 210.559 -33.7556C202.086 -31.3961 193.216 -30.3973 184.244 -29.8806C175.288 -29.2778 166.229 -29.8117 157.377 -28.3134C148.525 -26.9528 139.776 -24.1284 132.267 -19.1684C124.672 -14.2773 118.541 -7.37114 114.029 0.499405C105.004 16.4127 101.232 34.7027 95.928 52.1661C93.2758 60.915 90.1758 69.6122 85.4913 77.5344C83.218 81.53 80.273 85.1122 77.0697 88.4189C73.6424 91.4672 69.9569 94.3261 65.7719 96.1344L62.6719 97.5466L59.4513 98.5283C57.333 99.2861 55.1113 99.6994 52.8896 100.027C50.6335 100.492 48.498 100.698 46.4141 100.75L40.0763 101.077C31.913 101.249 24.008 102.644 16.6541 105.107C1.92908 109.998 -10.3848 118.661 -19.8915 128.34C-29.5187 137.967 -36.6487 148.387 -42.2459 157.962C-47.8431 167.572 -51.8731 176.442 -54.8698 183.847C-57.8493 191.253 -59.8298 197.229 -61.0698 201.311C-62.3098 205.427 -62.8093 207.562 -62.8093 207.562L-68.4409 206.15Z" fill="#FEE56F"/>
</g>
<mask id="mask16_1140_1880" style="mask-type:luminance" maskUnits="userSpaceOnUse" x="0" y="0" width="186" height="186">
<path d="M186 0H0V186H186V0Z" fill="white"/>
</mask>
<g mask="url(#mask16_1140_1880)">
<path d="M-58.1768 216.397C-58.1768 216.397 -57.5912 214.038 -56.2823 209.87C-54.9734 205.668 -52.8723 199.571 -49.7379 191.993C-46.5862 184.433 -42.384 175.374 -36.5284 165.54C-30.6729 155.741 -23.1984 145.046 -13.0718 135.108C-3.10009 125.154 9.95435 116.112 25.5577 111.135C33.3077 108.621 41.6777 107.226 50.2199 107.122C58.5899 106.95 66.7877 106.33 74.331 102.799C78.1543 101.198 81.4955 98.6661 84.6644 95.9106C87.6093 92.9139 90.3821 89.6417 92.5693 85.8872C97.0816 78.4644 100.199 70.0428 102.903 61.4144C108.362 44.1922 112.289 25.7128 121.778 9.29999C126.532 1.1711 133.059 -6.06223 141.033 -11.16C148.989 -16.2922 158.134 -19.1167 167.245 -20.4256C176.407 -21.8722 185.552 -21.235 194.37 -21.7345C203.205 -22.1478 212.005 -23.0606 220.289 -25.2822C228.556 -27.4867 236.323 -31.1722 242.489 -36.6144C248.603 -42.1256 253.167 -48.9456 256.852 -55.9378C264.172 -69.9911 269.82 -83.9928 276.434 -96.2206C289.213 -120.969 303.748 -139.242 314.323 -151.452C319.696 -157.514 324.019 -162.182 327.084 -165.247C330.115 -168.347 331.734 -170.001 331.734 -170.001C331.734 -170.001 330.133 -168.33 327.119 -165.196C324.07 -162.113 319.817 -157.377 314.495 -151.28C304.058 -138.983 289.695 -120.59 277.226 -95.79C270.75 -83.5278 265.274 -69.5089 258.023 -55.2833C254.389 -48.205 249.791 -41.1611 243.539 -35.3917C237.202 -29.7083 229.193 -25.8161 220.754 -23.4911C212.281 -21.1317 203.429 -20.1328 194.456 -19.6333C185.483 -19.0478 176.424 -19.5817 167.572 -18.0833C158.737 -16.7228 149.971 -13.9156 142.462 -8.95557C134.919 -4.03001 128.788 2.8761 124.293 10.7639C115.268 26.66 111.497 44.9672 106.175 62.4133C103.523 71.1622 100.423 79.8767 95.7382 87.7817C93.4649 91.7772 90.5199 95.3766 87.3166 98.6661C83.9066 101.732 80.2038 104.573 76.036 106.382L72.936 107.811L69.7155 108.776C67.5971 109.533 65.3927 109.947 63.1538 110.291C60.9149 110.756 58.7621 110.963 56.6782 111.014L50.3405 111.342C42.1771 111.514 34.2721 112.909 26.9182 115.372C12.1932 120.246 -0.137875 128.908 -9.64454 138.587C-19.2545 148.214 -26.4018 158.634 -31.999 168.209C-37.5962 177.819 -41.6262 186.689 -44.6056 194.094C-47.6023 201.517 -49.5829 207.476 -50.8056 211.558C-52.0456 215.674 -52.5623 217.809 -52.5623 217.809L-58.1768 216.397Z" fill="#FEE56F"/>
</g>
<mask id="mask17_1140_1880" style="mask-type:luminance" maskUnits="userSpaceOnUse" x="0" y="0" width="186" height="186">
<path d="M186 0H0V186H186V0Z" fill="white"/>
</mask>
<g mask="url(#mask17_1140_1880)">
<path d="M-47.9468 226.662C-47.9468 226.662 -47.3612 224.302 -46.0523 220.117C-44.7434 215.915 -42.6423 209.818 -39.5079 202.241C-36.3562 194.68 -32.154 185.621 -26.2985 175.787C-20.4257 165.988 -12.9685 155.293 -2.84179 145.356C7.1471 135.384 20.1843 126.359 35.7877 121.382C43.5549 118.868 51.9076 117.473 60.4499 117.369C68.8371 117.197 77.0349 116.577 84.5782 113.03C88.4015 111.445 91.7254 108.896 94.9115 106.141C97.8565 103.144 100.629 99.8717 102.817 96.1173C107.312 88.6945 110.429 80.2728 113.15 71.6445C118.609 54.4395 122.536 35.9428 132.025 19.53C136.779 11.4012 143.306 4.16783 151.28 -0.929947C159.237 -6.04495 168.382 -8.88661 177.492 -10.1955C186.654 -11.6422 195.799 -11.0049 204.617 -11.5044C213.469 -11.9177 222.253 -12.8133 230.536 -15.0522C238.803 -17.2566 246.57 -20.9422 252.753 -26.3672C258.867 -31.8955 263.414 -38.7155 267.116 -45.7077C274.436 -59.7438 280.085 -73.7627 286.681 -85.9905C299.46 -110.739 314.013 -129.012 324.587 -141.222C329.96 -147.284 334.283 -151.969 337.349 -155.017C340.38 -158.117 341.999 -159.771 341.999 -159.771C341.999 -159.771 340.397 -158.1 337.4 -154.966C334.352 -151.866 330.081 -147.164 324.776 -141.05C314.34 -128.736 299.994 -110.36 287.508 -85.5599C281.032 -73.2977 275.555 -59.2961 268.305 -45.0533C264.671 -37.975 260.073 -30.9483 253.821 -25.1788C247.5 -19.4955 239.475 -15.6033 231.053 -13.2783C222.58 -10.9188 213.728 -9.91994 204.755 -9.40327C195.782 -8.81772 186.723 -9.35161 177.871 -7.83606C169.019 -6.47549 160.27 -3.66829 152.761 1.30894C145.183 6.20004 139.035 13.1234 134.54 21.0112C125.515 36.9245 121.761 55.2145 116.422 72.6778C113.77 81.4267 110.67 90.1239 105.985 98.0462C103.712 102.059 100.767 105.641 97.581 108.948C94.1537 111.996 90.4682 114.855 86.2832 116.646L83.1832 118.076L79.9626 119.057C77.8443 119.815 75.6399 120.228 73.401 120.556C71.1621 121.021 69.0093 121.227 66.9254 121.279L60.5876 121.606C52.4415 121.778 44.5193 123.173 37.1826 125.636C22.4404 130.476 10.1093 139.156 0.602654 148.835C-9.00734 158.462 -16.1546 168.881 -21.7518 178.474C-27.3318 188.084 -31.3618 196.953 -34.3584 204.359C-37.3551 211.764 -39.3357 217.741 -40.5757 221.822C-41.8157 225.938 -42.3323 228.074 -42.3323 228.074L-47.9468 226.662Z" fill="#FEE56F"/>
</g>
<mask id="mask18_1140_1880" style="mask-type:luminance" maskUnits="userSpaceOnUse" x="0" y="0" width="186" height="186">
<path d="M186 0H0V186H186V0Z" fill="white"/>
</mask>
<g mask="url(#mask18_1140_1880)">
<path d="M-37.6992 236.909C-37.6992 236.909 -37.1137 234.549 -35.7876 230.364C-34.4787 226.162 -32.3776 220.066 -29.2431 212.488C-26.0914 204.927 -21.872 195.886 -16.0337 186.052C-10.1609 176.252 -2.68644 165.557 7.423 155.62C17.4119 145.631 30.4663 136.607 46.0524 131.629C53.8197 129.115 62.1897 127.72 70.7319 127.617C79.1019 127.444 87.2997 126.824 94.843 123.294C98.6663 121.692 102.007 119.143 105.176 116.388C108.121 113.391 110.894 110.119 113.081 106.364C117.576 98.9417 120.694 90.52 123.415 81.8917C128.874 64.6867 132.818 46.19 142.307 29.7772C147.044 21.6483 153.588 14.3978 161.562 9.31723C169.519 4.20222 178.664 1.36057 187.774 0.0689087C196.954 -1.37776 206.081 -0.74054 214.916 -1.2572C223.751 -1.65332 232.535 -2.5661 240.836 -4.80499C249.102 -7.00943 256.87 -10.695 263.035 -16.12C269.149 -21.6311 273.713 -28.4683 277.399 -35.4433C284.718 -49.4967 290.367 -63.5155 296.963 -75.7433C309.742 -100.492 324.295 -118.764 334.869 -130.975C340.242 -137.037 344.565 -141.722 347.631 -144.77C350.662 -147.887 352.281 -149.523 352.281 -149.523C352.281 -149.523 350.679 -147.853 347.682 -144.718C344.634 -141.636 340.363 -136.917 335.041 -130.803C324.605 -118.489 310.276 -100.113 297.772 -75.3128C291.297 -63.0505 285.82 -49.0489 278.587 -34.8061C274.953 -27.7278 270.355 -20.7011 264.103 -14.9317C257.765 -9.23109 249.757 -5.35609 241.318 -3.01387C232.793 -0.654434 223.941 0.344452 214.968 0.86113C205.995 1.44667 196.954 0.912796 188.101 2.41112C179.249 3.77168 170.5 6.59612 162.974 11.5561C155.431 16.4817 149.3 23.3878 144.805 31.2583C135.78 47.1717 132.026 65.4617 126.704 82.925C124.052 91.6739 120.935 100.388 116.25 108.293C113.994 112.289 111.032 115.871 107.846 119.178C104.419 122.243 100.733 125.068 96.548 126.893L93.4652 128.306L90.2274 129.304C88.1263 130.045 85.9047 130.476 83.6658 130.803C81.4269 131.268 79.2741 131.474 77.1902 131.526L70.8352 131.853C62.6891 132.026 54.7497 133.438 47.4302 135.901C32.688 140.757 20.3741 149.42 10.8674 159.099C1.24022 168.726 -5.88978 179.146 -11.5042 188.738C-17.0842 198.348 -21.097 207.218 -24.1109 214.623C-27.0903 222.029 -29.0881 228.005 -30.3281 232.087C-31.5681 236.203 -32.0676 238.338 -32.0676 238.338L-37.6992 236.909Z" fill="#FEE56F"/>
</g>
<mask id="mask19_1140_1880" style="mask-type:luminance" maskUnits="userSpaceOnUse" x="0" y="0" width="186" height="186">
<path d="M186 0H0V186H186V0Z" fill="white"/>
</mask>
<g mask="url(#mask19_1140_1880)">
<path d="M-27.4521 247.156C-27.4521 247.156 -26.8666 244.797 -25.5405 240.629C-24.2316 236.427 -22.1305 230.33 -18.996 222.752C-15.8444 215.192 -11.6422 206.133 -5.7866 196.299C0.0689564 186.499 7.56062 175.804 17.6701 165.867C27.659 155.896 40.7134 146.854 56.2995 141.894C64.0667 139.379 72.4367 137.984 80.9789 137.881C89.3661 137.692 97.5467 137.089 105.107 133.541C108.913 131.957 112.254 129.408 115.441 126.652C118.386 123.656 121.158 120.383 123.328 116.629C127.841 109.206 130.941 100.784 133.662 92.1561C139.104 74.9511 143.048 56.4544 152.554 40.0589C157.291 31.93 163.818 24.6794 171.792 19.5989C179.748 14.4666 188.893 11.6422 198.004 10.3333C207.183 8.88664 216.311 9.52386 225.146 9.00719C233.981 8.61108 242.764 7.6983 251.048 5.47664C259.315 3.27219 267.082 -0.413361 273.265 -5.85559C279.362 -11.3667 283.943 -18.1867 287.611 -25.1789C294.931 -39.2323 300.579 -53.2339 307.176 -65.4617C319.954 -90.21 334.507 -108.483 345.082 -120.693C350.455 -126.756 354.778 -131.423 357.843 -134.488C360.874 -137.588 362.493 -139.242 362.493 -139.242C362.493 -139.242 360.909 -137.571 357.895 -134.437C354.847 -131.354 350.576 -126.635 345.271 -120.521C334.817 -108.207 320.488 -89.8311 308.002 -65.0311C301.527 -52.7689 296.05 -38.75 288.799 -24.5245C285.166 -17.4461 280.567 -10.4023 274.316 -4.63281C267.978 1.05052 259.969 4.94275 251.531 7.26775C243.074 9.6272 234.205 10.6261 225.232 11.1427C216.259 11.7283 207.218 11.1944 198.366 12.71C189.513 14.0533 180.764 16.8777 173.238 21.8378C165.678 26.7116 159.547 33.635 155.034 41.5055C146.027 57.4189 142.256 75.7089 136.934 93.1722C134.264 101.921 131.164 110.636 126.463 118.541C124.207 122.536 121.244 126.136 118.058 129.425C114.614 132.491 110.928 135.332 106.743 137.141L103.643 138.553L100.423 139.552C98.3217 140.309 96.1001 140.723 93.8612 141.05C91.6223 141.515 89.4867 141.722 87.3856 141.773L81.0478 142.101C72.8845 142.273 64.9795 143.685 57.6428 146.148C42.9006 151.004 30.5867 159.684 21.0973 169.363C11.4873 178.991 4.34007 189.41 -1.27438 198.986C-6.85438 208.596 -10.8844 217.465 -13.881 224.871C-16.8605 232.293 -18.8583 238.252 -20.081 242.334C-21.321 246.45 -21.8205 248.586 -21.8205 248.586L-27.4521 247.156Z" fill="#FEE56F"/>
</g>
<mask id="mask20_1140_1880" style="mask-type:luminance" maskUnits="userSpaceOnUse" x="0" y="0" width="186" height="186">
<path d="M186 0H0V186H186V0Z" fill="white"/>
</mask>
<g mask="url(#mask20_1140_1880)">
<path d="M-17.2051 257.403C-17.2051 257.403 -16.6195 255.044 -15.2934 250.859C-13.9845 246.639 -11.8834 240.56 -8.73175 232.982C-5.5973 225.439 -1.37786 216.38 4.4777 206.546C10.3332 196.747 17.8077 186.052 27.9171 176.115C37.906 166.143 50.9605 157.118 66.5466 152.141C74.3138 149.627 82.6666 148.232 91.2088 148.128C99.596 147.956 107.777 147.336 115.337 143.806C119.16 142.204 122.502 139.655 125.653 136.917C128.598 133.92 131.371 130.631 133.541 126.876C138.053 119.453 141.17 111.032 143.892 102.403C149.351 85.1984 153.278 66.7017 162.784 50.2889C167.538 42.1773 174.048 34.9095 182.022 29.8289C189.978 24.6967 199.123 21.8723 208.234 20.5806C217.413 19.1339 226.541 19.7712 235.376 19.2545C244.211 18.8412 252.994 17.9456 261.295 15.7067C269.562 13.5023 277.312 9.81673 283.495 4.37451C289.592 -1.1366 294.173 -7.9566 297.841 -14.9488C305.16 -29.0022 310.809 -43.0038 317.423 -55.2316C330.202 -79.9799 344.737 -98.2527 355.329 -110.463C360.702 -116.525 365.008 -121.193 368.09 -124.258C371.121 -127.358 372.74 -129.012 372.74 -129.012C372.74 -129.012 371.139 -127.341 368.142 -124.207C365.094 -121.107 360.823 -116.405 355.518 -110.291C345.064 -97.9772 330.718 -79.6011 318.232 -54.801C311.757 -42.5216 306.28 -28.5199 299.047 -14.2944C295.395 -7.21605 290.814 -0.189392 284.563 5.59727C278.225 11.2806 270.217 15.1728 261.778 17.4978C253.322 19.8573 244.452 20.8562 235.479 21.3728C226.507 21.9756 217.465 21.4245 208.613 22.9401C199.76 24.3006 191.012 27.1251 183.485 32.0678C175.959 36.9934 169.828 43.9167 165.316 51.7873C156.309 67.7006 152.537 85.9906 147.215 103.454C144.563 112.203 141.463 120.9 136.762 128.822C134.488 132.835 131.543 136.417 128.357 139.724C124.93 142.772 121.227 145.631 117.059 147.422L113.977 148.852L110.739 149.833C108.638 150.591 106.416 151.005 104.177 151.332C101.938 151.797 99.7855 152.003 97.7016 152.055L91.3466 152.382C83.1832 152.554 75.2782 153.949 67.9416 156.412C53.2166 161.286 40.8855 169.949 31.396 179.628C21.786 189.255 14.6388 199.674 9.04158 209.25C3.40992 218.826 -0.602859 227.695 -3.61675 235.083C-6.59619 242.506 -8.57675 248.465 -9.81675 252.547C-11.0567 256.663 -11.5562 258.798 -11.5562 258.798L-17.2051 257.403Z" fill="#FEE56F"/>
</g>
<mask id="mask21_1140_1880" style="mask-type:luminance" maskUnits="userSpaceOnUse" x="0" y="0" width="186" height="186">
<path d="M186 0H0V186H186V0Z" fill="white"/>
</mask>
<g mask="url(#mask21_1140_1880)">
<path d="M-6.94043 267.651C-6.94043 267.651 -6.35487 265.291 -5.04598 261.123C-3.7371 256.904 -1.63598 250.824 1.51568 243.247C4.65013 235.686 8.86957 226.627 14.7251 216.793C20.5807 206.994 28.0551 196.299 38.1646 186.362C48.1535 176.39 61.2079 167.366 76.8112 162.388C84.5612 159.874 92.9313 158.479 101.473 158.376C109.861 158.203 118.058 157.583 125.602 154.053C129.425 152.451 132.766 149.919 135.935 147.164C138.88 144.167 141.653 140.895 143.823 137.123C148.335 129.718 151.452 121.279 154.173 112.668C159.616 95.4456 163.56 76.9489 173.049 60.5534C177.802 52.4245 184.33 45.1739 192.303 40.0934C200.26 34.9611 209.405 32.1367 218.516 30.8278C227.695 29.3811 236.823 30.0184 245.658 29.5189C254.493 29.0884 263.293 28.1928 271.577 25.9711C279.844 23.7667 287.611 20.0811 293.777 14.6389C299.874 9.12781 304.455 2.30781 308.123 -4.68441C315.46 -18.7205 321.091 -32.7394 327.705 -44.9672C340.501 -69.7155 355.036 -87.9883 365.611 -100.199C370.984 -106.261 375.307 -110.928 378.372 -113.994C381.404 -117.094 383.022 -118.747 383.022 -118.747C383.022 -118.747 381.421 -117.077 378.424 -113.942C375.376 -110.842 371.122 -106.141 365.8 -100.027C355.346 -87.7127 341 -69.3366 328.531 -44.5366C322.056 -32.2744 316.579 -18.2555 309.328 -4.04719C305.695 3.03114 301.096 10.075 294.845 15.8445C288.507 21.5278 280.499 25.42 272.06 27.745C263.586 30.1045 254.734 31.1034 245.744 31.6028C236.788 32.2056 227.73 31.6717 218.877 33.17C210.025 34.5306 201.276 37.355 193.767 42.315C186.224 47.2406 180.093 54.1467 175.598 62.0173C166.573 77.9306 162.802 96.2206 157.497 113.684C154.845 122.433 151.745 131.13 147.061 139.052C144.787 143.048 141.842 146.63 138.639 149.937C135.212 153.002 131.526 155.844 127.341 157.652L124.258 159.064L121.038 160.046C118.92 160.804 116.715 161.217 114.476 161.562C112.237 162.009 110.085 162.233 108.001 162.268L101.663 162.595C93.4996 162.767 85.5946 164.162 78.2407 166.642C63.5157 171.499 51.1846 180.179 41.6951 189.858C32.0679 199.485 24.9379 209.904 19.3407 219.48C13.7435 229.09 9.71346 237.959 6.73402 245.365C3.73735 252.771 1.75679 258.747 0.516793 262.828C-0.723207 266.944 -1.22265 269.08 -1.22265 269.08L-6.94043 267.651Z" fill="#FEE56F"/>
</g>
<mask id="mask22_1140_1880" style="mask-type:luminance" maskUnits="userSpaceOnUse" x="0" y="0" width="186" height="186">
<path d="M186 0H0V186H186V0Z" fill="white"/>
</mask>
<g mask="url(#mask22_1140_1880)">
<path d="M3.30664 277.915C3.30664 277.915 3.8922 275.556 5.20108 271.371C6.50997 267.168 8.61108 261.072 11.7455 253.494C14.8972 245.933 19.0994 236.874 24.955 227.041C30.8277 217.241 38.285 206.546 48.4116 196.609C58.3833 186.637 71.4377 177.596 87.0411 172.636C94.7911 170.121 103.161 168.726 111.703 168.623C120.073 168.451 128.288 167.831 135.814 164.3C139.638 162.698 142.979 160.167 146.148 157.411C149.093 154.414 151.866 151.142 154.053 147.388C158.565 139.965 161.682 131.543 164.386 122.915C169.846 105.693 173.772 87.2133 183.262 70.8006C188.015 62.6717 194.542 55.4383 202.516 50.3406C210.473 45.2083 219.618 42.3839 228.728 41.075C237.891 39.6283 247.036 40.2656 255.853 39.7661C264.688 39.3528 273.489 38.44 281.773 36.2183C290.039 34.0139 297.807 30.3283 303.972 24.8861C310.086 19.375 314.65 12.555 318.336 5.56278C325.655 -8.49055 331.304 -22.4922 337.9 -34.72C350.679 -59.4683 365.214 -77.7411 375.806 -89.9517C381.179 -96.0139 385.502 -100.681 388.568 -103.747C391.599 -106.847 393.218 -108.5 393.218 -108.5C393.218 -108.5 391.616 -106.829 388.619 -103.695C385.571 -100.595 381.3 -95.8933 375.996 -89.7794C365.559 -77.4828 351.196 -59.0894 338.727 -34.2894C332.251 -22.0444 326.774 -8.04278 319.524 6.2C315.89 13.2783 311.309 20.3222 305.04 26.0917C298.702 31.775 290.694 35.6672 282.255 37.9922C273.782 40.3517 264.929 41.3506 255.957 41.8672C247.001 42.4528 237.942 41.9189 229.09 43.4172C220.238 44.7778 211.489 47.6022 203.98 52.5622C196.437 57.4878 190.306 64.3939 185.811 72.2817C176.786 88.195 173.014 106.485 167.693 123.948C165.041 132.697 161.941 141.394 157.256 149.317C154.983 153.312 152.038 156.912 148.834 160.218C145.424 163.267 141.722 166.126 137.554 167.917L134.454 169.346L131.233 170.328C129.115 171.086 126.911 171.499 124.672 171.826C122.433 172.291 120.28 172.498 118.196 172.549L111.858 172.877C103.695 173.049 95.79 174.444 88.4533 176.907C73.7283 181.763 61.3972 190.443 51.8905 200.122C42.2805 209.749 35.1333 220.169 29.5361 229.744C23.9561 239.354 19.9261 248.224 16.9294 255.629C13.95 263.052 11.9522 269.011 10.7294 273.093C9.48942 277.209 8.97275 279.344 8.97275 279.344L3.30664 277.915Z" fill="#FEE56F"/>
</g>
<mask id="mask23_1140_1880" style="mask-type:luminance" maskUnits="userSpaceOnUse" x="0" y="0" width="186" height="186">
<path d="M186 0H0V186H186V0Z" fill="white"/>
</mask>
<g mask="url(#mask23_1140_1880)">
<path d="M13.5537 288.162C13.5537 288.162 14.1393 285.803 15.4482 281.618C16.757 277.415 18.8582 271.319 21.9926 263.741C25.1443 256.181 29.3465 247.122 35.202 237.288C41.0748 227.488 48.5321 216.793 58.6587 206.856C68.6476 196.884 81.7021 187.86 97.2882 182.883C105.055 180.368 113.408 178.973 121.968 178.87C130.338 178.698 138.535 178.078 146.079 174.53C149.902 172.946 153.226 170.397 156.412 167.641C159.357 164.644 162.13 161.389 164.317 157.618C168.812 150.195 171.929 141.773 174.65 133.145C180.11 115.94 184.037 97.4433 193.543 81.0305C198.279 72.9016 204.824 65.6511 212.798 60.5705C220.754 55.4555 229.899 52.6139 239.01 51.305C248.172 49.8583 257.317 50.4955 266.152 49.9961C274.987 49.5827 283.77 48.6872 292.054 46.4483C300.321 44.2439 308.088 40.5583 314.271 35.1333C320.385 29.6222 324.949 22.785 328.634 15.7927C335.954 1.75664 341.603 -12.2623 348.199 -24.49C360.978 -49.2384 375.53 -67.5111 386.105 -79.7217C391.478 -85.7839 395.801 -90.4511 398.867 -93.5167C401.898 -96.6167 403.517 -98.27 403.517 -98.27C403.517 -98.27 401.915 -96.5995 398.918 -93.465C395.87 -90.365 391.599 -85.6634 386.294 -79.5495C375.858 -67.2356 361.512 -48.8595 349.025 -24.0595C342.55 -11.7973 337.073 2.20441 329.823 16.4472C326.189 23.5255 321.59 30.5522 315.339 36.3216C309.001 42.005 300.993 45.8972 292.554 48.2222C284.08 50.5816 275.228 51.5805 266.255 52.0972C257.283 52.6827 248.224 52.1661 239.372 53.6644C230.519 55.025 221.77 57.8494 214.262 62.8094C206.718 67.7177 200.587 74.6411 196.092 82.5116C187.068 98.425 183.313 116.715 177.992 134.178C175.339 142.927 172.222 151.624 167.538 159.547C165.264 163.559 162.319 167.142 159.133 170.448C155.706 173.497 152.02 176.356 147.835 178.164L144.735 179.576L141.515 180.558C139.396 181.316 137.192 181.729 134.953 182.056C132.714 182.521 130.562 182.728 128.478 182.779L122.14 183.107C113.994 183.279 106.054 184.674 98.7348 187.137C84.0098 191.993 71.6787 200.673 62.1893 210.352C52.5793 219.979 45.432 230.399 39.8176 239.992C34.2376 249.602 30.2076 258.471 27.2109 265.877C24.2143 273.282 22.2337 279.258 20.9937 283.34C19.7537 287.456 19.237 289.592 19.237 289.592L13.5537 288.162Z" fill="#FEE56F"/>
</g>
<mask id="mask24_1140_1880" style="mask-type:luminance" maskUnits="userSpaceOnUse" x="0" y="0" width="186" height="186">
<path d="M186 0H0V186H186V0Z" fill="white"/>
</mask>
<g mask="url(#mask24_1140_1880)">
<path d="M23.8013 298.409C23.8013 298.409 24.3868 296.05 25.7129 291.865C27.0218 287.663 29.1229 281.566 32.2574 273.988C35.409 266.428 39.6285 257.386 45.4668 247.552C51.3396 237.753 58.7968 227.058 68.9235 217.121C78.9124 207.149 91.9668 198.107 107.553 193.13C115.32 190.616 123.69 189.221 132.232 189.134C140.602 188.945 148.8 188.342 156.344 184.794C160.167 183.193 163.508 180.661 166.677 177.906C169.622 174.909 172.395 171.637 174.565 167.882C179.06 160.459 182.177 152.038 184.898 143.409C190.357 126.204 194.301 107.708 203.791 91.3123C208.544 83.1834 215.071 75.9328 223.045 70.8523C231.002 65.7373 240.147 62.8956 249.257 61.6039C258.437 60.1573 267.565 60.7945 276.4 60.2778C285.235 59.8817 294.035 58.9689 302.319 56.7473C310.586 54.5428 318.353 50.84 324.536 45.415C330.632 39.9039 335.196 33.0839 338.882 26.0917C346.201 12.0384 351.85 -1.98051 358.446 -14.2083C371.225 -38.9566 385.778 -57.2294 396.352 -69.44C401.726 -75.5022 406.049 -80.1866 409.114 -83.2349C412.145 -86.3522 413.764 -87.9883 413.764 -87.9883C413.764 -87.9883 412.162 -86.3177 409.166 -83.1833C406.117 -80.0833 401.846 -75.3816 396.542 -69.2677C386.088 -56.9711 371.742 -38.5777 359.256 -13.7777C352.797 -1.51551 347.304 12.4862 340.07 26.7289C336.436 33.8073 331.838 40.8339 325.586 46.6034C319.249 52.2867 311.24 56.1789 302.801 58.5211C294.328 60.8806 285.476 61.8795 276.503 62.3961C267.53 62.9817 258.489 62.4478 249.636 63.9462C240.784 65.3067 232.035 68.1311 224.509 73.0912C216.966 78.0167 210.835 84.9228 206.34 92.8106C197.315 108.707 193.561 127.014 188.239 144.46C185.587 153.209 182.47 161.923 177.785 169.828C175.529 173.824 172.567 177.406 169.381 180.713C165.954 183.778 162.251 186.603 158.083 188.428L154.983 189.841L151.745 190.839C149.644 191.58 147.422 192.011 145.184 192.338C142.945 192.803 140.792 193.009 138.708 193.061L132.353 193.388C124.207 193.561 116.267 194.973 108.948 197.436C94.2057 202.292 81.8918 210.972 72.3852 220.634C62.7579 230.278 55.6279 240.698 50.0307 250.273C44.4335 259.883 40.4207 268.753 37.4241 276.158C34.4446 283.581 32.4468 289.54 31.224 293.622C29.984 297.738 29.4846 299.873 29.4846 299.873L23.8013 298.409Z" fill="#FEE56F"/>
</g>
<mask id="mask25_1140_1880" style="mask-type:luminance" maskUnits="userSpaceOnUse" x="0" y="0" width="186" height="186">
<path d="M186 0H0V186H186V0Z" fill="white"/>
</mask>
<g mask="url(#mask25_1140_1880)">
<path d="M34.0483 308.657C34.0483 308.657 34.6339 306.297 35.96 302.129C37.2689 297.927 39.37 291.831 42.5045 284.253C45.6561 276.692 49.8583 267.633 55.7139 257.799C61.5695 248 69.0611 237.305 79.1706 227.368C89.1595 217.396 102.214 208.354 117.8 203.394C125.567 200.88 133.937 199.485 142.479 199.382C150.867 199.192 159.047 198.589 166.608 195.042C170.431 193.457 173.772 190.908 176.924 188.153C179.869 185.156 182.642 181.884 184.812 178.112C189.324 170.689 192.424 162.268 195.145 153.639C200.587 136.417 204.531 117.938 214.038 101.525C218.774 93.396 225.301 86.1455 233.275 81.0649C241.232 75.9327 250.377 73.1083 259.487 71.7994C268.667 70.3527 277.794 70.9899 286.629 70.4905C295.464 70.0771 304.248 69.1816 312.549 66.9427C320.816 64.7383 328.566 61.0527 334.748 55.6105C340.845 50.0994 345.426 43.2794 349.094 36.2871C356.414 22.2338 362.063 8.23215 368.659 -3.99564C381.438 -28.744 395.991 -47.0167 406.565 -59.2273C411.938 -65.2895 416.261 -69.9567 419.344 -73.0223C422.358 -76.1223 423.977 -77.7756 423.977 -77.7756C423.977 -77.7756 422.392 -76.1051 419.378 -72.9706C416.33 -69.8879 412.059 -65.169 406.754 -59.0551C396.301 -46.7412 381.972 -28.3823 369.468 -3.56508C363.01 8.69714 357.533 22.716 350.283 36.9416C346.632 44.0199 342.051 51.0638 335.799 56.8333C329.461 62.5166 321.453 66.4088 313.014 68.7338C304.558 71.0933 295.688 72.0921 286.716 72.6088C277.743 73.1944 268.701 72.6605 259.849 74.176C250.997 75.5194 242.248 78.3438 234.722 83.3038C227.178 88.2294 221.064 95.1527 216.552 103.023C207.545 118.937 203.773 137.227 198.452 154.673C195.782 163.422 192.682 172.136 187.981 180.041C185.724 184.037 182.779 187.636 179.576 190.925C176.132 193.991 172.446 196.833 168.261 198.641L165.178 200.07L161.941 201.052C159.839 201.81 157.618 202.223 155.379 202.55C153.123 203.015 150.987 203.222 148.903 203.274L142.548 203.601C134.385 203.773 126.48 205.185 119.143 207.648C104.401 212.505 92.0872 221.185 82.5978 230.864C72.9878 240.491 65.8406 250.91 60.2261 260.486C54.6461 270.096 50.6161 278.966 47.6195 286.371C44.64 293.794 42.6595 299.753 41.4195 303.834C40.1795 307.933 39.68 310.069 39.68 310.069L34.0483 308.657Z" fill="#FEE56F"/>
</g>
</g>
<defs>
<clipPath id="clip0_1140_1880">
<rect width="186" height="186" fill="white"/>
</clipPath>
</defs>
</svg>
