<svg width="590" height="590" viewBox="0 0 590 590" fill="none" xmlns="http://www.w3.org/2000/svg">
<path d="M4.37012 546.187L149.576 295L295 546.187H4.37012Z" fill="#A86DAE"/>
<path d="M296.311 546.952H3.05908L149.63 293.47L296.311 546.952ZM5.6813 545.422H293.689L149.576 296.53L5.6813 545.422Z" fill="#FEE56F"/>
<path d="M295 546.187L440.205 295L585.629 546.187H295Z" fill="#874396"/>
<path d="M586.94 546.952H293.688L440.26 293.47L440.915 294.618L586.94 546.952ZM296.311 545.422H584.318L440.26 296.53L296.311 545.422Z" fill="#FEE56F"/>
<path d="M440.315 295L295.109 546.187L149.685 295H440.315Z" fill="#9653A1"/>
<path d="M295.109 547.717L294.454 546.569L148.374 294.235H441.626L295.109 547.717ZM150.996 295.765L295.109 544.657L439.004 295.765H150.996Z" fill="#FEE56F"/>
<mask id="mask0_1140_1227" style="mask-type:luminance" maskUnits="userSpaceOnUse" x="151" y="295" width="289" height="250">
<path d="M439.222 295.819L295.382 544.275L151.378 295.819H439.222ZM199.835 322.97L295.327 487.733L390.711 322.97H199.835Z" fill="white"/>
</mask>
<g mask="url(#mask0_1140_1227)">
<path d="M367.657 572.792C328.433 572.792 297.403 554.436 267.357 536.627C237.584 518.981 206.773 500.735 168.04 500.735C129.308 500.735 98.5514 518.981 68.7236 536.627C52.7717 546.078 36.2736 555.856 18.6828 562.74L17.9727 560.937C35.3995 554.108 51.843 544.384 67.7403 534.933C97.7319 517.179 128.816 498.769 168.04 498.769C207.264 498.769 238.294 517.124 268.34 534.933C298.113 552.579 328.925 570.825 367.657 570.825C406.389 570.825 437.146 552.579 466.974 534.933C496.965 517.179 528.05 498.769 567.274 498.769V500.735C528.541 500.735 497.785 518.981 467.957 536.627C437.965 554.381 406.936 572.792 367.657 572.792Z" fill="#FEE56F"/>
<path d="M367.657 559.681C328.433 559.681 297.403 541.325 267.357 523.516C237.584 505.87 206.773 487.624 168.04 487.624C129.308 487.624 98.5514 505.87 68.7236 523.516C52.7717 532.967 36.2736 542.745 18.6828 549.629L17.9727 547.826C35.3995 540.997 51.843 531.273 67.7403 521.822C97.7319 504.068 128.816 485.657 168.04 485.657C207.264 485.657 238.294 504.013 268.34 521.822C298.113 539.468 328.925 557.714 367.657 557.714C406.389 557.714 437.146 539.468 466.974 521.822C496.965 504.068 528.05 485.657 567.274 485.657V487.624C528.541 487.624 497.785 505.87 467.957 523.516C437.965 541.325 406.936 559.681 367.657 559.681Z" fill="#FEE56F"/>
<path d="M367.657 546.569C328.433 546.569 297.403 528.214 267.357 510.405C237.584 492.759 206.773 474.513 168.04 474.513C129.308 474.513 98.5514 492.759 68.7236 510.405C52.7717 519.856 36.2736 529.634 18.6828 536.518L17.9727 534.715C35.3995 527.886 51.843 518.162 67.7403 508.711C97.7319 490.956 128.816 472.546 168.04 472.546C207.264 472.546 238.294 490.902 268.34 508.711C298.168 526.411 328.979 544.657 367.657 544.657C406.389 544.657 437.146 526.411 466.974 508.766C496.965 491.011 528.05 472.601 567.274 472.601V474.568C528.541 474.568 497.785 492.814 467.957 510.459C437.965 528.214 406.936 546.569 367.657 546.569Z" fill="#FEE56F"/>
<path d="M367.657 533.513C328.433 533.513 297.403 515.157 267.357 497.348C237.584 479.703 206.773 461.456 168.04 461.456C129.308 461.456 98.5514 479.703 68.7236 497.348C52.7717 506.799 36.2736 516.578 18.6828 523.461L17.9727 521.658C35.3995 514.83 51.843 505.106 67.7403 495.655C97.7319 477.9 128.816 459.49 168.04 459.49C207.264 459.49 238.294 477.845 268.34 495.655C298.168 513.3 328.979 531.546 367.657 531.546C406.389 531.546 437.146 513.3 466.974 495.655C496.965 477.9 528.05 459.49 567.274 459.49V461.456C528.541 461.456 497.785 479.703 467.957 497.348C437.965 515.103 406.936 533.513 367.657 533.513Z" fill="#FEE56F"/>
<path d="M367.657 520.402C328.433 520.402 297.403 502.046 267.357 484.237C237.584 466.592 206.773 448.345 168.04 448.345C129.308 448.345 98.5514 466.592 68.7236 484.237C52.7717 493.688 36.2736 503.467 18.6828 510.35L17.9727 508.547C35.3995 501.719 51.843 491.994 67.7403 482.544C97.7319 464.789 128.816 446.379 168.04 446.379C207.264 446.379 238.294 464.734 268.34 482.544C298.168 500.244 328.979 518.435 367.657 518.435C406.389 518.435 437.146 500.189 466.974 482.544C496.965 464.789 528.05 446.379 567.274 446.379V448.345C528.541 448.345 497.785 466.592 467.957 484.237C437.965 502.046 406.936 520.402 367.657 520.402Z" fill="#FEE56F"/>
<path d="M367.657 507.291C328.433 507.291 297.403 488.935 267.357 471.126C237.584 453.481 206.773 435.234 168.04 435.234C129.308 435.234 98.5514 453.481 68.7236 471.126C52.7718 480.577 36.2736 490.356 18.6829 497.239L18.0273 495.491C35.4542 488.662 51.8977 478.938 67.7949 469.487C97.7866 451.732 128.871 433.322 168.095 433.322C207.319 433.322 238.349 451.678 268.395 469.487C298.168 487.132 328.979 505.379 367.712 505.379C406.444 505.379 437.201 487.132 467.028 469.487C497.02 451.732 528.104 433.322 567.328 433.322V435.289C528.596 435.289 497.839 453.535 468.012 471.181C437.965 488.935 406.936 507.291 367.657 507.291Z" fill="#FEE56F"/>
<path d="M367.657 494.234C328.433 494.234 297.403 475.879 267.357 458.069C237.584 440.424 206.773 422.178 168.04 422.178C129.308 422.178 98.5514 440.424 68.7236 458.069C52.7718 467.52 36.2736 477.299 18.6829 484.182L18.0273 482.38C35.4542 475.551 51.8977 465.827 67.7949 456.376C97.7866 438.621 128.871 420.211 168.095 420.211C207.319 420.211 238.349 438.567 268.395 456.376C298.168 474.021 328.979 492.268 367.712 492.268C406.444 492.268 437.201 474.021 467.028 456.376C497.02 438.621 528.104 420.211 567.328 420.211V422.178C528.596 422.178 497.839 440.424 468.012 458.069C437.965 475.879 406.936 494.234 367.657 494.234Z" fill="#FEE56F"/>
<path d="M367.657 481.123C328.433 481.123 297.403 462.768 267.357 444.958C237.584 427.313 206.773 409.067 168.04 409.067C129.308 409.067 98.5514 427.313 68.7236 444.958C52.7718 454.409 36.2736 464.188 18.6829 471.071L18.0273 469.269C35.4542 462.44 51.8977 452.716 67.7949 443.265C97.7866 425.51 128.871 407.1 168.095 407.1C207.319 407.1 238.349 425.456 268.395 443.265C298.168 460.91 328.979 479.157 367.712 479.157C406.444 479.157 437.201 460.91 467.028 443.265C497.02 425.51 528.104 407.1 567.328 407.1V409.067C528.596 409.067 497.839 427.313 468.012 444.958C437.965 462.768 406.936 481.123 367.657 481.123Z" fill="#FEE56F"/>
<path d="M367.657 468.067C328.433 468.067 297.403 449.711 267.357 431.902C237.584 414.256 206.773 396.01 168.04 396.01C129.308 396.01 98.5514 414.256 68.7236 431.902C52.7717 441.353 36.2736 451.132 18.6828 458.015L17.9727 456.212C35.3995 449.383 51.843 439.659 67.7403 430.208C97.7319 412.454 128.816 394.044 168.04 394.044C207.264 394.044 238.294 412.399 268.34 430.208C298.113 447.854 328.925 466.1 367.657 466.1C406.389 466.1 437.146 447.854 466.974 430.208C496.965 412.454 528.05 394.044 567.274 394.044V396.01C528.541 396.01 497.785 414.256 467.957 431.902C437.965 449.656 406.936 468.067 367.657 468.067Z" fill="#FEE56F"/>
<path d="M367.657 454.956C328.433 454.956 297.403 436.6 267.357 418.791C237.584 401.2 206.773 382.954 168.095 382.954C129.363 382.954 98.6061 401.2 68.7783 418.845C52.8264 428.296 36.3283 438.075 18.7375 444.958L18.0273 443.156C35.4542 436.327 51.8977 426.603 67.7949 417.152C97.7866 399.397 128.871 380.987 168.095 380.987C207.319 380.987 238.349 399.343 268.395 417.152C298.168 434.797 328.979 453.044 367.712 453.044C406.444 453.044 437.201 434.797 467.028 417.152C497.02 399.397 528.104 380.987 567.328 380.987V382.954C528.596 382.954 497.839 401.2 468.012 418.845C437.965 436.6 406.936 454.956 367.657 454.956Z" fill="#FEE56F"/>
<path d="M367.657 441.844C328.433 441.844 297.403 423.489 267.357 405.68C237.584 388.089 206.773 369.843 168.095 369.843C129.363 369.843 98.6061 388.089 68.7783 405.734C52.8264 415.185 36.3283 424.964 18.7375 431.847L18.0273 430.044C35.4542 423.216 51.8977 413.492 67.7949 404.041C97.7866 386.286 128.871 367.876 168.095 367.876C207.319 367.876 238.349 386.231 268.395 404.041C298.168 421.686 328.979 439.932 367.712 439.932C406.444 439.932 437.201 421.686 467.028 404.041C497.02 386.286 528.104 367.876 567.328 367.876V369.843C528.596 369.843 497.839 388.089 468.012 405.734C437.965 423.489 406.936 441.844 367.657 441.844Z" fill="#FEE56F"/>
<path d="M367.657 428.788C328.433 428.788 297.403 410.432 267.357 392.623C237.584 374.978 206.773 356.731 168.04 356.731C129.308 356.731 98.5514 374.978 68.7236 392.623C52.7717 402.074 36.2736 411.853 18.6828 418.736L17.9727 416.933C35.3995 410.105 51.843 400.381 67.7403 390.93C97.7319 373.175 128.816 354.765 168.04 354.765C207.264 354.765 238.294 373.12 268.34 390.93C298.113 408.575 328.925 426.821 367.657 426.821C406.389 426.821 437.146 408.575 466.974 390.93C496.965 373.175 528.05 354.765 567.274 354.765V356.731C528.541 356.731 497.785 374.978 467.957 392.623C437.965 410.378 406.936 428.788 367.657 428.788Z" fill="#FEE56F"/>
<path d="M367.657 415.677C328.433 415.677 297.403 397.321 267.357 379.512C237.584 361.867 206.773 343.62 168.04 343.62C129.308 343.62 98.5514 361.867 68.7236 379.512C52.7717 388.963 36.2736 398.742 18.6828 405.625L17.9727 403.822C35.3995 396.994 51.843 387.269 67.7403 377.819C97.7319 360.064 128.816 341.654 168.04 341.654C207.264 341.654 238.294 360.009 268.34 377.819C298.113 395.464 328.925 413.71 367.657 413.71C406.389 413.71 437.146 395.464 466.974 377.819C496.965 360.064 528.05 341.654 567.274 341.654V343.62C528.541 343.62 497.785 361.867 467.957 379.512C437.965 397.321 406.936 415.677 367.657 415.677Z" fill="#FEE56F"/>
<path d="M367.657 402.566C328.433 402.566 297.403 384.21 267.357 366.401C237.584 348.756 206.773 330.509 168.04 330.509C129.308 330.509 98.5514 348.756 68.7236 366.401C52.7717 375.852 36.2736 385.631 18.6828 392.514L17.9727 390.711C35.3995 383.882 51.843 374.158 67.7403 364.707C97.7319 346.953 128.816 328.543 168.04 328.543C207.264 328.543 238.294 346.898 268.34 364.707C298.113 382.353 328.925 400.599 367.657 400.599C406.389 400.599 437.146 382.353 466.974 364.707C496.965 346.953 528.05 328.543 567.274 328.543V330.509C528.541 330.509 497.785 348.756 467.957 366.401C437.965 384.21 406.936 402.566 367.657 402.566Z" fill="#FEE56F"/>
<path d="M367.657 389.509C328.433 389.509 297.403 371.154 267.357 353.344C237.584 335.699 206.773 317.453 168.04 317.453C129.308 317.453 98.5514 335.699 68.7236 353.344C52.7717 362.795 36.2736 372.574 18.6828 379.457L17.9727 377.655C35.3995 370.826 51.843 361.102 67.7403 351.651C97.7319 333.896 128.816 315.486 168.04 315.486C207.264 315.486 238.294 333.842 268.34 351.651C298.113 369.296 328.925 387.543 367.657 387.543C406.389 387.543 437.146 369.296 466.974 351.651C496.965 333.896 528.05 315.486 567.274 315.486V317.453C528.541 317.453 497.785 335.699 467.957 353.344C437.965 371.099 406.936 389.509 367.657 389.509Z" fill="#FEE56F"/>
<path d="M367.657 376.398C328.433 376.398 297.403 358.043 267.357 340.233C237.584 322.588 206.773 304.342 168.04 304.342C129.308 304.342 98.5514 322.588 68.7236 340.233C52.7717 349.684 36.2736 359.463 18.6828 366.346L17.9727 364.544C35.3995 357.715 51.843 347.991 67.7403 338.54C97.7319 320.785 128.816 302.375 168.04 302.375C207.264 302.375 238.294 320.731 268.34 338.54C298.113 356.185 328.925 374.431 367.657 374.431C406.389 374.431 437.146 356.185 466.974 338.54C496.965 320.785 528.05 302.375 567.274 302.375V304.342C528.541 304.342 497.785 322.588 467.957 340.233C437.965 358.043 406.936 376.398 367.657 376.398Z" fill="#FEE56F"/>
<path d="M367.657 363.287C328.433 363.287 297.403 344.931 267.357 327.122C237.584 309.477 206.773 291.231 168.04 291.231C129.308 291.231 98.5514 309.477 68.7236 327.122C52.7717 336.573 36.2736 346.352 18.6828 353.235L17.9727 351.432C35.3995 344.604 51.843 334.88 67.7403 325.429C97.7319 307.674 128.816 289.264 168.04 289.264C207.264 289.264 238.294 307.619 268.34 325.429C298.113 343.074 328.925 361.32 367.657 361.32C406.389 361.32 437.146 343.074 466.974 325.429C496.965 307.674 528.05 289.264 567.274 289.264V291.231C528.541 291.231 497.785 309.477 467.957 327.122C437.965 344.931 406.936 363.287 367.657 363.287Z" fill="#FEE56F"/>
<path d="M367.657 350.231C328.433 350.231 297.403 331.875 267.357 314.066C237.584 296.42 206.773 278.174 168.04 278.174C129.308 278.174 98.5514 296.42 68.7236 314.066C52.7717 323.517 36.2736 333.295 18.6828 340.179L17.9727 338.376C35.3995 331.547 51.843 321.823 67.7403 312.372C97.7319 294.618 128.816 276.207 168.04 276.207C207.264 276.207 238.294 294.563 268.34 312.372C298.113 330.018 328.925 348.264 367.657 348.264C406.389 348.264 437.146 330.018 466.974 312.372C496.965 294.618 528.05 276.207 567.274 276.207V278.174C528.541 278.174 497.785 296.42 467.957 314.066C437.965 331.82 406.936 350.231 367.657 350.231Z" fill="#FEE56F"/>
<path d="M367.657 337.119C328.433 337.119 297.403 318.764 267.357 300.955C237.584 283.309 206.773 265.063 168.04 265.063C129.308 265.063 98.5514 283.309 68.7236 300.955C52.7717 310.406 36.2736 320.184 18.6828 327.068L17.9727 325.265C35.3995 318.436 51.843 308.712 67.7403 299.261C97.7319 281.506 128.816 263.096 168.04 263.096C207.264 263.096 238.294 281.452 268.34 299.261C298.113 316.906 328.925 335.153 367.657 335.153C406.389 335.153 437.146 316.906 466.974 299.261C496.965 281.506 528.05 263.096 567.274 263.096V265.063C528.541 265.063 497.785 283.309 467.957 300.955C437.965 318.764 406.936 337.119 367.657 337.119Z" fill="#FEE56F"/>
<path d="M367.657 324.008C328.433 324.008 297.403 305.653 267.357 287.844C237.584 270.198 206.773 251.952 168.04 251.952C129.308 251.952 98.5514 270.198 68.7236 287.844C52.7717 297.294 36.2736 307.073 18.6828 313.956L17.9727 312.154C35.3995 305.325 51.843 295.601 67.7403 286.15C97.7319 268.395 128.816 249.985 168.04 249.985C207.264 249.985 238.294 268.341 268.34 286.15C298.113 303.795 328.925 322.042 367.657 322.042C406.389 322.042 437.146 303.795 466.974 286.15C496.965 268.395 528.05 249.985 567.274 249.985V251.952C528.541 251.952 497.785 270.198 467.957 287.844C437.965 305.653 406.936 324.008 367.657 324.008Z" fill="#FEE56F"/>
<path d="M367.657 310.952C328.433 310.952 297.403 292.596 267.357 274.787C237.584 257.142 206.773 238.895 168.04 238.895C129.308 238.895 98.5514 257.142 68.7236 274.787C52.7717 284.238 36.2736 294.017 18.6828 300.9L17.9727 299.097C35.3995 292.269 51.843 282.544 67.7403 273.094C97.7319 255.339 128.816 236.929 168.04 236.929C207.264 236.929 238.294 255.284 268.34 273.094C298.113 290.739 328.925 308.985 367.657 308.985C406.389 308.985 437.146 290.739 466.974 273.094C496.965 255.339 528.05 236.929 567.274 236.929V238.895C528.541 238.895 497.785 257.142 467.957 274.787C437.965 292.542 406.936 310.952 367.657 310.952Z" fill="#FEE56F"/>
<path d="M367.657 297.841C328.433 297.841 297.403 279.485 267.357 261.676C237.584 244.031 206.773 225.784 168.04 225.784C129.308 225.784 98.5514 244.031 68.7236 261.676C52.7717 271.127 36.2736 280.906 18.6828 287.789L17.9727 285.986C35.3995 279.157 51.843 269.433 67.7403 259.982C97.7319 242.228 128.816 223.818 168.04 223.818C207.264 223.818 238.294 242.173 268.34 259.982C298.113 277.628 328.925 295.874 367.657 295.874C406.389 295.874 437.146 277.628 466.974 259.982C496.965 242.228 528.05 223.818 567.274 223.818V225.784C528.541 225.784 497.785 244.031 467.957 261.676C437.965 279.485 406.936 297.841 367.657 297.841Z" fill="#FEE56F"/>
</g>
<path d="M295.055 490.519L197.322 321.659H392.732L295.055 490.519ZM199.944 323.189L295.055 487.515L390.056 323.189H199.944Z" fill="#FEE56F"/>
<path d="M149.685 295L294.891 43.813L440.315 295H149.685Z" fill="#6B2978"/>
<path d="M441.626 295.765H148.374L294.945 42.2833L295.601 43.4306L441.626 295.765ZM150.996 294.235H439.004L294.891 45.3426L150.996 294.235Z" fill="#FEE56F"/>
<path d="M90.8491 487.679L91.45 486.368C92.3241 487.132 93.7991 487.733 95.3287 487.733C97.35 487.733 98.2241 486.969 98.2241 485.931C98.2241 483.09 91.1223 484.893 91.1223 480.522C91.1223 478.719 92.5426 477.19 95.6019 477.19C96.9676 477.19 98.388 477.572 99.3713 478.228L98.825 479.594C97.7871 478.938 96.6399 478.665 95.6019 478.665C93.6352 478.665 92.7612 479.484 92.7612 480.522C92.7612 483.363 99.863 481.615 99.863 485.876C99.863 487.679 98.4426 489.208 95.3287 489.208C93.526 489.154 91.7778 488.553 90.8491 487.679Z" fill="white"/>
<path d="M101.283 484.565C101.283 481.943 103.25 480.031 105.927 480.031C108.604 480.031 110.516 481.888 110.516 484.565C110.516 487.187 108.549 489.099 105.927 489.099C103.25 489.099 101.283 487.242 101.283 484.565ZM108.877 484.565C108.877 482.653 107.62 481.451 105.872 481.451C104.179 481.451 102.867 482.653 102.867 484.565C102.867 486.477 104.179 487.679 105.872 487.679C107.62 487.733 108.877 486.477 108.877 484.565Z" fill="white"/>
<path d="M111.608 488.061L112.264 486.805C113.029 487.351 114.231 487.733 115.378 487.733C116.853 487.733 117.508 487.296 117.508 486.531C117.508 484.565 111.882 486.258 111.882 482.707C111.882 481.123 113.302 480.031 115.596 480.031C116.744 480.031 118.055 480.358 118.82 480.85L118.109 482.106C117.29 481.56 116.416 481.396 115.542 481.396C114.121 481.396 113.466 481.943 113.466 482.598C113.466 484.674 119.093 482.981 119.093 486.422C119.093 488.006 117.618 489.044 115.269 489.044C113.794 489.099 112.319 488.662 111.608 488.061Z" fill="white"/>
<path d="M126.085 488.498C125.593 488.935 124.883 489.099 124.118 489.099C122.316 489.099 121.332 488.116 121.332 486.313V481.451H119.803V480.14H121.332V478.173H122.917V480.14H125.484V481.451H122.917V486.258C122.917 487.187 123.408 487.733 124.282 487.733C124.774 487.733 125.211 487.569 125.539 487.296L126.085 488.498Z" fill="white"/>
<path d="M135.755 485.111H128.544C128.762 486.695 130.019 487.733 131.767 487.733C132.805 487.733 133.679 487.406 134.334 486.641L135.209 487.679C134.389 488.607 133.187 489.099 131.712 489.099C128.872 489.099 126.959 487.187 126.959 484.565C126.959 481.943 128.872 480.031 131.439 480.031C134.007 480.031 135.809 481.888 135.809 484.619C135.755 484.783 135.755 484.947 135.755 485.111ZM128.544 483.964H134.225C134.061 482.489 132.914 481.396 131.384 481.396C129.855 481.396 128.708 482.434 128.544 483.964Z" fill="white"/>
<path d="M146.408 483.909V488.99H144.823V484.073C144.823 482.325 143.949 481.451 142.42 481.451C140.726 481.451 139.634 482.489 139.634 484.401V488.99H138.049V480.14H139.579V481.506C140.235 480.577 141.382 480.085 142.802 480.085C144.878 480.085 146.408 481.287 146.408 483.909Z" fill="white"/>
<path d="M149.139 477.408C149.139 476.807 149.631 476.37 150.232 476.37C150.833 476.37 151.324 476.807 151.324 477.408C151.324 478.009 150.887 478.501 150.232 478.501C149.576 478.446 149.139 478.009 149.139 477.408ZM149.412 480.14H150.997V488.99H149.412V480.14Z" fill="white"/>
<path d="M163.288 484.565C163.288 487.296 161.376 489.099 158.808 489.099C157.497 489.099 156.35 488.607 155.64 487.569V488.99H154.056V476.589H155.64V481.506C156.35 480.577 157.497 480.085 158.754 480.085C161.376 480.085 163.288 481.888 163.288 484.565ZM161.649 484.565C161.649 482.653 160.338 481.451 158.645 481.451C156.951 481.451 155.64 482.653 155.64 484.565C155.64 486.477 156.951 487.679 158.645 487.679C160.338 487.733 161.649 486.477 161.649 484.565Z" fill="white"/>
<path d="M165.2 477.408C165.2 476.807 165.692 476.37 166.293 476.37C166.894 476.37 167.385 476.807 167.385 477.408C167.385 478.009 166.948 478.501 166.293 478.501C165.692 478.446 165.2 478.009 165.2 477.408ZM165.473 480.14H167.058V488.99H165.473V480.14Z" fill="white"/>
<path d="M170.171 476.589H171.756V488.99H170.171V476.589Z" fill="white"/>
<path d="M174.542 477.408C174.542 476.807 175.033 476.37 175.634 476.37C176.235 476.37 176.727 476.807 176.727 477.408C176.727 478.009 176.29 478.501 175.634 478.501C175.033 478.446 174.542 478.009 174.542 477.408ZM174.815 480.14H176.399V488.99H174.815V480.14Z" fill="white"/>
<path d="M187.871 476.589V488.99H186.342V487.569C185.631 488.553 184.484 489.099 183.173 489.099C180.551 489.099 178.693 487.296 178.693 484.565C178.693 481.833 180.605 480.031 183.173 480.031C184.429 480.031 185.522 480.522 186.287 481.451V476.534H187.871V476.589ZM186.287 484.565C186.287 482.653 184.976 481.451 183.282 481.451C181.589 481.451 180.278 482.653 180.278 484.565C180.278 486.477 181.589 487.679 183.282 487.679C185.03 487.733 186.287 486.477 186.287 484.565Z" fill="white"/>
<path d="M197.978 483.691V489.044H196.448V487.843C195.902 488.662 194.918 489.099 193.553 489.099C191.531 489.099 190.275 488.006 190.275 486.477C190.275 485.056 191.204 483.855 193.826 483.855H196.393V483.527C196.393 482.161 195.629 481.396 193.99 481.396C192.952 481.396 191.859 481.779 191.204 482.325L190.548 481.123C191.477 480.413 192.788 479.976 194.208 479.976C196.612 480.085 197.978 481.232 197.978 483.691ZM196.339 486.313V485.057H193.88C192.296 485.057 191.859 485.657 191.859 486.422C191.859 487.296 192.569 487.843 193.826 487.843C195.028 487.897 195.956 487.351 196.339 486.313Z" fill="white"/>
<path d="M209.396 476.589V488.99H207.866V487.569C207.156 488.553 206.009 489.099 204.697 489.099C202.075 489.099 200.218 487.296 200.218 484.565C200.218 481.833 202.13 480.031 204.697 480.031C205.954 480.031 207.046 480.522 207.811 481.451V476.534H209.396V476.589ZM207.757 484.565C207.757 482.653 206.446 481.451 204.752 481.451C203.059 481.451 201.747 482.653 201.747 484.565C201.747 486.477 203.059 487.679 204.752 487.679C206.5 487.733 207.757 486.477 207.757 484.565Z" fill="white"/>
<path d="M109.368 498.331V498.55H111.554V500.954H109.478V507.291H106.309V500.954H104.998V498.55H106.309V498.331C106.309 496.146 107.675 494.726 110.079 494.726C110.843 494.726 111.663 494.89 112.209 495.218L111.444 497.457C111.171 497.293 110.843 497.184 110.516 497.184C109.751 497.184 109.368 497.567 109.368 498.331ZM113.684 495.545C113.684 494.617 114.449 493.852 115.651 493.852C116.798 493.852 117.617 494.562 117.617 495.491C117.617 496.474 116.853 497.239 115.651 497.239C114.449 497.239 113.684 496.474 113.684 495.545ZM114.067 498.222H117.235V507.291H114.067V498.222Z" fill="white"/>
<path d="M128.981 502.101V507.291H125.812V502.593C125.812 501.281 125.266 500.735 124.337 500.735C123.299 500.735 122.534 501.391 122.534 502.866V507.236H119.366V498.222H122.37V499.206C123.081 498.441 124.119 498.058 125.266 498.058C127.342 498.058 128.981 499.315 128.981 502.101Z" fill="white"/>
<path d="M139.469 502.265V507.291H136.519V506.144C136.082 507.018 135.154 507.455 133.843 507.455C131.657 507.455 130.456 506.253 130.456 504.669C130.456 502.975 131.657 501.937 134.498 501.937H136.301C136.246 501.008 135.645 500.517 134.389 500.517C133.515 500.517 132.531 500.844 131.931 501.281L130.838 499.096C131.876 498.386 133.406 498.058 134.826 498.058C137.776 498.058 139.469 499.369 139.469 502.265ZM136.301 504.395V503.631H134.935C133.897 503.631 133.569 504.013 133.569 504.559C133.569 505.106 134.006 505.488 134.771 505.488C135.427 505.433 136.028 505.106 136.301 504.395Z" fill="white"/>
<path d="M151.16 502.101V507.291H147.992V502.593C147.992 501.281 147.445 500.735 146.517 500.735C145.479 500.735 144.714 501.391 144.714 502.866V507.236H141.491V498.222H144.495V499.206C145.206 498.441 146.243 498.058 147.391 498.058C149.521 498.058 151.16 499.315 151.16 502.101Z" fill="white"/>
<path d="M152.69 502.756C152.69 500.025 154.875 498.058 157.88 498.058C159.956 498.058 161.54 498.987 162.141 500.571L159.683 501.828C159.245 500.954 158.59 500.626 157.88 500.626C156.787 500.626 155.913 501.391 155.913 502.756C155.913 504.177 156.787 504.942 157.88 504.942C158.59 504.942 159.245 504.559 159.683 503.74L162.141 504.996C161.54 506.581 159.956 507.509 157.88 507.509C154.875 507.455 152.69 505.488 152.69 502.756Z" fill="white"/>
<path d="M163.015 495.545C163.015 494.617 163.779 493.852 164.981 493.852C166.183 493.852 166.948 494.562 166.948 495.491C166.948 496.474 166.183 497.239 164.981 497.239C163.779 497.239 163.015 496.474 163.015 495.545ZM163.342 498.222H166.511V507.291H163.342V498.222Z" fill="white"/>
<path d="M177.82 503.576H171.21C171.483 504.505 172.247 505.051 173.449 505.051C174.323 505.051 174.924 504.778 175.525 504.286L177.219 506.034C176.345 507.018 175.088 507.509 173.34 507.509C170.117 507.509 168.041 505.543 168.041 502.811C168.041 500.08 170.172 498.113 173.012 498.113C175.689 498.113 177.874 499.806 177.874 502.811C177.874 503.03 177.82 503.303 177.82 503.576ZM171.155 501.882H174.87C174.706 500.954 173.996 500.298 173.012 500.298C172.029 500.298 171.373 500.954 171.155 501.882Z" fill="white"/>
<path d="M185.413 498.058V500.899C185.14 500.844 184.921 500.844 184.703 500.844C183.392 500.844 182.518 501.5 182.518 503.084V507.236H179.349V498.222H182.354V499.315C183.064 498.495 184.102 498.058 185.413 498.058Z" fill="white"/>
<path d="M195.192 502.265V507.291H192.242V506.144C191.805 507.018 190.876 507.455 189.565 507.455C187.38 507.455 186.178 506.253 186.178 504.669C186.178 502.975 187.38 501.937 190.22 501.937H192.023C191.968 501.008 191.368 500.517 190.111 500.517C189.237 500.517 188.254 500.844 187.653 501.281L186.56 499.096C187.598 498.386 189.128 498.058 190.548 498.058C193.498 498.058 195.192 499.369 195.192 502.265ZM192.023 504.395V503.631H190.657C189.619 503.631 189.292 504.013 189.292 504.559C189.292 505.106 189.729 505.488 190.493 505.488C191.149 505.433 191.75 505.106 192.023 504.395Z" fill="white"/>
<path d="M120.404 447.69C111.936 434.032 113.957 416.606 125.32 405.188C138.759 391.749 160.556 391.749 173.995 405.188L172.466 406.718C159.901 394.153 139.415 394.153 126.795 406.718C116.143 417.37 114.231 433.759 122.206 446.597L120.404 447.69Z" fill="#FEE56F"/>
<path d="M174.159 407.537H164.872V405.461H172.029V398.25H174.159V407.537Z" fill="#FEE56F"/>
<path d="M149.849 463.751C141.054 463.751 132.204 460.419 125.539 453.699L127.069 452.169C139.634 464.734 160.12 464.734 172.739 452.169C183.337 441.571 185.195 424.691 177.219 412.071L179.021 410.924C187.544 424.418 185.577 442.336 174.269 453.644C167.44 460.364 158.645 463.751 149.849 463.751Z" fill="#FEE56F"/>
<path d="M127.451 460.637H125.32V451.295H134.607V453.426H127.451V460.637Z" fill="#FEE56F"/>
<path d="M149.357 445.887C148.92 445.887 148.538 445.887 148.101 445.832C141.6 445.395 137.284 442.063 136.847 437.037C136.792 436.327 137.284 435.726 137.994 435.671C138.704 435.617 139.305 436.108 139.36 436.819C139.797 442.281 146.243 443.156 148.21 443.265C153.673 443.593 158.808 441.407 159.409 438.457C160.338 434.142 160.119 431.683 144.878 427.586C139.141 426.056 136.137 422.396 136.738 417.753C137.448 412.563 142.474 408.356 147.937 408.356C157.989 408.356 160.775 414.42 160.884 414.693C161.157 415.349 160.884 416.114 160.228 416.387C159.573 416.66 158.863 416.387 158.535 415.731C158.426 415.513 156.186 410.924 147.937 410.924C143.293 410.924 139.688 414.639 139.251 418.081C138.814 421.358 141.108 423.926 145.533 425.128C159.846 429.006 163.397 431.956 161.867 439.004C161.048 443.429 155.039 445.887 149.357 445.887Z" fill="#FEE56F"/>
<path d="M149.248 454.355C148.538 454.355 147.991 453.808 147.991 453.098V404.095C147.991 403.385 148.538 402.839 149.248 402.839C149.958 402.839 150.504 403.385 150.504 404.095V453.098C150.504 453.754 149.958 454.355 149.248 454.355Z" fill="#FEE56F"/>
<path d="M235.344 242.173L235.945 240.862C236.819 241.627 238.294 242.228 239.824 242.228C241.845 242.228 242.719 241.463 242.719 240.425C242.719 237.584 235.617 239.387 235.617 235.017C235.617 233.214 237.038 231.684 240.097 231.684C241.463 231.684 242.883 232.067 243.866 232.722L243.32 234.088C242.282 233.432 241.135 233.159 240.097 233.159C238.13 233.159 237.256 233.979 237.256 235.017C237.256 237.857 244.358 236.109 244.358 240.37C244.358 242.173 242.938 243.703 239.824 243.703C238.021 243.648 236.273 243.047 235.344 242.173Z" fill="white"/>
<path d="M245.724 239.114C245.724 236.492 247.69 234.58 250.367 234.58C253.044 234.58 254.956 236.437 254.956 239.114C254.956 241.791 252.989 243.648 250.367 243.648C247.69 243.648 245.724 241.736 245.724 239.114ZM253.317 239.114C253.317 237.202 252.061 236 250.313 236C248.619 236 247.308 237.202 247.308 239.114C247.308 241.026 248.619 242.228 250.313 242.228C252.061 242.228 253.317 240.971 253.317 239.114Z" fill="white"/>
<path d="M256.049 242.61L256.704 241.354C257.469 241.9 258.671 242.282 259.818 242.282C261.293 242.282 261.949 241.845 261.949 241.081C261.949 239.114 256.322 240.807 256.322 237.256C256.322 235.672 257.742 234.58 260.037 234.58C261.184 234.58 262.495 234.907 263.26 235.399L262.55 236.656C261.73 236.109 260.856 235.945 259.982 235.945C258.562 235.945 257.906 236.492 257.906 237.147C257.906 239.223 263.533 237.53 263.533 240.971C263.533 242.556 262.058 243.594 259.709 243.594C258.289 243.648 256.814 243.156 256.049 242.61Z" fill="white"/>
<path d="M270.58 242.993C270.089 243.43 269.378 243.594 268.614 243.594C266.811 243.594 265.827 242.61 265.827 240.807V236H264.298V234.689H265.827V232.722H267.412V234.689H269.979V236H267.412V240.807C267.412 241.736 267.903 242.282 268.777 242.282C269.269 242.282 269.706 242.119 270.034 241.845L270.58 242.993Z" fill="white"/>
<path d="M280.195 239.606H272.984C273.202 241.19 274.459 242.228 276.207 242.228C277.245 242.228 278.119 241.9 278.774 241.135L279.648 242.173C278.829 243.102 277.627 243.594 276.152 243.594C273.311 243.594 271.399 241.681 271.399 239.059C271.399 236.437 273.311 234.525 275.879 234.525C278.447 234.525 280.249 236.382 280.249 239.114C280.249 239.278 280.195 239.496 280.195 239.606ZM272.984 238.458H278.665C278.501 236.983 277.354 235.891 275.824 235.891C274.295 235.945 273.148 236.983 272.984 238.458Z" fill="white"/>
<path d="M290.902 238.404V243.484H289.318V238.568C289.318 236.819 288.444 235.945 286.914 235.945C285.221 235.945 284.128 236.983 284.128 238.895V243.484H282.544V234.634H284.074V236C284.729 235.071 285.876 234.58 287.297 234.58C289.373 234.58 290.902 235.836 290.902 238.404Z" fill="white"/>
<path d="M293.579 231.903C293.579 231.302 294.071 230.865 294.672 230.865C295.273 230.865 295.764 231.302 295.764 231.903C295.764 232.504 295.327 232.995 294.672 232.995C294.071 232.941 293.579 232.504 293.579 231.903ZM293.852 234.634H295.436V243.484H293.852V234.634Z" fill="white"/>
<path d="M307.729 239.114C307.729 241.845 305.817 243.648 303.249 243.648C301.938 243.648 300.791 243.156 300.08 242.119V243.539H298.551V231.083H300.135V236C300.845 235.071 301.992 234.58 303.249 234.58C305.817 234.58 307.729 236.382 307.729 239.114ZM306.09 239.114C306.09 237.202 304.779 236 303.085 236C301.392 236 300.08 237.202 300.08 239.114C300.08 241.026 301.392 242.228 303.085 242.228C304.833 242.228 306.09 240.971 306.09 239.114Z" fill="white"/>
<path d="M309.695 231.903C309.695 231.302 310.186 230.865 310.787 230.865C311.388 230.865 311.88 231.302 311.88 231.903C311.88 232.504 311.443 232.995 310.787 232.995C310.132 232.941 309.695 232.504 309.695 231.903ZM309.968 234.634H311.552V243.484H309.968V234.634Z" fill="white"/>
<path d="M314.612 231.083H316.196V243.484H314.612V231.083Z" fill="white"/>
<path d="M319.037 231.903C319.037 231.302 319.528 230.865 320.129 230.865C320.73 230.865 321.222 231.302 321.222 231.903C321.222 232.504 320.785 232.995 320.129 232.995C319.474 232.941 319.037 232.504 319.037 231.903ZM319.31 234.634H320.894V243.484H319.31V234.634Z" fill="white"/>
<path d="M332.366 231.083V243.484H330.837V242.064C330.126 243.047 328.979 243.594 327.668 243.594C325.046 243.594 323.188 241.791 323.188 239.059C323.188 236.328 325.101 234.525 327.668 234.525C328.925 234.525 330.017 235.017 330.782 235.945V231.029H332.366V231.083ZM330.782 239.114C330.782 237.202 329.471 236 327.777 236C326.084 236 324.773 237.202 324.773 239.114C324.773 241.026 326.084 242.228 327.777 242.228C329.471 242.228 330.782 240.971 330.782 239.114Z" fill="white"/>
<path d="M342.418 238.185V243.539H340.888V242.392C340.342 243.211 339.359 243.648 337.993 243.648C335.972 243.648 334.715 242.556 334.715 241.026C334.715 239.606 335.644 238.404 338.266 238.404H340.834V238.076C340.834 236.71 340.069 235.945 338.43 235.945C337.392 235.945 336.3 236.328 335.589 236.874L334.934 235.672C335.863 234.962 337.174 234.525 338.594 234.525C341.052 234.58 342.418 235.727 342.418 238.185ZM340.834 240.807V239.551H338.376C336.791 239.551 336.354 240.152 336.354 240.917C336.354 241.791 337.064 242.337 338.321 242.337C339.468 242.392 340.451 241.845 340.834 240.807Z" fill="white"/>
<path d="M353.836 231.083V243.484H352.306V242.064C351.596 243.047 350.449 243.594 349.138 243.594C346.516 243.594 344.658 241.791 344.658 239.059C344.658 236.328 346.57 234.525 349.138 234.525C350.394 234.525 351.487 235.017 352.252 235.945V231.029H353.836V231.083ZM352.252 239.114C352.252 237.202 350.941 236 349.247 236C347.554 236 346.242 237.202 346.242 239.114C346.242 241.026 347.554 242.228 349.247 242.228C350.941 242.228 352.252 240.971 352.252 239.114Z" fill="white"/>
<path d="M249.657 256.595V261.785H246.489V257.087C246.489 255.776 245.942 255.23 245.123 255.23C244.194 255.23 243.539 255.831 243.539 257.251V261.731H240.37V257.032C240.37 255.721 239.824 255.175 239.004 255.175C238.076 255.175 237.42 255.776 237.42 257.196V261.676H234.251V252.607H237.256V253.536C237.966 252.826 238.895 252.444 239.988 252.444C241.244 252.444 242.282 252.881 242.938 253.864C243.648 252.935 244.795 252.444 246.106 252.444C248.127 252.553 249.657 253.809 249.657 256.595Z" fill="white"/>
<path d="M261.075 258.07H254.464C254.738 258.999 255.502 259.545 256.704 259.545C257.578 259.545 258.179 259.272 258.78 258.781L260.474 260.529C259.6 261.512 258.343 262.004 256.595 262.004C253.372 262.004 251.296 260.037 251.296 257.306C251.296 254.574 253.426 252.607 256.267 252.607C258.944 252.607 261.129 254.301 261.129 257.306C261.075 257.524 261.075 257.797 261.075 258.07ZM254.41 256.377H258.125C257.961 255.448 257.251 254.793 256.267 254.793C255.284 254.793 254.574 255.448 254.41 256.377Z" fill="white"/>
<path d="M268.832 261.457C268.286 261.785 267.467 262.004 266.647 262.004C264.298 262.004 262.987 260.856 262.987 258.562V255.503H261.676V253.099H262.987V250.75H266.155V253.099H268.231V255.503H266.155V258.507C266.155 259.163 266.538 259.545 267.084 259.545C267.412 259.545 267.794 259.436 268.067 259.272L268.832 261.457Z" fill="white"/>
<path d="M269.214 257.251C269.214 254.519 271.4 252.553 274.35 252.553C277.354 252.553 279.485 254.519 279.485 257.251C279.485 259.982 277.354 261.949 274.35 261.949C271.4 261.949 269.214 259.982 269.214 257.251ZM276.262 257.251C276.262 255.885 275.442 255.12 274.35 255.12C273.257 255.12 272.438 255.885 272.438 257.251C272.438 258.617 273.257 259.436 274.35 259.436C275.442 259.436 276.262 258.617 276.262 257.251Z" fill="white"/>
<path d="M290.575 249.384V261.785H287.57V260.856C286.969 261.567 286.095 261.894 284.893 261.894C282.435 261.894 280.414 260.092 280.414 257.196C280.414 254.301 282.38 252.498 284.893 252.498C285.931 252.498 286.805 252.826 287.406 253.427V249.275H290.575V249.384ZM287.461 257.251C287.461 255.885 286.641 255.12 285.549 255.12C284.456 255.12 283.637 255.885 283.637 257.251C283.637 258.617 284.456 259.436 285.549 259.436C286.641 259.436 287.461 258.617 287.461 257.251Z" fill="white"/>
<path d="M292.05 257.251C292.05 254.519 294.235 252.553 297.185 252.553C300.19 252.553 302.32 254.519 302.32 257.251C302.32 259.982 300.19 261.949 297.185 261.949C294.235 261.949 292.05 259.982 292.05 257.251ZM299.097 257.251C299.097 255.885 298.278 255.12 297.185 255.12C296.092 255.12 295.273 255.885 295.273 257.251C295.273 258.617 296.092 259.436 297.185 259.436C298.278 259.436 299.097 258.617 299.097 257.251Z" fill="white"/>
<path d="M303.795 249.384H306.963V261.785H303.795V249.384Z" fill="white"/>
<path d="M308.438 257.251C308.438 254.519 310.624 252.553 313.574 252.553C316.578 252.553 318.709 254.519 318.709 257.251C318.709 259.982 316.578 261.949 313.574 261.949C310.624 261.949 308.438 259.982 308.438 257.251ZM315.486 257.251C315.486 255.885 314.666 255.12 313.574 255.12C312.481 255.12 311.662 255.885 311.662 257.251C311.662 258.617 312.481 259.436 313.574 259.436C314.666 259.436 315.486 258.617 315.486 257.251ZM314.175 249.111H317.343L314.175 251.679H311.935L314.175 249.111Z" fill="white"/>
<path d="M329.963 252.717V260.146C329.963 263.588 327.996 265.227 324.664 265.227C322.915 265.227 321.277 264.844 320.184 264.025L321.331 261.785C322.096 262.386 323.298 262.769 324.39 262.769C326.084 262.769 326.794 262.004 326.794 260.583V260.256C326.193 260.966 325.265 261.348 324.117 261.348C321.714 261.348 319.638 259.655 319.638 256.978C319.638 254.301 321.659 252.607 324.117 252.607C325.374 252.607 326.357 252.99 326.958 253.864V252.771H329.963V252.717ZM326.794 256.923C326.794 255.831 325.975 255.066 324.828 255.066C323.68 255.066 322.861 255.776 322.861 256.923C322.861 258.07 323.735 258.781 324.828 258.781C325.92 258.781 326.794 258.07 326.794 256.923Z" fill="white"/>
<path d="M331.656 250.04C331.656 249.111 332.421 248.346 333.623 248.346C334.825 248.346 335.59 249.056 335.59 249.985C335.59 250.969 334.825 251.733 333.623 251.733C332.421 251.733 331.656 250.969 331.656 250.04ZM331.984 252.717H335.153V261.785H331.984V252.717Z" fill="white"/>
<path d="M336.682 257.251C336.682 254.519 338.867 252.553 341.872 252.553C343.948 252.553 345.532 253.481 346.133 255.066L343.675 256.322C343.238 255.448 342.582 255.12 341.872 255.12C340.779 255.12 339.905 255.885 339.905 257.251C339.905 258.671 340.779 259.436 341.872 259.436C342.582 259.436 343.238 259.054 343.675 258.234L346.133 259.491C345.532 261.075 343.948 262.004 341.872 262.004C338.813 261.949 336.682 260.037 336.682 257.251Z" fill="white"/>
<path d="M355.857 256.759V261.785H352.907V260.638C352.47 261.512 351.541 261.949 350.23 261.949C348.045 261.949 346.843 260.747 346.843 259.163C346.843 257.469 348.045 256.431 350.886 256.431H352.689C352.634 255.503 352.033 255.011 350.777 255.011C349.902 255.011 348.919 255.339 348.318 255.776L347.226 253.591C348.264 252.881 349.793 252.553 351.214 252.553C354.164 252.553 355.857 253.864 355.857 256.759ZM352.689 258.89V258.125H351.268C350.23 258.125 349.903 258.507 349.903 259.054C349.903 259.6 350.34 259.982 351.104 259.982C351.815 259.928 352.415 259.6 352.689 258.89Z" fill="white"/>
<path d="M283.364 201.201C283.254 199.453 282.872 196.994 281.725 195.574C273.476 184.921 273.203 174.76 273.203 174.651C273.203 162.632 282.981 152.908 294.945 152.908C306.964 152.908 316.688 162.687 316.688 174.651C316.688 174.76 316.469 184.921 308.22 195.519C307.346 196.667 306.8 198.633 306.636 201.201L305.543 202.239H284.456L283.364 201.201ZM304.56 199.999C304.833 197.486 305.489 195.519 306.527 194.154C314.339 184.102 314.557 174.706 314.557 174.596C314.557 163.834 305.817 155.094 295.054 155.094C284.292 155.094 275.552 163.834 275.552 174.596C275.552 174.706 275.77 184.047 283.582 194.154C284.784 195.738 285.33 198.032 285.549 199.944H304.56" fill="#FEE56F"/>
<path d="M308.438 200.218H281.615V202.457H308.438V200.218Z" fill="#FEE56F"/>
<path d="M308.438 205.462H281.615V207.702H308.438V205.462Z" fill="#FEE56F"/>
<path d="M308.438 210.652H281.615V212.892H308.438V210.652Z" fill="#FEE56F"/>
<path d="M304.779 215.896H285.221V218.136H304.779V215.896Z" fill="#FEE56F"/>
<path d="M306.472 201.638H304.232V211.526H306.472V201.638Z" fill="#FEE56F"/>
<path d="M296.147 146.08H293.907V150.177H296.147V146.08Z" fill="#FEE56F"/>
<path d="M301.33 146.754L300.269 150.712L302.432 151.292L303.493 147.334L301.33 146.754Z" fill="#FEE56F"/>
<path d="M308.273 149.361L306.225 152.909L308.164 154.029L310.213 150.481L308.273 149.361Z" fill="#FEE56F"/>
<path d="M314.297 153.598L311.399 156.496L312.983 158.079L315.88 155.182L314.297 153.598Z" fill="#FEE56F"/>
<path d="M319.077 159.299L315.528 161.348L316.648 163.288L320.197 161.239L319.077 159.299Z" fill="#FEE56F"/>
<path d="M322.178 166.061L318.221 167.121L318.801 169.285L322.758 168.224L322.178 166.061Z" fill="#FEE56F"/>
<path d="M323.461 173.394H319.364V175.634H323.461V173.394Z" fill="#FEE56F"/>
<path d="M318.825 179.718L318.245 181.882L322.202 182.943L322.782 180.779L318.825 179.718Z" fill="#FEE56F"/>
<path d="M316.633 185.685L315.513 187.625L319.061 189.674L320.181 187.734L316.633 185.685Z" fill="#FEE56F"/>
<path d="M273.401 185.671L269.854 187.721L270.975 189.66L274.522 187.61L273.401 185.671Z" fill="#FEE56F"/>
<path d="M271.222 179.743L267.264 180.803L267.843 182.966L271.801 181.906L271.222 179.743Z" fill="#FEE56F"/>
<path d="M270.69 173.394H266.592V175.634H270.69V173.394Z" fill="#FEE56F"/>
<path d="M267.876 166.032L267.295 168.195L271.253 169.257L271.833 167.093L267.876 166.032Z" fill="#FEE56F"/>
<path d="M270.945 159.295L269.825 161.235L273.373 163.283L274.493 161.344L270.945 159.295Z" fill="#FEE56F"/>
<path d="M275.713 153.568L274.129 155.152L277.027 158.049L278.61 156.465L275.713 153.568Z" fill="#FEE56F"/>
<path d="M281.758 149.351L279.818 150.47L281.866 154.019L283.806 152.899L281.758 149.351Z" fill="#FEE56F"/>
<path d="M288.753 146.722L286.589 147.302L287.651 151.259L289.814 150.679L288.753 146.722Z" fill="#FEE56F"/>
<path d="M281.178 172.63H293.197L289.482 161.758L291.394 160.666L309.203 182.244H297.185L300.9 193.116L298.987 194.208L281.178 172.63ZM293.525 166.784L296.256 174.869H285.876L296.857 188.144L294.125 180.059H304.505L293.525 166.784Z" fill="#FEE56F"/>
<path d="M382.134 487.679L382.735 486.368C383.609 487.132 385.084 487.733 386.614 487.733C388.635 487.733 389.509 486.969 389.509 485.931C389.509 483.09 382.407 484.893 382.407 480.522C382.407 478.719 383.828 477.19 386.887 477.19C388.253 477.19 389.673 477.572 390.656 478.228L390.11 479.594C389.072 478.938 387.925 478.665 386.887 478.665C384.92 478.665 384.046 479.484 384.046 480.522C384.046 483.363 391.148 481.615 391.148 485.876C391.148 487.679 389.728 489.208 386.614 489.208C384.811 489.154 383.063 488.553 382.134 487.679Z" fill="white"/>
<path d="M392.568 484.565C392.568 481.943 394.535 480.031 397.212 480.031C399.889 480.031 401.801 481.888 401.801 484.565C401.801 487.187 399.834 489.099 397.212 489.099C394.59 489.099 392.568 487.242 392.568 484.565ZM400.162 484.565C400.162 482.653 398.905 481.451 397.157 481.451C395.409 481.451 394.153 482.653 394.153 484.565C394.153 486.477 395.464 487.679 397.157 487.679C398.851 487.679 400.162 486.477 400.162 484.565Z" fill="white"/>
<path d="M402.894 488.061L403.549 486.805C404.314 487.351 405.516 487.733 406.663 487.733C408.138 487.733 408.794 487.296 408.794 486.531C408.794 484.565 403.167 486.258 403.167 482.707C403.167 481.123 404.587 480.031 406.882 480.031C408.029 480.031 409.34 480.358 410.105 480.85L409.394 482.106C408.575 481.56 407.701 481.396 406.827 481.396C405.407 481.396 404.751 481.943 404.751 482.598C404.751 484.674 410.378 482.981 410.378 486.422C410.378 488.006 408.903 489.044 406.554 489.044C405.079 489.099 403.604 488.662 402.894 488.061Z" fill="white"/>
<path d="M417.37 488.498C416.879 488.935 416.168 489.099 415.404 489.099C413.601 489.099 412.563 488.116 412.563 486.313V481.451H411.033V480.14H412.563V478.173H414.147V480.14H416.715V481.451H414.147V486.258C414.147 487.187 414.639 487.733 415.513 487.733C416.004 487.733 416.442 487.569 416.769 487.296L417.37 488.498Z" fill="white"/>
<path d="M427.04 485.111H419.829C420.047 486.695 421.304 487.733 423.052 487.733C424.09 487.733 424.964 487.406 425.62 486.641L426.494 487.679C425.674 488.607 424.472 489.099 422.997 489.099C420.157 489.099 418.245 487.187 418.245 484.565C418.245 481.943 420.157 480.031 422.724 480.031C425.292 480.031 427.095 481.888 427.095 484.619C427.04 484.783 427.04 484.947 427.04 485.111ZM419.829 483.964H425.51C425.347 482.489 424.199 481.396 422.67 481.396C421.14 481.396 419.993 482.434 419.829 483.964Z" fill="white"/>
<path d="M437.693 483.909V488.99H436.108V484.073C436.108 482.325 435.234 481.451 433.705 481.451C432.011 481.451 430.864 482.489 430.864 484.401V488.99H429.28V480.14H430.809V481.506C431.465 480.577 432.612 480.085 434.033 480.085C436.163 480.085 437.693 481.287 437.693 483.909Z" fill="white"/>
<path d="M440.424 477.408C440.424 476.807 440.916 476.37 441.517 476.37C442.118 476.37 442.61 476.807 442.61 477.408C442.61 478.009 442.172 478.501 441.517 478.501C440.861 478.446 440.424 478.009 440.424 477.408ZM440.697 480.14H442.282V488.99H440.697V480.14Z" fill="white"/>
<path d="M454.573 484.565C454.573 487.296 452.661 489.099 450.094 489.099C448.783 489.099 447.635 488.607 446.925 487.569V488.99H445.396V476.589H446.98V481.506C447.69 480.577 448.837 480.085 450.094 480.085C452.661 480.085 454.573 481.888 454.573 484.565ZM452.934 484.565C452.934 482.653 451.623 481.451 449.93 481.451C448.236 481.451 446.925 482.653 446.925 484.565C446.925 486.477 448.236 487.679 449.93 487.679C451.623 487.733 452.934 486.477 452.934 484.565Z" fill="white"/>
<path d="M456.485 477.408C456.485 476.807 456.977 476.37 457.578 476.37C458.179 476.37 458.671 476.807 458.671 477.408C458.671 478.009 458.233 478.501 457.578 478.501C456.977 478.446 456.485 478.009 456.485 477.408ZM456.758 480.14H458.343V488.99H456.758V480.14Z" fill="white"/>
<path d="M461.457 476.589H463.041V488.99H461.457V476.589Z" fill="white"/>
<path d="M465.827 477.408C465.827 476.807 466.318 476.37 466.919 476.37C467.52 476.37 468.012 476.807 468.012 477.408C468.012 478.009 467.575 478.501 466.919 478.501C466.318 478.446 465.827 478.009 465.827 477.408ZM466.154 480.14H467.739V488.99H466.154V480.14Z" fill="white"/>
<path d="M479.156 476.589V488.99H477.627V487.569C476.916 488.553 475.769 489.099 474.458 489.099C471.836 489.099 469.979 487.296 469.979 484.565C469.979 481.833 471.891 480.031 474.458 480.031C475.715 480.031 476.807 480.522 477.572 481.451V476.534H479.156V476.589ZM477.572 484.565C477.572 482.653 476.261 481.451 474.567 481.451C472.874 481.451 471.563 482.653 471.563 484.565C471.563 486.477 472.874 487.679 474.567 487.679C476.316 487.733 477.572 486.477 477.572 484.565Z" fill="white"/>
<path d="M489.263 483.691V489.044H487.733V487.843C487.187 488.662 486.204 489.099 484.838 489.099C482.817 489.099 481.56 488.006 481.56 486.477C481.56 485.056 482.489 483.855 485.111 483.855H487.679V483.527C487.679 482.161 486.914 481.396 485.275 481.396C484.237 481.396 483.144 481.779 482.434 482.325L481.779 481.123C482.707 480.413 484.018 479.976 485.439 479.976C487.897 480.085 489.263 481.232 489.263 483.691ZM487.624 486.313V485.056H485.166C483.581 485.056 483.144 485.657 483.144 486.422C483.144 487.296 483.855 487.843 485.111 487.843C486.313 487.897 487.242 487.351 487.624 486.313Z" fill="white"/>
<path d="M500.681 476.589V488.99H499.151V487.569C498.441 488.553 497.294 489.099 495.983 489.099C493.36 489.099 491.503 487.296 491.503 484.565C491.503 481.833 493.415 480.031 495.983 480.031C497.239 480.031 498.332 480.522 499.096 481.451V476.534H500.681V476.589ZM499.096 484.565C499.096 482.653 497.785 481.451 496.092 481.451C494.398 481.451 493.087 482.653 493.087 484.565C493.087 486.477 494.398 487.679 496.092 487.679C497.785 487.733 499.096 486.477 499.096 484.565Z" fill="white"/>
<path d="M403.112 502.756C403.112 500.025 405.297 498.058 408.247 498.058C411.252 498.058 413.383 500.025 413.383 502.756C413.383 505.488 411.252 507.455 408.247 507.455C405.297 507.455 403.112 505.488 403.112 502.756ZM410.16 502.756C410.16 501.391 409.34 500.626 408.247 500.626C407.155 500.626 406.335 501.391 406.335 502.756C406.335 504.122 407.155 504.942 408.247 504.942C409.34 504.942 410.16 504.122 410.16 502.756Z" fill="white"/>
<path d="M420.921 498.058V500.899C420.648 500.844 420.43 500.844 420.211 500.844C418.9 500.844 418.026 501.5 418.026 503.084V507.236H414.857V498.222H417.862V499.315C418.518 498.495 419.61 498.058 420.921 498.058Z" fill="white"/>
<path d="M431.902 498.222V505.652C431.902 509.093 429.935 510.732 426.603 510.732C424.854 510.732 423.216 510.35 422.123 509.531L423.27 507.291C424.035 507.892 425.237 508.274 426.329 508.274C428.023 508.274 428.733 507.509 428.733 506.089V505.761C428.132 506.471 427.204 506.854 426.056 506.854C423.653 506.854 421.577 505.16 421.577 502.483C421.577 499.806 423.598 498.113 426.056 498.113C427.313 498.113 428.296 498.495 428.897 499.369V498.277H431.902V498.222ZM428.788 502.429C428.788 501.336 427.968 500.571 426.821 500.571C425.674 500.571 424.854 501.281 424.854 502.429C424.854 503.521 425.728 504.286 426.821 504.286C427.914 504.286 428.788 503.521 428.788 502.429Z" fill="white"/>
<path d="M442.446 502.265V507.291H439.496V506.143C439.058 507.018 438.13 507.455 436.819 507.455C434.633 507.455 433.432 506.253 433.432 504.668C433.432 502.975 434.633 501.937 437.474 501.937H439.277C439.222 501.008 438.621 500.517 437.365 500.517C436.491 500.517 435.508 500.844 434.907 501.281L433.814 499.096C434.852 498.386 436.382 498.058 437.802 498.058C440.752 498.058 442.446 499.369 442.446 502.265ZM439.277 504.395V503.631H437.911C436.873 503.631 436.546 504.013 436.546 504.559C436.546 505.106 436.983 505.488 437.747 505.488C438.403 505.433 439.004 505.106 439.277 504.395ZM438.84 497.13H436.546L438.785 494.562H441.954L438.84 497.13Z" fill="white"/>
<path d="M454.136 502.101V507.291H450.968V502.593C450.968 501.281 450.421 500.735 449.493 500.735C448.455 500.735 447.69 501.391 447.69 502.866V507.236H444.521V498.222H447.526V499.206C448.236 498.441 449.274 498.058 450.421 498.058C452.497 498.058 454.136 499.315 454.136 502.101Z" fill="white"/>
<path d="M455.775 495.545C455.775 494.617 456.54 493.852 457.742 493.852C458.943 493.852 459.708 494.562 459.708 495.491C459.708 496.474 458.943 497.239 457.742 497.239C456.54 497.239 455.775 496.474 455.775 495.545ZM456.157 498.222H459.326V507.291H456.157V498.222Z" fill="white"/>
<path d="M460.801 502.756C460.801 500.025 462.986 498.058 465.991 498.058C468.067 498.058 469.651 498.987 470.252 500.571L467.793 501.828C467.356 500.954 466.701 500.626 465.991 500.626C464.898 500.626 464.024 501.391 464.024 502.756C464.024 504.177 464.898 504.942 465.991 504.942C466.701 504.942 467.356 504.559 467.793 503.74L470.252 504.996C469.651 506.581 468.067 507.509 465.991 507.509C462.986 507.455 460.801 505.488 460.801 502.756Z" fill="white"/>
<path d="M479.976 502.265V507.291H477.026V506.143C476.589 507.018 475.66 507.455 474.349 507.455C472.164 507.455 470.962 506.253 470.962 504.668C470.962 502.975 472.164 501.937 475.005 501.937H476.807C476.753 501.008 476.152 500.517 474.895 500.517C474.021 500.517 473.038 500.844 472.437 501.281L471.344 499.096C472.382 498.386 473.912 498.058 475.332 498.058C478.282 498.058 479.976 499.369 479.976 502.265ZM476.807 504.395V503.631H475.442C474.404 503.631 474.076 504.013 474.076 504.559C474.076 505.106 474.513 505.488 475.278 505.488C475.933 505.433 476.534 505.106 476.807 504.395Z" fill="white"/>
<path d="M470.033 461.948H429.771V459.599H467.684L467.629 442.828L467.575 442.773C467.52 442.719 467.465 442.664 467.411 442.609L467.028 442.445C466.974 442.445 466.974 442.445 466.919 442.445C466.919 442.445 466.81 442.445 466.755 442.445C466.427 442.445 466.1 442.609 465.881 442.882C464.188 445.068 461.675 446.324 458.889 446.324C454.027 446.324 450.039 442.336 450.039 437.474C450.039 432.612 454.027 428.624 458.889 428.624C461.62 428.624 464.188 429.881 465.881 432.066C466.1 432.339 466.537 432.503 466.919 432.448L467.302 432.284L467.356 432.23C467.411 432.175 467.465 432.12 467.52 432.066L467.575 432.011L467.629 431.956V415.24H451.186C449.438 415.076 448.127 413.601 448.127 411.853C448.127 410.815 448.618 409.831 449.438 409.176C451.077 407.919 452.005 406.062 452.005 404.041C452.005 402.293 451.35 400.708 450.093 399.452C448.891 398.25 447.252 397.54 445.504 397.54C443.756 397.54 442.172 398.195 440.915 399.452C439.714 400.654 439.003 402.293 439.003 404.041C439.003 406.062 439.932 407.919 441.516 409.176C442.39 409.831 442.827 410.815 442.827 411.853C442.827 413.601 441.516 415.076 439.768 415.294H439.659H437.638V412.945H439.604C440.151 412.836 440.533 412.399 440.533 411.853C440.533 411.416 440.26 411.143 440.096 410.979C437.911 409.285 436.654 406.772 436.654 403.986C436.654 401.637 437.583 399.397 439.222 397.758C440.915 396.065 443.101 395.191 445.45 395.191C447.799 395.191 450.039 396.119 451.677 397.758C453.371 399.452 454.245 401.637 454.245 403.986C454.245 406.718 452.989 409.285 450.803 410.979C450.53 411.197 450.421 411.47 450.421 411.798C450.421 412.344 450.803 412.781 451.35 412.891H469.978V432.448L469.869 432.667C469.814 432.776 469.76 432.885 469.705 432.994L469.651 433.104C469.596 433.158 469.596 433.213 469.541 433.213V433.322L469.323 433.541C469.159 433.705 468.995 433.869 468.777 434.032L468.722 434.087C468.613 434.142 468.558 434.196 468.449 434.251C468.34 434.306 468.23 434.36 468.176 434.415C468.066 434.469 468.012 434.469 467.902 434.524C467.793 434.579 467.684 434.579 467.575 434.633C467.465 434.633 467.411 434.688 467.302 434.688C467.138 434.743 466.974 434.743 466.755 434.743C465.717 434.743 464.734 434.251 464.078 433.431C462.822 431.793 460.964 430.864 458.943 430.864C455.392 430.864 452.442 433.759 452.442 437.365C452.442 440.916 455.338 443.866 458.943 443.866C460.964 443.866 462.822 442.937 464.078 441.353C464.734 440.479 465.717 440.042 466.755 440.042C466.974 440.042 467.138 440.042 467.302 440.096L467.629 440.151C467.739 440.206 467.848 440.206 467.902 440.26C467.957 440.26 468.066 440.315 468.176 440.369C468.285 440.424 468.394 440.479 468.449 440.533C468.503 440.588 468.613 440.588 468.667 440.643L468.777 440.752C468.995 440.916 469.159 441.08 469.323 441.244L469.541 441.462V441.571L469.705 441.899C469.76 442.008 469.814 442.118 469.869 442.227L469.978 442.445V461.948H470.033Z" fill="#FEE56F"/>
<path d="M422.942 457.523L422.505 457.359C411.142 452.661 404.041 443.046 404.041 432.339C404.041 421.577 411.088 412.017 422.505 407.318L422.942 407.155L423.379 407.318C432.885 411.033 435.562 417.862 436.327 420.812L438.566 420.156L439.003 421.031C440.916 424.636 441.844 428.46 441.844 432.394C441.844 443.156 434.797 452.716 423.379 457.469L422.942 457.523ZM422.942 409.613C412.727 414.038 406.39 422.669 406.39 432.284C406.39 441.899 412.727 450.585 422.942 454.956C433.158 450.531 439.495 441.899 439.495 432.284C439.495 429.006 438.785 425.893 437.365 422.888L434.36 423.762L434.251 422.342C434.141 422.014 433.213 413.874 422.942 409.613Z" fill="#FEE56F"/>
<path d="M424.253 421.468H421.904V462.713H424.253V421.468Z" fill="#FEE56F"/>
<path d="M412.161 433.268L410.5 434.928L422.28 446.712L423.941 445.051L412.161 433.268Z" fill="#FEE56F"/>
<path d="M432.474 428.593L422.314 438.752L423.975 440.413L434.135 430.254L432.474 428.593Z" fill="#FEE56F"/>
<path d="M414.923 421.964L413.262 423.625L421.952 432.318L423.613 430.657L414.923 421.964Z" fill="#FEE56F"/>
<path d="M253.591 369.569C253.591 361.976 259.491 356.404 267.521 356.404C275.552 356.404 281.452 361.976 281.452 369.569C281.452 377.163 275.497 382.735 267.521 382.735C259.491 382.735 253.591 377.108 253.591 369.569ZM275.497 369.569C275.497 364.707 272.056 361.43 267.521 361.43C262.987 361.43 259.545 364.762 259.545 369.569C259.545 374.431 262.987 377.709 267.521 377.709C272.056 377.709 275.497 374.377 275.497 369.569Z" fill="#FEE56F"/>
<path d="M283.91 379.785L285.931 375.36C288.062 376.944 291.285 378.037 294.344 378.037C297.841 378.037 299.261 376.89 299.261 375.306C299.261 370.553 284.456 373.831 284.456 364.325C284.456 360.009 287.953 356.404 295.218 356.404C298.442 356.404 301.719 357.169 304.068 358.644L302.266 363.123C299.917 361.757 297.458 361.102 295.218 361.102C291.722 361.102 290.356 362.413 290.356 363.997C290.356 368.695 305.161 365.472 305.161 374.814C305.161 379.075 301.61 382.735 294.344 382.735C290.247 382.735 286.15 381.533 283.91 379.785Z" fill="#FEE56F"/>
<path d="M307.565 369.569C307.565 361.867 313.465 356.404 321.386 356.404C325.811 356.404 329.471 357.988 331.875 360.938L328.106 364.434C326.412 362.468 324.227 361.43 321.714 361.43C316.961 361.43 313.574 364.762 313.574 369.569C313.574 374.377 316.961 377.709 321.714 377.709C324.282 377.709 326.412 376.671 328.106 374.705L331.875 378.201C329.471 381.151 325.811 382.735 321.332 382.735C313.465 382.735 307.565 377.218 307.565 369.569Z" fill="#FEE56F"/>
</svg>
